%TF.GenerationSoftware,KiCad,Pcbnew,9.0.5*%
%TF.CreationDate,2025-11-06T21:20:33+00:00*%
%TF.ProjectId,Board,426f6172-642e-46b6-9963-61645f706362,v1*%
%TF.SameCoordinates,Original*%
%TF.FileFunction,Copper,L1,Top*%
%TF.FilePolarity,Positive*%
%FSLAX46Y46*%
G04 Gerber Fmt 4.6, Leading zero omitted, Abs format (unit mm)*
G04 Created by KiCad (PCBNEW 9.0.5) date 2025-11-06 21:20:33*
%MOMM*%
%LPD*%
G01*
G04 APERTURE LIST*
G04 Aperture macros list*
%AMRoundRect*
0 Rectangle with rounded corners*
0 $1 Rounding radius*
0 $2 $3 $4 $5 $6 $7 $8 $9 X,Y pos of 4 corners*
0 Add a 4 corners polygon primitive as box body*
4,1,4,$2,$3,$4,$5,$6,$7,$8,$9,$2,$3,0*
0 Add four circle primitives for the rounded corners*
1,1,$1+$1,$2,$3*
1,1,$1+$1,$4,$5*
1,1,$1+$1,$6,$7*
1,1,$1+$1,$8,$9*
0 Add four rect primitives between the rounded corners*
20,1,$1+$1,$2,$3,$4,$5,0*
20,1,$1+$1,$4,$5,$6,$7,0*
20,1,$1+$1,$6,$7,$8,$9,0*
20,1,$1+$1,$8,$9,$2,$3,0*%
G04 Aperture macros list end*
%TA.AperFunction,ComponentPad*%
%ADD10C,1.600000*%
%TD*%
%TA.AperFunction,ComponentPad*%
%ADD11O,2.000000X1.200000*%
%TD*%
%TA.AperFunction,ComponentPad*%
%ADD12O,1.200000X2.000000*%
%TD*%
%TA.AperFunction,ComponentPad*%
%ADD13RoundRect,0.250000X-0.625000X0.350000X-0.625000X-0.350000X0.625000X-0.350000X0.625000X0.350000X0*%
%TD*%
%TA.AperFunction,ComponentPad*%
%ADD14O,1.750000X1.200000*%
%TD*%
%TA.AperFunction,ComponentPad*%
%ADD15RoundRect,0.760000X1.140000X-1.140000X1.140000X1.140000X-1.140000X1.140000X-1.140000X-1.140000X0*%
%TD*%
%TA.AperFunction,ComponentPad*%
%ADD16C,4.000000*%
%TD*%
%TA.AperFunction,ComponentPad*%
%ADD17RoundRect,0.250000X-0.350000X-0.625000X0.350000X-0.625000X0.350000X0.625000X-0.350000X0.625000X0*%
%TD*%
%TA.AperFunction,ComponentPad*%
%ADD18O,1.200000X1.750000*%
%TD*%
%TA.AperFunction,ComponentPad*%
%ADD19R,1.800000X1.800000*%
%TD*%
%TA.AperFunction,ComponentPad*%
%ADD20C,1.800000*%
%TD*%
%TA.AperFunction,ComponentPad*%
%ADD21RoundRect,0.250000X0.350000X0.625000X-0.350000X0.625000X-0.350000X-0.625000X0.350000X-0.625000X0*%
%TD*%
%TA.AperFunction,Conductor*%
%ADD22C,0.300000*%
%TD*%
%TA.AperFunction,Conductor*%
%ADD23C,0.500000*%
%TD*%
%TA.AperFunction,Conductor*%
%ADD24C,1.300000*%
%TD*%
G04 APERTURE END LIST*
D10*
%TO.P,R1,1*%
%TO.N,Net-(D1-K)*%
X109647540Y-141972470D03*
%TO.P,R1,2*%
%TO.N,/GND47*%
X117267540Y-141972470D03*
%TD*%
D11*
%TO.P,RS1,1,VCC*%
%TO.N,/5V99*%
X122462868Y-127961715D03*
%TO.P,RS1,2,GND*%
%TO.N,/GND47*%
X122462868Y-130501715D03*
%TO.P,RS1,3,INPUT*%
%TO.N,/PA15_RS1*%
X122462868Y-133041715D03*
%TD*%
D12*
%TO.P,DR2,1,AO1*%
%TO.N,Net-(MJ2-MV+)*%
X151510000Y-52380000D03*
%TO.P,DR2,3,PGND1*%
%TO.N,GND*%
X154050000Y-52380000D03*
%TO.P,DR2,5,AO2*%
%TO.N,Net-(MJ2-MV-)*%
X148970000Y-52380000D03*
%TO.P,DR2,7,BO2*%
%TO.N,Net-(MJ4-MV-)*%
X146430000Y-52380000D03*
%TO.P,DR2,11,BO1*%
%TO.N,Net-(MJ4-MV+)*%
X143890000Y-52380000D03*
%TO.P,DR2,15,PWMB*%
%TO.N,/PA2_DR2PWMB*%
X143890000Y-67620000D03*
%TO.P,DR2,16,BIN2*%
%TO.N,/PC15_DR2BIN2*%
X146430000Y-67620000D03*
%TO.P,DR2,17,BIN1*%
%TO.N,/PC14_DR2BIN1*%
X148970000Y-67620000D03*
%TO.P,DR2,18,GND*%
%TO.N,/GND23*%
X141350000Y-67620000D03*
X141350000Y-52380000D03*
%TO.P,DR2,19,STBY*%
%TO.N,/PB1_DRxSTBY*%
X151510000Y-67620000D03*
%TO.P,DR2,20,VCC*%
%TO.N,/5V98*%
X156590000Y-52380000D03*
%TO.P,DR2,21,AIN1*%
%TO.N,/PB4_DR2AIN1*%
X154050000Y-67620000D03*
%TO.P,DR2,22,AIN2*%
%TO.N,/PB5_DR2AIN2*%
X156590000Y-67620000D03*
%TO.P,DR2,23,PWMA*%
%TO.N,/PB3_DR2PWMA*%
X159130000Y-67620000D03*
%TO.P,DR2,24,VM1*%
%TO.N,+12V*%
X159130000Y-52380000D03*
%TD*%
D13*
%TO.P,MJ1,1,MV-*%
%TO.N,Net-(MJ1-MV-)*%
X109000000Y-47000000D03*
D14*
%TO.P,MJ1,2,ENC_VCC*%
%TO.N,/5V98*%
X109000000Y-49000000D03*
%TO.P,MJ1,3,ENC_CH2*%
%TO.N,/PA7_MJ1CH2*%
X109000000Y-51000000D03*
%TO.P,MJ1,4,ENC_CH1*%
%TO.N,/PA6_MJ1CH1*%
X109000000Y-53000000D03*
%TO.P,MJ1,5,ENC_GND*%
%TO.N,/GND23*%
X109000000Y-55000000D03*
%TO.P,MJ1,6,MV+*%
%TO.N,Net-(MJ1-MV+)*%
X109000000Y-57000000D03*
%TD*%
D10*
%TO.P,R3,1*%
%TO.N,/5V99*%
X138000000Y-114810000D03*
%TO.P,R3,2*%
%TO.N,/PB8_SCL*%
X138000000Y-107190000D03*
%TD*%
D12*
%TO.P,U1,1,VBAT*%
%TO.N,unconnected-(U1-VBAT-Pad1)*%
X158320000Y-76280000D03*
%TO.P,U1,2,PC13*%
%TO.N,unconnected-(U1-PC13-Pad2)*%
X155780000Y-76280000D03*
%TO.P,U1,3,PC14*%
%TO.N,/PC14_DR2BIN1*%
X153240000Y-76280000D03*
%TO.P,U1,4,PC15*%
%TO.N,/PC15_DR2BIN2*%
X150700000Y-76280000D03*
%TO.P,U1,7,NRST*%
%TO.N,unconnected-(U1-NRST-Pad7)*%
X148160000Y-76280000D03*
%TO.P,U1,10,PA0*%
%TO.N,/PA0_MJ3CH2*%
X145620000Y-76280000D03*
%TO.P,U1,11,PA1*%
%TO.N,/PA1_MJ3CH1*%
X143080000Y-76280000D03*
%TO.P,U1,12,PA2*%
%TO.N,/PA2_DR2PWMB*%
X140540000Y-76280000D03*
%TO.P,U1,13,PA3*%
%TO.N,/PA3_DR1PWMA*%
X138000000Y-76280000D03*
%TO.P,U1,14,PA4*%
%TO.N,/PA4_DR1AIN2*%
X135460000Y-76280000D03*
%TO.P,U1,15,PA5*%
%TO.N,/PA5_DR1PWMB*%
X132920000Y-76280000D03*
%TO.P,U1,16,PA6*%
%TO.N,/PA6_MJ1CH1*%
X130380000Y-76280000D03*
%TO.P,U1,17,PA7*%
%TO.N,/PA7_MJ1CH2*%
X127840000Y-76280000D03*
%TO.P,U1,18,PB0*%
%TO.N,/PB0_DR1AIN1*%
X125300000Y-76280000D03*
%TO.P,U1,19,PB1*%
%TO.N,/PB1_DRxSTBY*%
X122760000Y-76280000D03*
%TO.P,U1,20,PB2*%
%TO.N,/PB2_DR1BIN1*%
X120220000Y-76280000D03*
%TO.P,U1,21,PB10*%
%TO.N,/PB10_DR1BIN2*%
X117680000Y-76280000D03*
%TO.P,U1,23,GND*%
%TO.N,/GND23*%
X112600000Y-76280000D03*
%TO.P,U1,24,3V3*%
%TO.N,unconnected-(U1-3V3-Pad24)*%
X115140000Y-76280000D03*
%TO.P,U1,25,PB12*%
%TO.N,unconnected-(U1-PB12-Pad25)*%
X110060000Y-91500000D03*
%TO.P,U1,26,PB13*%
%TO.N,unconnected-(U1-PB13-Pad26)*%
X112600000Y-91500000D03*
%TO.P,U1,27,PB14*%
%TO.N,unconnected-(U1-PB14-Pad27)*%
X115140000Y-91500000D03*
%TO.P,U1,28,PB15*%
%TO.N,/PB15_D1*%
X117680000Y-91500000D03*
%TO.P,U1,29,PA8*%
%TO.N,/PA8_MJ4CH2*%
X120220000Y-91500000D03*
%TO.P,U1,30,PA9*%
%TO.N,/PA9_MJ4CH1*%
X122760000Y-91500000D03*
%TO.P,U1,31,PA10*%
%TO.N,/PA10_D2*%
X125300000Y-91500000D03*
%TO.P,U1,32,PA11*%
%TO.N,unconnected-(U1-PA11-Pad32)*%
X127840000Y-91500000D03*
%TO.P,U1,33,PA12*%
%TO.N,unconnected-(U1-PA12-Pad33)*%
X130380000Y-91500000D03*
%TO.P,U1,38,PA15*%
%TO.N,/PA15_RS1*%
X132920000Y-91500000D03*
%TO.P,U1,39,PB3*%
%TO.N,/PB3_DR2PWMA*%
X135460000Y-91500000D03*
%TO.P,U1,40,PB4*%
%TO.N,/PB4_DR2AIN1*%
X138000000Y-91500000D03*
%TO.P,U1,41,PB5*%
%TO.N,/PB5_DR2AIN2*%
X140540000Y-91500000D03*
%TO.P,U1,42,PB6*%
%TO.N,/PB6_MJ2CH2*%
X143080000Y-91500000D03*
%TO.P,U1,43,PB7*%
%TO.N,/PB7_MJ2CH1*%
X145620000Y-91500000D03*
%TO.P,U1,45,PB8*%
%TO.N,/PB8_SCL*%
X148160000Y-91500000D03*
%TO.P,U1,46,PB9*%
%TO.N,/PB9_SDA*%
X150700000Y-91500000D03*
%TO.P,U1,47,GND*%
%TO.N,/GND47*%
X155780000Y-91500000D03*
%TO.P,U1,48,3V3*%
%TO.N,unconnected-(U1-3V3-Pad48)*%
X158320000Y-91500000D03*
%TO.P,U1,98,5V*%
%TO.N,/5V98*%
X110060000Y-76280000D03*
%TO.P,U1,99,5V*%
%TO.N,/5V99*%
X153240000Y-91500000D03*
%TD*%
D15*
%TO.P,J1,1,Pin_1*%
%TO.N,GND*%
X165750000Y-71500000D03*
D16*
%TO.P,J1,2,Pin_2*%
%TO.N,+12V*%
X165750000Y-66500000D03*
%TD*%
D17*
%TO.P,MJ4,1,MV-*%
%TO.N,Net-(MJ4-MV-)*%
X145500000Y-43000000D03*
D18*
%TO.P,MJ4,2,ENC_VCC*%
%TO.N,/5V98*%
X147500000Y-43000000D03*
%TO.P,MJ4,3,ENC_CH2*%
%TO.N,/PA8_MJ4CH2*%
X149500000Y-43000000D03*
%TO.P,MJ4,4,ENC_CH1*%
%TO.N,/PA9_MJ4CH1*%
X151500000Y-43000000D03*
%TO.P,MJ4,5,ENC_GND*%
%TO.N,/GND23*%
X153500000Y-43000000D03*
%TO.P,MJ4,6,MV+*%
%TO.N,Net-(MJ4-MV+)*%
X155500000Y-43000000D03*
%TD*%
D19*
%TO.P,D2,1,K*%
%TO.N,Net-(D1-K)*%
X115994869Y-136759430D03*
D20*
%TO.P,D2,2,A*%
%TO.N,/PA10_D2*%
X115994869Y-134219430D03*
%TD*%
D13*
%TO.P,MJ2,1,MV-*%
%TO.N,Net-(MJ2-MV-)*%
X166250000Y-47000000D03*
D14*
%TO.P,MJ2,2,ENC_VCC*%
%TO.N,/5V98*%
X166250000Y-49000000D03*
%TO.P,MJ2,3,ENC_CH2*%
%TO.N,/PB6_MJ2CH2*%
X166250000Y-51000000D03*
%TO.P,MJ2,4,ENC_CH1*%
%TO.N,/PB7_MJ2CH1*%
X166250000Y-53000000D03*
%TO.P,MJ2,5,ENC_GND*%
%TO.N,/GND23*%
X166250000Y-55000000D03*
%TO.P,MJ2,6,MV+*%
%TO.N,Net-(MJ2-MV+)*%
X166250000Y-57000000D03*
%TD*%
D19*
%TO.P,D1,1,K*%
%TO.N,Net-(D1-K)*%
X108999691Y-136759430D03*
D20*
%TO.P,D1,2,A*%
%TO.N,/PB15_D1*%
X108999691Y-134219430D03*
%TD*%
D21*
%TO.P,MJ3,1,MV-*%
%TO.N,Net-(MJ3-MV-)*%
X128500000Y-43000000D03*
D18*
%TO.P,MJ3,2,ENC_VCC*%
%TO.N,/5V98*%
X126500000Y-43000000D03*
%TO.P,MJ3,3,ENC_CH2*%
%TO.N,/PA0_MJ3CH2*%
X124500000Y-43000000D03*
%TO.P,MJ3,4,ENC_CH1*%
%TO.N,/PA1_MJ3CH1*%
X122500000Y-43000000D03*
%TO.P,MJ3,5,ENC_GND*%
%TO.N,/GND23*%
X120500000Y-43000000D03*
%TO.P,MJ3,6,MV+*%
%TO.N,Net-(MJ3-MV+)*%
X118500000Y-43000000D03*
%TD*%
D10*
%TO.P,R2,1*%
%TO.N,/5V99*%
X131975312Y-112598279D03*
%TO.P,R2,2*%
%TO.N,/PB9_SDA*%
X131975312Y-104978279D03*
%TD*%
D11*
%TO.P,S1,3,~{Alert}*%
%TO.N,unconnected-(S1-~{Alert}-Pad3)*%
X126250000Y-107270000D03*
%TO.P,S1,4,SDA*%
%TO.N,/PB9_SDA*%
X126250000Y-104730000D03*
%TO.P,S1,5,SCL*%
%TO.N,/PB8_SCL*%
X126250000Y-102190000D03*
%TO.P,S1,6,VS*%
%TO.N,/5V99*%
X126250000Y-97110000D03*
%TO.P,S1,7,GND*%
%TO.N,/GND47*%
X126250000Y-99650000D03*
%TO.P,S1,8,Vbus*%
%TO.N,/S1Vbus*%
X126250000Y-109810000D03*
%TO.P,S1,9,Vin-*%
X126250000Y-112350000D03*
%TO.P,S1,10,Vin+*%
%TO.N,unconnected-(S1-Vin+-Pad10)*%
X126250000Y-114890000D03*
%TD*%
%TO.P,S2,3,~{Alert}*%
%TO.N,unconnected-(S2-~{Alert}-Pad3)*%
X143750000Y-104730000D03*
%TO.P,S2,4,SDA*%
%TO.N,/PB9_SDA*%
X143750000Y-107270000D03*
%TO.P,S2,5,SCL*%
%TO.N,/PB8_SCL*%
X143750000Y-109810000D03*
%TO.P,S2,6,VS*%
%TO.N,/5V99*%
X143750000Y-114890000D03*
%TO.P,S2,7,GND*%
%TO.N,/GND47*%
X143750000Y-112350000D03*
%TO.P,S2,8,Vbus*%
%TO.N,/S2Vbus*%
X143750000Y-102190000D03*
%TO.P,S2,9,Vin-*%
X143750000Y-99650000D03*
%TO.P,S2,10,Vin+*%
%TO.N,unconnected-(S2-Vin+-Pad10)*%
X143750000Y-97110000D03*
%TD*%
D12*
%TO.P,DR1,1,AO1*%
%TO.N,Net-(MJ3-MV+)*%
X125420000Y-52380000D03*
%TO.P,DR1,3,PGND1*%
%TO.N,GND*%
X127960000Y-52380000D03*
%TO.P,DR1,5,AO2*%
%TO.N,Net-(MJ3-MV-)*%
X122880000Y-52380000D03*
%TO.P,DR1,7,BO2*%
%TO.N,Net-(MJ1-MV-)*%
X120340000Y-52380000D03*
%TO.P,DR1,11,BO1*%
%TO.N,Net-(MJ1-MV+)*%
X117800000Y-52380000D03*
%TO.P,DR1,15,PWMB*%
%TO.N,/PA5_DR1PWMB*%
X117800000Y-67620000D03*
%TO.P,DR1,16,BIN2*%
%TO.N,/PB10_DR1BIN2*%
X120340000Y-67620000D03*
%TO.P,DR1,17,BIN1*%
%TO.N,/PB2_DR1BIN1*%
X122880000Y-67620000D03*
%TO.P,DR1,18,GND*%
%TO.N,/GND23*%
X115260000Y-67620000D03*
X115260000Y-52380000D03*
%TO.P,DR1,19,STBY*%
%TO.N,/PB1_DRxSTBY*%
X125420000Y-67620000D03*
%TO.P,DR1,20,VCC*%
%TO.N,/5V98*%
X130500000Y-52380000D03*
%TO.P,DR1,21,AIN1*%
%TO.N,/PB0_DR1AIN1*%
X127960000Y-67620000D03*
%TO.P,DR1,22,AIN2*%
%TO.N,/PA4_DR1AIN2*%
X130500000Y-67620000D03*
%TO.P,DR1,23,PWMA*%
%TO.N,/PA3_DR1PWMA*%
X133040000Y-67620000D03*
%TO.P,DR1,24,VM1*%
%TO.N,+12V*%
X133040000Y-52380000D03*
%TD*%
D22*
%TO.N,/PA8_MJ4CH2*%
X157500000Y-45000000D02*
X157500000Y-42000000D01*
X151000000Y-45500000D02*
X157000000Y-45500000D01*
X101000000Y-47500000D02*
X101000000Y-81000000D01*
X157000000Y-45500000D02*
X157500000Y-45000000D01*
X149500000Y-43000000D02*
X149500000Y-44000000D01*
X149500000Y-44000000D02*
X151000000Y-45500000D01*
X157500000Y-42000000D02*
X153000000Y-37500000D01*
X111000000Y-37500000D02*
X101000000Y-47500000D01*
X101000000Y-81000000D02*
X106000000Y-86000000D01*
X153000000Y-37500000D02*
X111000000Y-37500000D01*
X106000000Y-86000000D02*
X114720000Y-86000000D01*
X114720000Y-86000000D02*
X120220000Y-91500000D01*
%TO.N,/PA9_MJ4CH1*%
X151500000Y-43000000D02*
X147500000Y-39000000D01*
X147500000Y-39000000D02*
X111000000Y-39000000D01*
X102500000Y-47500000D02*
X102500000Y-80500000D01*
X106500000Y-84500000D02*
X115760000Y-84500000D01*
X111000000Y-39000000D02*
X102500000Y-47500000D01*
X102500000Y-80500000D02*
X106500000Y-84500000D01*
X115760000Y-84500000D02*
X122760000Y-91500000D01*
%TO.N,/PA0_MJ3CH2*%
X145620000Y-76280000D02*
X138900000Y-83000000D01*
X138900000Y-83000000D02*
X107000000Y-83000000D01*
X104000000Y-47500000D02*
X111000000Y-40500000D01*
X107000000Y-83000000D02*
X104000000Y-80000000D01*
X123000000Y-40500000D02*
X124500000Y-42000000D01*
X104000000Y-80000000D02*
X104000000Y-47500000D01*
X111000000Y-40500000D02*
X123000000Y-40500000D01*
X124500000Y-42000000D02*
X124500000Y-43000000D01*
D23*
%TO.N,/PB15_D1*%
X108999691Y-134219430D02*
X108999691Y-100180309D01*
X108999691Y-100180309D02*
X117680000Y-91500000D01*
%TO.N,Net-(D1-K)*%
X108999691Y-136759430D02*
X108999691Y-141324621D01*
X115994869Y-136759430D02*
X108999691Y-136759430D01*
X108999691Y-141324621D02*
X109647540Y-141972470D01*
%TO.N,/PA10_D2*%
X115994869Y-134219430D02*
X115994869Y-100805131D01*
X115994869Y-100805131D02*
X125300000Y-91500000D01*
D22*
%TO.N,/PA4_DR1AIN2*%
X135460000Y-72580000D02*
X135460000Y-76280000D01*
X130500000Y-67620000D02*
X135460000Y-72580000D01*
D24*
%TO.N,+12V*%
X159130000Y-52380000D02*
X159130000Y-54370000D01*
X159130000Y-56630000D02*
X158000000Y-55500000D01*
X165750000Y-63250000D02*
X159130000Y-56630000D01*
X165750000Y-66500000D02*
X165750000Y-63250000D01*
X156500000Y-55500000D02*
X134000000Y-55500000D01*
X159130000Y-54370000D02*
X159130000Y-56630000D01*
X159130000Y-54370000D02*
X158000000Y-55500000D01*
X133040000Y-52380000D02*
X133040000Y-54540000D01*
X133040000Y-54540000D02*
X134000000Y-55500000D01*
X158000000Y-55500000D02*
X156500000Y-55500000D01*
D22*
%TO.N,/PB2_DR1BIN1*%
X120220000Y-70280000D02*
X120220000Y-76280000D01*
X122880000Y-67620000D02*
X120220000Y-70280000D01*
%TO.N,/PB1_DRxSTBY*%
X125420000Y-67840000D02*
X122760000Y-70500000D01*
X125420000Y-67620000D02*
X125540000Y-67620000D01*
X125540000Y-67620000D02*
X127160000Y-66000000D01*
X125420000Y-67620000D02*
X125420000Y-67840000D01*
X127160000Y-66000000D02*
X149890000Y-66000000D01*
X122760000Y-76280000D02*
X122760000Y-70500000D01*
X151510000Y-67620000D02*
X149890000Y-66000000D01*
%TO.N,/PB0_DR1AIN1*%
X127960000Y-67620000D02*
X127960000Y-67740000D01*
X125300000Y-76280000D02*
X125300000Y-70400000D01*
X127960000Y-67740000D02*
X125300000Y-70400000D01*
D23*
%TO.N,/5V99*%
X130538285Y-127961715D02*
X122462868Y-127961715D01*
X143750000Y-114890000D02*
X138080000Y-114890000D01*
X138000000Y-114810000D02*
X138000000Y-120500000D01*
X138000000Y-114810000D02*
X134187033Y-114810000D01*
X153240000Y-105400000D02*
X143750000Y-114890000D01*
X153240000Y-91500000D02*
X153240000Y-105400000D01*
X122462868Y-100897132D02*
X126250000Y-97110000D01*
X138000000Y-120500000D02*
X130538285Y-127961715D01*
X138080000Y-114890000D02*
X138000000Y-114810000D01*
X122462868Y-127961715D02*
X122462868Y-100897132D01*
X134187033Y-114810000D02*
X131975312Y-112598279D01*
D22*
%TO.N,/PB10_DR1BIN2*%
X120340000Y-67620000D02*
X120340000Y-67740000D01*
X117680000Y-76280000D02*
X117680000Y-70400000D01*
X120340000Y-67740000D02*
X117680000Y-70400000D01*
%TO.N,/PB4_DR2AIN1*%
X160000000Y-75500000D02*
X154050000Y-69550000D01*
X158500000Y-82500000D02*
X160000000Y-81000000D01*
X160000000Y-81000000D02*
X160000000Y-75500000D01*
X144500000Y-82500000D02*
X158500000Y-82500000D01*
X154050000Y-67620000D02*
X154050000Y-69550000D01*
X138000000Y-91500000D02*
X138000000Y-89000000D01*
X138000000Y-89000000D02*
X144500000Y-82500000D01*
%TO.N,/PC14_DR2BIN1*%
X148970000Y-67620000D02*
X153240000Y-71890000D01*
X153240000Y-76280000D02*
X153240000Y-71890000D01*
%TO.N,/PC15_DR2BIN2*%
X146430000Y-67620000D02*
X150700000Y-71890000D01*
X150700000Y-76280000D02*
X150700000Y-71890000D01*
D24*
%TO.N,Net-(MJ3-MV-)*%
X122880000Y-49620000D02*
X122880000Y-52380000D01*
X128500000Y-44000000D02*
X122880000Y-49620000D01*
X128500000Y-43000000D02*
X128500000Y-44000000D01*
%TO.N,Net-(MJ4-MV-)*%
X145500000Y-47500000D02*
X145500000Y-43000000D01*
X146430000Y-52380000D02*
X146430000Y-48430000D01*
X146430000Y-48430000D02*
X145500000Y-47500000D01*
D22*
%TO.N,/PB5_DR2AIN2*%
X140540000Y-89960000D02*
X140540000Y-91500000D01*
X156590000Y-67620000D02*
X156590000Y-69090000D01*
X146500000Y-84000000D02*
X140540000Y-89960000D01*
X159500000Y-84000000D02*
X146500000Y-84000000D01*
X161500000Y-74000000D02*
X161500000Y-82000000D01*
X156590000Y-69090000D02*
X161500000Y-74000000D01*
X161500000Y-82000000D02*
X159500000Y-84000000D01*
%TO.N,/PA7_MJ1CH2*%
X108500000Y-60500000D02*
X111500000Y-57500000D01*
X127840000Y-76660002D02*
X126000001Y-78500001D01*
X127840000Y-76280000D02*
X127840000Y-76660002D01*
X126000001Y-78500001D02*
X109500001Y-78500001D01*
X109500001Y-78500001D02*
X108500000Y-77500000D01*
X109000000Y-51000000D02*
X111500000Y-53500000D01*
X108500000Y-77500000D02*
X108500000Y-60500000D01*
X111500000Y-53500000D02*
X111500000Y-57500000D01*
%TO.N,/PA6_MJ1CH1*%
X107000000Y-54000000D02*
X107000000Y-78500000D01*
X108500000Y-80000000D02*
X126660000Y-80000000D01*
X126660000Y-80000000D02*
X130380000Y-76280000D01*
X109000000Y-53000000D02*
X108000000Y-53000000D01*
X108000000Y-53000000D02*
X107000000Y-54000000D01*
X107000000Y-78500000D02*
X108500000Y-80000000D01*
%TO.N,/PB6_MJ2CH2*%
X166250000Y-51000000D02*
X164000000Y-53250000D01*
X160000000Y-87000000D02*
X147000000Y-87000000D01*
X169125000Y-77875000D02*
X160000000Y-87000000D01*
X143080000Y-90920000D02*
X143080000Y-91500000D01*
X147000000Y-87000000D02*
X143080000Y-90920000D01*
X164000000Y-58000000D02*
X169125000Y-63125000D01*
X169125000Y-63125000D02*
X169125000Y-77875000D01*
X164000000Y-53250000D02*
X164000000Y-58000000D01*
%TO.N,/PB7_MJ2CH1*%
X145620000Y-91500000D02*
X148620000Y-88500000D01*
X148620000Y-88500000D02*
X160500000Y-88500000D01*
X170500000Y-57250000D02*
X166250000Y-53000000D01*
X170500000Y-78500000D02*
X170500000Y-57250000D01*
X160500000Y-88500000D02*
X170500000Y-78500000D01*
%TO.N,/PA1_MJ3CH1*%
X110000000Y-45000000D02*
X108000000Y-45000000D01*
X108000000Y-45000000D02*
X105500000Y-47500000D01*
X105500000Y-47500000D02*
X105500000Y-79500000D01*
X120500000Y-47000000D02*
X112000000Y-47000000D01*
X112000000Y-47000000D02*
X110000000Y-45000000D01*
X122500000Y-45000000D02*
X122500000Y-43000000D01*
X120500000Y-47000000D02*
X122500000Y-45000000D01*
X137860000Y-81500000D02*
X143080000Y-76280000D01*
X105500000Y-79500000D02*
X107500000Y-81500000D01*
X107500000Y-81500000D02*
X137860000Y-81500000D01*
D23*
%TO.N,/5V98*%
X110060000Y-60940000D02*
X113000000Y-58000000D01*
X147500000Y-43290000D02*
X153210000Y-49000000D01*
X154000000Y-49000000D02*
X153605000Y-49395000D01*
X130000000Y-40500000D02*
X130500000Y-41000000D01*
X128000000Y-55000000D02*
X130500000Y-52500000D01*
X153210000Y-49000000D02*
X153605000Y-49395000D01*
X130000000Y-40500000D02*
X127500000Y-40500000D01*
X130500000Y-40500000D02*
X131000000Y-40500000D01*
X109000000Y-49000000D02*
X111500000Y-49000000D01*
X113000000Y-58000000D02*
X113000000Y-55000000D01*
X127500000Y-40500000D02*
X126500000Y-41500000D01*
X113000000Y-50500000D02*
X113000000Y-55000000D01*
X166250000Y-49000000D02*
X154000000Y-49000000D01*
X131000000Y-40500000D02*
X146000000Y-40500000D01*
X130500000Y-41000000D02*
X130500000Y-40500000D01*
X146000000Y-40500000D02*
X147500000Y-42000000D01*
X130500000Y-52380000D02*
X130500000Y-41000000D01*
X153605000Y-49395000D02*
X156590000Y-52380000D01*
X147500000Y-42000000D02*
X147500000Y-43000000D01*
X110060000Y-76280000D02*
X110060000Y-60940000D01*
X111500000Y-49000000D02*
X113000000Y-50500000D01*
X130500000Y-40500000D02*
X130000000Y-40500000D01*
X126500000Y-41500000D02*
X126500000Y-43000000D01*
X154000000Y-49000000D02*
X153210000Y-49000000D01*
X130500000Y-52500000D02*
X130500000Y-52380000D01*
X113000000Y-55000000D02*
X128000000Y-55000000D01*
X147500000Y-43000000D02*
X147500000Y-43290000D01*
X131000000Y-40500000D02*
X130500000Y-41000000D01*
D22*
%TO.N,/PB9_SDA*%
X126498279Y-104978279D02*
X126250000Y-104730000D01*
X150700000Y-91500000D02*
X150700000Y-100320000D01*
X150700000Y-100320000D02*
X143750000Y-107270000D01*
%TO.N,/PB8_SCL*%
X133000000Y-102190000D02*
X126250000Y-102190000D01*
X138000000Y-107190000D02*
X133000000Y-102190000D01*
X140620000Y-109810000D02*
X138000000Y-107190000D01*
X143750000Y-109810000D02*
X140620000Y-109810000D01*
%TO.N,/PA15_RS1*%
X122462868Y-133041715D02*
X120500000Y-131078847D01*
X120500000Y-131078847D02*
X120500000Y-100000000D01*
X120500000Y-100000000D02*
X125000000Y-95500000D01*
X125000000Y-95500000D02*
X128920000Y-95500000D01*
X128920000Y-95500000D02*
X132920000Y-91500000D01*
D23*
%TO.N,/S1Vbus*%
X126250000Y-112350000D02*
X126250000Y-109810000D01*
%TO.N,/S2Vbus*%
X143750000Y-102190000D02*
X143750000Y-99650000D01*
%TD*%
%TA.AperFunction,Conductor*%
%TO.N,/GND47*%
G36*
X172192539Y-35256696D02*
G01*
X172238294Y-35309500D01*
X172249500Y-35361011D01*
X172249500Y-144612011D01*
X172229815Y-144679050D01*
X172177011Y-144724805D01*
X172125500Y-144736011D01*
X97874500Y-144736011D01*
X97807461Y-144716326D01*
X97761706Y-144663522D01*
X97750500Y-144612011D01*
X97750500Y-139865186D01*
X100099500Y-139865186D01*
X100099500Y-140134813D01*
X100129686Y-140402719D01*
X100129688Y-140402731D01*
X100189684Y-140665594D01*
X100189687Y-140665602D01*
X100278734Y-140920082D01*
X100395714Y-141162994D01*
X100395716Y-141162997D01*
X100539162Y-141391289D01*
X100707266Y-141602085D01*
X100897915Y-141792734D01*
X101108711Y-141960838D01*
X101337003Y-142104284D01*
X101579921Y-142221267D01*
X101738874Y-142276887D01*
X101834397Y-142310312D01*
X101834405Y-142310315D01*
X101834408Y-142310315D01*
X101834409Y-142310316D01*
X102097268Y-142370312D01*
X102365187Y-142400499D01*
X102365188Y-142400500D01*
X102365191Y-142400500D01*
X102634812Y-142400500D01*
X102634812Y-142400499D01*
X102902732Y-142370312D01*
X103165591Y-142310316D01*
X103420079Y-142221267D01*
X103662997Y-142104284D01*
X103891289Y-141960838D01*
X104102085Y-141792734D01*
X104292734Y-141602085D01*
X104460838Y-141391289D01*
X104604284Y-141162997D01*
X104721267Y-140920079D01*
X104810316Y-140665591D01*
X104870312Y-140402732D01*
X104900500Y-140134809D01*
X104900500Y-139865191D01*
X104870312Y-139597268D01*
X104810316Y-139334409D01*
X104721267Y-139079921D01*
X104604284Y-138837003D01*
X104460838Y-138608711D01*
X104292734Y-138397915D01*
X104102085Y-138207266D01*
X103891289Y-138039162D01*
X103662997Y-137895716D01*
X103662994Y-137895714D01*
X103420082Y-137778734D01*
X103165602Y-137689687D01*
X103165594Y-137689684D01*
X102921317Y-137633930D01*
X102902732Y-137629688D01*
X102902728Y-137629687D01*
X102902719Y-137629686D01*
X102634813Y-137599500D01*
X102634809Y-137599500D01*
X102365191Y-137599500D01*
X102365186Y-137599500D01*
X102097280Y-137629686D01*
X102097268Y-137629688D01*
X101834405Y-137689684D01*
X101834397Y-137689687D01*
X101579917Y-137778734D01*
X101337005Y-137895714D01*
X101108712Y-138039161D01*
X100897915Y-138207265D01*
X100707265Y-138397915D01*
X100539161Y-138608712D01*
X100395714Y-138837005D01*
X100278734Y-139079917D01*
X100189687Y-139334397D01*
X100189684Y-139334405D01*
X100129688Y-139597268D01*
X100129686Y-139597280D01*
X100099500Y-139865186D01*
X97750500Y-139865186D01*
X97750500Y-91013389D01*
X108959500Y-91013389D01*
X108959500Y-91986611D01*
X108967677Y-92038239D01*
X108986579Y-92157585D01*
X108986598Y-92157701D01*
X109040127Y-92322445D01*
X109118768Y-92476788D01*
X109220586Y-92616928D01*
X109343072Y-92739414D01*
X109483212Y-92841232D01*
X109637555Y-92919873D01*
X109802299Y-92973402D01*
X109973389Y-93000500D01*
X109973390Y-93000500D01*
X110146610Y-93000500D01*
X110146611Y-93000500D01*
X110317701Y-92973402D01*
X110482445Y-92919873D01*
X110636788Y-92841232D01*
X110776928Y-92739414D01*
X110899414Y-92616928D01*
X111001232Y-92476788D01*
X111079873Y-92322445D01*
X111133402Y-92157701D01*
X111160500Y-91986611D01*
X111160500Y-91013389D01*
X111499500Y-91013389D01*
X111499500Y-91986611D01*
X111507677Y-92038239D01*
X111526579Y-92157585D01*
X111526598Y-92157701D01*
X111580127Y-92322445D01*
X111658768Y-92476788D01*
X111760586Y-92616928D01*
X111883072Y-92739414D01*
X112023212Y-92841232D01*
X112177555Y-92919873D01*
X112342299Y-92973402D01*
X112513389Y-93000500D01*
X112513390Y-93000500D01*
X112686610Y-93000500D01*
X112686611Y-93000500D01*
X112857701Y-92973402D01*
X113022445Y-92919873D01*
X113176788Y-92841232D01*
X113316928Y-92739414D01*
X113439414Y-92616928D01*
X113541232Y-92476788D01*
X113619873Y-92322445D01*
X113673402Y-92157701D01*
X113700500Y-91986611D01*
X113700500Y-91013389D01*
X113673402Y-90842299D01*
X113619873Y-90677555D01*
X113541232Y-90523212D01*
X113439414Y-90383072D01*
X113316928Y-90260586D01*
X113176788Y-90158768D01*
X113022445Y-90080127D01*
X112857701Y-90026598D01*
X112857699Y-90026597D01*
X112857698Y-90026597D01*
X112725750Y-90005699D01*
X112686611Y-89999500D01*
X112513389Y-89999500D01*
X112474250Y-90005699D01*
X112342302Y-90026597D01*
X112177552Y-90080128D01*
X112023211Y-90158768D01*
X111974543Y-90194128D01*
X111883072Y-90260586D01*
X111883070Y-90260588D01*
X111883069Y-90260588D01*
X111760588Y-90383069D01*
X111760588Y-90383070D01*
X111760586Y-90383072D01*
X111716859Y-90443256D01*
X111658768Y-90523211D01*
X111580128Y-90677552D01*
X111526597Y-90842302D01*
X111505700Y-90974246D01*
X111499500Y-91013389D01*
X111160500Y-91013389D01*
X111133402Y-90842299D01*
X111079873Y-90677555D01*
X111001232Y-90523212D01*
X110899414Y-90383072D01*
X110776928Y-90260586D01*
X110636788Y-90158768D01*
X110482445Y-90080127D01*
X110317701Y-90026598D01*
X110317699Y-90026597D01*
X110317698Y-90026597D01*
X110185750Y-90005699D01*
X110146611Y-89999500D01*
X109973389Y-89999500D01*
X109934250Y-90005699D01*
X109802302Y-90026597D01*
X109637552Y-90080128D01*
X109483211Y-90158768D01*
X109434543Y-90194128D01*
X109343072Y-90260586D01*
X109343070Y-90260588D01*
X109343069Y-90260588D01*
X109220588Y-90383069D01*
X109220588Y-90383070D01*
X109220586Y-90383072D01*
X109176859Y-90443256D01*
X109118768Y-90523211D01*
X109040128Y-90677552D01*
X108986597Y-90842302D01*
X108965700Y-90974246D01*
X108959500Y-91013389D01*
X97750500Y-91013389D01*
X97750500Y-47435928D01*
X100349500Y-47435928D01*
X100349500Y-47435931D01*
X100349500Y-81064069D01*
X100361720Y-81125501D01*
X100374499Y-81189744D01*
X100423535Y-81308127D01*
X100494723Y-81414669D01*
X100494726Y-81414673D01*
X105585326Y-86505273D01*
X105585329Y-86505275D01*
X105585331Y-86505277D01*
X105691873Y-86576465D01*
X105810256Y-86625501D01*
X105810260Y-86625501D01*
X105810261Y-86625502D01*
X105935928Y-86650500D01*
X105935931Y-86650500D01*
X114399192Y-86650500D01*
X114466231Y-86670185D01*
X114486873Y-86686819D01*
X117599281Y-89799227D01*
X117632766Y-89860550D01*
X117627782Y-89930242D01*
X117585910Y-89986175D01*
X117530999Y-90009381D01*
X117422301Y-90026597D01*
X117257552Y-90080128D01*
X117103211Y-90158768D01*
X117054543Y-90194128D01*
X116963072Y-90260586D01*
X116963070Y-90260588D01*
X116963069Y-90260588D01*
X116840588Y-90383069D01*
X116840588Y-90383070D01*
X116840586Y-90383072D01*
X116796859Y-90443256D01*
X116738768Y-90523211D01*
X116660128Y-90677552D01*
X116606597Y-90842302D01*
X116579500Y-91013389D01*
X116579500Y-91487770D01*
X116570855Y-91517210D01*
X116564332Y-91547197D01*
X116560577Y-91552212D01*
X116559815Y-91554809D01*
X116543181Y-91575451D01*
X116452181Y-91666451D01*
X116390858Y-91699936D01*
X116321166Y-91694952D01*
X116265233Y-91653080D01*
X116240816Y-91587616D01*
X116240500Y-91578770D01*
X116240500Y-91013389D01*
X116213421Y-90842420D01*
X116213402Y-90842299D01*
X116159873Y-90677555D01*
X116081232Y-90523212D01*
X115979414Y-90383072D01*
X115856928Y-90260586D01*
X115716788Y-90158768D01*
X115562445Y-90080127D01*
X115397701Y-90026598D01*
X115397699Y-90026597D01*
X115397698Y-90026597D01*
X115265750Y-90005699D01*
X115226611Y-89999500D01*
X115053389Y-89999500D01*
X115014250Y-90005699D01*
X114882302Y-90026597D01*
X114717552Y-90080128D01*
X114563211Y-90158768D01*
X114514543Y-90194128D01*
X114423072Y-90260586D01*
X114423070Y-90260588D01*
X114423069Y-90260588D01*
X114300588Y-90383069D01*
X114300588Y-90383070D01*
X114300586Y-90383072D01*
X114256859Y-90443256D01*
X114198768Y-90523211D01*
X114120128Y-90677552D01*
X114066597Y-90842302D01*
X114045700Y-90974246D01*
X114039500Y-91013389D01*
X114039500Y-91986611D01*
X114047677Y-92038239D01*
X114066579Y-92157585D01*
X114066598Y-92157701D01*
X114120127Y-92322445D01*
X114198768Y-92476788D01*
X114300586Y-92616928D01*
X114423072Y-92739414D01*
X114563212Y-92841232D01*
X114717555Y-92919873D01*
X114882299Y-92973402D01*
X114882301Y-92973402D01*
X114886932Y-92974907D01*
X114886312Y-92976813D01*
X114939578Y-93007365D01*
X114971771Y-93069376D01*
X114965327Y-93138948D01*
X114937760Y-93180870D01*
X108416741Y-99701889D01*
X108416735Y-99701897D01*
X108367503Y-99775577D01*
X108367504Y-99775578D01*
X108334612Y-99824805D01*
X108334605Y-99824817D01*
X108278033Y-99961395D01*
X108278031Y-99961401D01*
X108249191Y-100106388D01*
X108249191Y-132970405D01*
X108229506Y-133037444D01*
X108198078Y-133070721D01*
X108119221Y-133128014D01*
X108087323Y-133151190D01*
X107931447Y-133307066D01*
X107931443Y-133307071D01*
X107801878Y-133485404D01*
X107701795Y-133681823D01*
X107701794Y-133681826D01*
X107633676Y-133891477D01*
X107599191Y-134109208D01*
X107599191Y-134329651D01*
X107633676Y-134547382D01*
X107701794Y-134757033D01*
X107701795Y-134757036D01*
X107801878Y-134953455D01*
X107931443Y-135131788D01*
X107931447Y-135131793D01*
X107981619Y-135181965D01*
X108015104Y-135243288D01*
X108010120Y-135312980D01*
X107968248Y-135368913D01*
X107937272Y-135385828D01*
X107857360Y-135415633D01*
X107857355Y-135415636D01*
X107742146Y-135501882D01*
X107742143Y-135501885D01*
X107655897Y-135617094D01*
X107655893Y-135617101D01*
X107605599Y-135751947D01*
X107599192Y-135811546D01*
X107599192Y-135811553D01*
X107599191Y-135811565D01*
X107599191Y-137707300D01*
X107599192Y-137707306D01*
X107605599Y-137766913D01*
X107655893Y-137901758D01*
X107655897Y-137901765D01*
X107742143Y-138016974D01*
X107742146Y-138016977D01*
X107857355Y-138103223D01*
X107857362Y-138103227D01*
X107902309Y-138119991D01*
X107992208Y-138153521D01*
X108051818Y-138159930D01*
X108125191Y-138159929D01*
X108192229Y-138179613D01*
X108237985Y-138232416D01*
X108249191Y-138283929D01*
X108249191Y-141398539D01*
X108249191Y-141398541D01*
X108249190Y-141398541D01*
X108278031Y-141543528D01*
X108278034Y-141543538D01*
X108334603Y-141680109D01*
X108334608Y-141680118D01*
X108342022Y-141691214D01*
X108362898Y-141757892D01*
X108361391Y-141779500D01*
X108347040Y-141870111D01*
X108347040Y-142074821D01*
X108379062Y-142277004D01*
X108442321Y-142471693D01*
X108506231Y-142597123D01*
X108535125Y-142653829D01*
X108535255Y-142654083D01*
X108655568Y-142819683D01*
X108800326Y-142964441D01*
X108920766Y-143051944D01*
X108965930Y-143084757D01*
X109082147Y-143143973D01*
X109148316Y-143177688D01*
X109148318Y-143177688D01*
X109148321Y-143177690D01*
X109252677Y-143211597D01*
X109343005Y-143240947D01*
X109444097Y-143256958D01*
X109545188Y-143272970D01*
X109545189Y-143272970D01*
X109749891Y-143272970D01*
X109749892Y-143272970D01*
X109952074Y-143240947D01*
X110146759Y-143177690D01*
X110329150Y-143084757D01*
X110422130Y-143017202D01*
X110494753Y-142964441D01*
X110494755Y-142964438D01*
X110494759Y-142964436D01*
X110639506Y-142819689D01*
X110639508Y-142819685D01*
X110639511Y-142819683D01*
X110692272Y-142747060D01*
X110759827Y-142654080D01*
X110852760Y-142471689D01*
X110916017Y-142277004D01*
X110948040Y-142074822D01*
X110948040Y-141870152D01*
X115967540Y-141870152D01*
X115967540Y-142074787D01*
X115999549Y-142276887D01*
X116062784Y-142471501D01*
X116155681Y-142653820D01*
X116155687Y-142653829D01*
X116188063Y-142698391D01*
X116188064Y-142698392D01*
X116867540Y-142018916D01*
X116867540Y-142025131D01*
X116894799Y-142126864D01*
X116947460Y-142218076D01*
X117021934Y-142292550D01*
X117113146Y-142345211D01*
X117214879Y-142372470D01*
X117221093Y-142372470D01*
X116541616Y-143051944D01*
X116586190Y-143084329D01*
X116768508Y-143177225D01*
X116963122Y-143240460D01*
X117165223Y-143272470D01*
X117369857Y-143272470D01*
X117571957Y-143240460D01*
X117766571Y-143177225D01*
X117948889Y-143084329D01*
X117993461Y-143051944D01*
X117313987Y-142372470D01*
X117320201Y-142372470D01*
X117421934Y-142345211D01*
X117513146Y-142292550D01*
X117587620Y-142218076D01*
X117640281Y-142126864D01*
X117667540Y-142025131D01*
X117667540Y-142018917D01*
X118347014Y-142698391D01*
X118379399Y-142653819D01*
X118472295Y-142471501D01*
X118535530Y-142276887D01*
X118567540Y-142074787D01*
X118567540Y-141870152D01*
X118535530Y-141668052D01*
X118472295Y-141473438D01*
X118379399Y-141291120D01*
X118347014Y-141246547D01*
X118347014Y-141246546D01*
X117667540Y-141926021D01*
X117667540Y-141919809D01*
X117640281Y-141818076D01*
X117587620Y-141726864D01*
X117513146Y-141652390D01*
X117421934Y-141599729D01*
X117320201Y-141572470D01*
X117313986Y-141572470D01*
X117993462Y-140892994D01*
X117993461Y-140892993D01*
X117948899Y-140860617D01*
X117948890Y-140860611D01*
X117766571Y-140767714D01*
X117571957Y-140704479D01*
X117369857Y-140672470D01*
X117165223Y-140672470D01*
X116963122Y-140704479D01*
X116768508Y-140767714D01*
X116586184Y-140860613D01*
X116541617Y-140892993D01*
X116541617Y-140892994D01*
X117221094Y-141572470D01*
X117214879Y-141572470D01*
X117113146Y-141599729D01*
X117021934Y-141652390D01*
X116947460Y-141726864D01*
X116894799Y-141818076D01*
X116867540Y-141919809D01*
X116867540Y-141926023D01*
X116188064Y-141246547D01*
X116188063Y-141246547D01*
X116155683Y-141291114D01*
X116062784Y-141473438D01*
X115999549Y-141668052D01*
X115967540Y-141870152D01*
X110948040Y-141870152D01*
X110948040Y-141870118D01*
X110926095Y-141731566D01*
X110916017Y-141667935D01*
X110875594Y-141543528D01*
X110852760Y-141473251D01*
X110852758Y-141473248D01*
X110852758Y-141473246D01*
X110759959Y-141291120D01*
X110759827Y-141290860D01*
X110727632Y-141246547D01*
X110639511Y-141125256D01*
X110494753Y-140980498D01*
X110329153Y-140860185D01*
X110329152Y-140860184D01*
X110329150Y-140860183D01*
X110146759Y-140767250D01*
X109952074Y-140703993D01*
X109952071Y-140703992D01*
X109952072Y-140703992D01*
X109854792Y-140688584D01*
X109791657Y-140658654D01*
X109754727Y-140599342D01*
X109750191Y-140566111D01*
X109750191Y-139865186D01*
X165099500Y-139865186D01*
X165099500Y-140134813D01*
X165129686Y-140402719D01*
X165129688Y-140402731D01*
X165189684Y-140665594D01*
X165189687Y-140665602D01*
X165278734Y-140920082D01*
X165395714Y-141162994D01*
X165395716Y-141162997D01*
X165539162Y-141391289D01*
X165707266Y-141602085D01*
X165897915Y-141792734D01*
X166108711Y-141960838D01*
X166337003Y-142104284D01*
X166579921Y-142221267D01*
X166738874Y-142276887D01*
X166834397Y-142310312D01*
X166834405Y-142310315D01*
X166834408Y-142310315D01*
X166834409Y-142310316D01*
X167097268Y-142370312D01*
X167365187Y-142400499D01*
X167365188Y-142400500D01*
X167365191Y-142400500D01*
X167634812Y-142400500D01*
X167634812Y-142400499D01*
X167902732Y-142370312D01*
X168165591Y-142310316D01*
X168420079Y-142221267D01*
X168662997Y-142104284D01*
X168891289Y-141960838D01*
X169102085Y-141792734D01*
X169292734Y-141602085D01*
X169460838Y-141391289D01*
X169604284Y-141162997D01*
X169721267Y-140920079D01*
X169810316Y-140665591D01*
X169870312Y-140402732D01*
X169900500Y-140134809D01*
X169900500Y-139865191D01*
X169870312Y-139597268D01*
X169810316Y-139334409D01*
X169721267Y-139079921D01*
X169604284Y-138837003D01*
X169460838Y-138608711D01*
X169292734Y-138397915D01*
X169102085Y-138207266D01*
X168891289Y-138039162D01*
X168662997Y-137895716D01*
X168662994Y-137895714D01*
X168420082Y-137778734D01*
X168165602Y-137689687D01*
X168165594Y-137689684D01*
X167921317Y-137633930D01*
X167902732Y-137629688D01*
X167902728Y-137629687D01*
X167902719Y-137629686D01*
X167634813Y-137599500D01*
X167634809Y-137599500D01*
X167365191Y-137599500D01*
X167365186Y-137599500D01*
X167097280Y-137629686D01*
X167097268Y-137629688D01*
X166834405Y-137689684D01*
X166834397Y-137689687D01*
X166579917Y-137778734D01*
X166337005Y-137895714D01*
X166108712Y-138039161D01*
X165897915Y-138207265D01*
X165707265Y-138397915D01*
X165539161Y-138608712D01*
X165395714Y-138837005D01*
X165278734Y-139079917D01*
X165189687Y-139334397D01*
X165189684Y-139334405D01*
X165129688Y-139597268D01*
X165129686Y-139597280D01*
X165099500Y-139865186D01*
X109750191Y-139865186D01*
X109750191Y-138283929D01*
X109769876Y-138216890D01*
X109822680Y-138171135D01*
X109874191Y-138159929D01*
X109947562Y-138159929D01*
X109947563Y-138159929D01*
X110007174Y-138153521D01*
X110142022Y-138103226D01*
X110257237Y-138016976D01*
X110343487Y-137901761D01*
X110393782Y-137766913D01*
X110400191Y-137707303D01*
X110400191Y-137633930D01*
X110419876Y-137566891D01*
X110472680Y-137521136D01*
X110524191Y-137509930D01*
X114470370Y-137509930D01*
X114537409Y-137529615D01*
X114583164Y-137582419D01*
X114594370Y-137633930D01*
X114594370Y-137707306D01*
X114600777Y-137766913D01*
X114651071Y-137901758D01*
X114651075Y-137901765D01*
X114737321Y-138016974D01*
X114737324Y-138016977D01*
X114852533Y-138103223D01*
X114852540Y-138103227D01*
X114987386Y-138153521D01*
X114987385Y-138153521D01*
X114994313Y-138154265D01*
X115046996Y-138159930D01*
X116942741Y-138159929D01*
X117002352Y-138153521D01*
X117137200Y-138103226D01*
X117252415Y-138016976D01*
X117338665Y-137901761D01*
X117388960Y-137766913D01*
X117395369Y-137707303D01*
X117395368Y-135811558D01*
X117388960Y-135751947D01*
X117338665Y-135617099D01*
X117338664Y-135617098D01*
X117338662Y-135617094D01*
X117252416Y-135501885D01*
X117252413Y-135501882D01*
X117137204Y-135415636D01*
X117137197Y-135415632D01*
X117057288Y-135385828D01*
X117001354Y-135343957D01*
X116976937Y-135278492D01*
X116991789Y-135210219D01*
X117012938Y-135181967D01*
X117063111Y-135131795D01*
X117192684Y-134953452D01*
X117292764Y-134757036D01*
X117360884Y-134547381D01*
X117395369Y-134329652D01*
X117395369Y-134109208D01*
X117360884Y-133891479D01*
X117292764Y-133681824D01*
X117292764Y-133681823D01*
X117258106Y-133613805D01*
X117192684Y-133485408D01*
X117176129Y-133462622D01*
X117063116Y-133307071D01*
X117063112Y-133307066D01*
X116907236Y-133151190D01*
X116907234Y-133151188D01*
X116796482Y-133070721D01*
X116753818Y-133015393D01*
X116745369Y-132970405D01*
X116745369Y-131142918D01*
X119849499Y-131142918D01*
X119874497Y-131268585D01*
X119874499Y-131268591D01*
X119923534Y-131386972D01*
X119994726Y-131493520D01*
X119994727Y-131493521D01*
X121008265Y-132507058D01*
X121041750Y-132568381D01*
X121038515Y-132633057D01*
X120989465Y-132784016D01*
X120962368Y-132955104D01*
X120962368Y-133128326D01*
X120989466Y-133299416D01*
X121042995Y-133464160D01*
X121121636Y-133618503D01*
X121223454Y-133758643D01*
X121345940Y-133881129D01*
X121486080Y-133982947D01*
X121640423Y-134061588D01*
X121805167Y-134115117D01*
X121976257Y-134142215D01*
X121976258Y-134142215D01*
X122949478Y-134142215D01*
X122949479Y-134142215D01*
X123120569Y-134115117D01*
X123285313Y-134061588D01*
X123439656Y-133982947D01*
X123579796Y-133881129D01*
X123702282Y-133758643D01*
X123804100Y-133618503D01*
X123882741Y-133464160D01*
X123936270Y-133299416D01*
X123963368Y-133128326D01*
X123963368Y-132955104D01*
X123936270Y-132784014D01*
X123882741Y-132619270D01*
X123804100Y-132464927D01*
X123702282Y-132324787D01*
X123579796Y-132202301D01*
X123439656Y-132100483D01*
X123285313Y-132021842D01*
X123120569Y-131968313D01*
X123120567Y-131968312D01*
X123120566Y-131968312D01*
X122989139Y-131947496D01*
X122949479Y-131941215D01*
X122949478Y-131941215D01*
X122333676Y-131941215D01*
X122304235Y-131932570D01*
X122274249Y-131926047D01*
X122269233Y-131922292D01*
X122266637Y-131921530D01*
X122245995Y-131904896D01*
X122154495Y-131813396D01*
X122121010Y-131752073D01*
X122125994Y-131682381D01*
X122167866Y-131626448D01*
X122233330Y-131602031D01*
X122242176Y-131601715D01*
X122949439Y-131601715D01*
X123120450Y-131574629D01*
X123120453Y-131574628D01*
X123167079Y-131559478D01*
X123167079Y-131559477D01*
X122509316Y-130901715D01*
X122515529Y-130901715D01*
X122617262Y-130874456D01*
X122708474Y-130821795D01*
X122782948Y-130747321D01*
X122835609Y-130656109D01*
X122862868Y-130554376D01*
X122862868Y-130548163D01*
X123617460Y-131302756D01*
X123617461Y-131302756D01*
X123701901Y-131218316D01*
X123803672Y-131078239D01*
X123882276Y-130923972D01*
X123935782Y-130759299D01*
X123962868Y-130588286D01*
X123962868Y-130415143D01*
X123935782Y-130244130D01*
X123882276Y-130079457D01*
X123803672Y-129925190D01*
X123701900Y-129785112D01*
X123617461Y-129700673D01*
X123617460Y-129700673D01*
X122862868Y-130455265D01*
X122862868Y-130449054D01*
X122835609Y-130347321D01*
X122782948Y-130256109D01*
X122708474Y-130181635D01*
X122617262Y-130128974D01*
X122515529Y-130101715D01*
X122509317Y-130101715D01*
X123167079Y-129443951D01*
X123167079Y-129443950D01*
X123120454Y-129428801D01*
X122949439Y-129401715D01*
X121976297Y-129401715D01*
X121805282Y-129428801D01*
X121758656Y-129443950D01*
X121758656Y-129443951D01*
X122416420Y-130101715D01*
X122410207Y-130101715D01*
X122308474Y-130128974D01*
X122217262Y-130181635D01*
X122142788Y-130256109D01*
X122090127Y-130347321D01*
X122062868Y-130449054D01*
X122062868Y-130455267D01*
X121308274Y-129700673D01*
X121274500Y-129700673D01*
X121265814Y-129698122D01*
X121256853Y-129699411D01*
X121232812Y-129688432D01*
X121207461Y-129680988D01*
X121201533Y-129674147D01*
X121193297Y-129670386D01*
X121179007Y-129648151D01*
X121161706Y-129628184D01*
X121159418Y-129617669D01*
X121155523Y-129611608D01*
X121150500Y-129576673D01*
X121150500Y-128902496D01*
X121170185Y-128835457D01*
X121222989Y-128789702D01*
X121292147Y-128779758D01*
X121347384Y-128802178D01*
X121413947Y-128850539D01*
X121486075Y-128902944D01*
X121486077Y-128902945D01*
X121486080Y-128902947D01*
X121640423Y-128981588D01*
X121805167Y-129035117D01*
X121976257Y-129062215D01*
X121976258Y-129062215D01*
X122949478Y-129062215D01*
X122949479Y-129062215D01*
X123120569Y-129035117D01*
X123285313Y-128981588D01*
X123439656Y-128902947D01*
X123579796Y-128801129D01*
X123632391Y-128748534D01*
X123693714Y-128715049D01*
X123720072Y-128712215D01*
X130612205Y-128712215D01*
X130709747Y-128692811D01*
X130757198Y-128683373D01*
X130893780Y-128626799D01*
X130943014Y-128593901D01*
X131016701Y-128544667D01*
X138582952Y-120978415D01*
X138610205Y-120937627D01*
X138665084Y-120855495D01*
X138688518Y-120798920D01*
X138721659Y-120718912D01*
X138750500Y-120573917D01*
X138750500Y-120426082D01*
X138750500Y-115935416D01*
X138770185Y-115868377D01*
X138801613Y-115835099D01*
X138847219Y-115801966D01*
X138972366Y-115676819D01*
X139033689Y-115643334D01*
X139060047Y-115640500D01*
X142492796Y-115640500D01*
X142559835Y-115660185D01*
X142580477Y-115676819D01*
X142633072Y-115729414D01*
X142773212Y-115831232D01*
X142927555Y-115909873D01*
X143092299Y-115963402D01*
X143263389Y-115990500D01*
X143263390Y-115990500D01*
X144236610Y-115990500D01*
X144236611Y-115990500D01*
X144407701Y-115963402D01*
X144572445Y-115909873D01*
X144726788Y-115831232D01*
X144866928Y-115729414D01*
X144989414Y-115606928D01*
X145091232Y-115466788D01*
X145169873Y-115312445D01*
X145223402Y-115147701D01*
X145250500Y-114976611D01*
X145250500Y-114803389D01*
X145223402Y-114632299D01*
X145209033Y-114588079D01*
X145207039Y-114518241D01*
X145239282Y-114462084D01*
X153822952Y-105878416D01*
X153891188Y-105776292D01*
X153905084Y-105755495D01*
X153939987Y-105671232D01*
X153961659Y-105618912D01*
X153990500Y-105473917D01*
X153990500Y-105326082D01*
X153990500Y-92757204D01*
X153997609Y-92732993D01*
X154000702Y-92707950D01*
X154008203Y-92696912D01*
X154010185Y-92690165D01*
X154019188Y-92677884D01*
X154022808Y-92673533D01*
X154079414Y-92616928D01*
X154181232Y-92476788D01*
X154259873Y-92322445D01*
X154313402Y-92157701D01*
X154340500Y-91986611D01*
X154340500Y-91013428D01*
X154680000Y-91013428D01*
X154680000Y-91986571D01*
X154707086Y-92157585D01*
X154707086Y-92157588D01*
X154722235Y-92204211D01*
X154722236Y-92204211D01*
X155380000Y-91546447D01*
X155380000Y-91552661D01*
X155407259Y-91654394D01*
X155459920Y-91745606D01*
X155534394Y-91820080D01*
X155625606Y-91872741D01*
X155727339Y-91900000D01*
X155733552Y-91900000D01*
X154978958Y-92654592D01*
X154978958Y-92654593D01*
X155063397Y-92739032D01*
X155203475Y-92840804D01*
X155357742Y-92919408D01*
X155522415Y-92972914D01*
X155693429Y-93000000D01*
X155866571Y-93000000D01*
X156037584Y-92972914D01*
X156202257Y-92919408D01*
X156356524Y-92840804D01*
X156496601Y-92739033D01*
X156581041Y-92654592D01*
X155826448Y-91900000D01*
X155832661Y-91900000D01*
X155934394Y-91872741D01*
X156025606Y-91820080D01*
X156100080Y-91745606D01*
X156152741Y-91654394D01*
X156180000Y-91552661D01*
X156180000Y-91546448D01*
X156837762Y-92204211D01*
X156837763Y-92204211D01*
X156852913Y-92157585D01*
X156852914Y-92157582D01*
X156880000Y-91986571D01*
X156880000Y-91013428D01*
X156879994Y-91013389D01*
X157219500Y-91013389D01*
X157219500Y-91986611D01*
X157227677Y-92038239D01*
X157246579Y-92157585D01*
X157246598Y-92157701D01*
X157300127Y-92322445D01*
X157378768Y-92476788D01*
X157480586Y-92616928D01*
X157603072Y-92739414D01*
X157743212Y-92841232D01*
X157897555Y-92919873D01*
X158062299Y-92973402D01*
X158233389Y-93000500D01*
X158233390Y-93000500D01*
X158406610Y-93000500D01*
X158406611Y-93000500D01*
X158577701Y-92973402D01*
X158742445Y-92919873D01*
X158896788Y-92841232D01*
X159036928Y-92739414D01*
X159159414Y-92616928D01*
X159261232Y-92476788D01*
X159339873Y-92322445D01*
X159393402Y-92157701D01*
X159420500Y-91986611D01*
X159420500Y-91013389D01*
X159393402Y-90842299D01*
X159339873Y-90677555D01*
X159261232Y-90523212D01*
X159159414Y-90383072D01*
X159036928Y-90260586D01*
X158896788Y-90158768D01*
X158742445Y-90080127D01*
X158577701Y-90026598D01*
X158577699Y-90026597D01*
X158577698Y-90026597D01*
X158445750Y-90005699D01*
X158406611Y-89999500D01*
X158233389Y-89999500D01*
X158194250Y-90005699D01*
X158062302Y-90026597D01*
X157897552Y-90080128D01*
X157743211Y-90158768D01*
X157694543Y-90194128D01*
X157603072Y-90260586D01*
X157603070Y-90260588D01*
X157603069Y-90260588D01*
X157480588Y-90383069D01*
X157480588Y-90383070D01*
X157480586Y-90383072D01*
X157436859Y-90443256D01*
X157378768Y-90523211D01*
X157300128Y-90677552D01*
X157246597Y-90842302D01*
X157225700Y-90974246D01*
X157219500Y-91013389D01*
X156879994Y-91013389D01*
X156852914Y-90842420D01*
X156852914Y-90842417D01*
X156837762Y-90795788D01*
X156837762Y-90795787D01*
X156180000Y-91453550D01*
X156180000Y-91447339D01*
X156152741Y-91345606D01*
X156100080Y-91254394D01*
X156025606Y-91179920D01*
X155934394Y-91127259D01*
X155832661Y-91100000D01*
X155826449Y-91100000D01*
X156581041Y-90345406D01*
X156496602Y-90260967D01*
X156356524Y-90159195D01*
X156202257Y-90080591D01*
X156037584Y-90027085D01*
X155866571Y-90000000D01*
X155693429Y-90000000D01*
X155522415Y-90027085D01*
X155357742Y-90080591D01*
X155203471Y-90159198D01*
X155063398Y-90260966D01*
X154978958Y-90345406D01*
X155733552Y-91100000D01*
X155727339Y-91100000D01*
X155625606Y-91127259D01*
X155534394Y-91179920D01*
X155459920Y-91254394D01*
X155407259Y-91345606D01*
X155380000Y-91447339D01*
X155380000Y-91453552D01*
X154722236Y-90795788D01*
X154722235Y-90795788D01*
X154707086Y-90842414D01*
X154680000Y-91013428D01*
X154340500Y-91013428D01*
X154340500Y-91013389D01*
X154313402Y-90842299D01*
X154259873Y-90677555D01*
X154181232Y-90523212D01*
X154079414Y-90383072D01*
X153956928Y-90260586D01*
X153816788Y-90158768D01*
X153662445Y-90080127D01*
X153497701Y-90026598D01*
X153497699Y-90026597D01*
X153497698Y-90026597D01*
X153365750Y-90005699D01*
X153326611Y-89999500D01*
X153153389Y-89999500D01*
X153114250Y-90005699D01*
X152982302Y-90026597D01*
X152817552Y-90080128D01*
X152663211Y-90158768D01*
X152614543Y-90194128D01*
X152523072Y-90260586D01*
X152523070Y-90260588D01*
X152523069Y-90260588D01*
X152400588Y-90383069D01*
X152400588Y-90383070D01*
X152400586Y-90383072D01*
X152356859Y-90443256D01*
X152298768Y-90523211D01*
X152220128Y-90677552D01*
X152166597Y-90842302D01*
X152145700Y-90974246D01*
X152139500Y-91013389D01*
X152139500Y-91986611D01*
X152147677Y-92038239D01*
X152166579Y-92157585D01*
X152166598Y-92157701D01*
X152220127Y-92322445D01*
X152298768Y-92476788D01*
X152400586Y-92616928D01*
X152400588Y-92616930D01*
X152453181Y-92669523D01*
X152486666Y-92730846D01*
X152489500Y-92757204D01*
X152489500Y-105037770D01*
X152469815Y-105104809D01*
X152453181Y-105125451D01*
X145430455Y-112148176D01*
X145369132Y-112181661D01*
X145299440Y-112176677D01*
X145243507Y-112134805D01*
X145225599Y-112096666D01*
X145224420Y-112097050D01*
X145169408Y-111927742D01*
X145090804Y-111773475D01*
X144989032Y-111633397D01*
X144904593Y-111548958D01*
X144904592Y-111548958D01*
X144150000Y-112303551D01*
X144150000Y-112297339D01*
X144122741Y-112195606D01*
X144070080Y-112104394D01*
X143995606Y-112029920D01*
X143904394Y-111977259D01*
X143802661Y-111950000D01*
X143796449Y-111950000D01*
X144454211Y-111292236D01*
X144454211Y-111292235D01*
X144407586Y-111277086D01*
X144236571Y-111250000D01*
X143263429Y-111250000D01*
X143092414Y-111277086D01*
X143045788Y-111292235D01*
X143045788Y-111292236D01*
X143703552Y-111950000D01*
X143697339Y-111950000D01*
X143595606Y-111977259D01*
X143504394Y-112029920D01*
X143429920Y-112104394D01*
X143377259Y-112195606D01*
X143350000Y-112297339D01*
X143350000Y-112303552D01*
X142595406Y-111548958D01*
X142510966Y-111633398D01*
X142409198Y-111773471D01*
X142330591Y-111927742D01*
X142277085Y-112092415D01*
X142250000Y-112263428D01*
X142250000Y-112436571D01*
X142277085Y-112607584D01*
X142330591Y-112772257D01*
X142409195Y-112926524D01*
X142510967Y-113066602D01*
X142595406Y-113151041D01*
X143350000Y-112396447D01*
X143350000Y-112402661D01*
X143377259Y-112504394D01*
X143429920Y-112595606D01*
X143504394Y-112670080D01*
X143595606Y-112722741D01*
X143697339Y-112750000D01*
X143703551Y-112750000D01*
X143045787Y-113407762D01*
X143092419Y-113422914D01*
X143263429Y-113450000D01*
X143829270Y-113450000D01*
X143850515Y-113456238D01*
X143872604Y-113457818D01*
X143883387Y-113465890D01*
X143896309Y-113469685D01*
X143910808Y-113486418D01*
X143928537Y-113499690D01*
X143933244Y-113512310D01*
X143942064Y-113522489D01*
X143945215Y-113544406D01*
X143952954Y-113565154D01*
X143950091Y-113578314D01*
X143952008Y-113591647D01*
X143942808Y-113611790D01*
X143938102Y-113633427D01*
X143924833Y-113651152D01*
X143922983Y-113655203D01*
X143916951Y-113661681D01*
X143825451Y-113753181D01*
X143764128Y-113786666D01*
X143737770Y-113789500D01*
X143263389Y-113789500D01*
X143223728Y-113795781D01*
X143092302Y-113816597D01*
X142927552Y-113870128D01*
X142773211Y-113948768D01*
X142693256Y-114006859D01*
X142633072Y-114050586D01*
X142633070Y-114050588D01*
X142633069Y-114050588D01*
X142580477Y-114103181D01*
X142519154Y-114136666D01*
X142492796Y-114139500D01*
X139183541Y-114139500D01*
X139116502Y-114119815D01*
X139083223Y-114088385D01*
X138991971Y-113962787D01*
X138991967Y-113962782D01*
X138847213Y-113818028D01*
X138681613Y-113697715D01*
X138681612Y-113697714D01*
X138681610Y-113697713D01*
X138624653Y-113668691D01*
X138499223Y-113604781D01*
X138304534Y-113541522D01*
X138120093Y-113512310D01*
X138102352Y-113509500D01*
X137897648Y-113509500D01*
X137879907Y-113512310D01*
X137695465Y-113541522D01*
X137500776Y-113604781D01*
X137318386Y-113697715D01*
X137152786Y-113818028D01*
X137008032Y-113962782D01*
X137008028Y-113962787D01*
X136974900Y-114008385D01*
X136919571Y-114051051D01*
X136874582Y-114059500D01*
X134549263Y-114059500D01*
X134482224Y-114039815D01*
X134461582Y-114023181D01*
X133301785Y-112863384D01*
X133268300Y-112802061D01*
X133266993Y-112756306D01*
X133275812Y-112700631D01*
X133275812Y-112495927D01*
X133243789Y-112293745D01*
X133180532Y-112099060D01*
X133087599Y-111916669D01*
X133079868Y-111906028D01*
X132967283Y-111751065D01*
X132822525Y-111606307D01*
X132656926Y-111485994D01*
X132569205Y-111441298D01*
X132474535Y-111393060D01*
X132279846Y-111329801D01*
X132105307Y-111302157D01*
X132077664Y-111297779D01*
X131872960Y-111297779D01*
X131848641Y-111301630D01*
X131670777Y-111329801D01*
X131476088Y-111393060D01*
X131293698Y-111485994D01*
X131128098Y-111606307D01*
X130983340Y-111751065D01*
X130863027Y-111916665D01*
X130770093Y-112099055D01*
X130706834Y-112293744D01*
X130674812Y-112495927D01*
X130674812Y-112700630D01*
X130706834Y-112902813D01*
X130770093Y-113097502D01*
X130863027Y-113279892D01*
X130983340Y-113445492D01*
X131128098Y-113590250D01*
X131276011Y-113697713D01*
X131293702Y-113710566D01*
X131377339Y-113753181D01*
X131476088Y-113803497D01*
X131476090Y-113803497D01*
X131476093Y-113803499D01*
X131580449Y-113837406D01*
X131670777Y-113866756D01*
X131754876Y-113880076D01*
X131872960Y-113898779D01*
X131872961Y-113898779D01*
X132077662Y-113898779D01*
X132077664Y-113898779D01*
X132133338Y-113889960D01*
X132202630Y-113898914D01*
X132240417Y-113924752D01*
X133708619Y-115392954D01*
X133738091Y-115412645D01*
X133782303Y-115442186D01*
X133831538Y-115475084D01*
X133831539Y-115475084D01*
X133831540Y-115475085D01*
X133831542Y-115475086D01*
X133968115Y-115531656D01*
X133968120Y-115531658D01*
X133968124Y-115531658D01*
X133968125Y-115531659D01*
X134113112Y-115560500D01*
X134113115Y-115560500D01*
X134113116Y-115560500D01*
X134260951Y-115560500D01*
X136874582Y-115560500D01*
X136941621Y-115580185D01*
X136974900Y-115611615D01*
X137008028Y-115657212D01*
X137008032Y-115657217D01*
X137008034Y-115657219D01*
X137152781Y-115801966D01*
X137198384Y-115835098D01*
X137241050Y-115890425D01*
X137249500Y-115935416D01*
X137249500Y-120137770D01*
X137229815Y-120204809D01*
X137213181Y-120225451D01*
X130263736Y-127174896D01*
X130202413Y-127208381D01*
X130176055Y-127211215D01*
X123720072Y-127211215D01*
X123653033Y-127191530D01*
X123632391Y-127174896D01*
X123579798Y-127122303D01*
X123579796Y-127122301D01*
X123439656Y-127020483D01*
X123281073Y-126939681D01*
X123230277Y-126891706D01*
X123213368Y-126829196D01*
X123213368Y-114803389D01*
X124749500Y-114803389D01*
X124749500Y-114976611D01*
X124776598Y-115147701D01*
X124830127Y-115312445D01*
X124908768Y-115466788D01*
X125010586Y-115606928D01*
X125133072Y-115729414D01*
X125273212Y-115831232D01*
X125427555Y-115909873D01*
X125592299Y-115963402D01*
X125763389Y-115990500D01*
X125763390Y-115990500D01*
X126736610Y-115990500D01*
X126736611Y-115990500D01*
X126907701Y-115963402D01*
X127072445Y-115909873D01*
X127226788Y-115831232D01*
X127366928Y-115729414D01*
X127489414Y-115606928D01*
X127591232Y-115466788D01*
X127669873Y-115312445D01*
X127723402Y-115147701D01*
X127750500Y-114976611D01*
X127750500Y-114803389D01*
X127723402Y-114632299D01*
X127669873Y-114467555D01*
X127591232Y-114313212D01*
X127489414Y-114173072D01*
X127366928Y-114050586D01*
X127226788Y-113948768D01*
X127072445Y-113870127D01*
X126907701Y-113816598D01*
X126907699Y-113816597D01*
X126907698Y-113816597D01*
X126776271Y-113795781D01*
X126736611Y-113789500D01*
X125763389Y-113789500D01*
X125723728Y-113795781D01*
X125592302Y-113816597D01*
X125427552Y-113870128D01*
X125273211Y-113948768D01*
X125193256Y-114006859D01*
X125133072Y-114050586D01*
X125133070Y-114050588D01*
X125133069Y-114050588D01*
X125010588Y-114173069D01*
X125010588Y-114173070D01*
X125010586Y-114173072D01*
X124966859Y-114233256D01*
X124908768Y-114313211D01*
X124830128Y-114467552D01*
X124776597Y-114632302D01*
X124776597Y-114632304D01*
X124749500Y-114803389D01*
X123213368Y-114803389D01*
X123213368Y-109723389D01*
X124749500Y-109723389D01*
X124749500Y-109896611D01*
X124776598Y-110067701D01*
X124830127Y-110232445D01*
X124908768Y-110386788D01*
X125010586Y-110526928D01*
X125133072Y-110649414D01*
X125238177Y-110725777D01*
X125273213Y-110751233D01*
X125431794Y-110832033D01*
X125482591Y-110880007D01*
X125499500Y-110942518D01*
X125499500Y-111217481D01*
X125479815Y-111284520D01*
X125431795Y-111327966D01*
X125273211Y-111408768D01*
X125228438Y-111441298D01*
X125133072Y-111510586D01*
X125133070Y-111510588D01*
X125133069Y-111510588D01*
X125010588Y-111633069D01*
X125010588Y-111633070D01*
X125010586Y-111633072D01*
X124966859Y-111693256D01*
X124908768Y-111773211D01*
X124830128Y-111927552D01*
X124776597Y-112092302D01*
X124767748Y-112148176D01*
X124749500Y-112263389D01*
X124749500Y-112436611D01*
X124776598Y-112607701D01*
X124830127Y-112772445D01*
X124908768Y-112926788D01*
X125010586Y-113066928D01*
X125133072Y-113189414D01*
X125273212Y-113291232D01*
X125427555Y-113369873D01*
X125592299Y-113423402D01*
X125763389Y-113450500D01*
X125763390Y-113450500D01*
X126736610Y-113450500D01*
X126736611Y-113450500D01*
X126907701Y-113423402D01*
X127072445Y-113369873D01*
X127226788Y-113291232D01*
X127366928Y-113189414D01*
X127489414Y-113066928D01*
X127591232Y-112926788D01*
X127669873Y-112772445D01*
X127723402Y-112607701D01*
X127750500Y-112436611D01*
X127750500Y-112263389D01*
X127723402Y-112092299D01*
X127669873Y-111927555D01*
X127591232Y-111773212D01*
X127489414Y-111633072D01*
X127366928Y-111510586D01*
X127226788Y-111408768D01*
X127195957Y-111393059D01*
X127068205Y-111327966D01*
X127017409Y-111279991D01*
X127000500Y-111217481D01*
X127000500Y-110942518D01*
X127020185Y-110875479D01*
X127068206Y-110832033D01*
X127226786Y-110751233D01*
X127226785Y-110751233D01*
X127226788Y-110751232D01*
X127366928Y-110649414D01*
X127489414Y-110526928D01*
X127591232Y-110386788D01*
X127669873Y-110232445D01*
X127723402Y-110067701D01*
X127750500Y-109896611D01*
X127750500Y-109723389D01*
X127723402Y-109552299D01*
X127669873Y-109387555D01*
X127591232Y-109233212D01*
X127489414Y-109093072D01*
X127366928Y-108970586D01*
X127226788Y-108868768D01*
X127072445Y-108790127D01*
X126907701Y-108736598D01*
X126907699Y-108736597D01*
X126907698Y-108736597D01*
X126776271Y-108715781D01*
X126736611Y-108709500D01*
X125763389Y-108709500D01*
X125723728Y-108715781D01*
X125592302Y-108736597D01*
X125427552Y-108790128D01*
X125273211Y-108868768D01*
X125193256Y-108926859D01*
X125133072Y-108970586D01*
X125133070Y-108970588D01*
X125133069Y-108970588D01*
X125010588Y-109093069D01*
X125010588Y-109093070D01*
X125010586Y-109093072D01*
X124976625Y-109139815D01*
X124908768Y-109233211D01*
X124830128Y-109387552D01*
X124776597Y-109552302D01*
X124749500Y-109723389D01*
X123213368Y-109723389D01*
X123213368Y-107183389D01*
X124749500Y-107183389D01*
X124749500Y-107356611D01*
X124776598Y-107527701D01*
X124830127Y-107692445D01*
X124908768Y-107846788D01*
X125010586Y-107986928D01*
X125133072Y-108109414D01*
X125273212Y-108211232D01*
X125427555Y-108289873D01*
X125592299Y-108343402D01*
X125763389Y-108370500D01*
X125763390Y-108370500D01*
X126736610Y-108370500D01*
X126736611Y-108370500D01*
X126907701Y-108343402D01*
X127072445Y-108289873D01*
X127226788Y-108211232D01*
X127366928Y-108109414D01*
X127489414Y-107986928D01*
X127591232Y-107846788D01*
X127669873Y-107692445D01*
X127723402Y-107527701D01*
X127750500Y-107356611D01*
X127750500Y-107183389D01*
X127723402Y-107012299D01*
X127669873Y-106847555D01*
X127591232Y-106693212D01*
X127489414Y-106553072D01*
X127366928Y-106430586D01*
X127226788Y-106328768D01*
X127072445Y-106250127D01*
X126907701Y-106196598D01*
X126907699Y-106196597D01*
X126907698Y-106196597D01*
X126776271Y-106175781D01*
X126736611Y-106169500D01*
X125763389Y-106169500D01*
X125723728Y-106175781D01*
X125592302Y-106196597D01*
X125427552Y-106250128D01*
X125273211Y-106328768D01*
X125193256Y-106386859D01*
X125133072Y-106430586D01*
X125133070Y-106430588D01*
X125133069Y-106430588D01*
X125010588Y-106553069D01*
X125010588Y-106553070D01*
X125010586Y-106553072D01*
X124966859Y-106613256D01*
X124908768Y-106693211D01*
X124830128Y-106847552D01*
X124776597Y-107012302D01*
X124764664Y-107087647D01*
X124749500Y-107183389D01*
X123213368Y-107183389D01*
X123213368Y-104643389D01*
X124749500Y-104643389D01*
X124749500Y-104816611D01*
X124757677Y-104868239D01*
X124776597Y-104987697D01*
X124776597Y-104987699D01*
X124776598Y-104987701D01*
X124830127Y-105152445D01*
X124908768Y-105306788D01*
X125010586Y-105446928D01*
X125133072Y-105569414D01*
X125273212Y-105671232D01*
X125427555Y-105749873D01*
X125592299Y-105803402D01*
X125763389Y-105830500D01*
X125763390Y-105830500D01*
X126736610Y-105830500D01*
X126736611Y-105830500D01*
X126907701Y-105803402D01*
X127072445Y-105749873D01*
X127226788Y-105671232D01*
X127366928Y-105569414D01*
X127489414Y-105446928D01*
X127591232Y-105306788D01*
X127669873Y-105152445D01*
X127723402Y-104987701D01*
X127741105Y-104875927D01*
X130674812Y-104875927D01*
X130674812Y-105080631D01*
X130679190Y-105108274D01*
X130706834Y-105282813D01*
X130770093Y-105477502D01*
X130863027Y-105659892D01*
X130983340Y-105825492D01*
X131128098Y-105970250D01*
X131227105Y-106042181D01*
X131293702Y-106090566D01*
X131377339Y-106133181D01*
X131476088Y-106183497D01*
X131476090Y-106183497D01*
X131476093Y-106183499D01*
X131580449Y-106217406D01*
X131670777Y-106246756D01*
X131771869Y-106262767D01*
X131872960Y-106278779D01*
X131872961Y-106278779D01*
X132077663Y-106278779D01*
X132077664Y-106278779D01*
X132279846Y-106246756D01*
X132474531Y-106183499D01*
X132656922Y-106090566D01*
X132749902Y-106023011D01*
X132822525Y-105970250D01*
X132822527Y-105970247D01*
X132822531Y-105970245D01*
X132967278Y-105825498D01*
X132967280Y-105825494D01*
X132967283Y-105825492D01*
X133022224Y-105749871D01*
X133087599Y-105659889D01*
X133180532Y-105477498D01*
X133243789Y-105282813D01*
X133275812Y-105080631D01*
X133275812Y-104875927D01*
X133243789Y-104673745D01*
X133231495Y-104635909D01*
X133180530Y-104479055D01*
X133146815Y-104412886D01*
X133087599Y-104296669D01*
X133079868Y-104286028D01*
X132967283Y-104131065D01*
X132822525Y-103986307D01*
X132656925Y-103865994D01*
X132656924Y-103865993D01*
X132656922Y-103865992D01*
X132599965Y-103836970D01*
X132474535Y-103773060D01*
X132279846Y-103709801D01*
X132105307Y-103682157D01*
X132077664Y-103677779D01*
X131872960Y-103677779D01*
X131848641Y-103681630D01*
X131670777Y-103709801D01*
X131476088Y-103773060D01*
X131293698Y-103865994D01*
X131128098Y-103986307D01*
X130983340Y-104131065D01*
X130863027Y-104296665D01*
X130770093Y-104479055D01*
X130706834Y-104673744D01*
X130684207Y-104816609D01*
X130674812Y-104875927D01*
X127741105Y-104875927D01*
X127750500Y-104816611D01*
X127750500Y-104643389D01*
X127723402Y-104472299D01*
X127669873Y-104307555D01*
X127591232Y-104153212D01*
X127489414Y-104013072D01*
X127366928Y-103890586D01*
X127226788Y-103788768D01*
X127072445Y-103710127D01*
X126907701Y-103656598D01*
X126907699Y-103656597D01*
X126907698Y-103656597D01*
X126776271Y-103635781D01*
X126736611Y-103629500D01*
X125763389Y-103629500D01*
X125723728Y-103635781D01*
X125592302Y-103656597D01*
X125427552Y-103710128D01*
X125273211Y-103788768D01*
X125193256Y-103846859D01*
X125133072Y-103890586D01*
X125133070Y-103890588D01*
X125133069Y-103890588D01*
X125010588Y-104013069D01*
X125010588Y-104013070D01*
X125010586Y-104013072D01*
X124966859Y-104073256D01*
X124908768Y-104153211D01*
X124830128Y-104307552D01*
X124776597Y-104472302D01*
X124775527Y-104479060D01*
X124749500Y-104643389D01*
X123213368Y-104643389D01*
X123213368Y-102103389D01*
X124749500Y-102103389D01*
X124749500Y-102276611D01*
X124776598Y-102447701D01*
X124830127Y-102612445D01*
X124908768Y-102766788D01*
X125010586Y-102906928D01*
X125133072Y-103029414D01*
X125273212Y-103131232D01*
X125427555Y-103209873D01*
X125592299Y-103263402D01*
X125763389Y-103290500D01*
X125763390Y-103290500D01*
X126736610Y-103290500D01*
X126736611Y-103290500D01*
X126907701Y-103263402D01*
X127072445Y-103209873D01*
X127226788Y-103131232D01*
X127366928Y-103029414D01*
X127489414Y-102906928D01*
X127500541Y-102891612D01*
X127555872Y-102848948D01*
X127600858Y-102840500D01*
X132679192Y-102840500D01*
X132746231Y-102860185D01*
X132766873Y-102876819D01*
X136692862Y-106802808D01*
X136726347Y-106864131D01*
X136727654Y-106909886D01*
X136699500Y-107087647D01*
X136699500Y-107292351D01*
X136731522Y-107494534D01*
X136794781Y-107689223D01*
X136887715Y-107871613D01*
X137008028Y-108037213D01*
X137152786Y-108181971D01*
X137301301Y-108289871D01*
X137318390Y-108302287D01*
X137399083Y-108343402D01*
X137500776Y-108395218D01*
X137500778Y-108395218D01*
X137500781Y-108395220D01*
X137605137Y-108429127D01*
X137695465Y-108458477D01*
X137796557Y-108474488D01*
X137897648Y-108490500D01*
X137897649Y-108490500D01*
X138102351Y-108490500D01*
X138102352Y-108490500D01*
X138280112Y-108462345D01*
X138349405Y-108471299D01*
X138387191Y-108497137D01*
X140205325Y-110315272D01*
X140205331Y-110315277D01*
X140311874Y-110386466D01*
X140381221Y-110415189D01*
X140430256Y-110435501D01*
X140430259Y-110435501D01*
X140430260Y-110435502D01*
X140555928Y-110460500D01*
X140555931Y-110460500D01*
X140555932Y-110460500D01*
X140684069Y-110460500D01*
X142399142Y-110460500D01*
X142466181Y-110480185D01*
X142499458Y-110511612D01*
X142510586Y-110526928D01*
X142633072Y-110649414D01*
X142773212Y-110751232D01*
X142927555Y-110829873D01*
X143092299Y-110883402D01*
X143263389Y-110910500D01*
X143263390Y-110910500D01*
X144236610Y-110910500D01*
X144236611Y-110910500D01*
X144407701Y-110883402D01*
X144572445Y-110829873D01*
X144726788Y-110751232D01*
X144866928Y-110649414D01*
X144989414Y-110526928D01*
X145091232Y-110386788D01*
X145169873Y-110232445D01*
X145223402Y-110067701D01*
X145250500Y-109896611D01*
X145250500Y-109723389D01*
X145223402Y-109552299D01*
X145169873Y-109387555D01*
X145091232Y-109233212D01*
X144989414Y-109093072D01*
X144866928Y-108970586D01*
X144726788Y-108868768D01*
X144572445Y-108790127D01*
X144407701Y-108736598D01*
X144407699Y-108736597D01*
X144407698Y-108736597D01*
X144276271Y-108715781D01*
X144236611Y-108709500D01*
X143263389Y-108709500D01*
X143223728Y-108715781D01*
X143092302Y-108736597D01*
X142927552Y-108790128D01*
X142773211Y-108868768D01*
X142693256Y-108926859D01*
X142633072Y-108970586D01*
X142633070Y-108970588D01*
X142633069Y-108970588D01*
X142510585Y-109093072D01*
X142499459Y-109108387D01*
X142444128Y-109151052D01*
X142399142Y-109159500D01*
X140940808Y-109159500D01*
X140873769Y-109139815D01*
X140853127Y-109123181D01*
X139307137Y-107577191D01*
X139273652Y-107515868D01*
X139272345Y-107470112D01*
X139300500Y-107292351D01*
X139300500Y-107087648D01*
X139268477Y-106885465D01*
X139206010Y-106693212D01*
X139205220Y-106690781D01*
X139205218Y-106690778D01*
X139205218Y-106690776D01*
X139171503Y-106624607D01*
X139112287Y-106508390D01*
X139104556Y-106497749D01*
X138991971Y-106342786D01*
X138847213Y-106198028D01*
X138681613Y-106077715D01*
X138681612Y-106077714D01*
X138681610Y-106077713D01*
X138599161Y-106035703D01*
X138499223Y-105984781D01*
X138304534Y-105921522D01*
X138123250Y-105892810D01*
X138102352Y-105889500D01*
X137897648Y-105889500D01*
X137719886Y-105917654D01*
X137650593Y-105908699D01*
X137612808Y-105882862D01*
X136456144Y-104726198D01*
X136373335Y-104643389D01*
X142249500Y-104643389D01*
X142249500Y-104816611D01*
X142257677Y-104868239D01*
X142276597Y-104987697D01*
X142276597Y-104987699D01*
X142276598Y-104987701D01*
X142330127Y-105152445D01*
X142408768Y-105306788D01*
X142510586Y-105446928D01*
X142633072Y-105569414D01*
X142773212Y-105671232D01*
X142927555Y-105749873D01*
X143092299Y-105803402D01*
X143263389Y-105830500D01*
X143263390Y-105830500D01*
X143970192Y-105830500D01*
X143991437Y-105836738D01*
X144013526Y-105838318D01*
X144024309Y-105846390D01*
X144037231Y-105850185D01*
X144051730Y-105866918D01*
X144069459Y-105880190D01*
X144074166Y-105892810D01*
X144082986Y-105902989D01*
X144086137Y-105924906D01*
X144093876Y-105945654D01*
X144091013Y-105958814D01*
X144092930Y-105972147D01*
X144083730Y-105992290D01*
X144079024Y-106013927D01*
X144065755Y-106031652D01*
X144063905Y-106035703D01*
X144057873Y-106042181D01*
X143966873Y-106133181D01*
X143905550Y-106166666D01*
X143879192Y-106169500D01*
X143263389Y-106169500D01*
X143223728Y-106175781D01*
X143092302Y-106196597D01*
X142927552Y-106250128D01*
X142773211Y-106328768D01*
X142693256Y-106386859D01*
X142633072Y-106430586D01*
X142633070Y-106430588D01*
X142633069Y-106430588D01*
X142510588Y-106553069D01*
X142510588Y-106553070D01*
X142510586Y-106553072D01*
X142466859Y-106613256D01*
X142408768Y-106693211D01*
X142330128Y-106847552D01*
X142276597Y-107012302D01*
X142264664Y-107087647D01*
X142249500Y-107183389D01*
X142249500Y-107356611D01*
X142276598Y-107527701D01*
X142330127Y-107692445D01*
X142408768Y-107846788D01*
X142510586Y-107986928D01*
X142633072Y-108109414D01*
X142773212Y-108211232D01*
X142927555Y-108289873D01*
X143092299Y-108343402D01*
X143263389Y-108370500D01*
X143263390Y-108370500D01*
X144236610Y-108370500D01*
X144236611Y-108370500D01*
X144407701Y-108343402D01*
X144572445Y-108289873D01*
X144726788Y-108211232D01*
X144866928Y-108109414D01*
X144989414Y-107986928D01*
X145091232Y-107846788D01*
X145169873Y-107692445D01*
X145223402Y-107527701D01*
X145250500Y-107356611D01*
X145250500Y-107183389D01*
X145223402Y-107012299D01*
X145174351Y-106861339D01*
X145172357Y-106791500D01*
X145204600Y-106735344D01*
X151205276Y-100734670D01*
X151276465Y-100628127D01*
X151325501Y-100509744D01*
X151337457Y-100449637D01*
X151350500Y-100384069D01*
X151350500Y-92850857D01*
X151370185Y-92783818D01*
X151401618Y-92750537D01*
X151416928Y-92739414D01*
X151539414Y-92616928D01*
X151641232Y-92476788D01*
X151719873Y-92322445D01*
X151773402Y-92157701D01*
X151800500Y-91986611D01*
X151800500Y-91013389D01*
X151773402Y-90842299D01*
X151719873Y-90677555D01*
X151641232Y-90523212D01*
X151539414Y-90383072D01*
X151416928Y-90260586D01*
X151276788Y-90158768D01*
X151122445Y-90080127D01*
X150957701Y-90026598D01*
X150957699Y-90026597D01*
X150957698Y-90026597D01*
X150825750Y-90005699D01*
X150786611Y-89999500D01*
X150613389Y-89999500D01*
X150574250Y-90005699D01*
X150442302Y-90026597D01*
X150277552Y-90080128D01*
X150123211Y-90158768D01*
X150074543Y-90194128D01*
X149983072Y-90260586D01*
X149983070Y-90260588D01*
X149983069Y-90260588D01*
X149860588Y-90383069D01*
X149860588Y-90383070D01*
X149860586Y-90383072D01*
X149816859Y-90443256D01*
X149758768Y-90523211D01*
X149680128Y-90677552D01*
X149626597Y-90842302D01*
X149605700Y-90974246D01*
X149599500Y-91013389D01*
X149599500Y-91986611D01*
X149607677Y-92038239D01*
X149626579Y-92157585D01*
X149626598Y-92157701D01*
X149680127Y-92322445D01*
X149758768Y-92476788D01*
X149860586Y-92616928D01*
X149860588Y-92616930D01*
X149983070Y-92739412D01*
X149983076Y-92739417D01*
X149998382Y-92750537D01*
X150041050Y-92805866D01*
X150049500Y-92850857D01*
X150049500Y-99999191D01*
X150029815Y-100066230D01*
X150013181Y-100086872D01*
X145450772Y-104649280D01*
X145389449Y-104682765D01*
X145319757Y-104677781D01*
X145263824Y-104635909D01*
X145240618Y-104580997D01*
X145223402Y-104472299D01*
X145169873Y-104307555D01*
X145091232Y-104153212D01*
X144989414Y-104013072D01*
X144866928Y-103890586D01*
X144726788Y-103788768D01*
X144572445Y-103710127D01*
X144407701Y-103656598D01*
X144407699Y-103656597D01*
X144407698Y-103656597D01*
X144276271Y-103635781D01*
X144236611Y-103629500D01*
X143263389Y-103629500D01*
X143223728Y-103635781D01*
X143092302Y-103656597D01*
X142927552Y-103710128D01*
X142773211Y-103788768D01*
X142693256Y-103846859D01*
X142633072Y-103890586D01*
X142633070Y-103890588D01*
X142633069Y-103890588D01*
X142510588Y-104013069D01*
X142510588Y-104013070D01*
X142510586Y-104013072D01*
X142466859Y-104073256D01*
X142408768Y-104153211D01*
X142330128Y-104307552D01*
X142276597Y-104472302D01*
X142275527Y-104479060D01*
X142249500Y-104643389D01*
X136373335Y-104643389D01*
X133414674Y-101684727D01*
X133414673Y-101684726D01*
X133414669Y-101684723D01*
X133308127Y-101613535D01*
X133307347Y-101613212D01*
X133189744Y-101564499D01*
X133189738Y-101564497D01*
X133064071Y-101539500D01*
X133064069Y-101539500D01*
X127600858Y-101539500D01*
X127533819Y-101519815D01*
X127500541Y-101488387D01*
X127489414Y-101473072D01*
X127366930Y-101350588D01*
X127366928Y-101350586D01*
X127226788Y-101248768D01*
X127072445Y-101170127D01*
X126907701Y-101116598D01*
X126907699Y-101116597D01*
X126907698Y-101116597D01*
X126776271Y-101095781D01*
X126736611Y-101089500D01*
X125763389Y-101089500D01*
X125723728Y-101095781D01*
X125592302Y-101116597D01*
X125427552Y-101170128D01*
X125273211Y-101248768D01*
X125193256Y-101306859D01*
X125133072Y-101350586D01*
X125133070Y-101350588D01*
X125133069Y-101350588D01*
X125010588Y-101473069D01*
X125010588Y-101473070D01*
X125010586Y-101473072D01*
X124999459Y-101488387D01*
X124908768Y-101613211D01*
X124830128Y-101767552D01*
X124776597Y-101932302D01*
X124749500Y-102103389D01*
X123213368Y-102103389D01*
X123213368Y-101259361D01*
X123233053Y-101192322D01*
X123249687Y-101171680D01*
X123839863Y-100581504D01*
X124194843Y-100226524D01*
X124569546Y-99851820D01*
X124630867Y-99818337D01*
X124700558Y-99823321D01*
X124756492Y-99865193D01*
X124774406Y-99903331D01*
X124775580Y-99902950D01*
X124830591Y-100072257D01*
X124909195Y-100226524D01*
X125010967Y-100366602D01*
X125095406Y-100451041D01*
X125850000Y-99696447D01*
X125850000Y-99702661D01*
X125877259Y-99804394D01*
X125929920Y-99895606D01*
X126004394Y-99970080D01*
X126095606Y-100022741D01*
X126197339Y-100050000D01*
X126203552Y-100050000D01*
X125545787Y-100707762D01*
X125592419Y-100722914D01*
X125763429Y-100750000D01*
X126736571Y-100750000D01*
X126907582Y-100722914D01*
X126907585Y-100722913D01*
X126954211Y-100707763D01*
X126954211Y-100707762D01*
X126296448Y-100050000D01*
X126302661Y-100050000D01*
X126404394Y-100022741D01*
X126495606Y-99970080D01*
X126570080Y-99895606D01*
X126622741Y-99804394D01*
X126650000Y-99702661D01*
X126650000Y-99696449D01*
X127404592Y-100451041D01*
X127404593Y-100451041D01*
X127489033Y-100366601D01*
X127590804Y-100226524D01*
X127669408Y-100072257D01*
X127722914Y-99907584D01*
X127750000Y-99736571D01*
X127750000Y-99563428D01*
X127749994Y-99563389D01*
X142249500Y-99563389D01*
X142249500Y-99736610D01*
X142275845Y-99902950D01*
X142276598Y-99907701D01*
X142330127Y-100072445D01*
X142408768Y-100226788D01*
X142510586Y-100366928D01*
X142633072Y-100489414D01*
X142706191Y-100542538D01*
X142773213Y-100591233D01*
X142931794Y-100672033D01*
X142982591Y-100720007D01*
X142999500Y-100782518D01*
X142999500Y-101057481D01*
X142979815Y-101124520D01*
X142931795Y-101167966D01*
X142773211Y-101248768D01*
X142693256Y-101306859D01*
X142633072Y-101350586D01*
X142633070Y-101350588D01*
X142633069Y-101350588D01*
X142510588Y-101473069D01*
X142510588Y-101473070D01*
X142510586Y-101473072D01*
X142499459Y-101488387D01*
X142408768Y-101613211D01*
X142330128Y-101767552D01*
X142276597Y-101932302D01*
X142249500Y-102103389D01*
X142249500Y-102276611D01*
X142276598Y-102447701D01*
X142330127Y-102612445D01*
X142408768Y-102766788D01*
X142510586Y-102906928D01*
X142633072Y-103029414D01*
X142773212Y-103131232D01*
X142927555Y-103209873D01*
X143092299Y-103263402D01*
X143263389Y-103290500D01*
X143263390Y-103290500D01*
X144236610Y-103290500D01*
X144236611Y-103290500D01*
X144407701Y-103263402D01*
X144572445Y-103209873D01*
X144726788Y-103131232D01*
X144866928Y-103029414D01*
X144989414Y-102906928D01*
X145091232Y-102766788D01*
X145169873Y-102612445D01*
X145223402Y-102447701D01*
X145250500Y-102276611D01*
X145250500Y-102103389D01*
X145223402Y-101932299D01*
X145169873Y-101767555D01*
X145091232Y-101613212D01*
X144989414Y-101473072D01*
X144866928Y-101350586D01*
X144726788Y-101248768D01*
X144616006Y-101192322D01*
X144568205Y-101167966D01*
X144517409Y-101119991D01*
X144500500Y-101057481D01*
X144500500Y-100782518D01*
X144520185Y-100715479D01*
X144568206Y-100672033D01*
X144726786Y-100591233D01*
X144726785Y-100591233D01*
X144726788Y-100591232D01*
X144866928Y-100489414D01*
X144989414Y-100366928D01*
X145091232Y-100226788D01*
X145169873Y-100072445D01*
X145223402Y-99907701D01*
X145250500Y-99736611D01*
X145250500Y-99563389D01*
X145223402Y-99392299D01*
X145169873Y-99227555D01*
X145091232Y-99073212D01*
X144989414Y-98933072D01*
X144866928Y-98810586D01*
X144726788Y-98708768D01*
X144572445Y-98630127D01*
X144407701Y-98576598D01*
X144407699Y-98576597D01*
X144407698Y-98576597D01*
X144276271Y-98555781D01*
X144236611Y-98549500D01*
X143263389Y-98549500D01*
X143223728Y-98555781D01*
X143092302Y-98576597D01*
X142927552Y-98630128D01*
X142773211Y-98708768D01*
X142693256Y-98766859D01*
X142633072Y-98810586D01*
X142633070Y-98810588D01*
X142633069Y-98810588D01*
X142510588Y-98933069D01*
X142510588Y-98933070D01*
X142510586Y-98933072D01*
X142510350Y-98933397D01*
X142408768Y-99073211D01*
X142330128Y-99227552D01*
X142276597Y-99392302D01*
X142249500Y-99563389D01*
X127749994Y-99563389D01*
X127722914Y-99392415D01*
X127669408Y-99227742D01*
X127590804Y-99073475D01*
X127489032Y-98933397D01*
X127404593Y-98848958D01*
X127404592Y-98848958D01*
X126650000Y-99603550D01*
X126650000Y-99597339D01*
X126622741Y-99495606D01*
X126570080Y-99404394D01*
X126495606Y-99329920D01*
X126404394Y-99277259D01*
X126302661Y-99250000D01*
X126296447Y-99250000D01*
X126954211Y-98592235D01*
X126907586Y-98577086D01*
X126736571Y-98550000D01*
X126170729Y-98550000D01*
X126149483Y-98543761D01*
X126127395Y-98542182D01*
X126116611Y-98534109D01*
X126103690Y-98530315D01*
X126089190Y-98513581D01*
X126071462Y-98500310D01*
X126066754Y-98487689D01*
X126057935Y-98477511D01*
X126054783Y-98455593D01*
X126047045Y-98434846D01*
X126049907Y-98421685D01*
X126047991Y-98408353D01*
X126057190Y-98388209D01*
X126061897Y-98366573D01*
X126075165Y-98348847D01*
X126077016Y-98344797D01*
X126083048Y-98338319D01*
X126174548Y-98246819D01*
X126235871Y-98213334D01*
X126262229Y-98210500D01*
X126736610Y-98210500D01*
X126736611Y-98210500D01*
X126907701Y-98183402D01*
X127072445Y-98129873D01*
X127226788Y-98051232D01*
X127366928Y-97949414D01*
X127489414Y-97826928D01*
X127591232Y-97686788D01*
X127669873Y-97532445D01*
X127723402Y-97367701D01*
X127750500Y-97196611D01*
X127750500Y-97023389D01*
X142249500Y-97023389D01*
X142249500Y-97196611D01*
X142276598Y-97367701D01*
X142330127Y-97532445D01*
X142408768Y-97686788D01*
X142510586Y-97826928D01*
X142633072Y-97949414D01*
X142773212Y-98051232D01*
X142927555Y-98129873D01*
X143092299Y-98183402D01*
X143263389Y-98210500D01*
X143263390Y-98210500D01*
X144236610Y-98210500D01*
X144236611Y-98210500D01*
X144407701Y-98183402D01*
X144572445Y-98129873D01*
X144726788Y-98051232D01*
X144866928Y-97949414D01*
X144989414Y-97826928D01*
X145091232Y-97686788D01*
X145169873Y-97532445D01*
X145223402Y-97367701D01*
X145250500Y-97196611D01*
X145250500Y-97023389D01*
X145223402Y-96852299D01*
X145169873Y-96687555D01*
X145091232Y-96533212D01*
X144989414Y-96393072D01*
X144866928Y-96270586D01*
X144726788Y-96168768D01*
X144572445Y-96090127D01*
X144407701Y-96036598D01*
X144407699Y-96036597D01*
X144407698Y-96036597D01*
X144276271Y-96015781D01*
X144236611Y-96009500D01*
X143263389Y-96009500D01*
X143223728Y-96015781D01*
X143092302Y-96036597D01*
X142927552Y-96090128D01*
X142773211Y-96168768D01*
X142693256Y-96226859D01*
X142633072Y-96270586D01*
X142633070Y-96270588D01*
X142633069Y-96270588D01*
X142510588Y-96393069D01*
X142510588Y-96393070D01*
X142510586Y-96393072D01*
X142467311Y-96452635D01*
X142408768Y-96533211D01*
X142330128Y-96687552D01*
X142276597Y-96852302D01*
X142273180Y-96873878D01*
X142249500Y-97023389D01*
X127750500Y-97023389D01*
X127723402Y-96852299D01*
X127669873Y-96687555D01*
X127591232Y-96533212D01*
X127489414Y-96393072D01*
X127458523Y-96362181D01*
X127425038Y-96300858D01*
X127430022Y-96231166D01*
X127471894Y-96175233D01*
X127537358Y-96150816D01*
X127546204Y-96150500D01*
X128984071Y-96150500D01*
X129068615Y-96133682D01*
X129109744Y-96125501D01*
X129228127Y-96076465D01*
X129334669Y-96005277D01*
X132385344Y-92954600D01*
X132446665Y-92921117D01*
X132511339Y-92924351D01*
X132662299Y-92973402D01*
X132833389Y-93000500D01*
X132833390Y-93000500D01*
X133006610Y-93000500D01*
X133006611Y-93000500D01*
X133177701Y-92973402D01*
X133342445Y-92919873D01*
X133496788Y-92841232D01*
X133636928Y-92739414D01*
X133759414Y-92616928D01*
X133861232Y-92476788D01*
X133939873Y-92322445D01*
X133993402Y-92157701D01*
X134020500Y-91986611D01*
X134020500Y-91013389D01*
X134359500Y-91013389D01*
X134359500Y-91986611D01*
X134367677Y-92038239D01*
X134386579Y-92157585D01*
X134386598Y-92157701D01*
X134440127Y-92322445D01*
X134518768Y-92476788D01*
X134620586Y-92616928D01*
X134743072Y-92739414D01*
X134883212Y-92841232D01*
X135037555Y-92919873D01*
X135202299Y-92973402D01*
X135373389Y-93000500D01*
X135373390Y-93000500D01*
X135546610Y-93000500D01*
X135546611Y-93000500D01*
X135717701Y-92973402D01*
X135882445Y-92919873D01*
X136036788Y-92841232D01*
X136176928Y-92739414D01*
X136299414Y-92616928D01*
X136401232Y-92476788D01*
X136479873Y-92322445D01*
X136533402Y-92157701D01*
X136560500Y-91986611D01*
X136560500Y-91013389D01*
X136899500Y-91013389D01*
X136899500Y-91986611D01*
X136907677Y-92038239D01*
X136926579Y-92157585D01*
X136926598Y-92157701D01*
X136980127Y-92322445D01*
X137058768Y-92476788D01*
X137160586Y-92616928D01*
X137283072Y-92739414D01*
X137423212Y-92841232D01*
X137577555Y-92919873D01*
X137742299Y-92973402D01*
X137913389Y-93000500D01*
X137913390Y-93000500D01*
X138086610Y-93000500D01*
X138086611Y-93000500D01*
X138257701Y-92973402D01*
X138422445Y-92919873D01*
X138576788Y-92841232D01*
X138716928Y-92739414D01*
X138839414Y-92616928D01*
X138941232Y-92476788D01*
X139019873Y-92322445D01*
X139073402Y-92157701D01*
X139100500Y-91986611D01*
X139100500Y-91013389D01*
X139073402Y-90842299D01*
X139019873Y-90677555D01*
X138941232Y-90523212D01*
X138839414Y-90383072D01*
X138716928Y-90260586D01*
X138701612Y-90249458D01*
X138658948Y-90194128D01*
X138650500Y-90149142D01*
X138650500Y-89320807D01*
X138670185Y-89253768D01*
X138686819Y-89233126D01*
X144733126Y-83186819D01*
X144794449Y-83153334D01*
X144820807Y-83150500D01*
X146227648Y-83150500D01*
X146294687Y-83170185D01*
X146340442Y-83222989D01*
X146350386Y-83292147D01*
X146321361Y-83355703D01*
X146275100Y-83389061D01*
X146191876Y-83423532D01*
X146085326Y-83494726D01*
X140034724Y-89545328D01*
X139981155Y-89625500D01*
X139981156Y-89625501D01*
X139963534Y-89651874D01*
X139914499Y-89770255D01*
X139914497Y-89770261D01*
X139889500Y-89895928D01*
X139889500Y-90149142D01*
X139869815Y-90216181D01*
X139838387Y-90249459D01*
X139823072Y-90260585D01*
X139700588Y-90383069D01*
X139700588Y-90383070D01*
X139700586Y-90383072D01*
X139656859Y-90443256D01*
X139598768Y-90523211D01*
X139520128Y-90677552D01*
X139466597Y-90842302D01*
X139445700Y-90974246D01*
X139439500Y-91013389D01*
X139439500Y-91986611D01*
X139447677Y-92038239D01*
X139466579Y-92157585D01*
X139466598Y-92157701D01*
X139520127Y-92322445D01*
X139598768Y-92476788D01*
X139700586Y-92616928D01*
X139823072Y-92739414D01*
X139963212Y-92841232D01*
X140117555Y-92919873D01*
X140282299Y-92973402D01*
X140453389Y-93000500D01*
X140453390Y-93000500D01*
X140626610Y-93000500D01*
X140626611Y-93000500D01*
X140797701Y-92973402D01*
X140962445Y-92919873D01*
X141116788Y-92841232D01*
X141256928Y-92739414D01*
X141379414Y-92616928D01*
X141481232Y-92476788D01*
X141559873Y-92322445D01*
X141613402Y-92157701D01*
X141640500Y-91986611D01*
X141640500Y-91013389D01*
X141613402Y-90842299D01*
X141559873Y-90677555D01*
X141481232Y-90523212D01*
X141379414Y-90383072D01*
X141295824Y-90299482D01*
X141262339Y-90238159D01*
X141267323Y-90168467D01*
X141295822Y-90124122D01*
X146733127Y-84686819D01*
X146794450Y-84653334D01*
X146820808Y-84650500D01*
X159564071Y-84650500D01*
X159648615Y-84633682D01*
X159689744Y-84625501D01*
X159808127Y-84576465D01*
X159826679Y-84564069D01*
X159914669Y-84505277D01*
X162005276Y-82414669D01*
X162076465Y-82308127D01*
X162125501Y-82189744D01*
X162133307Y-82150500D01*
X162150500Y-82064069D01*
X162150500Y-73935931D01*
X162150500Y-73935928D01*
X162125502Y-73810260D01*
X162125500Y-73810254D01*
X162105189Y-73761221D01*
X162105187Y-73761216D01*
X162076468Y-73691878D01*
X162076462Y-73691868D01*
X162005278Y-73585332D01*
X162005272Y-73585325D01*
X157380825Y-68960879D01*
X157347340Y-68899556D01*
X157352324Y-68829864D01*
X157380825Y-68785517D01*
X157429414Y-68736928D01*
X157531232Y-68596788D01*
X157609873Y-68442445D01*
X157663402Y-68277701D01*
X157690500Y-68106611D01*
X157690500Y-67133389D01*
X158029500Y-67133389D01*
X158029500Y-68106611D01*
X158056598Y-68277701D01*
X158110127Y-68442445D01*
X158188768Y-68596788D01*
X158290586Y-68736928D01*
X158413072Y-68859414D01*
X158553212Y-68961232D01*
X158707555Y-69039873D01*
X158872299Y-69093402D01*
X159043389Y-69120500D01*
X159043390Y-69120500D01*
X159216610Y-69120500D01*
X159216611Y-69120500D01*
X159387701Y-69093402D01*
X159552445Y-69039873D01*
X159706788Y-68961232D01*
X159846928Y-68859414D01*
X159969414Y-68736928D01*
X160071232Y-68596788D01*
X160149873Y-68442445D01*
X160203402Y-68277701D01*
X160230500Y-68106611D01*
X160230500Y-67133389D01*
X160203402Y-66962299D01*
X160149873Y-66797555D01*
X160071232Y-66643212D01*
X159969414Y-66503072D01*
X159846928Y-66380586D01*
X159706788Y-66278768D01*
X159617581Y-66233315D01*
X159552447Y-66200128D01*
X159552446Y-66200127D01*
X159552445Y-66200127D01*
X159387701Y-66146598D01*
X159387699Y-66146597D01*
X159387698Y-66146597D01*
X159256271Y-66125781D01*
X159216611Y-66119500D01*
X159043389Y-66119500D01*
X159003728Y-66125781D01*
X158872302Y-66146597D01*
X158707552Y-66200128D01*
X158553211Y-66278768D01*
X158473256Y-66336859D01*
X158413072Y-66380586D01*
X158413070Y-66380588D01*
X158413069Y-66380588D01*
X158290588Y-66503069D01*
X158290588Y-66503070D01*
X158290586Y-66503072D01*
X158246859Y-66563256D01*
X158188768Y-66643211D01*
X158110128Y-66797552D01*
X158056597Y-66962302D01*
X158035700Y-67094246D01*
X158029500Y-67133389D01*
X157690500Y-67133389D01*
X157663402Y-66962299D01*
X157609873Y-66797555D01*
X157531232Y-66643212D01*
X157429414Y-66503072D01*
X157306928Y-66380586D01*
X157166788Y-66278768D01*
X157077581Y-66233315D01*
X157012447Y-66200128D01*
X157012446Y-66200127D01*
X157012445Y-66200127D01*
X156847701Y-66146598D01*
X156847699Y-66146597D01*
X156847698Y-66146597D01*
X156716271Y-66125781D01*
X156676611Y-66119500D01*
X156503389Y-66119500D01*
X156463728Y-66125781D01*
X156332302Y-66146597D01*
X156167552Y-66200128D01*
X156013211Y-66278768D01*
X155933256Y-66336859D01*
X155873072Y-66380586D01*
X155873070Y-66380588D01*
X155873069Y-66380588D01*
X155750588Y-66503069D01*
X155750588Y-66503070D01*
X155750586Y-66503072D01*
X155706859Y-66563256D01*
X155648768Y-66643211D01*
X155570128Y-66797552D01*
X155516597Y-66962302D01*
X155495700Y-67094246D01*
X155489500Y-67133389D01*
X155489500Y-68106611D01*
X155516598Y-68277701D01*
X155570127Y-68442445D01*
X155648768Y-68596788D01*
X155750586Y-68736928D01*
X155750588Y-68736930D01*
X155873070Y-68859412D01*
X155873076Y-68859417D01*
X155888382Y-68870537D01*
X155931050Y-68925866D01*
X155939500Y-68970857D01*
X155939500Y-69154069D01*
X155939500Y-69154071D01*
X155939499Y-69154071D01*
X155964497Y-69279738D01*
X155964499Y-69279744D01*
X156013534Y-69398125D01*
X156084726Y-69504673D01*
X156084727Y-69504674D01*
X160813181Y-74233127D01*
X160846666Y-74294450D01*
X160849500Y-74320808D01*
X160849500Y-75227647D01*
X160829815Y-75294686D01*
X160777011Y-75340441D01*
X160707853Y-75350385D01*
X160644297Y-75321360D01*
X160610939Y-75275100D01*
X160576465Y-75191874D01*
X160576465Y-75191873D01*
X160557221Y-75163072D01*
X160557221Y-75163071D01*
X160505275Y-75085328D01*
X154736819Y-69316872D01*
X154703334Y-69255549D01*
X154700500Y-69229191D01*
X154700500Y-68970857D01*
X154720185Y-68903818D01*
X154751618Y-68870537D01*
X154766928Y-68859414D01*
X154889414Y-68736928D01*
X154991232Y-68596788D01*
X155069873Y-68442445D01*
X155123402Y-68277701D01*
X155150500Y-68106611D01*
X155150500Y-67133389D01*
X155123402Y-66962299D01*
X155069873Y-66797555D01*
X154991232Y-66643212D01*
X154889414Y-66503072D01*
X154766928Y-66380586D01*
X154626788Y-66278768D01*
X154537581Y-66233315D01*
X154472447Y-66200128D01*
X154472446Y-66200127D01*
X154472445Y-66200127D01*
X154307701Y-66146598D01*
X154307699Y-66146597D01*
X154307698Y-66146597D01*
X154176271Y-66125781D01*
X154136611Y-66119500D01*
X153963389Y-66119500D01*
X153923728Y-66125781D01*
X153792302Y-66146597D01*
X153627552Y-66200128D01*
X153473211Y-66278768D01*
X153393256Y-66336859D01*
X153333072Y-66380586D01*
X153333070Y-66380588D01*
X153333069Y-66380588D01*
X153210588Y-66503069D01*
X153210588Y-66503070D01*
X153210586Y-66503072D01*
X153166859Y-66563256D01*
X153108768Y-66643211D01*
X153030128Y-66797552D01*
X152976597Y-66962302D01*
X152955700Y-67094246D01*
X152949500Y-67133389D01*
X152949500Y-68106611D01*
X152976598Y-68277701D01*
X153030127Y-68442445D01*
X153108768Y-68596788D01*
X153210586Y-68736928D01*
X153210588Y-68736930D01*
X153333070Y-68859412D01*
X153333076Y-68859417D01*
X153348382Y-68870537D01*
X153391050Y-68925866D01*
X153399500Y-68970857D01*
X153399500Y-69614069D01*
X153399500Y-69614071D01*
X153399499Y-69614071D01*
X153424497Y-69739738D01*
X153424499Y-69739744D01*
X153473535Y-69858127D01*
X153544723Y-69964669D01*
X153544726Y-69964673D01*
X153544727Y-69964674D01*
X158170219Y-74590165D01*
X158203704Y-74651488D01*
X158198720Y-74721180D01*
X158156848Y-74777113D01*
X158101938Y-74800319D01*
X158062300Y-74806597D01*
X157897552Y-74860128D01*
X157743211Y-74938768D01*
X157694543Y-74974128D01*
X157603072Y-75040586D01*
X157603070Y-75040588D01*
X157603069Y-75040588D01*
X157480588Y-75163069D01*
X157480588Y-75163070D01*
X157480586Y-75163072D01*
X157459661Y-75191873D01*
X157378768Y-75303211D01*
X157300128Y-75457552D01*
X157246597Y-75622302D01*
X157219500Y-75793389D01*
X157219500Y-76766611D01*
X157246598Y-76937701D01*
X157300127Y-77102445D01*
X157378768Y-77256788D01*
X157480586Y-77396928D01*
X157603072Y-77519414D01*
X157743212Y-77621232D01*
X157897555Y-77699873D01*
X158062299Y-77753402D01*
X158233389Y-77780500D01*
X158233390Y-77780500D01*
X158406610Y-77780500D01*
X158406611Y-77780500D01*
X158577701Y-77753402D01*
X158742445Y-77699873D01*
X158896788Y-77621232D01*
X159036928Y-77519414D01*
X159137819Y-77418523D01*
X159199142Y-77385038D01*
X159268834Y-77390022D01*
X159324767Y-77431894D01*
X159349184Y-77497358D01*
X159349500Y-77506204D01*
X159349500Y-80679192D01*
X159329815Y-80746231D01*
X159313181Y-80766873D01*
X158266873Y-81813181D01*
X158205550Y-81846666D01*
X158179192Y-81849500D01*
X144435929Y-81849500D01*
X144310261Y-81874497D01*
X144310255Y-81874499D01*
X144191875Y-81923533D01*
X144191866Y-81923538D01*
X144085331Y-81994723D01*
X144085327Y-81994726D01*
X137494727Y-88585325D01*
X137494724Y-88585328D01*
X137424955Y-88689747D01*
X137423535Y-88691871D01*
X137423532Y-88691877D01*
X137374500Y-88810251D01*
X137374497Y-88810261D01*
X137349500Y-88935928D01*
X137349500Y-90149142D01*
X137329815Y-90216181D01*
X137298387Y-90249459D01*
X137283072Y-90260585D01*
X137160588Y-90383069D01*
X137160588Y-90383070D01*
X137160586Y-90383072D01*
X137116859Y-90443256D01*
X137058768Y-90523211D01*
X136980128Y-90677552D01*
X136926597Y-90842302D01*
X136905700Y-90974246D01*
X136899500Y-91013389D01*
X136560500Y-91013389D01*
X136533402Y-90842299D01*
X136479873Y-90677555D01*
X136401232Y-90523212D01*
X136299414Y-90383072D01*
X136176928Y-90260586D01*
X136036788Y-90158768D01*
X135882445Y-90080127D01*
X135717701Y-90026598D01*
X135717699Y-90026597D01*
X135717698Y-90026597D01*
X135585750Y-90005699D01*
X135546611Y-89999500D01*
X135373389Y-89999500D01*
X135334250Y-90005699D01*
X135202302Y-90026597D01*
X135037552Y-90080128D01*
X134883211Y-90158768D01*
X134834543Y-90194128D01*
X134743072Y-90260586D01*
X134743070Y-90260588D01*
X134743069Y-90260588D01*
X134620588Y-90383069D01*
X134620588Y-90383070D01*
X134620586Y-90383072D01*
X134576859Y-90443256D01*
X134518768Y-90523211D01*
X134440128Y-90677552D01*
X134386597Y-90842302D01*
X134365700Y-90974246D01*
X134359500Y-91013389D01*
X134020500Y-91013389D01*
X133993402Y-90842299D01*
X133939873Y-90677555D01*
X133861232Y-90523212D01*
X133759414Y-90383072D01*
X133636928Y-90260586D01*
X133496788Y-90158768D01*
X133342445Y-90080127D01*
X133177701Y-90026598D01*
X133177699Y-90026597D01*
X133177698Y-90026597D01*
X133045750Y-90005699D01*
X133006611Y-89999500D01*
X132833389Y-89999500D01*
X132794250Y-90005699D01*
X132662302Y-90026597D01*
X132497552Y-90080128D01*
X132343211Y-90158768D01*
X132294543Y-90194128D01*
X132203072Y-90260586D01*
X132203070Y-90260588D01*
X132203069Y-90260588D01*
X132080588Y-90383069D01*
X132080588Y-90383070D01*
X132080586Y-90383072D01*
X132036859Y-90443256D01*
X131978768Y-90523211D01*
X131900128Y-90677552D01*
X131846597Y-90842302D01*
X131819500Y-91013389D01*
X131819500Y-91629191D01*
X131810855Y-91658631D01*
X131804332Y-91688618D01*
X131800577Y-91693633D01*
X131799815Y-91696230D01*
X131783181Y-91716872D01*
X131692181Y-91807872D01*
X131630858Y-91841357D01*
X131561166Y-91836373D01*
X131505233Y-91794501D01*
X131480816Y-91729037D01*
X131480500Y-91720191D01*
X131480500Y-91013389D01*
X131453421Y-90842420D01*
X131453402Y-90842299D01*
X131399873Y-90677555D01*
X131321232Y-90523212D01*
X131219414Y-90383072D01*
X131096928Y-90260586D01*
X130956788Y-90158768D01*
X130802445Y-90080127D01*
X130637701Y-90026598D01*
X130637699Y-90026597D01*
X130637698Y-90026597D01*
X130505750Y-90005699D01*
X130466611Y-89999500D01*
X130293389Y-89999500D01*
X130254250Y-90005699D01*
X130122302Y-90026597D01*
X129957552Y-90080128D01*
X129803211Y-90158768D01*
X129754543Y-90194128D01*
X129663072Y-90260586D01*
X129663070Y-90260588D01*
X129663069Y-90260588D01*
X129540588Y-90383069D01*
X129540588Y-90383070D01*
X129540586Y-90383072D01*
X129496859Y-90443256D01*
X129438768Y-90523211D01*
X129360128Y-90677552D01*
X129306597Y-90842302D01*
X129285700Y-90974246D01*
X129279500Y-91013389D01*
X129279500Y-91986611D01*
X129287677Y-92038239D01*
X129306579Y-92157585D01*
X129306598Y-92157701D01*
X129360127Y-92322445D01*
X129438768Y-92476788D01*
X129540586Y-92616928D01*
X129663072Y-92739414D01*
X129803212Y-92841232D01*
X129957555Y-92919873D01*
X130122299Y-92973402D01*
X130230997Y-92990618D01*
X130294131Y-93020547D01*
X130331063Y-93079858D01*
X130330065Y-93149721D01*
X130299280Y-93200772D01*
X128686873Y-94813181D01*
X128625550Y-94846666D01*
X128599192Y-94849500D01*
X124935929Y-94849500D01*
X124810261Y-94874497D01*
X124810255Y-94874499D01*
X124691874Y-94923534D01*
X124585326Y-94994726D01*
X119994724Y-99585328D01*
X119938484Y-99669497D01*
X119938485Y-99669498D01*
X119923534Y-99691874D01*
X119874499Y-99810255D01*
X119874497Y-99810261D01*
X119849500Y-99935928D01*
X119849500Y-99935931D01*
X119849500Y-131142916D01*
X119849500Y-131142918D01*
X119849499Y-131142918D01*
X116745369Y-131142918D01*
X116745369Y-101167359D01*
X116765054Y-101100320D01*
X116781683Y-101079683D01*
X124872083Y-92989282D01*
X124933404Y-92955799D01*
X124998079Y-92959033D01*
X125042299Y-92973402D01*
X125213389Y-93000500D01*
X125213390Y-93000500D01*
X125386610Y-93000500D01*
X125386611Y-93000500D01*
X125557701Y-92973402D01*
X125722445Y-92919873D01*
X125876788Y-92841232D01*
X126016928Y-92739414D01*
X126139414Y-92616928D01*
X126241232Y-92476788D01*
X126319873Y-92322445D01*
X126373402Y-92157701D01*
X126400500Y-91986611D01*
X126400500Y-91013389D01*
X126739500Y-91013389D01*
X126739500Y-91986611D01*
X126747677Y-92038239D01*
X126766579Y-92157585D01*
X126766598Y-92157701D01*
X126820127Y-92322445D01*
X126898768Y-92476788D01*
X127000586Y-92616928D01*
X127123072Y-92739414D01*
X127263212Y-92841232D01*
X127417555Y-92919873D01*
X127582299Y-92973402D01*
X127753389Y-93000500D01*
X127753390Y-93000500D01*
X127926610Y-93000500D01*
X127926611Y-93000500D01*
X128097701Y-92973402D01*
X128262445Y-92919873D01*
X128416788Y-92841232D01*
X128556928Y-92739414D01*
X128679414Y-92616928D01*
X128781232Y-92476788D01*
X128859873Y-92322445D01*
X128913402Y-92157701D01*
X128940500Y-91986611D01*
X128940500Y-91013389D01*
X128913402Y-90842299D01*
X128859873Y-90677555D01*
X128781232Y-90523212D01*
X128679414Y-90383072D01*
X128556928Y-90260586D01*
X128416788Y-90158768D01*
X128262445Y-90080127D01*
X128097701Y-90026598D01*
X128097699Y-90026597D01*
X128097698Y-90026597D01*
X127965750Y-90005699D01*
X127926611Y-89999500D01*
X127753389Y-89999500D01*
X127714250Y-90005699D01*
X127582302Y-90026597D01*
X127417552Y-90080128D01*
X127263211Y-90158768D01*
X127214543Y-90194128D01*
X127123072Y-90260586D01*
X127123070Y-90260588D01*
X127123069Y-90260588D01*
X127000588Y-90383069D01*
X127000588Y-90383070D01*
X127000586Y-90383072D01*
X126956859Y-90443256D01*
X126898768Y-90523211D01*
X126820128Y-90677552D01*
X126766597Y-90842302D01*
X126745700Y-90974246D01*
X126739500Y-91013389D01*
X126400500Y-91013389D01*
X126373402Y-90842299D01*
X126319873Y-90677555D01*
X126241232Y-90523212D01*
X126139414Y-90383072D01*
X126016928Y-90260586D01*
X125876788Y-90158768D01*
X125722445Y-90080127D01*
X125557701Y-90026598D01*
X125557699Y-90026597D01*
X125557698Y-90026597D01*
X125425750Y-90005699D01*
X125386611Y-89999500D01*
X125213389Y-89999500D01*
X125174250Y-90005699D01*
X125042302Y-90026597D01*
X124877552Y-90080128D01*
X124723211Y-90158768D01*
X124674543Y-90194128D01*
X124583072Y-90260586D01*
X124583070Y-90260588D01*
X124583069Y-90260588D01*
X124460588Y-90383069D01*
X124460588Y-90383070D01*
X124460586Y-90383072D01*
X124416859Y-90443256D01*
X124358768Y-90523211D01*
X124280128Y-90677552D01*
X124226597Y-90842302D01*
X124199500Y-91013389D01*
X124199500Y-91487770D01*
X124190855Y-91517210D01*
X124184332Y-91547197D01*
X124180577Y-91552212D01*
X124179815Y-91554809D01*
X124163181Y-91575451D01*
X124072181Y-91666451D01*
X124010858Y-91699936D01*
X123941166Y-91694952D01*
X123885233Y-91653080D01*
X123860816Y-91587616D01*
X123860500Y-91578770D01*
X123860500Y-91013389D01*
X123833421Y-90842420D01*
X123833402Y-90842299D01*
X123779873Y-90677555D01*
X123701232Y-90523212D01*
X123599414Y-90383072D01*
X123476928Y-90260586D01*
X123336788Y-90158768D01*
X123182445Y-90080127D01*
X123017701Y-90026598D01*
X123017699Y-90026597D01*
X123017698Y-90026597D01*
X122885750Y-90005699D01*
X122846611Y-89999500D01*
X122673389Y-89999500D01*
X122641192Y-90004599D01*
X122502301Y-90026597D01*
X122351342Y-90075647D01*
X122281501Y-90077642D01*
X122225343Y-90045397D01*
X116174674Y-83994727D01*
X116174673Y-83994726D01*
X116068123Y-83923532D01*
X115984900Y-83889061D01*
X115930496Y-83845220D01*
X115908431Y-83778926D01*
X115925710Y-83711227D01*
X115976847Y-83663616D01*
X116032352Y-83650500D01*
X138964071Y-83650500D01*
X139048615Y-83633682D01*
X139089744Y-83625501D01*
X139208127Y-83576465D01*
X139314669Y-83505277D01*
X145085343Y-77734600D01*
X145146664Y-77701117D01*
X145211339Y-77704351D01*
X145362299Y-77753402D01*
X145533389Y-77780500D01*
X145533390Y-77780500D01*
X145706610Y-77780500D01*
X145706611Y-77780500D01*
X145877701Y-77753402D01*
X146042445Y-77699873D01*
X146196788Y-77621232D01*
X146336928Y-77519414D01*
X146459414Y-77396928D01*
X146561232Y-77256788D01*
X146639873Y-77102445D01*
X146693402Y-76937701D01*
X146720500Y-76766611D01*
X146720500Y-75793389D01*
X147059500Y-75793389D01*
X147059500Y-76766611D01*
X147086598Y-76937701D01*
X147140127Y-77102445D01*
X147218768Y-77256788D01*
X147320586Y-77396928D01*
X147443072Y-77519414D01*
X147583212Y-77621232D01*
X147737555Y-77699873D01*
X147902299Y-77753402D01*
X148073389Y-77780500D01*
X148073390Y-77780500D01*
X148246610Y-77780500D01*
X148246611Y-77780500D01*
X148417701Y-77753402D01*
X148582445Y-77699873D01*
X148736788Y-77621232D01*
X148876928Y-77519414D01*
X148999414Y-77396928D01*
X149101232Y-77256788D01*
X149179873Y-77102445D01*
X149233402Y-76937701D01*
X149260500Y-76766611D01*
X149260500Y-75793389D01*
X149233402Y-75622299D01*
X149179873Y-75457555D01*
X149101232Y-75303212D01*
X148999414Y-75163072D01*
X148876928Y-75040586D01*
X148736788Y-74938768D01*
X148582445Y-74860127D01*
X148417701Y-74806598D01*
X148417699Y-74806597D01*
X148417698Y-74806597D01*
X148286271Y-74785781D01*
X148246611Y-74779500D01*
X148073389Y-74779500D01*
X148033728Y-74785781D01*
X147902302Y-74806597D01*
X147737552Y-74860128D01*
X147583211Y-74938768D01*
X147534543Y-74974128D01*
X147443072Y-75040586D01*
X147443070Y-75040588D01*
X147443069Y-75040588D01*
X147320588Y-75163069D01*
X147320588Y-75163070D01*
X147320586Y-75163072D01*
X147299661Y-75191873D01*
X147218768Y-75303211D01*
X147140128Y-75457552D01*
X147086597Y-75622302D01*
X147059500Y-75793389D01*
X146720500Y-75793389D01*
X146693402Y-75622299D01*
X146639873Y-75457555D01*
X146561232Y-75303212D01*
X146459414Y-75163072D01*
X146336928Y-75040586D01*
X146196788Y-74938768D01*
X146042445Y-74860127D01*
X145877701Y-74806598D01*
X145877699Y-74806597D01*
X145877698Y-74806597D01*
X145746271Y-74785781D01*
X145706611Y-74779500D01*
X145533389Y-74779500D01*
X145493728Y-74785781D01*
X145362302Y-74806597D01*
X145197552Y-74860128D01*
X145043211Y-74938768D01*
X144994543Y-74974128D01*
X144903072Y-75040586D01*
X144903070Y-75040588D01*
X144903069Y-75040588D01*
X144780588Y-75163069D01*
X144780588Y-75163070D01*
X144780586Y-75163072D01*
X144759661Y-75191873D01*
X144678768Y-75303211D01*
X144600128Y-75457552D01*
X144546597Y-75622302D01*
X144519500Y-75793389D01*
X144519500Y-76409192D01*
X144510855Y-76438632D01*
X144504332Y-76468619D01*
X144500577Y-76473634D01*
X144499815Y-76476231D01*
X144483182Y-76496872D01*
X144392181Y-76587873D01*
X144330858Y-76621358D01*
X144261166Y-76616374D01*
X144205233Y-76574502D01*
X144180816Y-76509038D01*
X144180500Y-76500192D01*
X144180500Y-75793389D01*
X144153402Y-75622302D01*
X144153402Y-75622299D01*
X144099873Y-75457555D01*
X144021232Y-75303212D01*
X143919414Y-75163072D01*
X143796928Y-75040586D01*
X143656788Y-74938768D01*
X143502445Y-74860127D01*
X143337701Y-74806598D01*
X143337699Y-74806597D01*
X143337698Y-74806597D01*
X143206271Y-74785781D01*
X143166611Y-74779500D01*
X142993389Y-74779500D01*
X142953728Y-74785781D01*
X142822302Y-74806597D01*
X142657552Y-74860128D01*
X142503211Y-74938768D01*
X142454543Y-74974128D01*
X142363072Y-75040586D01*
X142363070Y-75040588D01*
X142363069Y-75040588D01*
X142240588Y-75163069D01*
X142240588Y-75163070D01*
X142240586Y-75163072D01*
X142219661Y-75191873D01*
X142138768Y-75303211D01*
X142060128Y-75457552D01*
X142006597Y-75622302D01*
X141979500Y-75793389D01*
X141979500Y-76409191D01*
X141970855Y-76438631D01*
X141964332Y-76468618D01*
X141960577Y-76473633D01*
X141959815Y-76476230D01*
X141943181Y-76496872D01*
X141852181Y-76587872D01*
X141790858Y-76621357D01*
X141721166Y-76616373D01*
X141665233Y-76574501D01*
X141640816Y-76509037D01*
X141640500Y-76500191D01*
X141640500Y-75793389D01*
X141613402Y-75622302D01*
X141613402Y-75622299D01*
X141559873Y-75457555D01*
X141481232Y-75303212D01*
X141379414Y-75163072D01*
X141256928Y-75040586D01*
X141116788Y-74938768D01*
X140962445Y-74860127D01*
X140797701Y-74806598D01*
X140797699Y-74806597D01*
X140797698Y-74806597D01*
X140666271Y-74785781D01*
X140626611Y-74779500D01*
X140453389Y-74779500D01*
X140413728Y-74785781D01*
X140282302Y-74806597D01*
X140117552Y-74860128D01*
X139963211Y-74938768D01*
X139914543Y-74974128D01*
X139823072Y-75040586D01*
X139823070Y-75040588D01*
X139823069Y-75040588D01*
X139700588Y-75163069D01*
X139700588Y-75163070D01*
X139700586Y-75163072D01*
X139679661Y-75191873D01*
X139598768Y-75303211D01*
X139520128Y-75457552D01*
X139466597Y-75622302D01*
X139439500Y-75793389D01*
X139439500Y-76766611D01*
X139466598Y-76937701D01*
X139520127Y-77102445D01*
X139598768Y-77256788D01*
X139700586Y-77396928D01*
X139823072Y-77519414D01*
X139963212Y-77621232D01*
X140117555Y-77699873D01*
X140282299Y-77753402D01*
X140390997Y-77770618D01*
X140454131Y-77800547D01*
X140491063Y-77859858D01*
X140490065Y-77929721D01*
X140459280Y-77980772D01*
X137626873Y-80813181D01*
X137565550Y-80846666D01*
X137539192Y-80849500D01*
X126932352Y-80849500D01*
X126865313Y-80829815D01*
X126819558Y-80777011D01*
X126809614Y-80707853D01*
X126838639Y-80644297D01*
X126884900Y-80610939D01*
X126899373Y-80604943D01*
X126968127Y-80576465D01*
X126986679Y-80564069D01*
X127074669Y-80505277D01*
X129845344Y-77734600D01*
X129906665Y-77701117D01*
X129971339Y-77704351D01*
X130122299Y-77753402D01*
X130293389Y-77780500D01*
X130293390Y-77780500D01*
X130466610Y-77780500D01*
X130466611Y-77780500D01*
X130637701Y-77753402D01*
X130802445Y-77699873D01*
X130956788Y-77621232D01*
X131096928Y-77519414D01*
X131219414Y-77396928D01*
X131321232Y-77256788D01*
X131399873Y-77102445D01*
X131453402Y-76937701D01*
X131480500Y-76766611D01*
X131480500Y-75793389D01*
X131819500Y-75793389D01*
X131819500Y-76766611D01*
X131846598Y-76937701D01*
X131900127Y-77102445D01*
X131978768Y-77256788D01*
X132080586Y-77396928D01*
X132203072Y-77519414D01*
X132343212Y-77621232D01*
X132497555Y-77699873D01*
X132662299Y-77753402D01*
X132833389Y-77780500D01*
X132833390Y-77780500D01*
X133006610Y-77780500D01*
X133006611Y-77780500D01*
X133177701Y-77753402D01*
X133342445Y-77699873D01*
X133496788Y-77621232D01*
X133636928Y-77519414D01*
X133759414Y-77396928D01*
X133861232Y-77256788D01*
X133939873Y-77102445D01*
X133993402Y-76937701D01*
X134020500Y-76766611D01*
X134020500Y-75793389D01*
X133993402Y-75622299D01*
X133939873Y-75457555D01*
X133861232Y-75303212D01*
X133759414Y-75163072D01*
X133636928Y-75040586D01*
X133496788Y-74938768D01*
X133342445Y-74860127D01*
X133177701Y-74806598D01*
X133177699Y-74806597D01*
X133177698Y-74806597D01*
X133046271Y-74785781D01*
X133006611Y-74779500D01*
X132833389Y-74779500D01*
X132793728Y-74785781D01*
X132662302Y-74806597D01*
X132497552Y-74860128D01*
X132343211Y-74938768D01*
X132294543Y-74974128D01*
X132203072Y-75040586D01*
X132203070Y-75040588D01*
X132203069Y-75040588D01*
X132080588Y-75163069D01*
X132080588Y-75163070D01*
X132080586Y-75163072D01*
X132059661Y-75191873D01*
X131978768Y-75303211D01*
X131900128Y-75457552D01*
X131846597Y-75622302D01*
X131819500Y-75793389D01*
X131480500Y-75793389D01*
X131453402Y-75622299D01*
X131399873Y-75457555D01*
X131321232Y-75303212D01*
X131219414Y-75163072D01*
X131096928Y-75040586D01*
X130956788Y-74938768D01*
X130802445Y-74860127D01*
X130637701Y-74806598D01*
X130637699Y-74806597D01*
X130637698Y-74806597D01*
X130506271Y-74785781D01*
X130466611Y-74779500D01*
X130293389Y-74779500D01*
X130253728Y-74785781D01*
X130122302Y-74806597D01*
X129957552Y-74860128D01*
X129803211Y-74938768D01*
X129754543Y-74974128D01*
X129663072Y-75040586D01*
X129663070Y-75040588D01*
X129663069Y-75040588D01*
X129540588Y-75163069D01*
X129540588Y-75163070D01*
X129540586Y-75163072D01*
X129519661Y-75191873D01*
X129438768Y-75303211D01*
X129360128Y-75457552D01*
X129306597Y-75622302D01*
X129279500Y-75793389D01*
X129279500Y-76409191D01*
X129270855Y-76438631D01*
X129264332Y-76468618D01*
X129260577Y-76473633D01*
X129259815Y-76476230D01*
X129243181Y-76496872D01*
X129152181Y-76587872D01*
X129090858Y-76621357D01*
X129021166Y-76616373D01*
X128965233Y-76574501D01*
X128940816Y-76509037D01*
X128940500Y-76500191D01*
X128940500Y-75793389D01*
X128913402Y-75622302D01*
X128913402Y-75622299D01*
X128859873Y-75457555D01*
X128781232Y-75303212D01*
X128679414Y-75163072D01*
X128556928Y-75040586D01*
X128416788Y-74938768D01*
X128262445Y-74860127D01*
X128097701Y-74806598D01*
X128097699Y-74806597D01*
X128097698Y-74806597D01*
X127966271Y-74785781D01*
X127926611Y-74779500D01*
X127753389Y-74779500D01*
X127713728Y-74785781D01*
X127582302Y-74806597D01*
X127417552Y-74860128D01*
X127263211Y-74938768D01*
X127214543Y-74974128D01*
X127123072Y-75040586D01*
X127123070Y-75040588D01*
X127123069Y-75040588D01*
X127000588Y-75163069D01*
X127000588Y-75163070D01*
X127000586Y-75163072D01*
X126979661Y-75191873D01*
X126898768Y-75303211D01*
X126820128Y-75457552D01*
X126766597Y-75622302D01*
X126739500Y-75793389D01*
X126739500Y-76766614D01*
X126739726Y-76768041D01*
X126739655Y-76768589D01*
X126739882Y-76771473D01*
X126739276Y-76771520D01*
X126739024Y-76773467D01*
X126740937Y-76778594D01*
X126734595Y-76807744D01*
X126730772Y-76837335D01*
X126726939Y-76842940D01*
X126726085Y-76846867D01*
X126704934Y-76875121D01*
X126592642Y-76987413D01*
X126531319Y-77020898D01*
X126461627Y-77015914D01*
X126405694Y-76974042D01*
X126381277Y-76908578D01*
X126382488Y-76880334D01*
X126394300Y-76805754D01*
X126400500Y-76766611D01*
X126400500Y-75793389D01*
X126373402Y-75622299D01*
X126319873Y-75457555D01*
X126241232Y-75303212D01*
X126139414Y-75163072D01*
X126016928Y-75040586D01*
X126001612Y-75029458D01*
X125958948Y-74974128D01*
X125950500Y-74929142D01*
X125950500Y-70720807D01*
X125970185Y-70653768D01*
X125986814Y-70633131D01*
X127515915Y-69104029D01*
X127577236Y-69070546D01*
X127641911Y-69073780D01*
X127660483Y-69079815D01*
X127702298Y-69093402D01*
X127769408Y-69104031D01*
X127873389Y-69120500D01*
X127873390Y-69120500D01*
X128046610Y-69120500D01*
X128046611Y-69120500D01*
X128217701Y-69093402D01*
X128382445Y-69039873D01*
X128536788Y-68961232D01*
X128676928Y-68859414D01*
X128799414Y-68736928D01*
X128901232Y-68596788D01*
X128979873Y-68442445D01*
X129033402Y-68277701D01*
X129060500Y-68106611D01*
X129060500Y-67133389D01*
X129033402Y-66962299D01*
X128984831Y-66812817D01*
X128982837Y-66742977D01*
X129018917Y-66683144D01*
X129081618Y-66652316D01*
X129102763Y-66650500D01*
X129357237Y-66650500D01*
X129424276Y-66670185D01*
X129470031Y-66722989D01*
X129479975Y-66792147D01*
X129475168Y-66812814D01*
X129430495Y-66950302D01*
X129426597Y-66962302D01*
X129405700Y-67094246D01*
X129399500Y-67133389D01*
X129399500Y-68106611D01*
X129426598Y-68277701D01*
X129480127Y-68442445D01*
X129558768Y-68596788D01*
X129660586Y-68736928D01*
X129783072Y-68859414D01*
X129923212Y-68961232D01*
X130077555Y-69039873D01*
X130242299Y-69093402D01*
X130413389Y-69120500D01*
X130413390Y-69120500D01*
X130586610Y-69120500D01*
X130586611Y-69120500D01*
X130757701Y-69093402D01*
X130908660Y-69044351D01*
X130978497Y-69042357D01*
X131034656Y-69074602D01*
X134773181Y-72813127D01*
X134806666Y-72874450D01*
X134809500Y-72900808D01*
X134809500Y-74929142D01*
X134789815Y-74996181D01*
X134758387Y-75029459D01*
X134743072Y-75040585D01*
X134620588Y-75163069D01*
X134620588Y-75163070D01*
X134620586Y-75163072D01*
X134599661Y-75191873D01*
X134518768Y-75303211D01*
X134440128Y-75457552D01*
X134386597Y-75622302D01*
X134359500Y-75793389D01*
X134359500Y-76766611D01*
X134386598Y-76937701D01*
X134440127Y-77102445D01*
X134518768Y-77256788D01*
X134620586Y-77396928D01*
X134743072Y-77519414D01*
X134883212Y-77621232D01*
X135037555Y-77699873D01*
X135202299Y-77753402D01*
X135373389Y-77780500D01*
X135373390Y-77780500D01*
X135546610Y-77780500D01*
X135546611Y-77780500D01*
X135717701Y-77753402D01*
X135882445Y-77699873D01*
X136036788Y-77621232D01*
X136176928Y-77519414D01*
X136299414Y-77396928D01*
X136401232Y-77256788D01*
X136479873Y-77102445D01*
X136533402Y-76937701D01*
X136560500Y-76766611D01*
X136560500Y-75793389D01*
X136899500Y-75793389D01*
X136899500Y-76766611D01*
X136926598Y-76937701D01*
X136980127Y-77102445D01*
X137058768Y-77256788D01*
X137160586Y-77396928D01*
X137283072Y-77519414D01*
X137423212Y-77621232D01*
X137577555Y-77699873D01*
X137742299Y-77753402D01*
X137913389Y-77780500D01*
X137913390Y-77780500D01*
X138086610Y-77780500D01*
X138086611Y-77780500D01*
X138257701Y-77753402D01*
X138422445Y-77699873D01*
X138576788Y-77621232D01*
X138716928Y-77519414D01*
X138839414Y-77396928D01*
X138941232Y-77256788D01*
X139019873Y-77102445D01*
X139073402Y-76937701D01*
X139100500Y-76766611D01*
X139100500Y-75793389D01*
X139073402Y-75622299D01*
X139019873Y-75457555D01*
X138941232Y-75303212D01*
X138839414Y-75163072D01*
X138716928Y-75040586D01*
X138576788Y-74938768D01*
X138422445Y-74860127D01*
X138257701Y-74806598D01*
X138257699Y-74806597D01*
X138257698Y-74806597D01*
X138126271Y-74785781D01*
X138086611Y-74779500D01*
X137913389Y-74779500D01*
X137873728Y-74785781D01*
X137742302Y-74806597D01*
X137577552Y-74860128D01*
X137423211Y-74938768D01*
X137374543Y-74974128D01*
X137283072Y-75040586D01*
X137283070Y-75040588D01*
X137283069Y-75040588D01*
X137160588Y-75163069D01*
X137160588Y-75163070D01*
X137160586Y-75163072D01*
X137139661Y-75191873D01*
X137058768Y-75303211D01*
X136980128Y-75457552D01*
X136926597Y-75622302D01*
X136899500Y-75793389D01*
X136560500Y-75793389D01*
X136533402Y-75622299D01*
X136479873Y-75457555D01*
X136401232Y-75303212D01*
X136299414Y-75163072D01*
X136176928Y-75040586D01*
X136161612Y-75029458D01*
X136118948Y-74974128D01*
X136110500Y-74929142D01*
X136110500Y-72515928D01*
X136085502Y-72390261D01*
X136085501Y-72390260D01*
X136085501Y-72390256D01*
X136036465Y-72271873D01*
X135987190Y-72198127D01*
X135965276Y-72165330D01*
X135965273Y-72165327D01*
X135965271Y-72165324D01*
X133120718Y-69320772D01*
X133087233Y-69259449D01*
X133092217Y-69189757D01*
X133134089Y-69133824D01*
X133189001Y-69110618D01*
X133246553Y-69101502D01*
X133297696Y-69093403D01*
X133297696Y-69093402D01*
X133297701Y-69093402D01*
X133462445Y-69039873D01*
X133616788Y-68961232D01*
X133756928Y-68859414D01*
X133879414Y-68736928D01*
X133981232Y-68596788D01*
X134059873Y-68442445D01*
X134113402Y-68277701D01*
X134140500Y-68106611D01*
X134140500Y-67133389D01*
X134113402Y-66962299D01*
X134064831Y-66812817D01*
X134062837Y-66742977D01*
X134098917Y-66683144D01*
X134161618Y-66652316D01*
X134182763Y-66650500D01*
X140207237Y-66650500D01*
X140274276Y-66670185D01*
X140320031Y-66722989D01*
X140329975Y-66792147D01*
X140325168Y-66812814D01*
X140280495Y-66950302D01*
X140276597Y-66962302D01*
X140255700Y-67094246D01*
X140249500Y-67133389D01*
X140249500Y-68106611D01*
X140276598Y-68277701D01*
X140330127Y-68442445D01*
X140408768Y-68596788D01*
X140510586Y-68736928D01*
X140633072Y-68859414D01*
X140773212Y-68961232D01*
X140927555Y-69039873D01*
X141092299Y-69093402D01*
X141263389Y-69120500D01*
X141263390Y-69120500D01*
X141436610Y-69120500D01*
X141436611Y-69120500D01*
X141607701Y-69093402D01*
X141772445Y-69039873D01*
X141926788Y-68961232D01*
X142066928Y-68859414D01*
X142189414Y-68736928D01*
X142291232Y-68596788D01*
X142369873Y-68442445D01*
X142423402Y-68277701D01*
X142450500Y-68106611D01*
X142450500Y-67133389D01*
X142423402Y-66962299D01*
X142374831Y-66812817D01*
X142372837Y-66742977D01*
X142408917Y-66683144D01*
X142471618Y-66652316D01*
X142492763Y-66650500D01*
X142747237Y-66650500D01*
X142814276Y-66670185D01*
X142860031Y-66722989D01*
X142869975Y-66792147D01*
X142865168Y-66812814D01*
X142820495Y-66950302D01*
X142816597Y-66962302D01*
X142795700Y-67094246D01*
X142789500Y-67133389D01*
X142789500Y-68106611D01*
X142816598Y-68277701D01*
X142870127Y-68442445D01*
X142948768Y-68596788D01*
X143050586Y-68736928D01*
X143173072Y-68859414D01*
X143313212Y-68961232D01*
X143467555Y-69039873D01*
X143632299Y-69093402D01*
X143803389Y-69120500D01*
X143803390Y-69120500D01*
X143976610Y-69120500D01*
X143976611Y-69120500D01*
X144147701Y-69093402D01*
X144312445Y-69039873D01*
X144466788Y-68961232D01*
X144606928Y-68859414D01*
X144729414Y-68736928D01*
X144831232Y-68596788D01*
X144909873Y-68442445D01*
X144963402Y-68277701D01*
X144990500Y-68106611D01*
X144990500Y-67133389D01*
X144963402Y-66962299D01*
X144914831Y-66812817D01*
X144912837Y-66742977D01*
X144948917Y-66683144D01*
X145011618Y-66652316D01*
X145032763Y-66650500D01*
X145287237Y-66650500D01*
X145354276Y-66670185D01*
X145400031Y-66722989D01*
X145409975Y-66792147D01*
X145405168Y-66812814D01*
X145360495Y-66950302D01*
X145356597Y-66962302D01*
X145335700Y-67094246D01*
X145329500Y-67133389D01*
X145329500Y-68106611D01*
X145356598Y-68277701D01*
X145410127Y-68442445D01*
X145488768Y-68596788D01*
X145590586Y-68736928D01*
X145713072Y-68859414D01*
X145853212Y-68961232D01*
X146007555Y-69039873D01*
X146172299Y-69093402D01*
X146343389Y-69120500D01*
X146343390Y-69120500D01*
X146516610Y-69120500D01*
X146516611Y-69120500D01*
X146687701Y-69093402D01*
X146838660Y-69044351D01*
X146908497Y-69042357D01*
X146964656Y-69074602D01*
X150013181Y-72123127D01*
X150046666Y-72184450D01*
X150049500Y-72210808D01*
X150049500Y-74929142D01*
X150029815Y-74996181D01*
X149998387Y-75029459D01*
X149983072Y-75040585D01*
X149860588Y-75163069D01*
X149860588Y-75163070D01*
X149860586Y-75163072D01*
X149839661Y-75191873D01*
X149758768Y-75303211D01*
X149680128Y-75457552D01*
X149626597Y-75622302D01*
X149599500Y-75793389D01*
X149599500Y-76766611D01*
X149626598Y-76937701D01*
X149680127Y-77102445D01*
X149758768Y-77256788D01*
X149860586Y-77396928D01*
X149983072Y-77519414D01*
X150123212Y-77621232D01*
X150277555Y-77699873D01*
X150442299Y-77753402D01*
X150613389Y-77780500D01*
X150613390Y-77780500D01*
X150786610Y-77780500D01*
X150786611Y-77780500D01*
X150957701Y-77753402D01*
X151122445Y-77699873D01*
X151276788Y-77621232D01*
X151416928Y-77519414D01*
X151539414Y-77396928D01*
X151641232Y-77256788D01*
X151719873Y-77102445D01*
X151773402Y-76937701D01*
X151800500Y-76766611D01*
X151800500Y-75793389D01*
X151773402Y-75622299D01*
X151719873Y-75457555D01*
X151641232Y-75303212D01*
X151539414Y-75163072D01*
X151416928Y-75040586D01*
X151401612Y-75029458D01*
X151358948Y-74974128D01*
X151350500Y-74929142D01*
X151350500Y-71825928D01*
X151325502Y-71700261D01*
X151325501Y-71700260D01*
X151325501Y-71700256D01*
X151276465Y-71581873D01*
X151205277Y-71475331D01*
X151205275Y-71475329D01*
X151205273Y-71475326D01*
X151205272Y-71475325D01*
X149050718Y-69320772D01*
X149017233Y-69259449D01*
X149022217Y-69189757D01*
X149064089Y-69133824D01*
X149119001Y-69110618D01*
X149227701Y-69093402D01*
X149378660Y-69044351D01*
X149448497Y-69042357D01*
X149504656Y-69074602D01*
X152553181Y-72123127D01*
X152586666Y-72184450D01*
X152589500Y-72210808D01*
X152589500Y-74929142D01*
X152569815Y-74996181D01*
X152538387Y-75029459D01*
X152523072Y-75040585D01*
X152400588Y-75163069D01*
X152400588Y-75163070D01*
X152400586Y-75163072D01*
X152379661Y-75191873D01*
X152298768Y-75303211D01*
X152220128Y-75457552D01*
X152166597Y-75622302D01*
X152139500Y-75793389D01*
X152139500Y-76766611D01*
X152166598Y-76937701D01*
X152220127Y-77102445D01*
X152298768Y-77256788D01*
X152400586Y-77396928D01*
X152523072Y-77519414D01*
X152663212Y-77621232D01*
X152817555Y-77699873D01*
X152982299Y-77753402D01*
X153153389Y-77780500D01*
X153153390Y-77780500D01*
X153326610Y-77780500D01*
X153326611Y-77780500D01*
X153497701Y-77753402D01*
X153662445Y-77699873D01*
X153816788Y-77621232D01*
X153956928Y-77519414D01*
X154079414Y-77396928D01*
X154181232Y-77256788D01*
X154259873Y-77102445D01*
X154313402Y-76937701D01*
X154340500Y-76766611D01*
X154340500Y-75793389D01*
X154679500Y-75793389D01*
X154679500Y-76766611D01*
X154706598Y-76937701D01*
X154760127Y-77102445D01*
X154838768Y-77256788D01*
X154940586Y-77396928D01*
X155063072Y-77519414D01*
X155203212Y-77621232D01*
X155357555Y-77699873D01*
X155522299Y-77753402D01*
X155693389Y-77780500D01*
X155693390Y-77780500D01*
X155866610Y-77780500D01*
X155866611Y-77780500D01*
X156037701Y-77753402D01*
X156202445Y-77699873D01*
X156356788Y-77621232D01*
X156496928Y-77519414D01*
X156619414Y-77396928D01*
X156721232Y-77256788D01*
X156799873Y-77102445D01*
X156853402Y-76937701D01*
X156880500Y-76766611D01*
X156880500Y-75793389D01*
X156853402Y-75622299D01*
X156799873Y-75457555D01*
X156721232Y-75303212D01*
X156619414Y-75163072D01*
X156496928Y-75040586D01*
X156356788Y-74938768D01*
X156202445Y-74860127D01*
X156037701Y-74806598D01*
X156037699Y-74806597D01*
X156037698Y-74806597D01*
X155906271Y-74785781D01*
X155866611Y-74779500D01*
X155693389Y-74779500D01*
X155653728Y-74785781D01*
X155522302Y-74806597D01*
X155357552Y-74860128D01*
X155203211Y-74938768D01*
X155154543Y-74974128D01*
X155063072Y-75040586D01*
X155063070Y-75040588D01*
X155063069Y-75040588D01*
X154940588Y-75163069D01*
X154940588Y-75163070D01*
X154940586Y-75163072D01*
X154919661Y-75191873D01*
X154838768Y-75303211D01*
X154760128Y-75457552D01*
X154706597Y-75622302D01*
X154679500Y-75793389D01*
X154340500Y-75793389D01*
X154313402Y-75622299D01*
X154259873Y-75457555D01*
X154181232Y-75303212D01*
X154079414Y-75163072D01*
X153956928Y-75040586D01*
X153941612Y-75029458D01*
X153898948Y-74974128D01*
X153890500Y-74929142D01*
X153890500Y-71825928D01*
X153865502Y-71700261D01*
X153865501Y-71700260D01*
X153865501Y-71700256D01*
X153816465Y-71581873D01*
X153745277Y-71475331D01*
X153745275Y-71475329D01*
X153745273Y-71475326D01*
X153745272Y-71475325D01*
X151590718Y-69320772D01*
X151557233Y-69259449D01*
X151562217Y-69189757D01*
X151604089Y-69133824D01*
X151659001Y-69110618D01*
X151716553Y-69101502D01*
X151767696Y-69093403D01*
X151767696Y-69093402D01*
X151767701Y-69093402D01*
X151932445Y-69039873D01*
X152086788Y-68961232D01*
X152226928Y-68859414D01*
X152349414Y-68736928D01*
X152451232Y-68596788D01*
X152529873Y-68442445D01*
X152583402Y-68277701D01*
X152610500Y-68106611D01*
X152610500Y-67133389D01*
X152583402Y-66962299D01*
X152529873Y-66797555D01*
X152451232Y-66643212D01*
X152349414Y-66503072D01*
X152226928Y-66380586D01*
X152086788Y-66278768D01*
X151997581Y-66233315D01*
X151932447Y-66200128D01*
X151932446Y-66200127D01*
X151932445Y-66200127D01*
X151767701Y-66146598D01*
X151767699Y-66146597D01*
X151767698Y-66146597D01*
X151636271Y-66125781D01*
X151596611Y-66119500D01*
X151423389Y-66119500D01*
X151391192Y-66124599D01*
X151252301Y-66146597D01*
X151101342Y-66195647D01*
X151031501Y-66197642D01*
X150975343Y-66165397D01*
X150304674Y-65494727D01*
X150304673Y-65494726D01*
X150304669Y-65494723D01*
X150198127Y-65423535D01*
X150079744Y-65374499D01*
X150079738Y-65374497D01*
X149954071Y-65349500D01*
X149954069Y-65349500D01*
X127095931Y-65349500D01*
X127095929Y-65349500D01*
X126970261Y-65374497D01*
X126970255Y-65374499D01*
X126851874Y-65423534D01*
X126745326Y-65494726D01*
X126036972Y-66203080D01*
X125975649Y-66236565D01*
X125905957Y-66231581D01*
X125892997Y-66225884D01*
X125842452Y-66200130D01*
X125842446Y-66200127D01*
X125842445Y-66200127D01*
X125677701Y-66146598D01*
X125677699Y-66146597D01*
X125677698Y-66146597D01*
X125546271Y-66125781D01*
X125506611Y-66119500D01*
X125333389Y-66119500D01*
X125293728Y-66125781D01*
X125162302Y-66146597D01*
X124997552Y-66200128D01*
X124843211Y-66278768D01*
X124763256Y-66336859D01*
X124703072Y-66380586D01*
X124703070Y-66380588D01*
X124703069Y-66380588D01*
X124580588Y-66503069D01*
X124580588Y-66503070D01*
X124580586Y-66503072D01*
X124536859Y-66563256D01*
X124478768Y-66643211D01*
X124400128Y-66797552D01*
X124346597Y-66962302D01*
X124319500Y-67133389D01*
X124319500Y-67969191D01*
X124310855Y-67998631D01*
X124304332Y-68028618D01*
X124300577Y-68033633D01*
X124299815Y-68036230D01*
X124283181Y-68056872D01*
X124192181Y-68147872D01*
X124130858Y-68181357D01*
X124061166Y-68176373D01*
X124005233Y-68134501D01*
X123980816Y-68069037D01*
X123980500Y-68060191D01*
X123980500Y-67133389D01*
X123953402Y-66962302D01*
X123953402Y-66962299D01*
X123899873Y-66797555D01*
X123821232Y-66643212D01*
X123719414Y-66503072D01*
X123596928Y-66380586D01*
X123456788Y-66278768D01*
X123367581Y-66233315D01*
X123302447Y-66200128D01*
X123302446Y-66200127D01*
X123302445Y-66200127D01*
X123137701Y-66146598D01*
X123137699Y-66146597D01*
X123137698Y-66146597D01*
X123006271Y-66125781D01*
X122966611Y-66119500D01*
X122793389Y-66119500D01*
X122753728Y-66125781D01*
X122622302Y-66146597D01*
X122457552Y-66200128D01*
X122303211Y-66278768D01*
X122223256Y-66336859D01*
X122163072Y-66380586D01*
X122163070Y-66380588D01*
X122163069Y-66380588D01*
X122040588Y-66503069D01*
X122040588Y-66503070D01*
X122040586Y-66503072D01*
X121996859Y-66563256D01*
X121938768Y-66643211D01*
X121860128Y-66797552D01*
X121806597Y-66962302D01*
X121779500Y-67133389D01*
X121779500Y-67749191D01*
X121770855Y-67778631D01*
X121764332Y-67808618D01*
X121760577Y-67813633D01*
X121759815Y-67816230D01*
X121743181Y-67836872D01*
X121652181Y-67927872D01*
X121590858Y-67961357D01*
X121521166Y-67956373D01*
X121465233Y-67914501D01*
X121440816Y-67849037D01*
X121440500Y-67840191D01*
X121440500Y-67133389D01*
X121413402Y-66962302D01*
X121413402Y-66962299D01*
X121359873Y-66797555D01*
X121281232Y-66643212D01*
X121179414Y-66503072D01*
X121056928Y-66380586D01*
X120916788Y-66278768D01*
X120827581Y-66233315D01*
X120762447Y-66200128D01*
X120762446Y-66200127D01*
X120762445Y-66200127D01*
X120597701Y-66146598D01*
X120597699Y-66146597D01*
X120597698Y-66146597D01*
X120466271Y-66125781D01*
X120426611Y-66119500D01*
X120253389Y-66119500D01*
X120213728Y-66125781D01*
X120082302Y-66146597D01*
X119917552Y-66200128D01*
X119763211Y-66278768D01*
X119683256Y-66336859D01*
X119623072Y-66380586D01*
X119623070Y-66380588D01*
X119623069Y-66380588D01*
X119500588Y-66503069D01*
X119500588Y-66503070D01*
X119500586Y-66503072D01*
X119456859Y-66563256D01*
X119398768Y-66643211D01*
X119320128Y-66797552D01*
X119266597Y-66962302D01*
X119239500Y-67133389D01*
X119239500Y-67869191D01*
X119230855Y-67898631D01*
X119224332Y-67928618D01*
X119220577Y-67933633D01*
X119219815Y-67936230D01*
X119203181Y-67956872D01*
X119112181Y-68047872D01*
X119050858Y-68081357D01*
X118981166Y-68076373D01*
X118925233Y-68034501D01*
X118900816Y-67969037D01*
X118900500Y-67960191D01*
X118900500Y-67133389D01*
X118873402Y-66962302D01*
X118873402Y-66962299D01*
X118819873Y-66797555D01*
X118741232Y-66643212D01*
X118639414Y-66503072D01*
X118516928Y-66380586D01*
X118376788Y-66278768D01*
X118287581Y-66233315D01*
X118222447Y-66200128D01*
X118222446Y-66200127D01*
X118222445Y-66200127D01*
X118057701Y-66146598D01*
X118057699Y-66146597D01*
X118057698Y-66146597D01*
X117926271Y-66125781D01*
X117886611Y-66119500D01*
X117713389Y-66119500D01*
X117673728Y-66125781D01*
X117542302Y-66146597D01*
X117377552Y-66200128D01*
X117223211Y-66278768D01*
X117143256Y-66336859D01*
X117083072Y-66380586D01*
X117083070Y-66380588D01*
X117083069Y-66380588D01*
X116960588Y-66503069D01*
X116960588Y-66503070D01*
X116960586Y-66503072D01*
X116916859Y-66563256D01*
X116858768Y-66643211D01*
X116780128Y-66797552D01*
X116726597Y-66962302D01*
X116705700Y-67094246D01*
X116699500Y-67133389D01*
X116699500Y-68106611D01*
X116726598Y-68277701D01*
X116780127Y-68442445D01*
X116858768Y-68596788D01*
X116960586Y-68736928D01*
X117083072Y-68859414D01*
X117223212Y-68961232D01*
X117377555Y-69039873D01*
X117542299Y-69093402D01*
X117713389Y-69120500D01*
X117713390Y-69120500D01*
X117740191Y-69120500D01*
X117807230Y-69140185D01*
X117852985Y-69192989D01*
X117862929Y-69262147D01*
X117833904Y-69325703D01*
X117827872Y-69332181D01*
X117174727Y-69985325D01*
X117174724Y-69985328D01*
X117127987Y-70055275D01*
X117127988Y-70055276D01*
X117103534Y-70091874D01*
X117054499Y-70210255D01*
X117054497Y-70210261D01*
X117029500Y-70335928D01*
X117029500Y-74929142D01*
X117009815Y-74996181D01*
X116978387Y-75029459D01*
X116963072Y-75040585D01*
X116840588Y-75163069D01*
X116840588Y-75163070D01*
X116840586Y-75163072D01*
X116819661Y-75191873D01*
X116738768Y-75303211D01*
X116660128Y-75457552D01*
X116606597Y-75622302D01*
X116579500Y-75793389D01*
X116579500Y-76766611D01*
X116606598Y-76937701D01*
X116660127Y-77102445D01*
X116738768Y-77256788D01*
X116840586Y-77396928D01*
X116963072Y-77519414D01*
X117081633Y-77605554D01*
X117107154Y-77624096D01*
X117106079Y-77625575D01*
X117147705Y-77671581D01*
X117159130Y-77740510D01*
X117131476Y-77804674D01*
X117073522Y-77843701D01*
X117036042Y-77849501D01*
X115783958Y-77849501D01*
X115716919Y-77829816D01*
X115671164Y-77777012D01*
X115661220Y-77707854D01*
X115690245Y-77644298D01*
X115713313Y-77624739D01*
X115712846Y-77624096D01*
X115716789Y-77621231D01*
X115856928Y-77519414D01*
X115979414Y-77396928D01*
X116081232Y-77256788D01*
X116159873Y-77102445D01*
X116213402Y-76937701D01*
X116240500Y-76766611D01*
X116240500Y-75793389D01*
X116213402Y-75622299D01*
X116159873Y-75457555D01*
X116081232Y-75303212D01*
X115979414Y-75163072D01*
X115856928Y-75040586D01*
X115716788Y-74938768D01*
X115562445Y-74860127D01*
X115397701Y-74806598D01*
X115397699Y-74806597D01*
X115397698Y-74806597D01*
X115266271Y-74785781D01*
X115226611Y-74779500D01*
X115053389Y-74779500D01*
X115013728Y-74785781D01*
X114882302Y-74806597D01*
X114717552Y-74860128D01*
X114563211Y-74938768D01*
X114514543Y-74974128D01*
X114423072Y-75040586D01*
X114423070Y-75040588D01*
X114423069Y-75040588D01*
X114300588Y-75163069D01*
X114300588Y-75163070D01*
X114300586Y-75163072D01*
X114279661Y-75191873D01*
X114198768Y-75303211D01*
X114120128Y-75457552D01*
X114066597Y-75622302D01*
X114039500Y-75793389D01*
X114039500Y-76766611D01*
X114066598Y-76937701D01*
X114120127Y-77102445D01*
X114198768Y-77256788D01*
X114300586Y-77396928D01*
X114423072Y-77519414D01*
X114541633Y-77605554D01*
X114567154Y-77624096D01*
X114566079Y-77625575D01*
X114607705Y-77671581D01*
X114619130Y-77740510D01*
X114591476Y-77804674D01*
X114533522Y-77843701D01*
X114496042Y-77849501D01*
X113243958Y-77849501D01*
X113176919Y-77829816D01*
X113131164Y-77777012D01*
X113121220Y-77707854D01*
X113150245Y-77644298D01*
X113173313Y-77624739D01*
X113172846Y-77624096D01*
X113176789Y-77621231D01*
X113316928Y-77519414D01*
X113439414Y-77396928D01*
X113541232Y-77256788D01*
X113619873Y-77102445D01*
X113673402Y-76937701D01*
X113700500Y-76766611D01*
X113700500Y-75793389D01*
X113673402Y-75622299D01*
X113619873Y-75457555D01*
X113541232Y-75303212D01*
X113439414Y-75163072D01*
X113316928Y-75040586D01*
X113176788Y-74938768D01*
X113022445Y-74860127D01*
X112857701Y-74806598D01*
X112857699Y-74806597D01*
X112857698Y-74806597D01*
X112726271Y-74785781D01*
X112686611Y-74779500D01*
X112513389Y-74779500D01*
X112473728Y-74785781D01*
X112342302Y-74806597D01*
X112177552Y-74860128D01*
X112023211Y-74938768D01*
X111974543Y-74974128D01*
X111883072Y-75040586D01*
X111883070Y-75040588D01*
X111883069Y-75040588D01*
X111760588Y-75163069D01*
X111760588Y-75163070D01*
X111760586Y-75163072D01*
X111739661Y-75191873D01*
X111658768Y-75303211D01*
X111580128Y-75457552D01*
X111526597Y-75622302D01*
X111499500Y-75793389D01*
X111499500Y-76766611D01*
X111526598Y-76937701D01*
X111580127Y-77102445D01*
X111658768Y-77256788D01*
X111760586Y-77396928D01*
X111883072Y-77519414D01*
X112001633Y-77605554D01*
X112027154Y-77624096D01*
X112026079Y-77625575D01*
X112067705Y-77671581D01*
X112079130Y-77740510D01*
X112051476Y-77804674D01*
X111993522Y-77843701D01*
X111956042Y-77849501D01*
X110703958Y-77849501D01*
X110636919Y-77829816D01*
X110591164Y-77777012D01*
X110581220Y-77707854D01*
X110610245Y-77644298D01*
X110633313Y-77624739D01*
X110632846Y-77624096D01*
X110636789Y-77621231D01*
X110776928Y-77519414D01*
X110899414Y-77396928D01*
X111001232Y-77256788D01*
X111079873Y-77102445D01*
X111133402Y-76937701D01*
X111160500Y-76766611D01*
X111160500Y-75793389D01*
X111133402Y-75622299D01*
X111079873Y-75457555D01*
X111001232Y-75303212D01*
X110899414Y-75163072D01*
X110846819Y-75110477D01*
X110813334Y-75049154D01*
X110810500Y-75022796D01*
X110810500Y-67133389D01*
X114159500Y-67133389D01*
X114159500Y-68106611D01*
X114186598Y-68277701D01*
X114240127Y-68442445D01*
X114318768Y-68596788D01*
X114420586Y-68736928D01*
X114543072Y-68859414D01*
X114683212Y-68961232D01*
X114837555Y-69039873D01*
X115002299Y-69093402D01*
X115173389Y-69120500D01*
X115173390Y-69120500D01*
X115346610Y-69120500D01*
X115346611Y-69120500D01*
X115517701Y-69093402D01*
X115682445Y-69039873D01*
X115836788Y-68961232D01*
X115976928Y-68859414D01*
X116099414Y-68736928D01*
X116201232Y-68596788D01*
X116279873Y-68442445D01*
X116333402Y-68277701D01*
X116360500Y-68106611D01*
X116360500Y-67133389D01*
X116333402Y-66962299D01*
X116279873Y-66797555D01*
X116201232Y-66643212D01*
X116099414Y-66503072D01*
X115976928Y-66380586D01*
X115836788Y-66278768D01*
X115747581Y-66233315D01*
X115682447Y-66200128D01*
X115682446Y-66200127D01*
X115682445Y-66200127D01*
X115517701Y-66146598D01*
X115517699Y-66146597D01*
X115517698Y-66146597D01*
X115386271Y-66125781D01*
X115346611Y-66119500D01*
X115173389Y-66119500D01*
X115133728Y-66125781D01*
X115002302Y-66146597D01*
X114837552Y-66200128D01*
X114683211Y-66278768D01*
X114603256Y-66336859D01*
X114543072Y-66380586D01*
X114543070Y-66380588D01*
X114543069Y-66380588D01*
X114420588Y-66503069D01*
X114420588Y-66503070D01*
X114420586Y-66503072D01*
X114376859Y-66563256D01*
X114318768Y-66643211D01*
X114240128Y-66797552D01*
X114186597Y-66962302D01*
X114165700Y-67094246D01*
X114159500Y-67133389D01*
X110810500Y-67133389D01*
X110810500Y-61302230D01*
X110830185Y-61235191D01*
X110846819Y-61214549D01*
X111976042Y-60085326D01*
X113582952Y-58478416D01*
X113632186Y-58404729D01*
X113665084Y-58355495D01*
X113721658Y-58218913D01*
X113745212Y-58100502D01*
X113750500Y-58073920D01*
X113750500Y-55874500D01*
X113770185Y-55807461D01*
X113822989Y-55761706D01*
X113874500Y-55750500D01*
X128073920Y-55750500D01*
X128171462Y-55731096D01*
X128218913Y-55721658D01*
X128355495Y-55665084D01*
X128404729Y-55632186D01*
X128478416Y-55582952D01*
X130167985Y-53893381D01*
X130229306Y-53859898D01*
X130275061Y-53858591D01*
X130413389Y-53880500D01*
X130413390Y-53880500D01*
X130586610Y-53880500D01*
X130586611Y-53880500D01*
X130757701Y-53853402D01*
X130922445Y-53799873D01*
X131076788Y-53721232D01*
X131216928Y-53619414D01*
X131339414Y-53496928D01*
X131441232Y-53356788D01*
X131519873Y-53202445D01*
X131573402Y-53037701D01*
X131600500Y-52866611D01*
X131600500Y-51893389D01*
X131573402Y-51722299D01*
X131519873Y-51557555D01*
X131441232Y-51403212D01*
X131339414Y-51263072D01*
X131286819Y-51210477D01*
X131253334Y-51149154D01*
X131250500Y-51122796D01*
X131250500Y-41374500D01*
X131270185Y-41307461D01*
X131322989Y-41261706D01*
X131374500Y-41250500D01*
X145637770Y-41250500D01*
X145667210Y-41259144D01*
X145697197Y-41265668D01*
X145702212Y-41269422D01*
X145704809Y-41270185D01*
X145725451Y-41286819D01*
X145851451Y-41412819D01*
X145884936Y-41474142D01*
X145879952Y-41543834D01*
X145838080Y-41599767D01*
X145772616Y-41624184D01*
X145763770Y-41624500D01*
X145099998Y-41624500D01*
X145099980Y-41624501D01*
X144997203Y-41635000D01*
X144997200Y-41635001D01*
X144830668Y-41690185D01*
X144830663Y-41690187D01*
X144681342Y-41782289D01*
X144557289Y-41906342D01*
X144465187Y-42055663D01*
X144465185Y-42055668D01*
X144449075Y-42104285D01*
X144410001Y-42222203D01*
X144410001Y-42222204D01*
X144410000Y-42222204D01*
X144399500Y-42324983D01*
X144399500Y-42644253D01*
X144393431Y-42682570D01*
X144377830Y-42730583D01*
X144377829Y-42730590D01*
X144349500Y-42909448D01*
X144349500Y-47405038D01*
X144349499Y-47405053D01*
X144349499Y-47409454D01*
X144349499Y-47590546D01*
X144355036Y-47625501D01*
X144363675Y-47680045D01*
X144363675Y-47680046D01*
X144377829Y-47769410D01*
X144433787Y-47941636D01*
X144433788Y-47941639D01*
X144516006Y-48102997D01*
X144622441Y-48249494D01*
X144622445Y-48249499D01*
X144757560Y-48384614D01*
X144757574Y-48384626D01*
X145243181Y-48870233D01*
X145276666Y-48931556D01*
X145279500Y-48957914D01*
X145279500Y-52470551D01*
X145307828Y-52649407D01*
X145307829Y-52649409D01*
X145322626Y-52694951D01*
X145323431Y-52697426D01*
X145329500Y-52735745D01*
X145329500Y-52866611D01*
X145356598Y-53037701D01*
X145410127Y-53202445D01*
X145488768Y-53356788D01*
X145590586Y-53496928D01*
X145713072Y-53619414D01*
X145853212Y-53721232D01*
X146007555Y-53799873D01*
X146172299Y-53853402D01*
X146343389Y-53880500D01*
X146343390Y-53880500D01*
X146516610Y-53880500D01*
X146516611Y-53880500D01*
X146687701Y-53853402D01*
X146852445Y-53799873D01*
X147006788Y-53721232D01*
X147146928Y-53619414D01*
X147269414Y-53496928D01*
X147371232Y-53356788D01*
X147449873Y-53202445D01*
X147503402Y-53037701D01*
X147530500Y-52866611D01*
X147530500Y-52735745D01*
X147536569Y-52697426D01*
X147552171Y-52649409D01*
X147563885Y-52575450D01*
X147580500Y-52470551D01*
X147580500Y-51893389D01*
X147869500Y-51893389D01*
X147869500Y-52866611D01*
X147896598Y-53037701D01*
X147950127Y-53202445D01*
X148028768Y-53356788D01*
X148130586Y-53496928D01*
X148253072Y-53619414D01*
X148393212Y-53721232D01*
X148547555Y-53799873D01*
X148712299Y-53853402D01*
X148883389Y-53880500D01*
X148883390Y-53880500D01*
X149056610Y-53880500D01*
X149056611Y-53880500D01*
X149227701Y-53853402D01*
X149392445Y-53799873D01*
X149546788Y-53721232D01*
X149686928Y-53619414D01*
X149809414Y-53496928D01*
X149911232Y-53356788D01*
X149989873Y-53202445D01*
X150043402Y-53037701D01*
X150070500Y-52866611D01*
X150070500Y-51893389D01*
X150409500Y-51893389D01*
X150409500Y-52866611D01*
X150436598Y-53037701D01*
X150490127Y-53202445D01*
X150568768Y-53356788D01*
X150670586Y-53496928D01*
X150793072Y-53619414D01*
X150933212Y-53721232D01*
X151087555Y-53799873D01*
X151252299Y-53853402D01*
X151423389Y-53880500D01*
X151423390Y-53880500D01*
X151596610Y-53880500D01*
X151596611Y-53880500D01*
X151767701Y-53853402D01*
X151932445Y-53799873D01*
X152086788Y-53721232D01*
X152226928Y-53619414D01*
X152349414Y-53496928D01*
X152451232Y-53356788D01*
X152529873Y-53202445D01*
X152583402Y-53037701D01*
X152610500Y-52866611D01*
X152610500Y-51893389D01*
X152583402Y-51722299D01*
X152529873Y-51557555D01*
X152451232Y-51403212D01*
X152349414Y-51263072D01*
X152226928Y-51140586D01*
X152086788Y-51038768D01*
X151932445Y-50960127D01*
X151767701Y-50906598D01*
X151767699Y-50906597D01*
X151767698Y-50906597D01*
X151636271Y-50885781D01*
X151596611Y-50879500D01*
X151423389Y-50879500D01*
X151383728Y-50885781D01*
X151252302Y-50906597D01*
X151087552Y-50960128D01*
X150933211Y-51038768D01*
X150867363Y-51086610D01*
X150793072Y-51140586D01*
X150793070Y-51140588D01*
X150793069Y-51140588D01*
X150670588Y-51263069D01*
X150670588Y-51263070D01*
X150670586Y-51263072D01*
X150633359Y-51314311D01*
X150568768Y-51403211D01*
X150490128Y-51557552D01*
X150436597Y-51722302D01*
X150418049Y-51839411D01*
X150409500Y-51893389D01*
X150070500Y-51893389D01*
X150043402Y-51722299D01*
X149989873Y-51557555D01*
X149911232Y-51403212D01*
X149809414Y-51263072D01*
X149686928Y-51140586D01*
X149546788Y-51038768D01*
X149392445Y-50960127D01*
X149227701Y-50906598D01*
X149227699Y-50906597D01*
X149227698Y-50906597D01*
X149096271Y-50885781D01*
X149056611Y-50879500D01*
X148883389Y-50879500D01*
X148843728Y-50885781D01*
X148712302Y-50906597D01*
X148547552Y-50960128D01*
X148393211Y-51038768D01*
X148327363Y-51086610D01*
X148253072Y-51140586D01*
X148253070Y-51140588D01*
X148253069Y-51140588D01*
X148130588Y-51263069D01*
X148130588Y-51263070D01*
X148130586Y-51263072D01*
X148093359Y-51314311D01*
X148028768Y-51403211D01*
X147950128Y-51557552D01*
X147896597Y-51722302D01*
X147878049Y-51839411D01*
X147869500Y-51893389D01*
X147580500Y-51893389D01*
X147580500Y-48525682D01*
X147580501Y-48525657D01*
X147580501Y-48339448D01*
X147552172Y-48160590D01*
X147525662Y-48079001D01*
X147496211Y-47988361D01*
X147496208Y-47988356D01*
X147496207Y-47988351D01*
X147413999Y-47827012D01*
X147413996Y-47827006D01*
X147407929Y-47818656D01*
X147307553Y-47680499D01*
X147179501Y-47552447D01*
X147175892Y-47548838D01*
X147175865Y-47548813D01*
X146686819Y-47059766D01*
X146653334Y-46998443D01*
X146650500Y-46972085D01*
X146650500Y-44261458D01*
X146670185Y-44194419D01*
X146722989Y-44148664D01*
X146792147Y-44138720D01*
X146847386Y-44161141D01*
X146923207Y-44216229D01*
X146923209Y-44216230D01*
X146923212Y-44216232D01*
X147077555Y-44294873D01*
X147242299Y-44348402D01*
X147413389Y-44375500D01*
X147472770Y-44375500D01*
X147539809Y-44395185D01*
X147560451Y-44411819D01*
X152622707Y-49474074D01*
X152622728Y-49474097D01*
X153017708Y-49869075D01*
X153017727Y-49869096D01*
X153847760Y-50699129D01*
X153881245Y-50760452D01*
X153876261Y-50830144D01*
X153834389Y-50886077D01*
X153796532Y-50903862D01*
X153796932Y-50905093D01*
X153792301Y-50906597D01*
X153792299Y-50906598D01*
X153741949Y-50922958D01*
X153627552Y-50960128D01*
X153473211Y-51038768D01*
X153407363Y-51086610D01*
X153333072Y-51140586D01*
X153333070Y-51140588D01*
X153333069Y-51140588D01*
X153210588Y-51263069D01*
X153210588Y-51263070D01*
X153210586Y-51263072D01*
X153173359Y-51314311D01*
X153108768Y-51403211D01*
X153030128Y-51557552D01*
X152976597Y-51722302D01*
X152958049Y-51839411D01*
X152949500Y-51893389D01*
X152949500Y-52866611D01*
X152976598Y-53037701D01*
X153030127Y-53202445D01*
X153108768Y-53356788D01*
X153210586Y-53496928D01*
X153333072Y-53619414D01*
X153473212Y-53721232D01*
X153627555Y-53799873D01*
X153792299Y-53853402D01*
X153963389Y-53880500D01*
X153963390Y-53880500D01*
X154136610Y-53880500D01*
X154136611Y-53880500D01*
X154307701Y-53853402D01*
X154472445Y-53799873D01*
X154626788Y-53721232D01*
X154766928Y-53619414D01*
X154889414Y-53496928D01*
X154991232Y-53356788D01*
X155069873Y-53202445D01*
X155123402Y-53037701D01*
X155150500Y-52866611D01*
X155150500Y-52301229D01*
X155156738Y-52279983D01*
X155158318Y-52257895D01*
X155166390Y-52247111D01*
X155170185Y-52234190D01*
X155186918Y-52219690D01*
X155200190Y-52201962D01*
X155212810Y-52197254D01*
X155222989Y-52188435D01*
X155244906Y-52185283D01*
X155265654Y-52177545D01*
X155278814Y-52180407D01*
X155292147Y-52178491D01*
X155312290Y-52187690D01*
X155333927Y-52192397D01*
X155351652Y-52205665D01*
X155355703Y-52207516D01*
X155362181Y-52213548D01*
X155453181Y-52304548D01*
X155486666Y-52365871D01*
X155489500Y-52392229D01*
X155489500Y-52866611D01*
X155516598Y-53037701D01*
X155570127Y-53202445D01*
X155648768Y-53356788D01*
X155750586Y-53496928D01*
X155873072Y-53619414D01*
X156013212Y-53721232D01*
X156167555Y-53799873D01*
X156332299Y-53853402D01*
X156503389Y-53880500D01*
X156503390Y-53880500D01*
X156676610Y-53880500D01*
X156676611Y-53880500D01*
X156847701Y-53853402D01*
X157012445Y-53799873D01*
X157166788Y-53721232D01*
X157306928Y-53619414D01*
X157429414Y-53496928D01*
X157531232Y-53356788D01*
X157609873Y-53202445D01*
X157663402Y-53037701D01*
X157690500Y-52866611D01*
X157690500Y-51893389D01*
X157663402Y-51722299D01*
X157609873Y-51557555D01*
X157531232Y-51403212D01*
X157429414Y-51263072D01*
X157306928Y-51140586D01*
X157166788Y-51038768D01*
X157012445Y-50960127D01*
X156847701Y-50906598D01*
X156847699Y-50906597D01*
X156847698Y-50906597D01*
X156716271Y-50885781D01*
X156676611Y-50879500D01*
X156503389Y-50879500D01*
X156446359Y-50888532D01*
X156332297Y-50906598D01*
X156288077Y-50920965D01*
X156218236Y-50922958D01*
X156162081Y-50890714D01*
X155233549Y-49962181D01*
X155200064Y-49900858D01*
X155205048Y-49831166D01*
X155246920Y-49775233D01*
X155312384Y-49750816D01*
X155321230Y-49750500D01*
X165117796Y-49750500D01*
X165142091Y-49757634D01*
X165167222Y-49760776D01*
X165178166Y-49768227D01*
X165184835Y-49770185D01*
X165197259Y-49779308D01*
X165201537Y-49782879D01*
X165258072Y-49839414D01*
X165344385Y-49902124D01*
X165347600Y-49904808D01*
X165364799Y-49930517D01*
X165383689Y-49955013D01*
X165384057Y-49959302D01*
X165386451Y-49962880D01*
X165387020Y-49993805D01*
X165389667Y-50024626D01*
X165387657Y-50028433D01*
X165387737Y-50032738D01*
X165371499Y-50059057D01*
X165357061Y-50086421D01*
X165351811Y-50090969D01*
X165351051Y-50092202D01*
X165349569Y-50092911D01*
X165341023Y-50100317D01*
X165258078Y-50160581D01*
X165258069Y-50160588D01*
X165135588Y-50283069D01*
X165135588Y-50283070D01*
X165135586Y-50283072D01*
X165091859Y-50343256D01*
X165033768Y-50423211D01*
X164955128Y-50577552D01*
X164901597Y-50742302D01*
X164874500Y-50913389D01*
X164874500Y-51086610D01*
X164901598Y-51257704D01*
X164919991Y-51314313D01*
X164921986Y-51384154D01*
X164889741Y-51440311D01*
X163494724Y-52835328D01*
X163442566Y-52913390D01*
X163423535Y-52941871D01*
X163374499Y-53060255D01*
X163374497Y-53060261D01*
X163349500Y-53185928D01*
X163349500Y-53185931D01*
X163349500Y-58064069D01*
X163356747Y-58100500D01*
X163374499Y-58189744D01*
X163423535Y-58308127D01*
X163494723Y-58414669D01*
X163494726Y-58414673D01*
X163494727Y-58414674D01*
X168438181Y-63358127D01*
X168471666Y-63419450D01*
X168474500Y-63445808D01*
X168474500Y-66139602D01*
X168454815Y-66206641D01*
X168402011Y-66252396D01*
X168332853Y-66262340D01*
X168269297Y-66233315D01*
X168231523Y-66174537D01*
X168227280Y-66153485D01*
X168219057Y-66080505D01*
X168219054Y-66080487D01*
X168156560Y-65806682D01*
X168156556Y-65806670D01*
X168133465Y-65740680D01*
X168063801Y-65541592D01*
X167941945Y-65288555D01*
X167792523Y-65050752D01*
X167617416Y-64831175D01*
X167418825Y-64632584D01*
X167199248Y-64457477D01*
X166961445Y-64308055D01*
X166958528Y-64306222D01*
X166912237Y-64253887D01*
X166900500Y-64201228D01*
X166900500Y-63345682D01*
X166900501Y-63345657D01*
X166900501Y-63159448D01*
X166872172Y-62980590D01*
X166816209Y-62808356D01*
X166766262Y-62710331D01*
X166733996Y-62647006D01*
X166722293Y-62630898D01*
X166627559Y-62500506D01*
X166627555Y-62500502D01*
X166627553Y-62500499D01*
X166499501Y-62372447D01*
X166499500Y-62372446D01*
X166496389Y-62369335D01*
X166496374Y-62369321D01*
X160316819Y-56189766D01*
X160283334Y-56128443D01*
X160280500Y-56102085D01*
X160280500Y-54460553D01*
X160280501Y-54460547D01*
X160280501Y-54279454D01*
X160280500Y-54279447D01*
X160280500Y-52289454D01*
X160280500Y-52289448D01*
X160252171Y-52110590D01*
X160236569Y-52062572D01*
X160230500Y-52024254D01*
X160230500Y-51893389D01*
X160203402Y-51722302D01*
X160203402Y-51722299D01*
X160149873Y-51557555D01*
X160071232Y-51403212D01*
X159969414Y-51263072D01*
X159846928Y-51140586D01*
X159706788Y-51038768D01*
X159552445Y-50960127D01*
X159387701Y-50906598D01*
X159387699Y-50906597D01*
X159387698Y-50906597D01*
X159256271Y-50885781D01*
X159216611Y-50879500D01*
X159043389Y-50879500D01*
X159003728Y-50885781D01*
X158872302Y-50906597D01*
X158707552Y-50960128D01*
X158553211Y-51038768D01*
X158487363Y-51086610D01*
X158413072Y-51140586D01*
X158413070Y-51140588D01*
X158413069Y-51140588D01*
X158290588Y-51263069D01*
X158290588Y-51263070D01*
X158290586Y-51263072D01*
X158253359Y-51314311D01*
X158188768Y-51403211D01*
X158110128Y-51557552D01*
X158056597Y-51722302D01*
X158029500Y-51893389D01*
X158029500Y-52024254D01*
X158023431Y-52062572D01*
X158007828Y-52110590D01*
X157979500Y-52289448D01*
X157979500Y-53842085D01*
X157959815Y-53909124D01*
X157943181Y-53929766D01*
X157559766Y-54313181D01*
X157498443Y-54346666D01*
X157472085Y-54349500D01*
X134527915Y-54349500D01*
X134460876Y-54329815D01*
X134440234Y-54313181D01*
X134226819Y-54099766D01*
X134193334Y-54038443D01*
X134190500Y-54012085D01*
X134190500Y-52289448D01*
X134162171Y-52110590D01*
X134146569Y-52062572D01*
X134146200Y-52060242D01*
X134145523Y-52059189D01*
X134140500Y-52024254D01*
X134140500Y-51893389D01*
X140249500Y-51893389D01*
X140249500Y-52866611D01*
X140276598Y-53037701D01*
X140330127Y-53202445D01*
X140408768Y-53356788D01*
X140510586Y-53496928D01*
X140633072Y-53619414D01*
X140773212Y-53721232D01*
X140927555Y-53799873D01*
X141092299Y-53853402D01*
X141263389Y-53880500D01*
X141263390Y-53880500D01*
X141436610Y-53880500D01*
X141436611Y-53880500D01*
X141607701Y-53853402D01*
X141772445Y-53799873D01*
X141926788Y-53721232D01*
X142066928Y-53619414D01*
X142189414Y-53496928D01*
X142291232Y-53356788D01*
X142369873Y-53202445D01*
X142423402Y-53037701D01*
X142450500Y-52866611D01*
X142450500Y-51893389D01*
X142789500Y-51893389D01*
X142789500Y-52866611D01*
X142816598Y-53037701D01*
X142870127Y-53202445D01*
X142948768Y-53356788D01*
X143050586Y-53496928D01*
X143173072Y-53619414D01*
X143313212Y-53721232D01*
X143467555Y-53799873D01*
X143632299Y-53853402D01*
X143803389Y-53880500D01*
X143803390Y-53880500D01*
X143976610Y-53880500D01*
X143976611Y-53880500D01*
X144147701Y-53853402D01*
X144312445Y-53799873D01*
X144466788Y-53721232D01*
X144606928Y-53619414D01*
X144729414Y-53496928D01*
X144831232Y-53356788D01*
X144909873Y-53202445D01*
X144963402Y-53037701D01*
X144990500Y-52866611D01*
X144990500Y-51893389D01*
X144963402Y-51722299D01*
X144909873Y-51557555D01*
X144831232Y-51403212D01*
X144729414Y-51263072D01*
X144606928Y-51140586D01*
X144466788Y-51038768D01*
X144312445Y-50960127D01*
X144147701Y-50906598D01*
X144147699Y-50906597D01*
X144147698Y-50906597D01*
X144016271Y-50885781D01*
X143976611Y-50879500D01*
X143803389Y-50879500D01*
X143763728Y-50885781D01*
X143632302Y-50906597D01*
X143467552Y-50960128D01*
X143313211Y-51038768D01*
X143247363Y-51086610D01*
X143173072Y-51140586D01*
X143173070Y-51140588D01*
X143173069Y-51140588D01*
X143050588Y-51263069D01*
X143050588Y-51263070D01*
X143050586Y-51263072D01*
X143013359Y-51314311D01*
X142948768Y-51403211D01*
X142870128Y-51557552D01*
X142816597Y-51722302D01*
X142798049Y-51839411D01*
X142789500Y-51893389D01*
X142450500Y-51893389D01*
X142423402Y-51722299D01*
X142369873Y-51557555D01*
X142291232Y-51403212D01*
X142189414Y-51263072D01*
X142066928Y-51140586D01*
X141926788Y-51038768D01*
X141772445Y-50960127D01*
X141607701Y-50906598D01*
X141607699Y-50906597D01*
X141607698Y-50906597D01*
X141476271Y-50885781D01*
X141436611Y-50879500D01*
X141263389Y-50879500D01*
X141223728Y-50885781D01*
X141092302Y-50906597D01*
X140927552Y-50960128D01*
X140773211Y-51038768D01*
X140707363Y-51086610D01*
X140633072Y-51140586D01*
X140633070Y-51140588D01*
X140633069Y-51140588D01*
X140510588Y-51263069D01*
X140510588Y-51263070D01*
X140510586Y-51263072D01*
X140473359Y-51314311D01*
X140408768Y-51403211D01*
X140330128Y-51557552D01*
X140276597Y-51722302D01*
X140258049Y-51839411D01*
X140249500Y-51893389D01*
X134140500Y-51893389D01*
X134113402Y-51722302D01*
X134113402Y-51722299D01*
X134059873Y-51557555D01*
X133981232Y-51403212D01*
X133879414Y-51263072D01*
X133756928Y-51140586D01*
X133616788Y-51038768D01*
X133462445Y-50960127D01*
X133297701Y-50906598D01*
X133297699Y-50906597D01*
X133297698Y-50906597D01*
X133166271Y-50885781D01*
X133126611Y-50879500D01*
X132953389Y-50879500D01*
X132913728Y-50885781D01*
X132782302Y-50906597D01*
X132617552Y-50960128D01*
X132463211Y-51038768D01*
X132397363Y-51086610D01*
X132323072Y-51140586D01*
X132323070Y-51140588D01*
X132323069Y-51140588D01*
X132200588Y-51263069D01*
X132200588Y-51263070D01*
X132200586Y-51263072D01*
X132163359Y-51314311D01*
X132098768Y-51403211D01*
X132020128Y-51557552D01*
X131966597Y-51722302D01*
X131939500Y-51893389D01*
X131939500Y-52024254D01*
X131933431Y-52062572D01*
X131917828Y-52110590D01*
X131889500Y-52289448D01*
X131889500Y-54445038D01*
X131889499Y-54445053D01*
X131889499Y-54630545D01*
X131913343Y-54781087D01*
X131917829Y-54809410D01*
X131973787Y-54981636D01*
X131973788Y-54981639D01*
X132056006Y-55142997D01*
X132162440Y-55289493D01*
X132162444Y-55289497D01*
X132162447Y-55289501D01*
X132242324Y-55369378D01*
X132294829Y-55421883D01*
X132294840Y-55421893D01*
X133119321Y-56246374D01*
X133119335Y-56246389D01*
X133122446Y-56249500D01*
X133122447Y-56249501D01*
X133250499Y-56377553D01*
X133250502Y-56377555D01*
X133250503Y-56377556D01*
X133313339Y-56423209D01*
X133313341Y-56423210D01*
X133313344Y-56423212D01*
X133397006Y-56483996D01*
X133476145Y-56524319D01*
X133558360Y-56566211D01*
X133558363Y-56566212D01*
X133644476Y-56594191D01*
X133730591Y-56622171D01*
X133909454Y-56650501D01*
X133909455Y-56650501D01*
X134095657Y-56650501D01*
X134095681Y-56650500D01*
X156409454Y-56650500D01*
X157472085Y-56650500D01*
X157539124Y-56670185D01*
X157559766Y-56686819D01*
X158252444Y-57379497D01*
X158252447Y-57379501D01*
X158380499Y-57507553D01*
X158380502Y-57507555D01*
X164563181Y-63690234D01*
X164596666Y-63751557D01*
X164599500Y-63777915D01*
X164599500Y-64201228D01*
X164579815Y-64268267D01*
X164541472Y-64306222D01*
X164300753Y-64457476D01*
X164081175Y-64632583D01*
X163882583Y-64831175D01*
X163707476Y-65050753D01*
X163558053Y-65288557D01*
X163436200Y-65541588D01*
X163343443Y-65806670D01*
X163343439Y-65806682D01*
X163280945Y-66080487D01*
X163280942Y-66080505D01*
X163249500Y-66359568D01*
X163249500Y-66640431D01*
X163280942Y-66919494D01*
X163280945Y-66919512D01*
X163343439Y-67193317D01*
X163343443Y-67193329D01*
X163436200Y-67458411D01*
X163558053Y-67711442D01*
X163558055Y-67711445D01*
X163707477Y-67949248D01*
X163795951Y-68060191D01*
X163865874Y-68147872D01*
X163882584Y-68168825D01*
X164081175Y-68367416D01*
X164300752Y-68542523D01*
X164538555Y-68691945D01*
X164791592Y-68813801D01*
X164865784Y-68839762D01*
X164919216Y-68858459D01*
X164975992Y-68899181D01*
X165001739Y-68964133D01*
X164988283Y-69032695D01*
X164939895Y-69083098D01*
X164878261Y-69099500D01*
X164545260Y-69099500D01*
X164412017Y-69109987D01*
X164191997Y-69165426D01*
X163985420Y-69259258D01*
X163985410Y-69259263D01*
X163798909Y-69388473D01*
X163638473Y-69548909D01*
X163509263Y-69735410D01*
X163509258Y-69735420D01*
X163415426Y-69941997D01*
X163359987Y-70162017D01*
X163356191Y-70210255D01*
X163349500Y-70295264D01*
X163349500Y-72704736D01*
X163359987Y-72837983D01*
X163369176Y-72874450D01*
X163415426Y-73058002D01*
X163509258Y-73264579D01*
X163509263Y-73264589D01*
X163638473Y-73451090D01*
X163798909Y-73611526D01*
X163985410Y-73740736D01*
X163985420Y-73740741D01*
X164191997Y-73834573D01*
X164191998Y-73834573D01*
X164192000Y-73834574D01*
X164412017Y-73890013D01*
X164545264Y-73900500D01*
X164545270Y-73900500D01*
X166954730Y-73900500D01*
X166954736Y-73900500D01*
X167087983Y-73890013D01*
X167308000Y-73834574D01*
X167514582Y-73740740D01*
X167514584Y-73740738D01*
X167514589Y-73740736D01*
X167701090Y-73611526D01*
X167861526Y-73451090D01*
X167990736Y-73264589D01*
X167990741Y-73264579D01*
X168084573Y-73058002D01*
X168084574Y-73058000D01*
X168140013Y-72837983D01*
X168150500Y-72704736D01*
X168150500Y-70295264D01*
X168140013Y-70162017D01*
X168084574Y-69942000D01*
X168049749Y-69865331D01*
X167990741Y-69735420D01*
X167990736Y-69735410D01*
X167861526Y-69548909D01*
X167701090Y-69388473D01*
X167514589Y-69259263D01*
X167514579Y-69259258D01*
X167308002Y-69165426D01*
X167155898Y-69127100D01*
X167087983Y-69109987D01*
X167054671Y-69107365D01*
X166954739Y-69099500D01*
X166954736Y-69099500D01*
X166621739Y-69099500D01*
X166554700Y-69079815D01*
X166508945Y-69027011D01*
X166499001Y-68957853D01*
X166528026Y-68894297D01*
X166580784Y-68858459D01*
X166620692Y-68844494D01*
X166708408Y-68813801D01*
X166961445Y-68691945D01*
X167199248Y-68542523D01*
X167418825Y-68367416D01*
X167617416Y-68168825D01*
X167792523Y-67949248D01*
X167941945Y-67711445D01*
X168063801Y-67458408D01*
X168156560Y-67193318D01*
X168219055Y-66919509D01*
X168219057Y-66919494D01*
X168227280Y-66846514D01*
X168254346Y-66782100D01*
X168311941Y-66742544D01*
X168381778Y-66740407D01*
X168441684Y-66776365D01*
X168472640Y-66839003D01*
X168474500Y-66860397D01*
X168474500Y-77554192D01*
X168454815Y-77621231D01*
X168438181Y-77641873D01*
X159766873Y-86313181D01*
X159705550Y-86346666D01*
X159679192Y-86349500D01*
X146935929Y-86349500D01*
X146810261Y-86374497D01*
X146810255Y-86374499D01*
X146691875Y-86423533D01*
X146691866Y-86423538D01*
X146585331Y-86494723D01*
X146585327Y-86494726D01*
X143116873Y-89963181D01*
X143055550Y-89996666D01*
X143029192Y-89999500D01*
X142993389Y-89999500D01*
X142954250Y-90005699D01*
X142822302Y-90026597D01*
X142657552Y-90080128D01*
X142503211Y-90158768D01*
X142454543Y-90194128D01*
X142363072Y-90260586D01*
X142363070Y-90260588D01*
X142363069Y-90260588D01*
X142240588Y-90383069D01*
X142240588Y-90383070D01*
X142240586Y-90383072D01*
X142196859Y-90443256D01*
X142138768Y-90523211D01*
X142060128Y-90677552D01*
X142006597Y-90842302D01*
X141985700Y-90974246D01*
X141979500Y-91013389D01*
X141979500Y-91986611D01*
X141987677Y-92038239D01*
X142006579Y-92157585D01*
X142006598Y-92157701D01*
X142060127Y-92322445D01*
X142138768Y-92476788D01*
X142240586Y-92616928D01*
X142363072Y-92739414D01*
X142503212Y-92841232D01*
X142657555Y-92919873D01*
X142822299Y-92973402D01*
X142993389Y-93000500D01*
X142993390Y-93000500D01*
X143166610Y-93000500D01*
X143166611Y-93000500D01*
X143337701Y-92973402D01*
X143502445Y-92919873D01*
X143656788Y-92841232D01*
X143796928Y-92739414D01*
X143919414Y-92616928D01*
X144021232Y-92476788D01*
X144099873Y-92322445D01*
X144153402Y-92157701D01*
X144180500Y-91986611D01*
X144180500Y-91013389D01*
X144153402Y-90842299D01*
X144153401Y-90842296D01*
X144152927Y-90839303D01*
X144161881Y-90770010D01*
X144187716Y-90732227D01*
X144418164Y-90501779D01*
X144479485Y-90468296D01*
X144549177Y-90473280D01*
X144605110Y-90515152D01*
X144629527Y-90580616D01*
X144616329Y-90645755D01*
X144600128Y-90677551D01*
X144546597Y-90842302D01*
X144525700Y-90974246D01*
X144519500Y-91013389D01*
X144519500Y-91986611D01*
X144527677Y-92038239D01*
X144546579Y-92157585D01*
X144546598Y-92157701D01*
X144600127Y-92322445D01*
X144678768Y-92476788D01*
X144780586Y-92616928D01*
X144903072Y-92739414D01*
X145043212Y-92841232D01*
X145197555Y-92919873D01*
X145362299Y-92973402D01*
X145533389Y-93000500D01*
X145533390Y-93000500D01*
X145706610Y-93000500D01*
X145706611Y-93000500D01*
X145877701Y-92973402D01*
X146042445Y-92919873D01*
X146196788Y-92841232D01*
X146336928Y-92739414D01*
X146459414Y-92616928D01*
X146561232Y-92476788D01*
X146639873Y-92322445D01*
X146693402Y-92157701D01*
X146720500Y-91986611D01*
X146720500Y-91370807D01*
X146729144Y-91341366D01*
X146735668Y-91311380D01*
X146739422Y-91306364D01*
X146740185Y-91303768D01*
X146756815Y-91283130D01*
X146847820Y-91192125D01*
X146909142Y-91158641D01*
X146978834Y-91163625D01*
X147034767Y-91205497D01*
X147059184Y-91270961D01*
X147059500Y-91279807D01*
X147059500Y-91986611D01*
X147067677Y-92038239D01*
X147086579Y-92157585D01*
X147086598Y-92157701D01*
X147140127Y-92322445D01*
X147218768Y-92476788D01*
X147320586Y-92616928D01*
X147443072Y-92739414D01*
X147583212Y-92841232D01*
X147737555Y-92919873D01*
X147902299Y-92973402D01*
X148073389Y-93000500D01*
X148073390Y-93000500D01*
X148246610Y-93000500D01*
X148246611Y-93000500D01*
X148417701Y-92973402D01*
X148582445Y-92919873D01*
X148736788Y-92841232D01*
X148876928Y-92739414D01*
X148999414Y-92616928D01*
X149101232Y-92476788D01*
X149179873Y-92322445D01*
X149233402Y-92157701D01*
X149260500Y-91986611D01*
X149260500Y-91013389D01*
X149233402Y-90842299D01*
X149179873Y-90677555D01*
X149101232Y-90523212D01*
X148999414Y-90383072D01*
X148876928Y-90260586D01*
X148736788Y-90158768D01*
X148582445Y-90080127D01*
X148417701Y-90026598D01*
X148417699Y-90026597D01*
X148417697Y-90026597D01*
X148309000Y-90009381D01*
X148245865Y-89979452D01*
X148208934Y-89920140D01*
X148209932Y-89850277D01*
X148240715Y-89799230D01*
X148853127Y-89186819D01*
X148914450Y-89153334D01*
X148940808Y-89150500D01*
X160564071Y-89150500D01*
X160648615Y-89133682D01*
X160689744Y-89125501D01*
X160808127Y-89076465D01*
X160826679Y-89064069D01*
X160914669Y-89005277D01*
X171005277Y-78914669D01*
X171076466Y-78808126D01*
X171105189Y-78738779D01*
X171125501Y-78689744D01*
X171131505Y-78659559D01*
X171150500Y-78564071D01*
X171150500Y-57185928D01*
X171125502Y-57060261D01*
X171125501Y-57060260D01*
X171125501Y-57060256D01*
X171098356Y-56994723D01*
X171098356Y-56994722D01*
X171076469Y-56941880D01*
X171076467Y-56941877D01*
X171076466Y-56941874D01*
X171005277Y-56835331D01*
X171005272Y-56835325D01*
X167610257Y-53440311D01*
X167576772Y-53378988D01*
X167580006Y-53314314D01*
X167598402Y-53257701D01*
X167625500Y-53086611D01*
X167625500Y-52913389D01*
X167598402Y-52742299D01*
X167544873Y-52577555D01*
X167466232Y-52423212D01*
X167364414Y-52283072D01*
X167241928Y-52160586D01*
X167158975Y-52100317D01*
X167116311Y-52044988D01*
X167110332Y-51975374D01*
X167142938Y-51913579D01*
X167158976Y-51899682D01*
X167241928Y-51839414D01*
X167364414Y-51716928D01*
X167466232Y-51576788D01*
X167544873Y-51422445D01*
X167598402Y-51257701D01*
X167625500Y-51086611D01*
X167625500Y-50913389D01*
X167598402Y-50742299D01*
X167544873Y-50577555D01*
X167466232Y-50423212D01*
X167364414Y-50283072D01*
X167241928Y-50160586D01*
X167158975Y-50100317D01*
X167116311Y-50044988D01*
X167110332Y-49975374D01*
X167142938Y-49913579D01*
X167158976Y-49899682D01*
X167241928Y-49839414D01*
X167364414Y-49716928D01*
X167466232Y-49576788D01*
X167544873Y-49422445D01*
X167598402Y-49257701D01*
X167625500Y-49086611D01*
X167625500Y-48913389D01*
X167598402Y-48742299D01*
X167544873Y-48577555D01*
X167466232Y-48423212D01*
X167364414Y-48283072D01*
X167256871Y-48175529D01*
X167223387Y-48114207D01*
X167228371Y-48044515D01*
X167270243Y-47988582D01*
X167279457Y-47982310D01*
X167343656Y-47942712D01*
X167467712Y-47818656D01*
X167559814Y-47669334D01*
X167614999Y-47502797D01*
X167625500Y-47400009D01*
X167625499Y-46599992D01*
X167625176Y-46596834D01*
X167614999Y-46497203D01*
X167614998Y-46497200D01*
X167608807Y-46478517D01*
X167559814Y-46330666D01*
X167467712Y-46181344D01*
X167343656Y-46057288D01*
X167194334Y-45965186D01*
X167027797Y-45910001D01*
X167027795Y-45910000D01*
X166925010Y-45899500D01*
X165574998Y-45899500D01*
X165574981Y-45899501D01*
X165472203Y-45910000D01*
X165472200Y-45910001D01*
X165305668Y-45965185D01*
X165305663Y-45965187D01*
X165156342Y-46057289D01*
X165032289Y-46181342D01*
X164940187Y-46330663D01*
X164940186Y-46330666D01*
X164885001Y-46497203D01*
X164885001Y-46497204D01*
X164885000Y-46497204D01*
X164874500Y-46599983D01*
X164874500Y-47400001D01*
X164874501Y-47400019D01*
X164885000Y-47502796D01*
X164885001Y-47502799D01*
X164940185Y-47669331D01*
X164940187Y-47669336D01*
X164975069Y-47725888D01*
X165032288Y-47818656D01*
X165156344Y-47942712D01*
X165220543Y-47982310D01*
X165236096Y-47999602D01*
X165254712Y-48013537D01*
X165259020Y-48025089D01*
X165267268Y-48034258D01*
X165271002Y-48057212D01*
X165279130Y-48079001D01*
X165276508Y-48091051D01*
X165278489Y-48103221D01*
X165269222Y-48124548D01*
X165264279Y-48147274D01*
X165252527Y-48162972D01*
X165250646Y-48167303D01*
X165243128Y-48175529D01*
X165205478Y-48213180D01*
X165144156Y-48246666D01*
X165117796Y-48249500D01*
X153572229Y-48249500D01*
X153505190Y-48229815D01*
X153484548Y-48213181D01*
X151633548Y-46362181D01*
X151600063Y-46300858D01*
X151605047Y-46231166D01*
X151646919Y-46175233D01*
X151712383Y-46150816D01*
X151721229Y-46150500D01*
X157064071Y-46150500D01*
X157148615Y-46133682D01*
X157189744Y-46125501D01*
X157308127Y-46076465D01*
X157414669Y-46005277D01*
X158005277Y-45414669D01*
X158076465Y-45308127D01*
X158125501Y-45189743D01*
X158138942Y-45122173D01*
X158150500Y-45064071D01*
X158150500Y-41935928D01*
X158125502Y-41810261D01*
X158125501Y-41810260D01*
X158125501Y-41810256D01*
X158076465Y-41691873D01*
X158061921Y-41670106D01*
X158058565Y-41665083D01*
X158058564Y-41665083D01*
X158005277Y-41585331D01*
X156285132Y-39865186D01*
X165099500Y-39865186D01*
X165099500Y-40134813D01*
X165129686Y-40402719D01*
X165129688Y-40402731D01*
X165189684Y-40665594D01*
X165189687Y-40665602D01*
X165278734Y-40920082D01*
X165395714Y-41162994D01*
X165410684Y-41186819D01*
X165539162Y-41391289D01*
X165648468Y-41528354D01*
X165693903Y-41585329D01*
X165707266Y-41602085D01*
X165897915Y-41792734D01*
X166108711Y-41960838D01*
X166337003Y-42104284D01*
X166337005Y-42104285D01*
X166349840Y-42110466D01*
X166579921Y-42221267D01*
X166717609Y-42269446D01*
X166834397Y-42310312D01*
X166834405Y-42310315D01*
X166834408Y-42310315D01*
X166834409Y-42310316D01*
X167097268Y-42370312D01*
X167365187Y-42400499D01*
X167365188Y-42400500D01*
X167365191Y-42400500D01*
X167634812Y-42400500D01*
X167634812Y-42400499D01*
X167902732Y-42370312D01*
X168165591Y-42310316D01*
X168420079Y-42221267D01*
X168662997Y-42104284D01*
X168891289Y-41960838D01*
X169102085Y-41792734D01*
X169292734Y-41602085D01*
X169460838Y-41391289D01*
X169604284Y-41162997D01*
X169721267Y-40920079D01*
X169810316Y-40665591D01*
X169870312Y-40402732D01*
X169900500Y-40134809D01*
X169900500Y-39865191D01*
X169870312Y-39597268D01*
X169810316Y-39334409D01*
X169721267Y-39079921D01*
X169604284Y-38837003D01*
X169460838Y-38608711D01*
X169292734Y-38397915D01*
X169102085Y-38207266D01*
X168891289Y-38039162D01*
X168662997Y-37895716D01*
X168662994Y-37895714D01*
X168420082Y-37778734D01*
X168165602Y-37689687D01*
X168165594Y-37689684D01*
X167968446Y-37644687D01*
X167902732Y-37629688D01*
X167902728Y-37629687D01*
X167902719Y-37629686D01*
X167634813Y-37599500D01*
X167634809Y-37599500D01*
X167365191Y-37599500D01*
X167365186Y-37599500D01*
X167097280Y-37629686D01*
X167097268Y-37629688D01*
X166834405Y-37689684D01*
X166834397Y-37689687D01*
X166579917Y-37778734D01*
X166337005Y-37895714D01*
X166108712Y-38039161D01*
X165897915Y-38207265D01*
X165707265Y-38397915D01*
X165539161Y-38608712D01*
X165395714Y-38837005D01*
X165278734Y-39079917D01*
X165189687Y-39334397D01*
X165189684Y-39334405D01*
X165129688Y-39597268D01*
X165129686Y-39597280D01*
X165099500Y-39865186D01*
X156285132Y-39865186D01*
X154914669Y-38494723D01*
X153414674Y-36994727D01*
X153414673Y-36994726D01*
X153308134Y-36923540D01*
X153308127Y-36923535D01*
X153189744Y-36874499D01*
X153189738Y-36874497D01*
X153064071Y-36849500D01*
X153064069Y-36849500D01*
X110935931Y-36849500D01*
X110935929Y-36849500D01*
X110810261Y-36874497D01*
X110810251Y-36874500D01*
X110761220Y-36894810D01*
X110691881Y-36923530D01*
X110691863Y-36923540D01*
X110585332Y-36994721D01*
X110585325Y-36994727D01*
X100494726Y-47085326D01*
X100424969Y-47189728D01*
X100424959Y-47189743D01*
X100423534Y-47191873D01*
X100374499Y-47310255D01*
X100374497Y-47310261D01*
X100349500Y-47435928D01*
X97750500Y-47435928D01*
X97750500Y-39865186D01*
X100099500Y-39865186D01*
X100099500Y-40134813D01*
X100129686Y-40402719D01*
X100129688Y-40402731D01*
X100189684Y-40665594D01*
X100189687Y-40665602D01*
X100278734Y-40920082D01*
X100395714Y-41162994D01*
X100410684Y-41186819D01*
X100539162Y-41391289D01*
X100648468Y-41528354D01*
X100693903Y-41585329D01*
X100707266Y-41602085D01*
X100897915Y-41792734D01*
X101108711Y-41960838D01*
X101337003Y-42104284D01*
X101337005Y-42104285D01*
X101349840Y-42110466D01*
X101579921Y-42221267D01*
X101717609Y-42269446D01*
X101834397Y-42310312D01*
X101834405Y-42310315D01*
X101834408Y-42310315D01*
X101834409Y-42310316D01*
X102097268Y-42370312D01*
X102365187Y-42400499D01*
X102365188Y-42400500D01*
X102365191Y-42400500D01*
X102634812Y-42400500D01*
X102634812Y-42400499D01*
X102902732Y-42370312D01*
X103165591Y-42310316D01*
X103420079Y-42221267D01*
X103662997Y-42104284D01*
X103891289Y-41960838D01*
X104102085Y-41792734D01*
X104292734Y-41602085D01*
X104460838Y-41391289D01*
X104604284Y-41162997D01*
X104721267Y-40920079D01*
X104810316Y-40665591D01*
X104870312Y-40402732D01*
X104900500Y-40134809D01*
X104900500Y-39865191D01*
X104870312Y-39597268D01*
X104810316Y-39334409D01*
X104721267Y-39079921D01*
X104604284Y-38837003D01*
X104460838Y-38608711D01*
X104292734Y-38397915D01*
X104102085Y-38207266D01*
X103891289Y-38039162D01*
X103662997Y-37895716D01*
X103662994Y-37895714D01*
X103420082Y-37778734D01*
X103165602Y-37689687D01*
X103165594Y-37689684D01*
X102968446Y-37644687D01*
X102902732Y-37629688D01*
X102902728Y-37629687D01*
X102902719Y-37629686D01*
X102634813Y-37599500D01*
X102634809Y-37599500D01*
X102365191Y-37599500D01*
X102365186Y-37599500D01*
X102097280Y-37629686D01*
X102097268Y-37629688D01*
X101834405Y-37689684D01*
X101834397Y-37689687D01*
X101579917Y-37778734D01*
X101337005Y-37895714D01*
X101108712Y-38039161D01*
X100897915Y-38207265D01*
X100707265Y-38397915D01*
X100539161Y-38608712D01*
X100395714Y-38837005D01*
X100278734Y-39079917D01*
X100189687Y-39334397D01*
X100189684Y-39334405D01*
X100129688Y-39597268D01*
X100129686Y-39597280D01*
X100099500Y-39865186D01*
X97750500Y-39865186D01*
X97750500Y-35361011D01*
X97770185Y-35293972D01*
X97822989Y-35248217D01*
X97874500Y-35237011D01*
X172125500Y-35237011D01*
X172192539Y-35256696D01*
G37*
%TD.AperFunction*%
%TD*%
M02*
