%TF.GenerationSoftware,KiCad,Pcbnew,9.0.5*%
%TF.CreationDate,2025-11-06T21:20:33+00:00*%
%TF.ProjectId,Board,426f6172-642e-46b6-9963-61645f706362,v1*%
%TF.SameCoordinates,Original*%
%TF.FileFunction,Legend,Top*%
%TF.FilePolarity,Positive*%
%FSLAX46Y46*%
G04 Gerber Fmt 4.6, Leading zero omitted, Abs format (unit mm)*
G04 Created by KiCad (PCBNEW 9.0.5) date 2025-11-06 21:20:33*
%MOMM*%
%LPD*%
G01*
G04 APERTURE LIST*
%ADD10C,0.150000*%
%ADD11C,0.120000*%
%ADD12C,0.000000*%
G04 APERTURE END LIST*
D10*
X113290873Y-140057289D02*
X112957540Y-139581098D01*
X112719445Y-140057289D02*
X112719445Y-139057289D01*
X112719445Y-139057289D02*
X113100397Y-139057289D01*
X113100397Y-139057289D02*
X113195635Y-139104908D01*
X113195635Y-139104908D02*
X113243254Y-139152527D01*
X113243254Y-139152527D02*
X113290873Y-139247765D01*
X113290873Y-139247765D02*
X113290873Y-139390622D01*
X113290873Y-139390622D02*
X113243254Y-139485860D01*
X113243254Y-139485860D02*
X113195635Y-139533479D01*
X113195635Y-139533479D02*
X113100397Y-139581098D01*
X113100397Y-139581098D02*
X112719445Y-139581098D01*
X114243254Y-140057289D02*
X113671826Y-140057289D01*
X113957540Y-140057289D02*
X113957540Y-139057289D01*
X113957540Y-139057289D02*
X113862302Y-139200146D01*
X113862302Y-139200146D02*
X113767064Y-139295384D01*
X113767064Y-139295384D02*
X113671826Y-139343003D01*
X120417687Y-131144572D02*
X119941496Y-131477905D01*
X120417687Y-131716000D02*
X119417687Y-131716000D01*
X119417687Y-131716000D02*
X119417687Y-131335048D01*
X119417687Y-131335048D02*
X119465306Y-131239810D01*
X119465306Y-131239810D02*
X119512925Y-131192191D01*
X119512925Y-131192191D02*
X119608163Y-131144572D01*
X119608163Y-131144572D02*
X119751020Y-131144572D01*
X119751020Y-131144572D02*
X119846258Y-131192191D01*
X119846258Y-131192191D02*
X119893877Y-131239810D01*
X119893877Y-131239810D02*
X119941496Y-131335048D01*
X119941496Y-131335048D02*
X119941496Y-131716000D01*
X120370068Y-130763619D02*
X120417687Y-130620762D01*
X120417687Y-130620762D02*
X120417687Y-130382667D01*
X120417687Y-130382667D02*
X120370068Y-130287429D01*
X120370068Y-130287429D02*
X120322448Y-130239810D01*
X120322448Y-130239810D02*
X120227210Y-130192191D01*
X120227210Y-130192191D02*
X120131972Y-130192191D01*
X120131972Y-130192191D02*
X120036734Y-130239810D01*
X120036734Y-130239810D02*
X119989115Y-130287429D01*
X119989115Y-130287429D02*
X119941496Y-130382667D01*
X119941496Y-130382667D02*
X119893877Y-130573143D01*
X119893877Y-130573143D02*
X119846258Y-130668381D01*
X119846258Y-130668381D02*
X119798639Y-130716000D01*
X119798639Y-130716000D02*
X119703401Y-130763619D01*
X119703401Y-130763619D02*
X119608163Y-130763619D01*
X119608163Y-130763619D02*
X119512925Y-130716000D01*
X119512925Y-130716000D02*
X119465306Y-130668381D01*
X119465306Y-130668381D02*
X119417687Y-130573143D01*
X119417687Y-130573143D02*
X119417687Y-130335048D01*
X119417687Y-130335048D02*
X119465306Y-130192191D01*
X120417687Y-129239810D02*
X120417687Y-129811238D01*
X120417687Y-129525524D02*
X119417687Y-129525524D01*
X119417687Y-129525524D02*
X119560544Y-129620762D01*
X119560544Y-129620762D02*
X119655782Y-129716000D01*
X119655782Y-129716000D02*
X119703401Y-129811238D01*
X161924819Y-61238094D02*
X160924819Y-61238094D01*
X160924819Y-61238094D02*
X160924819Y-60999999D01*
X160924819Y-60999999D02*
X160972438Y-60857142D01*
X160972438Y-60857142D02*
X161067676Y-60761904D01*
X161067676Y-60761904D02*
X161162914Y-60714285D01*
X161162914Y-60714285D02*
X161353390Y-60666666D01*
X161353390Y-60666666D02*
X161496247Y-60666666D01*
X161496247Y-60666666D02*
X161686723Y-60714285D01*
X161686723Y-60714285D02*
X161781961Y-60761904D01*
X161781961Y-60761904D02*
X161877200Y-60857142D01*
X161877200Y-60857142D02*
X161924819Y-60999999D01*
X161924819Y-60999999D02*
X161924819Y-61238094D01*
X161924819Y-59666666D02*
X161448628Y-59999999D01*
X161924819Y-60238094D02*
X160924819Y-60238094D01*
X160924819Y-60238094D02*
X160924819Y-59857142D01*
X160924819Y-59857142D02*
X160972438Y-59761904D01*
X160972438Y-59761904D02*
X161020057Y-59714285D01*
X161020057Y-59714285D02*
X161115295Y-59666666D01*
X161115295Y-59666666D02*
X161258152Y-59666666D01*
X161258152Y-59666666D02*
X161353390Y-59714285D01*
X161353390Y-59714285D02*
X161401009Y-59761904D01*
X161401009Y-59761904D02*
X161448628Y-59857142D01*
X161448628Y-59857142D02*
X161448628Y-60238094D01*
X161020057Y-59285713D02*
X160972438Y-59238094D01*
X160972438Y-59238094D02*
X160924819Y-59142856D01*
X160924819Y-59142856D02*
X160924819Y-58904761D01*
X160924819Y-58904761D02*
X160972438Y-58809523D01*
X160972438Y-58809523D02*
X161020057Y-58761904D01*
X161020057Y-58761904D02*
X161115295Y-58714285D01*
X161115295Y-58714285D02*
X161210533Y-58714285D01*
X161210533Y-58714285D02*
X161353390Y-58761904D01*
X161353390Y-58761904D02*
X161924819Y-59333332D01*
X161924819Y-59333332D02*
X161924819Y-58714285D01*
X112354819Y-53190475D02*
X111354819Y-53190475D01*
X111354819Y-53190475D02*
X112069104Y-52857142D01*
X112069104Y-52857142D02*
X111354819Y-52523809D01*
X111354819Y-52523809D02*
X112354819Y-52523809D01*
X111354819Y-51761904D02*
X112069104Y-51761904D01*
X112069104Y-51761904D02*
X112211961Y-51809523D01*
X112211961Y-51809523D02*
X112307200Y-51904761D01*
X112307200Y-51904761D02*
X112354819Y-52047618D01*
X112354819Y-52047618D02*
X112354819Y-52142856D01*
X112354819Y-50761904D02*
X112354819Y-51333332D01*
X112354819Y-51047618D02*
X111354819Y-51047618D01*
X111354819Y-51047618D02*
X111497676Y-51142856D01*
X111497676Y-51142856D02*
X111592914Y-51238094D01*
X111592914Y-51238094D02*
X111640533Y-51333332D01*
X136084819Y-111166666D02*
X135608628Y-111499999D01*
X136084819Y-111738094D02*
X135084819Y-111738094D01*
X135084819Y-111738094D02*
X135084819Y-111357142D01*
X135084819Y-111357142D02*
X135132438Y-111261904D01*
X135132438Y-111261904D02*
X135180057Y-111214285D01*
X135180057Y-111214285D02*
X135275295Y-111166666D01*
X135275295Y-111166666D02*
X135418152Y-111166666D01*
X135418152Y-111166666D02*
X135513390Y-111214285D01*
X135513390Y-111214285D02*
X135561009Y-111261904D01*
X135561009Y-111261904D02*
X135608628Y-111357142D01*
X135608628Y-111357142D02*
X135608628Y-111738094D01*
X135084819Y-110833332D02*
X135084819Y-110214285D01*
X135084819Y-110214285D02*
X135465771Y-110547618D01*
X135465771Y-110547618D02*
X135465771Y-110404761D01*
X135465771Y-110404761D02*
X135513390Y-110309523D01*
X135513390Y-110309523D02*
X135561009Y-110261904D01*
X135561009Y-110261904D02*
X135656247Y-110214285D01*
X135656247Y-110214285D02*
X135894342Y-110214285D01*
X135894342Y-110214285D02*
X135989580Y-110261904D01*
X135989580Y-110261904D02*
X136037200Y-110309523D01*
X136037200Y-110309523D02*
X136084819Y-110404761D01*
X136084819Y-110404761D02*
X136084819Y-110690475D01*
X136084819Y-110690475D02*
X136037200Y-110785713D01*
X136037200Y-110785713D02*
X135989580Y-110833332D01*
X107214819Y-84651904D02*
X108024342Y-84651904D01*
X108024342Y-84651904D02*
X108119580Y-84604285D01*
X108119580Y-84604285D02*
X108167200Y-84556666D01*
X108167200Y-84556666D02*
X108214819Y-84461428D01*
X108214819Y-84461428D02*
X108214819Y-84270952D01*
X108214819Y-84270952D02*
X108167200Y-84175714D01*
X108167200Y-84175714D02*
X108119580Y-84128095D01*
X108119580Y-84128095D02*
X108024342Y-84080476D01*
X108024342Y-84080476D02*
X107214819Y-84080476D01*
X108214819Y-83080476D02*
X108214819Y-83651904D01*
X108214819Y-83366190D02*
X107214819Y-83366190D01*
X107214819Y-83366190D02*
X107357676Y-83461428D01*
X107357676Y-83461428D02*
X107452914Y-83556666D01*
X107452914Y-83556666D02*
X107500533Y-83651904D01*
X161204819Y-69333333D02*
X161919104Y-69333333D01*
X161919104Y-69333333D02*
X162061961Y-69380952D01*
X162061961Y-69380952D02*
X162157200Y-69476190D01*
X162157200Y-69476190D02*
X162204819Y-69619047D01*
X162204819Y-69619047D02*
X162204819Y-69714285D01*
X162204819Y-68333333D02*
X162204819Y-68904761D01*
X162204819Y-68619047D02*
X161204819Y-68619047D01*
X161204819Y-68619047D02*
X161347676Y-68714285D01*
X161347676Y-68714285D02*
X161442914Y-68809523D01*
X161442914Y-68809523D02*
X161490533Y-68904761D01*
X165864700Y-63071428D02*
X165864700Y-61928571D01*
X166436128Y-62499999D02*
X165293271Y-62499999D01*
X165864700Y-76071428D02*
X165864700Y-74928571D01*
X149309524Y-40554819D02*
X149309524Y-39554819D01*
X149309524Y-39554819D02*
X149642857Y-40269104D01*
X149642857Y-40269104D02*
X149976190Y-39554819D01*
X149976190Y-39554819D02*
X149976190Y-40554819D01*
X150738095Y-39554819D02*
X150738095Y-40269104D01*
X150738095Y-40269104D02*
X150690476Y-40411961D01*
X150690476Y-40411961D02*
X150595238Y-40507200D01*
X150595238Y-40507200D02*
X150452381Y-40554819D01*
X150452381Y-40554819D02*
X150357143Y-40554819D01*
X151642857Y-39888152D02*
X151642857Y-40554819D01*
X151404762Y-39507200D02*
X151166667Y-40221485D01*
X151166667Y-40221485D02*
X151785714Y-40221485D01*
X113489688Y-136227524D02*
X112489688Y-136227524D01*
X112489688Y-136227524D02*
X112489688Y-135989429D01*
X112489688Y-135989429D02*
X112537307Y-135846572D01*
X112537307Y-135846572D02*
X112632545Y-135751334D01*
X112632545Y-135751334D02*
X112727783Y-135703715D01*
X112727783Y-135703715D02*
X112918259Y-135656096D01*
X112918259Y-135656096D02*
X113061116Y-135656096D01*
X113061116Y-135656096D02*
X113251592Y-135703715D01*
X113251592Y-135703715D02*
X113346830Y-135751334D01*
X113346830Y-135751334D02*
X113442069Y-135846572D01*
X113442069Y-135846572D02*
X113489688Y-135989429D01*
X113489688Y-135989429D02*
X113489688Y-136227524D01*
X112584926Y-135275143D02*
X112537307Y-135227524D01*
X112537307Y-135227524D02*
X112489688Y-135132286D01*
X112489688Y-135132286D02*
X112489688Y-134894191D01*
X112489688Y-134894191D02*
X112537307Y-134798953D01*
X112537307Y-134798953D02*
X112584926Y-134751334D01*
X112584926Y-134751334D02*
X112680164Y-134703715D01*
X112680164Y-134703715D02*
X112775402Y-134703715D01*
X112775402Y-134703715D02*
X112918259Y-134751334D01*
X112918259Y-134751334D02*
X113489688Y-135322762D01*
X113489688Y-135322762D02*
X113489688Y-134703715D01*
X169604819Y-53190475D02*
X168604819Y-53190475D01*
X168604819Y-53190475D02*
X169319104Y-52857142D01*
X169319104Y-52857142D02*
X168604819Y-52523809D01*
X168604819Y-52523809D02*
X169604819Y-52523809D01*
X168604819Y-51761904D02*
X169319104Y-51761904D01*
X169319104Y-51761904D02*
X169461961Y-51809523D01*
X169461961Y-51809523D02*
X169557200Y-51904761D01*
X169557200Y-51904761D02*
X169604819Y-52047618D01*
X169604819Y-52047618D02*
X169604819Y-52142856D01*
X168700057Y-51333332D02*
X168652438Y-51285713D01*
X168652438Y-51285713D02*
X168604819Y-51190475D01*
X168604819Y-51190475D02*
X168604819Y-50952380D01*
X168604819Y-50952380D02*
X168652438Y-50857142D01*
X168652438Y-50857142D02*
X168700057Y-50809523D01*
X168700057Y-50809523D02*
X168795295Y-50761904D01*
X168795295Y-50761904D02*
X168890533Y-50761904D01*
X168890533Y-50761904D02*
X169033390Y-50809523D01*
X169033390Y-50809523D02*
X169604819Y-51380951D01*
X169604819Y-51380951D02*
X169604819Y-50761904D01*
X106494510Y-136227524D02*
X105494510Y-136227524D01*
X105494510Y-136227524D02*
X105494510Y-135989429D01*
X105494510Y-135989429D02*
X105542129Y-135846572D01*
X105542129Y-135846572D02*
X105637367Y-135751334D01*
X105637367Y-135751334D02*
X105732605Y-135703715D01*
X105732605Y-135703715D02*
X105923081Y-135656096D01*
X105923081Y-135656096D02*
X106065938Y-135656096D01*
X106065938Y-135656096D02*
X106256414Y-135703715D01*
X106256414Y-135703715D02*
X106351652Y-135751334D01*
X106351652Y-135751334D02*
X106446891Y-135846572D01*
X106446891Y-135846572D02*
X106494510Y-135989429D01*
X106494510Y-135989429D02*
X106494510Y-136227524D01*
X106494510Y-134703715D02*
X106494510Y-135275143D01*
X106494510Y-134989429D02*
X105494510Y-134989429D01*
X105494510Y-134989429D02*
X105637367Y-135084667D01*
X105637367Y-135084667D02*
X105732605Y-135179905D01*
X105732605Y-135179905D02*
X105780224Y-135275143D01*
X122309524Y-46354819D02*
X122309524Y-45354819D01*
X122309524Y-45354819D02*
X122642857Y-46069104D01*
X122642857Y-46069104D02*
X122976190Y-45354819D01*
X122976190Y-45354819D02*
X122976190Y-46354819D01*
X123738095Y-45354819D02*
X123738095Y-46069104D01*
X123738095Y-46069104D02*
X123690476Y-46211961D01*
X123690476Y-46211961D02*
X123595238Y-46307200D01*
X123595238Y-46307200D02*
X123452381Y-46354819D01*
X123452381Y-46354819D02*
X123357143Y-46354819D01*
X124119048Y-45354819D02*
X124738095Y-45354819D01*
X124738095Y-45354819D02*
X124404762Y-45735771D01*
X124404762Y-45735771D02*
X124547619Y-45735771D01*
X124547619Y-45735771D02*
X124642857Y-45783390D01*
X124642857Y-45783390D02*
X124690476Y-45831009D01*
X124690476Y-45831009D02*
X124738095Y-45926247D01*
X124738095Y-45926247D02*
X124738095Y-46164342D01*
X124738095Y-46164342D02*
X124690476Y-46259580D01*
X124690476Y-46259580D02*
X124642857Y-46307200D01*
X124642857Y-46307200D02*
X124547619Y-46354819D01*
X124547619Y-46354819D02*
X124261905Y-46354819D01*
X124261905Y-46354819D02*
X124166667Y-46307200D01*
X124166667Y-46307200D02*
X124119048Y-46259580D01*
X130060131Y-108954945D02*
X129583940Y-109288278D01*
X130060131Y-109526373D02*
X129060131Y-109526373D01*
X129060131Y-109526373D02*
X129060131Y-109145421D01*
X129060131Y-109145421D02*
X129107750Y-109050183D01*
X129107750Y-109050183D02*
X129155369Y-109002564D01*
X129155369Y-109002564D02*
X129250607Y-108954945D01*
X129250607Y-108954945D02*
X129393464Y-108954945D01*
X129393464Y-108954945D02*
X129488702Y-109002564D01*
X129488702Y-109002564D02*
X129536321Y-109050183D01*
X129536321Y-109050183D02*
X129583940Y-109145421D01*
X129583940Y-109145421D02*
X129583940Y-109526373D01*
X129155369Y-108573992D02*
X129107750Y-108526373D01*
X129107750Y-108526373D02*
X129060131Y-108431135D01*
X129060131Y-108431135D02*
X129060131Y-108193040D01*
X129060131Y-108193040D02*
X129107750Y-108097802D01*
X129107750Y-108097802D02*
X129155369Y-108050183D01*
X129155369Y-108050183D02*
X129250607Y-108002564D01*
X129250607Y-108002564D02*
X129345845Y-108002564D01*
X129345845Y-108002564D02*
X129488702Y-108050183D01*
X129488702Y-108050183D02*
X130060131Y-108621611D01*
X130060131Y-108621611D02*
X130060131Y-108002564D01*
X129157200Y-106761904D02*
X129204819Y-106619047D01*
X129204819Y-106619047D02*
X129204819Y-106380952D01*
X129204819Y-106380952D02*
X129157200Y-106285714D01*
X129157200Y-106285714D02*
X129109580Y-106238095D01*
X129109580Y-106238095D02*
X129014342Y-106190476D01*
X129014342Y-106190476D02*
X128919104Y-106190476D01*
X128919104Y-106190476D02*
X128823866Y-106238095D01*
X128823866Y-106238095D02*
X128776247Y-106285714D01*
X128776247Y-106285714D02*
X128728628Y-106380952D01*
X128728628Y-106380952D02*
X128681009Y-106571428D01*
X128681009Y-106571428D02*
X128633390Y-106666666D01*
X128633390Y-106666666D02*
X128585771Y-106714285D01*
X128585771Y-106714285D02*
X128490533Y-106761904D01*
X128490533Y-106761904D02*
X128395295Y-106761904D01*
X128395295Y-106761904D02*
X128300057Y-106714285D01*
X128300057Y-106714285D02*
X128252438Y-106666666D01*
X128252438Y-106666666D02*
X128204819Y-106571428D01*
X128204819Y-106571428D02*
X128204819Y-106333333D01*
X128204819Y-106333333D02*
X128252438Y-106190476D01*
X129204819Y-105238095D02*
X129204819Y-105809523D01*
X129204819Y-105523809D02*
X128204819Y-105523809D01*
X128204819Y-105523809D02*
X128347676Y-105619047D01*
X128347676Y-105619047D02*
X128442914Y-105714285D01*
X128442914Y-105714285D02*
X128490533Y-105809523D01*
X141657200Y-106761904D02*
X141704819Y-106619047D01*
X141704819Y-106619047D02*
X141704819Y-106380952D01*
X141704819Y-106380952D02*
X141657200Y-106285714D01*
X141657200Y-106285714D02*
X141609580Y-106238095D01*
X141609580Y-106238095D02*
X141514342Y-106190476D01*
X141514342Y-106190476D02*
X141419104Y-106190476D01*
X141419104Y-106190476D02*
X141323866Y-106238095D01*
X141323866Y-106238095D02*
X141276247Y-106285714D01*
X141276247Y-106285714D02*
X141228628Y-106380952D01*
X141228628Y-106380952D02*
X141181009Y-106571428D01*
X141181009Y-106571428D02*
X141133390Y-106666666D01*
X141133390Y-106666666D02*
X141085771Y-106714285D01*
X141085771Y-106714285D02*
X140990533Y-106761904D01*
X140990533Y-106761904D02*
X140895295Y-106761904D01*
X140895295Y-106761904D02*
X140800057Y-106714285D01*
X140800057Y-106714285D02*
X140752438Y-106666666D01*
X140752438Y-106666666D02*
X140704819Y-106571428D01*
X140704819Y-106571428D02*
X140704819Y-106333333D01*
X140704819Y-106333333D02*
X140752438Y-106190476D01*
X140800057Y-105809523D02*
X140752438Y-105761904D01*
X140752438Y-105761904D02*
X140704819Y-105666666D01*
X140704819Y-105666666D02*
X140704819Y-105428571D01*
X140704819Y-105428571D02*
X140752438Y-105333333D01*
X140752438Y-105333333D02*
X140800057Y-105285714D01*
X140800057Y-105285714D02*
X140895295Y-105238095D01*
X140895295Y-105238095D02*
X140990533Y-105238095D01*
X140990533Y-105238095D02*
X141133390Y-105285714D01*
X141133390Y-105285714D02*
X141704819Y-105857142D01*
X141704819Y-105857142D02*
X141704819Y-105238095D01*
X135954819Y-61238094D02*
X134954819Y-61238094D01*
X134954819Y-61238094D02*
X134954819Y-60999999D01*
X134954819Y-60999999D02*
X135002438Y-60857142D01*
X135002438Y-60857142D02*
X135097676Y-60761904D01*
X135097676Y-60761904D02*
X135192914Y-60714285D01*
X135192914Y-60714285D02*
X135383390Y-60666666D01*
X135383390Y-60666666D02*
X135526247Y-60666666D01*
X135526247Y-60666666D02*
X135716723Y-60714285D01*
X135716723Y-60714285D02*
X135811961Y-60761904D01*
X135811961Y-60761904D02*
X135907200Y-60857142D01*
X135907200Y-60857142D02*
X135954819Y-60999999D01*
X135954819Y-60999999D02*
X135954819Y-61238094D01*
X135954819Y-59666666D02*
X135478628Y-59999999D01*
X135954819Y-60238094D02*
X134954819Y-60238094D01*
X134954819Y-60238094D02*
X134954819Y-59857142D01*
X134954819Y-59857142D02*
X135002438Y-59761904D01*
X135002438Y-59761904D02*
X135050057Y-59714285D01*
X135050057Y-59714285D02*
X135145295Y-59666666D01*
X135145295Y-59666666D02*
X135288152Y-59666666D01*
X135288152Y-59666666D02*
X135383390Y-59714285D01*
X135383390Y-59714285D02*
X135431009Y-59761904D01*
X135431009Y-59761904D02*
X135478628Y-59857142D01*
X135478628Y-59857142D02*
X135478628Y-60238094D01*
X135954819Y-58714285D02*
X135954819Y-59285713D01*
X135954819Y-58999999D02*
X134954819Y-58999999D01*
X134954819Y-58999999D02*
X135097676Y-59095237D01*
X135097676Y-59095237D02*
X135192914Y-59190475D01*
X135192914Y-59190475D02*
X135240533Y-59285713D01*
D11*
%TO.C,R1*%
X110187540Y-140602470D02*
X116727540Y-140602470D01*
X110187540Y-140932470D02*
X110187540Y-140602470D01*
X110187540Y-143012470D02*
X110187540Y-143342470D01*
X110187540Y-143342470D02*
X116727540Y-143342470D01*
X116727540Y-140602470D02*
X116727540Y-140932470D01*
X116727540Y-143342470D02*
X116727540Y-143012470D01*
%TO.C,RS1*%
X120962868Y-134141715D02*
X120962868Y-126861715D01*
X170962868Y-118001715D02*
X120962868Y-118001715D01*
X120962868Y-143501715D01*
X170962868Y-143501715D01*
X170962868Y-118001715D01*
%TO.C,DR2*%
X160230000Y-70000000D02*
X140230000Y-70000000D01*
X140230000Y-50000000D01*
X160230000Y-50000000D01*
X160230000Y-70000000D01*
%TO.C,MJ1*%
X106090000Y-44940000D02*
X106090000Y-59060000D01*
X106090000Y-59060000D02*
X110810000Y-59060000D01*
X106700000Y-45550000D02*
X106700000Y-58450000D01*
X106700000Y-47900000D02*
X107200000Y-47900000D01*
X106700000Y-48000000D02*
X107200000Y-48000000D01*
X106700000Y-49900000D02*
X107200000Y-49900000D01*
X106700000Y-50000000D02*
X107200000Y-50000000D01*
X106700000Y-51900000D02*
X107200000Y-51900000D01*
X106700000Y-52000000D02*
X107200000Y-52000000D01*
X106700000Y-53900000D02*
X107200000Y-53900000D01*
X106700000Y-54000000D02*
X107200000Y-54000000D01*
X106700000Y-55900000D02*
X107200000Y-55900000D01*
X106700000Y-56000000D02*
X107200000Y-56000000D01*
X106700000Y-58450000D02*
X110200000Y-58450000D01*
X107200000Y-47900000D02*
X107200000Y-48100000D01*
X107200000Y-48100000D02*
X106700000Y-48100000D01*
X107200000Y-49900000D02*
X107200000Y-50100000D01*
X107200000Y-50100000D02*
X106700000Y-50100000D01*
X107200000Y-51900000D02*
X107200000Y-52100000D01*
X107200000Y-52100000D02*
X106700000Y-52100000D01*
X107200000Y-53900000D02*
X107200000Y-54100000D01*
X107200000Y-54100000D02*
X106700000Y-54100000D01*
X107200000Y-55900000D02*
X107200000Y-56100000D01*
X107200000Y-56100000D02*
X106700000Y-56100000D01*
X108200000Y-44940000D02*
X108200000Y-45550000D01*
X108200000Y-59060000D02*
X108200000Y-58450000D01*
X109500000Y-44940000D02*
X109500000Y-45550000D01*
X109500000Y-59060000D02*
X109500000Y-58450000D01*
X110200000Y-45550000D02*
X106700000Y-45550000D01*
X110200000Y-47500000D02*
X110200000Y-45550000D01*
X110200000Y-56500000D02*
X110810000Y-56500000D01*
X110200000Y-58450000D02*
X110200000Y-56500000D01*
X110810000Y-44940000D02*
X106090000Y-44940000D01*
X110810000Y-46700000D02*
X111010000Y-46700000D01*
X110810000Y-47500000D02*
X110200000Y-47500000D01*
X110810000Y-59060000D02*
X110810000Y-44940000D01*
X110910000Y-46700000D02*
X110910000Y-46400000D01*
X111010000Y-46400000D02*
X110810000Y-46400000D01*
X111010000Y-46700000D02*
X111010000Y-46400000D01*
X111110000Y-44640000D02*
X109860000Y-44640000D01*
X111110000Y-45890000D02*
X111110000Y-44640000D01*
%TO.C,R3*%
X136630000Y-107730000D02*
X136960000Y-107730000D01*
X136630000Y-114270000D02*
X136630000Y-107730000D01*
X136960000Y-114270000D02*
X136630000Y-114270000D01*
X139040000Y-114270000D02*
X139370000Y-114270000D01*
X139370000Y-107730000D02*
X139040000Y-107730000D01*
X139370000Y-114270000D02*
X139370000Y-107730000D01*
%TO.C,U1*%
X108760000Y-73500000D02*
X161570000Y-73500000D01*
X161570000Y-94280000D01*
X108760000Y-94280000D01*
X108760000Y-73500000D01*
D12*
%TO.C,G\u002A\u002A\u002A*%
G36*
X100968856Y-123829303D02*
G01*
X101048316Y-123912241D01*
X100797373Y-124164232D01*
X100546430Y-124416223D01*
X100682808Y-124550549D01*
X100750652Y-124621487D01*
X100799489Y-124680397D01*
X100819149Y-124714965D01*
X100819185Y-124715710D01*
X100801403Y-124752739D01*
X100761828Y-124798972D01*
X100721115Y-124832032D01*
X100707544Y-124836655D01*
X100684761Y-124818512D01*
X100631815Y-124769171D01*
X100556709Y-124696268D01*
X100471549Y-124611560D01*
X100247624Y-124386465D01*
X100568510Y-124066415D01*
X100889396Y-123746365D01*
X100968856Y-123829303D01*
G37*
G36*
X103633838Y-123974462D02*
G01*
X103691497Y-123992181D01*
X103699485Y-123998156D01*
X103710208Y-124026190D01*
X103718594Y-124089028D01*
X103724812Y-124190617D01*
X103729032Y-124334904D01*
X103731423Y-124525837D01*
X103732154Y-124759736D01*
X103732154Y-125488649D01*
X104160932Y-125496146D01*
X104589710Y-125503643D01*
X104598178Y-125637129D01*
X104596218Y-125738493D01*
X104574575Y-125790562D01*
X104570954Y-125793251D01*
X104529492Y-125802512D01*
X104444692Y-125809476D01*
X104326562Y-125814219D01*
X104185111Y-125816819D01*
X104030348Y-125817355D01*
X103872281Y-125815902D01*
X103720920Y-125812539D01*
X103586273Y-125807344D01*
X103478348Y-125800394D01*
X103407155Y-125791766D01*
X103383687Y-125784050D01*
X103373908Y-125758157D01*
X103366064Y-125699518D01*
X103360018Y-125604319D01*
X103355633Y-125468747D01*
X103352772Y-125288988D01*
X103351298Y-125061227D01*
X103351018Y-124874959D01*
X103351266Y-124630970D01*
X103352188Y-124435938D01*
X103354049Y-124284375D01*
X103357112Y-124170793D01*
X103361643Y-124089702D01*
X103367906Y-124035613D01*
X103376166Y-124003038D01*
X103386687Y-123986488D01*
X103394080Y-123982011D01*
X103462934Y-123968204D01*
X103550252Y-123966078D01*
X103633838Y-123974462D01*
G37*
G36*
X100378255Y-124598598D02*
G01*
X100502019Y-124729286D01*
X100582792Y-124838606D01*
X100623633Y-124934246D01*
X100627601Y-125023892D01*
X100597753Y-125115230D01*
X100589965Y-125130665D01*
X100541610Y-125199190D01*
X100465676Y-125283378D01*
X100378684Y-125366953D01*
X100297150Y-125433639D01*
X100256077Y-125459628D01*
X100156402Y-125486434D01*
X100048225Y-125480114D01*
X99988853Y-125458603D01*
X99945833Y-125426896D01*
X99876363Y-125366995D01*
X99792337Y-125289358D01*
X99750482Y-125249015D01*
X99593238Y-125095283D01*
X99863986Y-125095283D01*
X99960049Y-125183761D01*
X100020801Y-125235762D01*
X100066244Y-125267575D01*
X100078448Y-125272239D01*
X100112612Y-125257358D01*
X100170766Y-125220190D01*
X100191609Y-125205230D01*
X100270211Y-125135600D01*
X100342057Y-125054144D01*
X100348865Y-125044856D01*
X100389463Y-124982358D01*
X100399842Y-124938811D01*
X100383463Y-124890385D01*
X100374019Y-124871672D01*
X100330433Y-124794905D01*
X100291114Y-124753798D01*
X100246979Y-124749352D01*
X100188948Y-124782571D01*
X100107937Y-124854454D01*
X100054228Y-124906939D01*
X99863986Y-125095283D01*
X99593238Y-125095283D01*
X99566559Y-125069200D01*
X99886024Y-124748900D01*
X100205489Y-124428601D01*
X100378255Y-124598598D01*
G37*
G36*
X112682266Y-124448282D02*
G01*
X112844786Y-124505603D01*
X112969475Y-124601624D01*
X113057056Y-124737112D01*
X113108251Y-124912835D01*
X113123839Y-125111639D01*
X113118023Y-125282205D01*
X113097171Y-125414146D01*
X113057668Y-125522071D01*
X112998909Y-125616558D01*
X112899934Y-125708470D01*
X112763723Y-125777198D01*
X112603997Y-125818739D01*
X112434476Y-125829095D01*
X112316603Y-125815502D01*
X112140313Y-125757355D01*
X112002089Y-125660614D01*
X111902449Y-125526117D01*
X111841910Y-125354701D01*
X111825403Y-125190969D01*
X112179562Y-125190969D01*
X112204789Y-125340366D01*
X112259807Y-125454569D01*
X112341979Y-125529335D01*
X112448670Y-125560420D01*
X112525509Y-125555977D01*
X112601212Y-125536139D01*
X112656426Y-125510048D01*
X112659040Y-125508013D01*
X112714169Y-125432449D01*
X112752467Y-125317496D01*
X112769789Y-125176717D01*
X112770373Y-125143799D01*
X112759113Y-124968784D01*
X112724037Y-124840190D01*
X112662623Y-124754326D01*
X112572349Y-124707502D01*
X112464138Y-124695692D01*
X112349474Y-124719453D01*
X112264679Y-124787749D01*
X112209035Y-124901393D01*
X112186760Y-125010621D01*
X112179562Y-125190969D01*
X111825403Y-125190969D01*
X111820991Y-125147205D01*
X111826149Y-125022835D01*
X111862622Y-124824809D01*
X111935665Y-124667087D01*
X112045550Y-124549423D01*
X112192550Y-124471571D01*
X112376933Y-124433284D01*
X112481191Y-124428893D01*
X112682266Y-124448282D01*
G37*
G36*
X116938753Y-123944231D02*
G01*
X117001293Y-123962910D01*
X117012025Y-123970932D01*
X117029677Y-124017008D01*
X117040940Y-124108340D01*
X117044694Y-124229560D01*
X117044694Y-124455519D01*
X117236754Y-124455519D01*
X117428814Y-124455519D01*
X117420516Y-124584833D01*
X117412218Y-124714147D01*
X117228456Y-124722197D01*
X117044694Y-124730247D01*
X117044694Y-125064100D01*
X117046264Y-125226523D01*
X117053844Y-125342792D01*
X117071736Y-125421173D01*
X117104244Y-125469933D01*
X117155671Y-125497337D01*
X117230321Y-125511654D01*
X117280319Y-125516721D01*
X117439442Y-125530867D01*
X117448014Y-125650677D01*
X117445498Y-125743614D01*
X117422525Y-125792001D01*
X117420790Y-125793186D01*
X117368575Y-125807055D01*
X117281211Y-125812706D01*
X117177351Y-125810276D01*
X117075649Y-125799901D01*
X117024958Y-125790286D01*
X116919719Y-125757278D01*
X116839610Y-125710000D01*
X116781128Y-125641273D01*
X116740771Y-125543917D01*
X116715034Y-125410751D01*
X116700415Y-125234596D01*
X116695813Y-125115701D01*
X116684727Y-124727759D01*
X116584303Y-124727759D01*
X116486922Y-124713188D01*
X116432845Y-124667862D01*
X116418542Y-124602033D01*
X116427753Y-124517534D01*
X116462953Y-124472631D01*
X116535495Y-124456427D01*
X116571187Y-124455519D01*
X116690782Y-124455519D01*
X116690782Y-124229560D01*
X116694892Y-124103360D01*
X116706468Y-124013881D01*
X116723451Y-123970932D01*
X116775280Y-123948241D01*
X116855231Y-123939341D01*
X116938753Y-123944231D01*
G37*
G36*
X101536070Y-124463523D02*
G01*
X101655930Y-124510050D01*
X101762035Y-124595858D01*
X101848433Y-124714136D01*
X101895596Y-124831285D01*
X101901077Y-124937749D01*
X101869332Y-125015214D01*
X101842613Y-125046032D01*
X101816908Y-125047403D01*
X101776156Y-125015772D01*
X101746824Y-124988100D01*
X101683533Y-124906827D01*
X101663129Y-124835781D01*
X101640286Y-124755820D01*
X101582774Y-124695823D01*
X101510230Y-124673311D01*
X101455706Y-124694240D01*
X101385482Y-124747942D01*
X101312347Y-124820792D01*
X101249090Y-124899162D01*
X101208499Y-124969426D01*
X101200321Y-125003521D01*
X101223494Y-125084981D01*
X101282252Y-125140580D01*
X101360460Y-125161464D01*
X101441978Y-125138778D01*
X101444255Y-125137364D01*
X101467480Y-125113060D01*
X101453476Y-125079932D01*
X101432360Y-125055148D01*
X101398806Y-125012985D01*
X101400895Y-124982316D01*
X101440335Y-124938454D01*
X101440447Y-124938341D01*
X101500183Y-124878605D01*
X101626385Y-125004807D01*
X101700838Y-125086061D01*
X101731673Y-125146662D01*
X101717972Y-125199742D01*
X101658817Y-125258432D01*
X101605871Y-125298369D01*
X101490026Y-125362429D01*
X101380037Y-125376779D01*
X101263376Y-125341864D01*
X101209133Y-125312471D01*
X101089644Y-125216123D01*
X101012090Y-125100147D01*
X100979785Y-124973564D01*
X100996041Y-124845393D01*
X101018320Y-124792926D01*
X101077615Y-124708754D01*
X101167320Y-124614557D01*
X101270575Y-124527328D01*
X101308469Y-124500469D01*
X101415887Y-124459412D01*
X101536070Y-124463523D01*
G37*
G36*
X115822764Y-124448271D02*
G01*
X115989650Y-124507595D01*
X116119310Y-124606591D01*
X116211484Y-124744986D01*
X116265910Y-124922507D01*
X116282422Y-125122507D01*
X116263386Y-125328396D01*
X116208016Y-125504272D01*
X116118919Y-125645131D01*
X115998702Y-125745968D01*
X115943232Y-125773665D01*
X115826060Y-125806723D01*
X115681869Y-125825059D01*
X115536617Y-125826506D01*
X115443494Y-125815385D01*
X115276960Y-125757340D01*
X115144358Y-125656815D01*
X115065250Y-125550816D01*
X115026018Y-125473866D01*
X115001557Y-125394583D01*
X114987421Y-125294080D01*
X114980874Y-125192467D01*
X114980808Y-125081671D01*
X115337412Y-125081671D01*
X115338155Y-125256609D01*
X115369277Y-125388886D01*
X115431930Y-125481779D01*
X115492926Y-125524019D01*
X115570086Y-125558962D01*
X115627237Y-125568928D01*
X115691676Y-125555894D01*
X115734707Y-125541528D01*
X115818248Y-125492108D01*
X115874357Y-125408472D01*
X115905540Y-125284969D01*
X115914357Y-125136119D01*
X115904647Y-124964302D01*
X115872549Y-124838775D01*
X115815173Y-124754995D01*
X115729629Y-124708414D01*
X115633719Y-124694704D01*
X115521832Y-124707828D01*
X115439103Y-124757293D01*
X115382272Y-124847354D01*
X115348079Y-124982271D01*
X115337412Y-125081671D01*
X114980808Y-125081671D01*
X114980760Y-125001457D01*
X115002637Y-124850341D01*
X115049213Y-124728090D01*
X115119508Y-124627844D01*
X115234760Y-124524851D01*
X115370040Y-124460945D01*
X115536189Y-124431806D01*
X115618915Y-124428893D01*
X115822764Y-124448271D01*
G37*
G36*
X118495941Y-123964399D02*
G01*
X118670214Y-124023523D01*
X118806376Y-124118657D01*
X118901280Y-124246200D01*
X118951779Y-124402548D01*
X118959454Y-124494957D01*
X118954388Y-124586070D01*
X118933966Y-124670525D01*
X118893296Y-124755983D01*
X118827489Y-124850103D01*
X118731655Y-124960545D01*
X118600902Y-125094971D01*
X118534944Y-125159889D01*
X118210571Y-125476419D01*
X118600891Y-125490031D01*
X118991211Y-125503643D01*
X118999679Y-125637129D01*
X118997719Y-125738493D01*
X118976076Y-125790562D01*
X118972455Y-125793251D01*
X118935985Y-125799728D01*
X118853231Y-125805518D01*
X118732355Y-125810339D01*
X118581517Y-125813907D01*
X118408881Y-125815941D01*
X118307138Y-125816302D01*
X118100746Y-125815945D01*
X117942288Y-125814301D01*
X117825258Y-125810970D01*
X117743150Y-125805555D01*
X117689456Y-125797656D01*
X117657672Y-125786876D01*
X117643431Y-125775653D01*
X117622001Y-125712563D01*
X117625627Y-125634275D01*
X117657922Y-125554503D01*
X117733434Y-125449431D01*
X117852911Y-125318242D01*
X118017104Y-125160122D01*
X118226762Y-124974256D01*
X118253116Y-124951669D01*
X118406440Y-124809673D01*
X118511251Y-124685567D01*
X118569036Y-124575681D01*
X118581280Y-124476344D01*
X118549467Y-124383887D01*
X118506287Y-124326205D01*
X118450995Y-124284075D01*
X118373987Y-124266634D01*
X118324610Y-124264951D01*
X118210143Y-124281343D01*
X118124040Y-124335167D01*
X118057096Y-124433394D01*
X118034387Y-124484761D01*
X117991623Y-124591639D01*
X117833503Y-124591639D01*
X117733612Y-124587458D01*
X117679049Y-124568230D01*
X117660930Y-124523923D01*
X117670366Y-124444508D01*
X117676721Y-124414683D01*
X117737322Y-124259331D01*
X117839764Y-124130585D01*
X117976217Y-124032750D01*
X118138851Y-123970130D01*
X118319836Y-123947027D01*
X118495941Y-123964399D01*
G37*
G36*
X100776757Y-125013220D02*
G01*
X100826336Y-125049882D01*
X100848451Y-125070016D01*
X100891629Y-125116287D01*
X100914373Y-125161316D01*
X100918211Y-125219358D01*
X100904668Y-125304667D01*
X100883513Y-125397257D01*
X100878946Y-125428829D01*
X100892808Y-125442578D01*
X100936795Y-125440985D01*
X101021967Y-125426648D01*
X101110094Y-125412588D01*
X101165188Y-125413725D01*
X101207584Y-125434447D01*
X101255424Y-125477046D01*
X101301192Y-125529245D01*
X101318761Y-125567025D01*
X101316203Y-125574268D01*
X101281416Y-125588386D01*
X101207380Y-125608738D01*
X101108356Y-125631512D01*
X101079658Y-125637486D01*
X100977656Y-125659467D01*
X100898023Y-125678910D01*
X100854399Y-125692411D01*
X100850496Y-125694662D01*
X100839981Y-125725683D01*
X100823140Y-125797326D01*
X100802924Y-125896561D01*
X100794043Y-125943845D01*
X100771689Y-126050396D01*
X100748760Y-126134251D01*
X100728993Y-126182599D01*
X100722443Y-126189267D01*
X100687506Y-126177307D01*
X100634843Y-126135923D01*
X100617145Y-126118417D01*
X100577648Y-126071470D01*
X100557046Y-126024374D01*
X100554311Y-125963413D01*
X100568413Y-125874869D01*
X100591307Y-125774194D01*
X100595598Y-125743930D01*
X100582155Y-125730018D01*
X100539590Y-125730291D01*
X100456518Y-125742578D01*
X100439796Y-125745334D01*
X100347541Y-125759043D01*
X100289897Y-125759218D01*
X100247881Y-125741933D01*
X100202510Y-125703257D01*
X100193113Y-125694288D01*
X100142166Y-125641328D01*
X100113595Y-125603576D01*
X100111361Y-125597049D01*
X100136295Y-125584481D01*
X100203371Y-125566046D01*
X100300999Y-125544677D01*
X100370107Y-125531544D01*
X100492112Y-125508105D01*
X100570403Y-125488186D01*
X100615200Y-125467832D01*
X100636722Y-125443092D01*
X100642328Y-125426240D01*
X100655328Y-125369199D01*
X100675554Y-125280042D01*
X100694889Y-125194604D01*
X100717235Y-125103434D01*
X100737205Y-125035164D01*
X100749641Y-125006021D01*
X100776757Y-125013220D01*
G37*
G36*
X107016248Y-123967937D02*
G01*
X107160103Y-123971096D01*
X107213524Y-123972942D01*
X107445180Y-123986814D01*
X107630074Y-124010923D01*
X107775419Y-124048347D01*
X107888427Y-124102160D01*
X107976312Y-124175436D01*
X108046286Y-124271252D01*
X108084227Y-124344158D01*
X108112767Y-124409287D01*
X108132459Y-124469010D01*
X108144940Y-124535584D01*
X108151848Y-124621266D01*
X108154820Y-124738312D01*
X108155480Y-124877491D01*
X108152887Y-125070477D01*
X108143266Y-125219933D01*
X108124431Y-125336557D01*
X108094194Y-125431052D01*
X108050370Y-125514119D01*
X108014989Y-125565149D01*
X107935683Y-125646910D01*
X107830289Y-125710815D01*
X107693355Y-125758264D01*
X107519428Y-125790658D01*
X107303057Y-125809396D01*
X107038788Y-125815878D01*
X107038510Y-125815879D01*
X106876968Y-125813067D01*
X106767021Y-125803660D01*
X106709802Y-125787765D01*
X106705016Y-125784050D01*
X106695250Y-125758186D01*
X106687414Y-125699602D01*
X106681371Y-125604490D01*
X106677665Y-125490031D01*
X107025217Y-125490031D01*
X107283085Y-125490031D01*
X107404313Y-125486769D01*
X107511712Y-125478038D01*
X107588838Y-125465418D01*
X107609912Y-125458611D01*
X107671669Y-125423153D01*
X107716436Y-125375777D01*
X107747119Y-125307633D01*
X107766626Y-125209867D01*
X107777860Y-125073630D01*
X107782823Y-124931939D01*
X107785296Y-124779057D01*
X107783576Y-124669289D01*
X107776643Y-124591392D01*
X107763476Y-124534126D01*
X107743056Y-124486249D01*
X107742235Y-124484678D01*
X107688703Y-124399080D01*
X107626598Y-124341330D01*
X107544198Y-124306127D01*
X107429780Y-124288173D01*
X107294913Y-124282457D01*
X107039871Y-124278563D01*
X107032544Y-124884297D01*
X107025217Y-125490031D01*
X106677665Y-125490031D01*
X106676985Y-125469035D01*
X106674118Y-125289429D01*
X106672635Y-125061858D01*
X106672347Y-124872565D01*
X106672347Y-123993748D01*
X106743910Y-123975787D01*
X106796219Y-123970355D01*
X106890976Y-123967714D01*
X107016248Y-123967937D01*
G37*
G36*
X113600857Y-123938263D02*
G01*
X113675320Y-123940089D01*
X113725272Y-123951606D01*
X113755605Y-123981874D01*
X113771212Y-124039951D01*
X113776984Y-124134895D01*
X113777813Y-124265947D01*
X113777813Y-124560582D01*
X113901531Y-124491435D01*
X113978625Y-124453297D01*
X114049443Y-124434183D01*
X114136683Y-124429829D01*
X114213073Y-124432900D01*
X114323036Y-124442699D01*
X114399407Y-124461441D01*
X114462997Y-124495803D01*
X114502605Y-124525833D01*
X114597921Y-124618088D01*
X114663087Y-124721740D01*
X114703214Y-124849299D01*
X114723412Y-125013275D01*
X114726434Y-125073664D01*
X114727121Y-125240166D01*
X114713995Y-125368703D01*
X114691794Y-125456857D01*
X114627810Y-125584329D01*
X114531616Y-125699624D01*
X114420673Y-125781941D01*
X114417577Y-125783542D01*
X114329364Y-125811647D01*
X114213854Y-125827196D01*
X114097223Y-125827899D01*
X114026491Y-125817741D01*
X113937090Y-125784000D01*
X113857444Y-125737843D01*
X113795986Y-125694901D01*
X113764702Y-125685870D01*
X113750809Y-125711207D01*
X113745677Y-125741853D01*
X113725815Y-125787103D01*
X113673189Y-125808266D01*
X113644732Y-125811919D01*
X113559773Y-125813358D01*
X113488194Y-125804594D01*
X113423901Y-125788458D01*
X113423901Y-125076476D01*
X113775774Y-125076476D01*
X113784747Y-125234663D01*
X113806127Y-125332255D01*
X113859580Y-125437549D01*
X113944467Y-125509691D01*
X114047851Y-125544126D01*
X114156797Y-125536298D01*
X114249906Y-125488572D01*
X114317443Y-125402879D01*
X114359069Y-125277326D01*
X114372314Y-125121197D01*
X114368360Y-125043473D01*
X114340552Y-124897758D01*
X114285348Y-124795946D01*
X114199454Y-124733117D01*
X114149201Y-124716070D01*
X114030755Y-124709173D01*
X113930587Y-124748237D01*
X113852298Y-124826791D01*
X113799493Y-124938361D01*
X113775774Y-125076476D01*
X113423901Y-125076476D01*
X113423901Y-124879885D01*
X113423769Y-124628380D01*
X113424040Y-124426004D01*
X113425712Y-124267440D01*
X113429784Y-124147372D01*
X113437257Y-124060484D01*
X113449128Y-124001459D01*
X113466396Y-123964981D01*
X113490062Y-123945735D01*
X113521123Y-123938403D01*
X113560579Y-123937669D01*
X113600857Y-123938263D01*
G37*
G36*
X105697145Y-123960534D02*
G01*
X105787074Y-123971163D01*
X105868636Y-123995532D01*
X105964806Y-124038606D01*
X105979876Y-124045985D01*
X106093084Y-124108664D01*
X106171887Y-124172349D01*
X106234487Y-124252075D01*
X106240269Y-124261054D01*
X106288227Y-124352074D01*
X106311895Y-124430340D01*
X106312690Y-124455519D01*
X106300751Y-124498784D01*
X106267709Y-124520891D01*
X106197984Y-124531159D01*
X106184498Y-124532176D01*
X106066668Y-124533900D01*
X105986796Y-124515354D01*
X105930514Y-124471318D01*
X105901373Y-124429276D01*
X105814562Y-124333860D01*
X105691972Y-124277011D01*
X105554204Y-124260794D01*
X105402327Y-124282486D01*
X105285036Y-124344068D01*
X105209517Y-124435562D01*
X105187779Y-124505348D01*
X105171903Y-124615337D01*
X105162062Y-124751584D01*
X105158427Y-124900141D01*
X105161169Y-125047064D01*
X105170460Y-125178404D01*
X105186470Y-125280217D01*
X105198648Y-125319640D01*
X105269532Y-125421031D01*
X105379329Y-125487438D01*
X105523101Y-125516161D01*
X105559376Y-125517153D01*
X105712134Y-125495747D01*
X105833214Y-125434786D01*
X105917595Y-125338808D01*
X105960255Y-125212349D01*
X105964523Y-125151083D01*
X105964523Y-125054447D01*
X105804512Y-125054447D01*
X105690850Y-125047008D01*
X105622201Y-125020588D01*
X105590660Y-124969030D01*
X105588325Y-124886180D01*
X105588335Y-124886075D01*
X105596999Y-124795819D01*
X105964523Y-124795819D01*
X106332047Y-124795819D01*
X106329907Y-125040835D01*
X106322809Y-125212754D01*
X106301921Y-125344887D01*
X106262701Y-125451104D01*
X106200611Y-125545275D01*
X106144170Y-125608316D01*
X105997483Y-125720968D01*
X105818196Y-125793740D01*
X105612578Y-125824879D01*
X105404434Y-125815103D01*
X105211749Y-125765869D01*
X105049720Y-125676026D01*
X104923444Y-125549509D01*
X104838018Y-125390255D01*
X104832093Y-125373205D01*
X104810897Y-125291066D01*
X104796936Y-125188676D01*
X104789245Y-125055059D01*
X104786859Y-124879239D01*
X104786876Y-124858809D01*
X104787831Y-124705739D01*
X104791195Y-124594852D01*
X104798695Y-124513887D01*
X104812053Y-124450585D01*
X104832997Y-124392684D01*
X104860899Y-124332722D01*
X104956292Y-124184493D01*
X105080460Y-124075467D01*
X105237860Y-124003310D01*
X105432954Y-123965690D01*
X105575877Y-123958680D01*
X105697145Y-123960534D01*
G37*
G36*
X110566975Y-123967482D02*
G01*
X110680453Y-123969482D01*
X110846584Y-123973490D01*
X110969128Y-123978289D01*
X111058936Y-123985511D01*
X111126861Y-123996792D01*
X111183757Y-124013765D01*
X111240476Y-124038063D01*
X111286816Y-124060771D01*
X111427838Y-124152798D01*
X111520580Y-124266512D01*
X111568945Y-124408049D01*
X111578449Y-124519605D01*
X111562078Y-124696187D01*
X111506281Y-124839383D01*
X111406319Y-124957771D01*
X111290621Y-125040835D01*
X111275303Y-125056499D01*
X111273693Y-125083215D01*
X111288861Y-125128583D01*
X111323877Y-125200203D01*
X111381811Y-125305675D01*
X111436152Y-125401113D01*
X111504952Y-125522776D01*
X111562739Y-125628148D01*
X111604594Y-125708013D01*
X111625599Y-125753155D01*
X111627116Y-125758919D01*
X111603100Y-125789363D01*
X111542009Y-125809062D01*
X111460275Y-125817333D01*
X111374334Y-125813496D01*
X111300619Y-125796867D01*
X111261686Y-125774088D01*
X111233087Y-125734568D01*
X111185776Y-125657441D01*
X111126078Y-125553446D01*
X111060318Y-125433327D01*
X111053297Y-125420175D01*
X110887540Y-125108895D01*
X110712848Y-125108895D01*
X110538156Y-125108895D01*
X110538156Y-125430138D01*
X110535104Y-125599022D01*
X110525969Y-125714567D01*
X110510782Y-125776432D01*
X110505487Y-125784050D01*
X110459944Y-125803838D01*
X110383425Y-125815446D01*
X110347588Y-125816719D01*
X110265018Y-125810000D01*
X110203586Y-125793067D01*
X110189689Y-125784050D01*
X110179831Y-125757985D01*
X110171941Y-125699012D01*
X110165877Y-125603302D01*
X110161502Y-125467026D01*
X110158674Y-125286355D01*
X110157254Y-125057461D01*
X110157020Y-124888992D01*
X110157128Y-124809431D01*
X110538156Y-124809431D01*
X110770912Y-124809431D01*
X110935957Y-124802460D01*
X111049879Y-124781644D01*
X111083299Y-124768252D01*
X111155762Y-124703267D01*
X111193954Y-124611341D01*
X111197246Y-124508348D01*
X111165006Y-124410161D01*
X111100496Y-124335495D01*
X111049303Y-124305711D01*
X110982810Y-124286450D01*
X110887010Y-124274798D01*
X110781222Y-124269048D01*
X110538156Y-124259533D01*
X110538156Y-124534482D01*
X110538156Y-124809431D01*
X110157128Y-124809431D01*
X110157353Y-124644022D01*
X110158002Y-124534482D01*
X110158515Y-124448022D01*
X110160753Y-124295514D01*
X110164312Y-124181022D01*
X110169439Y-124099072D01*
X110176378Y-124044185D01*
X110185375Y-124010887D01*
X110196677Y-123993701D01*
X110197226Y-123993233D01*
X110231969Y-123979846D01*
X110301549Y-123971270D01*
X110411405Y-123967238D01*
X110566975Y-123967482D01*
G37*
G36*
X108573618Y-123966900D02*
G01*
X108623764Y-123975419D01*
X108668519Y-123997462D01*
X108715088Y-124039449D01*
X108770673Y-124107797D01*
X108842477Y-124208925D01*
X108931940Y-124340711D01*
X108997452Y-124435093D01*
X109052728Y-124509712D01*
X109090301Y-124554753D01*
X109101481Y-124563522D01*
X109123315Y-124542545D01*
X109168566Y-124484642D01*
X109230821Y-124398440D01*
X109303669Y-124292563D01*
X109310655Y-124282171D01*
X109386751Y-124172573D01*
X109455916Y-124079903D01*
X109510760Y-124013609D01*
X109543892Y-123983139D01*
X109544895Y-123982707D01*
X109615589Y-123968180D01*
X109703225Y-123966035D01*
X109786486Y-123974970D01*
X109844058Y-123993684D01*
X109853597Y-124001553D01*
X109857674Y-124025808D01*
X109842189Y-124071026D01*
X109804236Y-124142481D01*
X109740911Y-124245444D01*
X109649310Y-124385188D01*
X109609912Y-124443943D01*
X109521954Y-124574968D01*
X109445197Y-124690085D01*
X109384575Y-124781829D01*
X109345020Y-124842739D01*
X109331491Y-124865088D01*
X109344702Y-124891072D01*
X109384341Y-124954549D01*
X109445706Y-125048338D01*
X109524098Y-125165261D01*
X109614815Y-125298139D01*
X109619346Y-125304717D01*
X109711013Y-125439145D01*
X109790929Y-125558956D01*
X109854277Y-125656709D01*
X109896235Y-125724963D01*
X109911987Y-125756277D01*
X109912004Y-125756598D01*
X109887902Y-125787751D01*
X109826345Y-125808247D01*
X109743458Y-125817119D01*
X109655366Y-125813396D01*
X109578194Y-125796109D01*
X109543731Y-125778745D01*
X109507659Y-125742154D01*
X109449319Y-125670735D01*
X109376818Y-125574850D01*
X109299464Y-125466586D01*
X109224935Y-125361359D01*
X109160883Y-125274666D01*
X109113907Y-125215178D01*
X109090606Y-125191569D01*
X109090152Y-125191484D01*
X109068578Y-125212273D01*
X109022716Y-125269837D01*
X108958849Y-125355895D01*
X108883258Y-125462166D01*
X108866023Y-125486939D01*
X108786275Y-125598670D01*
X108714019Y-125693788D01*
X108656421Y-125763277D01*
X108620646Y-125798127D01*
X108617106Y-125800015D01*
X108557854Y-125810594D01*
X108471008Y-125814163D01*
X108382523Y-125810833D01*
X108318352Y-125800718D01*
X108312593Y-125798689D01*
X108281037Y-125768755D01*
X108278563Y-125757512D01*
X108293287Y-125727326D01*
X108334225Y-125659967D01*
X108396533Y-125562983D01*
X108475362Y-125443920D01*
X108564416Y-125312443D01*
X108654695Y-125179399D01*
X108733249Y-125061441D01*
X108795245Y-124966009D01*
X108835850Y-124900538D01*
X108850233Y-124872543D01*
X108835802Y-124843752D01*
X108795754Y-124777468D01*
X108734918Y-124681336D01*
X108658125Y-124563001D01*
X108579071Y-124443398D01*
X108474916Y-124285506D01*
X108400949Y-124166812D01*
X108356376Y-124081739D01*
X108340400Y-124024715D01*
X108352227Y-123990162D01*
X108391060Y-123972506D01*
X108456104Y-123966173D01*
X108510881Y-123965487D01*
X108573618Y-123966900D01*
G37*
G36*
X100900316Y-123266346D02*
G01*
X101181006Y-123317490D01*
X101447832Y-123413478D01*
X101695502Y-123551122D01*
X101918723Y-123727234D01*
X102112202Y-123938624D01*
X102270644Y-124182105D01*
X102388758Y-124454487D01*
X102426164Y-124581007D01*
X102474276Y-124873543D01*
X102471166Y-125162802D01*
X102420022Y-125443492D01*
X102324034Y-125710318D01*
X102186390Y-125957988D01*
X102010278Y-126181209D01*
X101798888Y-126374688D01*
X101555407Y-126533130D01*
X101283025Y-126651244D01*
X101156505Y-126688650D01*
X100888511Y-126732924D01*
X100609362Y-126735215D01*
X100340619Y-126695556D01*
X100307796Y-126687380D01*
X100022111Y-126585213D01*
X99761587Y-126437404D01*
X99531058Y-126248822D01*
X99335355Y-126024335D01*
X99179310Y-125768813D01*
X99067758Y-125487124D01*
X99048862Y-125418991D01*
X99000823Y-125126704D01*
X99003050Y-124923685D01*
X99070107Y-124923685D01*
X99127505Y-124981083D01*
X99184903Y-125038481D01*
X99306856Y-124979232D01*
X99414456Y-124907071D01*
X99485052Y-124809739D01*
X99522710Y-124743173D01*
X99552194Y-124717628D01*
X99586251Y-124723857D01*
X99596385Y-124728979D01*
X99616153Y-124742456D01*
X99624941Y-124761899D01*
X99620079Y-124794948D01*
X99598897Y-124849245D01*
X99558726Y-124932431D01*
X99496896Y-125052147D01*
X99456760Y-125128596D01*
X99262044Y-125498729D01*
X99293506Y-125664530D01*
X99316746Y-125782713D01*
X99335017Y-125857977D01*
X99352677Y-125901049D01*
X99374081Y-125922653D01*
X99402677Y-125933279D01*
X99474284Y-125927201D01*
X99537338Y-125877705D01*
X99585511Y-125795778D01*
X99612479Y-125692402D01*
X99611912Y-125578564D01*
X99610885Y-125571771D01*
X99605062Y-125499062D01*
X99620749Y-125461992D01*
X99639629Y-125451163D01*
X99687088Y-125446609D01*
X99703034Y-125455109D01*
X99713326Y-125488336D01*
X99729381Y-125565343D01*
X99749309Y-125676000D01*
X99771222Y-125810177D01*
X99780482Y-125870565D01*
X99839776Y-126264711D01*
X99967740Y-126394628D01*
X100040916Y-126463896D01*
X100105921Y-126516772D01*
X100145675Y-126540406D01*
X100210692Y-126539096D01*
X100254469Y-126490442D01*
X100273972Y-126398414D01*
X100274705Y-126371556D01*
X100266926Y-126287065D01*
X100236426Y-126218096D01*
X100179332Y-126146893D01*
X100125165Y-126083343D01*
X100104819Y-126044916D01*
X100113371Y-126018478D01*
X100126530Y-126005995D01*
X100147529Y-125996965D01*
X100176569Y-126004639D01*
X100219831Y-126033765D01*
X100283493Y-126089090D01*
X100373735Y-126175362D01*
X100466597Y-126267235D01*
X100580785Y-126380369D01*
X100665215Y-126460823D01*
X100728392Y-126514655D01*
X100778821Y-126547924D01*
X100825007Y-126566687D01*
X100875454Y-126577003D01*
X100907340Y-126581178D01*
X101026290Y-126594813D01*
X101103201Y-126600598D01*
X101149956Y-126598219D01*
X101178441Y-126587359D01*
X101194876Y-126573547D01*
X101225332Y-126510786D01*
X101212756Y-126438276D01*
X101164831Y-126366076D01*
X101089243Y-126304245D01*
X100993676Y-126262840D01*
X100950858Y-126254153D01*
X100864485Y-126234310D01*
X100828130Y-126202969D01*
X100837920Y-126156417D01*
X100841960Y-126149716D01*
X100861391Y-126137638D01*
X100904209Y-126133813D01*
X100977686Y-126138774D01*
X101089089Y-126153057D01*
X101245691Y-126177194D01*
X101270295Y-126181173D01*
X101676741Y-126247157D01*
X101853697Y-126146390D01*
X101949092Y-126088380D01*
X102003981Y-126043757D01*
X102027617Y-126003801D01*
X102030653Y-125979617D01*
X102007018Y-125914911D01*
X101944718Y-125870178D01*
X101856663Y-125847936D01*
X101755761Y-125850701D01*
X101654922Y-125880991D01*
X101620313Y-125899615D01*
X101561324Y-125934126D01*
X101530648Y-125940105D01*
X101510426Y-125917873D01*
X101501591Y-125901766D01*
X101494496Y-125879671D01*
X101502485Y-125857113D01*
X101531931Y-125829540D01*
X101589206Y-125792401D01*
X101680682Y-125741143D01*
X101812731Y-125671215D01*
X101855827Y-125648720D01*
X102238706Y-125449195D01*
X102318491Y-125267787D01*
X102355655Y-125172992D01*
X102378587Y-125093756D01*
X102382711Y-125046162D01*
X102382099Y-125044225D01*
X102340302Y-124997762D01*
X102273016Y-124986944D01*
X102191740Y-125007460D01*
X102107975Y-125054998D01*
X102033220Y-125125248D01*
X101989365Y-125191453D01*
X101951878Y-125257526D01*
X101922357Y-125282543D01*
X101887953Y-125275759D01*
X101878784Y-125271095D01*
X101859118Y-125257630D01*
X101850441Y-125238130D01*
X101855434Y-125204977D01*
X101876777Y-125150550D01*
X101917151Y-125067232D01*
X101979236Y-124947403D01*
X102019681Y-124870614D01*
X102215526Y-124499541D01*
X102180436Y-124320992D01*
X102157355Y-124207108D01*
X102139703Y-124135454D01*
X102123051Y-124094712D01*
X102102967Y-124073563D01*
X102079161Y-124062258D01*
X102013586Y-124062449D01*
X101952376Y-124105993D01*
X101902026Y-124181840D01*
X101869029Y-124278935D01*
X101859879Y-124386227D01*
X101864141Y-124428227D01*
X101869964Y-124500936D01*
X101854277Y-124538006D01*
X101835397Y-124548835D01*
X101787938Y-124553389D01*
X101771992Y-124544889D01*
X101761700Y-124511662D01*
X101745645Y-124434655D01*
X101725718Y-124323999D01*
X101703804Y-124189821D01*
X101694545Y-124129433D01*
X101635250Y-123735287D01*
X101507286Y-123605370D01*
X101434110Y-123536103D01*
X101369105Y-123483226D01*
X101329351Y-123459592D01*
X101265920Y-123459593D01*
X101223519Y-123499073D01*
X101202761Y-123567032D01*
X101204263Y-123652475D01*
X101228640Y-123744403D01*
X101276507Y-123831817D01*
X101306538Y-123867438D01*
X101357742Y-123924167D01*
X101373707Y-123958425D01*
X101359397Y-123984463D01*
X101350140Y-123992639D01*
X101329257Y-124001941D01*
X101300628Y-123995061D01*
X101258062Y-123967307D01*
X101195369Y-123913986D01*
X101106360Y-123830405D01*
X101001865Y-123728605D01*
X100696677Y-123428811D01*
X100508195Y-123411880D01*
X100384910Y-123406171D01*
X100305881Y-123414627D01*
X100283597Y-123424924D01*
X100249547Y-123482140D01*
X100257854Y-123551343D01*
X100301045Y-123622566D01*
X100371652Y-123685843D01*
X100462202Y-123731208D01*
X100524169Y-123745845D01*
X100610519Y-123765674D01*
X100646870Y-123796999D01*
X100637111Y-123843560D01*
X100632973Y-123850433D01*
X100613678Y-123862563D01*
X100571308Y-123866427D01*
X100498554Y-123861478D01*
X100388108Y-123847170D01*
X100232662Y-123822956D01*
X100204637Y-123818374D01*
X99798285Y-123751636D01*
X99621477Y-123852920D01*
X99534802Y-123907083D01*
X99469407Y-123956452D01*
X99437892Y-123991364D01*
X99436928Y-123994402D01*
X99447486Y-124060166D01*
X99498797Y-124110591D01*
X99578517Y-124142407D01*
X99674305Y-124152341D01*
X99773819Y-124137122D01*
X99849313Y-124103720D01*
X99910533Y-124067727D01*
X99942735Y-124059917D01*
X99963038Y-124079552D01*
X99973516Y-124098384D01*
X99980713Y-124120600D01*
X99972824Y-124143191D01*
X99943450Y-124170744D01*
X99886191Y-124207846D01*
X99794648Y-124259082D01*
X99662420Y-124329039D01*
X99622936Y-124349637D01*
X99243631Y-124547218D01*
X99156869Y-124735451D01*
X99070107Y-124923685D01*
X99003050Y-124923685D01*
X99003994Y-124837602D01*
X99055175Y-124556994D01*
X99151170Y-124290187D01*
X99288781Y-124042489D01*
X99464810Y-123819209D01*
X99676060Y-123625656D01*
X99919333Y-123467136D01*
X100191431Y-123348958D01*
X100318521Y-123311348D01*
X100611057Y-123263236D01*
X100900316Y-123266346D01*
G37*
D11*
%TO.C,J1*%
X163040000Y-63790000D02*
X168460000Y-63790000D01*
X163040000Y-72510000D02*
X163040000Y-63790000D01*
X164340000Y-74210000D02*
X163040000Y-72510000D01*
X164340000Y-74210000D02*
X167160000Y-74210000D01*
X167160000Y-74210000D02*
X168460000Y-72510000D01*
X168460000Y-72510000D02*
X168460000Y-63790000D01*
%TO.C,MJ4*%
X143140000Y-40890000D02*
X143140000Y-42140000D01*
X143440000Y-41190000D02*
X143440000Y-45910000D01*
X143440000Y-42500000D02*
X144050000Y-42500000D01*
X143440000Y-43800000D02*
X144050000Y-43800000D01*
X143440000Y-45910000D02*
X157560000Y-45910000D01*
X144050000Y-41800000D02*
X144050000Y-45300000D01*
X144050000Y-45300000D02*
X156950000Y-45300000D01*
X144390000Y-40890000D02*
X143140000Y-40890000D01*
X144900000Y-40990000D02*
X144900000Y-41190000D01*
X145200000Y-40990000D02*
X144900000Y-40990000D01*
X145200000Y-41090000D02*
X144900000Y-41090000D01*
X145200000Y-41190000D02*
X145200000Y-40990000D01*
X146000000Y-41190000D02*
X146000000Y-41800000D01*
X146000000Y-41800000D02*
X144050000Y-41800000D01*
X146400000Y-44800000D02*
X146600000Y-44800000D01*
X146400000Y-45300000D02*
X146400000Y-44800000D01*
X146500000Y-45300000D02*
X146500000Y-44800000D01*
X146600000Y-44800000D02*
X146600000Y-45300000D01*
X148400000Y-44800000D02*
X148600000Y-44800000D01*
X148400000Y-45300000D02*
X148400000Y-44800000D01*
X148500000Y-45300000D02*
X148500000Y-44800000D01*
X148600000Y-44800000D02*
X148600000Y-45300000D01*
X150400000Y-44800000D02*
X150600000Y-44800000D01*
X150400000Y-45300000D02*
X150400000Y-44800000D01*
X150500000Y-45300000D02*
X150500000Y-44800000D01*
X150600000Y-44800000D02*
X150600000Y-45300000D01*
X152400000Y-44800000D02*
X152600000Y-44800000D01*
X152400000Y-45300000D02*
X152400000Y-44800000D01*
X152500000Y-45300000D02*
X152500000Y-44800000D01*
X152600000Y-44800000D02*
X152600000Y-45300000D01*
X154400000Y-44800000D02*
X154600000Y-44800000D01*
X154400000Y-45300000D02*
X154400000Y-44800000D01*
X154500000Y-45300000D02*
X154500000Y-44800000D01*
X154600000Y-44800000D02*
X154600000Y-45300000D01*
X155000000Y-41800000D02*
X155000000Y-41190000D01*
X156950000Y-41800000D02*
X155000000Y-41800000D01*
X156950000Y-45300000D02*
X156950000Y-41800000D01*
X157560000Y-41190000D02*
X143440000Y-41190000D01*
X157560000Y-42500000D02*
X156950000Y-42500000D01*
X157560000Y-43800000D02*
X156950000Y-43800000D01*
X157560000Y-45910000D02*
X157560000Y-41190000D01*
%TO.C,D2*%
X114758869Y-137049430D02*
X114914869Y-137049430D01*
X117074869Y-137049430D02*
X117230869Y-137049430D01*
X114759353Y-137049430D02*
G75*
G02*
X114914869Y-133817993I1235516J1560000D01*
G01*
X114914869Y-136530391D02*
G75*
G02*
X114914869Y-134448469I1080000J1040961D01*
G01*
X117074869Y-133817993D02*
G75*
G02*
X117230385Y-137049430I-1080000J-1671437D01*
G01*
X117074869Y-134448469D02*
G75*
G02*
X117074869Y-136530391I-1080000J-1040961D01*
G01*
%TO.C,MJ2*%
X163340000Y-44940000D02*
X163340000Y-59060000D01*
X163340000Y-59060000D02*
X168060000Y-59060000D01*
X163950000Y-45550000D02*
X163950000Y-58450000D01*
X163950000Y-47900000D02*
X164450000Y-47900000D01*
X163950000Y-48000000D02*
X164450000Y-48000000D01*
X163950000Y-49900000D02*
X164450000Y-49900000D01*
X163950000Y-50000000D02*
X164450000Y-50000000D01*
X163950000Y-51900000D02*
X164450000Y-51900000D01*
X163950000Y-52000000D02*
X164450000Y-52000000D01*
X163950000Y-53900000D02*
X164450000Y-53900000D01*
X163950000Y-54000000D02*
X164450000Y-54000000D01*
X163950000Y-55900000D02*
X164450000Y-55900000D01*
X163950000Y-56000000D02*
X164450000Y-56000000D01*
X163950000Y-58450000D02*
X167450000Y-58450000D01*
X164450000Y-47900000D02*
X164450000Y-48100000D01*
X164450000Y-48100000D02*
X163950000Y-48100000D01*
X164450000Y-49900000D02*
X164450000Y-50100000D01*
X164450000Y-50100000D02*
X163950000Y-50100000D01*
X164450000Y-51900000D02*
X164450000Y-52100000D01*
X164450000Y-52100000D02*
X163950000Y-52100000D01*
X164450000Y-53900000D02*
X164450000Y-54100000D01*
X164450000Y-54100000D02*
X163950000Y-54100000D01*
X164450000Y-55900000D02*
X164450000Y-56100000D01*
X164450000Y-56100000D02*
X163950000Y-56100000D01*
X165450000Y-44940000D02*
X165450000Y-45550000D01*
X165450000Y-59060000D02*
X165450000Y-58450000D01*
X166750000Y-44940000D02*
X166750000Y-45550000D01*
X166750000Y-59060000D02*
X166750000Y-58450000D01*
X167450000Y-45550000D02*
X163950000Y-45550000D01*
X167450000Y-47500000D02*
X167450000Y-45550000D01*
X167450000Y-56500000D02*
X168060000Y-56500000D01*
X167450000Y-58450000D02*
X167450000Y-56500000D01*
X168060000Y-44940000D02*
X163340000Y-44940000D01*
X168060000Y-46700000D02*
X168260000Y-46700000D01*
X168060000Y-47500000D02*
X167450000Y-47500000D01*
X168060000Y-59060000D02*
X168060000Y-44940000D01*
X168160000Y-46700000D02*
X168160000Y-46400000D01*
X168260000Y-46400000D02*
X168060000Y-46400000D01*
X168260000Y-46700000D02*
X168260000Y-46400000D01*
X168360000Y-44640000D02*
X167110000Y-44640000D01*
X168360000Y-45890000D02*
X168360000Y-44640000D01*
%TO.C,D1*%
X107763691Y-137049430D02*
X107919691Y-137049430D01*
X110079691Y-137049430D02*
X110235691Y-137049430D01*
X107764175Y-137049430D02*
G75*
G02*
X107919691Y-133817993I1235516J1560000D01*
G01*
X107919691Y-136530391D02*
G75*
G02*
X107919691Y-134448469I1080000J1040961D01*
G01*
X110079691Y-133817993D02*
G75*
G02*
X110235207Y-137049430I-1080000J-1671437D01*
G01*
X110079691Y-134448469D02*
G75*
G02*
X110079691Y-136530391I-1080000J-1040961D01*
G01*
%TO.C,MJ3*%
X116440000Y-40090000D02*
X116440000Y-44810000D01*
X116440000Y-42200000D02*
X117050000Y-42200000D01*
X116440000Y-43500000D02*
X117050000Y-43500000D01*
X116440000Y-44810000D02*
X130560000Y-44810000D01*
X117050000Y-40700000D02*
X117050000Y-44200000D01*
X117050000Y-44200000D02*
X119000000Y-44200000D01*
X119000000Y-44200000D02*
X119000000Y-44810000D01*
X119400000Y-41200000D02*
X119400000Y-40700000D01*
X119500000Y-40700000D02*
X119500000Y-41200000D01*
X119600000Y-40700000D02*
X119600000Y-41200000D01*
X119600000Y-41200000D02*
X119400000Y-41200000D01*
X121400000Y-41200000D02*
X121400000Y-40700000D01*
X121500000Y-40700000D02*
X121500000Y-41200000D01*
X121600000Y-40700000D02*
X121600000Y-41200000D01*
X121600000Y-41200000D02*
X121400000Y-41200000D01*
X123400000Y-41200000D02*
X123400000Y-40700000D01*
X123500000Y-40700000D02*
X123500000Y-41200000D01*
X123600000Y-40700000D02*
X123600000Y-41200000D01*
X123600000Y-41200000D02*
X123400000Y-41200000D01*
X125400000Y-41200000D02*
X125400000Y-40700000D01*
X125500000Y-40700000D02*
X125500000Y-41200000D01*
X125600000Y-40700000D02*
X125600000Y-41200000D01*
X125600000Y-41200000D02*
X125400000Y-41200000D01*
X127400000Y-41200000D02*
X127400000Y-40700000D01*
X127500000Y-40700000D02*
X127500000Y-41200000D01*
X127600000Y-40700000D02*
X127600000Y-41200000D01*
X127600000Y-41200000D02*
X127400000Y-41200000D01*
X128000000Y-44200000D02*
X129950000Y-44200000D01*
X128000000Y-44810000D02*
X128000000Y-44200000D01*
X128800000Y-44810000D02*
X128800000Y-45010000D01*
X128800000Y-44910000D02*
X129100000Y-44910000D01*
X128800000Y-45010000D02*
X129100000Y-45010000D01*
X129100000Y-45010000D02*
X129100000Y-44810000D01*
X129610000Y-45110000D02*
X130860000Y-45110000D01*
X129950000Y-40700000D02*
X117050000Y-40700000D01*
X129950000Y-44200000D02*
X129950000Y-40700000D01*
X130560000Y-40090000D02*
X116440000Y-40090000D01*
X130560000Y-42200000D02*
X129950000Y-42200000D01*
X130560000Y-43500000D02*
X129950000Y-43500000D01*
X130560000Y-44810000D02*
X130560000Y-40090000D01*
X130860000Y-45110000D02*
X130860000Y-43860000D01*
%TO.C,R2*%
X130605312Y-105518279D02*
X130935312Y-105518279D01*
X130605312Y-112058279D02*
X130605312Y-105518279D01*
X130935312Y-112058279D02*
X130605312Y-112058279D01*
X133015312Y-112058279D02*
X133345312Y-112058279D01*
X133345312Y-105518279D02*
X133015312Y-105518279D01*
X133345312Y-112058279D02*
X133345312Y-105518279D01*
%TO.C,S1*%
X108250000Y-116250000D02*
X127750000Y-116250000D01*
X127750000Y-95750000D01*
X108250000Y-95750000D01*
X108250000Y-116250000D01*
%TO.C,S2*%
X161750000Y-95750000D02*
X142250000Y-95750000D01*
X142250000Y-116250000D01*
X161750000Y-116250000D01*
X161750000Y-95750000D01*
%TO.C,DR1*%
X134140000Y-70000000D02*
X114140000Y-70000000D01*
X114140000Y-50000000D01*
X134140000Y-50000000D01*
X134140000Y-70000000D01*
%TD*%
M02*
