%TF.GenerationSoftware,KiCad,Pcbnew,9.0.5*%
%TF.CreationDate,2025-10-17T20:57:11+01:00*%
%TF.ProjectId,Board,426f6172-642e-46b6-9963-61645f706362,v1*%
%TF.SameCoordinates,Original*%
%TF.FileFunction,Legend,Top*%
%TF.FilePolarity,Positive*%
%FSLAX46Y46*%
G04 Gerber Fmt 4.6, Leading zero omitted, Abs format (unit mm)*
G04 Created by KiCad (PCBNEW 9.0.5) date 2025-10-17 20:57:11*
%MOMM*%
%LPD*%
G01*
G04 APERTURE LIST*
%ADD10C,0.150000*%
%ADD11C,0.120000*%
%ADD12C,0.000000*%
G04 APERTURE END LIST*
D10*
X113290873Y-140057289D02*
X112957540Y-139581098D01*
X112719445Y-140057289D02*
X112719445Y-139057289D01*
X112719445Y-139057289D02*
X113100397Y-139057289D01*
X113100397Y-139057289D02*
X113195635Y-139104908D01*
X113195635Y-139104908D02*
X113243254Y-139152527D01*
X113243254Y-139152527D02*
X113290873Y-139247765D01*
X113290873Y-139247765D02*
X113290873Y-139390622D01*
X113290873Y-139390622D02*
X113243254Y-139485860D01*
X113243254Y-139485860D02*
X113195635Y-139533479D01*
X113195635Y-139533479D02*
X113100397Y-139581098D01*
X113100397Y-139581098D02*
X112719445Y-139581098D01*
X114243254Y-140057289D02*
X113671826Y-140057289D01*
X113957540Y-140057289D02*
X113957540Y-139057289D01*
X113957540Y-139057289D02*
X113862302Y-139200146D01*
X113862302Y-139200146D02*
X113767064Y-139295384D01*
X113767064Y-139295384D02*
X113671826Y-139343003D01*
X120417687Y-131144572D02*
X119941496Y-131477905D01*
X120417687Y-131716000D02*
X119417687Y-131716000D01*
X119417687Y-131716000D02*
X119417687Y-131335048D01*
X119417687Y-131335048D02*
X119465306Y-131239810D01*
X119465306Y-131239810D02*
X119512925Y-131192191D01*
X119512925Y-131192191D02*
X119608163Y-131144572D01*
X119608163Y-131144572D02*
X119751020Y-131144572D01*
X119751020Y-131144572D02*
X119846258Y-131192191D01*
X119846258Y-131192191D02*
X119893877Y-131239810D01*
X119893877Y-131239810D02*
X119941496Y-131335048D01*
X119941496Y-131335048D02*
X119941496Y-131716000D01*
X120370068Y-130763619D02*
X120417687Y-130620762D01*
X120417687Y-130620762D02*
X120417687Y-130382667D01*
X120417687Y-130382667D02*
X120370068Y-130287429D01*
X120370068Y-130287429D02*
X120322448Y-130239810D01*
X120322448Y-130239810D02*
X120227210Y-130192191D01*
X120227210Y-130192191D02*
X120131972Y-130192191D01*
X120131972Y-130192191D02*
X120036734Y-130239810D01*
X120036734Y-130239810D02*
X119989115Y-130287429D01*
X119989115Y-130287429D02*
X119941496Y-130382667D01*
X119941496Y-130382667D02*
X119893877Y-130573143D01*
X119893877Y-130573143D02*
X119846258Y-130668381D01*
X119846258Y-130668381D02*
X119798639Y-130716000D01*
X119798639Y-130716000D02*
X119703401Y-130763619D01*
X119703401Y-130763619D02*
X119608163Y-130763619D01*
X119608163Y-130763619D02*
X119512925Y-130716000D01*
X119512925Y-130716000D02*
X119465306Y-130668381D01*
X119465306Y-130668381D02*
X119417687Y-130573143D01*
X119417687Y-130573143D02*
X119417687Y-130335048D01*
X119417687Y-130335048D02*
X119465306Y-130192191D01*
X120417687Y-129239810D02*
X120417687Y-129811238D01*
X120417687Y-129525524D02*
X119417687Y-129525524D01*
X119417687Y-129525524D02*
X119560544Y-129620762D01*
X119560544Y-129620762D02*
X119655782Y-129716000D01*
X119655782Y-129716000D02*
X119703401Y-129811238D01*
X161924819Y-61238094D02*
X160924819Y-61238094D01*
X160924819Y-61238094D02*
X160924819Y-60999999D01*
X160924819Y-60999999D02*
X160972438Y-60857142D01*
X160972438Y-60857142D02*
X161067676Y-60761904D01*
X161067676Y-60761904D02*
X161162914Y-60714285D01*
X161162914Y-60714285D02*
X161353390Y-60666666D01*
X161353390Y-60666666D02*
X161496247Y-60666666D01*
X161496247Y-60666666D02*
X161686723Y-60714285D01*
X161686723Y-60714285D02*
X161781961Y-60761904D01*
X161781961Y-60761904D02*
X161877200Y-60857142D01*
X161877200Y-60857142D02*
X161924819Y-60999999D01*
X161924819Y-60999999D02*
X161924819Y-61238094D01*
X161924819Y-59666666D02*
X161448628Y-59999999D01*
X161924819Y-60238094D02*
X160924819Y-60238094D01*
X160924819Y-60238094D02*
X160924819Y-59857142D01*
X160924819Y-59857142D02*
X160972438Y-59761904D01*
X160972438Y-59761904D02*
X161020057Y-59714285D01*
X161020057Y-59714285D02*
X161115295Y-59666666D01*
X161115295Y-59666666D02*
X161258152Y-59666666D01*
X161258152Y-59666666D02*
X161353390Y-59714285D01*
X161353390Y-59714285D02*
X161401009Y-59761904D01*
X161401009Y-59761904D02*
X161448628Y-59857142D01*
X161448628Y-59857142D02*
X161448628Y-60238094D01*
X161020057Y-59285713D02*
X160972438Y-59238094D01*
X160972438Y-59238094D02*
X160924819Y-59142856D01*
X160924819Y-59142856D02*
X160924819Y-58904761D01*
X160924819Y-58904761D02*
X160972438Y-58809523D01*
X160972438Y-58809523D02*
X161020057Y-58761904D01*
X161020057Y-58761904D02*
X161115295Y-58714285D01*
X161115295Y-58714285D02*
X161210533Y-58714285D01*
X161210533Y-58714285D02*
X161353390Y-58761904D01*
X161353390Y-58761904D02*
X161924819Y-59333332D01*
X161924819Y-59333332D02*
X161924819Y-58714285D01*
X112354819Y-53190475D02*
X111354819Y-53190475D01*
X111354819Y-53190475D02*
X112069104Y-52857142D01*
X112069104Y-52857142D02*
X111354819Y-52523809D01*
X111354819Y-52523809D02*
X112354819Y-52523809D01*
X111354819Y-51761904D02*
X112069104Y-51761904D01*
X112069104Y-51761904D02*
X112211961Y-51809523D01*
X112211961Y-51809523D02*
X112307200Y-51904761D01*
X112307200Y-51904761D02*
X112354819Y-52047618D01*
X112354819Y-52047618D02*
X112354819Y-52142856D01*
X112354819Y-50761904D02*
X112354819Y-51333332D01*
X112354819Y-51047618D02*
X111354819Y-51047618D01*
X111354819Y-51047618D02*
X111497676Y-51142856D01*
X111497676Y-51142856D02*
X111592914Y-51238094D01*
X111592914Y-51238094D02*
X111640533Y-51333332D01*
X136084819Y-111166666D02*
X135608628Y-111499999D01*
X136084819Y-111738094D02*
X135084819Y-111738094D01*
X135084819Y-111738094D02*
X135084819Y-111357142D01*
X135084819Y-111357142D02*
X135132438Y-111261904D01*
X135132438Y-111261904D02*
X135180057Y-111214285D01*
X135180057Y-111214285D02*
X135275295Y-111166666D01*
X135275295Y-111166666D02*
X135418152Y-111166666D01*
X135418152Y-111166666D02*
X135513390Y-111214285D01*
X135513390Y-111214285D02*
X135561009Y-111261904D01*
X135561009Y-111261904D02*
X135608628Y-111357142D01*
X135608628Y-111357142D02*
X135608628Y-111738094D01*
X135084819Y-110833332D02*
X135084819Y-110214285D01*
X135084819Y-110214285D02*
X135465771Y-110547618D01*
X135465771Y-110547618D02*
X135465771Y-110404761D01*
X135465771Y-110404761D02*
X135513390Y-110309523D01*
X135513390Y-110309523D02*
X135561009Y-110261904D01*
X135561009Y-110261904D02*
X135656247Y-110214285D01*
X135656247Y-110214285D02*
X135894342Y-110214285D01*
X135894342Y-110214285D02*
X135989580Y-110261904D01*
X135989580Y-110261904D02*
X136037200Y-110309523D01*
X136037200Y-110309523D02*
X136084819Y-110404761D01*
X136084819Y-110404761D02*
X136084819Y-110690475D01*
X136084819Y-110690475D02*
X136037200Y-110785713D01*
X136037200Y-110785713D02*
X135989580Y-110833332D01*
X107214819Y-84651904D02*
X108024342Y-84651904D01*
X108024342Y-84651904D02*
X108119580Y-84604285D01*
X108119580Y-84604285D02*
X108167200Y-84556666D01*
X108167200Y-84556666D02*
X108214819Y-84461428D01*
X108214819Y-84461428D02*
X108214819Y-84270952D01*
X108214819Y-84270952D02*
X108167200Y-84175714D01*
X108167200Y-84175714D02*
X108119580Y-84128095D01*
X108119580Y-84128095D02*
X108024342Y-84080476D01*
X108024342Y-84080476D02*
X107214819Y-84080476D01*
X108214819Y-83080476D02*
X108214819Y-83651904D01*
X108214819Y-83366190D02*
X107214819Y-83366190D01*
X107214819Y-83366190D02*
X107357676Y-83461428D01*
X107357676Y-83461428D02*
X107452914Y-83556666D01*
X107452914Y-83556666D02*
X107500533Y-83651904D01*
X161204819Y-69333333D02*
X161919104Y-69333333D01*
X161919104Y-69333333D02*
X162061961Y-69380952D01*
X162061961Y-69380952D02*
X162157200Y-69476190D01*
X162157200Y-69476190D02*
X162204819Y-69619047D01*
X162204819Y-69619047D02*
X162204819Y-69714285D01*
X162204819Y-68333333D02*
X162204819Y-68904761D01*
X162204819Y-68619047D02*
X161204819Y-68619047D01*
X161204819Y-68619047D02*
X161347676Y-68714285D01*
X161347676Y-68714285D02*
X161442914Y-68809523D01*
X161442914Y-68809523D02*
X161490533Y-68904761D01*
X165864700Y-63071428D02*
X165864700Y-61928571D01*
X166436128Y-62499999D02*
X165293271Y-62499999D01*
X165864700Y-76071428D02*
X165864700Y-74928571D01*
X149309524Y-40554819D02*
X149309524Y-39554819D01*
X149309524Y-39554819D02*
X149642857Y-40269104D01*
X149642857Y-40269104D02*
X149976190Y-39554819D01*
X149976190Y-39554819D02*
X149976190Y-40554819D01*
X150738095Y-39554819D02*
X150738095Y-40269104D01*
X150738095Y-40269104D02*
X150690476Y-40411961D01*
X150690476Y-40411961D02*
X150595238Y-40507200D01*
X150595238Y-40507200D02*
X150452381Y-40554819D01*
X150452381Y-40554819D02*
X150357143Y-40554819D01*
X151642857Y-39888152D02*
X151642857Y-40554819D01*
X151404762Y-39507200D02*
X151166667Y-40221485D01*
X151166667Y-40221485D02*
X151785714Y-40221485D01*
X113489688Y-136227524D02*
X112489688Y-136227524D01*
X112489688Y-136227524D02*
X112489688Y-135989429D01*
X112489688Y-135989429D02*
X112537307Y-135846572D01*
X112537307Y-135846572D02*
X112632545Y-135751334D01*
X112632545Y-135751334D02*
X112727783Y-135703715D01*
X112727783Y-135703715D02*
X112918259Y-135656096D01*
X112918259Y-135656096D02*
X113061116Y-135656096D01*
X113061116Y-135656096D02*
X113251592Y-135703715D01*
X113251592Y-135703715D02*
X113346830Y-135751334D01*
X113346830Y-135751334D02*
X113442069Y-135846572D01*
X113442069Y-135846572D02*
X113489688Y-135989429D01*
X113489688Y-135989429D02*
X113489688Y-136227524D01*
X112584926Y-135275143D02*
X112537307Y-135227524D01*
X112537307Y-135227524D02*
X112489688Y-135132286D01*
X112489688Y-135132286D02*
X112489688Y-134894191D01*
X112489688Y-134894191D02*
X112537307Y-134798953D01*
X112537307Y-134798953D02*
X112584926Y-134751334D01*
X112584926Y-134751334D02*
X112680164Y-134703715D01*
X112680164Y-134703715D02*
X112775402Y-134703715D01*
X112775402Y-134703715D02*
X112918259Y-134751334D01*
X112918259Y-134751334D02*
X113489688Y-135322762D01*
X113489688Y-135322762D02*
X113489688Y-134703715D01*
X169604819Y-53190475D02*
X168604819Y-53190475D01*
X168604819Y-53190475D02*
X169319104Y-52857142D01*
X169319104Y-52857142D02*
X168604819Y-52523809D01*
X168604819Y-52523809D02*
X169604819Y-52523809D01*
X168604819Y-51761904D02*
X169319104Y-51761904D01*
X169319104Y-51761904D02*
X169461961Y-51809523D01*
X169461961Y-51809523D02*
X169557200Y-51904761D01*
X169557200Y-51904761D02*
X169604819Y-52047618D01*
X169604819Y-52047618D02*
X169604819Y-52142856D01*
X168700057Y-51333332D02*
X168652438Y-51285713D01*
X168652438Y-51285713D02*
X168604819Y-51190475D01*
X168604819Y-51190475D02*
X168604819Y-50952380D01*
X168604819Y-50952380D02*
X168652438Y-50857142D01*
X168652438Y-50857142D02*
X168700057Y-50809523D01*
X168700057Y-50809523D02*
X168795295Y-50761904D01*
X168795295Y-50761904D02*
X168890533Y-50761904D01*
X168890533Y-50761904D02*
X169033390Y-50809523D01*
X169033390Y-50809523D02*
X169604819Y-51380951D01*
X169604819Y-51380951D02*
X169604819Y-50761904D01*
X106494510Y-136227524D02*
X105494510Y-136227524D01*
X105494510Y-136227524D02*
X105494510Y-135989429D01*
X105494510Y-135989429D02*
X105542129Y-135846572D01*
X105542129Y-135846572D02*
X105637367Y-135751334D01*
X105637367Y-135751334D02*
X105732605Y-135703715D01*
X105732605Y-135703715D02*
X105923081Y-135656096D01*
X105923081Y-135656096D02*
X106065938Y-135656096D01*
X106065938Y-135656096D02*
X106256414Y-135703715D01*
X106256414Y-135703715D02*
X106351652Y-135751334D01*
X106351652Y-135751334D02*
X106446891Y-135846572D01*
X106446891Y-135846572D02*
X106494510Y-135989429D01*
X106494510Y-135989429D02*
X106494510Y-136227524D01*
X106494510Y-134703715D02*
X106494510Y-135275143D01*
X106494510Y-134989429D02*
X105494510Y-134989429D01*
X105494510Y-134989429D02*
X105637367Y-135084667D01*
X105637367Y-135084667D02*
X105732605Y-135179905D01*
X105732605Y-135179905D02*
X105780224Y-135275143D01*
X122309524Y-46354819D02*
X122309524Y-45354819D01*
X122309524Y-45354819D02*
X122642857Y-46069104D01*
X122642857Y-46069104D02*
X122976190Y-45354819D01*
X122976190Y-45354819D02*
X122976190Y-46354819D01*
X123738095Y-45354819D02*
X123738095Y-46069104D01*
X123738095Y-46069104D02*
X123690476Y-46211961D01*
X123690476Y-46211961D02*
X123595238Y-46307200D01*
X123595238Y-46307200D02*
X123452381Y-46354819D01*
X123452381Y-46354819D02*
X123357143Y-46354819D01*
X124119048Y-45354819D02*
X124738095Y-45354819D01*
X124738095Y-45354819D02*
X124404762Y-45735771D01*
X124404762Y-45735771D02*
X124547619Y-45735771D01*
X124547619Y-45735771D02*
X124642857Y-45783390D01*
X124642857Y-45783390D02*
X124690476Y-45831009D01*
X124690476Y-45831009D02*
X124738095Y-45926247D01*
X124738095Y-45926247D02*
X124738095Y-46164342D01*
X124738095Y-46164342D02*
X124690476Y-46259580D01*
X124690476Y-46259580D02*
X124642857Y-46307200D01*
X124642857Y-46307200D02*
X124547619Y-46354819D01*
X124547619Y-46354819D02*
X124261905Y-46354819D01*
X124261905Y-46354819D02*
X124166667Y-46307200D01*
X124166667Y-46307200D02*
X124119048Y-46259580D01*
X130060131Y-108954945D02*
X129583940Y-109288278D01*
X130060131Y-109526373D02*
X129060131Y-109526373D01*
X129060131Y-109526373D02*
X129060131Y-109145421D01*
X129060131Y-109145421D02*
X129107750Y-109050183D01*
X129107750Y-109050183D02*
X129155369Y-109002564D01*
X129155369Y-109002564D02*
X129250607Y-108954945D01*
X129250607Y-108954945D02*
X129393464Y-108954945D01*
X129393464Y-108954945D02*
X129488702Y-109002564D01*
X129488702Y-109002564D02*
X129536321Y-109050183D01*
X129536321Y-109050183D02*
X129583940Y-109145421D01*
X129583940Y-109145421D02*
X129583940Y-109526373D01*
X129155369Y-108573992D02*
X129107750Y-108526373D01*
X129107750Y-108526373D02*
X129060131Y-108431135D01*
X129060131Y-108431135D02*
X129060131Y-108193040D01*
X129060131Y-108193040D02*
X129107750Y-108097802D01*
X129107750Y-108097802D02*
X129155369Y-108050183D01*
X129155369Y-108050183D02*
X129250607Y-108002564D01*
X129250607Y-108002564D02*
X129345845Y-108002564D01*
X129345845Y-108002564D02*
X129488702Y-108050183D01*
X129488702Y-108050183D02*
X130060131Y-108621611D01*
X130060131Y-108621611D02*
X130060131Y-108002564D01*
X129157200Y-106761904D02*
X129204819Y-106619047D01*
X129204819Y-106619047D02*
X129204819Y-106380952D01*
X129204819Y-106380952D02*
X129157200Y-106285714D01*
X129157200Y-106285714D02*
X129109580Y-106238095D01*
X129109580Y-106238095D02*
X129014342Y-106190476D01*
X129014342Y-106190476D02*
X128919104Y-106190476D01*
X128919104Y-106190476D02*
X128823866Y-106238095D01*
X128823866Y-106238095D02*
X128776247Y-106285714D01*
X128776247Y-106285714D02*
X128728628Y-106380952D01*
X128728628Y-106380952D02*
X128681009Y-106571428D01*
X128681009Y-106571428D02*
X128633390Y-106666666D01*
X128633390Y-106666666D02*
X128585771Y-106714285D01*
X128585771Y-106714285D02*
X128490533Y-106761904D01*
X128490533Y-106761904D02*
X128395295Y-106761904D01*
X128395295Y-106761904D02*
X128300057Y-106714285D01*
X128300057Y-106714285D02*
X128252438Y-106666666D01*
X128252438Y-106666666D02*
X128204819Y-106571428D01*
X128204819Y-106571428D02*
X128204819Y-106333333D01*
X128204819Y-106333333D02*
X128252438Y-106190476D01*
X129204819Y-105238095D02*
X129204819Y-105809523D01*
X129204819Y-105523809D02*
X128204819Y-105523809D01*
X128204819Y-105523809D02*
X128347676Y-105619047D01*
X128347676Y-105619047D02*
X128442914Y-105714285D01*
X128442914Y-105714285D02*
X128490533Y-105809523D01*
X141657200Y-106761904D02*
X141704819Y-106619047D01*
X141704819Y-106619047D02*
X141704819Y-106380952D01*
X141704819Y-106380952D02*
X141657200Y-106285714D01*
X141657200Y-106285714D02*
X141609580Y-106238095D01*
X141609580Y-106238095D02*
X141514342Y-106190476D01*
X141514342Y-106190476D02*
X141419104Y-106190476D01*
X141419104Y-106190476D02*
X141323866Y-106238095D01*
X141323866Y-106238095D02*
X141276247Y-106285714D01*
X141276247Y-106285714D02*
X141228628Y-106380952D01*
X141228628Y-106380952D02*
X141181009Y-106571428D01*
X141181009Y-106571428D02*
X141133390Y-106666666D01*
X141133390Y-106666666D02*
X141085771Y-106714285D01*
X141085771Y-106714285D02*
X140990533Y-106761904D01*
X140990533Y-106761904D02*
X140895295Y-106761904D01*
X140895295Y-106761904D02*
X140800057Y-106714285D01*
X140800057Y-106714285D02*
X140752438Y-106666666D01*
X140752438Y-106666666D02*
X140704819Y-106571428D01*
X140704819Y-106571428D02*
X140704819Y-106333333D01*
X140704819Y-106333333D02*
X140752438Y-106190476D01*
X140800057Y-105809523D02*
X140752438Y-105761904D01*
X140752438Y-105761904D02*
X140704819Y-105666666D01*
X140704819Y-105666666D02*
X140704819Y-105428571D01*
X140704819Y-105428571D02*
X140752438Y-105333333D01*
X140752438Y-105333333D02*
X140800057Y-105285714D01*
X140800057Y-105285714D02*
X140895295Y-105238095D01*
X140895295Y-105238095D02*
X140990533Y-105238095D01*
X140990533Y-105238095D02*
X141133390Y-105285714D01*
X141133390Y-105285714D02*
X141704819Y-105857142D01*
X141704819Y-105857142D02*
X141704819Y-105238095D01*
X135954819Y-61238094D02*
X134954819Y-61238094D01*
X134954819Y-61238094D02*
X134954819Y-60999999D01*
X134954819Y-60999999D02*
X135002438Y-60857142D01*
X135002438Y-60857142D02*
X135097676Y-60761904D01*
X135097676Y-60761904D02*
X135192914Y-60714285D01*
X135192914Y-60714285D02*
X135383390Y-60666666D01*
X135383390Y-60666666D02*
X135526247Y-60666666D01*
X135526247Y-60666666D02*
X135716723Y-60714285D01*
X135716723Y-60714285D02*
X135811961Y-60761904D01*
X135811961Y-60761904D02*
X135907200Y-60857142D01*
X135907200Y-60857142D02*
X135954819Y-60999999D01*
X135954819Y-60999999D02*
X135954819Y-61238094D01*
X135954819Y-59666666D02*
X135478628Y-59999999D01*
X135954819Y-60238094D02*
X134954819Y-60238094D01*
X134954819Y-60238094D02*
X134954819Y-59857142D01*
X134954819Y-59857142D02*
X135002438Y-59761904D01*
X135002438Y-59761904D02*
X135050057Y-59714285D01*
X135050057Y-59714285D02*
X135145295Y-59666666D01*
X135145295Y-59666666D02*
X135288152Y-59666666D01*
X135288152Y-59666666D02*
X135383390Y-59714285D01*
X135383390Y-59714285D02*
X135431009Y-59761904D01*
X135431009Y-59761904D02*
X135478628Y-59857142D01*
X135478628Y-59857142D02*
X135478628Y-60238094D01*
X135954819Y-58714285D02*
X135954819Y-59285713D01*
X135954819Y-58999999D02*
X134954819Y-58999999D01*
X134954819Y-58999999D02*
X135097676Y-59095237D01*
X135097676Y-59095237D02*
X135192914Y-59190475D01*
X135192914Y-59190475D02*
X135240533Y-59285713D01*
D11*
%TO.C,R1*%
X110187540Y-140602470D02*
X116727540Y-140602470D01*
X110187540Y-140932470D02*
X110187540Y-140602470D01*
X110187540Y-143012470D02*
X110187540Y-143342470D01*
X110187540Y-143342470D02*
X116727540Y-143342470D01*
X116727540Y-140602470D02*
X116727540Y-140932470D01*
X116727540Y-143342470D02*
X116727540Y-143012470D01*
%TO.C,RS1*%
X120962868Y-134141715D02*
X120962868Y-126861715D01*
X170962868Y-118001715D02*
X120962868Y-118001715D01*
X120962868Y-143501715D01*
X170962868Y-143501715D01*
X170962868Y-118001715D01*
%TO.C,DR2*%
X160230000Y-70000000D02*
X140230000Y-70000000D01*
X140230000Y-50000000D01*
X160230000Y-50000000D01*
X160230000Y-70000000D01*
%TO.C,MJ1*%
X106090000Y-44940000D02*
X106090000Y-59060000D01*
X106090000Y-59060000D02*
X110810000Y-59060000D01*
X106700000Y-45550000D02*
X106700000Y-58450000D01*
X106700000Y-47900000D02*
X107200000Y-47900000D01*
X106700000Y-48000000D02*
X107200000Y-48000000D01*
X106700000Y-49900000D02*
X107200000Y-49900000D01*
X106700000Y-50000000D02*
X107200000Y-50000000D01*
X106700000Y-51900000D02*
X107200000Y-51900000D01*
X106700000Y-52000000D02*
X107200000Y-52000000D01*
X106700000Y-53900000D02*
X107200000Y-53900000D01*
X106700000Y-54000000D02*
X107200000Y-54000000D01*
X106700000Y-55900000D02*
X107200000Y-55900000D01*
X106700000Y-56000000D02*
X107200000Y-56000000D01*
X106700000Y-58450000D02*
X110200000Y-58450000D01*
X107200000Y-47900000D02*
X107200000Y-48100000D01*
X107200000Y-48100000D02*
X106700000Y-48100000D01*
X107200000Y-49900000D02*
X107200000Y-50100000D01*
X107200000Y-50100000D02*
X106700000Y-50100000D01*
X107200000Y-51900000D02*
X107200000Y-52100000D01*
X107200000Y-52100000D02*
X106700000Y-52100000D01*
X107200000Y-53900000D02*
X107200000Y-54100000D01*
X107200000Y-54100000D02*
X106700000Y-54100000D01*
X107200000Y-55900000D02*
X107200000Y-56100000D01*
X107200000Y-56100000D02*
X106700000Y-56100000D01*
X108200000Y-44940000D02*
X108200000Y-45550000D01*
X108200000Y-59060000D02*
X108200000Y-58450000D01*
X109500000Y-44940000D02*
X109500000Y-45550000D01*
X109500000Y-59060000D02*
X109500000Y-58450000D01*
X110200000Y-45550000D02*
X106700000Y-45550000D01*
X110200000Y-47500000D02*
X110200000Y-45550000D01*
X110200000Y-56500000D02*
X110810000Y-56500000D01*
X110200000Y-58450000D02*
X110200000Y-56500000D01*
X110810000Y-44940000D02*
X106090000Y-44940000D01*
X110810000Y-46700000D02*
X111010000Y-46700000D01*
X110810000Y-47500000D02*
X110200000Y-47500000D01*
X110810000Y-59060000D02*
X110810000Y-44940000D01*
X110910000Y-46700000D02*
X110910000Y-46400000D01*
X111010000Y-46400000D02*
X110810000Y-46400000D01*
X111010000Y-46700000D02*
X111010000Y-46400000D01*
X111110000Y-44640000D02*
X109860000Y-44640000D01*
X111110000Y-45890000D02*
X111110000Y-44640000D01*
%TO.C,R3*%
X136630000Y-107730000D02*
X136960000Y-107730000D01*
X136630000Y-114270000D02*
X136630000Y-107730000D01*
X136960000Y-114270000D02*
X136630000Y-114270000D01*
X139040000Y-114270000D02*
X139370000Y-114270000D01*
X139370000Y-107730000D02*
X139040000Y-107730000D01*
X139370000Y-114270000D02*
X139370000Y-107730000D01*
%TO.C,U1*%
X108760000Y-73500000D02*
X161570000Y-73500000D01*
X161570000Y-94280000D01*
X108760000Y-94280000D01*
X108760000Y-73500000D01*
D12*
%TO.C,G\u002A\u002A\u002A*%
G36*
X100968856Y-125329303D02*
G01*
X101048316Y-125412241D01*
X100797373Y-125664232D01*
X100546430Y-125916223D01*
X100682808Y-126050549D01*
X100750652Y-126121487D01*
X100799489Y-126180397D01*
X100819149Y-126214965D01*
X100819185Y-126215710D01*
X100801403Y-126252739D01*
X100761828Y-126298972D01*
X100721115Y-126332032D01*
X100707544Y-126336655D01*
X100684761Y-126318512D01*
X100631815Y-126269171D01*
X100556709Y-126196268D01*
X100471549Y-126111560D01*
X100247624Y-125886465D01*
X100568510Y-125566415D01*
X100889396Y-125246365D01*
X100968856Y-125329303D01*
G37*
G36*
X103633838Y-125474462D02*
G01*
X103691497Y-125492181D01*
X103699485Y-125498156D01*
X103710208Y-125526190D01*
X103718594Y-125589028D01*
X103724812Y-125690617D01*
X103729032Y-125834904D01*
X103731423Y-126025837D01*
X103732154Y-126259736D01*
X103732154Y-126988649D01*
X104160932Y-126996146D01*
X104589710Y-127003643D01*
X104598178Y-127137129D01*
X104596218Y-127238493D01*
X104574575Y-127290562D01*
X104570954Y-127293251D01*
X104529492Y-127302512D01*
X104444692Y-127309476D01*
X104326562Y-127314219D01*
X104185111Y-127316819D01*
X104030348Y-127317355D01*
X103872281Y-127315902D01*
X103720920Y-127312539D01*
X103586273Y-127307344D01*
X103478348Y-127300394D01*
X103407155Y-127291766D01*
X103383687Y-127284050D01*
X103373908Y-127258157D01*
X103366064Y-127199518D01*
X103360018Y-127104319D01*
X103355633Y-126968747D01*
X103352772Y-126788988D01*
X103351298Y-126561227D01*
X103351018Y-126374959D01*
X103351266Y-126130970D01*
X103352188Y-125935938D01*
X103354049Y-125784375D01*
X103357112Y-125670793D01*
X103361643Y-125589702D01*
X103367906Y-125535613D01*
X103376166Y-125503038D01*
X103386687Y-125486488D01*
X103394080Y-125482011D01*
X103462934Y-125468204D01*
X103550252Y-125466078D01*
X103633838Y-125474462D01*
G37*
G36*
X100378255Y-126098598D02*
G01*
X100502019Y-126229286D01*
X100582792Y-126338606D01*
X100623633Y-126434246D01*
X100627601Y-126523892D01*
X100597753Y-126615230D01*
X100589965Y-126630665D01*
X100541610Y-126699190D01*
X100465676Y-126783378D01*
X100378684Y-126866953D01*
X100297150Y-126933639D01*
X100256077Y-126959628D01*
X100156402Y-126986434D01*
X100048225Y-126980114D01*
X99988853Y-126958603D01*
X99945833Y-126926896D01*
X99876363Y-126866995D01*
X99792337Y-126789358D01*
X99750482Y-126749015D01*
X99593238Y-126595283D01*
X99863986Y-126595283D01*
X99960049Y-126683761D01*
X100020801Y-126735762D01*
X100066244Y-126767575D01*
X100078448Y-126772239D01*
X100112612Y-126757358D01*
X100170766Y-126720190D01*
X100191609Y-126705230D01*
X100270211Y-126635600D01*
X100342057Y-126554144D01*
X100348865Y-126544856D01*
X100389463Y-126482358D01*
X100399842Y-126438811D01*
X100383463Y-126390385D01*
X100374019Y-126371672D01*
X100330433Y-126294905D01*
X100291114Y-126253798D01*
X100246979Y-126249352D01*
X100188948Y-126282571D01*
X100107937Y-126354454D01*
X100054228Y-126406939D01*
X99863986Y-126595283D01*
X99593238Y-126595283D01*
X99566559Y-126569200D01*
X99886024Y-126248900D01*
X100205489Y-125928601D01*
X100378255Y-126098598D01*
G37*
G36*
X112682266Y-125948282D02*
G01*
X112844786Y-126005603D01*
X112969475Y-126101624D01*
X113057056Y-126237112D01*
X113108251Y-126412835D01*
X113123839Y-126611639D01*
X113118023Y-126782205D01*
X113097171Y-126914146D01*
X113057668Y-127022071D01*
X112998909Y-127116558D01*
X112899934Y-127208470D01*
X112763723Y-127277198D01*
X112603997Y-127318739D01*
X112434476Y-127329095D01*
X112316603Y-127315502D01*
X112140313Y-127257355D01*
X112002089Y-127160614D01*
X111902449Y-127026117D01*
X111841910Y-126854701D01*
X111825403Y-126690969D01*
X112179562Y-126690969D01*
X112204789Y-126840366D01*
X112259807Y-126954569D01*
X112341979Y-127029335D01*
X112448670Y-127060420D01*
X112525509Y-127055977D01*
X112601212Y-127036139D01*
X112656426Y-127010048D01*
X112659040Y-127008013D01*
X112714169Y-126932449D01*
X112752467Y-126817496D01*
X112769789Y-126676717D01*
X112770373Y-126643799D01*
X112759113Y-126468784D01*
X112724037Y-126340190D01*
X112662623Y-126254326D01*
X112572349Y-126207502D01*
X112464138Y-126195692D01*
X112349474Y-126219453D01*
X112264679Y-126287749D01*
X112209035Y-126401393D01*
X112186760Y-126510621D01*
X112179562Y-126690969D01*
X111825403Y-126690969D01*
X111820991Y-126647205D01*
X111826149Y-126522835D01*
X111862622Y-126324809D01*
X111935665Y-126167087D01*
X112045550Y-126049423D01*
X112192550Y-125971571D01*
X112376933Y-125933284D01*
X112481191Y-125928893D01*
X112682266Y-125948282D01*
G37*
G36*
X116938753Y-125444231D02*
G01*
X117001293Y-125462910D01*
X117012025Y-125470932D01*
X117029677Y-125517008D01*
X117040940Y-125608340D01*
X117044694Y-125729560D01*
X117044694Y-125955519D01*
X117236754Y-125955519D01*
X117428814Y-125955519D01*
X117420516Y-126084833D01*
X117412218Y-126214147D01*
X117228456Y-126222197D01*
X117044694Y-126230247D01*
X117044694Y-126564100D01*
X117046264Y-126726523D01*
X117053844Y-126842792D01*
X117071736Y-126921173D01*
X117104244Y-126969933D01*
X117155671Y-126997337D01*
X117230321Y-127011654D01*
X117280319Y-127016721D01*
X117439442Y-127030867D01*
X117448014Y-127150677D01*
X117445498Y-127243614D01*
X117422525Y-127292001D01*
X117420790Y-127293186D01*
X117368575Y-127307055D01*
X117281211Y-127312706D01*
X117177351Y-127310276D01*
X117075649Y-127299901D01*
X117024958Y-127290286D01*
X116919719Y-127257278D01*
X116839610Y-127210000D01*
X116781128Y-127141273D01*
X116740771Y-127043917D01*
X116715034Y-126910751D01*
X116700415Y-126734596D01*
X116695813Y-126615701D01*
X116684727Y-126227759D01*
X116584303Y-126227759D01*
X116486922Y-126213188D01*
X116432845Y-126167862D01*
X116418542Y-126102033D01*
X116427753Y-126017534D01*
X116462953Y-125972631D01*
X116535495Y-125956427D01*
X116571187Y-125955519D01*
X116690782Y-125955519D01*
X116690782Y-125729560D01*
X116694892Y-125603360D01*
X116706468Y-125513881D01*
X116723451Y-125470932D01*
X116775280Y-125448241D01*
X116855231Y-125439341D01*
X116938753Y-125444231D01*
G37*
G36*
X101536070Y-125963523D02*
G01*
X101655930Y-126010050D01*
X101762035Y-126095858D01*
X101848433Y-126214136D01*
X101895596Y-126331285D01*
X101901077Y-126437749D01*
X101869332Y-126515214D01*
X101842613Y-126546032D01*
X101816908Y-126547403D01*
X101776156Y-126515772D01*
X101746824Y-126488100D01*
X101683533Y-126406827D01*
X101663129Y-126335781D01*
X101640286Y-126255820D01*
X101582774Y-126195823D01*
X101510230Y-126173311D01*
X101455706Y-126194240D01*
X101385482Y-126247942D01*
X101312347Y-126320792D01*
X101249090Y-126399162D01*
X101208499Y-126469426D01*
X101200321Y-126503521D01*
X101223494Y-126584981D01*
X101282252Y-126640580D01*
X101360460Y-126661464D01*
X101441978Y-126638778D01*
X101444255Y-126637364D01*
X101467480Y-126613060D01*
X101453476Y-126579932D01*
X101432360Y-126555148D01*
X101398806Y-126512985D01*
X101400895Y-126482316D01*
X101440335Y-126438454D01*
X101440447Y-126438341D01*
X101500183Y-126378605D01*
X101626385Y-126504807D01*
X101700838Y-126586061D01*
X101731673Y-126646662D01*
X101717972Y-126699742D01*
X101658817Y-126758432D01*
X101605871Y-126798369D01*
X101490026Y-126862429D01*
X101380037Y-126876779D01*
X101263376Y-126841864D01*
X101209133Y-126812471D01*
X101089644Y-126716123D01*
X101012090Y-126600147D01*
X100979785Y-126473564D01*
X100996041Y-126345393D01*
X101018320Y-126292926D01*
X101077615Y-126208754D01*
X101167320Y-126114557D01*
X101270575Y-126027328D01*
X101308469Y-126000469D01*
X101415887Y-125959412D01*
X101536070Y-125963523D01*
G37*
G36*
X115822764Y-125948271D02*
G01*
X115989650Y-126007595D01*
X116119310Y-126106591D01*
X116211484Y-126244986D01*
X116265910Y-126422507D01*
X116282422Y-126622507D01*
X116263386Y-126828396D01*
X116208016Y-127004272D01*
X116118919Y-127145131D01*
X115998702Y-127245968D01*
X115943232Y-127273665D01*
X115826060Y-127306723D01*
X115681869Y-127325059D01*
X115536617Y-127326506D01*
X115443494Y-127315385D01*
X115276960Y-127257340D01*
X115144358Y-127156815D01*
X115065250Y-127050816D01*
X115026018Y-126973866D01*
X115001557Y-126894583D01*
X114987421Y-126794080D01*
X114980874Y-126692467D01*
X114980808Y-126581671D01*
X115337412Y-126581671D01*
X115338155Y-126756609D01*
X115369277Y-126888886D01*
X115431930Y-126981779D01*
X115492926Y-127024019D01*
X115570086Y-127058962D01*
X115627237Y-127068928D01*
X115691676Y-127055894D01*
X115734707Y-127041528D01*
X115818248Y-126992108D01*
X115874357Y-126908472D01*
X115905540Y-126784969D01*
X115914357Y-126636119D01*
X115904647Y-126464302D01*
X115872549Y-126338775D01*
X115815173Y-126254995D01*
X115729629Y-126208414D01*
X115633719Y-126194704D01*
X115521832Y-126207828D01*
X115439103Y-126257293D01*
X115382272Y-126347354D01*
X115348079Y-126482271D01*
X115337412Y-126581671D01*
X114980808Y-126581671D01*
X114980760Y-126501457D01*
X115002637Y-126350341D01*
X115049213Y-126228090D01*
X115119508Y-126127844D01*
X115234760Y-126024851D01*
X115370040Y-125960945D01*
X115536189Y-125931806D01*
X115618915Y-125928893D01*
X115822764Y-125948271D01*
G37*
G36*
X118495941Y-125464399D02*
G01*
X118670214Y-125523523D01*
X118806376Y-125618657D01*
X118901280Y-125746200D01*
X118951779Y-125902548D01*
X118959454Y-125994957D01*
X118954388Y-126086070D01*
X118933966Y-126170525D01*
X118893296Y-126255983D01*
X118827489Y-126350103D01*
X118731655Y-126460545D01*
X118600902Y-126594971D01*
X118534944Y-126659889D01*
X118210571Y-126976419D01*
X118600891Y-126990031D01*
X118991211Y-127003643D01*
X118999679Y-127137129D01*
X118997719Y-127238493D01*
X118976076Y-127290562D01*
X118972455Y-127293251D01*
X118935985Y-127299728D01*
X118853231Y-127305518D01*
X118732355Y-127310339D01*
X118581517Y-127313907D01*
X118408881Y-127315941D01*
X118307138Y-127316302D01*
X118100746Y-127315945D01*
X117942288Y-127314301D01*
X117825258Y-127310970D01*
X117743150Y-127305555D01*
X117689456Y-127297656D01*
X117657672Y-127286876D01*
X117643431Y-127275653D01*
X117622001Y-127212563D01*
X117625627Y-127134275D01*
X117657922Y-127054503D01*
X117733434Y-126949431D01*
X117852911Y-126818242D01*
X118017104Y-126660122D01*
X118226762Y-126474256D01*
X118253116Y-126451669D01*
X118406440Y-126309673D01*
X118511251Y-126185567D01*
X118569036Y-126075681D01*
X118581280Y-125976344D01*
X118549467Y-125883887D01*
X118506287Y-125826205D01*
X118450995Y-125784075D01*
X118373987Y-125766634D01*
X118324610Y-125764951D01*
X118210143Y-125781343D01*
X118124040Y-125835167D01*
X118057096Y-125933394D01*
X118034387Y-125984761D01*
X117991623Y-126091639D01*
X117833503Y-126091639D01*
X117733612Y-126087458D01*
X117679049Y-126068230D01*
X117660930Y-126023923D01*
X117670366Y-125944508D01*
X117676721Y-125914683D01*
X117737322Y-125759331D01*
X117839764Y-125630585D01*
X117976217Y-125532750D01*
X118138851Y-125470130D01*
X118319836Y-125447027D01*
X118495941Y-125464399D01*
G37*
G36*
X100776757Y-126513220D02*
G01*
X100826336Y-126549882D01*
X100848451Y-126570016D01*
X100891629Y-126616287D01*
X100914373Y-126661316D01*
X100918211Y-126719358D01*
X100904668Y-126804667D01*
X100883513Y-126897257D01*
X100878946Y-126928829D01*
X100892808Y-126942578D01*
X100936795Y-126940985D01*
X101021967Y-126926648D01*
X101110094Y-126912588D01*
X101165188Y-126913725D01*
X101207584Y-126934447D01*
X101255424Y-126977046D01*
X101301192Y-127029245D01*
X101318761Y-127067025D01*
X101316203Y-127074268D01*
X101281416Y-127088386D01*
X101207380Y-127108738D01*
X101108356Y-127131512D01*
X101079658Y-127137486D01*
X100977656Y-127159467D01*
X100898023Y-127178910D01*
X100854399Y-127192411D01*
X100850496Y-127194662D01*
X100839981Y-127225683D01*
X100823140Y-127297326D01*
X100802924Y-127396561D01*
X100794043Y-127443845D01*
X100771689Y-127550396D01*
X100748760Y-127634251D01*
X100728993Y-127682599D01*
X100722443Y-127689267D01*
X100687506Y-127677307D01*
X100634843Y-127635923D01*
X100617145Y-127618417D01*
X100577648Y-127571470D01*
X100557046Y-127524374D01*
X100554311Y-127463413D01*
X100568413Y-127374869D01*
X100591307Y-127274194D01*
X100595598Y-127243930D01*
X100582155Y-127230018D01*
X100539590Y-127230291D01*
X100456518Y-127242578D01*
X100439796Y-127245334D01*
X100347541Y-127259043D01*
X100289897Y-127259218D01*
X100247881Y-127241933D01*
X100202510Y-127203257D01*
X100193113Y-127194288D01*
X100142166Y-127141328D01*
X100113595Y-127103576D01*
X100111361Y-127097049D01*
X100136295Y-127084481D01*
X100203371Y-127066046D01*
X100300999Y-127044677D01*
X100370107Y-127031544D01*
X100492112Y-127008105D01*
X100570403Y-126988186D01*
X100615200Y-126967832D01*
X100636722Y-126943092D01*
X100642328Y-126926240D01*
X100655328Y-126869199D01*
X100675554Y-126780042D01*
X100694889Y-126694604D01*
X100717235Y-126603434D01*
X100737205Y-126535164D01*
X100749641Y-126506021D01*
X100776757Y-126513220D01*
G37*
G36*
X107016248Y-125467937D02*
G01*
X107160103Y-125471096D01*
X107213524Y-125472942D01*
X107445180Y-125486814D01*
X107630074Y-125510923D01*
X107775419Y-125548347D01*
X107888427Y-125602160D01*
X107976312Y-125675436D01*
X108046286Y-125771252D01*
X108084227Y-125844158D01*
X108112767Y-125909287D01*
X108132459Y-125969010D01*
X108144940Y-126035584D01*
X108151848Y-126121266D01*
X108154820Y-126238312D01*
X108155480Y-126377491D01*
X108152887Y-126570477D01*
X108143266Y-126719933D01*
X108124431Y-126836557D01*
X108094194Y-126931052D01*
X108050370Y-127014119D01*
X108014989Y-127065149D01*
X107935683Y-127146910D01*
X107830289Y-127210815D01*
X107693355Y-127258264D01*
X107519428Y-127290658D01*
X107303057Y-127309396D01*
X107038788Y-127315878D01*
X107038510Y-127315879D01*
X106876968Y-127313067D01*
X106767021Y-127303660D01*
X106709802Y-127287765D01*
X106705016Y-127284050D01*
X106695250Y-127258186D01*
X106687414Y-127199602D01*
X106681371Y-127104490D01*
X106677665Y-126990031D01*
X107025217Y-126990031D01*
X107283085Y-126990031D01*
X107404313Y-126986769D01*
X107511712Y-126978038D01*
X107588838Y-126965418D01*
X107609912Y-126958611D01*
X107671669Y-126923153D01*
X107716436Y-126875777D01*
X107747119Y-126807633D01*
X107766626Y-126709867D01*
X107777860Y-126573630D01*
X107782823Y-126431939D01*
X107785296Y-126279057D01*
X107783576Y-126169289D01*
X107776643Y-126091392D01*
X107763476Y-126034126D01*
X107743056Y-125986249D01*
X107742235Y-125984678D01*
X107688703Y-125899080D01*
X107626598Y-125841330D01*
X107544198Y-125806127D01*
X107429780Y-125788173D01*
X107294913Y-125782457D01*
X107039871Y-125778563D01*
X107032544Y-126384297D01*
X107025217Y-126990031D01*
X106677665Y-126990031D01*
X106676985Y-126969035D01*
X106674118Y-126789429D01*
X106672635Y-126561858D01*
X106672347Y-126372565D01*
X106672347Y-125493748D01*
X106743910Y-125475787D01*
X106796219Y-125470355D01*
X106890976Y-125467714D01*
X107016248Y-125467937D01*
G37*
G36*
X113600857Y-125438263D02*
G01*
X113675320Y-125440089D01*
X113725272Y-125451606D01*
X113755605Y-125481874D01*
X113771212Y-125539951D01*
X113776984Y-125634895D01*
X113777813Y-125765947D01*
X113777813Y-126060582D01*
X113901531Y-125991435D01*
X113978625Y-125953297D01*
X114049443Y-125934183D01*
X114136683Y-125929829D01*
X114213073Y-125932900D01*
X114323036Y-125942699D01*
X114399407Y-125961441D01*
X114462997Y-125995803D01*
X114502605Y-126025833D01*
X114597921Y-126118088D01*
X114663087Y-126221740D01*
X114703214Y-126349299D01*
X114723412Y-126513275D01*
X114726434Y-126573664D01*
X114727121Y-126740166D01*
X114713995Y-126868703D01*
X114691794Y-126956857D01*
X114627810Y-127084329D01*
X114531616Y-127199624D01*
X114420673Y-127281941D01*
X114417577Y-127283542D01*
X114329364Y-127311647D01*
X114213854Y-127327196D01*
X114097223Y-127327899D01*
X114026491Y-127317741D01*
X113937090Y-127284000D01*
X113857444Y-127237843D01*
X113795986Y-127194901D01*
X113764702Y-127185870D01*
X113750809Y-127211207D01*
X113745677Y-127241853D01*
X113725815Y-127287103D01*
X113673189Y-127308266D01*
X113644732Y-127311919D01*
X113559773Y-127313358D01*
X113488194Y-127304594D01*
X113423901Y-127288458D01*
X113423901Y-126576476D01*
X113775774Y-126576476D01*
X113784747Y-126734663D01*
X113806127Y-126832255D01*
X113859580Y-126937549D01*
X113944467Y-127009691D01*
X114047851Y-127044126D01*
X114156797Y-127036298D01*
X114249906Y-126988572D01*
X114317443Y-126902879D01*
X114359069Y-126777326D01*
X114372314Y-126621197D01*
X114368360Y-126543473D01*
X114340552Y-126397758D01*
X114285348Y-126295946D01*
X114199454Y-126233117D01*
X114149201Y-126216070D01*
X114030755Y-126209173D01*
X113930587Y-126248237D01*
X113852298Y-126326791D01*
X113799493Y-126438361D01*
X113775774Y-126576476D01*
X113423901Y-126576476D01*
X113423901Y-126379885D01*
X113423769Y-126128380D01*
X113424040Y-125926004D01*
X113425712Y-125767440D01*
X113429784Y-125647372D01*
X113437257Y-125560484D01*
X113449128Y-125501459D01*
X113466396Y-125464981D01*
X113490062Y-125445735D01*
X113521123Y-125438403D01*
X113560579Y-125437669D01*
X113600857Y-125438263D01*
G37*
G36*
X105697145Y-125460534D02*
G01*
X105787074Y-125471163D01*
X105868636Y-125495532D01*
X105964806Y-125538606D01*
X105979876Y-125545985D01*
X106093084Y-125608664D01*
X106171887Y-125672349D01*
X106234487Y-125752075D01*
X106240269Y-125761054D01*
X106288227Y-125852074D01*
X106311895Y-125930340D01*
X106312690Y-125955519D01*
X106300751Y-125998784D01*
X106267709Y-126020891D01*
X106197984Y-126031159D01*
X106184498Y-126032176D01*
X106066668Y-126033900D01*
X105986796Y-126015354D01*
X105930514Y-125971318D01*
X105901373Y-125929276D01*
X105814562Y-125833860D01*
X105691972Y-125777011D01*
X105554204Y-125760794D01*
X105402327Y-125782486D01*
X105285036Y-125844068D01*
X105209517Y-125935562D01*
X105187779Y-126005348D01*
X105171903Y-126115337D01*
X105162062Y-126251584D01*
X105158427Y-126400141D01*
X105161169Y-126547064D01*
X105170460Y-126678404D01*
X105186470Y-126780217D01*
X105198648Y-126819640D01*
X105269532Y-126921031D01*
X105379329Y-126987438D01*
X105523101Y-127016161D01*
X105559376Y-127017153D01*
X105712134Y-126995747D01*
X105833214Y-126934786D01*
X105917595Y-126838808D01*
X105960255Y-126712349D01*
X105964523Y-126651083D01*
X105964523Y-126554447D01*
X105804512Y-126554447D01*
X105690850Y-126547008D01*
X105622201Y-126520588D01*
X105590660Y-126469030D01*
X105588325Y-126386180D01*
X105588335Y-126386075D01*
X105596999Y-126295819D01*
X105964523Y-126295819D01*
X106332047Y-126295819D01*
X106329907Y-126540835D01*
X106322809Y-126712754D01*
X106301921Y-126844887D01*
X106262701Y-126951104D01*
X106200611Y-127045275D01*
X106144170Y-127108316D01*
X105997483Y-127220968D01*
X105818196Y-127293740D01*
X105612578Y-127324879D01*
X105404434Y-127315103D01*
X105211749Y-127265869D01*
X105049720Y-127176026D01*
X104923444Y-127049509D01*
X104838018Y-126890255D01*
X104832093Y-126873205D01*
X104810897Y-126791066D01*
X104796936Y-126688676D01*
X104789245Y-126555059D01*
X104786859Y-126379239D01*
X104786876Y-126358809D01*
X104787831Y-126205739D01*
X104791195Y-126094852D01*
X104798695Y-126013887D01*
X104812053Y-125950585D01*
X104832997Y-125892684D01*
X104860899Y-125832722D01*
X104956292Y-125684493D01*
X105080460Y-125575467D01*
X105237860Y-125503310D01*
X105432954Y-125465690D01*
X105575877Y-125458680D01*
X105697145Y-125460534D01*
G37*
G36*
X110566975Y-125467482D02*
G01*
X110680453Y-125469482D01*
X110846584Y-125473490D01*
X110969128Y-125478289D01*
X111058936Y-125485511D01*
X111126861Y-125496792D01*
X111183757Y-125513765D01*
X111240476Y-125538063D01*
X111286816Y-125560771D01*
X111427838Y-125652798D01*
X111520580Y-125766512D01*
X111568945Y-125908049D01*
X111578449Y-126019605D01*
X111562078Y-126196187D01*
X111506281Y-126339383D01*
X111406319Y-126457771D01*
X111290621Y-126540835D01*
X111275303Y-126556499D01*
X111273693Y-126583215D01*
X111288861Y-126628583D01*
X111323877Y-126700203D01*
X111381811Y-126805675D01*
X111436152Y-126901113D01*
X111504952Y-127022776D01*
X111562739Y-127128148D01*
X111604594Y-127208013D01*
X111625599Y-127253155D01*
X111627116Y-127258919D01*
X111603100Y-127289363D01*
X111542009Y-127309062D01*
X111460275Y-127317333D01*
X111374334Y-127313496D01*
X111300619Y-127296867D01*
X111261686Y-127274088D01*
X111233087Y-127234568D01*
X111185776Y-127157441D01*
X111126078Y-127053446D01*
X111060318Y-126933327D01*
X111053297Y-126920175D01*
X110887540Y-126608895D01*
X110712848Y-126608895D01*
X110538156Y-126608895D01*
X110538156Y-126930138D01*
X110535104Y-127099022D01*
X110525969Y-127214567D01*
X110510782Y-127276432D01*
X110505487Y-127284050D01*
X110459944Y-127303838D01*
X110383425Y-127315446D01*
X110347588Y-127316719D01*
X110265018Y-127310000D01*
X110203586Y-127293067D01*
X110189689Y-127284050D01*
X110179831Y-127257985D01*
X110171941Y-127199012D01*
X110165877Y-127103302D01*
X110161502Y-126967026D01*
X110158674Y-126786355D01*
X110157254Y-126557461D01*
X110157020Y-126388992D01*
X110157128Y-126309431D01*
X110538156Y-126309431D01*
X110770912Y-126309431D01*
X110935957Y-126302460D01*
X111049879Y-126281644D01*
X111083299Y-126268252D01*
X111155762Y-126203267D01*
X111193954Y-126111341D01*
X111197246Y-126008348D01*
X111165006Y-125910161D01*
X111100496Y-125835495D01*
X111049303Y-125805711D01*
X110982810Y-125786450D01*
X110887010Y-125774798D01*
X110781222Y-125769048D01*
X110538156Y-125759533D01*
X110538156Y-126034482D01*
X110538156Y-126309431D01*
X110157128Y-126309431D01*
X110157353Y-126144022D01*
X110158002Y-126034482D01*
X110158515Y-125948022D01*
X110160753Y-125795514D01*
X110164312Y-125681022D01*
X110169439Y-125599072D01*
X110176378Y-125544185D01*
X110185375Y-125510887D01*
X110196677Y-125493701D01*
X110197226Y-125493233D01*
X110231969Y-125479846D01*
X110301549Y-125471270D01*
X110411405Y-125467238D01*
X110566975Y-125467482D01*
G37*
G36*
X108573618Y-125466900D02*
G01*
X108623764Y-125475419D01*
X108668519Y-125497462D01*
X108715088Y-125539449D01*
X108770673Y-125607797D01*
X108842477Y-125708925D01*
X108931940Y-125840711D01*
X108997452Y-125935093D01*
X109052728Y-126009712D01*
X109090301Y-126054753D01*
X109101481Y-126063522D01*
X109123315Y-126042545D01*
X109168566Y-125984642D01*
X109230821Y-125898440D01*
X109303669Y-125792563D01*
X109310655Y-125782171D01*
X109386751Y-125672573D01*
X109455916Y-125579903D01*
X109510760Y-125513609D01*
X109543892Y-125483139D01*
X109544895Y-125482707D01*
X109615589Y-125468180D01*
X109703225Y-125466035D01*
X109786486Y-125474970D01*
X109844058Y-125493684D01*
X109853597Y-125501553D01*
X109857674Y-125525808D01*
X109842189Y-125571026D01*
X109804236Y-125642481D01*
X109740911Y-125745444D01*
X109649310Y-125885188D01*
X109609912Y-125943943D01*
X109521954Y-126074968D01*
X109445197Y-126190085D01*
X109384575Y-126281829D01*
X109345020Y-126342739D01*
X109331491Y-126365088D01*
X109344702Y-126391072D01*
X109384341Y-126454549D01*
X109445706Y-126548338D01*
X109524098Y-126665261D01*
X109614815Y-126798139D01*
X109619346Y-126804717D01*
X109711013Y-126939145D01*
X109790929Y-127058956D01*
X109854277Y-127156709D01*
X109896235Y-127224963D01*
X109911987Y-127256277D01*
X109912004Y-127256598D01*
X109887902Y-127287751D01*
X109826345Y-127308247D01*
X109743458Y-127317119D01*
X109655366Y-127313396D01*
X109578194Y-127296109D01*
X109543731Y-127278745D01*
X109507659Y-127242154D01*
X109449319Y-127170735D01*
X109376818Y-127074850D01*
X109299464Y-126966586D01*
X109224935Y-126861359D01*
X109160883Y-126774666D01*
X109113907Y-126715178D01*
X109090606Y-126691569D01*
X109090152Y-126691484D01*
X109068578Y-126712273D01*
X109022716Y-126769837D01*
X108958849Y-126855895D01*
X108883258Y-126962166D01*
X108866023Y-126986939D01*
X108786275Y-127098670D01*
X108714019Y-127193788D01*
X108656421Y-127263277D01*
X108620646Y-127298127D01*
X108617106Y-127300015D01*
X108557854Y-127310594D01*
X108471008Y-127314163D01*
X108382523Y-127310833D01*
X108318352Y-127300718D01*
X108312593Y-127298689D01*
X108281037Y-127268755D01*
X108278563Y-127257512D01*
X108293287Y-127227326D01*
X108334225Y-127159967D01*
X108396533Y-127062983D01*
X108475362Y-126943920D01*
X108564416Y-126812443D01*
X108654695Y-126679399D01*
X108733249Y-126561441D01*
X108795245Y-126466009D01*
X108835850Y-126400538D01*
X108850233Y-126372543D01*
X108835802Y-126343752D01*
X108795754Y-126277468D01*
X108734918Y-126181336D01*
X108658125Y-126063001D01*
X108579071Y-125943398D01*
X108474916Y-125785506D01*
X108400949Y-125666812D01*
X108356376Y-125581739D01*
X108340400Y-125524715D01*
X108352227Y-125490162D01*
X108391060Y-125472506D01*
X108456104Y-125466173D01*
X108510881Y-125465487D01*
X108573618Y-125466900D01*
G37*
G36*
X100900316Y-124766346D02*
G01*
X101181006Y-124817490D01*
X101447832Y-124913478D01*
X101695502Y-125051122D01*
X101918723Y-125227234D01*
X102112202Y-125438624D01*
X102270644Y-125682105D01*
X102388758Y-125954487D01*
X102426164Y-126081007D01*
X102474276Y-126373543D01*
X102471166Y-126662802D01*
X102420022Y-126943492D01*
X102324034Y-127210318D01*
X102186390Y-127457988D01*
X102010278Y-127681209D01*
X101798888Y-127874688D01*
X101555407Y-128033130D01*
X101283025Y-128151244D01*
X101156505Y-128188650D01*
X100888511Y-128232924D01*
X100609362Y-128235215D01*
X100340619Y-128195556D01*
X100307796Y-128187380D01*
X100022111Y-128085213D01*
X99761587Y-127937404D01*
X99531058Y-127748822D01*
X99335355Y-127524335D01*
X99179310Y-127268813D01*
X99067758Y-126987124D01*
X99048862Y-126918991D01*
X99000823Y-126626704D01*
X99003050Y-126423685D01*
X99070107Y-126423685D01*
X99127505Y-126481083D01*
X99184903Y-126538481D01*
X99306856Y-126479232D01*
X99414456Y-126407071D01*
X99485052Y-126309739D01*
X99522710Y-126243173D01*
X99552194Y-126217628D01*
X99586251Y-126223857D01*
X99596385Y-126228979D01*
X99616153Y-126242456D01*
X99624941Y-126261899D01*
X99620079Y-126294948D01*
X99598897Y-126349245D01*
X99558726Y-126432431D01*
X99496896Y-126552147D01*
X99456760Y-126628596D01*
X99262044Y-126998729D01*
X99293506Y-127164530D01*
X99316746Y-127282713D01*
X99335017Y-127357977D01*
X99352677Y-127401049D01*
X99374081Y-127422653D01*
X99402677Y-127433279D01*
X99474284Y-127427201D01*
X99537338Y-127377705D01*
X99585511Y-127295778D01*
X99612479Y-127192402D01*
X99611912Y-127078564D01*
X99610885Y-127071771D01*
X99605062Y-126999062D01*
X99620749Y-126961992D01*
X99639629Y-126951163D01*
X99687088Y-126946609D01*
X99703034Y-126955109D01*
X99713326Y-126988336D01*
X99729381Y-127065343D01*
X99749309Y-127176000D01*
X99771222Y-127310177D01*
X99780482Y-127370565D01*
X99839776Y-127764711D01*
X99967740Y-127894628D01*
X100040916Y-127963896D01*
X100105921Y-128016772D01*
X100145675Y-128040406D01*
X100210692Y-128039096D01*
X100254469Y-127990442D01*
X100273972Y-127898414D01*
X100274705Y-127871556D01*
X100266926Y-127787065D01*
X100236426Y-127718096D01*
X100179332Y-127646893D01*
X100125165Y-127583343D01*
X100104819Y-127544916D01*
X100113371Y-127518478D01*
X100126530Y-127505995D01*
X100147529Y-127496965D01*
X100176569Y-127504639D01*
X100219831Y-127533765D01*
X100283493Y-127589090D01*
X100373735Y-127675362D01*
X100466597Y-127767235D01*
X100580785Y-127880369D01*
X100665215Y-127960823D01*
X100728392Y-128014655D01*
X100778821Y-128047924D01*
X100825007Y-128066687D01*
X100875454Y-128077003D01*
X100907340Y-128081178D01*
X101026290Y-128094813D01*
X101103201Y-128100598D01*
X101149956Y-128098219D01*
X101178441Y-128087359D01*
X101194876Y-128073547D01*
X101225332Y-128010786D01*
X101212756Y-127938276D01*
X101164831Y-127866076D01*
X101089243Y-127804245D01*
X100993676Y-127762840D01*
X100950858Y-127754153D01*
X100864485Y-127734310D01*
X100828130Y-127702969D01*
X100837920Y-127656417D01*
X100841960Y-127649716D01*
X100861391Y-127637638D01*
X100904209Y-127633813D01*
X100977686Y-127638774D01*
X101089089Y-127653057D01*
X101245691Y-127677194D01*
X101270295Y-127681173D01*
X101676741Y-127747157D01*
X101853697Y-127646390D01*
X101949092Y-127588380D01*
X102003981Y-127543757D01*
X102027617Y-127503801D01*
X102030653Y-127479617D01*
X102007018Y-127414911D01*
X101944718Y-127370178D01*
X101856663Y-127347936D01*
X101755761Y-127350701D01*
X101654922Y-127380991D01*
X101620313Y-127399615D01*
X101561324Y-127434126D01*
X101530648Y-127440105D01*
X101510426Y-127417873D01*
X101501591Y-127401766D01*
X101494496Y-127379671D01*
X101502485Y-127357113D01*
X101531931Y-127329540D01*
X101589206Y-127292401D01*
X101680682Y-127241143D01*
X101812731Y-127171215D01*
X101855827Y-127148720D01*
X102238706Y-126949195D01*
X102318491Y-126767787D01*
X102355655Y-126672992D01*
X102378587Y-126593756D01*
X102382711Y-126546162D01*
X102382099Y-126544225D01*
X102340302Y-126497762D01*
X102273016Y-126486944D01*
X102191740Y-126507460D01*
X102107975Y-126554998D01*
X102033220Y-126625248D01*
X101989365Y-126691453D01*
X101951878Y-126757526D01*
X101922357Y-126782543D01*
X101887953Y-126775759D01*
X101878784Y-126771095D01*
X101859118Y-126757630D01*
X101850441Y-126738130D01*
X101855434Y-126704977D01*
X101876777Y-126650550D01*
X101917151Y-126567232D01*
X101979236Y-126447403D01*
X102019681Y-126370614D01*
X102215526Y-125999541D01*
X102180436Y-125820992D01*
X102157355Y-125707108D01*
X102139703Y-125635454D01*
X102123051Y-125594712D01*
X102102967Y-125573563D01*
X102079161Y-125562258D01*
X102013586Y-125562449D01*
X101952376Y-125605993D01*
X101902026Y-125681840D01*
X101869029Y-125778935D01*
X101859879Y-125886227D01*
X101864141Y-125928227D01*
X101869964Y-126000936D01*
X101854277Y-126038006D01*
X101835397Y-126048835D01*
X101787938Y-126053389D01*
X101771992Y-126044889D01*
X101761700Y-126011662D01*
X101745645Y-125934655D01*
X101725718Y-125823999D01*
X101703804Y-125689821D01*
X101694545Y-125629433D01*
X101635250Y-125235287D01*
X101507286Y-125105370D01*
X101434110Y-125036103D01*
X101369105Y-124983226D01*
X101329351Y-124959592D01*
X101265920Y-124959593D01*
X101223519Y-124999073D01*
X101202761Y-125067032D01*
X101204263Y-125152475D01*
X101228640Y-125244403D01*
X101276507Y-125331817D01*
X101306538Y-125367438D01*
X101357742Y-125424167D01*
X101373707Y-125458425D01*
X101359397Y-125484463D01*
X101350140Y-125492639D01*
X101329257Y-125501941D01*
X101300628Y-125495061D01*
X101258062Y-125467307D01*
X101195369Y-125413986D01*
X101106360Y-125330405D01*
X101001865Y-125228605D01*
X100696677Y-124928811D01*
X100508195Y-124911880D01*
X100384910Y-124906171D01*
X100305881Y-124914627D01*
X100283597Y-124924924D01*
X100249547Y-124982140D01*
X100257854Y-125051343D01*
X100301045Y-125122566D01*
X100371652Y-125185843D01*
X100462202Y-125231208D01*
X100524169Y-125245845D01*
X100610519Y-125265674D01*
X100646870Y-125296999D01*
X100637111Y-125343560D01*
X100632973Y-125350433D01*
X100613678Y-125362563D01*
X100571308Y-125366427D01*
X100498554Y-125361478D01*
X100388108Y-125347170D01*
X100232662Y-125322956D01*
X100204637Y-125318374D01*
X99798285Y-125251636D01*
X99621477Y-125352920D01*
X99534802Y-125407083D01*
X99469407Y-125456452D01*
X99437892Y-125491364D01*
X99436928Y-125494402D01*
X99447486Y-125560166D01*
X99498797Y-125610591D01*
X99578517Y-125642407D01*
X99674305Y-125652341D01*
X99773819Y-125637122D01*
X99849313Y-125603720D01*
X99910533Y-125567727D01*
X99942735Y-125559917D01*
X99963038Y-125579552D01*
X99973516Y-125598384D01*
X99980713Y-125620600D01*
X99972824Y-125643191D01*
X99943450Y-125670744D01*
X99886191Y-125707846D01*
X99794648Y-125759082D01*
X99662420Y-125829039D01*
X99622936Y-125849637D01*
X99243631Y-126047218D01*
X99156869Y-126235451D01*
X99070107Y-126423685D01*
X99003050Y-126423685D01*
X99003994Y-126337602D01*
X99055175Y-126056994D01*
X99151170Y-125790187D01*
X99288781Y-125542489D01*
X99464810Y-125319209D01*
X99676060Y-125125656D01*
X99919333Y-124967136D01*
X100191431Y-124848958D01*
X100318521Y-124811348D01*
X100611057Y-124763236D01*
X100900316Y-124766346D01*
G37*
D11*
%TO.C,J1*%
X163040000Y-63790000D02*
X168460000Y-63790000D01*
X163040000Y-72510000D02*
X163040000Y-63790000D01*
X164340000Y-74210000D02*
X163040000Y-72510000D01*
X164340000Y-74210000D02*
X167160000Y-74210000D01*
X167160000Y-74210000D02*
X168460000Y-72510000D01*
X168460000Y-72510000D02*
X168460000Y-63790000D01*
%TO.C,MJ4*%
X143140000Y-40890000D02*
X143140000Y-42140000D01*
X143440000Y-41190000D02*
X143440000Y-45910000D01*
X143440000Y-42500000D02*
X144050000Y-42500000D01*
X143440000Y-43800000D02*
X144050000Y-43800000D01*
X143440000Y-45910000D02*
X157560000Y-45910000D01*
X144050000Y-41800000D02*
X144050000Y-45300000D01*
X144050000Y-45300000D02*
X156950000Y-45300000D01*
X144390000Y-40890000D02*
X143140000Y-40890000D01*
X144900000Y-40990000D02*
X144900000Y-41190000D01*
X145200000Y-40990000D02*
X144900000Y-40990000D01*
X145200000Y-41090000D02*
X144900000Y-41090000D01*
X145200000Y-41190000D02*
X145200000Y-40990000D01*
X146000000Y-41190000D02*
X146000000Y-41800000D01*
X146000000Y-41800000D02*
X144050000Y-41800000D01*
X146400000Y-44800000D02*
X146600000Y-44800000D01*
X146400000Y-45300000D02*
X146400000Y-44800000D01*
X146500000Y-45300000D02*
X146500000Y-44800000D01*
X146600000Y-44800000D02*
X146600000Y-45300000D01*
X148400000Y-44800000D02*
X148600000Y-44800000D01*
X148400000Y-45300000D02*
X148400000Y-44800000D01*
X148500000Y-45300000D02*
X148500000Y-44800000D01*
X148600000Y-44800000D02*
X148600000Y-45300000D01*
X150400000Y-44800000D02*
X150600000Y-44800000D01*
X150400000Y-45300000D02*
X150400000Y-44800000D01*
X150500000Y-45300000D02*
X150500000Y-44800000D01*
X150600000Y-44800000D02*
X150600000Y-45300000D01*
X152400000Y-44800000D02*
X152600000Y-44800000D01*
X152400000Y-45300000D02*
X152400000Y-44800000D01*
X152500000Y-45300000D02*
X152500000Y-44800000D01*
X152600000Y-44800000D02*
X152600000Y-45300000D01*
X154400000Y-44800000D02*
X154600000Y-44800000D01*
X154400000Y-45300000D02*
X154400000Y-44800000D01*
X154500000Y-45300000D02*
X154500000Y-44800000D01*
X154600000Y-44800000D02*
X154600000Y-45300000D01*
X155000000Y-41800000D02*
X155000000Y-41190000D01*
X156950000Y-41800000D02*
X155000000Y-41800000D01*
X156950000Y-45300000D02*
X156950000Y-41800000D01*
X157560000Y-41190000D02*
X143440000Y-41190000D01*
X157560000Y-42500000D02*
X156950000Y-42500000D01*
X157560000Y-43800000D02*
X156950000Y-43800000D01*
X157560000Y-45910000D02*
X157560000Y-41190000D01*
%TO.C,D2*%
X114758869Y-137049430D02*
X114914869Y-137049430D01*
X117074869Y-137049430D02*
X117230869Y-137049430D01*
X114759353Y-137049430D02*
G75*
G02*
X114914869Y-133817993I1235516J1560000D01*
G01*
X114914869Y-136530391D02*
G75*
G02*
X114914869Y-134448469I1080000J1040961D01*
G01*
X117074869Y-133817993D02*
G75*
G02*
X117230385Y-137049430I-1080000J-1671437D01*
G01*
X117074869Y-134448469D02*
G75*
G02*
X117074869Y-136530391I-1080000J-1040961D01*
G01*
%TO.C,MJ2*%
X163340000Y-44940000D02*
X163340000Y-59060000D01*
X163340000Y-59060000D02*
X168060000Y-59060000D01*
X163950000Y-45550000D02*
X163950000Y-58450000D01*
X163950000Y-47900000D02*
X164450000Y-47900000D01*
X163950000Y-48000000D02*
X164450000Y-48000000D01*
X163950000Y-49900000D02*
X164450000Y-49900000D01*
X163950000Y-50000000D02*
X164450000Y-50000000D01*
X163950000Y-51900000D02*
X164450000Y-51900000D01*
X163950000Y-52000000D02*
X164450000Y-52000000D01*
X163950000Y-53900000D02*
X164450000Y-53900000D01*
X163950000Y-54000000D02*
X164450000Y-54000000D01*
X163950000Y-55900000D02*
X164450000Y-55900000D01*
X163950000Y-56000000D02*
X164450000Y-56000000D01*
X163950000Y-58450000D02*
X167450000Y-58450000D01*
X164450000Y-47900000D02*
X164450000Y-48100000D01*
X164450000Y-48100000D02*
X163950000Y-48100000D01*
X164450000Y-49900000D02*
X164450000Y-50100000D01*
X164450000Y-50100000D02*
X163950000Y-50100000D01*
X164450000Y-51900000D02*
X164450000Y-52100000D01*
X164450000Y-52100000D02*
X163950000Y-52100000D01*
X164450000Y-53900000D02*
X164450000Y-54100000D01*
X164450000Y-54100000D02*
X163950000Y-54100000D01*
X164450000Y-55900000D02*
X164450000Y-56100000D01*
X164450000Y-56100000D02*
X163950000Y-56100000D01*
X165450000Y-44940000D02*
X165450000Y-45550000D01*
X165450000Y-59060000D02*
X165450000Y-58450000D01*
X166750000Y-44940000D02*
X166750000Y-45550000D01*
X166750000Y-59060000D02*
X166750000Y-58450000D01*
X167450000Y-45550000D02*
X163950000Y-45550000D01*
X167450000Y-47500000D02*
X167450000Y-45550000D01*
X167450000Y-56500000D02*
X168060000Y-56500000D01*
X167450000Y-58450000D02*
X167450000Y-56500000D01*
X168060000Y-44940000D02*
X163340000Y-44940000D01*
X168060000Y-46700000D02*
X168260000Y-46700000D01*
X168060000Y-47500000D02*
X167450000Y-47500000D01*
X168060000Y-59060000D02*
X168060000Y-44940000D01*
X168160000Y-46700000D02*
X168160000Y-46400000D01*
X168260000Y-46400000D02*
X168060000Y-46400000D01*
X168260000Y-46700000D02*
X168260000Y-46400000D01*
X168360000Y-44640000D02*
X167110000Y-44640000D01*
X168360000Y-45890000D02*
X168360000Y-44640000D01*
%TO.C,D1*%
X107763691Y-137049430D02*
X107919691Y-137049430D01*
X110079691Y-137049430D02*
X110235691Y-137049430D01*
X107764175Y-137049430D02*
G75*
G02*
X107919691Y-133817993I1235516J1560000D01*
G01*
X107919691Y-136530391D02*
G75*
G02*
X107919691Y-134448469I1080000J1040961D01*
G01*
X110079691Y-133817993D02*
G75*
G02*
X110235207Y-137049430I-1080000J-1671437D01*
G01*
X110079691Y-134448469D02*
G75*
G02*
X110079691Y-136530391I-1080000J-1040961D01*
G01*
%TO.C,MJ3*%
X116440000Y-40090000D02*
X116440000Y-44810000D01*
X116440000Y-42200000D02*
X117050000Y-42200000D01*
X116440000Y-43500000D02*
X117050000Y-43500000D01*
X116440000Y-44810000D02*
X130560000Y-44810000D01*
X117050000Y-40700000D02*
X117050000Y-44200000D01*
X117050000Y-44200000D02*
X119000000Y-44200000D01*
X119000000Y-44200000D02*
X119000000Y-44810000D01*
X119400000Y-41200000D02*
X119400000Y-40700000D01*
X119500000Y-40700000D02*
X119500000Y-41200000D01*
X119600000Y-40700000D02*
X119600000Y-41200000D01*
X119600000Y-41200000D02*
X119400000Y-41200000D01*
X121400000Y-41200000D02*
X121400000Y-40700000D01*
X121500000Y-40700000D02*
X121500000Y-41200000D01*
X121600000Y-40700000D02*
X121600000Y-41200000D01*
X121600000Y-41200000D02*
X121400000Y-41200000D01*
X123400000Y-41200000D02*
X123400000Y-40700000D01*
X123500000Y-40700000D02*
X123500000Y-41200000D01*
X123600000Y-40700000D02*
X123600000Y-41200000D01*
X123600000Y-41200000D02*
X123400000Y-41200000D01*
X125400000Y-41200000D02*
X125400000Y-40700000D01*
X125500000Y-40700000D02*
X125500000Y-41200000D01*
X125600000Y-40700000D02*
X125600000Y-41200000D01*
X125600000Y-41200000D02*
X125400000Y-41200000D01*
X127400000Y-41200000D02*
X127400000Y-40700000D01*
X127500000Y-40700000D02*
X127500000Y-41200000D01*
X127600000Y-40700000D02*
X127600000Y-41200000D01*
X127600000Y-41200000D02*
X127400000Y-41200000D01*
X128000000Y-44200000D02*
X129950000Y-44200000D01*
X128000000Y-44810000D02*
X128000000Y-44200000D01*
X128800000Y-44810000D02*
X128800000Y-45010000D01*
X128800000Y-44910000D02*
X129100000Y-44910000D01*
X128800000Y-45010000D02*
X129100000Y-45010000D01*
X129100000Y-45010000D02*
X129100000Y-44810000D01*
X129610000Y-45110000D02*
X130860000Y-45110000D01*
X129950000Y-40700000D02*
X117050000Y-40700000D01*
X129950000Y-44200000D02*
X129950000Y-40700000D01*
X130560000Y-40090000D02*
X116440000Y-40090000D01*
X130560000Y-42200000D02*
X129950000Y-42200000D01*
X130560000Y-43500000D02*
X129950000Y-43500000D01*
X130560000Y-44810000D02*
X130560000Y-40090000D01*
X130860000Y-45110000D02*
X130860000Y-43860000D01*
%TO.C,R2*%
X130605312Y-105518279D02*
X130935312Y-105518279D01*
X130605312Y-112058279D02*
X130605312Y-105518279D01*
X130935312Y-112058279D02*
X130605312Y-112058279D01*
X133015312Y-112058279D02*
X133345312Y-112058279D01*
X133345312Y-105518279D02*
X133015312Y-105518279D01*
X133345312Y-112058279D02*
X133345312Y-105518279D01*
%TO.C,S1*%
X108250000Y-116250000D02*
X127750000Y-116250000D01*
X127750000Y-95750000D01*
X108250000Y-95750000D01*
X108250000Y-116250000D01*
%TO.C,S2*%
X161750000Y-95750000D02*
X142250000Y-95750000D01*
X142250000Y-116250000D01*
X161750000Y-116250000D01*
X161750000Y-95750000D01*
%TO.C,DR1*%
X134140000Y-70000000D02*
X114140000Y-70000000D01*
X114140000Y-50000000D01*
X134140000Y-50000000D01*
X134140000Y-70000000D01*
%TD*%
M02*
