%TF.GenerationSoftware,KiCad,Pcbnew,9.0.5*%
%TF.CreationDate,2026-01-19T08:04:35+00:00*%
%TF.ProjectId,Board,426f6172-642e-46b6-9963-61645f706362,v1*%
%TF.SameCoordinates,Original*%
%TF.FileFunction,Soldermask,Top*%
%TF.FilePolarity,Negative*%
%FSLAX46Y46*%
G04 Gerber Fmt 4.6, Leading zero omitted, Abs format (unit mm)*
G04 Created by KiCad (PCBNEW 9.0.5) date 2026-01-19 08:04:35*
%MOMM*%
%LPD*%
G01*
G04 APERTURE LIST*
G04 Aperture macros list*
%AMRoundRect*
0 Rectangle with rounded corners*
0 $1 Rounding radius*
0 $2 $3 $4 $5 $6 $7 $8 $9 X,Y pos of 4 corners*
0 Add a 4 corners polygon primitive as box body*
4,1,4,$2,$3,$4,$5,$6,$7,$8,$9,$2,$3,0*
0 Add four circle primitives for the rounded corners*
1,1,$1+$1,$2,$3*
1,1,$1+$1,$4,$5*
1,1,$1+$1,$6,$7*
1,1,$1+$1,$8,$9*
0 Add four rect primitives between the rounded corners*
20,1,$1+$1,$2,$3,$4,$5,0*
20,1,$1+$1,$4,$5,$6,$7,0*
20,1,$1+$1,$6,$7,$8,$9,0*
20,1,$1+$1,$8,$9,$2,$3,0*%
G04 Aperture macros list end*
%ADD10C,1.600000*%
%ADD11RoundRect,0.250000X-0.350000X-0.625000X0.350000X-0.625000X0.350000X0.625000X-0.350000X0.625000X0*%
%ADD12O,1.200000X1.750000*%
%ADD13R,1.800000X1.800000*%
%ADD14C,1.800000*%
%ADD15C,4.300000*%
%ADD16RoundRect,0.250000X-0.625000X0.350000X-0.625000X-0.350000X0.625000X-0.350000X0.625000X0.350000X0*%
%ADD17O,1.750000X1.200000*%
%ADD18RoundRect,0.250000X0.350000X0.625000X-0.350000X0.625000X-0.350000X-0.625000X0.350000X-0.625000X0*%
%ADD19O,1.200000X2.000000*%
%ADD20O,2.000000X1.200000*%
%ADD21RoundRect,0.760000X1.140000X-1.140000X1.140000X1.140000X-1.140000X1.140000X-1.140000X-1.140000X0*%
%ADD22C,4.000000*%
G04 APERTURE END LIST*
D10*
%TO.C,C1*%
X112070000Y-128250000D03*
X112070000Y-125750000D03*
%TD*%
D11*
%TO.C,MJ2*%
X159000000Y-49500000D03*
D12*
X161000000Y-49500000D03*
X163000000Y-49500000D03*
X165000000Y-49500000D03*
X167000000Y-49500000D03*
X169000000Y-49500000D03*
%TD*%
D13*
%TO.C,D1*%
X110000000Y-138270000D03*
D14*
X110000000Y-135730000D03*
%TD*%
D15*
%TO.C,REF\u002A\u002A*%
X167500000Y-40000000D03*
%TD*%
%TO.C,REF\u002A\u002A*%
X167500000Y-140000000D03*
%TD*%
D10*
%TO.C,C2*%
X112000000Y-111250000D03*
X112000000Y-108750000D03*
%TD*%
D16*
%TO.C,J3*%
X117190000Y-109000000D03*
D17*
X117190000Y-111000000D03*
%TD*%
D18*
%TO.C,MJ3*%
X139000000Y-44000000D03*
D12*
X137000000Y-44000000D03*
X135000000Y-44000000D03*
X133000000Y-44000000D03*
X131000000Y-44000000D03*
X129000000Y-44000000D03*
%TD*%
D10*
%TO.C,C3*%
X157750000Y-110550000D03*
X155250000Y-110550000D03*
%TD*%
D19*
%TO.C,U1*%
X159130000Y-80890000D03*
X156590000Y-80890000D03*
X154050000Y-80890000D03*
X151510000Y-80890000D03*
X148970000Y-80890000D03*
X146430000Y-80890000D03*
X143890000Y-80890000D03*
X141350000Y-80890000D03*
X138810000Y-80890000D03*
X136270000Y-80890000D03*
X133730000Y-80890000D03*
X131190000Y-80890000D03*
X128650000Y-80890000D03*
X126110000Y-80890000D03*
X123570000Y-80890000D03*
X121030000Y-80890000D03*
X118490000Y-80890000D03*
X113410000Y-80890000D03*
X115950000Y-80890000D03*
X110870000Y-96110000D03*
X113410000Y-96110000D03*
X115950000Y-96110000D03*
X118490000Y-96110000D03*
X121030000Y-96110000D03*
X123570000Y-96110000D03*
X126110000Y-96110000D03*
X128650000Y-96110000D03*
X131190000Y-96110000D03*
X133730000Y-96110000D03*
X136270000Y-96110000D03*
X138810000Y-96110000D03*
X141350000Y-96110000D03*
X143890000Y-96110000D03*
X146430000Y-96110000D03*
X148970000Y-96110000D03*
X151510000Y-96110000D03*
X156590000Y-96110000D03*
X159130000Y-96110000D03*
X110870000Y-80890000D03*
X154050000Y-96110000D03*
%TD*%
D10*
%TO.C,R2*%
X117120000Y-132000000D03*
X109500000Y-132000000D03*
%TD*%
D11*
%TO.C,J4*%
X155500000Y-105500000D03*
D12*
X157500000Y-105500000D03*
%TD*%
D16*
%TO.C,J2*%
X117120000Y-126000000D03*
D17*
X117120000Y-128000000D03*
%TD*%
D15*
%TO.C,REF\u002A\u002A*%
X102500000Y-140000000D03*
%TD*%
D19*
%TO.C,DR1*%
X120590000Y-54880000D03*
X123130000Y-54880000D03*
X118050000Y-54880000D03*
X115510000Y-54880000D03*
X112970000Y-54880000D03*
X112970000Y-70120000D03*
X115510000Y-70120000D03*
X118050000Y-70120000D03*
X110430000Y-70120000D03*
X110430000Y-54880000D03*
X120590000Y-70120000D03*
X125670000Y-54880000D03*
X123130000Y-70120000D03*
X125670000Y-70120000D03*
X128210000Y-70120000D03*
X128210000Y-54880000D03*
%TD*%
%TO.C,S1*%
X123570000Y-114500000D03*
X126110000Y-114500000D03*
X128650000Y-114500000D03*
X131190000Y-114500000D03*
X133730000Y-114500000D03*
X136270000Y-114500000D03*
X138810000Y-114500000D03*
X141350000Y-114500000D03*
X143890000Y-114500000D03*
X146430000Y-114500000D03*
%TD*%
D18*
%TO.C,MJ1*%
X122500000Y-44000000D03*
D12*
X120500000Y-44000000D03*
X118500000Y-44000000D03*
X116500000Y-44000000D03*
X114500000Y-44000000D03*
X112500000Y-44000000D03*
%TD*%
D10*
%TO.C,R5*%
X109500000Y-121500000D03*
X117120000Y-121500000D03*
%TD*%
D19*
%TO.C,DR2*%
X145940000Y-55000000D03*
X148480000Y-55000000D03*
X143400000Y-55000000D03*
X140860000Y-55000000D03*
X138320000Y-55000000D03*
X138320000Y-70240000D03*
X140860000Y-70240000D03*
X143400000Y-70240000D03*
X135780000Y-70240000D03*
X135780000Y-55000000D03*
X145940000Y-70240000D03*
X151020000Y-55000000D03*
X148480000Y-70240000D03*
X151020000Y-70240000D03*
X153560000Y-70240000D03*
X153560000Y-55000000D03*
%TD*%
D10*
%TO.C,R1*%
X110000000Y-142000000D03*
X117620000Y-142000000D03*
%TD*%
D15*
%TO.C,REF\u002A\u002A*%
X102500000Y-40000000D03*
%TD*%
D11*
%TO.C,MJ4*%
X145500000Y-43000000D03*
D12*
X147500000Y-43000000D03*
X149500000Y-43000000D03*
X151500000Y-43000000D03*
X153500000Y-43000000D03*
X155500000Y-43000000D03*
%TD*%
D20*
%TO.C,RS1*%
X122500000Y-128000000D03*
X122500000Y-130540000D03*
X122500000Y-133080000D03*
%TD*%
D10*
%TO.C,R3*%
X117120000Y-115000000D03*
X109500000Y-115000000D03*
%TD*%
%TO.C,R6*%
X109570000Y-105000000D03*
X117190000Y-105000000D03*
%TD*%
%TO.C,R4*%
X161500000Y-105500000D03*
X161500000Y-113120000D03*
%TD*%
%TO.C,R7*%
X151500000Y-113120000D03*
X151500000Y-105500000D03*
%TD*%
D21*
%TO.C,J1*%
X164500000Y-65000000D03*
D22*
X164500000Y-60000000D03*
%TD*%
M02*
