%TF.GenerationSoftware,KiCad,Pcbnew,9.0.5*%
%TF.CreationDate,2026-01-18T22:42:43+00:00*%
%TF.ProjectId,Board,426f6172-642e-46b6-9963-61645f706362,v1*%
%TF.SameCoordinates,Original*%
%TF.FileFunction,Legend,Top*%
%TF.FilePolarity,Positive*%
%FSLAX46Y46*%
G04 Gerber Fmt 4.6, Leading zero omitted, Abs format (unit mm)*
G04 Created by KiCad (PCBNEW 9.0.5) date 2026-01-18 22:42:43*
%MOMM*%
%LPD*%
G01*
G04 APERTURE LIST*
%ADD10C,0.200000*%
%ADD11C,0.150000*%
%ADD12C,0.120000*%
%ADD13C,0.000000*%
G04 APERTURE END LIST*
D10*
X118703006Y-132843409D02*
X118845863Y-132891028D01*
X118845863Y-132891028D02*
X118893482Y-132938647D01*
X118893482Y-132938647D02*
X118941101Y-133033885D01*
X118941101Y-133033885D02*
X118941101Y-133176742D01*
X118941101Y-133176742D02*
X118893482Y-133271980D01*
X118893482Y-133271980D02*
X118845863Y-133319600D01*
X118845863Y-133319600D02*
X118750625Y-133367219D01*
X118750625Y-133367219D02*
X118369673Y-133367219D01*
X118369673Y-133367219D02*
X118369673Y-132367219D01*
X118369673Y-132367219D02*
X118703006Y-132367219D01*
X118703006Y-132367219D02*
X118798244Y-132414838D01*
X118798244Y-132414838D02*
X118845863Y-132462457D01*
X118845863Y-132462457D02*
X118893482Y-132557695D01*
X118893482Y-132557695D02*
X118893482Y-132652933D01*
X118893482Y-132652933D02*
X118845863Y-132748171D01*
X118845863Y-132748171D02*
X118798244Y-132795790D01*
X118798244Y-132795790D02*
X118703006Y-132843409D01*
X118703006Y-132843409D02*
X118369673Y-132843409D01*
X119226816Y-132367219D02*
X119798244Y-132367219D01*
X119512530Y-133367219D02*
X119512530Y-132367219D01*
X120655387Y-133367219D02*
X120083959Y-133367219D01*
X120369673Y-133367219D02*
X120369673Y-132367219D01*
X120369673Y-132367219D02*
X120274435Y-132510076D01*
X120274435Y-132510076D02*
X120179197Y-132605314D01*
X120179197Y-132605314D02*
X120083959Y-132652933D01*
X118703006Y-115843409D02*
X118845863Y-115891028D01*
X118845863Y-115891028D02*
X118893482Y-115938647D01*
X118893482Y-115938647D02*
X118941101Y-116033885D01*
X118941101Y-116033885D02*
X118941101Y-116176742D01*
X118941101Y-116176742D02*
X118893482Y-116271980D01*
X118893482Y-116271980D02*
X118845863Y-116319600D01*
X118845863Y-116319600D02*
X118750625Y-116367219D01*
X118750625Y-116367219D02*
X118369673Y-116367219D01*
X118369673Y-116367219D02*
X118369673Y-115367219D01*
X118369673Y-115367219D02*
X118703006Y-115367219D01*
X118703006Y-115367219D02*
X118798244Y-115414838D01*
X118798244Y-115414838D02*
X118845863Y-115462457D01*
X118845863Y-115462457D02*
X118893482Y-115557695D01*
X118893482Y-115557695D02*
X118893482Y-115652933D01*
X118893482Y-115652933D02*
X118845863Y-115748171D01*
X118845863Y-115748171D02*
X118798244Y-115795790D01*
X118798244Y-115795790D02*
X118703006Y-115843409D01*
X118703006Y-115843409D02*
X118369673Y-115843409D01*
X119226816Y-115367219D02*
X119798244Y-115367219D01*
X119512530Y-116367219D02*
X119512530Y-115367219D01*
X120083959Y-115462457D02*
X120131578Y-115414838D01*
X120131578Y-115414838D02*
X120226816Y-115367219D01*
X120226816Y-115367219D02*
X120464911Y-115367219D01*
X120464911Y-115367219D02*
X120560149Y-115414838D01*
X120560149Y-115414838D02*
X120607768Y-115462457D01*
X120607768Y-115462457D02*
X120655387Y-115557695D01*
X120655387Y-115557695D02*
X120655387Y-115652933D01*
X120655387Y-115652933D02*
X120607768Y-115795790D01*
X120607768Y-115795790D02*
X120036340Y-116367219D01*
X120036340Y-116367219D02*
X120655387Y-116367219D01*
X158869673Y-102343409D02*
X159203006Y-102343409D01*
X159345863Y-102867219D02*
X158869673Y-102867219D01*
X158869673Y-102867219D02*
X158869673Y-101867219D01*
X158869673Y-101867219D02*
X159345863Y-101867219D01*
X159726816Y-102819600D02*
X159869673Y-102867219D01*
X159869673Y-102867219D02*
X160107768Y-102867219D01*
X160107768Y-102867219D02*
X160203006Y-102819600D01*
X160203006Y-102819600D02*
X160250625Y-102771980D01*
X160250625Y-102771980D02*
X160298244Y-102676742D01*
X160298244Y-102676742D02*
X160298244Y-102581504D01*
X160298244Y-102581504D02*
X160250625Y-102486266D01*
X160250625Y-102486266D02*
X160203006Y-102438647D01*
X160203006Y-102438647D02*
X160107768Y-102391028D01*
X160107768Y-102391028D02*
X159917292Y-102343409D01*
X159917292Y-102343409D02*
X159822054Y-102295790D01*
X159822054Y-102295790D02*
X159774435Y-102248171D01*
X159774435Y-102248171D02*
X159726816Y-102152933D01*
X159726816Y-102152933D02*
X159726816Y-102057695D01*
X159726816Y-102057695D02*
X159774435Y-101962457D01*
X159774435Y-101962457D02*
X159822054Y-101914838D01*
X159822054Y-101914838D02*
X159917292Y-101867219D01*
X159917292Y-101867219D02*
X160155387Y-101867219D01*
X160155387Y-101867219D02*
X160298244Y-101914838D01*
X160583959Y-101867219D02*
X161155387Y-101867219D01*
X160869673Y-102867219D02*
X160869673Y-101867219D01*
X161679197Y-101867219D02*
X161869673Y-101867219D01*
X161869673Y-101867219D02*
X161964911Y-101914838D01*
X161964911Y-101914838D02*
X162060149Y-102010076D01*
X162060149Y-102010076D02*
X162107768Y-102200552D01*
X162107768Y-102200552D02*
X162107768Y-102533885D01*
X162107768Y-102533885D02*
X162060149Y-102724361D01*
X162060149Y-102724361D02*
X161964911Y-102819600D01*
X161964911Y-102819600D02*
X161869673Y-102867219D01*
X161869673Y-102867219D02*
X161679197Y-102867219D01*
X161679197Y-102867219D02*
X161583959Y-102819600D01*
X161583959Y-102819600D02*
X161488721Y-102724361D01*
X161488721Y-102724361D02*
X161441102Y-102533885D01*
X161441102Y-102533885D02*
X161441102Y-102200552D01*
X161441102Y-102200552D02*
X161488721Y-102010076D01*
X161488721Y-102010076D02*
X161583959Y-101914838D01*
X161583959Y-101914838D02*
X161679197Y-101867219D01*
X162536340Y-102867219D02*
X162536340Y-101867219D01*
X162536340Y-101867219D02*
X162917292Y-101867219D01*
X162917292Y-101867219D02*
X163012530Y-101914838D01*
X163012530Y-101914838D02*
X163060149Y-101962457D01*
X163060149Y-101962457D02*
X163107768Y-102057695D01*
X163107768Y-102057695D02*
X163107768Y-102200552D01*
X163107768Y-102200552D02*
X163060149Y-102295790D01*
X163060149Y-102295790D02*
X163012530Y-102343409D01*
X163012530Y-102343409D02*
X162917292Y-102391028D01*
X162917292Y-102391028D02*
X162536340Y-102391028D01*
D11*
X149309524Y-40554819D02*
X149309524Y-39554819D01*
X149309524Y-39554819D02*
X149642857Y-40269104D01*
X149642857Y-40269104D02*
X149976190Y-39554819D01*
X149976190Y-39554819D02*
X149976190Y-40554819D01*
X150738095Y-39554819D02*
X150738095Y-40269104D01*
X150738095Y-40269104D02*
X150690476Y-40411961D01*
X150690476Y-40411961D02*
X150595238Y-40507200D01*
X150595238Y-40507200D02*
X150452381Y-40554819D01*
X150452381Y-40554819D02*
X150357143Y-40554819D01*
X151642857Y-39888152D02*
X151642857Y-40554819D01*
X151404762Y-39507200D02*
X151166667Y-40221485D01*
X151166667Y-40221485D02*
X151785714Y-40221485D01*
X109929580Y-127166666D02*
X109977200Y-127214285D01*
X109977200Y-127214285D02*
X110024819Y-127357142D01*
X110024819Y-127357142D02*
X110024819Y-127452380D01*
X110024819Y-127452380D02*
X109977200Y-127595237D01*
X109977200Y-127595237D02*
X109881961Y-127690475D01*
X109881961Y-127690475D02*
X109786723Y-127738094D01*
X109786723Y-127738094D02*
X109596247Y-127785713D01*
X109596247Y-127785713D02*
X109453390Y-127785713D01*
X109453390Y-127785713D02*
X109262914Y-127738094D01*
X109262914Y-127738094D02*
X109167676Y-127690475D01*
X109167676Y-127690475D02*
X109072438Y-127595237D01*
X109072438Y-127595237D02*
X109024819Y-127452380D01*
X109024819Y-127452380D02*
X109024819Y-127357142D01*
X109024819Y-127357142D02*
X109072438Y-127214285D01*
X109072438Y-127214285D02*
X109120057Y-127166666D01*
X110024819Y-126214285D02*
X110024819Y-126785713D01*
X110024819Y-126499999D02*
X109024819Y-126499999D01*
X109024819Y-126499999D02*
X109167676Y-126595237D01*
X109167676Y-126595237D02*
X109262914Y-126690475D01*
X109262914Y-126690475D02*
X109310533Y-126785713D01*
X162809524Y-47054819D02*
X162809524Y-46054819D01*
X162809524Y-46054819D02*
X163142857Y-46769104D01*
X163142857Y-46769104D02*
X163476190Y-46054819D01*
X163476190Y-46054819D02*
X163476190Y-47054819D01*
X164238095Y-46054819D02*
X164238095Y-46769104D01*
X164238095Y-46769104D02*
X164190476Y-46911961D01*
X164190476Y-46911961D02*
X164095238Y-47007200D01*
X164095238Y-47007200D02*
X163952381Y-47054819D01*
X163952381Y-47054819D02*
X163857143Y-47054819D01*
X164666667Y-46150057D02*
X164714286Y-46102438D01*
X164714286Y-46102438D02*
X164809524Y-46054819D01*
X164809524Y-46054819D02*
X165047619Y-46054819D01*
X165047619Y-46054819D02*
X165142857Y-46102438D01*
X165142857Y-46102438D02*
X165190476Y-46150057D01*
X165190476Y-46150057D02*
X165238095Y-46245295D01*
X165238095Y-46245295D02*
X165238095Y-46340533D01*
X165238095Y-46340533D02*
X165190476Y-46483390D01*
X165190476Y-46483390D02*
X164619048Y-47054819D01*
X164619048Y-47054819D02*
X165238095Y-47054819D01*
X107494819Y-137738094D02*
X106494819Y-137738094D01*
X106494819Y-137738094D02*
X106494819Y-137499999D01*
X106494819Y-137499999D02*
X106542438Y-137357142D01*
X106542438Y-137357142D02*
X106637676Y-137261904D01*
X106637676Y-137261904D02*
X106732914Y-137214285D01*
X106732914Y-137214285D02*
X106923390Y-137166666D01*
X106923390Y-137166666D02*
X107066247Y-137166666D01*
X107066247Y-137166666D02*
X107256723Y-137214285D01*
X107256723Y-137214285D02*
X107351961Y-137261904D01*
X107351961Y-137261904D02*
X107447200Y-137357142D01*
X107447200Y-137357142D02*
X107494819Y-137499999D01*
X107494819Y-137499999D02*
X107494819Y-137738094D01*
X107494819Y-136214285D02*
X107494819Y-136785713D01*
X107494819Y-136499999D02*
X106494819Y-136499999D01*
X106494819Y-136499999D02*
X106637676Y-136595237D01*
X106637676Y-136595237D02*
X106732914Y-136690475D01*
X106732914Y-136690475D02*
X106780533Y-136785713D01*
X109859580Y-110166666D02*
X109907200Y-110214285D01*
X109907200Y-110214285D02*
X109954819Y-110357142D01*
X109954819Y-110357142D02*
X109954819Y-110452380D01*
X109954819Y-110452380D02*
X109907200Y-110595237D01*
X109907200Y-110595237D02*
X109811961Y-110690475D01*
X109811961Y-110690475D02*
X109716723Y-110738094D01*
X109716723Y-110738094D02*
X109526247Y-110785713D01*
X109526247Y-110785713D02*
X109383390Y-110785713D01*
X109383390Y-110785713D02*
X109192914Y-110738094D01*
X109192914Y-110738094D02*
X109097676Y-110690475D01*
X109097676Y-110690475D02*
X109002438Y-110595237D01*
X109002438Y-110595237D02*
X108954819Y-110452380D01*
X108954819Y-110452380D02*
X108954819Y-110357142D01*
X108954819Y-110357142D02*
X109002438Y-110214285D01*
X109002438Y-110214285D02*
X109050057Y-110166666D01*
X109050057Y-109785713D02*
X109002438Y-109738094D01*
X109002438Y-109738094D02*
X108954819Y-109642856D01*
X108954819Y-109642856D02*
X108954819Y-109404761D01*
X108954819Y-109404761D02*
X109002438Y-109309523D01*
X109002438Y-109309523D02*
X109050057Y-109261904D01*
X109050057Y-109261904D02*
X109145295Y-109214285D01*
X109145295Y-109214285D02*
X109240533Y-109214285D01*
X109240533Y-109214285D02*
X109383390Y-109261904D01*
X109383390Y-109261904D02*
X109954819Y-109833332D01*
X109954819Y-109833332D02*
X109954819Y-109214285D01*
X119544819Y-110333333D02*
X120259104Y-110333333D01*
X120259104Y-110333333D02*
X120401961Y-110380952D01*
X120401961Y-110380952D02*
X120497200Y-110476190D01*
X120497200Y-110476190D02*
X120544819Y-110619047D01*
X120544819Y-110619047D02*
X120544819Y-110714285D01*
X119544819Y-109952380D02*
X119544819Y-109333333D01*
X119544819Y-109333333D02*
X119925771Y-109666666D01*
X119925771Y-109666666D02*
X119925771Y-109523809D01*
X119925771Y-109523809D02*
X119973390Y-109428571D01*
X119973390Y-109428571D02*
X120021009Y-109380952D01*
X120021009Y-109380952D02*
X120116247Y-109333333D01*
X120116247Y-109333333D02*
X120354342Y-109333333D01*
X120354342Y-109333333D02*
X120449580Y-109380952D01*
X120449580Y-109380952D02*
X120497200Y-109428571D01*
X120497200Y-109428571D02*
X120544819Y-109523809D01*
X120544819Y-109523809D02*
X120544819Y-109809523D01*
X120544819Y-109809523D02*
X120497200Y-109904761D01*
X120497200Y-109904761D02*
X120449580Y-109952380D01*
X132809524Y-47354819D02*
X132809524Y-46354819D01*
X132809524Y-46354819D02*
X133142857Y-47069104D01*
X133142857Y-47069104D02*
X133476190Y-46354819D01*
X133476190Y-46354819D02*
X133476190Y-47354819D01*
X134238095Y-46354819D02*
X134238095Y-47069104D01*
X134238095Y-47069104D02*
X134190476Y-47211961D01*
X134190476Y-47211961D02*
X134095238Y-47307200D01*
X134095238Y-47307200D02*
X133952381Y-47354819D01*
X133952381Y-47354819D02*
X133857143Y-47354819D01*
X134619048Y-46354819D02*
X135238095Y-46354819D01*
X135238095Y-46354819D02*
X134904762Y-46735771D01*
X134904762Y-46735771D02*
X135047619Y-46735771D01*
X135047619Y-46735771D02*
X135142857Y-46783390D01*
X135142857Y-46783390D02*
X135190476Y-46831009D01*
X135190476Y-46831009D02*
X135238095Y-46926247D01*
X135238095Y-46926247D02*
X135238095Y-47164342D01*
X135238095Y-47164342D02*
X135190476Y-47259580D01*
X135190476Y-47259580D02*
X135142857Y-47307200D01*
X135142857Y-47307200D02*
X135047619Y-47354819D01*
X135047619Y-47354819D02*
X134761905Y-47354819D01*
X134761905Y-47354819D02*
X134666667Y-47307200D01*
X134666667Y-47307200D02*
X134619048Y-47259580D01*
X156333333Y-113409580D02*
X156285714Y-113457200D01*
X156285714Y-113457200D02*
X156142857Y-113504819D01*
X156142857Y-113504819D02*
X156047619Y-113504819D01*
X156047619Y-113504819D02*
X155904762Y-113457200D01*
X155904762Y-113457200D02*
X155809524Y-113361961D01*
X155809524Y-113361961D02*
X155761905Y-113266723D01*
X155761905Y-113266723D02*
X155714286Y-113076247D01*
X155714286Y-113076247D02*
X155714286Y-112933390D01*
X155714286Y-112933390D02*
X155761905Y-112742914D01*
X155761905Y-112742914D02*
X155809524Y-112647676D01*
X155809524Y-112647676D02*
X155904762Y-112552438D01*
X155904762Y-112552438D02*
X156047619Y-112504819D01*
X156047619Y-112504819D02*
X156142857Y-112504819D01*
X156142857Y-112504819D02*
X156285714Y-112552438D01*
X156285714Y-112552438D02*
X156333333Y-112600057D01*
X156666667Y-112504819D02*
X157285714Y-112504819D01*
X157285714Y-112504819D02*
X156952381Y-112885771D01*
X156952381Y-112885771D02*
X157095238Y-112885771D01*
X157095238Y-112885771D02*
X157190476Y-112933390D01*
X157190476Y-112933390D02*
X157238095Y-112981009D01*
X157238095Y-112981009D02*
X157285714Y-113076247D01*
X157285714Y-113076247D02*
X157285714Y-113314342D01*
X157285714Y-113314342D02*
X157238095Y-113409580D01*
X157238095Y-113409580D02*
X157190476Y-113457200D01*
X157190476Y-113457200D02*
X157095238Y-113504819D01*
X157095238Y-113504819D02*
X156809524Y-113504819D01*
X156809524Y-113504819D02*
X156714286Y-113457200D01*
X156714286Y-113457200D02*
X156666667Y-113409580D01*
X108024819Y-89261904D02*
X108834342Y-89261904D01*
X108834342Y-89261904D02*
X108929580Y-89214285D01*
X108929580Y-89214285D02*
X108977200Y-89166666D01*
X108977200Y-89166666D02*
X109024819Y-89071428D01*
X109024819Y-89071428D02*
X109024819Y-88880952D01*
X109024819Y-88880952D02*
X108977200Y-88785714D01*
X108977200Y-88785714D02*
X108929580Y-88738095D01*
X108929580Y-88738095D02*
X108834342Y-88690476D01*
X108834342Y-88690476D02*
X108024819Y-88690476D01*
X109024819Y-87690476D02*
X109024819Y-88261904D01*
X109024819Y-87976190D02*
X108024819Y-87976190D01*
X108024819Y-87976190D02*
X108167676Y-88071428D01*
X108167676Y-88071428D02*
X108262914Y-88166666D01*
X108262914Y-88166666D02*
X108310533Y-88261904D01*
X113143333Y-134824819D02*
X112810000Y-134348628D01*
X112571905Y-134824819D02*
X112571905Y-133824819D01*
X112571905Y-133824819D02*
X112952857Y-133824819D01*
X112952857Y-133824819D02*
X113048095Y-133872438D01*
X113048095Y-133872438D02*
X113095714Y-133920057D01*
X113095714Y-133920057D02*
X113143333Y-134015295D01*
X113143333Y-134015295D02*
X113143333Y-134158152D01*
X113143333Y-134158152D02*
X113095714Y-134253390D01*
X113095714Y-134253390D02*
X113048095Y-134301009D01*
X113048095Y-134301009D02*
X112952857Y-134348628D01*
X112952857Y-134348628D02*
X112571905Y-134348628D01*
X113524286Y-133920057D02*
X113571905Y-133872438D01*
X113571905Y-133872438D02*
X113667143Y-133824819D01*
X113667143Y-133824819D02*
X113905238Y-133824819D01*
X113905238Y-133824819D02*
X114000476Y-133872438D01*
X114000476Y-133872438D02*
X114048095Y-133920057D01*
X114048095Y-133920057D02*
X114095714Y-134015295D01*
X114095714Y-134015295D02*
X114095714Y-134110533D01*
X114095714Y-134110533D02*
X114048095Y-134253390D01*
X114048095Y-134253390D02*
X113476667Y-134824819D01*
X113476667Y-134824819D02*
X114095714Y-134824819D01*
X156166666Y-102054819D02*
X156166666Y-102769104D01*
X156166666Y-102769104D02*
X156119047Y-102911961D01*
X156119047Y-102911961D02*
X156023809Y-103007200D01*
X156023809Y-103007200D02*
X155880952Y-103054819D01*
X155880952Y-103054819D02*
X155785714Y-103054819D01*
X157071428Y-102388152D02*
X157071428Y-103054819D01*
X156833333Y-102007200D02*
X156595238Y-102721485D01*
X156595238Y-102721485D02*
X157214285Y-102721485D01*
X119474819Y-127333333D02*
X120189104Y-127333333D01*
X120189104Y-127333333D02*
X120331961Y-127380952D01*
X120331961Y-127380952D02*
X120427200Y-127476190D01*
X120427200Y-127476190D02*
X120474819Y-127619047D01*
X120474819Y-127619047D02*
X120474819Y-127714285D01*
X119570057Y-126904761D02*
X119522438Y-126857142D01*
X119522438Y-126857142D02*
X119474819Y-126761904D01*
X119474819Y-126761904D02*
X119474819Y-126523809D01*
X119474819Y-126523809D02*
X119522438Y-126428571D01*
X119522438Y-126428571D02*
X119570057Y-126380952D01*
X119570057Y-126380952D02*
X119665295Y-126333333D01*
X119665295Y-126333333D02*
X119760533Y-126333333D01*
X119760533Y-126333333D02*
X119903390Y-126380952D01*
X119903390Y-126380952D02*
X120474819Y-126952380D01*
X120474819Y-126952380D02*
X120474819Y-126333333D01*
X131004819Y-63738094D02*
X130004819Y-63738094D01*
X130004819Y-63738094D02*
X130004819Y-63499999D01*
X130004819Y-63499999D02*
X130052438Y-63357142D01*
X130052438Y-63357142D02*
X130147676Y-63261904D01*
X130147676Y-63261904D02*
X130242914Y-63214285D01*
X130242914Y-63214285D02*
X130433390Y-63166666D01*
X130433390Y-63166666D02*
X130576247Y-63166666D01*
X130576247Y-63166666D02*
X130766723Y-63214285D01*
X130766723Y-63214285D02*
X130861961Y-63261904D01*
X130861961Y-63261904D02*
X130957200Y-63357142D01*
X130957200Y-63357142D02*
X131004819Y-63499999D01*
X131004819Y-63499999D02*
X131004819Y-63738094D01*
X131004819Y-62166666D02*
X130528628Y-62499999D01*
X131004819Y-62738094D02*
X130004819Y-62738094D01*
X130004819Y-62738094D02*
X130004819Y-62357142D01*
X130004819Y-62357142D02*
X130052438Y-62261904D01*
X130052438Y-62261904D02*
X130100057Y-62214285D01*
X130100057Y-62214285D02*
X130195295Y-62166666D01*
X130195295Y-62166666D02*
X130338152Y-62166666D01*
X130338152Y-62166666D02*
X130433390Y-62214285D01*
X130433390Y-62214285D02*
X130481009Y-62261904D01*
X130481009Y-62261904D02*
X130528628Y-62357142D01*
X130528628Y-62357142D02*
X130528628Y-62738094D01*
X131004819Y-61214285D02*
X131004819Y-61785713D01*
X131004819Y-61499999D02*
X130004819Y-61499999D01*
X130004819Y-61499999D02*
X130147676Y-61595237D01*
X130147676Y-61595237D02*
X130242914Y-61690475D01*
X130242914Y-61690475D02*
X130290533Y-61785713D01*
X134238095Y-117407200D02*
X134380952Y-117454819D01*
X134380952Y-117454819D02*
X134619047Y-117454819D01*
X134619047Y-117454819D02*
X134714285Y-117407200D01*
X134714285Y-117407200D02*
X134761904Y-117359580D01*
X134761904Y-117359580D02*
X134809523Y-117264342D01*
X134809523Y-117264342D02*
X134809523Y-117169104D01*
X134809523Y-117169104D02*
X134761904Y-117073866D01*
X134761904Y-117073866D02*
X134714285Y-117026247D01*
X134714285Y-117026247D02*
X134619047Y-116978628D01*
X134619047Y-116978628D02*
X134428571Y-116931009D01*
X134428571Y-116931009D02*
X134333333Y-116883390D01*
X134333333Y-116883390D02*
X134285714Y-116835771D01*
X134285714Y-116835771D02*
X134238095Y-116740533D01*
X134238095Y-116740533D02*
X134238095Y-116645295D01*
X134238095Y-116645295D02*
X134285714Y-116550057D01*
X134285714Y-116550057D02*
X134333333Y-116502438D01*
X134333333Y-116502438D02*
X134428571Y-116454819D01*
X134428571Y-116454819D02*
X134666666Y-116454819D01*
X134666666Y-116454819D02*
X134809523Y-116502438D01*
X135761904Y-117454819D02*
X135190476Y-117454819D01*
X135476190Y-117454819D02*
X135476190Y-116454819D01*
X135476190Y-116454819D02*
X135380952Y-116597676D01*
X135380952Y-116597676D02*
X135285714Y-116692914D01*
X135285714Y-116692914D02*
X135190476Y-116740533D01*
X116309524Y-47354819D02*
X116309524Y-46354819D01*
X116309524Y-46354819D02*
X116642857Y-47069104D01*
X116642857Y-47069104D02*
X116976190Y-46354819D01*
X116976190Y-46354819D02*
X116976190Y-47354819D01*
X117738095Y-46354819D02*
X117738095Y-47069104D01*
X117738095Y-47069104D02*
X117690476Y-47211961D01*
X117690476Y-47211961D02*
X117595238Y-47307200D01*
X117595238Y-47307200D02*
X117452381Y-47354819D01*
X117452381Y-47354819D02*
X117357143Y-47354819D01*
X118738095Y-47354819D02*
X118166667Y-47354819D01*
X118452381Y-47354819D02*
X118452381Y-46354819D01*
X118452381Y-46354819D02*
X118357143Y-46497676D01*
X118357143Y-46497676D02*
X118261905Y-46592914D01*
X118261905Y-46592914D02*
X118166667Y-46640533D01*
X113143333Y-119584819D02*
X112810000Y-119108628D01*
X112571905Y-119584819D02*
X112571905Y-118584819D01*
X112571905Y-118584819D02*
X112952857Y-118584819D01*
X112952857Y-118584819D02*
X113048095Y-118632438D01*
X113048095Y-118632438D02*
X113095714Y-118680057D01*
X113095714Y-118680057D02*
X113143333Y-118775295D01*
X113143333Y-118775295D02*
X113143333Y-118918152D01*
X113143333Y-118918152D02*
X113095714Y-119013390D01*
X113095714Y-119013390D02*
X113048095Y-119061009D01*
X113048095Y-119061009D02*
X112952857Y-119108628D01*
X112952857Y-119108628D02*
X112571905Y-119108628D01*
X114048095Y-118584819D02*
X113571905Y-118584819D01*
X113571905Y-118584819D02*
X113524286Y-119061009D01*
X113524286Y-119061009D02*
X113571905Y-119013390D01*
X113571905Y-119013390D02*
X113667143Y-118965771D01*
X113667143Y-118965771D02*
X113905238Y-118965771D01*
X113905238Y-118965771D02*
X114000476Y-119013390D01*
X114000476Y-119013390D02*
X114048095Y-119061009D01*
X114048095Y-119061009D02*
X114095714Y-119156247D01*
X114095714Y-119156247D02*
X114095714Y-119394342D01*
X114095714Y-119394342D02*
X114048095Y-119489580D01*
X114048095Y-119489580D02*
X114000476Y-119537200D01*
X114000476Y-119537200D02*
X113905238Y-119584819D01*
X113905238Y-119584819D02*
X113667143Y-119584819D01*
X113667143Y-119584819D02*
X113571905Y-119537200D01*
X113571905Y-119537200D02*
X113524286Y-119489580D01*
X156354819Y-63858094D02*
X155354819Y-63858094D01*
X155354819Y-63858094D02*
X155354819Y-63619999D01*
X155354819Y-63619999D02*
X155402438Y-63477142D01*
X155402438Y-63477142D02*
X155497676Y-63381904D01*
X155497676Y-63381904D02*
X155592914Y-63334285D01*
X155592914Y-63334285D02*
X155783390Y-63286666D01*
X155783390Y-63286666D02*
X155926247Y-63286666D01*
X155926247Y-63286666D02*
X156116723Y-63334285D01*
X156116723Y-63334285D02*
X156211961Y-63381904D01*
X156211961Y-63381904D02*
X156307200Y-63477142D01*
X156307200Y-63477142D02*
X156354819Y-63619999D01*
X156354819Y-63619999D02*
X156354819Y-63858094D01*
X156354819Y-62286666D02*
X155878628Y-62619999D01*
X156354819Y-62858094D02*
X155354819Y-62858094D01*
X155354819Y-62858094D02*
X155354819Y-62477142D01*
X155354819Y-62477142D02*
X155402438Y-62381904D01*
X155402438Y-62381904D02*
X155450057Y-62334285D01*
X155450057Y-62334285D02*
X155545295Y-62286666D01*
X155545295Y-62286666D02*
X155688152Y-62286666D01*
X155688152Y-62286666D02*
X155783390Y-62334285D01*
X155783390Y-62334285D02*
X155831009Y-62381904D01*
X155831009Y-62381904D02*
X155878628Y-62477142D01*
X155878628Y-62477142D02*
X155878628Y-62858094D01*
X155450057Y-61905713D02*
X155402438Y-61858094D01*
X155402438Y-61858094D02*
X155354819Y-61762856D01*
X155354819Y-61762856D02*
X155354819Y-61524761D01*
X155354819Y-61524761D02*
X155402438Y-61429523D01*
X155402438Y-61429523D02*
X155450057Y-61381904D01*
X155450057Y-61381904D02*
X155545295Y-61334285D01*
X155545295Y-61334285D02*
X155640533Y-61334285D01*
X155640533Y-61334285D02*
X155783390Y-61381904D01*
X155783390Y-61381904D02*
X156354819Y-61953332D01*
X156354819Y-61953332D02*
X156354819Y-61334285D01*
X113643333Y-140084819D02*
X113310000Y-139608628D01*
X113071905Y-140084819D02*
X113071905Y-139084819D01*
X113071905Y-139084819D02*
X113452857Y-139084819D01*
X113452857Y-139084819D02*
X113548095Y-139132438D01*
X113548095Y-139132438D02*
X113595714Y-139180057D01*
X113595714Y-139180057D02*
X113643333Y-139275295D01*
X113643333Y-139275295D02*
X113643333Y-139418152D01*
X113643333Y-139418152D02*
X113595714Y-139513390D01*
X113595714Y-139513390D02*
X113548095Y-139561009D01*
X113548095Y-139561009D02*
X113452857Y-139608628D01*
X113452857Y-139608628D02*
X113071905Y-139608628D01*
X114595714Y-140084819D02*
X114024286Y-140084819D01*
X114310000Y-140084819D02*
X114310000Y-139084819D01*
X114310000Y-139084819D02*
X114214762Y-139227676D01*
X114214762Y-139227676D02*
X114119524Y-139322914D01*
X114119524Y-139322914D02*
X114024286Y-139370533D01*
X120454819Y-131182857D02*
X119978628Y-131516190D01*
X120454819Y-131754285D02*
X119454819Y-131754285D01*
X119454819Y-131754285D02*
X119454819Y-131373333D01*
X119454819Y-131373333D02*
X119502438Y-131278095D01*
X119502438Y-131278095D02*
X119550057Y-131230476D01*
X119550057Y-131230476D02*
X119645295Y-131182857D01*
X119645295Y-131182857D02*
X119788152Y-131182857D01*
X119788152Y-131182857D02*
X119883390Y-131230476D01*
X119883390Y-131230476D02*
X119931009Y-131278095D01*
X119931009Y-131278095D02*
X119978628Y-131373333D01*
X119978628Y-131373333D02*
X119978628Y-131754285D01*
X120407200Y-130801904D02*
X120454819Y-130659047D01*
X120454819Y-130659047D02*
X120454819Y-130420952D01*
X120454819Y-130420952D02*
X120407200Y-130325714D01*
X120407200Y-130325714D02*
X120359580Y-130278095D01*
X120359580Y-130278095D02*
X120264342Y-130230476D01*
X120264342Y-130230476D02*
X120169104Y-130230476D01*
X120169104Y-130230476D02*
X120073866Y-130278095D01*
X120073866Y-130278095D02*
X120026247Y-130325714D01*
X120026247Y-130325714D02*
X119978628Y-130420952D01*
X119978628Y-130420952D02*
X119931009Y-130611428D01*
X119931009Y-130611428D02*
X119883390Y-130706666D01*
X119883390Y-130706666D02*
X119835771Y-130754285D01*
X119835771Y-130754285D02*
X119740533Y-130801904D01*
X119740533Y-130801904D02*
X119645295Y-130801904D01*
X119645295Y-130801904D02*
X119550057Y-130754285D01*
X119550057Y-130754285D02*
X119502438Y-130706666D01*
X119502438Y-130706666D02*
X119454819Y-130611428D01*
X119454819Y-130611428D02*
X119454819Y-130373333D01*
X119454819Y-130373333D02*
X119502438Y-130230476D01*
X120454819Y-129278095D02*
X120454819Y-129849523D01*
X120454819Y-129563809D02*
X119454819Y-129563809D01*
X119454819Y-129563809D02*
X119597676Y-129659047D01*
X119597676Y-129659047D02*
X119692914Y-129754285D01*
X119692914Y-129754285D02*
X119740533Y-129849523D01*
X113143333Y-117824819D02*
X112810000Y-117348628D01*
X112571905Y-117824819D02*
X112571905Y-116824819D01*
X112571905Y-116824819D02*
X112952857Y-116824819D01*
X112952857Y-116824819D02*
X113048095Y-116872438D01*
X113048095Y-116872438D02*
X113095714Y-116920057D01*
X113095714Y-116920057D02*
X113143333Y-117015295D01*
X113143333Y-117015295D02*
X113143333Y-117158152D01*
X113143333Y-117158152D02*
X113095714Y-117253390D01*
X113095714Y-117253390D02*
X113048095Y-117301009D01*
X113048095Y-117301009D02*
X112952857Y-117348628D01*
X112952857Y-117348628D02*
X112571905Y-117348628D01*
X113476667Y-116824819D02*
X114095714Y-116824819D01*
X114095714Y-116824819D02*
X113762381Y-117205771D01*
X113762381Y-117205771D02*
X113905238Y-117205771D01*
X113905238Y-117205771D02*
X114000476Y-117253390D01*
X114000476Y-117253390D02*
X114048095Y-117301009D01*
X114048095Y-117301009D02*
X114095714Y-117396247D01*
X114095714Y-117396247D02*
X114095714Y-117634342D01*
X114095714Y-117634342D02*
X114048095Y-117729580D01*
X114048095Y-117729580D02*
X114000476Y-117777200D01*
X114000476Y-117777200D02*
X113905238Y-117824819D01*
X113905238Y-117824819D02*
X113619524Y-117824819D01*
X113619524Y-117824819D02*
X113524286Y-117777200D01*
X113524286Y-117777200D02*
X113476667Y-117729580D01*
X113213333Y-103084819D02*
X112880000Y-102608628D01*
X112641905Y-103084819D02*
X112641905Y-102084819D01*
X112641905Y-102084819D02*
X113022857Y-102084819D01*
X113022857Y-102084819D02*
X113118095Y-102132438D01*
X113118095Y-102132438D02*
X113165714Y-102180057D01*
X113165714Y-102180057D02*
X113213333Y-102275295D01*
X113213333Y-102275295D02*
X113213333Y-102418152D01*
X113213333Y-102418152D02*
X113165714Y-102513390D01*
X113165714Y-102513390D02*
X113118095Y-102561009D01*
X113118095Y-102561009D02*
X113022857Y-102608628D01*
X113022857Y-102608628D02*
X112641905Y-102608628D01*
X114070476Y-102084819D02*
X113880000Y-102084819D01*
X113880000Y-102084819D02*
X113784762Y-102132438D01*
X113784762Y-102132438D02*
X113737143Y-102180057D01*
X113737143Y-102180057D02*
X113641905Y-102322914D01*
X113641905Y-102322914D02*
X113594286Y-102513390D01*
X113594286Y-102513390D02*
X113594286Y-102894342D01*
X113594286Y-102894342D02*
X113641905Y-102989580D01*
X113641905Y-102989580D02*
X113689524Y-103037200D01*
X113689524Y-103037200D02*
X113784762Y-103084819D01*
X113784762Y-103084819D02*
X113975238Y-103084819D01*
X113975238Y-103084819D02*
X114070476Y-103037200D01*
X114070476Y-103037200D02*
X114118095Y-102989580D01*
X114118095Y-102989580D02*
X114165714Y-102894342D01*
X114165714Y-102894342D02*
X114165714Y-102656247D01*
X114165714Y-102656247D02*
X114118095Y-102561009D01*
X114118095Y-102561009D02*
X114070476Y-102513390D01*
X114070476Y-102513390D02*
X113975238Y-102465771D01*
X113975238Y-102465771D02*
X113784762Y-102465771D01*
X113784762Y-102465771D02*
X113689524Y-102513390D01*
X113689524Y-102513390D02*
X113641905Y-102561009D01*
X113641905Y-102561009D02*
X113594286Y-102656247D01*
X164324819Y-109476666D02*
X163848628Y-109809999D01*
X164324819Y-110048094D02*
X163324819Y-110048094D01*
X163324819Y-110048094D02*
X163324819Y-109667142D01*
X163324819Y-109667142D02*
X163372438Y-109571904D01*
X163372438Y-109571904D02*
X163420057Y-109524285D01*
X163420057Y-109524285D02*
X163515295Y-109476666D01*
X163515295Y-109476666D02*
X163658152Y-109476666D01*
X163658152Y-109476666D02*
X163753390Y-109524285D01*
X163753390Y-109524285D02*
X163801009Y-109571904D01*
X163801009Y-109571904D02*
X163848628Y-109667142D01*
X163848628Y-109667142D02*
X163848628Y-110048094D01*
X163658152Y-108619523D02*
X164324819Y-108619523D01*
X163277200Y-108857618D02*
X163991485Y-109095713D01*
X163991485Y-109095713D02*
X163991485Y-108476666D01*
X149584819Y-109476666D02*
X149108628Y-109809999D01*
X149584819Y-110048094D02*
X148584819Y-110048094D01*
X148584819Y-110048094D02*
X148584819Y-109667142D01*
X148584819Y-109667142D02*
X148632438Y-109571904D01*
X148632438Y-109571904D02*
X148680057Y-109524285D01*
X148680057Y-109524285D02*
X148775295Y-109476666D01*
X148775295Y-109476666D02*
X148918152Y-109476666D01*
X148918152Y-109476666D02*
X149013390Y-109524285D01*
X149013390Y-109524285D02*
X149061009Y-109571904D01*
X149061009Y-109571904D02*
X149108628Y-109667142D01*
X149108628Y-109667142D02*
X149108628Y-110048094D01*
X148584819Y-109143332D02*
X148584819Y-108476666D01*
X148584819Y-108476666D02*
X149584819Y-108905237D01*
X159954819Y-62833333D02*
X160669104Y-62833333D01*
X160669104Y-62833333D02*
X160811961Y-62880952D01*
X160811961Y-62880952D02*
X160907200Y-62976190D01*
X160907200Y-62976190D02*
X160954819Y-63119047D01*
X160954819Y-63119047D02*
X160954819Y-63214285D01*
X160954819Y-61833333D02*
X160954819Y-62404761D01*
X160954819Y-62119047D02*
X159954819Y-62119047D01*
X159954819Y-62119047D02*
X160097676Y-62214285D01*
X160097676Y-62214285D02*
X160192914Y-62309523D01*
X160192914Y-62309523D02*
X160240533Y-62404761D01*
X164614700Y-56571428D02*
X164614700Y-55428571D01*
X165186128Y-55999999D02*
X164043271Y-55999999D01*
X164614700Y-69571428D02*
X164614700Y-68428571D01*
D12*
%TO.C,MJ4*%
X157560000Y-45910000D02*
X157560000Y-41190000D01*
X157560000Y-43800000D02*
X156950000Y-43800000D01*
X157560000Y-42500000D02*
X156950000Y-42500000D01*
X157560000Y-41190000D02*
X143440000Y-41190000D01*
X156950000Y-45300000D02*
X156950000Y-41800000D01*
X156950000Y-41800000D02*
X155000000Y-41800000D01*
X155000000Y-41800000D02*
X155000000Y-41190000D01*
X154600000Y-44800000D02*
X154600000Y-45300000D01*
X154500000Y-45300000D02*
X154500000Y-44800000D01*
X154400000Y-45300000D02*
X154400000Y-44800000D01*
X154400000Y-44800000D02*
X154600000Y-44800000D01*
X152600000Y-44800000D02*
X152600000Y-45300000D01*
X152500000Y-45300000D02*
X152500000Y-44800000D01*
X152400000Y-45300000D02*
X152400000Y-44800000D01*
X152400000Y-44800000D02*
X152600000Y-44800000D01*
X150600000Y-44800000D02*
X150600000Y-45300000D01*
X150500000Y-45300000D02*
X150500000Y-44800000D01*
X150400000Y-45300000D02*
X150400000Y-44800000D01*
X150400000Y-44800000D02*
X150600000Y-44800000D01*
X148600000Y-44800000D02*
X148600000Y-45300000D01*
X148500000Y-45300000D02*
X148500000Y-44800000D01*
X148400000Y-45300000D02*
X148400000Y-44800000D01*
X148400000Y-44800000D02*
X148600000Y-44800000D01*
X146600000Y-44800000D02*
X146600000Y-45300000D01*
X146500000Y-45300000D02*
X146500000Y-44800000D01*
X146400000Y-45300000D02*
X146400000Y-44800000D01*
X146400000Y-44800000D02*
X146600000Y-44800000D01*
X146000000Y-41800000D02*
X144050000Y-41800000D01*
X146000000Y-41190000D02*
X146000000Y-41800000D01*
X145200000Y-41190000D02*
X145200000Y-40990000D01*
X145200000Y-41090000D02*
X144900000Y-41090000D01*
X145200000Y-40990000D02*
X144900000Y-40990000D01*
X144900000Y-40990000D02*
X144900000Y-41190000D01*
X144390000Y-40890000D02*
X143140000Y-40890000D01*
X144050000Y-45300000D02*
X156950000Y-45300000D01*
X144050000Y-41800000D02*
X144050000Y-45300000D01*
X143440000Y-45910000D02*
X157560000Y-45910000D01*
X143440000Y-43800000D02*
X144050000Y-43800000D01*
X143440000Y-42500000D02*
X144050000Y-42500000D01*
X143440000Y-41190000D02*
X143440000Y-45910000D01*
X143140000Y-40890000D02*
X143140000Y-42140000D01*
D13*
%TO.C,G\u002A\u002A\u002A*%
G36*
X102591706Y-129441532D02*
G01*
X102747395Y-129447793D01*
X102886130Y-129460186D01*
X102997153Y-129478700D01*
X102998230Y-129478950D01*
X103312512Y-129570414D01*
X103605032Y-129693186D01*
X103874433Y-129846192D01*
X104119355Y-130028361D01*
X104338438Y-130238620D01*
X104530324Y-130475898D01*
X104693655Y-130739122D01*
X104758256Y-130867413D01*
X104843085Y-131062873D01*
X104905701Y-131244895D01*
X104948985Y-131425862D01*
X104975811Y-131618159D01*
X104989060Y-131834166D01*
X104989926Y-131864308D01*
X104992028Y-131973363D01*
X104992699Y-132073861D01*
X104991971Y-132156788D01*
X104989872Y-132213128D01*
X104988712Y-132225769D01*
X104966763Y-132355519D01*
X104932998Y-132503817D01*
X104891612Y-132653564D01*
X104859232Y-132753308D01*
X104737761Y-133042929D01*
X104584954Y-133310334D01*
X104402703Y-133553875D01*
X104192899Y-133771901D01*
X103957435Y-133962763D01*
X103698201Y-134124811D01*
X103417091Y-134256396D01*
X103115994Y-134355868D01*
X102985404Y-134387376D01*
X102869491Y-134405744D01*
X102727496Y-134417940D01*
X102570177Y-134423973D01*
X102408293Y-134423853D01*
X102349814Y-134421501D01*
X102252604Y-134417592D01*
X102113869Y-134405199D01*
X102002846Y-134386685D01*
X102001769Y-134386435D01*
X101687280Y-134294665D01*
X101394512Y-134171316D01*
X101124930Y-134017864D01*
X100880002Y-133835783D01*
X100661192Y-133626548D01*
X100469968Y-133391636D01*
X100307795Y-133132519D01*
X100176140Y-132850674D01*
X100076468Y-132547576D01*
X100066792Y-132507361D01*
X100202285Y-132507361D01*
X100203301Y-132549892D01*
X100204102Y-132554326D01*
X100232749Y-132596765D01*
X100284755Y-132628558D01*
X100353575Y-132646080D01*
X100418876Y-132636385D01*
X100486328Y-132596916D01*
X100561602Y-132525119D01*
X100592622Y-132489787D01*
X100644689Y-132426702D01*
X100676854Y-132379234D01*
X100695090Y-132333717D01*
X100705368Y-132276485D01*
X100711422Y-132217922D01*
X100719877Y-132145954D01*
X100729593Y-132090580D01*
X100738697Y-132062056D01*
X100740142Y-132060555D01*
X100766802Y-132059036D01*
X100811001Y-132067361D01*
X100857315Y-132081212D01*
X100890324Y-132096270D01*
X100897344Y-132104572D01*
X100894168Y-132126597D01*
X100885419Y-132182343D01*
X100871877Y-132266973D01*
X100854320Y-132375650D01*
X100833530Y-132503539D01*
X100810284Y-132645802D01*
X100800978Y-132702568D01*
X100705114Y-133286827D01*
X100846297Y-133532782D01*
X100911287Y-133642874D01*
X100963387Y-133721615D01*
X101006986Y-133772701D01*
X101046475Y-133799827D01*
X101086246Y-133806691D01*
X101130690Y-133796988D01*
X101150937Y-133789222D01*
X101203831Y-133755515D01*
X101241439Y-133701372D01*
X101266399Y-133620947D01*
X101281352Y-133508391D01*
X101282137Y-133498568D01*
X101287207Y-133419965D01*
X101285548Y-133365155D01*
X101273960Y-133319017D01*
X101249245Y-133266426D01*
X101222891Y-133218517D01*
X101188575Y-133155617D01*
X101163363Y-133106474D01*
X101152048Y-133080490D01*
X101151846Y-133079201D01*
X101167337Y-133063289D01*
X101203711Y-133040553D01*
X101245824Y-133019298D01*
X101278527Y-133007825D01*
X101282760Y-133007435D01*
X101295171Y-133024216D01*
X101322885Y-133071683D01*
X101363629Y-133145620D01*
X101415132Y-133241812D01*
X101475121Y-133356044D01*
X101541324Y-133484099D01*
X101571923Y-133543907D01*
X101845461Y-134080251D01*
X102079923Y-134186159D01*
X102170559Y-134226807D01*
X102250637Y-134262178D01*
X102312214Y-134288801D01*
X102347347Y-134303205D01*
X102349814Y-134304087D01*
X102403076Y-134303721D01*
X102457740Y-134275631D01*
X102500820Y-134228426D01*
X102515836Y-134194024D01*
X102524220Y-134137922D01*
X102516594Y-134080027D01*
X102490354Y-134010923D01*
X102442895Y-133921197D01*
X102437975Y-133912623D01*
X102401843Y-133854103D01*
X102367133Y-133812752D01*
X102322935Y-133779160D01*
X102258339Y-133743919D01*
X102221316Y-133725792D01*
X102070361Y-133652968D01*
X102103184Y-133584138D01*
X102128608Y-133540160D01*
X102150918Y-133516575D01*
X102155183Y-133515308D01*
X102176762Y-133523905D01*
X102228651Y-133548241D01*
X102306431Y-133586134D01*
X102405688Y-133635402D01*
X102522004Y-133693865D01*
X102650963Y-133759339D01*
X102703526Y-133786199D01*
X103232692Y-134057090D01*
X103505346Y-134000530D01*
X103608978Y-133977346D01*
X103699163Y-133953988D01*
X103768211Y-133932663D01*
X103808428Y-133915577D01*
X103813077Y-133912226D01*
X103841894Y-133862502D01*
X103848033Y-133796333D01*
X103832075Y-133728677D01*
X103804192Y-133683971D01*
X103764615Y-133652476D01*
X103701512Y-133614847D01*
X103627905Y-133578776D01*
X103621191Y-133575861D01*
X103482152Y-133516190D01*
X103331168Y-133545078D01*
X103257696Y-133557423D01*
X103198924Y-133564129D01*
X103165430Y-133564072D01*
X103162476Y-133563022D01*
X103150941Y-133538077D01*
X103144989Y-133490394D01*
X103144769Y-133478709D01*
X103144769Y-133405339D01*
X103741451Y-133313688D01*
X104338134Y-133222037D01*
X104451826Y-133100019D01*
X104553691Y-132989436D01*
X104630055Y-132902285D01*
X104682937Y-132834258D01*
X104714360Y-132781047D01*
X104726346Y-132738346D01*
X104720915Y-132701847D01*
X104700090Y-132667242D01*
X104670272Y-132634574D01*
X104629529Y-132601324D01*
X104583757Y-132583148D01*
X104524511Y-132579275D01*
X104443343Y-132588934D01*
X104356699Y-132605939D01*
X104291268Y-132622020D01*
X104242093Y-132641915D01*
X104197040Y-132673008D01*
X104143970Y-132722683D01*
X104113349Y-132753989D01*
X103996453Y-132874933D01*
X103939758Y-132811480D01*
X103883063Y-132748027D01*
X104314778Y-132315937D01*
X104746493Y-131883846D01*
X104773648Y-131659154D01*
X104787893Y-131538279D01*
X104797133Y-131449781D01*
X104801586Y-131387309D01*
X104801472Y-131344513D01*
X104797008Y-131315045D01*
X104788414Y-131292554D01*
X104786412Y-131288694D01*
X104755308Y-131257621D01*
X104706488Y-131231776D01*
X104704528Y-131231079D01*
X104635580Y-131219006D01*
X104568948Y-131234696D01*
X104499182Y-131280801D01*
X104420834Y-131359968D01*
X104407377Y-131375598D01*
X104355310Y-131438683D01*
X104323145Y-131486151D01*
X104304909Y-131531668D01*
X104294631Y-131588900D01*
X104288577Y-131647462D01*
X104280122Y-131719431D01*
X104270407Y-131774805D01*
X104261303Y-131803328D01*
X104259857Y-131804830D01*
X104233197Y-131806349D01*
X104188998Y-131798024D01*
X104142684Y-131784173D01*
X104109675Y-131769115D01*
X104102655Y-131760812D01*
X104105831Y-131738788D01*
X104114580Y-131683042D01*
X104128123Y-131598412D01*
X104145679Y-131489735D01*
X104166470Y-131361846D01*
X104189716Y-131219583D01*
X104199021Y-131162817D01*
X104294885Y-130578558D01*
X104153702Y-130332602D01*
X104088712Y-130222510D01*
X104036612Y-130143770D01*
X103993013Y-130092684D01*
X103953524Y-130065558D01*
X103913753Y-130058694D01*
X103869310Y-130068397D01*
X103849062Y-130076162D01*
X103796168Y-130109870D01*
X103758561Y-130164013D01*
X103733600Y-130244438D01*
X103718647Y-130356994D01*
X103717862Y-130366817D01*
X103712792Y-130445420D01*
X103714451Y-130500230D01*
X103726039Y-130546368D01*
X103750754Y-130598959D01*
X103777108Y-130646868D01*
X103811424Y-130709768D01*
X103836637Y-130758910D01*
X103847951Y-130784894D01*
X103848153Y-130786184D01*
X103832663Y-130802096D01*
X103796288Y-130824831D01*
X103754175Y-130846087D01*
X103721472Y-130857560D01*
X103717239Y-130857950D01*
X103704828Y-130841169D01*
X103677114Y-130793702D01*
X103636370Y-130719765D01*
X103584867Y-130623572D01*
X103524878Y-130509341D01*
X103458676Y-130381286D01*
X103428077Y-130321478D01*
X103154538Y-129785133D01*
X102920077Y-129679226D01*
X102829440Y-129638578D01*
X102749362Y-129603207D01*
X102687785Y-129576584D01*
X102652653Y-129562180D01*
X102650185Y-129561298D01*
X102596923Y-129561664D01*
X102542259Y-129589754D01*
X102499179Y-129636959D01*
X102484163Y-129671361D01*
X102475779Y-129727463D01*
X102483405Y-129785358D01*
X102509645Y-129854462D01*
X102557104Y-129944188D01*
X102562024Y-129952762D01*
X102598156Y-130011282D01*
X102632866Y-130052633D01*
X102677065Y-130086225D01*
X102741660Y-130121466D01*
X102778683Y-130139593D01*
X102929638Y-130212417D01*
X102896816Y-130281247D01*
X102870989Y-130325250D01*
X102847731Y-130348805D01*
X102843189Y-130350051D01*
X102821200Y-130341418D01*
X102768953Y-130316997D01*
X102690883Y-130278980D01*
X102591426Y-130229559D01*
X102475019Y-130170927D01*
X102346095Y-130105276D01*
X102294846Y-130078997D01*
X101767307Y-129807969D01*
X101494653Y-129864692D01*
X101391280Y-129887880D01*
X101301180Y-129911263D01*
X101232083Y-129932617D01*
X101191713Y-129949724D01*
X101186922Y-129953159D01*
X101158105Y-130002883D01*
X101151966Y-130069051D01*
X101167924Y-130136708D01*
X101195807Y-130181414D01*
X101235384Y-130212909D01*
X101298487Y-130250538D01*
X101372094Y-130286609D01*
X101378808Y-130289524D01*
X101517847Y-130349195D01*
X101670519Y-130319984D01*
X101755349Y-130305531D01*
X101809223Y-130303465D01*
X101839124Y-130316812D01*
X101852035Y-130348601D01*
X101854931Y-130399921D01*
X101855230Y-130459534D01*
X101257924Y-130552108D01*
X100660617Y-130644682D01*
X100547549Y-130766033D01*
X100445792Y-130876509D01*
X100369544Y-130963566D01*
X100316784Y-131031515D01*
X100285491Y-131084670D01*
X100273642Y-131127343D01*
X100279218Y-131163848D01*
X100300197Y-131198497D01*
X100329727Y-131230811D01*
X100370470Y-131264061D01*
X100416242Y-131282237D01*
X100475488Y-131286110D01*
X100556656Y-131276451D01*
X100643300Y-131259446D01*
X100708731Y-131243365D01*
X100757906Y-131223470D01*
X100802959Y-131192377D01*
X100856029Y-131142701D01*
X100886650Y-131111396D01*
X101003546Y-130990452D01*
X101060241Y-131053905D01*
X101116936Y-131117357D01*
X100685563Y-131549448D01*
X100254190Y-131981539D01*
X100223502Y-132245308D01*
X100212933Y-132346340D01*
X100205679Y-132436601D01*
X100202285Y-132507361D01*
X100066792Y-132507361D01*
X100045316Y-132418097D01*
X100026948Y-132302184D01*
X100014752Y-132160189D01*
X100008719Y-132002870D01*
X100008839Y-131840986D01*
X100015100Y-131685297D01*
X100027493Y-131546562D01*
X100046007Y-131435539D01*
X100046257Y-131434462D01*
X100138027Y-131119973D01*
X100261376Y-130827204D01*
X100414828Y-130557623D01*
X100596909Y-130312694D01*
X100806144Y-130093885D01*
X101041056Y-129902661D01*
X101300173Y-129740488D01*
X101582018Y-129608833D01*
X101885116Y-129509161D01*
X102014595Y-129478009D01*
X102130508Y-129459640D01*
X102272503Y-129447445D01*
X102429822Y-129441412D01*
X102591706Y-129441532D01*
G37*
G36*
X102767699Y-123385208D02*
G01*
X102885172Y-123388724D01*
X102997102Y-123394963D01*
X103096075Y-123403838D01*
X103174676Y-123415266D01*
X103200955Y-123421096D01*
X103393449Y-123490397D01*
X103565119Y-123591919D01*
X103714065Y-123723693D01*
X103838384Y-123883753D01*
X103936175Y-124070130D01*
X103996083Y-124244308D01*
X104014857Y-124340569D01*
X104028035Y-124463627D01*
X104035365Y-124601569D01*
X104036598Y-124742483D01*
X104031483Y-124874456D01*
X104019768Y-124985576D01*
X104012489Y-125024660D01*
X103948617Y-125238902D01*
X103858804Y-125424036D01*
X103742434Y-125580712D01*
X103598893Y-125709579D01*
X103427567Y-125811287D01*
X103227840Y-125886487D01*
X103186650Y-125897827D01*
X103137842Y-125909557D01*
X103088403Y-125918697D01*
X103032731Y-125925561D01*
X102965227Y-125930460D01*
X102880291Y-125933707D01*
X102772323Y-125935615D01*
X102635722Y-125936495D01*
X102490230Y-125936668D01*
X102324259Y-125936366D01*
X102191759Y-125935313D01*
X102087128Y-125933196D01*
X102004765Y-125929701D01*
X101939067Y-125924514D01*
X101884430Y-125917322D01*
X101835253Y-125907812D01*
X101793604Y-125897682D01*
X101640344Y-125849321D01*
X101512299Y-125787716D01*
X101396005Y-125705168D01*
X101297664Y-125614129D01*
X101179239Y-125476244D01*
X101089114Y-125327333D01*
X101021060Y-125156417D01*
X101002636Y-125094231D01*
X100984817Y-125001790D01*
X100972768Y-124881861D01*
X100966498Y-124745244D01*
X100966016Y-124602741D01*
X100971332Y-124465153D01*
X100982456Y-124343279D01*
X100999398Y-124247920D01*
X101001875Y-124238583D01*
X101066530Y-124055695D01*
X101152620Y-123888075D01*
X101256408Y-123739720D01*
X101374157Y-123614630D01*
X101502131Y-123516801D01*
X101636592Y-123450231D01*
X101767391Y-123419539D01*
X101828966Y-123414480D01*
X101863252Y-123418152D01*
X101881724Y-123434353D01*
X101893773Y-123461363D01*
X101901972Y-123502156D01*
X101908554Y-123571491D01*
X101912742Y-123658843D01*
X101913846Y-123733232D01*
X101912525Y-123842081D01*
X101906029Y-123920248D01*
X101890558Y-123976103D01*
X101862312Y-124018019D01*
X101817492Y-124054365D01*
X101752299Y-124093513D01*
X101749619Y-124095027D01*
X101631959Y-124182695D01*
X101543397Y-124296374D01*
X101484063Y-124435848D01*
X101456001Y-124580971D01*
X101452917Y-124689936D01*
X101463395Y-124806976D01*
X101485223Y-124916704D01*
X101516187Y-125003733D01*
X101517055Y-125005478D01*
X101575088Y-125091185D01*
X101655926Y-125172882D01*
X101744794Y-125236473D01*
X101775400Y-125251993D01*
X101843729Y-125277723D01*
X101921987Y-125297500D01*
X102015210Y-125311768D01*
X102128431Y-125320974D01*
X102266684Y-125325563D01*
X102435002Y-125325981D01*
X102586308Y-125323780D01*
X102756073Y-125319547D01*
X102892380Y-125313700D01*
X103000841Y-125305318D01*
X103087068Y-125293480D01*
X103156673Y-125277266D01*
X103215269Y-125255755D01*
X103268468Y-125228026D01*
X103302803Y-125206238D01*
X103368706Y-125147215D01*
X103433669Y-125064119D01*
X103488029Y-124970965D01*
X103519322Y-124892151D01*
X103532943Y-124816418D01*
X103539854Y-124717050D01*
X103540068Y-124608905D01*
X103533598Y-124506842D01*
X103520456Y-124425721D01*
X103518918Y-124419854D01*
X103472003Y-124305672D01*
X103400046Y-124199516D01*
X103312800Y-124114963D01*
X103286986Y-124097025D01*
X103208023Y-124052565D01*
X103130443Y-124023347D01*
X103041419Y-124005938D01*
X102928129Y-123996900D01*
X102910307Y-123996136D01*
X102763769Y-123990308D01*
X102758758Y-124273615D01*
X102755720Y-124398584D01*
X102749495Y-124489787D01*
X102736799Y-124552540D01*
X102714345Y-124592154D01*
X102678848Y-124613941D01*
X102627023Y-124623216D01*
X102555584Y-124625289D01*
X102541259Y-124625308D01*
X102481196Y-124625623D01*
X102433343Y-124623918D01*
X102396319Y-124616218D01*
X102368739Y-124598545D01*
X102349221Y-124566925D01*
X102336380Y-124517380D01*
X102328834Y-124445936D01*
X102325199Y-124348617D01*
X102324090Y-124221446D01*
X102324126Y-124060447D01*
X102324153Y-124001362D01*
X102324352Y-123836510D01*
X102325107Y-123706407D01*
X102326656Y-123606726D01*
X102329239Y-123533139D01*
X102333094Y-123481320D01*
X102338460Y-123446941D01*
X102345576Y-123425675D01*
X102354680Y-123413196D01*
X102356691Y-123411431D01*
X102390664Y-123400063D01*
X102456165Y-123391842D01*
X102545781Y-123386682D01*
X102652097Y-123384499D01*
X102767699Y-123385208D01*
G37*
G36*
X103026031Y-112231314D02*
G01*
X103121009Y-112233710D01*
X103194033Y-112238433D01*
X103253662Y-112246410D01*
X103308456Y-112258569D01*
X103366975Y-112275838D01*
X103390317Y-112283391D01*
X103569294Y-112360619D01*
X103721162Y-112465979D01*
X103845712Y-112599260D01*
X103942733Y-112760246D01*
X103997405Y-112899348D01*
X104014115Y-112976163D01*
X104026321Y-113080857D01*
X104033768Y-113202463D01*
X104036201Y-113330016D01*
X104033367Y-113452549D01*
X104025010Y-113559096D01*
X104014246Y-113625154D01*
X103953323Y-113812727D01*
X103861874Y-113976360D01*
X103741376Y-114114529D01*
X103593311Y-114225711D01*
X103419157Y-114308384D01*
X103320615Y-114339119D01*
X103230591Y-114355628D01*
X103112730Y-114366975D01*
X102977763Y-114373130D01*
X102890769Y-114373703D01*
X102836425Y-114374061D01*
X102699446Y-114369739D01*
X102577560Y-114360131D01*
X102481499Y-114345208D01*
X102466302Y-114341576D01*
X102275640Y-114274859D01*
X102112993Y-114181035D01*
X101978702Y-114060588D01*
X101873109Y-113913998D01*
X101796553Y-113741748D01*
X101749377Y-113544320D01*
X101731920Y-113322197D01*
X101731823Y-113303922D01*
X102165403Y-113303922D01*
X102179579Y-113441208D01*
X102223227Y-113553719D01*
X102298032Y-113644155D01*
X102405678Y-113715212D01*
X102429027Y-113726313D01*
X102467191Y-113742449D01*
X102504353Y-113754243D01*
X102547380Y-113762368D01*
X102603139Y-113767501D01*
X102678497Y-113770315D01*
X102780320Y-113771485D01*
X102890769Y-113771692D01*
X103018259Y-113771518D01*
X103113583Y-113770461D01*
X103183651Y-113767720D01*
X103235373Y-113762491D01*
X103275659Y-113753974D01*
X103311421Y-113741365D01*
X103349567Y-113723863D01*
X103364105Y-113716755D01*
X103473139Y-113645251D01*
X103550185Y-113552706D01*
X103596258Y-113437389D01*
X103612374Y-113297568D01*
X103612405Y-113293000D01*
X103599788Y-113179684D01*
X103573112Y-113097967D01*
X103530493Y-113016464D01*
X103483213Y-112959540D01*
X103418325Y-112913586D01*
X103376237Y-112890979D01*
X103281749Y-112856414D01*
X103159070Y-112831191D01*
X103018046Y-112815712D01*
X102868528Y-112810378D01*
X102720363Y-112815592D01*
X102583399Y-112831753D01*
X102482601Y-112854559D01*
X102383115Y-112899660D01*
X102292923Y-112968716D01*
X102223634Y-113051680D01*
X102198232Y-113100617D01*
X102179260Y-113169726D01*
X102167495Y-113255276D01*
X102165403Y-113303922D01*
X101731823Y-113303922D01*
X101731817Y-113302769D01*
X101744380Y-113087644D01*
X101782887Y-112899319D01*
X101848563Y-112734326D01*
X101942636Y-112589199D01*
X102011538Y-112511907D01*
X102109567Y-112422587D01*
X102209820Y-112352988D01*
X102318600Y-112301113D01*
X102442206Y-112264966D01*
X102586942Y-112242551D01*
X102759107Y-112231872D01*
X102900538Y-112230317D01*
X103026031Y-112231314D01*
G37*
G36*
X102993340Y-109595492D02*
G01*
X103139937Y-109603665D01*
X103265632Y-109619496D01*
X103310846Y-109628817D01*
X103507050Y-109692143D01*
X103674605Y-109780298D01*
X103812539Y-109892422D01*
X103919878Y-110027656D01*
X103995649Y-110185142D01*
X104016283Y-110251842D01*
X104032156Y-110342617D01*
X104040093Y-110455752D01*
X104040077Y-110575962D01*
X104032094Y-110687958D01*
X104016822Y-110773919D01*
X103973069Y-110888263D01*
X103905049Y-111008238D01*
X103821520Y-111118590D01*
X103814322Y-111126666D01*
X103745914Y-111202385D01*
X103854962Y-111202385D01*
X103913506Y-111204728D01*
X103954410Y-111215693D01*
X103980814Y-111241183D01*
X103995860Y-111287099D01*
X104002689Y-111359344D01*
X104004442Y-111463821D01*
X104004461Y-111483300D01*
X104003847Y-111575883D01*
X104001016Y-111637453D01*
X103994484Y-111676068D01*
X103982767Y-111699786D01*
X103964380Y-111716664D01*
X103961037Y-111719046D01*
X103949326Y-111724851D01*
X103930168Y-111729880D01*
X103900921Y-111734186D01*
X103858943Y-111737824D01*
X103801593Y-111740849D01*
X103726228Y-111743313D01*
X103630207Y-111745273D01*
X103510888Y-111746782D01*
X103365628Y-111747894D01*
X103191786Y-111748664D01*
X102986721Y-111749146D01*
X102883588Y-111749253D01*
X102747789Y-111749393D01*
X102480461Y-111749462D01*
X102206064Y-111749389D01*
X101968103Y-111749136D01*
X101763934Y-111748647D01*
X101590916Y-111747868D01*
X101446407Y-111746746D01*
X101327766Y-111745225D01*
X101232350Y-111743253D01*
X101157518Y-111740773D01*
X101100627Y-111737732D01*
X101059036Y-111734076D01*
X101030103Y-111729751D01*
X101011186Y-111724702D01*
X100999885Y-111719046D01*
X100981337Y-111703535D01*
X100968978Y-111682912D01*
X100961562Y-111649686D01*
X100957842Y-111596371D01*
X100956569Y-111515475D01*
X100956461Y-111458305D01*
X100957228Y-111357268D01*
X100960203Y-111287875D01*
X100966393Y-111242710D01*
X100976807Y-111214359D01*
X100992192Y-111195644D01*
X101007515Y-111185469D01*
X101031363Y-111177642D01*
X101068507Y-111171868D01*
X101123717Y-111167848D01*
X101201763Y-111165286D01*
X101307415Y-111163885D01*
X101445444Y-111163348D01*
X101511484Y-111163308D01*
X101995045Y-111163308D01*
X101928522Y-111085591D01*
X101831780Y-110943333D01*
X101765164Y-110780884D01*
X101742311Y-110665077D01*
X102198043Y-110665077D01*
X102199420Y-110749618D01*
X102206609Y-110809514D01*
X102222735Y-110859104D01*
X102250922Y-110912728D01*
X102252667Y-110915709D01*
X102330986Y-111012566D01*
X102437793Y-111090261D01*
X102564766Y-111142755D01*
X102565865Y-111143064D01*
X102636654Y-111154762D01*
X102743450Y-111160711D01*
X102883588Y-111160785D01*
X102922762Y-111159892D01*
X103037832Y-111155947D01*
X103122563Y-111150435D01*
X103185688Y-111142128D01*
X103235943Y-111129797D01*
X103282063Y-111112214D01*
X103291307Y-111108074D01*
X103411165Y-111038174D01*
X103496461Y-110951855D01*
X103549530Y-110845499D01*
X103572705Y-110715484D01*
X103574186Y-110669334D01*
X103569359Y-110581042D01*
X103556075Y-110501887D01*
X103544375Y-110464447D01*
X103492491Y-110372528D01*
X103420250Y-110300575D01*
X103324544Y-110247405D01*
X103202263Y-110211835D01*
X103050298Y-110192683D01*
X102865540Y-110188767D01*
X102822096Y-110189776D01*
X102709287Y-110194190D01*
X102626280Y-110200562D01*
X102563805Y-110210260D01*
X102512591Y-110224658D01*
X102470692Y-110241750D01*
X102355968Y-110305581D01*
X102275671Y-110380146D01*
X102225622Y-110471932D01*
X102201642Y-110587426D01*
X102198043Y-110665077D01*
X101742311Y-110665077D01*
X101730443Y-110604937D01*
X101729384Y-110422184D01*
X101736925Y-110360210D01*
X101782566Y-110179615D01*
X101859850Y-110021800D01*
X101968376Y-109887181D01*
X102107745Y-109776172D01*
X102277556Y-109689186D01*
X102435250Y-109637121D01*
X102546796Y-109615791D01*
X102684904Y-109601667D01*
X102837707Y-109594863D01*
X102993340Y-109595492D01*
G37*
G36*
X102954454Y-107053950D02*
G01*
X103092590Y-107059630D01*
X103215144Y-107070873D01*
X103308833Y-107087083D01*
X103495355Y-107150501D01*
X103657385Y-107243886D01*
X103793220Y-107365486D01*
X103901154Y-107513548D01*
X103979484Y-107686320D01*
X104014017Y-107812462D01*
X104027262Y-107902270D01*
X104036042Y-108016540D01*
X104039961Y-108140870D01*
X104038627Y-108260859D01*
X104031645Y-108362105D01*
X104029504Y-108379077D01*
X103996944Y-108519132D01*
X103940792Y-108663849D01*
X103867635Y-108799228D01*
X103784059Y-108911269D01*
X103774033Y-108922071D01*
X103673814Y-109005966D01*
X103543535Y-109081639D01*
X103392089Y-109143968D01*
X103383997Y-109146683D01*
X103324302Y-109165463D01*
X103270506Y-109178939D01*
X103214164Y-109188006D01*
X103146835Y-109193556D01*
X103060075Y-109196483D01*
X102945443Y-109197680D01*
X102900538Y-109197846D01*
X102841923Y-109196694D01*
X102705270Y-109194007D01*
X102541899Y-109179954D01*
X102404118Y-109153689D01*
X102285620Y-109113216D01*
X102180100Y-109056535D01*
X102081249Y-108981650D01*
X102011538Y-108916215D01*
X101902504Y-108785470D01*
X101821578Y-108638973D01*
X101767252Y-108472413D01*
X101738021Y-108281481D01*
X101731996Y-108123925D01*
X102165403Y-108123925D01*
X102179441Y-108260045D01*
X102222636Y-108372372D01*
X102296606Y-108464836D01*
X102311275Y-108477937D01*
X102386901Y-108531301D01*
X102474784Y-108569666D01*
X102581762Y-108594760D01*
X102714673Y-108608310D01*
X102841923Y-108611985D01*
X102994688Y-108610839D01*
X103115926Y-108604327D01*
X103212964Y-108591240D01*
X103293131Y-108570369D01*
X103363753Y-108540503D01*
X103401545Y-108519588D01*
X103475252Y-108467914D01*
X103527433Y-108408440D01*
X103561514Y-108349769D01*
X103591154Y-108287033D01*
X103606661Y-108234436D01*
X103611197Y-108175202D01*
X103608425Y-108100875D01*
X103599474Y-108011431D01*
X103581966Y-107943716D01*
X103551084Y-107880562D01*
X103542720Y-107866713D01*
X103491446Y-107799066D01*
X103426114Y-107746622D01*
X103370222Y-107715069D01*
X103255054Y-107656154D01*
X102892180Y-107656154D01*
X102762695Y-107656465D01*
X102665438Y-107657847D01*
X102593563Y-107660970D01*
X102540226Y-107666505D01*
X102498579Y-107675122D01*
X102461777Y-107687492D01*
X102429027Y-107701533D01*
X102315198Y-107769342D01*
X102234518Y-107856035D01*
X102185303Y-107964311D01*
X102165869Y-108096869D01*
X102165403Y-108123925D01*
X101731996Y-108123925D01*
X101731666Y-108115308D01*
X101747564Y-107894120D01*
X101793783Y-107696268D01*
X101869686Y-107522649D01*
X101974636Y-107374159D01*
X102107996Y-107251692D01*
X102269129Y-107156145D01*
X102457397Y-107088414D01*
X102463129Y-107086907D01*
X102555074Y-107070312D01*
X102674844Y-107059289D01*
X102811588Y-107053836D01*
X102954454Y-107053950D01*
G37*
G36*
X103776471Y-126212118D02*
G01*
X103862976Y-126216240D01*
X103919041Y-126223095D01*
X103953295Y-126234558D01*
X103974366Y-126252502D01*
X103976740Y-126255619D01*
X103983690Y-126284486D01*
X103989756Y-126347754D01*
X103994939Y-126440757D01*
X103999240Y-126558830D01*
X104002658Y-126697305D01*
X104005193Y-126851518D01*
X104006845Y-127016803D01*
X104007615Y-127188494D01*
X104007502Y-127361926D01*
X104006506Y-127532432D01*
X104004628Y-127695347D01*
X104001867Y-127846004D01*
X103998223Y-127979739D01*
X103993697Y-128091886D01*
X103988288Y-128177778D01*
X103981997Y-128232751D01*
X103976728Y-128250843D01*
X103970548Y-128257975D01*
X103961388Y-128264153D01*
X103946580Y-128269444D01*
X103923455Y-128273918D01*
X103889343Y-128277643D01*
X103841577Y-128280687D01*
X103777485Y-128283119D01*
X103694400Y-128285007D01*
X103589652Y-128286421D01*
X103460571Y-128287428D01*
X103304490Y-128288097D01*
X103118738Y-128288497D01*
X102900646Y-128288697D01*
X102647546Y-128288764D01*
X102500000Y-128288769D01*
X102227483Y-128288744D01*
X101991374Y-128288623D01*
X101789004Y-128288336D01*
X101617703Y-128287817D01*
X101474803Y-128286995D01*
X101357634Y-128285803D01*
X101263526Y-128284172D01*
X101189812Y-128282033D01*
X101133821Y-128279319D01*
X101092885Y-128275959D01*
X101064334Y-128271887D01*
X101045500Y-128267033D01*
X101033712Y-128261328D01*
X101026303Y-128254705D01*
X101023271Y-128250843D01*
X101011911Y-128215690D01*
X101003307Y-128151663D01*
X100997626Y-128068880D01*
X100995038Y-127977458D01*
X100995709Y-127887515D01*
X100999807Y-127809168D01*
X101007502Y-127752534D01*
X101014657Y-127731923D01*
X101022525Y-127725854D01*
X101039770Y-127720577D01*
X101069161Y-127716005D01*
X101113470Y-127712051D01*
X101175466Y-127708628D01*
X101257920Y-127705649D01*
X101363602Y-127703028D01*
X101495283Y-127700677D01*
X101655733Y-127698509D01*
X101847722Y-127696437D01*
X102074022Y-127694375D01*
X102259935Y-127692846D01*
X103486692Y-127683077D01*
X103496461Y-126970490D01*
X103506230Y-126257902D01*
X103555077Y-126232223D01*
X103611822Y-126217007D01*
X103705994Y-126211196D01*
X103776471Y-126212118D01*
G37*
G36*
X102666077Y-120391970D02*
G01*
X102846275Y-120399568D01*
X102994694Y-120410558D01*
X103118574Y-120426225D01*
X103225157Y-120447852D01*
X103321684Y-120476725D01*
X103415394Y-120514127D01*
X103453342Y-120531587D01*
X103601922Y-120619661D01*
X103725215Y-120732012D01*
X103825495Y-120871606D01*
X103905033Y-121041409D01*
X103949335Y-121178918D01*
X103960519Y-121222011D01*
X103969649Y-121264857D01*
X103976993Y-121312072D01*
X103982818Y-121368272D01*
X103987393Y-121438074D01*
X103990984Y-121526094D01*
X103993860Y-121636949D01*
X103996287Y-121775255D01*
X103998534Y-121945627D01*
X103999716Y-122048085D01*
X104001682Y-122235637D01*
X104002871Y-122387967D01*
X104003155Y-122508928D01*
X104002411Y-122602369D01*
X104000513Y-122672142D01*
X103997334Y-122722097D01*
X103992751Y-122756085D01*
X103986638Y-122777957D01*
X103978869Y-122791563D01*
X103975392Y-122795432D01*
X103966756Y-122801558D01*
X103952191Y-122806864D01*
X103929047Y-122811409D01*
X103894671Y-122815251D01*
X103846414Y-122818447D01*
X103781624Y-122821056D01*
X103697650Y-122823136D01*
X103591841Y-122824744D01*
X103461546Y-122825940D01*
X103304114Y-122826781D01*
X103116895Y-122827325D01*
X103021583Y-122827458D01*
X102897236Y-122827631D01*
X102642487Y-122827756D01*
X102500000Y-122827769D01*
X102226574Y-122827713D01*
X101989574Y-122827506D01*
X101786348Y-122827090D01*
X101614245Y-122826406D01*
X101470614Y-122825397D01*
X101352803Y-122824004D01*
X101258162Y-122822170D01*
X101184038Y-122819835D01*
X101127782Y-122816943D01*
X101086740Y-122813434D01*
X101058263Y-122809251D01*
X101039698Y-122804336D01*
X101028395Y-122798630D01*
X101024590Y-122795415D01*
X101016090Y-122783908D01*
X101009319Y-122765614D01*
X101004148Y-122736652D01*
X101000449Y-122693144D01*
X100998096Y-122631208D01*
X100996959Y-122546964D01*
X100996912Y-122436534D01*
X100997826Y-122296036D01*
X100998469Y-122231846D01*
X101493769Y-122231846D01*
X102480461Y-122236929D01*
X102673665Y-122237742D01*
X102855307Y-122238153D01*
X103021583Y-122238179D01*
X103168691Y-122237835D01*
X103292826Y-122237138D01*
X103390186Y-122236104D01*
X103456968Y-122234749D01*
X103489367Y-122233089D01*
X103491577Y-122232658D01*
X103501678Y-122209942D01*
X103509151Y-122155099D01*
X103513937Y-122074996D01*
X103515975Y-121976498D01*
X103515204Y-121866472D01*
X103511563Y-121751784D01*
X103504994Y-121639299D01*
X103497539Y-121555047D01*
X103469795Y-121401238D01*
X103422526Y-121272806D01*
X103357590Y-121174406D01*
X103336959Y-121153301D01*
X103269547Y-121103525D01*
X103183012Y-121063827D01*
X103073746Y-121033522D01*
X102938143Y-121011923D01*
X102772596Y-120998343D01*
X102573498Y-120992097D01*
X102486760Y-120991501D01*
X102279244Y-120995241D01*
X102106031Y-121007743D01*
X101963111Y-121030085D01*
X101846471Y-121063341D01*
X101752102Y-121108588D01*
X101675993Y-121166902D01*
X101626661Y-121222232D01*
X101584199Y-121284785D01*
X101551738Y-121351097D01*
X101528022Y-121427472D01*
X101511795Y-121520217D01*
X101501802Y-121635635D01*
X101496789Y-121780033D01*
X101495664Y-121880154D01*
X101493769Y-122231846D01*
X100998469Y-122231846D01*
X100999573Y-122121592D01*
X101000289Y-122057838D01*
X101002582Y-121870181D01*
X101004930Y-121716946D01*
X101007602Y-121593479D01*
X101010871Y-121495126D01*
X101015008Y-121417233D01*
X101020284Y-121355145D01*
X101026971Y-121304209D01*
X101035339Y-121259771D01*
X101045661Y-121217175D01*
X101050306Y-121199943D01*
X101122724Y-120998182D01*
X101221176Y-120825520D01*
X101345903Y-120681702D01*
X101497144Y-120566475D01*
X101675139Y-120479583D01*
X101754414Y-120452542D01*
X101860890Y-120428334D01*
X102000269Y-120409529D01*
X102166700Y-120396514D01*
X102354334Y-120389680D01*
X102557320Y-120389413D01*
X102666077Y-120391970D01*
G37*
G36*
X103964175Y-117528997D02*
G01*
X103984235Y-117551100D01*
X103994306Y-117590428D01*
X104001059Y-117658106D01*
X104004611Y-117744635D01*
X104005076Y-117840517D01*
X104002568Y-117936252D01*
X103997201Y-118022342D01*
X103989091Y-118089287D01*
X103978352Y-118127589D01*
X103977261Y-118129307D01*
X103954830Y-118149863D01*
X103904423Y-118189509D01*
X103830240Y-118245153D01*
X103736479Y-118313704D01*
X103627338Y-118392072D01*
X103507014Y-118477167D01*
X103460456Y-118509769D01*
X103338686Y-118595206D01*
X103227899Y-118673699D01*
X103132001Y-118742421D01*
X103054897Y-118798545D01*
X103000491Y-118839242D01*
X102972690Y-118861686D01*
X102969886Y-118864968D01*
X102985052Y-118879071D01*
X103028408Y-118912488D01*
X103095985Y-118962336D01*
X103183815Y-119025731D01*
X103287928Y-119099789D01*
X103404355Y-119181626D01*
X103439376Y-119206068D01*
X103561501Y-119291533D01*
X103675100Y-119371721D01*
X103775645Y-119443384D01*
X103858610Y-119503270D01*
X103919468Y-119548132D01*
X103953690Y-119574718D01*
X103957145Y-119577745D01*
X103976203Y-119597229D01*
X103989311Y-119618967D01*
X103997579Y-119650179D01*
X104002120Y-119698085D01*
X104004043Y-119769902D01*
X104004459Y-119872852D01*
X104004461Y-119885190D01*
X104004065Y-119991924D01*
X104002234Y-120066429D01*
X103997999Y-120115550D01*
X103990395Y-120146133D01*
X103978454Y-120165023D01*
X103963141Y-120177726D01*
X103920000Y-120195749D01*
X103889872Y-120195104D01*
X103867435Y-120181844D01*
X103816373Y-120148673D01*
X103740173Y-120097946D01*
X103642322Y-120032020D01*
X103526308Y-119953249D01*
X103395618Y-119863989D01*
X103253739Y-119766595D01*
X103168869Y-119708117D01*
X103023130Y-119607714D01*
X102887443Y-119514529D01*
X102765154Y-119430841D01*
X102659611Y-119358925D01*
X102574161Y-119301058D01*
X102512149Y-119259517D01*
X102476922Y-119236579D01*
X102470041Y-119232692D01*
X102452276Y-119243284D01*
X102405638Y-119273522D01*
X102333584Y-119321101D01*
X102239571Y-119383717D01*
X102127055Y-119459064D01*
X101999492Y-119544838D01*
X101860339Y-119638732D01*
X101801172Y-119678748D01*
X101657276Y-119775893D01*
X101522665Y-119866312D01*
X101400946Y-119947615D01*
X101295727Y-120017411D01*
X101210619Y-120073311D01*
X101149228Y-120112925D01*
X101115165Y-120133863D01*
X101110127Y-120136428D01*
X101070805Y-120134939D01*
X101036858Y-120119111D01*
X101019905Y-120104610D01*
X101008341Y-120084442D01*
X101001145Y-120051608D01*
X100997295Y-119999111D01*
X100995770Y-119919953D01*
X100995538Y-119835992D01*
X100996939Y-119737475D01*
X101000765Y-119650984D01*
X101006453Y-119585169D01*
X101013439Y-119548684D01*
X101014384Y-119546602D01*
X101034821Y-119526953D01*
X101083455Y-119488510D01*
X101156086Y-119434339D01*
X101248519Y-119367501D01*
X101356555Y-119291062D01*
X101475998Y-119208085D01*
X101512614Y-119182933D01*
X101633299Y-119099865D01*
X101742786Y-119023776D01*
X101837113Y-118957478D01*
X101912316Y-118903783D01*
X101964433Y-118865503D01*
X101989502Y-118845452D01*
X101991164Y-118843315D01*
X101975417Y-118829845D01*
X101931445Y-118797543D01*
X101863463Y-118749367D01*
X101775685Y-118688272D01*
X101672325Y-118617215D01*
X101557598Y-118539152D01*
X101557487Y-118539077D01*
X101438524Y-118458081D01*
X101327100Y-118381378D01*
X101228296Y-118312533D01*
X101147199Y-118255112D01*
X101088892Y-118212680D01*
X101060092Y-118190245D01*
X100995538Y-118134491D01*
X100995538Y-117883910D01*
X100996452Y-117774971D01*
X100999669Y-117698543D01*
X101005902Y-117648091D01*
X101015865Y-117617082D01*
X101026241Y-117602626D01*
X101062916Y-117577671D01*
X101084901Y-117571923D01*
X101106596Y-117582646D01*
X101157815Y-117613610D01*
X101235821Y-117663007D01*
X101337878Y-117729029D01*
X101461246Y-117809869D01*
X101603190Y-117903718D01*
X101760970Y-118008769D01*
X101931851Y-118123214D01*
X102113093Y-118245245D01*
X102301961Y-118373055D01*
X102436628Y-118464576D01*
X102448573Y-118467698D01*
X102468160Y-118463560D01*
X102498188Y-118450400D01*
X102541452Y-118426460D01*
X102600751Y-118389977D01*
X102678883Y-118339194D01*
X102778643Y-118272348D01*
X102902830Y-118187679D01*
X103054242Y-118083428D01*
X103174058Y-118000538D01*
X103330910Y-117892558D01*
X103475823Y-117794113D01*
X103605703Y-117707222D01*
X103717456Y-117633904D01*
X103807986Y-117576179D01*
X103874200Y-117536065D01*
X103913002Y-117515582D01*
X103920717Y-117513308D01*
X103964175Y-117528997D01*
G37*
G36*
X103966064Y-114717548D02*
G01*
X103985778Y-114753676D01*
X103997674Y-114816534D01*
X104003341Y-114910534D01*
X104004461Y-115006261D01*
X104004180Y-115107998D01*
X104002404Y-115178327D01*
X103997732Y-115224917D01*
X103988762Y-115255439D01*
X103974094Y-115277561D01*
X103952327Y-115298953D01*
X103950730Y-115300412D01*
X103920118Y-115322170D01*
X103859945Y-115359602D01*
X103775072Y-115409883D01*
X103670358Y-115470188D01*
X103550663Y-115537691D01*
X103420847Y-115609567D01*
X103389000Y-115627003D01*
X102881000Y-115904529D01*
X102875606Y-116200919D01*
X102870213Y-116497308D01*
X103393912Y-116497308D01*
X103555055Y-116497609D01*
X103681653Y-116498674D01*
X103778235Y-116500745D01*
X103849331Y-116504066D01*
X103899469Y-116508880D01*
X103933179Y-116515429D01*
X103954988Y-116523957D01*
X103961037Y-116527723D01*
X103979257Y-116542880D01*
X103991521Y-116562970D01*
X103999001Y-116595291D01*
X104002867Y-116647140D01*
X104004290Y-116725811D01*
X104004461Y-116798234D01*
X104003754Y-116901493D01*
X104001001Y-116972923D01*
X103995254Y-117019757D01*
X103985563Y-117049228D01*
X103970980Y-117068567D01*
X103968730Y-117070664D01*
X103959403Y-117076805D01*
X103944169Y-117082122D01*
X103920364Y-117086674D01*
X103885326Y-117090520D01*
X103836390Y-117093717D01*
X103770893Y-117096325D01*
X103686172Y-117098402D01*
X103579562Y-117100007D01*
X103448402Y-117101197D01*
X103290025Y-117102032D01*
X103101771Y-117102570D01*
X102880973Y-117102870D01*
X102624971Y-117102989D01*
X102496605Y-117103000D01*
X102225274Y-117102972D01*
X101990328Y-117102842D01*
X101933706Y-117102757D01*
X101789074Y-117102540D01*
X101618819Y-117101999D01*
X101476871Y-117101150D01*
X101360538Y-117099923D01*
X101267126Y-117098250D01*
X101193945Y-117096062D01*
X101138300Y-117093290D01*
X101097500Y-117089865D01*
X101068851Y-117085719D01*
X101049663Y-117080783D01*
X101037241Y-117074988D01*
X101028894Y-117068266D01*
X101026206Y-117065426D01*
X101017371Y-117053204D01*
X101010303Y-117035516D01*
X101004871Y-117008472D01*
X101000945Y-116968180D01*
X100998394Y-116910747D01*
X100997087Y-116832282D01*
X100996893Y-116728891D01*
X100997682Y-116596685D01*
X100998670Y-116497308D01*
X101481170Y-116497308D01*
X101933706Y-116497308D01*
X102386242Y-116497308D01*
X102378801Y-116101654D01*
X102374985Y-115947777D01*
X102369841Y-115829154D01*
X102363076Y-115741976D01*
X102354396Y-115682435D01*
X102343825Y-115647385D01*
X102276714Y-115535674D01*
X102193752Y-115457626D01*
X102089455Y-115409229D01*
X101991749Y-115389713D01*
X101858325Y-115390662D01*
X101736813Y-115424174D01*
X101633171Y-115487432D01*
X101553357Y-115577619D01*
X101537550Y-115604555D01*
X101522723Y-115634754D01*
X101511515Y-115666359D01*
X101503305Y-115705415D01*
X101497473Y-115757971D01*
X101493395Y-115830073D01*
X101490452Y-115927770D01*
X101488020Y-116057107D01*
X101487470Y-116091885D01*
X101481170Y-116497308D01*
X100998670Y-116497308D01*
X100999321Y-116431769D01*
X101000744Y-116308311D01*
X101003287Y-116114079D01*
X101006002Y-115954663D01*
X101009105Y-115825803D01*
X101012810Y-115723238D01*
X101017335Y-115642708D01*
X101022895Y-115579952D01*
X101029705Y-115530710D01*
X101037981Y-115490721D01*
X101043117Y-115471539D01*
X101115409Y-115275292D01*
X101209812Y-115111221D01*
X101326494Y-114979167D01*
X101465622Y-114878972D01*
X101627362Y-114810478D01*
X101775787Y-114778025D01*
X101930605Y-114768619D01*
X102090200Y-114780875D01*
X102240194Y-114812932D01*
X102343281Y-114851427D01*
X102442753Y-114912171D01*
X102543339Y-114997107D01*
X102633552Y-115094831D01*
X102701904Y-115193937D01*
X102716144Y-115221622D01*
X102744290Y-115276767D01*
X102767794Y-115314054D01*
X102778798Y-115324199D01*
X102798854Y-115315038D01*
X102848562Y-115288704D01*
X102923717Y-115247530D01*
X103020113Y-115193850D01*
X103133542Y-115130000D01*
X103259798Y-115058313D01*
X103323611Y-115021868D01*
X103456118Y-114946486D01*
X103579290Y-114877242D01*
X103688628Y-114816602D01*
X103779632Y-114767031D01*
X103847800Y-114730995D01*
X103888632Y-114710960D01*
X103896812Y-114707840D01*
X103936938Y-114703739D01*
X103966064Y-114717548D01*
G37*
G36*
X103856503Y-105126967D02*
G01*
X103917644Y-105133184D01*
X103959058Y-105150325D01*
X103984520Y-105183840D01*
X103997806Y-105239182D01*
X104002695Y-105321801D01*
X104002961Y-105437149D01*
X104002824Y-105459616D01*
X104000363Y-105568325D01*
X103994847Y-105673483D01*
X103987079Y-105763476D01*
X103977859Y-105826690D01*
X103977293Y-105829308D01*
X103924471Y-105984432D01*
X103841377Y-106115547D01*
X103730039Y-106220641D01*
X103592482Y-106297699D01*
X103465463Y-106337687D01*
X103418153Y-106343681D01*
X103336460Y-106348774D01*
X103225074Y-106352824D01*
X103088682Y-106355694D01*
X102931971Y-106357244D01*
X102799478Y-106357449D01*
X102226461Y-106356377D01*
X102226461Y-106548968D01*
X102224755Y-106653345D01*
X102215987Y-106724867D01*
X102194688Y-106769727D01*
X102155385Y-106794113D01*
X102092606Y-106804218D01*
X102000880Y-106806231D01*
X101999080Y-106806231D01*
X101908000Y-106804741D01*
X101846138Y-106796021D01*
X101807584Y-106773694D01*
X101786425Y-106731383D01*
X101776750Y-106662713D01*
X101772668Y-106562000D01*
X101767307Y-106366615D01*
X101387787Y-106361297D01*
X101242491Y-106358142D01*
X101126448Y-106353256D01*
X101042445Y-106346822D01*
X100993265Y-106339026D01*
X100982363Y-106334482D01*
X100971663Y-106306675D01*
X100963623Y-106249695D01*
X100958380Y-106173362D01*
X100956073Y-106087499D01*
X100956838Y-106001927D01*
X100960815Y-105926467D01*
X100968140Y-105870942D01*
X100975549Y-105848846D01*
X100988699Y-105838320D01*
X101016474Y-105830037D01*
X101063701Y-105823533D01*
X101135203Y-105818341D01*
X101235808Y-105813996D01*
X101370342Y-105810032D01*
X101380673Y-105809769D01*
X101767307Y-105800000D01*
X101770940Y-105507576D01*
X101772781Y-105384496D01*
X101777204Y-105295098D01*
X101787848Y-105234000D01*
X101808350Y-105195821D01*
X101842345Y-105175181D01*
X101893472Y-105166698D01*
X101965367Y-105164991D01*
X102002475Y-105165000D01*
X102081271Y-105165780D01*
X102139009Y-105171626D01*
X102178964Y-105187794D01*
X102204408Y-105219544D01*
X102218616Y-105272132D01*
X102224861Y-105350816D01*
X102226418Y-105460855D01*
X102226461Y-105524726D01*
X102226461Y-105812990D01*
X102768653Y-105806049D01*
X102959095Y-105803258D01*
X103114198Y-105798911D01*
X103237699Y-105791009D01*
X103333333Y-105777550D01*
X103404838Y-105756537D01*
X103455949Y-105725968D01*
X103490402Y-105683843D01*
X103511933Y-105628163D01*
X103524279Y-105556928D01*
X103531175Y-105468137D01*
X103534691Y-105395986D01*
X103540808Y-105289311D01*
X103548309Y-105216116D01*
X103558084Y-105170808D01*
X103571023Y-105147793D01*
X103574615Y-105145017D01*
X103606773Y-105136518D01*
X103666882Y-105130001D01*
X103743826Y-105126524D01*
X103771856Y-105126222D01*
X103856503Y-105126967D01*
G37*
G36*
X103776471Y-102570580D02*
G01*
X103862976Y-102574701D01*
X103919041Y-102581556D01*
X103953295Y-102593019D01*
X103974366Y-102610964D01*
X103976740Y-102614081D01*
X103982919Y-102627893D01*
X103988140Y-102653021D01*
X103992480Y-102692421D01*
X103996013Y-102749052D01*
X103998813Y-102825873D01*
X104000956Y-102925840D01*
X104002515Y-103051914D01*
X104003566Y-103207051D01*
X104004183Y-103394210D01*
X104004442Y-103616349D01*
X104004461Y-103711724D01*
X104004361Y-103944627D01*
X104004004Y-104141530D01*
X104003303Y-104305505D01*
X104002171Y-104439627D01*
X104000523Y-104546973D01*
X103998270Y-104630615D01*
X103995328Y-104693629D01*
X103991608Y-104739089D01*
X103987026Y-104770071D01*
X103981493Y-104789649D01*
X103974924Y-104800898D01*
X103973758Y-104802143D01*
X103947373Y-104817947D01*
X103901775Y-104827570D01*
X103829514Y-104832106D01*
X103764889Y-104832846D01*
X103586724Y-104832846D01*
X103217121Y-104466500D01*
X103100464Y-104348877D01*
X102977370Y-104221283D01*
X102855541Y-104091940D01*
X102742673Y-103969072D01*
X102646468Y-103860902D01*
X102606992Y-103814864D01*
X102490376Y-103678886D01*
X102392334Y-103570330D01*
X102308444Y-103485026D01*
X102234287Y-103418800D01*
X102165442Y-103367479D01*
X102097488Y-103326893D01*
X102080971Y-103318361D01*
X101966274Y-103278995D01*
X101845525Y-103269128D01*
X101727984Y-103287318D01*
X101622911Y-103332127D01*
X101539569Y-103402113D01*
X101539145Y-103402616D01*
X101487033Y-103492027D01*
X101457593Y-103602439D01*
X101451437Y-103722592D01*
X101469178Y-103841231D01*
X101509659Y-103943965D01*
X101566085Y-104015743D01*
X101648135Y-104084136D01*
X101742815Y-104139775D01*
X101822849Y-104169863D01*
X101888631Y-104188257D01*
X101934673Y-104207531D01*
X101964496Y-104234534D01*
X101981622Y-104276113D01*
X101989573Y-104339115D01*
X101991870Y-104430387D01*
X101992000Y-104498750D01*
X101991387Y-104614524D01*
X101987132Y-104696360D01*
X101975605Y-104749398D01*
X101953179Y-104778776D01*
X101916225Y-104789636D01*
X101861115Y-104787115D01*
X101794902Y-104777936D01*
X101611904Y-104731652D01*
X101443696Y-104650995D01*
X101293774Y-104539000D01*
X101165636Y-104398706D01*
X101062779Y-104233148D01*
X101003015Y-104090385D01*
X100969857Y-103952786D01*
X100953296Y-103792278D01*
X100953021Y-103621182D01*
X100968722Y-103451822D01*
X101000090Y-103296517D01*
X101024951Y-103218763D01*
X101108424Y-103045557D01*
X101216458Y-102902462D01*
X101347754Y-102790296D01*
X101501013Y-102709872D01*
X101674936Y-102662008D01*
X101868223Y-102647519D01*
X101930882Y-102649870D01*
X102018916Y-102657627D01*
X102089520Y-102671194D01*
X102158904Y-102695090D01*
X102243280Y-102733832D01*
X102257759Y-102740969D01*
X102343750Y-102787245D01*
X102418986Y-102837493D01*
X102494797Y-102900284D01*
X102582514Y-102984188D01*
X102592415Y-102994108D01*
X102655363Y-103057388D01*
X102739588Y-103142078D01*
X102838820Y-103241871D01*
X102946788Y-103350463D01*
X103057222Y-103461545D01*
X103125230Y-103529960D01*
X103486692Y-103893593D01*
X103496461Y-103254976D01*
X103506230Y-102616360D01*
X103555077Y-102590683D01*
X103611813Y-102575470D01*
X103705968Y-102569658D01*
X103776471Y-102570580D01*
G37*
G36*
X103244770Y-131215009D02*
G01*
X103264910Y-131264611D01*
X103285536Y-131346359D01*
X103309796Y-131463267D01*
X103312157Y-131475074D01*
X103332901Y-131576495D01*
X103351817Y-131664498D01*
X103367278Y-131731842D01*
X103377657Y-131771290D01*
X103380218Y-131777983D01*
X103402261Y-131787543D01*
X103456109Y-131802457D01*
X103535114Y-131821123D01*
X103632627Y-131841942D01*
X103707692Y-131856815D01*
X103829327Y-131881536D01*
X103924629Y-131903728D01*
X103989929Y-131922421D01*
X104021560Y-131936644D01*
X104024000Y-131940458D01*
X104010933Y-131964481D01*
X103976465Y-132006656D01*
X103927691Y-132058399D01*
X103921021Y-132065034D01*
X103818043Y-132166734D01*
X103623499Y-132129056D01*
X103541471Y-132113948D01*
X103475055Y-132103184D01*
X103432687Y-132098045D01*
X103421888Y-132098445D01*
X103422236Y-132119510D01*
X103429485Y-132169054D01*
X103442158Y-132237387D01*
X103445873Y-132255653D01*
X103465474Y-132355937D01*
X103474386Y-132427655D01*
X103470811Y-132480294D01*
X103452951Y-132523340D01*
X103419008Y-132566280D01*
X103379352Y-132606649D01*
X103321939Y-132658277D01*
X103281579Y-132684089D01*
X103263906Y-132684068D01*
X103254100Y-132659306D01*
X103238723Y-132603180D01*
X103219494Y-132522718D01*
X103198131Y-132424949D01*
X103185553Y-132363644D01*
X103163790Y-132259831D01*
X103143146Y-132169998D01*
X103125329Y-132100954D01*
X103112047Y-132059505D01*
X103107047Y-132050761D01*
X103082324Y-132043035D01*
X103026624Y-132029374D01*
X102947295Y-132011469D01*
X102851684Y-131991013D01*
X102812158Y-131982830D01*
X102690004Y-131955992D01*
X102599746Y-131932271D01*
X102543766Y-131912366D01*
X102524799Y-131898681D01*
X102532174Y-131871769D01*
X102560882Y-131828900D01*
X102602682Y-131779655D01*
X102649329Y-131733615D01*
X102692582Y-131700360D01*
X102698227Y-131697089D01*
X102737377Y-131691905D01*
X102809955Y-131699432D01*
X102902756Y-131717172D01*
X102979613Y-131732990D01*
X103040670Y-131743716D01*
X103076939Y-131747857D01*
X103082900Y-131747074D01*
X103082830Y-131725811D01*
X103076340Y-131674897D01*
X103064653Y-131603005D01*
X103055442Y-131552277D01*
X103020215Y-131365248D01*
X103106099Y-131277739D01*
X103155781Y-131228916D01*
X103193354Y-131200176D01*
X103221968Y-131194535D01*
X103244770Y-131215009D01*
G37*
G36*
X102676206Y-132099843D02*
G01*
X102701047Y-132111233D01*
X102759824Y-132149885D01*
X102832827Y-132210404D01*
X102910744Y-132283616D01*
X102984263Y-132360345D01*
X103044070Y-132431414D01*
X103078662Y-132483305D01*
X103110028Y-132564094D01*
X103127688Y-132652728D01*
X103128694Y-132731791D01*
X103124484Y-132754293D01*
X103103103Y-132816004D01*
X103070007Y-132878212D01*
X103020879Y-132946811D01*
X102951402Y-133027695D01*
X102857259Y-133126758D01*
X102835397Y-133148962D01*
X102761750Y-133222149D01*
X102696864Y-133284236D01*
X102665847Y-133312369D01*
X102646008Y-133330364D01*
X102614455Y-133355672D01*
X102607606Y-133359000D01*
X102586984Y-133345501D01*
X102543957Y-133307955D01*
X102482883Y-133250789D01*
X102408120Y-133178430D01*
X102324025Y-133095305D01*
X102234958Y-133005841D01*
X102145275Y-132914464D01*
X102059335Y-132825602D01*
X101981495Y-132743681D01*
X101916114Y-132673129D01*
X101867550Y-132618371D01*
X101840159Y-132583836D01*
X101835692Y-132574871D01*
X101849786Y-132547536D01*
X101859376Y-132535884D01*
X102177615Y-132535884D01*
X102411847Y-132771672D01*
X102490021Y-132848887D01*
X102559484Y-132914715D01*
X102615344Y-132964741D01*
X102652708Y-132994548D01*
X102665847Y-133000928D01*
X102687519Y-132983371D01*
X102725042Y-132943767D01*
X102768653Y-132892658D01*
X102825340Y-132811410D01*
X102849550Y-132742907D01*
X102842633Y-132680323D01*
X102819431Y-132635540D01*
X102748444Y-132545731D01*
X102658943Y-132455993D01*
X102589876Y-132399190D01*
X102516587Y-132355436D01*
X102450965Y-132342479D01*
X102385116Y-132361351D01*
X102311147Y-132413082D01*
X102281555Y-132439442D01*
X102177615Y-132535884D01*
X101859376Y-132535884D01*
X101888096Y-132500989D01*
X101944659Y-132440847D01*
X102013515Y-132372725D01*
X102088702Y-132302240D01*
X102164260Y-132235007D01*
X102234228Y-132176643D01*
X102292643Y-132132764D01*
X102327233Y-132111777D01*
X102441603Y-132075925D01*
X102562215Y-132071941D01*
X102676206Y-132099843D01*
G37*
G36*
X102468703Y-130492900D02*
G01*
X102534901Y-130508574D01*
X102587388Y-130530143D01*
X102615278Y-130553878D01*
X102617230Y-130561352D01*
X102604293Y-130581628D01*
X102570403Y-130620362D01*
X102523752Y-130668312D01*
X102467431Y-130720075D01*
X102424048Y-130748208D01*
X102381692Y-130759239D01*
X102355805Y-130760385D01*
X102262190Y-130777479D01*
X102185637Y-130825506D01*
X102138285Y-130890677D01*
X102122312Y-130943749D01*
X102127967Y-130997425D01*
X102157930Y-131057092D01*
X102214882Y-131128137D01*
X102298959Y-131213507D01*
X102382833Y-131289154D01*
X102449748Y-131336578D01*
X102506326Y-131358712D01*
X102559194Y-131358488D01*
X102598578Y-131346171D01*
X102670006Y-131299113D01*
X102715290Y-131233323D01*
X102731525Y-131158078D01*
X102715808Y-131082654D01*
X102692869Y-131044932D01*
X102651277Y-130992057D01*
X102585499Y-131055810D01*
X102519722Y-131119564D01*
X102461015Y-131063319D01*
X102424191Y-131023084D01*
X102403768Y-130991141D01*
X102402307Y-130984810D01*
X102415577Y-130962971D01*
X102451568Y-130920726D01*
X102504554Y-130864460D01*
X102559579Y-130809497D01*
X102716851Y-130656449D01*
X102805369Y-130742609D01*
X102906922Y-130859621D01*
X102970663Y-130975785D01*
X102996196Y-131090158D01*
X102988685Y-131180462D01*
X102946753Y-131291525D01*
X102875111Y-131401812D01*
X102781913Y-131500873D01*
X102680801Y-131575085D01*
X102579047Y-131615438D01*
X102466196Y-131628955D01*
X102356824Y-131614916D01*
X102300590Y-131593798D01*
X102244881Y-131557369D01*
X102174396Y-131498893D01*
X102097304Y-131426622D01*
X102021771Y-131348809D01*
X101955964Y-131273707D01*
X101908050Y-131209569D01*
X101891625Y-131180529D01*
X101858385Y-131063125D01*
X101863387Y-130943883D01*
X101906023Y-130825149D01*
X101985682Y-130709269D01*
X102025216Y-130666786D01*
X102142202Y-130569318D01*
X102260829Y-130509809D01*
X102383413Y-130487144D01*
X102399677Y-130486846D01*
X102468703Y-130492900D01*
G37*
G36*
X101181387Y-131555180D02*
G01*
X101223356Y-131592288D01*
X101284256Y-131649248D01*
X101359844Y-131722065D01*
X101445879Y-131806740D01*
X101484000Y-131844769D01*
X101573172Y-131933230D01*
X101653701Y-132011504D01*
X101721341Y-132075593D01*
X101771843Y-132121499D01*
X101800960Y-132145226D01*
X101805781Y-132147615D01*
X101826216Y-132134534D01*
X101868161Y-132098783D01*
X101925776Y-132045608D01*
X101993223Y-131980250D01*
X102003151Y-131970393D01*
X102181114Y-131793170D01*
X102243305Y-131845500D01*
X102281831Y-131878506D01*
X102307807Y-131906352D01*
X102319155Y-131933625D01*
X102313799Y-131964912D01*
X102289662Y-132004800D01*
X102244666Y-132057877D01*
X102176735Y-132128730D01*
X102083792Y-132221945D01*
X102063857Y-132241842D01*
X101978408Y-132326210D01*
X101901672Y-132400222D01*
X101838123Y-132459703D01*
X101792237Y-132500479D01*
X101768487Y-132518376D01*
X101766880Y-132518846D01*
X101747963Y-132505504D01*
X101706238Y-132468359D01*
X101646021Y-132411738D01*
X101571629Y-132339965D01*
X101487380Y-132257366D01*
X101397593Y-132168267D01*
X101306583Y-132076991D01*
X101218669Y-131987866D01*
X101138169Y-131905216D01*
X101069399Y-131833366D01*
X101016678Y-131776642D01*
X100984322Y-131739368D01*
X100976000Y-131726543D01*
X100989397Y-131702215D01*
X101023085Y-131662553D01*
X101067309Y-131617210D01*
X101112314Y-131575838D01*
X101148345Y-131548088D01*
X101162591Y-131541923D01*
X101181387Y-131555180D01*
G37*
D12*
%TO.C,C1*%
X110700000Y-124380000D02*
X113440000Y-124380000D01*
X110700000Y-129620000D02*
X110700000Y-124380000D01*
X113440000Y-124380000D02*
X113440000Y-129620000D01*
X113440000Y-129620000D02*
X110700000Y-129620000D01*
%TO.C,MJ2*%
X156640000Y-47390000D02*
X156640000Y-48640000D01*
X156940000Y-47690000D02*
X156940000Y-52410000D01*
X156940000Y-49000000D02*
X157550000Y-49000000D01*
X156940000Y-50300000D02*
X157550000Y-50300000D01*
X156940000Y-52410000D02*
X171060000Y-52410000D01*
X157550000Y-48300000D02*
X157550000Y-51800000D01*
X157550000Y-51800000D02*
X170450000Y-51800000D01*
X157890000Y-47390000D02*
X156640000Y-47390000D01*
X158400000Y-47490000D02*
X158400000Y-47690000D01*
X158700000Y-47490000D02*
X158400000Y-47490000D01*
X158700000Y-47590000D02*
X158400000Y-47590000D01*
X158700000Y-47690000D02*
X158700000Y-47490000D01*
X159500000Y-47690000D02*
X159500000Y-48300000D01*
X159500000Y-48300000D02*
X157550000Y-48300000D01*
X159900000Y-51300000D02*
X160100000Y-51300000D01*
X159900000Y-51800000D02*
X159900000Y-51300000D01*
X160000000Y-51800000D02*
X160000000Y-51300000D01*
X160100000Y-51300000D02*
X160100000Y-51800000D01*
X161900000Y-51300000D02*
X162100000Y-51300000D01*
X161900000Y-51800000D02*
X161900000Y-51300000D01*
X162000000Y-51800000D02*
X162000000Y-51300000D01*
X162100000Y-51300000D02*
X162100000Y-51800000D01*
X163900000Y-51300000D02*
X164100000Y-51300000D01*
X163900000Y-51800000D02*
X163900000Y-51300000D01*
X164000000Y-51800000D02*
X164000000Y-51300000D01*
X164100000Y-51300000D02*
X164100000Y-51800000D01*
X165900000Y-51300000D02*
X166100000Y-51300000D01*
X165900000Y-51800000D02*
X165900000Y-51300000D01*
X166000000Y-51800000D02*
X166000000Y-51300000D01*
X166100000Y-51300000D02*
X166100000Y-51800000D01*
X167900000Y-51300000D02*
X168100000Y-51300000D01*
X167900000Y-51800000D02*
X167900000Y-51300000D01*
X168000000Y-51800000D02*
X168000000Y-51300000D01*
X168100000Y-51300000D02*
X168100000Y-51800000D01*
X168500000Y-48300000D02*
X168500000Y-47690000D01*
X170450000Y-48300000D02*
X168500000Y-48300000D01*
X170450000Y-51800000D02*
X170450000Y-48300000D01*
X171060000Y-47690000D02*
X156940000Y-47690000D01*
X171060000Y-49000000D02*
X170450000Y-49000000D01*
X171060000Y-50300000D02*
X170450000Y-50300000D01*
X171060000Y-52410000D02*
X171060000Y-47690000D01*
%TO.C,D1*%
X108764000Y-138560000D02*
X108920000Y-138560000D01*
X111080000Y-138560000D02*
X111236000Y-138560000D01*
X108764484Y-138560000D02*
G75*
G02*
X108920000Y-135328563I1235516J1560000D01*
G01*
X108920000Y-138040961D02*
G75*
G02*
X108920000Y-135959039I1080000J1040961D01*
G01*
X111080000Y-135328563D02*
G75*
G02*
X111235516Y-138560000I-1080000J-1671437D01*
G01*
X111080000Y-135959039D02*
G75*
G02*
X111080000Y-138040961I-1080000J-1040961D01*
G01*
%TO.C,C2*%
X110630000Y-107380000D02*
X113370000Y-107380000D01*
X110630000Y-112620000D02*
X110630000Y-107380000D01*
X113370000Y-107380000D02*
X113370000Y-112620000D01*
X113370000Y-112620000D02*
X110630000Y-112620000D01*
%TO.C,J3*%
X114280000Y-106940000D02*
X114280000Y-113060000D01*
X114280000Y-113060000D02*
X119000000Y-113060000D01*
X114890000Y-107550000D02*
X114890000Y-112450000D01*
X114890000Y-109900000D02*
X115390000Y-109900000D01*
X114890000Y-110000000D02*
X115390000Y-110000000D01*
X114890000Y-112450000D02*
X118390000Y-112450000D01*
X115390000Y-109900000D02*
X115390000Y-110100000D01*
X115390000Y-110100000D02*
X114890000Y-110100000D01*
X116390000Y-106940000D02*
X116390000Y-107550000D01*
X116390000Y-113060000D02*
X116390000Y-112450000D01*
X117690000Y-106940000D02*
X117690000Y-107550000D01*
X117690000Y-113060000D02*
X117690000Y-112450000D01*
X118390000Y-107550000D02*
X114890000Y-107550000D01*
X118390000Y-109500000D02*
X118390000Y-107550000D01*
X118390000Y-110500000D02*
X119000000Y-110500000D01*
X118390000Y-112450000D02*
X118390000Y-110500000D01*
X119000000Y-106940000D02*
X114280000Y-106940000D01*
X119000000Y-108700000D02*
X119200000Y-108700000D01*
X119000000Y-109500000D02*
X118390000Y-109500000D01*
X119000000Y-113060000D02*
X119000000Y-106940000D01*
X119100000Y-108700000D02*
X119100000Y-108400000D01*
X119200000Y-108400000D02*
X119000000Y-108400000D01*
X119200000Y-108700000D02*
X119200000Y-108400000D01*
X119300000Y-106640000D02*
X118050000Y-106640000D01*
X119300000Y-107890000D02*
X119300000Y-106640000D01*
%TO.C,MJ3*%
X126940000Y-41090000D02*
X126940000Y-45810000D01*
X126940000Y-43200000D02*
X127550000Y-43200000D01*
X126940000Y-44500000D02*
X127550000Y-44500000D01*
X126940000Y-45810000D02*
X141060000Y-45810000D01*
X127550000Y-41700000D02*
X127550000Y-45200000D01*
X127550000Y-45200000D02*
X129500000Y-45200000D01*
X129500000Y-45200000D02*
X129500000Y-45810000D01*
X129900000Y-42200000D02*
X129900000Y-41700000D01*
X130000000Y-41700000D02*
X130000000Y-42200000D01*
X130100000Y-41700000D02*
X130100000Y-42200000D01*
X130100000Y-42200000D02*
X129900000Y-42200000D01*
X131900000Y-42200000D02*
X131900000Y-41700000D01*
X132000000Y-41700000D02*
X132000000Y-42200000D01*
X132100000Y-41700000D02*
X132100000Y-42200000D01*
X132100000Y-42200000D02*
X131900000Y-42200000D01*
X133900000Y-42200000D02*
X133900000Y-41700000D01*
X134000000Y-41700000D02*
X134000000Y-42200000D01*
X134100000Y-41700000D02*
X134100000Y-42200000D01*
X134100000Y-42200000D02*
X133900000Y-42200000D01*
X135900000Y-42200000D02*
X135900000Y-41700000D01*
X136000000Y-41700000D02*
X136000000Y-42200000D01*
X136100000Y-41700000D02*
X136100000Y-42200000D01*
X136100000Y-42200000D02*
X135900000Y-42200000D01*
X137900000Y-42200000D02*
X137900000Y-41700000D01*
X138000000Y-41700000D02*
X138000000Y-42200000D01*
X138100000Y-41700000D02*
X138100000Y-42200000D01*
X138100000Y-42200000D02*
X137900000Y-42200000D01*
X138500000Y-45200000D02*
X140450000Y-45200000D01*
X138500000Y-45810000D02*
X138500000Y-45200000D01*
X139300000Y-45810000D02*
X139300000Y-46010000D01*
X139300000Y-45910000D02*
X139600000Y-45910000D01*
X139300000Y-46010000D02*
X139600000Y-46010000D01*
X139600000Y-46010000D02*
X139600000Y-45810000D01*
X140110000Y-46110000D02*
X141360000Y-46110000D01*
X140450000Y-41700000D02*
X127550000Y-41700000D01*
X140450000Y-45200000D02*
X140450000Y-41700000D01*
X141060000Y-41090000D02*
X126940000Y-41090000D01*
X141060000Y-43200000D02*
X140450000Y-43200000D01*
X141060000Y-44500000D02*
X140450000Y-44500000D01*
X141060000Y-45810000D02*
X141060000Y-41090000D01*
X141360000Y-46110000D02*
X141360000Y-44860000D01*
%TO.C,C3*%
X153880000Y-109180000D02*
X159120000Y-109180000D01*
X153880000Y-111920000D02*
X153880000Y-109180000D01*
X159120000Y-109180000D02*
X159120000Y-111920000D01*
X159120000Y-111920000D02*
X153880000Y-111920000D01*
%TO.C,U1*%
X109570000Y-78110000D02*
X162380000Y-78110000D01*
X162380000Y-98890000D01*
X109570000Y-98890000D01*
X109570000Y-78110000D01*
%TO.C,R2*%
X110040000Y-130630000D02*
X110040000Y-130960000D01*
X110040000Y-133370000D02*
X110040000Y-133040000D01*
X116580000Y-130630000D02*
X110040000Y-130630000D01*
X116580000Y-130960000D02*
X116580000Y-130630000D01*
X116580000Y-133040000D02*
X116580000Y-133370000D01*
X116580000Y-133370000D02*
X110040000Y-133370000D01*
%TO.C,J4*%
X153140000Y-103390000D02*
X153140000Y-104640000D01*
X153440000Y-103690000D02*
X153440000Y-108410000D01*
X153440000Y-105000000D02*
X154050000Y-105000000D01*
X153440000Y-106300000D02*
X154050000Y-106300000D01*
X153440000Y-108410000D02*
X159560000Y-108410000D01*
X154050000Y-104300000D02*
X154050000Y-107800000D01*
X154050000Y-107800000D02*
X158950000Y-107800000D01*
X154390000Y-103390000D02*
X153140000Y-103390000D01*
X154900000Y-103490000D02*
X154900000Y-103690000D01*
X155200000Y-103490000D02*
X154900000Y-103490000D01*
X155200000Y-103590000D02*
X154900000Y-103590000D01*
X155200000Y-103690000D02*
X155200000Y-103490000D01*
X156000000Y-103690000D02*
X156000000Y-104300000D01*
X156000000Y-104300000D02*
X154050000Y-104300000D01*
X156400000Y-107300000D02*
X156600000Y-107300000D01*
X156400000Y-107800000D02*
X156400000Y-107300000D01*
X156500000Y-107800000D02*
X156500000Y-107300000D01*
X156600000Y-107300000D02*
X156600000Y-107800000D01*
X157000000Y-104300000D02*
X157000000Y-103690000D01*
X158950000Y-104300000D02*
X157000000Y-104300000D01*
X158950000Y-107800000D02*
X158950000Y-104300000D01*
X159560000Y-103690000D02*
X153440000Y-103690000D01*
X159560000Y-105000000D02*
X158950000Y-105000000D01*
X159560000Y-106300000D02*
X158950000Y-106300000D01*
X159560000Y-108410000D02*
X159560000Y-103690000D01*
%TO.C,J2*%
X114210000Y-123940000D02*
X114210000Y-130060000D01*
X114210000Y-130060000D02*
X118930000Y-130060000D01*
X114820000Y-124550000D02*
X114820000Y-129450000D01*
X114820000Y-126900000D02*
X115320000Y-126900000D01*
X114820000Y-127000000D02*
X115320000Y-127000000D01*
X114820000Y-129450000D02*
X118320000Y-129450000D01*
X115320000Y-126900000D02*
X115320000Y-127100000D01*
X115320000Y-127100000D02*
X114820000Y-127100000D01*
X116320000Y-123940000D02*
X116320000Y-124550000D01*
X116320000Y-130060000D02*
X116320000Y-129450000D01*
X117620000Y-123940000D02*
X117620000Y-124550000D01*
X117620000Y-130060000D02*
X117620000Y-129450000D01*
X118320000Y-124550000D02*
X114820000Y-124550000D01*
X118320000Y-126500000D02*
X118320000Y-124550000D01*
X118320000Y-127500000D02*
X118930000Y-127500000D01*
X118320000Y-129450000D02*
X118320000Y-127500000D01*
X118930000Y-123940000D02*
X114210000Y-123940000D01*
X118930000Y-125700000D02*
X119130000Y-125700000D01*
X118930000Y-126500000D02*
X118320000Y-126500000D01*
X118930000Y-130060000D02*
X118930000Y-123940000D01*
X119030000Y-125700000D02*
X119030000Y-125400000D01*
X119130000Y-125400000D02*
X118930000Y-125400000D01*
X119130000Y-125700000D02*
X119130000Y-125400000D01*
X119230000Y-123640000D02*
X117980000Y-123640000D01*
X119230000Y-124890000D02*
X119230000Y-123640000D01*
%TO.C,DR1*%
X129310000Y-72500000D02*
X109310000Y-72500000D01*
X109310000Y-52500000D01*
X129310000Y-52500000D01*
X129310000Y-72500000D01*
%TO.C,S1*%
X122000000Y-116000000D02*
X122000000Y-101000000D01*
X148000000Y-101000000D02*
X122000000Y-101000000D01*
X148000000Y-116000000D02*
X122000000Y-116000000D01*
X148000000Y-116000000D02*
X148000000Y-101000000D01*
%TO.C,MJ1*%
X110440000Y-41090000D02*
X110440000Y-45810000D01*
X110440000Y-43200000D02*
X111050000Y-43200000D01*
X110440000Y-44500000D02*
X111050000Y-44500000D01*
X110440000Y-45810000D02*
X124560000Y-45810000D01*
X111050000Y-41700000D02*
X111050000Y-45200000D01*
X111050000Y-45200000D02*
X113000000Y-45200000D01*
X113000000Y-45200000D02*
X113000000Y-45810000D01*
X113400000Y-42200000D02*
X113400000Y-41700000D01*
X113500000Y-41700000D02*
X113500000Y-42200000D01*
X113600000Y-41700000D02*
X113600000Y-42200000D01*
X113600000Y-42200000D02*
X113400000Y-42200000D01*
X115400000Y-42200000D02*
X115400000Y-41700000D01*
X115500000Y-41700000D02*
X115500000Y-42200000D01*
X115600000Y-41700000D02*
X115600000Y-42200000D01*
X115600000Y-42200000D02*
X115400000Y-42200000D01*
X117400000Y-42200000D02*
X117400000Y-41700000D01*
X117500000Y-41700000D02*
X117500000Y-42200000D01*
X117600000Y-41700000D02*
X117600000Y-42200000D01*
X117600000Y-42200000D02*
X117400000Y-42200000D01*
X119400000Y-42200000D02*
X119400000Y-41700000D01*
X119500000Y-41700000D02*
X119500000Y-42200000D01*
X119600000Y-41700000D02*
X119600000Y-42200000D01*
X119600000Y-42200000D02*
X119400000Y-42200000D01*
X121400000Y-42200000D02*
X121400000Y-41700000D01*
X121500000Y-41700000D02*
X121500000Y-42200000D01*
X121600000Y-41700000D02*
X121600000Y-42200000D01*
X121600000Y-42200000D02*
X121400000Y-42200000D01*
X122000000Y-45200000D02*
X123950000Y-45200000D01*
X122000000Y-45810000D02*
X122000000Y-45200000D01*
X122800000Y-45810000D02*
X122800000Y-46010000D01*
X122800000Y-45910000D02*
X123100000Y-45910000D01*
X122800000Y-46010000D02*
X123100000Y-46010000D01*
X123100000Y-46010000D02*
X123100000Y-45810000D01*
X123610000Y-46110000D02*
X124860000Y-46110000D01*
X123950000Y-41700000D02*
X111050000Y-41700000D01*
X123950000Y-45200000D02*
X123950000Y-41700000D01*
X124560000Y-41090000D02*
X110440000Y-41090000D01*
X124560000Y-43200000D02*
X123950000Y-43200000D01*
X124560000Y-44500000D02*
X123950000Y-44500000D01*
X124560000Y-45810000D02*
X124560000Y-41090000D01*
X124860000Y-46110000D02*
X124860000Y-44860000D01*
%TO.C,R5*%
X110040000Y-120130000D02*
X116580000Y-120130000D01*
X110040000Y-120460000D02*
X110040000Y-120130000D01*
X110040000Y-122540000D02*
X110040000Y-122870000D01*
X110040000Y-122870000D02*
X116580000Y-122870000D01*
X116580000Y-120130000D02*
X116580000Y-120460000D01*
X116580000Y-122870000D02*
X116580000Y-122540000D01*
%TO.C,DR2*%
X154660000Y-72620000D02*
X134660000Y-72620000D01*
X134660000Y-52620000D01*
X154660000Y-52620000D01*
X154660000Y-72620000D01*
%TO.C,R1*%
X110540000Y-140630000D02*
X117080000Y-140630000D01*
X110540000Y-140960000D02*
X110540000Y-140630000D01*
X110540000Y-143040000D02*
X110540000Y-143370000D01*
X110540000Y-143370000D02*
X117080000Y-143370000D01*
X117080000Y-140630000D02*
X117080000Y-140960000D01*
X117080000Y-143370000D02*
X117080000Y-143040000D01*
%TO.C,RS1*%
X121000000Y-134180000D02*
X121000000Y-126900000D01*
X171000000Y-118040000D02*
X121000000Y-118040000D01*
X121000000Y-143540000D01*
X171000000Y-143540000D01*
X171000000Y-118040000D01*
%TO.C,R3*%
X110040000Y-113630000D02*
X110040000Y-113960000D01*
X110040000Y-116370000D02*
X110040000Y-116040000D01*
X116580000Y-113630000D02*
X110040000Y-113630000D01*
X116580000Y-113960000D02*
X116580000Y-113630000D01*
X116580000Y-116040000D02*
X116580000Y-116370000D01*
X116580000Y-116370000D02*
X110040000Y-116370000D01*
%TO.C,R6*%
X110110000Y-103630000D02*
X116650000Y-103630000D01*
X110110000Y-103960000D02*
X110110000Y-103630000D01*
X110110000Y-106040000D02*
X110110000Y-106370000D01*
X110110000Y-106370000D02*
X116650000Y-106370000D01*
X116650000Y-103630000D02*
X116650000Y-103960000D01*
X116650000Y-106370000D02*
X116650000Y-106040000D01*
%TO.C,R4*%
X160130000Y-106040000D02*
X160130000Y-112580000D01*
X160130000Y-112580000D02*
X160460000Y-112580000D01*
X160460000Y-106040000D02*
X160130000Y-106040000D01*
X162540000Y-106040000D02*
X162870000Y-106040000D01*
X162870000Y-106040000D02*
X162870000Y-112580000D01*
X162870000Y-112580000D02*
X162540000Y-112580000D01*
%TO.C,R7*%
X150130000Y-106040000D02*
X150460000Y-106040000D01*
X150130000Y-112580000D02*
X150130000Y-106040000D01*
X150460000Y-112580000D02*
X150130000Y-112580000D01*
X152540000Y-112580000D02*
X152870000Y-112580000D01*
X152870000Y-106040000D02*
X152540000Y-106040000D01*
X152870000Y-112580000D02*
X152870000Y-106040000D01*
%TO.C,J1*%
X161790000Y-57290000D02*
X167210000Y-57290000D01*
X161790000Y-66010000D02*
X161790000Y-57290000D01*
X163090000Y-67710000D02*
X161790000Y-66010000D01*
X163090000Y-67710000D02*
X165910000Y-67710000D01*
X165910000Y-67710000D02*
X167210000Y-66010000D01*
X167210000Y-66010000D02*
X167210000Y-57290000D01*
%TD*%
M02*
