M48
; DRILL file {KiCad 9.0.5} date 2026-01-18T22:43:21+0000
; FORMAT={-:-/ absolute / metric / decimal}
; #@! TF.CreationDate,2026-01-18T22:43:21+00:00
; #@! TF.GenerationSoftware,Kicad,Pcbnew,9.0.5
; #@! TF.FileFunction,MixedPlating,1,2
FMAT,2
METRIC
; #@! TA.AperFunction,Plated,PTH,ViaDrill
T1C0.300
; #@! TA.AperFunction,Plated,PTH,ComponentDrill
T2C0.750
; #@! TA.AperFunction,Plated,PTH,ComponentDrill
T3C0.800
; #@! TA.AperFunction,Plated,PTH,ComponentDrill
T4C0.900
; #@! TA.AperFunction,Plated,PTH,ComponentDrill
T5C2.700
; #@! TA.AperFunction,NonPlated,NPTH,ComponentDrill
T6C4.300
%
G90
G05
T1
X101.0Y-74.5
X102.0Y-74.5
X102.0Y-100.0
X136.0Y-103.0
T2
X112.5Y-44.0
X114.5Y-44.0
X116.5Y-44.0
X117.12Y-126.0
X117.12Y-128.0
X117.19Y-109.0
X117.19Y-111.0
X118.5Y-44.0
X120.5Y-44.0
X122.5Y-44.0
X129.0Y-44.0
X131.0Y-44.0
X133.0Y-44.0
X135.0Y-44.0
X137.0Y-44.0
X139.0Y-44.0
X145.5Y-43.0
X147.5Y-43.0
X149.5Y-43.0
X151.5Y-43.0
X153.5Y-43.0
X155.5Y-43.0
X155.5Y-105.5
X157.5Y-105.5
X159.0Y-49.5
X161.0Y-49.5
X163.0Y-49.5
X165.0Y-49.5
X167.0Y-49.5
X169.0Y-49.5
T3
X109.5Y-115.0
X109.5Y-121.5
X109.5Y-132.0
X109.57Y-105.0
X110.0Y-142.0
X110.43Y-54.88
X110.43Y-70.12
X110.87Y-80.89
X110.87Y-96.11
X112.0Y-108.75
X112.0Y-111.25
X112.07Y-125.75
X112.07Y-128.25
X112.97Y-54.88
X112.97Y-70.12
X113.41Y-80.89
X113.41Y-96.11
X115.51Y-54.88
X115.51Y-70.12
X115.95Y-80.89
X115.95Y-96.11
X117.12Y-115.0
X117.12Y-121.5
X117.12Y-132.0
X117.19Y-105.0
X117.62Y-142.0
X118.05Y-54.88
X118.05Y-70.12
X118.49Y-80.89
X118.49Y-96.11
X120.59Y-54.88
X120.59Y-70.12
X121.03Y-80.89
X121.03Y-96.11
X122.5Y-128.0
X122.5Y-130.54
X122.5Y-133.08
X123.13Y-54.88
X123.13Y-70.12
X123.57Y-80.89
X123.57Y-96.11
X123.57Y-114.5
X125.67Y-54.88
X125.67Y-70.12
X126.11Y-80.89
X126.11Y-96.11
X126.11Y-114.5
X128.21Y-54.88
X128.21Y-70.12
X128.65Y-80.89
X128.65Y-96.11
X128.65Y-114.5
X131.19Y-80.89
X131.19Y-96.11
X131.19Y-114.5
X133.73Y-80.89
X133.73Y-96.11
X133.73Y-114.5
X135.78Y-55.0
X135.78Y-70.24
X136.27Y-80.89
X136.27Y-96.11
X136.27Y-114.5
X138.32Y-55.0
X138.32Y-70.24
X138.81Y-80.89
X138.81Y-96.11
X138.81Y-114.5
X140.86Y-55.0
X140.86Y-70.24
X141.35Y-80.89
X141.35Y-96.11
X141.35Y-114.5
X143.4Y-55.0
X143.4Y-70.24
X143.89Y-80.89
X143.89Y-96.11
X143.89Y-114.5
X145.94Y-55.0
X145.94Y-70.24
X146.43Y-80.89
X146.43Y-96.11
X146.43Y-114.5
X148.48Y-55.0
X148.48Y-70.24
X148.97Y-80.89
X148.97Y-96.11
X151.02Y-55.0
X151.02Y-70.24
X151.5Y-105.5
X151.5Y-113.12
X151.51Y-80.89
X151.51Y-96.11
X153.56Y-55.0
X153.56Y-70.24
X154.05Y-80.89
X154.05Y-96.11
X155.25Y-110.55
X156.59Y-80.89
X156.59Y-96.11
X157.75Y-110.55
X159.13Y-80.89
X159.13Y-96.11
X161.5Y-105.5
X161.5Y-113.12
T4
X110.0Y-135.73
X110.0Y-138.27
T5
X164.5Y-60.0
X164.5Y-65.0
T6
X102.5Y-40.0
X102.5Y-140.0
X167.5Y-40.0
X167.5Y-140.0
M30
