M48
; DRILL file {KiCad 9.0.5} date 2025-11-06T21:20:53+0000
; FORMAT={-:-/ absolute / metric / decimal}
; #@! TF.CreationDate,2025-11-06T21:20:53+00:00
; #@! TF.GenerationSoftware,Kicad,Pcbnew,9.0.5
; #@! TF.FileFunction,MixedPlating,1,2
FMAT,2
METRIC
; #@! TA.AperFunction,Plated,PTH,ComponentDrill
T1C0.750
; #@! TA.AperFunction,Plated,PTH,ComponentDrill
T2C0.800
; #@! TA.AperFunction,Plated,PTH,ComponentDrill
T3C0.900
; #@! TA.AperFunction,Plated,PTH,ComponentDrill
T4C2.700
; #@! TA.AperFunction,NonPlated,NPTH,ComponentDrill
T5C4.300
%
G90
G05
T1
X109.0Y-47.0
X109.0Y-49.0
X109.0Y-51.0
X109.0Y-53.0
X109.0Y-55.0
X109.0Y-57.0
X118.5Y-43.0
X120.5Y-43.0
X122.5Y-43.0
X124.5Y-43.0
X126.5Y-43.0
X128.5Y-43.0
X145.5Y-43.0
X147.5Y-43.0
X149.5Y-43.0
X151.5Y-43.0
X153.5Y-43.0
X155.5Y-43.0
X166.25Y-47.0
X166.25Y-49.0
X166.25Y-51.0
X166.25Y-53.0
X166.25Y-55.0
X166.25Y-57.0
T2
X109.648Y-141.972
X110.06Y-76.28
X110.06Y-91.5
X112.6Y-76.28
X112.6Y-91.5
X115.14Y-76.28
X115.14Y-91.5
X115.26Y-52.38
X115.26Y-67.62
X117.268Y-141.972
X117.68Y-76.28
X117.68Y-91.5
X117.8Y-52.38
X117.8Y-67.62
X120.22Y-76.28
X120.22Y-91.5
X120.34Y-52.38
X120.34Y-67.62
X122.463Y-127.962
X122.463Y-130.502
X122.463Y-133.042
X122.76Y-76.28
X122.76Y-91.5
X122.88Y-52.38
X122.88Y-67.62
X125.3Y-76.28
X125.3Y-91.5
X125.42Y-52.38
X125.42Y-67.62
X126.25Y-97.11
X126.25Y-99.65
X126.25Y-102.19
X126.25Y-104.73
X126.25Y-107.27
X126.25Y-109.81
X126.25Y-112.35
X126.25Y-114.89
X127.84Y-76.28
X127.84Y-91.5
X127.96Y-52.38
X127.96Y-67.62
X130.38Y-76.28
X130.38Y-91.5
X130.5Y-52.38
X130.5Y-67.62
X131.975Y-104.978
X131.975Y-112.598
X132.92Y-76.28
X132.92Y-91.5
X133.04Y-52.38
X133.04Y-67.62
X135.46Y-76.28
X135.46Y-91.5
X138.0Y-76.28
X138.0Y-91.5
X138.0Y-107.19
X138.0Y-114.81
X140.54Y-76.28
X140.54Y-91.5
X141.35Y-52.38
X141.35Y-67.62
X143.08Y-76.28
X143.08Y-91.5
X143.75Y-97.11
X143.75Y-99.65
X143.75Y-102.19
X143.75Y-104.73
X143.75Y-107.27
X143.75Y-109.81
X143.75Y-112.35
X143.75Y-114.89
X143.89Y-52.38
X143.89Y-67.62
X145.62Y-76.28
X145.62Y-91.5
X146.43Y-52.38
X146.43Y-67.62
X148.16Y-76.28
X148.16Y-91.5
X148.97Y-52.38
X148.97Y-67.62
X150.7Y-76.28
X150.7Y-91.5
X151.51Y-52.38
X151.51Y-67.62
X153.24Y-76.28
X153.24Y-91.5
X154.05Y-52.38
X154.05Y-67.62
X155.78Y-76.28
X155.78Y-91.5
X156.59Y-52.38
X156.59Y-67.62
X158.32Y-76.28
X158.32Y-91.5
X159.13Y-52.38
X159.13Y-67.62
T3
X109.0Y-134.219
X109.0Y-136.759
X115.995Y-134.219
X115.995Y-136.759
T4
X165.75Y-66.5
X165.75Y-71.5
T5
X102.5Y-40.0
X102.5Y-140.0
X167.5Y-40.0
X167.5Y-140.0
M30
