%TF.GenerationSoftware,KiCad,Pcbnew,9.0.5*%
%TF.CreationDate,2025-10-17T20:57:41+01:00*%
%TF.ProjectId,Board,426f6172-642e-46b6-9963-61645f706362,v1*%
%TF.SameCoordinates,Original*%
%TF.FileFunction,Plated,1,2,PTH,Drill*%
%TF.FilePolarity,Positive*%
%FSLAX46Y46*%
G04 Gerber Fmt 4.6, Leading zero omitted, Abs format (unit mm)*
G04 Created by KiCad (PCBNEW 9.0.5) date 2025-10-17 20:57:41*
%MOMM*%
%LPD*%
G01*
G04 APERTURE LIST*
%TA.AperFunction,ComponentDrill*%
%ADD10C,0.750000*%
%TD*%
%TA.AperFunction,ComponentDrill*%
%ADD11C,0.800000*%
%TD*%
%TA.AperFunction,ComponentDrill*%
%ADD12C,0.900000*%
%TD*%
%TA.AperFunction,ComponentDrill*%
%ADD13C,2.700000*%
%TD*%
G04 APERTURE END LIST*
D10*
%TO.C,MJ1*%
X109000000Y-47000000D03*
X109000000Y-49000000D03*
X109000000Y-51000000D03*
X109000000Y-53000000D03*
X109000000Y-55000000D03*
X109000000Y-57000000D03*
%TO.C,MJ3*%
X118500000Y-43000000D03*
X120500000Y-43000000D03*
X122500000Y-43000000D03*
X124500000Y-43000000D03*
X126500000Y-43000000D03*
X128500000Y-43000000D03*
%TO.C,MJ4*%
X145500000Y-43000000D03*
X147500000Y-43000000D03*
X149500000Y-43000000D03*
X151500000Y-43000000D03*
X153500000Y-43000000D03*
X155500000Y-43000000D03*
%TO.C,MJ2*%
X166250000Y-47000000D03*
X166250000Y-49000000D03*
X166250000Y-51000000D03*
X166250000Y-53000000D03*
X166250000Y-55000000D03*
X166250000Y-57000000D03*
D11*
%TO.C,R1*%
X109647540Y-141972470D03*
%TO.C,U1*%
X110060000Y-76280000D03*
X110060000Y-91500000D03*
X112600000Y-76280000D03*
X112600000Y-91500000D03*
X115140000Y-76280000D03*
X115140000Y-91500000D03*
%TO.C,DR1*%
X115260000Y-52380000D03*
X115260000Y-67620000D03*
%TO.C,R1*%
X117267540Y-141972470D03*
%TO.C,U1*%
X117680000Y-76280000D03*
X117680000Y-91500000D03*
%TO.C,DR1*%
X117800000Y-52380000D03*
X117800000Y-67620000D03*
%TO.C,U1*%
X120220000Y-76280000D03*
X120220000Y-91500000D03*
%TO.C,DR1*%
X120340000Y-52380000D03*
X120340000Y-67620000D03*
%TO.C,RS1*%
X122462868Y-127961715D03*
X122462868Y-130501715D03*
X122462868Y-133041715D03*
%TO.C,U1*%
X122760000Y-76280000D03*
X122760000Y-91500000D03*
%TO.C,DR1*%
X122880000Y-52380000D03*
X122880000Y-67620000D03*
%TO.C,U1*%
X125300000Y-76280000D03*
X125300000Y-91500000D03*
%TO.C,DR1*%
X125420000Y-52380000D03*
X125420000Y-67620000D03*
%TO.C,S1*%
X126250000Y-97110000D03*
X126250000Y-99650000D03*
X126250000Y-102190000D03*
X126250000Y-104730000D03*
X126250000Y-107270000D03*
X126250000Y-109810000D03*
X126250000Y-112350000D03*
X126250000Y-114890000D03*
%TO.C,U1*%
X127840000Y-76280000D03*
X127840000Y-91500000D03*
%TO.C,DR1*%
X127960000Y-52380000D03*
X127960000Y-67620000D03*
%TO.C,U1*%
X130380000Y-76280000D03*
X130380000Y-91500000D03*
%TO.C,DR1*%
X130500000Y-52380000D03*
X130500000Y-67620000D03*
%TO.C,R2*%
X131975312Y-104978279D03*
X131975312Y-112598279D03*
%TO.C,U1*%
X132920000Y-76280000D03*
X132920000Y-91500000D03*
%TO.C,DR1*%
X133040000Y-52380000D03*
X133040000Y-67620000D03*
%TO.C,U1*%
X135460000Y-76280000D03*
X135460000Y-91500000D03*
X138000000Y-76280000D03*
X138000000Y-91500000D03*
%TO.C,R3*%
X138000000Y-107190000D03*
X138000000Y-114810000D03*
%TO.C,U1*%
X140540000Y-76280000D03*
X140540000Y-91500000D03*
%TO.C,DR2*%
X141350000Y-52380000D03*
X141350000Y-67620000D03*
%TO.C,U1*%
X143080000Y-76280000D03*
X143080000Y-91500000D03*
%TO.C,S2*%
X143750000Y-97110000D03*
X143750000Y-99650000D03*
X143750000Y-102190000D03*
X143750000Y-104730000D03*
X143750000Y-107270000D03*
X143750000Y-109810000D03*
X143750000Y-112350000D03*
X143750000Y-114890000D03*
%TO.C,DR2*%
X143890000Y-52380000D03*
X143890000Y-67620000D03*
%TO.C,U1*%
X145620000Y-76280000D03*
X145620000Y-91500000D03*
%TO.C,DR2*%
X146430000Y-52380000D03*
X146430000Y-67620000D03*
%TO.C,U1*%
X148160000Y-76280000D03*
X148160000Y-91500000D03*
%TO.C,DR2*%
X148970000Y-52380000D03*
X148970000Y-67620000D03*
%TO.C,U1*%
X150700000Y-76280000D03*
X150700000Y-91500000D03*
%TO.C,DR2*%
X151510000Y-52380000D03*
X151510000Y-67620000D03*
%TO.C,U1*%
X153240000Y-76280000D03*
X153240000Y-91500000D03*
%TO.C,DR2*%
X154050000Y-52380000D03*
X154050000Y-67620000D03*
%TO.C,U1*%
X155780000Y-76280000D03*
X155780000Y-91500000D03*
%TO.C,DR2*%
X156590000Y-52380000D03*
X156590000Y-67620000D03*
%TO.C,U1*%
X158320000Y-76280000D03*
X158320000Y-91500000D03*
%TO.C,DR2*%
X159130000Y-52380000D03*
X159130000Y-67620000D03*
D12*
%TO.C,D1*%
X108999691Y-134219430D03*
X108999691Y-136759430D03*
%TO.C,D2*%
X115994869Y-134219430D03*
X115994869Y-136759430D03*
D13*
%TO.C,J1*%
X165750000Y-66500000D03*
X165750000Y-71500000D03*
M02*
