%TF.GenerationSoftware,KiCad,Pcbnew,9.0.5*%
%TF.CreationDate,2025-10-05T20:14:22+01:00*%
%TF.ProjectId,Board,426f6172-642e-46b6-9963-61645f706362,v1*%
%TF.SameCoordinates,Original*%
%TF.FileFunction,Legend,Top*%
%TF.FilePolarity,Positive*%
%FSLAX46Y46*%
G04 Gerber Fmt 4.6, Leading zero omitted, Abs format (unit mm)*
G04 Created by KiCad (PCBNEW 9.0.5) date 2025-10-05 20:14:22*
%MOMM*%
%LPD*%
G01*
G04 APERTURE LIST*
%ADD10C,0.150000*%
%ADD11C,0.120000*%
%ADD12C,0.000000*%
G04 APERTURE END LIST*
D10*
X112354819Y-53190475D02*
X111354819Y-53190475D01*
X111354819Y-53190475D02*
X112069104Y-52857142D01*
X112069104Y-52857142D02*
X111354819Y-52523809D01*
X111354819Y-52523809D02*
X112354819Y-52523809D01*
X111354819Y-51761904D02*
X112069104Y-51761904D01*
X112069104Y-51761904D02*
X112211961Y-51809523D01*
X112211961Y-51809523D02*
X112307200Y-51904761D01*
X112307200Y-51904761D02*
X112354819Y-52047618D01*
X112354819Y-52047618D02*
X112354819Y-52142856D01*
X111688152Y-50857142D02*
X112354819Y-50857142D01*
X111307200Y-51095237D02*
X112021485Y-51333332D01*
X112021485Y-51333332D02*
X112021485Y-50714285D01*
X113290873Y-140057289D02*
X112957540Y-139581098D01*
X112719445Y-140057289D02*
X112719445Y-139057289D01*
X112719445Y-139057289D02*
X113100397Y-139057289D01*
X113100397Y-139057289D02*
X113195635Y-139104908D01*
X113195635Y-139104908D02*
X113243254Y-139152527D01*
X113243254Y-139152527D02*
X113290873Y-139247765D01*
X113290873Y-139247765D02*
X113290873Y-139390622D01*
X113290873Y-139390622D02*
X113243254Y-139485860D01*
X113243254Y-139485860D02*
X113195635Y-139533479D01*
X113195635Y-139533479D02*
X113100397Y-139581098D01*
X113100397Y-139581098D02*
X112719445Y-139581098D01*
X114243254Y-140057289D02*
X113671826Y-140057289D01*
X113957540Y-140057289D02*
X113957540Y-139057289D01*
X113957540Y-139057289D02*
X113862302Y-139200146D01*
X113862302Y-139200146D02*
X113767064Y-139295384D01*
X113767064Y-139295384D02*
X113671826Y-139343003D01*
X120417687Y-131144572D02*
X119941496Y-131477905D01*
X120417687Y-131716000D02*
X119417687Y-131716000D01*
X119417687Y-131716000D02*
X119417687Y-131335048D01*
X119417687Y-131335048D02*
X119465306Y-131239810D01*
X119465306Y-131239810D02*
X119512925Y-131192191D01*
X119512925Y-131192191D02*
X119608163Y-131144572D01*
X119608163Y-131144572D02*
X119751020Y-131144572D01*
X119751020Y-131144572D02*
X119846258Y-131192191D01*
X119846258Y-131192191D02*
X119893877Y-131239810D01*
X119893877Y-131239810D02*
X119941496Y-131335048D01*
X119941496Y-131335048D02*
X119941496Y-131716000D01*
X120370068Y-130763619D02*
X120417687Y-130620762D01*
X120417687Y-130620762D02*
X120417687Y-130382667D01*
X120417687Y-130382667D02*
X120370068Y-130287429D01*
X120370068Y-130287429D02*
X120322448Y-130239810D01*
X120322448Y-130239810D02*
X120227210Y-130192191D01*
X120227210Y-130192191D02*
X120131972Y-130192191D01*
X120131972Y-130192191D02*
X120036734Y-130239810D01*
X120036734Y-130239810D02*
X119989115Y-130287429D01*
X119989115Y-130287429D02*
X119941496Y-130382667D01*
X119941496Y-130382667D02*
X119893877Y-130573143D01*
X119893877Y-130573143D02*
X119846258Y-130668381D01*
X119846258Y-130668381D02*
X119798639Y-130716000D01*
X119798639Y-130716000D02*
X119703401Y-130763619D01*
X119703401Y-130763619D02*
X119608163Y-130763619D01*
X119608163Y-130763619D02*
X119512925Y-130716000D01*
X119512925Y-130716000D02*
X119465306Y-130668381D01*
X119465306Y-130668381D02*
X119417687Y-130573143D01*
X119417687Y-130573143D02*
X119417687Y-130335048D01*
X119417687Y-130335048D02*
X119465306Y-130192191D01*
X120417687Y-129239810D02*
X120417687Y-129811238D01*
X120417687Y-129525524D02*
X119417687Y-129525524D01*
X119417687Y-129525524D02*
X119560544Y-129620762D01*
X119560544Y-129620762D02*
X119655782Y-129716000D01*
X119655782Y-129716000D02*
X119703401Y-129811238D01*
X135834819Y-61358094D02*
X134834819Y-61358094D01*
X134834819Y-61358094D02*
X134834819Y-61119999D01*
X134834819Y-61119999D02*
X134882438Y-60977142D01*
X134882438Y-60977142D02*
X134977676Y-60881904D01*
X134977676Y-60881904D02*
X135072914Y-60834285D01*
X135072914Y-60834285D02*
X135263390Y-60786666D01*
X135263390Y-60786666D02*
X135406247Y-60786666D01*
X135406247Y-60786666D02*
X135596723Y-60834285D01*
X135596723Y-60834285D02*
X135691961Y-60881904D01*
X135691961Y-60881904D02*
X135787200Y-60977142D01*
X135787200Y-60977142D02*
X135834819Y-61119999D01*
X135834819Y-61119999D02*
X135834819Y-61358094D01*
X135834819Y-59786666D02*
X135358628Y-60119999D01*
X135834819Y-60358094D02*
X134834819Y-60358094D01*
X134834819Y-60358094D02*
X134834819Y-59977142D01*
X134834819Y-59977142D02*
X134882438Y-59881904D01*
X134882438Y-59881904D02*
X134930057Y-59834285D01*
X134930057Y-59834285D02*
X135025295Y-59786666D01*
X135025295Y-59786666D02*
X135168152Y-59786666D01*
X135168152Y-59786666D02*
X135263390Y-59834285D01*
X135263390Y-59834285D02*
X135311009Y-59881904D01*
X135311009Y-59881904D02*
X135358628Y-59977142D01*
X135358628Y-59977142D02*
X135358628Y-60358094D01*
X134930057Y-59405713D02*
X134882438Y-59358094D01*
X134882438Y-59358094D02*
X134834819Y-59262856D01*
X134834819Y-59262856D02*
X134834819Y-59024761D01*
X134834819Y-59024761D02*
X134882438Y-58929523D01*
X134882438Y-58929523D02*
X134930057Y-58881904D01*
X134930057Y-58881904D02*
X135025295Y-58834285D01*
X135025295Y-58834285D02*
X135120533Y-58834285D01*
X135120533Y-58834285D02*
X135263390Y-58881904D01*
X135263390Y-58881904D02*
X135834819Y-59453332D01*
X135834819Y-59453332D02*
X135834819Y-58834285D01*
X148699524Y-41174819D02*
X148699524Y-40174819D01*
X148699524Y-40174819D02*
X149032857Y-40889104D01*
X149032857Y-40889104D02*
X149366190Y-40174819D01*
X149366190Y-40174819D02*
X149366190Y-41174819D01*
X150128095Y-40174819D02*
X150128095Y-40889104D01*
X150128095Y-40889104D02*
X150080476Y-41031961D01*
X150080476Y-41031961D02*
X149985238Y-41127200D01*
X149985238Y-41127200D02*
X149842381Y-41174819D01*
X149842381Y-41174819D02*
X149747143Y-41174819D01*
X150556667Y-40270057D02*
X150604286Y-40222438D01*
X150604286Y-40222438D02*
X150699524Y-40174819D01*
X150699524Y-40174819D02*
X150937619Y-40174819D01*
X150937619Y-40174819D02*
X151032857Y-40222438D01*
X151032857Y-40222438D02*
X151080476Y-40270057D01*
X151080476Y-40270057D02*
X151128095Y-40365295D01*
X151128095Y-40365295D02*
X151128095Y-40460533D01*
X151128095Y-40460533D02*
X151080476Y-40603390D01*
X151080476Y-40603390D02*
X150509048Y-41174819D01*
X150509048Y-41174819D02*
X151128095Y-41174819D01*
X136084819Y-111166666D02*
X135608628Y-111499999D01*
X136084819Y-111738094D02*
X135084819Y-111738094D01*
X135084819Y-111738094D02*
X135084819Y-111357142D01*
X135084819Y-111357142D02*
X135132438Y-111261904D01*
X135132438Y-111261904D02*
X135180057Y-111214285D01*
X135180057Y-111214285D02*
X135275295Y-111166666D01*
X135275295Y-111166666D02*
X135418152Y-111166666D01*
X135418152Y-111166666D02*
X135513390Y-111214285D01*
X135513390Y-111214285D02*
X135561009Y-111261904D01*
X135561009Y-111261904D02*
X135608628Y-111357142D01*
X135608628Y-111357142D02*
X135608628Y-111738094D01*
X135084819Y-110833332D02*
X135084819Y-110214285D01*
X135084819Y-110214285D02*
X135465771Y-110547618D01*
X135465771Y-110547618D02*
X135465771Y-110404761D01*
X135465771Y-110404761D02*
X135513390Y-110309523D01*
X135513390Y-110309523D02*
X135561009Y-110261904D01*
X135561009Y-110261904D02*
X135656247Y-110214285D01*
X135656247Y-110214285D02*
X135894342Y-110214285D01*
X135894342Y-110214285D02*
X135989580Y-110261904D01*
X135989580Y-110261904D02*
X136037200Y-110309523D01*
X136037200Y-110309523D02*
X136084819Y-110404761D01*
X136084819Y-110404761D02*
X136084819Y-110690475D01*
X136084819Y-110690475D02*
X136037200Y-110785713D01*
X136037200Y-110785713D02*
X135989580Y-110833332D01*
X107214819Y-84651904D02*
X108024342Y-84651904D01*
X108024342Y-84651904D02*
X108119580Y-84604285D01*
X108119580Y-84604285D02*
X108167200Y-84556666D01*
X108167200Y-84556666D02*
X108214819Y-84461428D01*
X108214819Y-84461428D02*
X108214819Y-84270952D01*
X108214819Y-84270952D02*
X108167200Y-84175714D01*
X108167200Y-84175714D02*
X108119580Y-84128095D01*
X108119580Y-84128095D02*
X108024342Y-84080476D01*
X108024342Y-84080476D02*
X107214819Y-84080476D01*
X108214819Y-83080476D02*
X108214819Y-83651904D01*
X108214819Y-83366190D02*
X107214819Y-83366190D01*
X107214819Y-83366190D02*
X107357676Y-83461428D01*
X107357676Y-83461428D02*
X107452914Y-83556666D01*
X107452914Y-83556666D02*
X107500533Y-83651904D01*
X161204819Y-69333333D02*
X161919104Y-69333333D01*
X161919104Y-69333333D02*
X162061961Y-69380952D01*
X162061961Y-69380952D02*
X162157200Y-69476190D01*
X162157200Y-69476190D02*
X162204819Y-69619047D01*
X162204819Y-69619047D02*
X162204819Y-69714285D01*
X162204819Y-68333333D02*
X162204819Y-68904761D01*
X162204819Y-68619047D02*
X161204819Y-68619047D01*
X161204819Y-68619047D02*
X161347676Y-68714285D01*
X161347676Y-68714285D02*
X161442914Y-68809523D01*
X161442914Y-68809523D02*
X161490533Y-68904761D01*
X165864700Y-76071428D02*
X165864700Y-74928571D01*
X165864700Y-63071428D02*
X165864700Y-61928571D01*
X166436128Y-62499999D02*
X165293271Y-62499999D01*
X113489688Y-136227524D02*
X112489688Y-136227524D01*
X112489688Y-136227524D02*
X112489688Y-135989429D01*
X112489688Y-135989429D02*
X112537307Y-135846572D01*
X112537307Y-135846572D02*
X112632545Y-135751334D01*
X112632545Y-135751334D02*
X112727783Y-135703715D01*
X112727783Y-135703715D02*
X112918259Y-135656096D01*
X112918259Y-135656096D02*
X113061116Y-135656096D01*
X113061116Y-135656096D02*
X113251592Y-135703715D01*
X113251592Y-135703715D02*
X113346830Y-135751334D01*
X113346830Y-135751334D02*
X113442069Y-135846572D01*
X113442069Y-135846572D02*
X113489688Y-135989429D01*
X113489688Y-135989429D02*
X113489688Y-136227524D01*
X112584926Y-135275143D02*
X112537307Y-135227524D01*
X112537307Y-135227524D02*
X112489688Y-135132286D01*
X112489688Y-135132286D02*
X112489688Y-134894191D01*
X112489688Y-134894191D02*
X112537307Y-134798953D01*
X112537307Y-134798953D02*
X112584926Y-134751334D01*
X112584926Y-134751334D02*
X112680164Y-134703715D01*
X112680164Y-134703715D02*
X112775402Y-134703715D01*
X112775402Y-134703715D02*
X112918259Y-134751334D01*
X112918259Y-134751334D02*
X113489688Y-135322762D01*
X113489688Y-135322762D02*
X113489688Y-134703715D01*
X122699524Y-47974819D02*
X122699524Y-46974819D01*
X122699524Y-46974819D02*
X123032857Y-47689104D01*
X123032857Y-47689104D02*
X123366190Y-46974819D01*
X123366190Y-46974819D02*
X123366190Y-47974819D01*
X124128095Y-46974819D02*
X124128095Y-47689104D01*
X124128095Y-47689104D02*
X124080476Y-47831961D01*
X124080476Y-47831961D02*
X123985238Y-47927200D01*
X123985238Y-47927200D02*
X123842381Y-47974819D01*
X123842381Y-47974819D02*
X123747143Y-47974819D01*
X124509048Y-46974819D02*
X125128095Y-46974819D01*
X125128095Y-46974819D02*
X124794762Y-47355771D01*
X124794762Y-47355771D02*
X124937619Y-47355771D01*
X124937619Y-47355771D02*
X125032857Y-47403390D01*
X125032857Y-47403390D02*
X125080476Y-47451009D01*
X125080476Y-47451009D02*
X125128095Y-47546247D01*
X125128095Y-47546247D02*
X125128095Y-47784342D01*
X125128095Y-47784342D02*
X125080476Y-47879580D01*
X125080476Y-47879580D02*
X125032857Y-47927200D01*
X125032857Y-47927200D02*
X124937619Y-47974819D01*
X124937619Y-47974819D02*
X124651905Y-47974819D01*
X124651905Y-47974819D02*
X124556667Y-47927200D01*
X124556667Y-47927200D02*
X124509048Y-47879580D01*
X106494510Y-136227524D02*
X105494510Y-136227524D01*
X105494510Y-136227524D02*
X105494510Y-135989429D01*
X105494510Y-135989429D02*
X105542129Y-135846572D01*
X105542129Y-135846572D02*
X105637367Y-135751334D01*
X105637367Y-135751334D02*
X105732605Y-135703715D01*
X105732605Y-135703715D02*
X105923081Y-135656096D01*
X105923081Y-135656096D02*
X106065938Y-135656096D01*
X106065938Y-135656096D02*
X106256414Y-135703715D01*
X106256414Y-135703715D02*
X106351652Y-135751334D01*
X106351652Y-135751334D02*
X106446891Y-135846572D01*
X106446891Y-135846572D02*
X106494510Y-135989429D01*
X106494510Y-135989429D02*
X106494510Y-136227524D01*
X106494510Y-134703715D02*
X106494510Y-135275143D01*
X106494510Y-134989429D02*
X105494510Y-134989429D01*
X105494510Y-134989429D02*
X105637367Y-135084667D01*
X105637367Y-135084667D02*
X105732605Y-135179905D01*
X105732605Y-135179905D02*
X105780224Y-135275143D01*
X169604819Y-53190475D02*
X168604819Y-53190475D01*
X168604819Y-53190475D02*
X169319104Y-52857142D01*
X169319104Y-52857142D02*
X168604819Y-52523809D01*
X168604819Y-52523809D02*
X169604819Y-52523809D01*
X168604819Y-51761904D02*
X169319104Y-51761904D01*
X169319104Y-51761904D02*
X169461961Y-51809523D01*
X169461961Y-51809523D02*
X169557200Y-51904761D01*
X169557200Y-51904761D02*
X169604819Y-52047618D01*
X169604819Y-52047618D02*
X169604819Y-52142856D01*
X169604819Y-50761904D02*
X169604819Y-51333332D01*
X169604819Y-51047618D02*
X168604819Y-51047618D01*
X168604819Y-51047618D02*
X168747676Y-51142856D01*
X168747676Y-51142856D02*
X168842914Y-51238094D01*
X168842914Y-51238094D02*
X168890533Y-51333332D01*
X130060131Y-108954945D02*
X129583940Y-109288278D01*
X130060131Y-109526373D02*
X129060131Y-109526373D01*
X129060131Y-109526373D02*
X129060131Y-109145421D01*
X129060131Y-109145421D02*
X129107750Y-109050183D01*
X129107750Y-109050183D02*
X129155369Y-109002564D01*
X129155369Y-109002564D02*
X129250607Y-108954945D01*
X129250607Y-108954945D02*
X129393464Y-108954945D01*
X129393464Y-108954945D02*
X129488702Y-109002564D01*
X129488702Y-109002564D02*
X129536321Y-109050183D01*
X129536321Y-109050183D02*
X129583940Y-109145421D01*
X129583940Y-109145421D02*
X129583940Y-109526373D01*
X129155369Y-108573992D02*
X129107750Y-108526373D01*
X129107750Y-108526373D02*
X129060131Y-108431135D01*
X129060131Y-108431135D02*
X129060131Y-108193040D01*
X129060131Y-108193040D02*
X129107750Y-108097802D01*
X129107750Y-108097802D02*
X129155369Y-108050183D01*
X129155369Y-108050183D02*
X129250607Y-108002564D01*
X129250607Y-108002564D02*
X129345845Y-108002564D01*
X129345845Y-108002564D02*
X129488702Y-108050183D01*
X129488702Y-108050183D02*
X130060131Y-108621611D01*
X130060131Y-108621611D02*
X130060131Y-108002564D01*
X129157200Y-106761904D02*
X129204819Y-106619047D01*
X129204819Y-106619047D02*
X129204819Y-106380952D01*
X129204819Y-106380952D02*
X129157200Y-106285714D01*
X129157200Y-106285714D02*
X129109580Y-106238095D01*
X129109580Y-106238095D02*
X129014342Y-106190476D01*
X129014342Y-106190476D02*
X128919104Y-106190476D01*
X128919104Y-106190476D02*
X128823866Y-106238095D01*
X128823866Y-106238095D02*
X128776247Y-106285714D01*
X128776247Y-106285714D02*
X128728628Y-106380952D01*
X128728628Y-106380952D02*
X128681009Y-106571428D01*
X128681009Y-106571428D02*
X128633390Y-106666666D01*
X128633390Y-106666666D02*
X128585771Y-106714285D01*
X128585771Y-106714285D02*
X128490533Y-106761904D01*
X128490533Y-106761904D02*
X128395295Y-106761904D01*
X128395295Y-106761904D02*
X128300057Y-106714285D01*
X128300057Y-106714285D02*
X128252438Y-106666666D01*
X128252438Y-106666666D02*
X128204819Y-106571428D01*
X128204819Y-106571428D02*
X128204819Y-106333333D01*
X128204819Y-106333333D02*
X128252438Y-106190476D01*
X129204819Y-105238095D02*
X129204819Y-105809523D01*
X129204819Y-105523809D02*
X128204819Y-105523809D01*
X128204819Y-105523809D02*
X128347676Y-105619047D01*
X128347676Y-105619047D02*
X128442914Y-105714285D01*
X128442914Y-105714285D02*
X128490533Y-105809523D01*
X141657200Y-106761904D02*
X141704819Y-106619047D01*
X141704819Y-106619047D02*
X141704819Y-106380952D01*
X141704819Y-106380952D02*
X141657200Y-106285714D01*
X141657200Y-106285714D02*
X141609580Y-106238095D01*
X141609580Y-106238095D02*
X141514342Y-106190476D01*
X141514342Y-106190476D02*
X141419104Y-106190476D01*
X141419104Y-106190476D02*
X141323866Y-106238095D01*
X141323866Y-106238095D02*
X141276247Y-106285714D01*
X141276247Y-106285714D02*
X141228628Y-106380952D01*
X141228628Y-106380952D02*
X141181009Y-106571428D01*
X141181009Y-106571428D02*
X141133390Y-106666666D01*
X141133390Y-106666666D02*
X141085771Y-106714285D01*
X141085771Y-106714285D02*
X140990533Y-106761904D01*
X140990533Y-106761904D02*
X140895295Y-106761904D01*
X140895295Y-106761904D02*
X140800057Y-106714285D01*
X140800057Y-106714285D02*
X140752438Y-106666666D01*
X140752438Y-106666666D02*
X140704819Y-106571428D01*
X140704819Y-106571428D02*
X140704819Y-106333333D01*
X140704819Y-106333333D02*
X140752438Y-106190476D01*
X140800057Y-105809523D02*
X140752438Y-105761904D01*
X140752438Y-105761904D02*
X140704819Y-105666666D01*
X140704819Y-105666666D02*
X140704819Y-105428571D01*
X140704819Y-105428571D02*
X140752438Y-105333333D01*
X140752438Y-105333333D02*
X140800057Y-105285714D01*
X140800057Y-105285714D02*
X140895295Y-105238095D01*
X140895295Y-105238095D02*
X140990533Y-105238095D01*
X140990533Y-105238095D02*
X141133390Y-105285714D01*
X141133390Y-105285714D02*
X141704819Y-105857142D01*
X141704819Y-105857142D02*
X141704819Y-105238095D01*
X161674819Y-64238094D02*
X160674819Y-64238094D01*
X160674819Y-64238094D02*
X160674819Y-63999999D01*
X160674819Y-63999999D02*
X160722438Y-63857142D01*
X160722438Y-63857142D02*
X160817676Y-63761904D01*
X160817676Y-63761904D02*
X160912914Y-63714285D01*
X160912914Y-63714285D02*
X161103390Y-63666666D01*
X161103390Y-63666666D02*
X161246247Y-63666666D01*
X161246247Y-63666666D02*
X161436723Y-63714285D01*
X161436723Y-63714285D02*
X161531961Y-63761904D01*
X161531961Y-63761904D02*
X161627200Y-63857142D01*
X161627200Y-63857142D02*
X161674819Y-63999999D01*
X161674819Y-63999999D02*
X161674819Y-64238094D01*
X161674819Y-62666666D02*
X161198628Y-62999999D01*
X161674819Y-63238094D02*
X160674819Y-63238094D01*
X160674819Y-63238094D02*
X160674819Y-62857142D01*
X160674819Y-62857142D02*
X160722438Y-62761904D01*
X160722438Y-62761904D02*
X160770057Y-62714285D01*
X160770057Y-62714285D02*
X160865295Y-62666666D01*
X160865295Y-62666666D02*
X161008152Y-62666666D01*
X161008152Y-62666666D02*
X161103390Y-62714285D01*
X161103390Y-62714285D02*
X161151009Y-62761904D01*
X161151009Y-62761904D02*
X161198628Y-62857142D01*
X161198628Y-62857142D02*
X161198628Y-63238094D01*
X161674819Y-61714285D02*
X161674819Y-62285713D01*
X161674819Y-61999999D02*
X160674819Y-61999999D01*
X160674819Y-61999999D02*
X160817676Y-62095237D01*
X160817676Y-62095237D02*
X160912914Y-62190475D01*
X160912914Y-62190475D02*
X160960533Y-62285713D01*
D11*
%TO.C,MJ4*%
X111110000Y-45890000D02*
X111110000Y-44640000D01*
X111110000Y-44640000D02*
X109860000Y-44640000D01*
X111010000Y-46700000D02*
X111010000Y-46400000D01*
X111010000Y-46400000D02*
X110810000Y-46400000D01*
X110910000Y-46700000D02*
X110910000Y-46400000D01*
X110810000Y-59060000D02*
X110810000Y-44940000D01*
X110810000Y-47500000D02*
X110200000Y-47500000D01*
X110810000Y-46700000D02*
X111010000Y-46700000D01*
X110810000Y-44940000D02*
X106090000Y-44940000D01*
X110200000Y-58450000D02*
X110200000Y-56500000D01*
X110200000Y-56500000D02*
X110810000Y-56500000D01*
X110200000Y-47500000D02*
X110200000Y-45550000D01*
X110200000Y-45550000D02*
X106700000Y-45550000D01*
X109500000Y-59060000D02*
X109500000Y-58450000D01*
X109500000Y-44940000D02*
X109500000Y-45550000D01*
X108200000Y-59060000D02*
X108200000Y-58450000D01*
X108200000Y-44940000D02*
X108200000Y-45550000D01*
X107200000Y-56100000D02*
X106700000Y-56100000D01*
X107200000Y-55900000D02*
X107200000Y-56100000D01*
X107200000Y-54100000D02*
X106700000Y-54100000D01*
X107200000Y-53900000D02*
X107200000Y-54100000D01*
X107200000Y-52100000D02*
X106700000Y-52100000D01*
X107200000Y-51900000D02*
X107200000Y-52100000D01*
X107200000Y-50100000D02*
X106700000Y-50100000D01*
X107200000Y-49900000D02*
X107200000Y-50100000D01*
X107200000Y-48100000D02*
X106700000Y-48100000D01*
X107200000Y-47900000D02*
X107200000Y-48100000D01*
X106700000Y-58450000D02*
X110200000Y-58450000D01*
X106700000Y-56000000D02*
X107200000Y-56000000D01*
X106700000Y-55900000D02*
X107200000Y-55900000D01*
X106700000Y-54000000D02*
X107200000Y-54000000D01*
X106700000Y-53900000D02*
X107200000Y-53900000D01*
X106700000Y-52000000D02*
X107200000Y-52000000D01*
X106700000Y-51900000D02*
X107200000Y-51900000D01*
X106700000Y-50000000D02*
X107200000Y-50000000D01*
X106700000Y-49900000D02*
X107200000Y-49900000D01*
X106700000Y-48000000D02*
X107200000Y-48000000D01*
X106700000Y-47900000D02*
X107200000Y-47900000D01*
X106700000Y-45550000D02*
X106700000Y-58450000D01*
X106090000Y-59060000D02*
X110810000Y-59060000D01*
X106090000Y-44940000D02*
X106090000Y-59060000D01*
%TO.C,R1*%
X110187540Y-140602470D02*
X116727540Y-140602470D01*
X110187540Y-140932470D02*
X110187540Y-140602470D01*
X110187540Y-143012470D02*
X110187540Y-143342470D01*
X110187540Y-143342470D02*
X116727540Y-143342470D01*
X116727540Y-140602470D02*
X116727540Y-140932470D01*
X116727540Y-143342470D02*
X116727540Y-143012470D01*
%TO.C,RS1*%
X120962868Y-134141715D02*
X120962868Y-126861715D01*
X170962868Y-118001715D02*
X120962868Y-118001715D01*
X120962868Y-143501715D01*
X170962868Y-143501715D01*
X170962868Y-118001715D01*
%TO.C,DR2*%
X134140000Y-70120000D02*
X114140000Y-70120000D01*
X114140000Y-50120000D01*
X134140000Y-50120000D01*
X134140000Y-70120000D01*
%TO.C,MJ2*%
X142530000Y-41510000D02*
X142530000Y-42760000D01*
X142830000Y-41810000D02*
X142830000Y-46530000D01*
X142830000Y-43120000D02*
X143440000Y-43120000D01*
X142830000Y-44420000D02*
X143440000Y-44420000D01*
X142830000Y-46530000D02*
X156950000Y-46530000D01*
X143440000Y-42420000D02*
X143440000Y-45920000D01*
X143440000Y-45920000D02*
X156340000Y-45920000D01*
X143780000Y-41510000D02*
X142530000Y-41510000D01*
X144290000Y-41610000D02*
X144290000Y-41810000D01*
X144590000Y-41610000D02*
X144290000Y-41610000D01*
X144590000Y-41710000D02*
X144290000Y-41710000D01*
X144590000Y-41810000D02*
X144590000Y-41610000D01*
X145390000Y-41810000D02*
X145390000Y-42420000D01*
X145390000Y-42420000D02*
X143440000Y-42420000D01*
X145790000Y-45420000D02*
X145990000Y-45420000D01*
X145790000Y-45920000D02*
X145790000Y-45420000D01*
X145890000Y-45920000D02*
X145890000Y-45420000D01*
X145990000Y-45420000D02*
X145990000Y-45920000D01*
X147790000Y-45420000D02*
X147990000Y-45420000D01*
X147790000Y-45920000D02*
X147790000Y-45420000D01*
X147890000Y-45920000D02*
X147890000Y-45420000D01*
X147990000Y-45420000D02*
X147990000Y-45920000D01*
X149790000Y-45420000D02*
X149990000Y-45420000D01*
X149790000Y-45920000D02*
X149790000Y-45420000D01*
X149890000Y-45920000D02*
X149890000Y-45420000D01*
X149990000Y-45420000D02*
X149990000Y-45920000D01*
X151790000Y-45420000D02*
X151990000Y-45420000D01*
X151790000Y-45920000D02*
X151790000Y-45420000D01*
X151890000Y-45920000D02*
X151890000Y-45420000D01*
X151990000Y-45420000D02*
X151990000Y-45920000D01*
X153790000Y-45420000D02*
X153990000Y-45420000D01*
X153790000Y-45920000D02*
X153790000Y-45420000D01*
X153890000Y-45920000D02*
X153890000Y-45420000D01*
X153990000Y-45420000D02*
X153990000Y-45920000D01*
X154390000Y-42420000D02*
X154390000Y-41810000D01*
X156340000Y-42420000D02*
X154390000Y-42420000D01*
X156340000Y-45920000D02*
X156340000Y-42420000D01*
X156950000Y-41810000D02*
X142830000Y-41810000D01*
X156950000Y-43120000D02*
X156340000Y-43120000D01*
X156950000Y-44420000D02*
X156340000Y-44420000D01*
X156950000Y-46530000D02*
X156950000Y-41810000D01*
%TO.C,R3*%
X136630000Y-107730000D02*
X136960000Y-107730000D01*
X136630000Y-114270000D02*
X136630000Y-107730000D01*
X136960000Y-114270000D02*
X136630000Y-114270000D01*
X139040000Y-114270000D02*
X139370000Y-114270000D01*
X139370000Y-107730000D02*
X139040000Y-107730000D01*
X139370000Y-114270000D02*
X139370000Y-107730000D01*
%TO.C,U1*%
X108760000Y-73500000D02*
X161570000Y-73500000D01*
X161570000Y-94280000D01*
X108760000Y-94280000D01*
X108760000Y-73500000D01*
%TO.C,J1*%
X168460000Y-72510000D02*
X168460000Y-63790000D01*
X167160000Y-74210000D02*
X168460000Y-72510000D01*
X164340000Y-74210000D02*
X167160000Y-74210000D01*
X164340000Y-74210000D02*
X163040000Y-72510000D01*
X163040000Y-72510000D02*
X163040000Y-63790000D01*
X163040000Y-63790000D02*
X168460000Y-63790000D01*
%TO.C,D2*%
X114758869Y-137049430D02*
X114914869Y-137049430D01*
X117074869Y-137049430D02*
X117230869Y-137049430D01*
X114759353Y-137049430D02*
G75*
G02*
X114914869Y-133817993I1235516J1560000D01*
G01*
X114914869Y-136530391D02*
G75*
G02*
X114914869Y-134448469I1080000J1040961D01*
G01*
X117074869Y-133817993D02*
G75*
G02*
X117230385Y-137049430I-1080000J-1671437D01*
G01*
X117074869Y-134448469D02*
G75*
G02*
X117074869Y-136530391I-1080000J-1040961D01*
G01*
%TO.C,MJ3*%
X116830000Y-41710000D02*
X116830000Y-46430000D01*
X116830000Y-43820000D02*
X117440000Y-43820000D01*
X116830000Y-45120000D02*
X117440000Y-45120000D01*
X116830000Y-46430000D02*
X130950000Y-46430000D01*
X117440000Y-42320000D02*
X117440000Y-45820000D01*
X117440000Y-45820000D02*
X119390000Y-45820000D01*
X119390000Y-45820000D02*
X119390000Y-46430000D01*
X119790000Y-42820000D02*
X119790000Y-42320000D01*
X119890000Y-42320000D02*
X119890000Y-42820000D01*
X119990000Y-42320000D02*
X119990000Y-42820000D01*
X119990000Y-42820000D02*
X119790000Y-42820000D01*
X121790000Y-42820000D02*
X121790000Y-42320000D01*
X121890000Y-42320000D02*
X121890000Y-42820000D01*
X121990000Y-42320000D02*
X121990000Y-42820000D01*
X121990000Y-42820000D02*
X121790000Y-42820000D01*
X123790000Y-42820000D02*
X123790000Y-42320000D01*
X123890000Y-42320000D02*
X123890000Y-42820000D01*
X123990000Y-42320000D02*
X123990000Y-42820000D01*
X123990000Y-42820000D02*
X123790000Y-42820000D01*
X125790000Y-42820000D02*
X125790000Y-42320000D01*
X125890000Y-42320000D02*
X125890000Y-42820000D01*
X125990000Y-42320000D02*
X125990000Y-42820000D01*
X125990000Y-42820000D02*
X125790000Y-42820000D01*
X127790000Y-42820000D02*
X127790000Y-42320000D01*
X127890000Y-42320000D02*
X127890000Y-42820000D01*
X127990000Y-42320000D02*
X127990000Y-42820000D01*
X127990000Y-42820000D02*
X127790000Y-42820000D01*
X128390000Y-45820000D02*
X130340000Y-45820000D01*
X128390000Y-46430000D02*
X128390000Y-45820000D01*
X129190000Y-46430000D02*
X129190000Y-46630000D01*
X129190000Y-46530000D02*
X129490000Y-46530000D01*
X129190000Y-46630000D02*
X129490000Y-46630000D01*
X129490000Y-46630000D02*
X129490000Y-46430000D01*
X130000000Y-46730000D02*
X131250000Y-46730000D01*
X130340000Y-42320000D02*
X117440000Y-42320000D01*
X130340000Y-45820000D02*
X130340000Y-42320000D01*
X130950000Y-41710000D02*
X116830000Y-41710000D01*
X130950000Y-43820000D02*
X130340000Y-43820000D01*
X130950000Y-45120000D02*
X130340000Y-45120000D01*
X130950000Y-46430000D02*
X130950000Y-41710000D01*
X131250000Y-46730000D02*
X131250000Y-45480000D01*
%TO.C,D1*%
X107763691Y-137049430D02*
X107919691Y-137049430D01*
X110079691Y-137049430D02*
X110235691Y-137049430D01*
X107764175Y-137049430D02*
G75*
G02*
X107919691Y-133817993I1235516J1560000D01*
G01*
X107919691Y-136530391D02*
G75*
G02*
X107919691Y-134448469I1080000J1040961D01*
G01*
X110079691Y-133817993D02*
G75*
G02*
X110235207Y-137049430I-1080000J-1671437D01*
G01*
X110079691Y-134448469D02*
G75*
G02*
X110079691Y-136530391I-1080000J-1040961D01*
G01*
D12*
%TO.C,*%
G36*
X101289633Y-129243925D02*
G01*
X101305067Y-129287724D01*
X101288308Y-129332584D01*
X101233558Y-129344931D01*
X101177484Y-129331524D01*
X101162049Y-129287724D01*
X101178809Y-129242865D01*
X101233558Y-129230517D01*
X101289633Y-129243925D01*
G37*
G36*
X107158188Y-128762141D02*
G01*
X107168806Y-128787161D01*
X107144959Y-128822103D01*
X107111599Y-128830067D01*
X107065010Y-128812182D01*
X107054392Y-128787161D01*
X107078238Y-128752219D01*
X107111599Y-128744256D01*
X107158188Y-128762141D01*
G37*
G36*
X109090506Y-129600412D02*
G01*
X109106703Y-129631259D01*
X109079170Y-129655217D01*
X109044726Y-129659571D01*
X108984748Y-129644581D01*
X108970833Y-129614676D01*
X108992494Y-129580565D01*
X109032951Y-129578922D01*
X109090506Y-129600412D01*
G37*
G36*
X101280553Y-128939738D02*
G01*
X101300746Y-128984702D01*
X101299702Y-128994122D01*
X101270181Y-129039750D01*
X101221709Y-129053025D01*
X101179557Y-129029567D01*
X101172467Y-129016181D01*
X101172137Y-128960288D01*
X101184932Y-128938760D01*
X101233615Y-128920404D01*
X101280553Y-128939738D01*
G37*
G36*
X106061665Y-129240563D02*
G01*
X106076708Y-129280573D01*
X106071416Y-129330775D01*
X106027222Y-129344916D01*
X106024662Y-129344931D01*
X105978790Y-129331866D01*
X105972248Y-129283268D01*
X105972616Y-129280573D01*
X105995995Y-129230255D01*
X106024662Y-129216215D01*
X106061665Y-129240563D01*
G37*
G36*
X110952882Y-129240563D02*
G01*
X110967924Y-129280573D01*
X110962633Y-129330775D01*
X110918438Y-129344916D01*
X110915878Y-129344931D01*
X110870006Y-129331866D01*
X110863464Y-129283268D01*
X110863832Y-129280573D01*
X110887211Y-129230255D01*
X110915878Y-129216215D01*
X110952882Y-129240563D01*
G37*
G36*
X103997139Y-128930846D02*
G01*
X104046604Y-128951727D01*
X104051287Y-128978789D01*
X104006085Y-129005700D01*
X103980993Y-129013060D01*
X103939083Y-129030499D01*
X103916366Y-129066379D01*
X103905310Y-129136716D01*
X103902333Y-129180364D01*
X103890803Y-129278218D01*
X103868669Y-129328072D01*
X103849393Y-129338501D01*
X103798526Y-129334859D01*
X103785035Y-129326851D01*
X103774863Y-129289954D01*
X103767645Y-129212759D01*
X103764977Y-129114636D01*
X103764977Y-128922478D01*
X103907995Y-128922478D01*
X103997139Y-128930846D01*
G37*
G36*
X105089494Y-129757232D02*
G01*
X105134662Y-129778546D01*
X105127963Y-129809327D01*
X105066921Y-129845195D01*
X105052139Y-129851041D01*
X105001189Y-129875098D01*
X104975776Y-129909087D01*
X104967125Y-129971203D01*
X104966329Y-130028933D01*
X104963421Y-130115622D01*
X104951036Y-130159212D01*
X104923681Y-130173672D01*
X104909121Y-130174436D01*
X104879721Y-130169309D01*
X104862546Y-130145977D01*
X104854375Y-130092515D01*
X104851986Y-129996998D01*
X104851914Y-129962655D01*
X104851914Y-129750873D01*
X104994932Y-129749765D01*
X105089494Y-129757232D01*
G37*
G36*
X106944529Y-128928147D02*
G01*
X106993343Y-128948960D01*
X106996346Y-128975883D01*
X106949271Y-129002100D01*
X106911374Y-129011699D01*
X106862298Y-129024902D01*
X106836744Y-129049578D01*
X106827052Y-129101362D01*
X106825563Y-129186897D01*
X106823102Y-129278063D01*
X106812455Y-129325649D01*
X106788722Y-129343189D01*
X106768356Y-129344931D01*
X106738956Y-129339804D01*
X106721780Y-129316472D01*
X106713609Y-129263010D01*
X106711220Y-129167493D01*
X106711148Y-129133150D01*
X106711148Y-128921369D01*
X106854166Y-128920261D01*
X106944529Y-128928147D01*
G37*
G36*
X107140848Y-128920944D02*
G01*
X107158010Y-128944048D01*
X107166246Y-128997045D01*
X107168716Y-129091788D01*
X107168806Y-129130404D01*
X107167455Y-129240089D01*
X107161294Y-129304446D01*
X107147162Y-129335330D01*
X107121897Y-129344595D01*
X107111599Y-129344931D01*
X107082350Y-129339865D01*
X107065188Y-129316761D01*
X107056952Y-129263764D01*
X107054481Y-129169021D01*
X107054392Y-129130404D01*
X107055743Y-129020719D01*
X107061904Y-128956363D01*
X107076036Y-128925479D01*
X107101301Y-128916214D01*
X107111599Y-128915877D01*
X107140848Y-128920944D01*
G37*
G36*
X109057290Y-129750449D02*
G01*
X109074451Y-129773553D01*
X109082687Y-129826549D01*
X109085158Y-129921293D01*
X109085248Y-129959909D01*
X109082359Y-130076938D01*
X109072722Y-130145185D01*
X109054884Y-130172829D01*
X109047109Y-130174436D01*
X108998462Y-130161730D01*
X108989902Y-130155367D01*
X108980310Y-130119066D01*
X108973461Y-130042183D01*
X108970833Y-129941326D01*
X108970833Y-129940840D01*
X108972450Y-129837134D01*
X108979715Y-129778234D01*
X108996245Y-129751777D01*
X109025661Y-129745396D01*
X109028040Y-129745382D01*
X109057290Y-129750449D01*
G37*
G36*
X109519303Y-128924384D02*
G01*
X109563333Y-128940385D01*
X109571509Y-128960421D01*
X109548926Y-128997301D01*
X109530647Y-129001688D01*
X109463642Y-129027612D01*
X109418254Y-129099279D01*
X109400009Y-129207535D01*
X109399887Y-129218258D01*
X109396017Y-129297913D01*
X109380003Y-129335256D01*
X109345240Y-129344913D01*
X109342680Y-129344931D01*
X109313280Y-129339804D01*
X109296105Y-129316472D01*
X109287933Y-129263010D01*
X109285544Y-129167493D01*
X109285473Y-129133150D01*
X109285473Y-128921369D01*
X109428491Y-128920261D01*
X109519303Y-128924384D01*
G37*
G36*
X112393649Y-128700985D02*
G01*
X112395532Y-128722803D01*
X112305208Y-128948420D01*
X112225602Y-129131968D01*
X112158182Y-129270483D01*
X112104417Y-129361001D01*
X112065775Y-129400557D01*
X112058885Y-129402139D01*
X112038715Y-129396547D01*
X112033133Y-129374133D01*
X112044278Y-129326436D01*
X112074286Y-129244994D01*
X112125296Y-129121347D01*
X112136579Y-129094650D01*
X112189513Y-128968323D01*
X112234747Y-128857886D01*
X112267165Y-128775985D01*
X112281163Y-128737105D01*
X112317910Y-128695786D01*
X112352455Y-128687049D01*
X112393649Y-128700985D01*
G37*
G36*
X101980036Y-128694600D02*
G01*
X101977912Y-128728110D01*
X101954986Y-128800560D01*
X101916604Y-128900009D01*
X101868114Y-129014516D01*
X101814862Y-129132139D01*
X101762196Y-129240939D01*
X101715462Y-129328974D01*
X101680007Y-129384303D01*
X101665477Y-129397085D01*
X101625941Y-129393426D01*
X101619485Y-129382783D01*
X101629767Y-129348648D01*
X101657958Y-129272830D01*
X101699804Y-129166385D01*
X101751051Y-129040371D01*
X101753465Y-129034525D01*
X101823359Y-128873682D01*
X101879514Y-128764102D01*
X101924339Y-128702166D01*
X101960248Y-128684257D01*
X101980036Y-128694600D01*
G37*
G36*
X108592761Y-129599875D02*
G01*
X108607515Y-129641788D01*
X108616765Y-129723508D01*
X108621571Y-129822521D01*
X108629854Y-130056980D01*
X108764332Y-130065651D01*
X108853360Y-130077411D01*
X108897773Y-130101117D01*
X108908315Y-130124380D01*
X108906672Y-130150589D01*
X108881830Y-130165734D01*
X108822559Y-130172716D01*
X108717624Y-130174435D01*
X108714497Y-130174436D01*
X108511174Y-130174436D01*
X108519326Y-129881249D01*
X108524595Y-129745265D01*
X108532394Y-129657367D01*
X108544310Y-129608442D01*
X108561930Y-129589374D01*
X108570383Y-129588062D01*
X108592761Y-129599875D01*
G37*
G36*
X101725746Y-128693401D02*
G01*
X101730143Y-128717644D01*
X101718722Y-128767557D01*
X101689401Y-128850917D01*
X101640096Y-128975504D01*
X101611860Y-129044594D01*
X101546802Y-129198150D01*
X101496794Y-129304020D01*
X101458276Y-129368611D01*
X101427688Y-129398332D01*
X101413228Y-129402139D01*
X101380915Y-129396774D01*
X101377443Y-129370348D01*
X101399831Y-129309177D01*
X101427484Y-129242118D01*
X101469908Y-129139260D01*
X101520057Y-129017687D01*
X101547307Y-128951632D01*
X101604864Y-128819866D01*
X101649728Y-128736392D01*
X101685809Y-128694757D01*
X101707615Y-128687049D01*
X101725746Y-128693401D01*
G37*
G36*
X102127421Y-128749701D02*
G01*
X102150497Y-128760746D01*
X102165257Y-128790142D01*
X102173478Y-128848356D01*
X102176937Y-128945856D01*
X102177477Y-129044594D01*
X102176319Y-129176317D01*
X102171659Y-129261326D01*
X102161722Y-129310090D01*
X102144729Y-129333077D01*
X102127421Y-129339486D01*
X102105158Y-129338652D01*
X102090640Y-129319513D01*
X102082249Y-129272530D01*
X102078365Y-129188163D01*
X102077368Y-129056872D01*
X102077365Y-129044594D01*
X102078207Y-128909310D01*
X102081812Y-128821683D01*
X102089800Y-128772171D01*
X102103791Y-128751234D01*
X102125403Y-128749334D01*
X102127421Y-128749701D01*
G37*
G36*
X107675250Y-129598235D02*
G01*
X107689131Y-129634830D01*
X107698296Y-129706959D01*
X107704333Y-129823738D01*
X107706124Y-129881249D01*
X107709161Y-130013110D01*
X107708251Y-130098074D01*
X107701607Y-130146410D01*
X107687440Y-130168386D01*
X107663962Y-130174272D01*
X107655067Y-130174436D01*
X107628525Y-130171317D01*
X107611817Y-130155115D01*
X107603156Y-130115560D01*
X107600752Y-130042383D01*
X107602818Y-129925316D01*
X107604010Y-129881249D01*
X107609280Y-129745265D01*
X107617079Y-129657367D01*
X107628995Y-129608442D01*
X107646615Y-129589374D01*
X107655067Y-129588062D01*
X107675250Y-129598235D01*
G37*
G36*
X108620439Y-128749701D02*
G01*
X108643515Y-128760746D01*
X108658275Y-128790142D01*
X108666496Y-128848356D01*
X108669956Y-128945856D01*
X108670495Y-129044594D01*
X108669337Y-129176317D01*
X108664677Y-129261326D01*
X108654740Y-129310090D01*
X108637747Y-129333077D01*
X108620439Y-129339486D01*
X108598176Y-129338652D01*
X108583658Y-129319513D01*
X108575267Y-129272530D01*
X108571383Y-129188163D01*
X108570386Y-129056872D01*
X108570383Y-129044594D01*
X108571225Y-128909310D01*
X108574830Y-128821683D01*
X108582818Y-128772171D01*
X108596809Y-128751234D01*
X108618421Y-128749334D01*
X108620439Y-128749701D01*
G37*
G36*
X100100633Y-129577526D02*
G01*
X100117185Y-129595566D01*
X100126694Y-129637995D01*
X100131088Y-129714926D01*
X100132291Y-129836473D01*
X100132320Y-129874098D01*
X100131602Y-130008083D01*
X100128166Y-130094980D01*
X100120085Y-130144904D01*
X100105431Y-130167968D01*
X100082279Y-130174287D01*
X100075112Y-130174436D01*
X100049592Y-130170670D01*
X100033040Y-130152630D01*
X100023530Y-130110202D01*
X100019137Y-130033271D01*
X100017934Y-129911723D01*
X100017905Y-129874098D01*
X100018623Y-129740113D01*
X100022059Y-129653216D01*
X100030140Y-129603293D01*
X100044794Y-129580228D01*
X100067946Y-129573909D01*
X100075112Y-129573760D01*
X100100633Y-129577526D01*
G37*
G36*
X101055370Y-125392167D02*
G01*
X101146633Y-125483430D01*
X100882386Y-125748780D01*
X100618139Y-126014130D01*
X100775258Y-126169296D01*
X100932376Y-126324463D01*
X100870605Y-126390215D01*
X100817484Y-126436523D01*
X100776073Y-126455966D01*
X100775875Y-126455968D01*
X100743633Y-126436546D01*
X100681682Y-126383933D01*
X100599513Y-126306607D01*
X100523429Y-126230423D01*
X100434694Y-126136980D01*
X100363159Y-126057348D01*
X100317037Y-126000951D01*
X100303941Y-125978560D01*
X100323340Y-125950551D01*
X100376964Y-125890051D01*
X100457950Y-125804375D01*
X100559439Y-125700842D01*
X100634024Y-125626572D01*
X100964107Y-125300905D01*
X101055370Y-125392167D01*
G37*
G36*
X108138676Y-129590013D02*
G01*
X108205266Y-129597650D01*
X108238641Y-129613654D01*
X108250298Y-129638118D01*
X108244195Y-129674111D01*
X108198522Y-129687427D01*
X108172030Y-129688175D01*
X108084121Y-129688175D01*
X108084121Y-129931305D01*
X108083057Y-130049523D01*
X108078108Y-130121732D01*
X108066644Y-130159120D01*
X108046032Y-130172873D01*
X108026914Y-130174436D01*
X107999098Y-130169911D01*
X107982108Y-130148881D01*
X107973311Y-130100158D01*
X107970075Y-130012557D01*
X107969707Y-129931305D01*
X107969707Y-129688175D01*
X107881799Y-129688175D01*
X107820018Y-129680752D01*
X107801922Y-129653286D01*
X107803531Y-129638118D01*
X107816883Y-129612033D01*
X107852433Y-129596783D01*
X107922138Y-129589689D01*
X108026914Y-129588062D01*
X108138676Y-129590013D01*
G37*
G36*
X110435576Y-129756442D02*
G01*
X110513463Y-129786052D01*
X110555867Y-129850467D01*
X110571712Y-129958441D01*
X110572635Y-130007248D01*
X110570357Y-130101751D01*
X110560599Y-130152273D01*
X110538976Y-130171955D01*
X110516855Y-130174436D01*
X110484553Y-130166573D01*
X110465953Y-130134289D01*
X110455951Y-130064540D01*
X110452497Y-130009965D01*
X110445771Y-129917227D01*
X110433574Y-129868017D01*
X110409253Y-129848670D01*
X110372410Y-129845495D01*
X110330888Y-129850492D01*
X110307302Y-129874746D01*
X110294059Y-129932152D01*
X110286599Y-130002566D01*
X110273066Y-130099630D01*
X110251931Y-130151403D01*
X110222154Y-130169151D01*
X110172108Y-130157779D01*
X110156251Y-130137593D01*
X110149083Y-130087931D01*
X110147002Y-130002483D01*
X110149187Y-129928156D01*
X110157883Y-129759791D01*
X110313281Y-129752886D01*
X110435576Y-129756442D01*
G37*
G36*
X105446103Y-128955224D02*
G01*
X105459900Y-128967682D01*
X105508953Y-129053028D01*
X105519623Y-129156625D01*
X105491271Y-129253904D01*
X105468179Y-129286302D01*
X105393489Y-129333469D01*
X105300459Y-129347010D01*
X105211623Y-129327279D01*
X105153874Y-129281360D01*
X105116629Y-129190756D01*
X105112048Y-129097066D01*
X105228779Y-129097066D01*
X105229557Y-129195012D01*
X105260776Y-129246116D01*
X105316595Y-129253976D01*
X105358844Y-129239011D01*
X105377374Y-129199022D01*
X105381081Y-129130404D01*
X105377178Y-129056689D01*
X105358768Y-129023925D01*
X105315799Y-129016031D01*
X105309572Y-129015990D01*
X105255234Y-129028062D01*
X105231968Y-129075300D01*
X105228779Y-129097066D01*
X105112048Y-129097066D01*
X105111604Y-129087983D01*
X105137844Y-128996711D01*
X105166923Y-128958449D01*
X105254768Y-128913867D01*
X105355519Y-128913035D01*
X105446103Y-128955224D01*
G37*
G36*
X108389377Y-128952448D02*
G01*
X108403211Y-128964821D01*
X108448728Y-129045905D01*
X108461016Y-129148119D01*
X108439416Y-129245646D01*
X108411490Y-129289462D01*
X108338269Y-129334536D01*
X108245785Y-129346710D01*
X108157227Y-129326587D01*
X108100045Y-129281360D01*
X108062800Y-129190756D01*
X108058219Y-129097066D01*
X108174950Y-129097066D01*
X108175729Y-129195012D01*
X108206947Y-129246116D01*
X108262766Y-129253976D01*
X108305015Y-129239011D01*
X108323545Y-129199022D01*
X108327252Y-129130404D01*
X108323349Y-129056689D01*
X108304939Y-129023925D01*
X108261971Y-129016031D01*
X108255743Y-129015990D01*
X108201405Y-129028062D01*
X108178139Y-129075300D01*
X108174950Y-129097066D01*
X108058219Y-129097066D01*
X108057775Y-129087983D01*
X108084015Y-128996711D01*
X108113094Y-128958449D01*
X108200014Y-128914381D01*
X108300178Y-128912558D01*
X108389377Y-128952448D01*
G37*
G36*
X103194558Y-129750925D02*
G01*
X103211339Y-129775508D01*
X103219250Y-129831066D01*
X103221469Y-129929530D01*
X103221509Y-129954855D01*
X103221509Y-130164329D01*
X103067711Y-130168375D01*
X102962198Y-130164795D01*
X102896374Y-130144646D01*
X102867486Y-130121120D01*
X102833874Y-130048413D01*
X102821206Y-129925983D01*
X102821058Y-129907600D01*
X102823476Y-129814808D01*
X102833778Y-129765827D01*
X102856538Y-129747357D01*
X102876838Y-129745382D01*
X102909140Y-129753245D01*
X102927740Y-129785529D01*
X102937742Y-129855278D01*
X102941196Y-129909853D01*
X102947923Y-130002591D01*
X102960119Y-130051801D01*
X102984440Y-130071148D01*
X103021284Y-130074323D01*
X103061831Y-130069977D01*
X103084382Y-130047829D01*
X103095590Y-129994211D01*
X103101371Y-129909853D01*
X103108942Y-129815817D01*
X103122493Y-129765938D01*
X103147127Y-129747173D01*
X103165729Y-129745382D01*
X103194558Y-129750925D01*
G37*
G36*
X103513899Y-129754234D02*
G01*
X103614321Y-129759830D01*
X103673731Y-129772759D01*
X103708302Y-129798834D01*
X103728004Y-129831193D01*
X103750275Y-129903903D01*
X103763246Y-130001483D01*
X103764556Y-130038569D01*
X103761491Y-130121678D01*
X103747629Y-130162104D01*
X103716984Y-130174166D01*
X103707770Y-130174436D01*
X103670580Y-130165016D01*
X103653979Y-130126793D01*
X103650563Y-130058141D01*
X103637613Y-129937917D01*
X103600591Y-129860453D01*
X103542238Y-129831286D01*
X103538202Y-129831193D01*
X103490965Y-129846595D01*
X103463111Y-129898284D01*
X103451310Y-129994481D01*
X103450338Y-130048059D01*
X103446449Y-130127600D01*
X103430364Y-130164842D01*
X103395460Y-130174421D01*
X103393130Y-130174436D01*
X103363788Y-130169332D01*
X103346618Y-130146087D01*
X103338422Y-130092804D01*
X103336001Y-129997583D01*
X103335923Y-129961610D01*
X103335923Y-129748784D01*
X103513899Y-129754234D01*
G37*
G36*
X103637231Y-129017261D02*
G01*
X103559901Y-129118645D01*
X103633836Y-129215578D01*
X103686389Y-129288142D01*
X103703570Y-129327104D01*
X103686875Y-129342604D01*
X103652949Y-129344931D01*
X103598980Y-129323235D01*
X103544149Y-129270797D01*
X103542434Y-129268477D01*
X103486741Y-129192023D01*
X103436646Y-129268477D01*
X103392464Y-129313674D01*
X103339263Y-129342301D01*
X103295303Y-129347686D01*
X103278716Y-129326179D01*
X103294560Y-129293568D01*
X103334053Y-129235299D01*
X103348857Y-129215467D01*
X103418997Y-129123508D01*
X103347475Y-129026843D01*
X103305376Y-128965060D01*
X103297537Y-128933970D01*
X103321000Y-128920823D01*
X103322791Y-128920440D01*
X103375039Y-128931789D01*
X103435635Y-128972712D01*
X103436472Y-128973495D01*
X103503314Y-129036290D01*
X103540914Y-128976083D01*
X103597432Y-128928044D01*
X103646537Y-128915877D01*
X103714560Y-128915877D01*
X103637231Y-129017261D01*
G37*
G36*
X104442801Y-128951431D02*
G01*
X104451095Y-128958449D01*
X104494249Y-129030128D01*
X104510186Y-129126403D01*
X104498527Y-129222894D01*
X104458894Y-129295221D01*
X104456362Y-129297593D01*
X104380248Y-129335184D01*
X104285211Y-129343183D01*
X104197084Y-129322018D01*
X104155559Y-129292623D01*
X104117520Y-129215221D01*
X104108154Y-129116074D01*
X104111833Y-129097066D01*
X104227653Y-129097066D01*
X104228431Y-129195012D01*
X104259649Y-129246116D01*
X104315469Y-129253976D01*
X104357718Y-129239011D01*
X104376248Y-129199022D01*
X104379955Y-129130404D01*
X104376052Y-129056689D01*
X104357642Y-129023925D01*
X104314673Y-129016031D01*
X104308446Y-129015990D01*
X104254108Y-129028062D01*
X104230842Y-129075300D01*
X104227653Y-129097066D01*
X104111833Y-129097066D01*
X104126693Y-129020295D01*
X104165797Y-128958449D01*
X104252463Y-128914750D01*
X104353262Y-128912411D01*
X104442801Y-128951431D01*
G37*
G36*
X109527215Y-129776303D02*
G01*
X109545780Y-129790889D01*
X109592943Y-129845544D01*
X109587811Y-129877677D01*
X109530191Y-129888396D01*
X109528603Y-129888400D01*
X109474859Y-129877933D01*
X109457094Y-129857807D01*
X109433399Y-129837504D01*
X109392736Y-129836354D01*
X109350505Y-129851394D01*
X109332026Y-129891604D01*
X109328378Y-129959517D01*
X109334797Y-130037814D01*
X109358494Y-130075138D01*
X109382804Y-130084021D01*
X109439852Y-130072064D01*
X109462885Y-130048659D01*
X109507498Y-130009128D01*
X109559598Y-130008354D01*
X109585166Y-130030375D01*
X109579567Y-130068013D01*
X109543949Y-130116185D01*
X109461634Y-130163726D01*
X109363927Y-130172696D01*
X109274175Y-130143123D01*
X109241280Y-130115806D01*
X109196788Y-130028344D01*
X109191416Y-129924424D01*
X109224549Y-129828740D01*
X109249200Y-129797545D01*
X109333705Y-129749518D01*
X109434506Y-129742255D01*
X109527215Y-129776303D01*
G37*
G36*
X111460216Y-128921034D02*
G01*
X111477397Y-128944477D01*
X111485537Y-128998164D01*
X111487887Y-129094054D01*
X111487950Y-129126354D01*
X111487950Y-129336831D01*
X111318464Y-129339235D01*
X111194223Y-129332905D01*
X111124341Y-129309584D01*
X111115623Y-129301448D01*
X111095318Y-129252649D01*
X111076794Y-129167250D01*
X111066379Y-129086027D01*
X111058734Y-128990122D01*
X111060624Y-128938661D01*
X111076026Y-128919153D01*
X111108913Y-128919105D01*
X111119051Y-128920488D01*
X111159618Y-128932497D01*
X111181759Y-128963814D01*
X111192687Y-129029496D01*
X111196310Y-129081839D01*
X111210814Y-129190304D01*
X111238553Y-129244781D01*
X111246730Y-129249510D01*
X111307025Y-129248700D01*
X111349871Y-129198000D01*
X111371588Y-129103047D01*
X111373536Y-129055393D01*
X111376705Y-128970899D01*
X111390087Y-128929261D01*
X111419499Y-128916300D01*
X111430743Y-128915877D01*
X111460216Y-128921034D01*
G37*
G36*
X101453797Y-129757132D02*
G01*
X101504691Y-129787562D01*
X101528728Y-129834551D01*
X101507451Y-129854270D01*
X101448012Y-129842256D01*
X101429553Y-129834470D01*
X101365450Y-129814456D01*
X101325571Y-129829949D01*
X101322169Y-129833399D01*
X101307503Y-129868009D01*
X101319369Y-129877721D01*
X101420296Y-129923344D01*
X101502193Y-129974201D01*
X101550300Y-130020502D01*
X101556694Y-130035097D01*
X101544248Y-130097470D01*
X101491519Y-130143717D01*
X101414046Y-130170223D01*
X101327370Y-130173374D01*
X101247029Y-130149554D01*
X101204727Y-130116977D01*
X101175566Y-130081684D01*
X101179639Y-130066124D01*
X101226093Y-130064126D01*
X101278953Y-130066920D01*
X101365241Y-130064157D01*
X101403633Y-130046600D01*
X101391024Y-130019561D01*
X101324789Y-129988513D01*
X101233830Y-129939919D01*
X101193495Y-129879949D01*
X101202355Y-129820481D01*
X101258980Y-129773394D01*
X101353359Y-129751117D01*
X101453797Y-129757132D01*
G37*
G36*
X107842437Y-128767502D02*
G01*
X107860380Y-128821216D01*
X107882934Y-128886119D01*
X107935601Y-128910932D01*
X107983460Y-128931880D01*
X107984208Y-128963763D01*
X107941433Y-128991017D01*
X107915815Y-128996736D01*
X107873858Y-129011429D01*
X107858945Y-129050175D01*
X107860848Y-129111150D01*
X107880335Y-129195273D01*
X107926498Y-129240931D01*
X107933953Y-129244451D01*
X107983437Y-129279252D01*
X107998311Y-129308809D01*
X107975035Y-129335633D01*
X107920119Y-129344221D01*
X107855925Y-129335210D01*
X107804818Y-129309234D01*
X107799016Y-129303148D01*
X107773673Y-129249488D01*
X107752740Y-129166556D01*
X107748409Y-129138677D01*
X107730185Y-129057786D01*
X107703637Y-129002335D01*
X107693774Y-128993116D01*
X107658554Y-128955785D01*
X107666139Y-128924111D01*
X107696073Y-128915877D01*
X107729646Y-128890700D01*
X107746129Y-128837462D01*
X107768763Y-128771855D01*
X107806212Y-128747775D01*
X107842437Y-128767502D01*
G37*
G36*
X111652421Y-128749558D02*
G01*
X111687007Y-128773722D01*
X111708395Y-128837315D01*
X111716779Y-128898026D01*
X111731081Y-129036998D01*
X111785570Y-128976438D01*
X111851474Y-128930886D01*
X111912747Y-128915877D01*
X111985434Y-128915877D01*
X111891803Y-129012479D01*
X111798173Y-129109081D01*
X111886192Y-129209330D01*
X111938412Y-129272276D01*
X111969962Y-129316999D01*
X111974212Y-129327255D01*
X111954058Y-129347386D01*
X111905271Y-129339350D01*
X111845360Y-129308792D01*
X111800541Y-129271242D01*
X111731313Y-129197552D01*
X111715641Y-129263941D01*
X111684965Y-129319361D01*
X111651167Y-129339728D01*
X111629430Y-129338361D01*
X111615250Y-129317905D01*
X111607059Y-129268870D01*
X111603287Y-129181768D01*
X111602365Y-129047109D01*
X111602365Y-129044594D01*
X111603208Y-128909302D01*
X111606817Y-128821661D01*
X111614812Y-128772127D01*
X111628812Y-128751155D01*
X111650435Y-128749201D01*
X111652421Y-128749558D01*
G37*
G36*
X99645414Y-128771581D02*
G01*
X99668686Y-128831923D01*
X99669411Y-128837462D01*
X99690939Y-128899264D01*
X99733769Y-128915877D01*
X99779086Y-128934261D01*
X99789076Y-128958783D01*
X99765230Y-128993725D01*
X99731869Y-129001688D01*
X99694778Y-129011036D01*
X99678153Y-129049028D01*
X99674662Y-129118781D01*
X99680863Y-129198676D01*
X99704185Y-129238591D01*
X99731869Y-129250833D01*
X99778355Y-129279565D01*
X99789076Y-129305362D01*
X99765780Y-129334967D01*
X99709389Y-129342917D01*
X99640152Y-129328231D01*
X99610304Y-129314037D01*
X99577079Y-129275650D01*
X99562127Y-129202318D01*
X99560248Y-129143285D01*
X99555567Y-129053845D01*
X99539389Y-129010424D01*
X99517342Y-129001688D01*
X99479385Y-128980364D01*
X99474437Y-128961843D01*
X99497509Y-128917686D01*
X99517342Y-128905534D01*
X99549646Y-128867533D01*
X99560248Y-128814565D01*
X99575081Y-128759522D01*
X99608841Y-128746321D01*
X99645414Y-128771581D01*
G37*
G36*
X100002572Y-128757741D02*
G01*
X100017315Y-128807916D01*
X100017905Y-128830067D01*
X100026895Y-128892877D01*
X100060345Y-128914992D01*
X100075112Y-128915877D01*
X100121702Y-128933762D01*
X100132320Y-128958783D01*
X100108473Y-128993725D01*
X100075112Y-129001688D01*
X100037616Y-129011335D01*
X100021093Y-129050280D01*
X100017905Y-129115558D01*
X100023216Y-129191649D01*
X100046092Y-129229897D01*
X100090660Y-129247687D01*
X100140784Y-129271649D01*
X100152812Y-129298289D01*
X100116357Y-129331017D01*
X100052843Y-129337835D01*
X99985955Y-129319251D01*
X99952055Y-129293977D01*
X99916529Y-129221506D01*
X99903491Y-129121001D01*
X99896975Y-129039614D01*
X99875163Y-129004738D01*
X99860585Y-129001688D01*
X99822664Y-128978792D01*
X99817680Y-128958783D01*
X99840576Y-128920861D01*
X99860585Y-128915877D01*
X99894648Y-128890294D01*
X99903491Y-128830067D01*
X99912481Y-128767256D01*
X99945931Y-128745141D01*
X99960698Y-128744256D01*
X100002572Y-128757741D01*
G37*
G36*
X105751896Y-128757741D02*
G01*
X105766639Y-128807916D01*
X105767230Y-128830067D01*
X105776220Y-128892877D01*
X105809669Y-128914992D01*
X105824437Y-128915877D01*
X105871026Y-128933762D01*
X105881644Y-128958783D01*
X105857797Y-128993725D01*
X105824437Y-129001688D01*
X105786940Y-129011335D01*
X105770417Y-129050280D01*
X105767230Y-129115558D01*
X105772540Y-129191649D01*
X105795416Y-129229897D01*
X105839984Y-129247687D01*
X105890108Y-129271649D01*
X105902137Y-129298289D01*
X105865681Y-129331017D01*
X105802167Y-129337835D01*
X105735279Y-129319251D01*
X105701379Y-129293977D01*
X105665853Y-129221506D01*
X105652815Y-129121001D01*
X105646299Y-129039614D01*
X105624487Y-129004738D01*
X105609910Y-129001688D01*
X105571988Y-128978792D01*
X105567004Y-128958783D01*
X105589901Y-128920861D01*
X105609910Y-128915877D01*
X105643973Y-128890294D01*
X105652815Y-128830067D01*
X105661805Y-128767256D01*
X105695255Y-128745141D01*
X105710022Y-128744256D01*
X105751896Y-128757741D01*
G37*
G36*
X107508367Y-128918880D02*
G01*
X107567588Y-128951128D01*
X107597338Y-128988128D01*
X107594183Y-129016415D01*
X107554691Y-129022521D01*
X107533502Y-129017495D01*
X107445516Y-128995772D01*
X107397096Y-128998529D01*
X107377229Y-129022086D01*
X107392370Y-129052798D01*
X107445659Y-129075984D01*
X107533419Y-129110803D01*
X107599286Y-129162108D01*
X107626422Y-129216617D01*
X107626464Y-129218605D01*
X107601372Y-129279435D01*
X107537316Y-129322627D01*
X107451122Y-129343191D01*
X107359616Y-129336136D01*
X107304673Y-129314037D01*
X107257425Y-129274813D01*
X107262166Y-129247955D01*
X107314099Y-129238907D01*
X107366096Y-129244323D01*
X107447333Y-129249058D01*
X107493052Y-129235193D01*
X107496520Y-129209662D01*
X107451001Y-129179396D01*
X107435111Y-129173273D01*
X107339784Y-129134118D01*
X107288693Y-129095910D01*
X107269999Y-129048272D01*
X107268919Y-129027560D01*
X107293441Y-128958916D01*
X107357184Y-128915966D01*
X107445408Y-128905400D01*
X107508367Y-128918880D01*
G37*
G36*
X105494464Y-129587245D02*
G01*
X105509207Y-129637420D01*
X105509797Y-129659571D01*
X105518787Y-129722382D01*
X105552237Y-129744497D01*
X105567004Y-129745382D01*
X105613594Y-129763267D01*
X105624212Y-129788287D01*
X105600365Y-129823229D01*
X105567004Y-129831193D01*
X105529667Y-129840721D01*
X105513103Y-129879289D01*
X105509797Y-129946315D01*
X105515840Y-130024852D01*
X105540932Y-130067224D01*
X105583027Y-130089280D01*
X105630393Y-130118241D01*
X105638546Y-130145779D01*
X105593842Y-130171047D01*
X105525381Y-130169887D01*
X105458982Y-130144420D01*
X105440331Y-130129487D01*
X105408485Y-130065581D01*
X105395454Y-129966325D01*
X105395383Y-129957866D01*
X105389590Y-129873770D01*
X105369956Y-129835921D01*
X105352477Y-129831193D01*
X105314556Y-129808296D01*
X105309572Y-129788287D01*
X105332468Y-129750366D01*
X105352477Y-129745382D01*
X105386540Y-129719798D01*
X105395383Y-129659571D01*
X105404373Y-129596760D01*
X105437823Y-129574646D01*
X105452590Y-129573760D01*
X105494464Y-129587245D01*
G37*
G36*
X110858282Y-129739711D02*
G01*
X110935020Y-129759949D01*
X110988626Y-129792814D01*
X111001689Y-129819689D01*
X110981301Y-129854372D01*
X110929950Y-129852816D01*
X110889868Y-129833401D01*
X110837170Y-129819836D01*
X110789282Y-129833135D01*
X110772860Y-129860142D01*
X110797510Y-129881683D01*
X110859735Y-129909510D01*
X110894426Y-129921440D01*
X110985446Y-129968018D01*
X111028952Y-130030690D01*
X111021000Y-130101580D01*
X111000382Y-130133105D01*
X110946810Y-130161304D01*
X110862971Y-130172448D01*
X110773468Y-130165659D01*
X110708502Y-130143541D01*
X110660890Y-130105089D01*
X110665559Y-130079500D01*
X110718376Y-130070148D01*
X110790811Y-130076366D01*
X110872231Y-130085200D01*
X110908317Y-130078477D01*
X110910649Y-130058636D01*
X110877002Y-130024209D01*
X110812515Y-129992006D01*
X110808149Y-129990483D01*
X110713338Y-129948949D01*
X110669766Y-129902270D01*
X110671526Y-129842555D01*
X110680488Y-129819868D01*
X110727863Y-129762996D01*
X110778395Y-129739295D01*
X110858282Y-129739711D01*
G37*
G36*
X100564132Y-128937475D02*
G01*
X100613573Y-129008086D01*
X100632744Y-129121452D01*
X100632883Y-129133732D01*
X100616088Y-129247424D01*
X100565093Y-129315483D01*
X100478980Y-129338808D01*
X100427165Y-129334738D01*
X100363831Y-129330061D01*
X100336652Y-129353172D01*
X100327052Y-129409154D01*
X100307917Y-129481167D01*
X100274036Y-129512310D01*
X100237795Y-129498080D01*
X100229405Y-129462724D01*
X100222799Y-129383566D01*
X100218854Y-129274005D01*
X100218130Y-129198017D01*
X100218130Y-129154738D01*
X100333636Y-129154738D01*
X100361019Y-129218430D01*
X100366869Y-129224796D01*
X100426683Y-129257301D01*
X100480088Y-129234149D01*
X100507722Y-129191230D01*
X100520667Y-129113943D01*
X100496886Y-129045546D01*
X100445324Y-129005459D01*
X100420410Y-129001688D01*
X100368312Y-129025612D01*
X100337727Y-129083547D01*
X100333636Y-129154738D01*
X100218130Y-129154738D01*
X100218130Y-128917619D01*
X100325394Y-128916437D01*
X100412272Y-128915345D01*
X100481971Y-128914249D01*
X100487420Y-128914143D01*
X100564132Y-128937475D01*
G37*
G36*
X99851575Y-129774958D02*
G01*
X99879572Y-129801272D01*
X99918954Y-129873150D01*
X99932094Y-129934474D01*
X99927090Y-129974834D01*
X99902437Y-129995126D01*
X99843678Y-130002146D01*
X99786693Y-130002814D01*
X99696154Y-130007456D01*
X99655944Y-130022495D01*
X99653831Y-130038569D01*
X99692314Y-130061952D01*
X99784544Y-130066246D01*
X99805565Y-130065074D01*
X99944758Y-130055825D01*
X99891088Y-130115131D01*
X99816948Y-130160846D01*
X99721878Y-130175007D01*
X99630451Y-130157064D01*
X99578983Y-130122127D01*
X99541902Y-130046721D01*
X99531653Y-129949178D01*
X99543718Y-129878048D01*
X99649633Y-129878048D01*
X99664413Y-129907114D01*
X99731869Y-129917004D01*
X99792134Y-129909729D01*
X99817674Y-129892202D01*
X99817680Y-129891902D01*
X99798110Y-129854625D01*
X99774775Y-129831193D01*
X99728993Y-129810004D01*
X99688964Y-129831193D01*
X99649633Y-129878048D01*
X99543718Y-129878048D01*
X99547706Y-129854536D01*
X99585976Y-129790889D01*
X99670220Y-129746706D01*
X99766325Y-129741664D01*
X99851575Y-129774958D01*
G37*
G36*
X100972242Y-128917677D02*
G01*
X100984847Y-128923233D01*
X101042417Y-128961148D01*
X101069359Y-128994537D01*
X101058449Y-129022088D01*
X101016281Y-129029312D01*
X100965330Y-129015522D01*
X100941434Y-128998460D01*
X100896979Y-128982581D01*
X100856848Y-129001738D01*
X100847410Y-129027641D01*
X100871489Y-129050914D01*
X100932014Y-129082669D01*
X100961824Y-129095161D01*
X101038582Y-129133399D01*
X101071797Y-129175866D01*
X101076239Y-129208194D01*
X101062591Y-129276099D01*
X101041914Y-129310607D01*
X100986260Y-129335009D01*
X100901362Y-129343058D01*
X100812888Y-129334447D01*
X100754448Y-129314037D01*
X100706992Y-129275527D01*
X100711790Y-129249774D01*
X100764625Y-129240413D01*
X100833108Y-129246314D01*
X100923024Y-129251819D01*
X100960400Y-129236907D01*
X100943976Y-129206520D01*
X100872489Y-129165600D01*
X100855563Y-129158282D01*
X100783169Y-129122737D01*
X100735840Y-129089808D01*
X100730353Y-129083223D01*
X100718061Y-129020967D01*
X100749517Y-128964852D01*
X100811308Y-128923310D01*
X100890021Y-128904775D01*
X100972242Y-128917677D01*
G37*
G36*
X101004499Y-129763223D02*
G01*
X101066664Y-129819925D01*
X101098620Y-129920253D01*
X101104842Y-130019431D01*
X101104842Y-130166336D01*
X100937267Y-130168712D01*
X100841015Y-130164735D01*
X100766544Y-130151986D01*
X100737042Y-130138438D01*
X100702308Y-130072166D01*
X100706427Y-130048780D01*
X100818806Y-130048780D01*
X100838873Y-130082191D01*
X100884800Y-130085983D01*
X100935172Y-130062755D01*
X100961824Y-130031418D01*
X100977837Y-129987239D01*
X100955418Y-129974299D01*
X100950868Y-129974211D01*
X100873001Y-129988584D01*
X100825612Y-130025129D01*
X100818806Y-130048780D01*
X100706427Y-130048780D01*
X100714261Y-130004295D01*
X100764485Y-129948592D01*
X100844562Y-129918821D01*
X100872445Y-129917004D01*
X100932198Y-129900703D01*
X100954828Y-129862158D01*
X100936449Y-129822980D01*
X100897155Y-129807136D01*
X100870293Y-129825472D01*
X100824166Y-129851432D01*
X100771144Y-129859263D01*
X100736278Y-129846878D01*
X100732995Y-129836913D01*
X100758964Y-129787561D01*
X100828007Y-129754881D01*
X100908716Y-129745382D01*
X101004499Y-129763223D01*
G37*
G36*
X104223666Y-129579992D02*
G01*
X104238236Y-129599480D01*
X104246571Y-129647155D01*
X104250346Y-129732661D01*
X104251239Y-129865639D01*
X104251239Y-129866947D01*
X104251239Y-130164329D01*
X104097441Y-130168375D01*
X103991928Y-130164795D01*
X103926104Y-130144646D01*
X103897215Y-130121120D01*
X103862717Y-130049360D01*
X103851337Y-129952963D01*
X103854558Y-129926571D01*
X103970220Y-129926571D01*
X103970999Y-130024517D01*
X104002217Y-130075620D01*
X104058036Y-130083480D01*
X104100286Y-130068515D01*
X104118815Y-130028527D01*
X104122522Y-129959909D01*
X104118619Y-129886194D01*
X104100209Y-129853430D01*
X104057241Y-129845535D01*
X104051013Y-129845495D01*
X103996676Y-129857566D01*
X103973409Y-129904804D01*
X103970220Y-129926571D01*
X103854558Y-129926571D01*
X103862989Y-129857487D01*
X103897589Y-129788488D01*
X103898325Y-129787742D01*
X103973750Y-129751810D01*
X104039971Y-129751191D01*
X104104810Y-129753559D01*
X104132865Y-129730240D01*
X104142603Y-129675354D01*
X104165537Y-129603132D01*
X104201182Y-129579048D01*
X104223666Y-129579992D01*
G37*
G36*
X106535011Y-129770123D02*
G01*
X106580810Y-129808954D01*
X106615263Y-129882134D01*
X106625338Y-129937670D01*
X106619784Y-129976208D01*
X106593542Y-129995586D01*
X106532240Y-130002242D01*
X106479936Y-130002814D01*
X106389397Y-130007456D01*
X106349187Y-130022495D01*
X106347074Y-130038569D01*
X106385557Y-130061952D01*
X106477788Y-130066246D01*
X106498808Y-130065074D01*
X106638002Y-130055825D01*
X106584331Y-130115131D01*
X106510191Y-130160846D01*
X106415121Y-130175007D01*
X106323694Y-130157064D01*
X106272226Y-130122127D01*
X106235758Y-130047977D01*
X106224986Y-129951440D01*
X106236350Y-129878048D01*
X106342876Y-129878048D01*
X106357656Y-129907114D01*
X106425112Y-129917004D01*
X106485378Y-129909729D01*
X106510917Y-129892202D01*
X106510923Y-129891902D01*
X106491354Y-129854625D01*
X106468018Y-129831193D01*
X106422237Y-129810004D01*
X106382207Y-129831193D01*
X106342876Y-129878048D01*
X106236350Y-129878048D01*
X106239533Y-129857493D01*
X106277196Y-129792721D01*
X106355271Y-129752983D01*
X106449041Y-129745869D01*
X106535011Y-129770123D01*
G37*
G36*
X102470664Y-129579206D02*
G01*
X102493732Y-129590245D01*
X102508490Y-129619625D01*
X102516714Y-129677810D01*
X102520177Y-129775263D01*
X102520721Y-129874340D01*
X102520721Y-130159835D01*
X102357876Y-130167142D01*
X102260771Y-130168267D01*
X102202469Y-130157401D01*
X102165008Y-130129671D01*
X102150500Y-130110871D01*
X102119779Y-130038231D01*
X102111472Y-129984243D01*
X102221474Y-129984243D01*
X102248857Y-130047934D01*
X102254707Y-130054301D01*
X102314521Y-130086806D01*
X102367926Y-130063654D01*
X102395560Y-130020734D01*
X102408505Y-129943447D01*
X102384723Y-129875050D01*
X102333162Y-129834963D01*
X102308247Y-129831193D01*
X102256150Y-129855117D01*
X102225565Y-129913052D01*
X102221474Y-129984243D01*
X102111472Y-129984243D01*
X102106021Y-129948814D01*
X102105968Y-129943676D01*
X102126849Y-129837031D01*
X102187258Y-129770953D01*
X102283851Y-129748472D01*
X102319219Y-129750662D01*
X102386615Y-129754956D01*
X102414649Y-129736572D01*
X102420562Y-129681118D01*
X102420608Y-129666032D01*
X102426821Y-129600162D01*
X102450333Y-129577944D01*
X102470664Y-129579206D01*
G37*
G36*
X103161398Y-128748076D02*
G01*
X103177991Y-128766336D01*
X103187453Y-128809232D01*
X103191760Y-128886961D01*
X103192887Y-129009721D01*
X103192905Y-129039540D01*
X103192905Y-129334824D01*
X103039107Y-129338871D01*
X102933594Y-129335290D01*
X102867771Y-129315142D01*
X102838882Y-129291616D01*
X102806963Y-129224242D01*
X102792878Y-129128144D01*
X102794834Y-129097066D01*
X102911887Y-129097066D01*
X102913593Y-129195778D01*
X102944051Y-129249681D01*
X103000038Y-129255451D01*
X103044858Y-129234230D01*
X103070285Y-129188001D01*
X103073462Y-129113103D01*
X103060293Y-129046106D01*
X103029255Y-129019509D01*
X102992680Y-129015990D01*
X102938342Y-129028062D01*
X102915076Y-129075300D01*
X102911887Y-129097066D01*
X102794834Y-129097066D01*
X102799073Y-129029700D01*
X102810658Y-128987535D01*
X102858002Y-128933724D01*
X102933524Y-128905347D01*
X103010657Y-128911236D01*
X103023156Y-128916880D01*
X103059893Y-128930434D01*
X103075373Y-128909565D01*
X103078491Y-128845375D01*
X103084752Y-128775953D01*
X103109263Y-128747731D01*
X103135698Y-128744256D01*
X103161398Y-128748076D01*
G37*
G36*
X104673142Y-128749544D02*
G01*
X104715732Y-128785568D01*
X104732164Y-128851789D01*
X104742584Y-128912944D01*
X104764159Y-128928133D01*
X104794649Y-128915908D01*
X104867988Y-128903420D01*
X104945395Y-128926512D01*
X104999847Y-128975996D01*
X105005333Y-128987535D01*
X105017518Y-129047134D01*
X105023430Y-129130739D01*
X105023536Y-129142612D01*
X105008659Y-129242253D01*
X104959635Y-129304428D01*
X104869877Y-129334284D01*
X104772629Y-129338580D01*
X104623085Y-129335173D01*
X104623085Y-129097066D01*
X104742518Y-129097066D01*
X104745058Y-129190326D01*
X104772632Y-129247280D01*
X104817661Y-129261222D01*
X104872567Y-129225443D01*
X104879082Y-129217945D01*
X104901489Y-129160179D01*
X104904037Y-129096380D01*
X104886326Y-129036656D01*
X104841671Y-129016700D01*
X104823311Y-129015990D01*
X104768973Y-129028062D01*
X104745707Y-129075300D01*
X104742518Y-129097066D01*
X104623085Y-129097066D01*
X104623085Y-129037617D01*
X104623960Y-128904165D01*
X104627702Y-128818267D01*
X104635985Y-128770282D01*
X104650485Y-128750572D01*
X104672877Y-128749494D01*
X104673142Y-128749544D01*
G37*
G36*
X111426963Y-129774195D02*
G01*
X111483193Y-129841291D01*
X111510161Y-129923339D01*
X111492919Y-129974197D01*
X111427704Y-129998711D01*
X111357748Y-130002814D01*
X111272658Y-130008165D01*
X111238327Y-130025321D01*
X111238367Y-130038569D01*
X111275684Y-130062215D01*
X111359051Y-130067239D01*
X111369467Y-130066653D01*
X111451539Y-130069665D01*
X111485588Y-130089450D01*
X111468176Y-130121753D01*
X111432624Y-130144826D01*
X111342149Y-130171547D01*
X111248210Y-130166862D01*
X111175644Y-130132687D01*
X111167476Y-130124380D01*
X111112447Y-130019695D01*
X111109338Y-129900532D01*
X111120346Y-129859921D01*
X111124976Y-129853194D01*
X111229144Y-129853194D01*
X111237283Y-129888325D01*
X111282514Y-129913201D01*
X111316329Y-129917004D01*
X111376584Y-129909008D01*
X111402133Y-129889745D01*
X111402139Y-129889406D01*
X111378270Y-129853247D01*
X111325240Y-129826159D01*
X111270919Y-129821735D01*
X111266272Y-129823140D01*
X111229144Y-129853194D01*
X111124976Y-129853194D01*
X111172763Y-129783770D01*
X111252980Y-129743501D01*
X111343535Y-129740010D01*
X111426963Y-129774195D01*
G37*
G36*
X104671065Y-129768943D02*
G01*
X104732629Y-129841055D01*
X104732742Y-129841291D01*
X104759710Y-129923339D01*
X104742468Y-129974197D01*
X104677253Y-129998711D01*
X104607298Y-130002814D01*
X104522207Y-130008165D01*
X104487877Y-130025321D01*
X104487917Y-130038569D01*
X104525234Y-130062215D01*
X104608600Y-130067239D01*
X104619016Y-130066653D01*
X104701089Y-130069665D01*
X104735138Y-130089450D01*
X104717726Y-130121753D01*
X104682173Y-130144826D01*
X104591855Y-130171532D01*
X104498110Y-130166928D01*
X104425724Y-130132930D01*
X104417339Y-130124380D01*
X104358832Y-130025933D01*
X104353649Y-129920970D01*
X104366339Y-129872021D01*
X104378014Y-129853643D01*
X104480978Y-129853643D01*
X104487093Y-129889552D01*
X104533626Y-129913858D01*
X104565878Y-129917004D01*
X104626181Y-129913445D01*
X104651684Y-129904875D01*
X104651689Y-129904745D01*
X104628637Y-129865944D01*
X104578277Y-129831471D01*
X104528802Y-129819515D01*
X104522145Y-129821167D01*
X104480978Y-129853643D01*
X104378014Y-129853643D01*
X104418260Y-129790293D01*
X104497365Y-129744947D01*
X104587139Y-129737368D01*
X104671065Y-129768943D01*
G37*
G36*
X99084921Y-128755549D02*
G01*
X99100788Y-128799549D01*
X99102590Y-128843660D01*
X99106188Y-128908778D01*
X99124237Y-128929509D01*
X99166948Y-128918821D01*
X99260829Y-128907518D01*
X99336593Y-128945495D01*
X99388875Y-129026263D01*
X99412310Y-129143335D01*
X99411455Y-129214547D01*
X99400400Y-129290903D01*
X99376846Y-129324633D01*
X99345721Y-129330630D01*
X99311617Y-129322212D01*
X99291183Y-129288158D01*
X99278420Y-129215266D01*
X99274212Y-129173310D01*
X99263737Y-129083018D01*
X99248454Y-129035983D01*
X99220790Y-129018318D01*
X99188401Y-129015990D01*
X99147853Y-129020336D01*
X99125302Y-129042485D01*
X99114094Y-129096102D01*
X99108313Y-129180461D01*
X99100742Y-129274497D01*
X99087191Y-129324375D01*
X99062558Y-129343140D01*
X99043955Y-129344931D01*
X99019051Y-129340844D01*
X99002896Y-129321854D01*
X98993618Y-129277876D01*
X98989342Y-129198819D01*
X98988194Y-129074596D01*
X98988176Y-129044594D01*
X98988893Y-128910609D01*
X98992329Y-128823712D01*
X99000411Y-128773788D01*
X99015064Y-128750724D01*
X99038216Y-128744405D01*
X99045383Y-128744256D01*
X99084921Y-128755549D01*
G37*
G36*
X101958186Y-129780397D02*
G01*
X102012098Y-129857561D01*
X102015856Y-129869710D01*
X102029504Y-129938027D01*
X102029082Y-129980297D01*
X102028572Y-129981362D01*
X101995568Y-129993796D01*
X101924645Y-130001538D01*
X101876349Y-130002814D01*
X101792768Y-130005803D01*
X101754869Y-130017572D01*
X101751309Y-130042320D01*
X101753393Y-130048357D01*
X101776910Y-130076079D01*
X101827731Y-130082687D01*
X101895513Y-130075208D01*
X101979571Y-130070526D01*
X102018977Y-130085036D01*
X102009375Y-130114360D01*
X101964831Y-130144826D01*
X101866464Y-130172508D01*
X101763180Y-130163665D01*
X101680571Y-130120750D01*
X101676914Y-130117229D01*
X101631315Y-130037307D01*
X101623411Y-129941432D01*
X101642160Y-129872844D01*
X101738836Y-129872844D01*
X101747155Y-129902384D01*
X101805592Y-129916669D01*
X101819932Y-129917004D01*
X101886693Y-129904829D01*
X101905743Y-129876482D01*
X101883807Y-129831803D01*
X101829578Y-129821293D01*
X101784178Y-129836064D01*
X101738836Y-129872844D01*
X101642160Y-129872844D01*
X101648983Y-129847885D01*
X101703811Y-129774946D01*
X101762954Y-129744416D01*
X101870621Y-129740445D01*
X101958186Y-129780397D01*
G37*
G36*
X106292765Y-128755323D02*
G01*
X106308732Y-128798649D01*
X106310698Y-128845375D01*
X106314040Y-128910719D01*
X106329993Y-128930469D01*
X106366032Y-128916880D01*
X106446401Y-128899969D01*
X106518722Y-128929308D01*
X106574714Y-128993940D01*
X106606094Y-129082908D01*
X106604581Y-129185256D01*
X106595383Y-129220310D01*
X106566590Y-129283831D01*
X106523102Y-129320633D01*
X106451072Y-129336956D01*
X106336656Y-129339039D01*
X106332151Y-129338941D01*
X106196284Y-129335871D01*
X106196284Y-129096380D01*
X106315782Y-129096380D01*
X106323569Y-129179601D01*
X106361116Y-129236911D01*
X106418314Y-129253492D01*
X106422482Y-129252805D01*
X106454857Y-129225893D01*
X106467523Y-129155616D01*
X106468018Y-129130013D01*
X106464083Y-129056458D01*
X106445547Y-129023830D01*
X106402310Y-129016025D01*
X106396509Y-129015990D01*
X106341982Y-129028202D01*
X106318769Y-129075830D01*
X106315782Y-129096380D01*
X106196284Y-129096380D01*
X106196284Y-129040063D01*
X106197021Y-128907273D01*
X106200548Y-128821495D01*
X106208834Y-128772541D01*
X106223851Y-128750223D01*
X106247567Y-128744353D01*
X106253491Y-128744256D01*
X106292765Y-128755323D01*
G37*
G36*
X109995799Y-129780397D02*
G01*
X110049711Y-129857561D01*
X110053469Y-129869710D01*
X110067116Y-129938027D01*
X110066694Y-129980297D01*
X110066185Y-129981362D01*
X110033181Y-129993796D01*
X109962258Y-130001538D01*
X109913962Y-130002814D01*
X109830381Y-130005803D01*
X109792481Y-130017572D01*
X109788921Y-130042320D01*
X109791006Y-130048357D01*
X109814523Y-130076079D01*
X109865344Y-130082687D01*
X109933126Y-130075208D01*
X110017183Y-130070526D01*
X110056589Y-130085036D01*
X110046987Y-130114360D01*
X110002443Y-130144826D01*
X109904077Y-130172508D01*
X109800792Y-130163665D01*
X109718184Y-130120750D01*
X109714527Y-130117229D01*
X109668928Y-130037307D01*
X109661024Y-129941432D01*
X109679772Y-129872844D01*
X109776449Y-129872844D01*
X109784767Y-129902384D01*
X109843205Y-129916669D01*
X109857545Y-129917004D01*
X109924306Y-129904829D01*
X109943356Y-129876482D01*
X109921419Y-129831803D01*
X109867191Y-129821293D01*
X109821790Y-129836064D01*
X109776449Y-129872844D01*
X109679772Y-129872844D01*
X109686595Y-129847885D01*
X109741424Y-129774946D01*
X109800566Y-129744416D01*
X109908234Y-129740445D01*
X109995799Y-129780397D01*
G37*
G36*
X105806767Y-129585054D02*
G01*
X105822634Y-129629053D01*
X105824437Y-129673165D01*
X105828035Y-129738282D01*
X105846084Y-129759014D01*
X105888795Y-129748325D01*
X105983838Y-129735879D01*
X106058956Y-129774330D01*
X106110997Y-129859882D01*
X106136803Y-129988736D01*
X106139076Y-130049571D01*
X106136268Y-130128526D01*
X106122816Y-130164376D01*
X106091185Y-130171142D01*
X106074718Y-130169274D01*
X106033708Y-130154695D01*
X106012753Y-130115598D01*
X106003591Y-130036029D01*
X106003333Y-130031418D01*
X105994221Y-129924730D01*
X105977993Y-129863588D01*
X105949471Y-129836365D01*
X105914206Y-129831193D01*
X105866109Y-129846089D01*
X105837730Y-129896427D01*
X105825560Y-129990682D01*
X105824437Y-130048059D01*
X105820548Y-130127600D01*
X105804463Y-130164842D01*
X105769559Y-130174421D01*
X105767230Y-130174436D01*
X105741709Y-130170670D01*
X105725157Y-130152630D01*
X105715648Y-130110202D01*
X105711254Y-130033271D01*
X105710051Y-129911723D01*
X105710022Y-129874098D01*
X105710740Y-129740113D01*
X105714176Y-129653216D01*
X105722257Y-129603293D01*
X105736911Y-129580228D01*
X105760063Y-129573909D01*
X105767230Y-129573760D01*
X105806767Y-129585054D01*
G37*
G36*
X100466185Y-129742680D02*
G01*
X100553101Y-129781457D01*
X100611067Y-129851913D01*
X100615380Y-129862910D01*
X100632479Y-129931363D01*
X100631639Y-129976028D01*
X100630852Y-129977496D01*
X100595442Y-129992208D01*
X100522792Y-130001340D01*
X100474773Y-130002814D01*
X100391191Y-130005803D01*
X100353292Y-130017572D01*
X100349732Y-130042320D01*
X100351817Y-130048357D01*
X100375334Y-130076079D01*
X100426155Y-130082687D01*
X100493937Y-130075208D01*
X100577938Y-130068745D01*
X100616800Y-130080135D01*
X100618581Y-130085866D01*
X100593313Y-130125406D01*
X100530407Y-130155649D01*
X100449210Y-130172342D01*
X100369068Y-130171230D01*
X100315374Y-130152545D01*
X100261656Y-130087672D01*
X100232770Y-129994849D01*
X100230564Y-129895524D01*
X100231639Y-129892079D01*
X100339097Y-129892079D01*
X100347288Y-129911863D01*
X100406309Y-129916958D01*
X100418356Y-129917004D01*
X100484633Y-129905036D01*
X100504166Y-129877158D01*
X100482814Y-129832597D01*
X100433730Y-129820474D01*
X100379374Y-129845779D01*
X100376278Y-129848753D01*
X100339097Y-129892079D01*
X100231639Y-129892079D01*
X100256887Y-129811147D01*
X100283245Y-129779651D01*
X100369754Y-129740454D01*
X100466185Y-129742680D01*
G37*
G36*
X106996857Y-129599453D02*
G01*
X107045938Y-129656813D01*
X107099548Y-129740660D01*
X107191180Y-129893257D01*
X107272955Y-129740660D01*
X107331519Y-129641317D01*
X107375907Y-129591687D01*
X107408016Y-129593286D01*
X107429744Y-129647632D01*
X107442986Y-129756242D01*
X107448692Y-129881249D01*
X107451703Y-130013153D01*
X107450740Y-130098152D01*
X107444052Y-130146503D01*
X107429887Y-130168465D01*
X107406493Y-130174296D01*
X107398636Y-130174436D01*
X107366617Y-130168568D01*
X107348873Y-130142371D01*
X107341116Y-130082957D01*
X107339164Y-129995663D01*
X107337899Y-129816891D01*
X107281273Y-129924154D01*
X107237134Y-129990687D01*
X107194702Y-130028292D01*
X107183108Y-130031418D01*
X107145053Y-130008138D01*
X107099708Y-129949831D01*
X107084943Y-129924154D01*
X107028316Y-129816891D01*
X107027052Y-129995663D01*
X107024447Y-130093874D01*
X107015536Y-130147801D01*
X106996032Y-130170336D01*
X106967580Y-130174436D01*
X106941485Y-130171131D01*
X106925075Y-130154378D01*
X106916601Y-130113919D01*
X106914310Y-130039494D01*
X106916451Y-129920847D01*
X106917524Y-129881249D01*
X106924939Y-129730153D01*
X106938922Y-129634142D01*
X106962040Y-129591236D01*
X106996857Y-129599453D01*
G37*
G36*
X99167663Y-129591427D02*
G01*
X99293220Y-129603156D01*
X99373705Y-129633768D01*
X99389341Y-129645916D01*
X99436981Y-129723528D01*
X99439085Y-129814657D01*
X99397980Y-129893867D01*
X99370800Y-129930446D01*
X99368743Y-129967069D01*
X99393739Y-130023671D01*
X99414112Y-130060590D01*
X99478097Y-130174436D01*
X99411909Y-130174359D01*
X99353097Y-130153722D01*
X99299193Y-130086340D01*
X99288458Y-130067095D01*
X99231203Y-129986313D01*
X99177633Y-129956312D01*
X99134873Y-129977089D01*
X99110049Y-130048641D01*
X99108014Y-130067172D01*
X99095295Y-130140327D01*
X99067808Y-130170768D01*
X99042655Y-130174436D01*
X99017328Y-130170784D01*
X99001434Y-130153004D01*
X98993284Y-130110862D01*
X98991194Y-130034123D01*
X98993474Y-129912552D01*
X98994326Y-129881249D01*
X98997308Y-129773986D01*
X99102590Y-129773986D01*
X99109792Y-129834858D01*
X99142973Y-129857273D01*
X99184898Y-129859796D01*
X99257364Y-129845818D01*
X99302513Y-129817255D01*
X99327884Y-129757993D01*
X99302513Y-129712773D01*
X99232549Y-129689619D01*
X99203600Y-129688175D01*
X99135945Y-129692850D01*
X99108037Y-129716666D01*
X99102590Y-129773986D01*
X98997308Y-129773986D01*
X99002477Y-129588062D01*
X99167663Y-129591427D01*
G37*
G36*
X103861905Y-125550082D02*
G01*
X103922485Y-125568700D01*
X103930878Y-125574977D01*
X103942145Y-125604431D01*
X103950955Y-125670454D01*
X103957489Y-125777191D01*
X103961922Y-125928790D01*
X103964434Y-126129399D01*
X103965203Y-126375151D01*
X103965203Y-127141001D01*
X104415709Y-127148879D01*
X104866216Y-127156756D01*
X104875113Y-127297006D01*
X104873054Y-127403507D01*
X104850314Y-127458215D01*
X104846510Y-127461039D01*
X104808623Y-127467519D01*
X104724058Y-127472921D01*
X104603333Y-127477199D01*
X104456967Y-127480303D01*
X104295481Y-127482186D01*
X104129392Y-127482798D01*
X103969221Y-127482093D01*
X103825486Y-127480021D01*
X103708706Y-127476535D01*
X103629401Y-127471586D01*
X103600507Y-127466754D01*
X103590219Y-127449724D01*
X103581950Y-127404704D01*
X103575526Y-127327047D01*
X103570772Y-127212108D01*
X103567515Y-127055240D01*
X103565579Y-126851798D01*
X103564791Y-126597137D01*
X103564752Y-126513851D01*
X103565007Y-126254836D01*
X103565950Y-126047315D01*
X103567854Y-125885575D01*
X103570987Y-125763905D01*
X103575621Y-125676592D01*
X103582026Y-125617925D01*
X103590472Y-125582191D01*
X103601229Y-125563678D01*
X103609997Y-125558014D01*
X103682340Y-125543507D01*
X103774083Y-125541274D01*
X103861905Y-125550082D01*
G37*
G36*
X109857385Y-128903606D02*
G01*
X109931128Y-128929020D01*
X109974601Y-128970942D01*
X109995261Y-129042700D01*
X110000562Y-129157621D01*
X110000563Y-129159552D01*
X110000563Y-129339015D01*
X109844196Y-129340883D01*
X109719300Y-129332030D01*
X109647047Y-129301791D01*
X109643970Y-129298892D01*
X109608134Y-129247564D01*
X109603242Y-129229904D01*
X109714527Y-129229904D01*
X109736829Y-129254043D01*
X109787435Y-129258305D01*
X109841899Y-129244947D01*
X109875772Y-129216223D01*
X109876278Y-129214982D01*
X109881916Y-129167106D01*
X109875501Y-129153128D01*
X109838532Y-129150068D01*
X109782411Y-129170514D01*
X109732691Y-129202277D01*
X109714527Y-129229904D01*
X109603242Y-129229904D01*
X109600112Y-129218605D01*
X109623917Y-129165258D01*
X109680183Y-129115551D01*
X109746193Y-129088213D01*
X109759685Y-129087061D01*
X109829756Y-129072188D01*
X109857545Y-129058457D01*
X109886069Y-129031532D01*
X109863269Y-129005942D01*
X109857545Y-129002126D01*
X109800248Y-128975384D01*
X109764511Y-128991567D01*
X109757432Y-129001688D01*
X109721869Y-129025416D01*
X109674153Y-129029158D01*
X109639313Y-129014386D01*
X109635742Y-128994537D01*
X109677246Y-128946114D01*
X109751029Y-128911247D01*
X109832266Y-128900121D01*
X109857385Y-128903606D01*
G37*
G36*
X102436485Y-128912890D02*
G01*
X102530254Y-128915253D01*
X102599380Y-128916720D01*
X102678040Y-128918180D01*
X102678040Y-129172418D01*
X102675214Y-129308012D01*
X102665639Y-129397582D01*
X102647669Y-129452084D01*
X102633092Y-129471605D01*
X102563513Y-129506978D01*
X102470210Y-129515733D01*
X102379656Y-129498503D01*
X102324929Y-129464245D01*
X102288528Y-129417063D01*
X102277590Y-129392736D01*
X102299837Y-129374907D01*
X102352137Y-129379381D01*
X102412829Y-129403998D01*
X102417207Y-129406653D01*
X102482215Y-129425765D01*
X102538067Y-129409459D01*
X102563528Y-129364378D01*
X102563626Y-129360846D01*
X102548579Y-129331992D01*
X102495568Y-129331605D01*
X102480795Y-129334324D01*
X102390174Y-129327787D01*
X102321599Y-129274180D01*
X102283081Y-129181888D01*
X102277590Y-129121570D01*
X102283262Y-129082428D01*
X102396893Y-129082428D01*
X102398690Y-129173082D01*
X102434861Y-129220137D01*
X102484838Y-129225372D01*
X102529443Y-129208247D01*
X102547222Y-129162627D01*
X102549324Y-129116103D01*
X102543981Y-129048401D01*
X102519939Y-129020685D01*
X102477815Y-129015990D01*
X102419213Y-129031454D01*
X102396893Y-129082428D01*
X102283262Y-129082428D01*
X102294363Y-129005814D01*
X102344760Y-128936275D01*
X102428895Y-128912800D01*
X102436485Y-128912890D01*
G37*
G36*
X108929503Y-128912890D02*
G01*
X109023272Y-128915253D01*
X109092398Y-128916720D01*
X109171058Y-128918180D01*
X109171058Y-129172418D01*
X109168232Y-129308012D01*
X109158657Y-129397582D01*
X109140687Y-129452084D01*
X109126110Y-129471605D01*
X109056531Y-129506978D01*
X108963228Y-129515733D01*
X108872674Y-129498503D01*
X108817947Y-129464245D01*
X108781546Y-129417063D01*
X108770608Y-129392736D01*
X108792855Y-129374907D01*
X108845155Y-129379381D01*
X108905847Y-129403998D01*
X108910225Y-129406653D01*
X108975233Y-129425765D01*
X109031085Y-129409459D01*
X109056546Y-129364378D01*
X109056644Y-129360846D01*
X109041597Y-129331992D01*
X108988586Y-129331605D01*
X108973813Y-129334324D01*
X108883192Y-129327787D01*
X108814617Y-129274180D01*
X108776099Y-129181888D01*
X108770608Y-129121570D01*
X108776280Y-129082428D01*
X108889911Y-129082428D01*
X108891708Y-129173082D01*
X108927879Y-129220137D01*
X108977856Y-129225372D01*
X109022461Y-129208247D01*
X109040240Y-129162627D01*
X109042342Y-129116103D01*
X109036999Y-129048401D01*
X109012957Y-129020685D01*
X108970833Y-129015990D01*
X108912231Y-129031454D01*
X108889911Y-129082428D01*
X108776280Y-129082428D01*
X108787381Y-129005814D01*
X108837778Y-128936275D01*
X108921913Y-128912800D01*
X108929503Y-128912890D01*
G37*
G36*
X100298380Y-126047447D02*
G01*
X100361008Y-126101584D01*
X100437610Y-126178134D01*
X100517383Y-126265904D01*
X100589524Y-126353701D01*
X100630179Y-126409903D01*
X100690011Y-126529975D01*
X100701548Y-126644545D01*
X100663172Y-126760411D01*
X100573268Y-126884373D01*
X100499310Y-126960341D01*
X100368565Y-127070151D01*
X100254362Y-127130433D01*
X100148589Y-127143281D01*
X100043134Y-127110792D01*
X100003603Y-127088348D01*
X99942943Y-127042253D01*
X99859217Y-126968466D01*
X99768341Y-126881171D01*
X99748029Y-126860599D01*
X99623284Y-126732846D01*
X99899811Y-126732846D01*
X100002759Y-126823236D01*
X100068944Y-126876543D01*
X100119801Y-126909008D01*
X100133954Y-126913625D01*
X100168461Y-126895535D01*
X100229717Y-126848504D01*
X100292140Y-126793852D01*
X100386857Y-126702508D01*
X100441131Y-126634670D01*
X100459094Y-126577987D01*
X100444875Y-126520104D01*
X100405904Y-126453633D01*
X100357841Y-126387416D01*
X100320459Y-126347184D01*
X100309919Y-126341553D01*
X100281629Y-126360623D01*
X100223408Y-126411885D01*
X100145101Y-126486418D01*
X100093958Y-126537200D01*
X99899811Y-126732846D01*
X99623284Y-126732846D01*
X99578265Y-126686742D01*
X99903766Y-126356828D01*
X100015406Y-126245541D01*
X100114482Y-126150280D01*
X100193554Y-126077924D01*
X100245184Y-126035353D01*
X100260529Y-126026913D01*
X100298380Y-126047447D01*
G37*
G36*
X110632894Y-128903868D02*
G01*
X110672748Y-128927549D01*
X110711799Y-128959112D01*
X110733369Y-128999981D01*
X110742502Y-129066679D01*
X110744257Y-129161765D01*
X110742385Y-129262719D01*
X110734599Y-129318091D01*
X110717645Y-129339444D01*
X110694200Y-129339600D01*
X110664062Y-129321497D01*
X110646232Y-129273187D01*
X110636524Y-129182155D01*
X110635512Y-129164086D01*
X110628769Y-129071073D01*
X110617114Y-129022564D01*
X110594766Y-129005859D01*
X110564003Y-129007044D01*
X110527758Y-129019029D01*
X110507242Y-129051341D01*
X110496606Y-129118179D01*
X110492548Y-129180461D01*
X110484860Y-129274749D01*
X110471100Y-129324746D01*
X110446329Y-129343357D01*
X110429617Y-129344931D01*
X110398020Y-129336550D01*
X110379738Y-129302802D01*
X110369831Y-129230784D01*
X110366686Y-129180461D01*
X110359221Y-129086642D01*
X110345859Y-129036869D01*
X110321337Y-129017981D01*
X110300901Y-129015990D01*
X110266773Y-129024423D01*
X110246331Y-129058527D01*
X110233562Y-129131510D01*
X110229392Y-129173062D01*
X110215839Y-129270178D01*
X110194671Y-129321966D01*
X110165034Y-129339630D01*
X110139384Y-129338115D01*
X110124286Y-129314158D01*
X110117054Y-129256752D01*
X110115004Y-129154890D01*
X110114977Y-129134415D01*
X110114977Y-128919704D01*
X110207939Y-128917307D01*
X110291420Y-128915285D01*
X110355221Y-128913937D01*
X110415578Y-128926856D01*
X110437736Y-128941158D01*
X110484257Y-128949106D01*
X110533584Y-128925023D01*
X110587754Y-128896877D01*
X110632894Y-128903868D01*
G37*
G36*
X117841055Y-125518319D02*
G01*
X117906765Y-125537945D01*
X117918040Y-125546373D01*
X117936668Y-125594459D01*
X117948596Y-125688260D01*
X117952365Y-125803805D01*
X117952365Y-126026913D01*
X118088232Y-126027304D01*
X118213794Y-126030812D01*
X118292305Y-126044790D01*
X118333782Y-126075731D01*
X118348243Y-126130128D01*
X118347080Y-126195091D01*
X118338513Y-126327251D01*
X118145439Y-126335709D01*
X117952365Y-126344167D01*
X117952365Y-126694938D01*
X117954014Y-126865593D01*
X117961978Y-126987754D01*
X117980776Y-127070107D01*
X118014932Y-127121337D01*
X118068965Y-127150130D01*
X118147399Y-127165172D01*
X118199930Y-127170496D01*
X118367117Y-127185359D01*
X118376123Y-127311241D01*
X118373479Y-127408887D01*
X118349342Y-127459726D01*
X118347520Y-127460972D01*
X118292659Y-127475543D01*
X118200867Y-127481481D01*
X118091744Y-127478927D01*
X117984888Y-127468027D01*
X117931628Y-127457925D01*
X117821056Y-127423244D01*
X117736888Y-127373570D01*
X117675442Y-127301360D01*
X117633040Y-127199070D01*
X117605999Y-127059156D01*
X117590639Y-126874074D01*
X117585804Y-126749154D01*
X117574156Y-126341553D01*
X117468643Y-126341553D01*
X117368297Y-126327267D01*
X117312302Y-126280945D01*
X117294491Y-126197391D01*
X117294482Y-126194857D01*
X117317944Y-126102718D01*
X117384956Y-126045259D01*
X117482448Y-126026913D01*
X117580518Y-126026913D01*
X117580518Y-125803805D01*
X117585050Y-125678196D01*
X117597646Y-125588064D01*
X117614842Y-125546373D01*
X117669298Y-125522533D01*
X117753301Y-125513182D01*
X117841055Y-125518319D01*
G37*
G36*
X101690964Y-126071594D02*
G01*
X101780865Y-126110396D01*
X101887038Y-126195870D01*
X101969813Y-126302327D01*
X102023733Y-126417120D01*
X102043342Y-126527600D01*
X102023182Y-126621118D01*
X102010159Y-126641891D01*
X101981001Y-126675597D01*
X101954195Y-126678299D01*
X101912536Y-126646476D01*
X101879264Y-126615087D01*
X101812766Y-126529696D01*
X101791329Y-126455049D01*
X101767328Y-126371036D01*
X101706902Y-126307998D01*
X101630681Y-126284346D01*
X101573394Y-126306335D01*
X101499612Y-126362759D01*
X101422771Y-126439301D01*
X101356307Y-126521642D01*
X101313660Y-126595466D01*
X101305067Y-126631289D01*
X101327117Y-126710938D01*
X101382302Y-126769276D01*
X101454177Y-126797536D01*
X101526295Y-126786949D01*
X101556389Y-126765277D01*
X101573204Y-126728147D01*
X101544634Y-126680878D01*
X101542461Y-126678457D01*
X101512569Y-126637851D01*
X101519628Y-126604351D01*
X101556951Y-126563218D01*
X101619302Y-126500867D01*
X101748221Y-126627391D01*
X101815521Y-126698120D01*
X101862169Y-126756087D01*
X101877139Y-126785513D01*
X101855994Y-126826913D01*
X101803001Y-126885181D01*
X101733822Y-126945322D01*
X101664122Y-126992340D01*
X101657342Y-126995941D01*
X101540658Y-127026202D01*
X101411738Y-127002318D01*
X101300488Y-126945473D01*
X101172694Y-126834770D01*
X101106611Y-126731355D01*
X101069441Y-126645647D01*
X101058399Y-126583131D01*
X101070314Y-126517862D01*
X101077669Y-126494538D01*
X101126253Y-126399045D01*
X101206334Y-126291045D01*
X101301552Y-126189373D01*
X101395543Y-126112861D01*
X101423729Y-126096226D01*
X101554210Y-126059047D01*
X101690964Y-126071594D01*
G37*
G36*
X116628133Y-126036852D02*
G01*
X116762312Y-126070301D01*
X116880502Y-126134417D01*
X116960553Y-126197994D01*
X117057777Y-126316902D01*
X117119595Y-126473502D01*
X117146987Y-126671187D01*
X117145978Y-126840182D01*
X117115612Y-127052524D01*
X117048180Y-127221924D01*
X116942273Y-127350174D01*
X116796481Y-127439068D01*
X116638952Y-127485251D01*
X116534232Y-127503425D01*
X116456839Y-127509519D01*
X116379644Y-127503386D01*
X116275518Y-127484881D01*
X116267200Y-127483252D01*
X116094594Y-127423063D01*
X115956302Y-127317106D01*
X115853515Y-127167362D01*
X115812792Y-127074602D01*
X115789808Y-126986081D01*
X115780045Y-126878816D01*
X115778650Y-126786444D01*
X115782697Y-126679650D01*
X116155787Y-126679650D01*
X116160162Y-126847697D01*
X116181291Y-126989847D01*
X116217814Y-127087610D01*
X116275990Y-127153072D01*
X116336261Y-127187646D01*
X116415017Y-127218423D01*
X116476088Y-127223907D01*
X116550526Y-127205254D01*
X116575993Y-127196560D01*
X116664590Y-127142188D01*
X116723827Y-127048433D01*
X116755849Y-126910577D01*
X116763224Y-126784909D01*
X116756112Y-126603569D01*
X116728122Y-126471228D01*
X116675782Y-126382389D01*
X116595617Y-126331557D01*
X116484154Y-126313234D01*
X116464977Y-126312949D01*
X116337759Y-126336386D01*
X116243428Y-126406006D01*
X116182574Y-126520773D01*
X116155787Y-126679650D01*
X115782697Y-126679650D01*
X115785616Y-126602612D01*
X115808728Y-126460975D01*
X115851740Y-126347875D01*
X115918408Y-126249658D01*
X115929975Y-126236168D01*
X116048910Y-126129402D01*
X116188192Y-126062680D01*
X116359572Y-126031365D01*
X116458745Y-126027542D01*
X116628133Y-126036852D01*
G37*
G36*
X100913114Y-126648672D02*
G01*
X100973068Y-126710021D01*
X101005704Y-126770004D01*
X101011849Y-126855440D01*
X100991537Y-126976692D01*
X100974203Y-127044147D01*
X100968449Y-127075978D01*
X100981747Y-127090632D01*
X101025903Y-127090395D01*
X101112724Y-127077552D01*
X101131092Y-127074525D01*
X101228961Y-127060282D01*
X101289859Y-127060181D01*
X101332936Y-127077263D01*
X101376160Y-127113460D01*
X101424948Y-127167777D01*
X101447842Y-127209973D01*
X101448085Y-127212821D01*
X101421992Y-127232026D01*
X101352050Y-127256992D01*
X101250766Y-127283640D01*
X101191694Y-127296437D01*
X101055802Y-127327348D01*
X100970257Y-127355700D01*
X100928417Y-127383938D01*
X100922490Y-127395528D01*
X100911328Y-127446447D01*
X100894311Y-127534784D01*
X100875096Y-127641546D01*
X100874840Y-127643017D01*
X100850940Y-127772432D01*
X100830058Y-127851084D01*
X100806613Y-127884767D01*
X100775025Y-127879278D01*
X100729716Y-127840410D01*
X100706997Y-127817327D01*
X100653946Y-127759540D01*
X100628544Y-127713431D01*
X100625135Y-127657055D01*
X100638063Y-127568463D01*
X100639987Y-127557280D01*
X100667914Y-127395183D01*
X100497862Y-127414920D01*
X100400308Y-127423987D01*
X100338573Y-127419498D01*
X100291921Y-127396528D01*
X100244367Y-127354713D01*
X100191717Y-127299708D01*
X100162820Y-127260646D01*
X100160923Y-127254546D01*
X100187087Y-127240981D01*
X100257469Y-127220927D01*
X100359907Y-127197581D01*
X100432378Y-127183195D01*
X100574909Y-127152950D01*
X100665713Y-127125112D01*
X100710118Y-127097879D01*
X100715963Y-127087205D01*
X100727487Y-127038908D01*
X100746981Y-126951789D01*
X100770620Y-126843004D01*
X100775393Y-126820697D01*
X100803909Y-126702351D01*
X100831744Y-126636820D01*
X100865834Y-126620221D01*
X100913114Y-126648672D01*
G37*
G36*
X113328051Y-126033585D02*
G01*
X113399294Y-126049934D01*
X113473002Y-126081324D01*
X113518587Y-126104617D01*
X113619208Y-126165067D01*
X113687771Y-126231363D01*
X113746729Y-126326202D01*
X113756610Y-126345226D01*
X113796867Y-126431024D01*
X113821165Y-126508014D01*
X113833373Y-126596108D01*
X113837360Y-126715217D01*
X113837532Y-126761713D01*
X113820699Y-126986997D01*
X113768850Y-127168058D01*
X113679958Y-127307408D01*
X113551997Y-127407562D01*
X113382941Y-127471033D01*
X113247072Y-127494136D01*
X113133017Y-127498486D01*
X113018358Y-127490771D01*
X112984674Y-127485253D01*
X112797288Y-127423873D01*
X112651982Y-127324673D01*
X112548354Y-127187027D01*
X112486001Y-127010308D01*
X112465669Y-126805452D01*
X112841426Y-126805452D01*
X112866272Y-126971570D01*
X112894181Y-127061427D01*
X112954081Y-127146198D01*
X113047778Y-127197642D01*
X113160444Y-127212572D01*
X113277253Y-127187802D01*
X113337119Y-127156610D01*
X113397596Y-127086122D01*
X113438261Y-126976794D01*
X113459222Y-126843415D01*
X113460585Y-126700774D01*
X113442456Y-126563660D01*
X113404941Y-126446860D01*
X113348146Y-126365164D01*
X113331341Y-126352214D01*
X113257195Y-126322924D01*
X113161911Y-126308276D01*
X113139686Y-126307861D01*
X113045790Y-126319266D01*
X112977312Y-126358889D01*
X112943840Y-126392728D01*
X112881365Y-126500486D01*
X112846842Y-126643242D01*
X112841426Y-126805452D01*
X112465669Y-126805452D01*
X112464521Y-126793888D01*
X112468295Y-126680232D01*
X112497414Y-126482745D01*
X112557733Y-126326120D01*
X112654186Y-126200400D01*
X112741768Y-126128296D01*
X112809514Y-126084735D01*
X112872899Y-126057655D01*
X112950117Y-126042332D01*
X113059365Y-126034039D01*
X113113615Y-126031727D01*
X113239437Y-126028706D01*
X113328051Y-126033585D01*
G37*
G36*
X107413927Y-125543210D02*
G01*
X107565021Y-125546252D01*
X107622088Y-125548108D01*
X107865773Y-125562277D01*
X108060340Y-125587487D01*
X108213346Y-125626958D01*
X108332342Y-125683913D01*
X108424884Y-125761572D01*
X108498525Y-125863159D01*
X108537514Y-125938513D01*
X108567948Y-126008566D01*
X108588770Y-126073100D01*
X108601813Y-126145456D01*
X108608907Y-126238974D01*
X108611886Y-126366992D01*
X108612503Y-126484571D01*
X108608428Y-126709735D01*
X108595360Y-126885179D01*
X108573555Y-127007569D01*
X108572078Y-127012795D01*
X108504553Y-127158618D01*
X108398335Y-127287267D01*
X108267883Y-127383971D01*
X108168453Y-127425146D01*
X108101536Y-127436842D01*
X107994209Y-127448004D01*
X107858222Y-127458156D01*
X107705324Y-127466824D01*
X107547266Y-127473532D01*
X107395799Y-127477806D01*
X107262673Y-127479170D01*
X107159638Y-127477148D01*
X107098445Y-127471267D01*
X107090146Y-127468746D01*
X107079860Y-127451033D01*
X107071590Y-127405229D01*
X107065163Y-127326700D01*
X107060407Y-127210809D01*
X107058996Y-127142454D01*
X107454842Y-127142454D01*
X107700801Y-127142454D01*
X107880854Y-127134555D01*
X108007278Y-127110738D01*
X108041820Y-127097345D01*
X108113745Y-127049095D01*
X108165737Y-126977563D01*
X108200280Y-126874815D01*
X108219857Y-126732919D01*
X108226952Y-126543942D01*
X108227095Y-126505445D01*
X108220900Y-126301351D01*
X108198631Y-126146416D01*
X108154670Y-126033553D01*
X108083396Y-125955677D01*
X107979190Y-125905702D01*
X107836432Y-125876543D01*
X107719426Y-125865333D01*
X107454842Y-125846725D01*
X107454842Y-126494590D01*
X107454842Y-127142454D01*
X107058996Y-127142454D01*
X107057148Y-127052921D01*
X107055213Y-126848401D01*
X107054429Y-126592611D01*
X107054392Y-126511336D01*
X107054392Y-126494590D01*
X107054392Y-125570346D01*
X107128676Y-125551702D01*
X107183268Y-125546026D01*
X107282514Y-125543165D01*
X107413927Y-125543210D01*
G37*
G36*
X119415928Y-125533225D02*
G01*
X119568618Y-125562049D01*
X119617192Y-125578263D01*
X119769200Y-125664880D01*
X119880904Y-125787408D01*
X119948462Y-125937680D01*
X119968035Y-126107525D01*
X119941893Y-126268848D01*
X119921551Y-126330505D01*
X119895282Y-126386339D01*
X119856506Y-126444620D01*
X119798643Y-126513618D01*
X119715114Y-126601601D01*
X119599341Y-126716840D01*
X119536690Y-126778114D01*
X119177775Y-127128152D01*
X119587649Y-127142454D01*
X119997522Y-127156756D01*
X120006420Y-127297006D01*
X120004360Y-127403507D01*
X119981620Y-127458215D01*
X119977816Y-127461039D01*
X119935051Y-127470295D01*
X119846017Y-127477399D01*
X119720622Y-127482420D01*
X119568774Y-127485428D01*
X119400381Y-127486491D01*
X119225352Y-127485679D01*
X119053595Y-127483059D01*
X118895018Y-127478701D01*
X118759530Y-127472674D01*
X118657039Y-127465046D01*
X118597454Y-127455887D01*
X118587365Y-127451373D01*
X118563696Y-127400669D01*
X118553083Y-127324499D01*
X118553040Y-127319608D01*
X118559034Y-127268072D01*
X118581792Y-127215504D01*
X118628480Y-127151115D01*
X118706262Y-127064116D01*
X118760416Y-127007353D01*
X118876029Y-126892243D01*
X119014146Y-126761645D01*
X119152818Y-126636081D01*
X119218554Y-126578998D01*
X119354058Y-126458965D01*
X119448825Y-126361712D01*
X119509366Y-126277764D01*
X119542191Y-126197647D01*
X119553809Y-126111886D01*
X119554166Y-126090527D01*
X119532204Y-125975996D01*
X119467311Y-125898860D01*
X119360981Y-125860467D01*
X119294891Y-125856202D01*
X119188397Y-125866969D01*
X119112922Y-125904679D01*
X119053823Y-125980169D01*
X119012730Y-126065079D01*
X118955524Y-126198535D01*
X118785946Y-126198535D01*
X118676901Y-126193187D01*
X118615990Y-126170425D01*
X118595968Y-126120169D01*
X118609594Y-126032343D01*
X118625529Y-125975329D01*
X118698346Y-125822939D01*
X118815290Y-125688242D01*
X118963353Y-125586022D01*
X118971627Y-125581888D01*
X119095827Y-125543266D01*
X119251129Y-125527005D01*
X119415928Y-125533225D01*
G37*
G36*
X114334009Y-125512049D02*
G01*
X114412211Y-125513963D01*
X114464685Y-125526048D01*
X114496562Y-125557816D01*
X114512975Y-125618781D01*
X114519054Y-125718456D01*
X114519932Y-125856694D01*
X114519932Y-126166615D01*
X114641498Y-126097109D01*
X114754971Y-126047747D01*
X114882018Y-126028349D01*
X114928452Y-126027258D01*
X115097922Y-126042109D01*
X115231287Y-126091210D01*
X115341974Y-126180188D01*
X115370163Y-126212323D01*
X115444489Y-126323693D01*
X115491897Y-126450672D01*
X115515279Y-126605564D01*
X115517525Y-126800677D01*
X115516225Y-126834021D01*
X115497347Y-127027960D01*
X115457308Y-127177319D01*
X115391872Y-127292164D01*
X115296806Y-127382561D01*
X115280646Y-127394007D01*
X115124684Y-127476563D01*
X114966493Y-127506944D01*
X114790880Y-127487940D01*
X114781212Y-127485706D01*
X114687377Y-127451065D01*
X114603598Y-127402823D01*
X114539026Y-127357706D01*
X114506157Y-127348217D01*
X114491559Y-127374838D01*
X114486167Y-127407037D01*
X114465299Y-127454580D01*
X114410006Y-127476816D01*
X114380107Y-127480654D01*
X114290843Y-127482166D01*
X114215636Y-127472958D01*
X114148085Y-127456004D01*
X114148085Y-126778089D01*
X114521824Y-126778089D01*
X114539059Y-126932410D01*
X114549681Y-126976682D01*
X114605519Y-127088466D01*
X114692953Y-127164278D01*
X114798914Y-127200261D01*
X114910332Y-127192556D01*
X115014138Y-127137305D01*
X115033534Y-127119514D01*
X115094610Y-127023581D01*
X115131911Y-126893188D01*
X115144796Y-126746197D01*
X115132624Y-126600470D01*
X115094754Y-126473867D01*
X115058863Y-126413790D01*
X114974036Y-126347542D01*
X114867802Y-126322201D01*
X114755871Y-126335139D01*
X114653950Y-126383729D01*
X114577747Y-126465344D01*
X114561808Y-126496925D01*
X114529624Y-126624349D01*
X114521824Y-126778089D01*
X114148085Y-126778089D01*
X114148085Y-126501388D01*
X114147947Y-126237138D01*
X114148231Y-126024507D01*
X114149988Y-125857907D01*
X114154267Y-125731755D01*
X114162118Y-125640463D01*
X114174590Y-125578447D01*
X114192734Y-125540121D01*
X114217599Y-125519899D01*
X114250234Y-125512196D01*
X114291690Y-125511425D01*
X114334009Y-125512049D01*
G37*
G36*
X106008834Y-125531142D02*
G01*
X106103075Y-125540259D01*
X106184657Y-125561819D01*
X106275815Y-125600513D01*
X106322940Y-125623315D01*
X106441893Y-125688679D01*
X106524449Y-125753825D01*
X106589264Y-125834074D01*
X106600418Y-125851198D01*
X106650806Y-125946830D01*
X106675673Y-126029062D01*
X106676509Y-126055517D01*
X106667422Y-126095162D01*
X106642499Y-126117696D01*
X106587839Y-126129163D01*
X106492597Y-126135461D01*
X106395219Y-126138629D01*
X106336792Y-126131576D01*
X106299142Y-126107174D01*
X106264096Y-126058292D01*
X106253856Y-126041806D01*
X106164327Y-125937149D01*
X106048142Y-125876536D01*
X105896212Y-125855412D01*
X105881644Y-125855292D01*
X105721158Y-125875087D01*
X105600193Y-125935163D01*
X105517729Y-126034549D01*
X105491517Y-126115691D01*
X105473530Y-126237635D01*
X105463689Y-126385735D01*
X105461914Y-126545344D01*
X105468130Y-126701816D01*
X105482256Y-126840505D01*
X105504215Y-126946765D01*
X105522842Y-126991823D01*
X105616215Y-127092801D01*
X105748049Y-127152929D01*
X105900269Y-127170951D01*
X106053991Y-127147141D01*
X106177544Y-127080177D01*
X106264190Y-126976370D01*
X106307195Y-126842033D01*
X106310698Y-126786329D01*
X106310698Y-126684796D01*
X106146227Y-126684358D01*
X106027827Y-126679680D01*
X105956257Y-126661789D01*
X105921484Y-126623737D01*
X105913475Y-126558580D01*
X105915419Y-126524565D01*
X105924549Y-126413062D01*
X106310698Y-126413062D01*
X106696847Y-126413062D01*
X106695531Y-126670495D01*
X106687722Y-126856432D01*
X106663373Y-127000474D01*
X106617855Y-127116677D01*
X106546537Y-127219099D01*
X106497509Y-127271788D01*
X106341972Y-127387754D01*
X106151986Y-127462491D01*
X105934679Y-127494059D01*
X105718754Y-127483576D01*
X105514155Y-127433720D01*
X105348177Y-127342489D01*
X105217290Y-127207186D01*
X105117965Y-127025114D01*
X105117617Y-127024264D01*
X105094887Y-126935520D01*
X105078296Y-126805011D01*
X105068046Y-126647870D01*
X105064344Y-126479230D01*
X105067394Y-126314225D01*
X105077402Y-126167988D01*
X105094572Y-126055654D01*
X105104040Y-126022021D01*
X105196260Y-125841039D01*
X105331507Y-125696618D01*
X105467496Y-125610613D01*
X105560025Y-125569698D01*
X105644984Y-125545397D01*
X105743847Y-125533496D01*
X105878090Y-125529786D01*
X105879702Y-125529776D01*
X106008834Y-125531142D01*
G37*
G36*
X111323499Y-125545887D02*
G01*
X111479462Y-125552636D01*
X111622519Y-125562526D01*
X111741020Y-125575254D01*
X111823317Y-125590516D01*
X111845495Y-125598158D01*
X112007946Y-125693428D01*
X112119313Y-125808245D01*
X112184425Y-125950060D01*
X112208110Y-126126323D01*
X112208380Y-126157981D01*
X112191592Y-126323980D01*
X112138620Y-126457827D01*
X112042331Y-126571659D01*
X111907182Y-126670495D01*
X111891993Y-126687560D01*
X111891593Y-126717334D01*
X111909188Y-126767739D01*
X111947987Y-126846695D01*
X112011198Y-126962125D01*
X112060670Y-127049540D01*
X112132572Y-127177517D01*
X112192966Y-127288288D01*
X112236709Y-127372171D01*
X112258661Y-127419481D01*
X112260248Y-127425478D01*
X112234981Y-127456755D01*
X112170768Y-127477232D01*
X112084985Y-127486116D01*
X111995010Y-127482613D01*
X111918220Y-127465932D01*
X111878298Y-127442905D01*
X111848939Y-127402365D01*
X111799450Y-127322328D01*
X111736421Y-127213878D01*
X111666445Y-127088101D01*
X111657183Y-127071058D01*
X111478860Y-126742004D01*
X111297482Y-126742004D01*
X111116103Y-126742004D01*
X111116103Y-127079526D01*
X111112897Y-127256968D01*
X111103299Y-127378368D01*
X111087342Y-127443368D01*
X111081779Y-127451373D01*
X111033928Y-127472163D01*
X110953531Y-127484359D01*
X110915878Y-127485697D01*
X110829124Y-127478638D01*
X110764579Y-127460846D01*
X110749977Y-127451373D01*
X110739620Y-127423987D01*
X110731330Y-127362025D01*
X110724959Y-127261464D01*
X110720362Y-127118283D01*
X110717391Y-126928457D01*
X110715899Y-126687963D01*
X110715653Y-126510956D01*
X110715767Y-126427364D01*
X111116103Y-126427364D01*
X111361115Y-126427364D01*
X111481493Y-126423571D01*
X111585950Y-126413484D01*
X111656576Y-126399041D01*
X111668603Y-126394088D01*
X111751830Y-126330236D01*
X111793126Y-126242493D01*
X111801680Y-126154843D01*
X111786965Y-126041169D01*
X111737586Y-125957315D01*
X111648760Y-125900372D01*
X111515703Y-125867434D01*
X111333633Y-125855592D01*
X111309178Y-125855451D01*
X111116103Y-125855292D01*
X111116103Y-126141328D01*
X111116103Y-126427364D01*
X110715767Y-126427364D01*
X110716004Y-126253513D01*
X110716672Y-126141328D01*
X110717230Y-126047525D01*
X110719587Y-125887244D01*
X110723333Y-125766922D01*
X110728727Y-125680810D01*
X110736025Y-125623160D01*
X110745486Y-125588224D01*
X110757366Y-125570254D01*
X110757831Y-125569860D01*
X110803579Y-125556359D01*
X110894670Y-125547515D01*
X111019453Y-125543023D01*
X111166279Y-125542582D01*
X111323499Y-125545887D01*
G37*
G36*
X110325576Y-125550379D02*
G01*
X110386057Y-125569600D01*
X110396379Y-125577973D01*
X110400122Y-125604122D01*
X110382556Y-125653770D01*
X110340762Y-125732256D01*
X110271825Y-125844920D01*
X110172829Y-125997101D01*
X110142485Y-126042782D01*
X110051002Y-126181374D01*
X109971706Y-126303999D01*
X109909677Y-126402598D01*
X109869994Y-126469112D01*
X109857581Y-126494897D01*
X109873109Y-126525316D01*
X109916231Y-126594576D01*
X109981717Y-126694666D01*
X110064334Y-126817575D01*
X110147058Y-126938253D01*
X110241631Y-127075953D01*
X110324983Y-127199054D01*
X110391538Y-127299181D01*
X110435721Y-127367956D01*
X110451564Y-127395622D01*
X110445510Y-127442103D01*
X110385111Y-127471857D01*
X110270784Y-127484712D01*
X110237208Y-127485259D01*
X110152482Y-127482945D01*
X110096153Y-127468226D01*
X110048110Y-127430366D01*
X109988238Y-127358628D01*
X109979775Y-127347835D01*
X109907845Y-127252401D01*
X109822908Y-127134587D01*
X109743320Y-127019855D01*
X109743130Y-127019575D01*
X109680884Y-126930796D01*
X109629752Y-126863919D01*
X109598605Y-126830363D01*
X109594721Y-126828495D01*
X109572051Y-126850445D01*
X109523859Y-126911021D01*
X109456748Y-127001513D01*
X109377319Y-127113209D01*
X109359234Y-127139205D01*
X109275444Y-127256599D01*
X109199527Y-127356536D01*
X109139010Y-127429547D01*
X109101422Y-127466163D01*
X109097703Y-127468146D01*
X109028647Y-127481519D01*
X108935834Y-127484684D01*
X108844582Y-127478311D01*
X108780210Y-127463073D01*
X108773591Y-127459542D01*
X108755866Y-127446014D01*
X108747866Y-127428310D01*
X108753030Y-127400019D01*
X108774795Y-127354731D01*
X108816599Y-127286036D01*
X108881880Y-127187523D01*
X108974076Y-127052784D01*
X109053167Y-126938253D01*
X109146534Y-126801890D01*
X109227372Y-126681295D01*
X109290451Y-126584481D01*
X109330538Y-126519458D01*
X109342644Y-126494897D01*
X109327475Y-126464243D01*
X109285380Y-126394232D01*
X109221436Y-126292925D01*
X109140723Y-126168381D01*
X109057740Y-126042782D01*
X108950628Y-125879692D01*
X108874317Y-125757477D01*
X108825892Y-125670798D01*
X108802436Y-125614317D01*
X108801032Y-125582694D01*
X108803846Y-125577973D01*
X108852645Y-125554408D01*
X108935743Y-125542530D01*
X109031445Y-125542295D01*
X109118058Y-125553662D01*
X109173888Y-125576588D01*
X109176166Y-125578707D01*
X109206701Y-125616805D01*
X109260925Y-125691361D01*
X109330860Y-125791193D01*
X109399887Y-125892294D01*
X109474504Y-126000716D01*
X109538202Y-126089250D01*
X109583987Y-126148439D01*
X109604490Y-126168878D01*
X109626739Y-126146994D01*
X109674003Y-126086480D01*
X109739580Y-125996319D01*
X109816768Y-125885490D01*
X109825295Y-125872989D01*
X109906128Y-125758064D01*
X109979401Y-125660857D01*
X110037358Y-125591200D01*
X110072240Y-125558925D01*
X110073538Y-125558349D01*
X110146881Y-125543390D01*
X110238372Y-125541188D01*
X110325576Y-125550379D01*
G37*
G36*
X101119265Y-124822774D02*
G01*
X101201369Y-124838146D01*
X101508752Y-124934885D01*
X101789718Y-125080599D01*
X102040203Y-125271602D01*
X102256141Y-125504210D01*
X102433470Y-125774739D01*
X102566983Y-126076246D01*
X102614133Y-126263203D01*
X102639927Y-126481936D01*
X102643409Y-126710774D01*
X102623621Y-126928048D01*
X102608249Y-127010152D01*
X102511471Y-127317807D01*
X102365733Y-127598816D01*
X102174562Y-127849288D01*
X101941485Y-128065330D01*
X101670031Y-128243051D01*
X101370149Y-128376293D01*
X101199949Y-128419285D01*
X100995553Y-128444247D01*
X100777229Y-128450650D01*
X100565243Y-128437968D01*
X100379863Y-128405674D01*
X100367313Y-128402370D01*
X100071800Y-128297560D01*
X99809423Y-128150068D01*
X99569272Y-127953551D01*
X99531339Y-127916287D01*
X99324074Y-127670920D01*
X99167590Y-127407240D01*
X99060588Y-127130603D01*
X99001770Y-126846368D01*
X98989836Y-126559892D01*
X98990945Y-126550551D01*
X99073986Y-126550551D01*
X99095292Y-126577843D01*
X99143171Y-126614395D01*
X99190577Y-126640129D01*
X99233900Y-126641528D01*
X99295727Y-126616884D01*
X99328710Y-126600368D01*
X99447233Y-126509228D01*
X99503515Y-126426433D01*
X99542911Y-126357009D01*
X99573938Y-126330727D01*
X99610088Y-126337863D01*
X99619640Y-126342723D01*
X99640288Y-126356850D01*
X99649474Y-126377335D01*
X99644426Y-126412202D01*
X99622372Y-126469474D01*
X99580539Y-126557175D01*
X99516155Y-126683328D01*
X99473683Y-126765172D01*
X99270054Y-127156756D01*
X99302367Y-127328377D01*
X99326753Y-127454499D01*
X99346290Y-127534393D01*
X99366718Y-127578048D01*
X99393778Y-127595454D01*
X99433210Y-127596603D01*
X99455345Y-127594591D01*
X99541017Y-127560023D01*
X99601528Y-127481264D01*
X99632111Y-127367571D01*
X99631312Y-127252989D01*
X99626010Y-127167355D01*
X99637420Y-127121686D01*
X99664592Y-127101883D01*
X99715278Y-127096817D01*
X99732870Y-127105762D01*
X99743995Y-127140675D01*
X99761077Y-127221603D01*
X99782120Y-127337910D01*
X99805128Y-127478960D01*
X99814880Y-127542904D01*
X99876852Y-127957657D01*
X100010663Y-128093525D01*
X100087405Y-128166141D01*
X100155578Y-128221515D01*
X100196976Y-128246057D01*
X100263621Y-128246056D01*
X100308172Y-128204576D01*
X100329981Y-128133172D01*
X100328403Y-128043400D01*
X100302791Y-127946814D01*
X100252499Y-127854969D01*
X100220945Y-127817543D01*
X100167135Y-127758042D01*
X100150261Y-127722178D01*
X100165154Y-127694859D01*
X100175727Y-127685506D01*
X100197754Y-127675273D01*
X100227302Y-127681881D01*
X100270952Y-127710351D01*
X100335282Y-127765704D01*
X100426873Y-127852962D01*
X100534161Y-127959043D01*
X100654135Y-128077910D01*
X100742844Y-128162441D01*
X100809223Y-128219001D01*
X100862208Y-128253956D01*
X100910734Y-128273670D01*
X100963737Y-128284508D01*
X100997239Y-128288896D01*
X101122217Y-128303221D01*
X101203025Y-128309299D01*
X101252150Y-128306799D01*
X101282078Y-128295390D01*
X101299347Y-128280877D01*
X101329330Y-128216564D01*
X101315935Y-128140486D01*
X101268131Y-128063947D01*
X101194891Y-127998248D01*
X101105185Y-127954693D01*
X101031440Y-127943355D01*
X100948697Y-127930096D01*
X100914223Y-127898527D01*
X100905993Y-127859236D01*
X100921064Y-127833748D01*
X100965740Y-127821643D01*
X101046324Y-127822502D01*
X101169119Y-127835906D01*
X101340431Y-127861434D01*
X101378877Y-127867603D01*
X101805630Y-127936610D01*
X101986749Y-127836096D01*
X102077829Y-127781757D01*
X102147376Y-127733176D01*
X102181302Y-127700268D01*
X102182026Y-127698686D01*
X102183704Y-127631198D01*
X102140983Y-127576628D01*
X102065930Y-127538705D01*
X101970611Y-127521156D01*
X101867091Y-127527710D01*
X101767437Y-127562096D01*
X101757587Y-127567532D01*
X101690106Y-127604539D01*
X101654373Y-127613363D01*
X101632783Y-127594754D01*
X101620707Y-127573377D01*
X101613003Y-127548893D01*
X101622483Y-127524048D01*
X101656179Y-127493544D01*
X101721121Y-127452084D01*
X101824342Y-127394370D01*
X101941379Y-127331783D01*
X102072819Y-127262579D01*
X102188885Y-127202366D01*
X102278840Y-127156649D01*
X102331947Y-127130933D01*
X102338517Y-127128156D01*
X102372235Y-127094912D01*
X102418870Y-127023228D01*
X102469294Y-126927450D01*
X102477926Y-126909067D01*
X102570710Y-126707771D01*
X102510403Y-126647464D01*
X102450095Y-126587157D01*
X102321962Y-126649409D01*
X102208910Y-126725226D01*
X102134737Y-126827491D01*
X102095167Y-126897431D01*
X102064185Y-126924270D01*
X102028402Y-126917723D01*
X102017783Y-126912354D01*
X101997038Y-126898213D01*
X101987783Y-126877798D01*
X101992806Y-126843083D01*
X102014894Y-126786045D01*
X102056836Y-126698658D01*
X102121420Y-126572897D01*
X102164188Y-126490989D01*
X102368457Y-126100591D01*
X102335695Y-125927885D01*
X102311139Y-125802511D01*
X102291350Y-125722979D01*
X102270778Y-125678861D01*
X102243869Y-125659729D01*
X102205072Y-125655158D01*
X102190433Y-125655067D01*
X102114993Y-125681216D01*
X102053485Y-125750696D01*
X102012896Y-125850049D01*
X102000218Y-125965822D01*
X102004437Y-126013121D01*
X102011823Y-126093554D01*
X101999993Y-126135610D01*
X101973692Y-126153038D01*
X101922741Y-126158389D01*
X101904742Y-126149416D01*
X101893617Y-126114503D01*
X101876536Y-126033575D01*
X101855493Y-125917268D01*
X101832484Y-125776218D01*
X101822732Y-125712274D01*
X101760760Y-125297522D01*
X101626949Y-125161653D01*
X101550208Y-125089038D01*
X101482034Y-125033663D01*
X101440636Y-125009121D01*
X101373991Y-125009122D01*
X101329440Y-125050602D01*
X101307631Y-125122006D01*
X101309209Y-125211779D01*
X101334821Y-125308365D01*
X101385114Y-125400209D01*
X101416667Y-125437635D01*
X101470465Y-125497238D01*
X101487240Y-125533232D01*
X101472205Y-125560590D01*
X101462478Y-125569180D01*
X101440537Y-125578954D01*
X101410457Y-125571725D01*
X101365734Y-125542564D01*
X101299864Y-125486541D01*
X101206345Y-125398725D01*
X101096554Y-125291766D01*
X100775901Y-124976780D01*
X100577868Y-124958991D01*
X100448335Y-124952993D01*
X100365301Y-124961877D01*
X100341888Y-124972696D01*
X100308053Y-125031554D01*
X100317115Y-125104225D01*
X100360450Y-125179647D01*
X100429440Y-125246756D01*
X100515462Y-125294492D01*
X100606172Y-125311823D01*
X100688915Y-125325083D01*
X100723389Y-125356651D01*
X100731515Y-125395663D01*
X100716367Y-125420942D01*
X100671630Y-125432900D01*
X100590990Y-125431948D01*
X100468132Y-125418498D01*
X100296742Y-125392963D01*
X100259075Y-125386925D01*
X99831982Y-125317946D01*
X99650863Y-125418771D01*
X99559813Y-125473245D01*
X99490275Y-125521925D01*
X99456323Y-125554887D01*
X99455587Y-125556493D01*
X99453909Y-125623980D01*
X99496629Y-125678550D01*
X99571682Y-125716474D01*
X99667001Y-125734022D01*
X99770521Y-125727468D01*
X99870175Y-125693082D01*
X99880026Y-125687646D01*
X99947504Y-125650637D01*
X99983236Y-125641810D01*
X100004825Y-125660416D01*
X100016921Y-125681831D01*
X100025283Y-125708189D01*
X100014851Y-125734293D01*
X99978111Y-125766201D01*
X99907550Y-125809970D01*
X99795657Y-125871660D01*
X99753456Y-125894272D01*
X99625087Y-125962251D01*
X99504481Y-126025098D01*
X99406817Y-126074957D01*
X99355169Y-126100328D01*
X99291378Y-126139205D01*
X99239654Y-126196285D01*
X99188045Y-126286457D01*
X99162095Y-126340886D01*
X99119276Y-126436130D01*
X99087945Y-126510300D01*
X99074171Y-126548949D01*
X99073986Y-126550551D01*
X98990945Y-126550551D01*
X99023489Y-126276535D01*
X99101428Y-126001653D01*
X99222356Y-125740605D01*
X99384974Y-125498748D01*
X99587983Y-125281441D01*
X99830084Y-125094041D01*
X100109979Y-124941907D01*
X100267463Y-124879412D01*
X100454420Y-124832262D01*
X100673153Y-124806468D01*
X100901991Y-124802986D01*
X101119265Y-124822774D01*
G37*
D11*
%TO.C,MJ1*%
X168360000Y-45890000D02*
X168360000Y-44640000D01*
X168360000Y-44640000D02*
X167110000Y-44640000D01*
X168260000Y-46700000D02*
X168260000Y-46400000D01*
X168260000Y-46400000D02*
X168060000Y-46400000D01*
X168160000Y-46700000D02*
X168160000Y-46400000D01*
X168060000Y-59060000D02*
X168060000Y-44940000D01*
X168060000Y-47500000D02*
X167450000Y-47500000D01*
X168060000Y-46700000D02*
X168260000Y-46700000D01*
X168060000Y-44940000D02*
X163340000Y-44940000D01*
X167450000Y-58450000D02*
X167450000Y-56500000D01*
X167450000Y-56500000D02*
X168060000Y-56500000D01*
X167450000Y-47500000D02*
X167450000Y-45550000D01*
X167450000Y-45550000D02*
X163950000Y-45550000D01*
X166750000Y-59060000D02*
X166750000Y-58450000D01*
X166750000Y-44940000D02*
X166750000Y-45550000D01*
X165450000Y-59060000D02*
X165450000Y-58450000D01*
X165450000Y-44940000D02*
X165450000Y-45550000D01*
X164450000Y-56100000D02*
X163950000Y-56100000D01*
X164450000Y-55900000D02*
X164450000Y-56100000D01*
X164450000Y-54100000D02*
X163950000Y-54100000D01*
X164450000Y-53900000D02*
X164450000Y-54100000D01*
X164450000Y-52100000D02*
X163950000Y-52100000D01*
X164450000Y-51900000D02*
X164450000Y-52100000D01*
X164450000Y-50100000D02*
X163950000Y-50100000D01*
X164450000Y-49900000D02*
X164450000Y-50100000D01*
X164450000Y-48100000D02*
X163950000Y-48100000D01*
X164450000Y-47900000D02*
X164450000Y-48100000D01*
X163950000Y-58450000D02*
X167450000Y-58450000D01*
X163950000Y-56000000D02*
X164450000Y-56000000D01*
X163950000Y-55900000D02*
X164450000Y-55900000D01*
X163950000Y-54000000D02*
X164450000Y-54000000D01*
X163950000Y-53900000D02*
X164450000Y-53900000D01*
X163950000Y-52000000D02*
X164450000Y-52000000D01*
X163950000Y-51900000D02*
X164450000Y-51900000D01*
X163950000Y-50000000D02*
X164450000Y-50000000D01*
X163950000Y-49900000D02*
X164450000Y-49900000D01*
X163950000Y-48000000D02*
X164450000Y-48000000D01*
X163950000Y-47900000D02*
X164450000Y-47900000D01*
X163950000Y-45550000D02*
X163950000Y-58450000D01*
X163340000Y-59060000D02*
X168060000Y-59060000D01*
X163340000Y-44940000D02*
X163340000Y-59060000D01*
%TO.C,R2*%
X130605312Y-105518279D02*
X130935312Y-105518279D01*
X130605312Y-112058279D02*
X130605312Y-105518279D01*
X130935312Y-112058279D02*
X130605312Y-112058279D01*
X133015312Y-112058279D02*
X133345312Y-112058279D01*
X133345312Y-105518279D02*
X133015312Y-105518279D01*
X133345312Y-112058279D02*
X133345312Y-105518279D01*
%TO.C,S1*%
X108250000Y-116250000D02*
X127750000Y-116250000D01*
X127750000Y-95750000D01*
X108250000Y-95750000D01*
X108250000Y-116250000D01*
%TO.C,S2*%
X161750000Y-95750000D02*
X142250000Y-95750000D01*
X142250000Y-116250000D01*
X161750000Y-116250000D01*
X161750000Y-95750000D01*
%TO.C,DR1*%
X160230000Y-70000000D02*
X140230000Y-70000000D01*
X140230000Y-50000000D01*
X160230000Y-50000000D01*
X160230000Y-70000000D01*
%TD*%
M02*
