%TF.GenerationSoftware,KiCad,Pcbnew,9.0.5*%
%TF.CreationDate,2025-10-05T18:23:17+01:00*%
%TF.ProjectId,Board,426f6172-642e-46b6-9963-61645f706362,v1*%
%TF.SameCoordinates,Original*%
%TF.FileFunction,Copper,L2,Bot*%
%TF.FilePolarity,Positive*%
%FSLAX46Y46*%
G04 Gerber Fmt 4.6, Leading zero omitted, Abs format (unit mm)*
G04 Created by KiCad (PCBNEW 9.0.5) date 2025-10-05 18:23:17*
%MOMM*%
%LPD*%
G01*
G04 APERTURE LIST*
G04 Aperture macros list*
%AMRoundRect*
0 Rectangle with rounded corners*
0 $1 Rounding radius*
0 $2 $3 $4 $5 $6 $7 $8 $9 X,Y pos of 4 corners*
0 Add a 4 corners polygon primitive as box body*
4,1,4,$2,$3,$4,$5,$6,$7,$8,$9,$2,$3,0*
0 Add four circle primitives for the rounded corners*
1,1,$1+$1,$2,$3*
1,1,$1+$1,$4,$5*
1,1,$1+$1,$6,$7*
1,1,$1+$1,$8,$9*
0 Add four rect primitives between the rounded corners*
20,1,$1+$1,$2,$3,$4,$5,0*
20,1,$1+$1,$4,$5,$6,$7,0*
20,1,$1+$1,$6,$7,$8,$9,0*
20,1,$1+$1,$8,$9,$2,$3,0*%
G04 Aperture macros list end*
%TA.AperFunction,ComponentPad*%
%ADD10C,1.600000*%
%TD*%
%TA.AperFunction,ComponentPad*%
%ADD11O,2.000000X1.200000*%
%TD*%
%TA.AperFunction,ComponentPad*%
%ADD12O,1.200000X2.000000*%
%TD*%
%TA.AperFunction,ComponentPad*%
%ADD13RoundRect,0.250000X-0.350000X-0.625000X0.350000X-0.625000X0.350000X0.625000X-0.350000X0.625000X0*%
%TD*%
%TA.AperFunction,ComponentPad*%
%ADD14O,1.200000X1.750000*%
%TD*%
%TA.AperFunction,ComponentPad*%
%ADD15RoundRect,0.760000X1.140000X-1.140000X1.140000X1.140000X-1.140000X1.140000X-1.140000X-1.140000X0*%
%TD*%
%TA.AperFunction,ComponentPad*%
%ADD16C,4.000000*%
%TD*%
%TA.AperFunction,ComponentPad*%
%ADD17RoundRect,0.250000X-0.625000X0.350000X-0.625000X-0.350000X0.625000X-0.350000X0.625000X0.350000X0*%
%TD*%
%TA.AperFunction,ComponentPad*%
%ADD18O,1.750000X1.200000*%
%TD*%
%TA.AperFunction,ComponentPad*%
%ADD19R,1.800000X1.800000*%
%TD*%
%TA.AperFunction,ComponentPad*%
%ADD20C,1.800000*%
%TD*%
%TA.AperFunction,ComponentPad*%
%ADD21RoundRect,0.250000X0.350000X0.625000X-0.350000X0.625000X-0.350000X-0.625000X0.350000X-0.625000X0*%
%TD*%
%TA.AperFunction,Conductor*%
%ADD22C,1.300000*%
%TD*%
%TA.AperFunction,Conductor*%
%ADD23C,0.500000*%
%TD*%
%TA.AperFunction,Conductor*%
%ADD24C,0.300000*%
%TD*%
G04 APERTURE END LIST*
D10*
%TO.P,R1,1*%
%TO.N,Net-(D1-K)*%
X109647540Y-141972470D03*
%TO.P,R1,2*%
%TO.N,/GND47*%
X117267540Y-141972470D03*
%TD*%
D11*
%TO.P,RS1,1,VCC*%
%TO.N,/5V99*%
X122462868Y-127961715D03*
%TO.P,RS1,2,GND*%
%TO.N,/GND47*%
X122462868Y-130501715D03*
%TO.P,RS1,3,INPUT*%
%TO.N,/PA15_RS1*%
X122462868Y-133041715D03*
%TD*%
D12*
%TO.P,DR2,1,AO1*%
%TO.N,Net-(MJ3-MV+)*%
X125420000Y-52500000D03*
%TO.P,DR2,3,PGND1*%
%TO.N,GND*%
X127960000Y-52500000D03*
%TO.P,DR2,5,AO2*%
%TO.N,Net-(MJ3-MV-)*%
X122880000Y-52500000D03*
%TO.P,DR2,7,BO2*%
%TO.N,Net-(MJ4-MV-)*%
X120340000Y-52500000D03*
%TO.P,DR2,11,BO1*%
%TO.N,Net-(MJ4-MV+)*%
X117800000Y-52500000D03*
%TO.P,DR2,15,PWMB*%
%TO.N,/PA5_DR2PWMB*%
X117800000Y-67740000D03*
%TO.P,DR2,16,BIN2*%
%TO.N,/PB10_DR2BIN2*%
X120340000Y-67740000D03*
%TO.P,DR2,17,BIN1*%
%TO.N,/PB2_DR2BIN1*%
X122880000Y-67740000D03*
%TO.P,DR2,18,GND*%
%TO.N,/GND23*%
X115260000Y-67740000D03*
X115260000Y-52500000D03*
%TO.P,DR2,19,STBY*%
%TO.N,/PB1_DRxSTBY*%
X125420000Y-67740000D03*
%TO.P,DR2,20,VCC*%
%TO.N,/5V98*%
X130500000Y-52500000D03*
%TO.P,DR2,21,AIN1*%
%TO.N,/PB0_DR2AIN1*%
X127960000Y-67740000D03*
%TO.P,DR2,22,AIN2*%
%TO.N,/PA4_DR2AIN2*%
X130500000Y-67740000D03*
%TO.P,DR2,23,PWMA*%
%TO.N,/PA3_DR2PWMA*%
X133040000Y-67740000D03*
%TO.P,DR2,24,VM1*%
%TO.N,+12V*%
X133040000Y-52500000D03*
%TD*%
D13*
%TO.P,MJ2,1,MV-*%
%TO.N,Net-(MJ2-MV-)*%
X144890000Y-43620000D03*
D14*
%TO.P,MJ2,2,ENC_VCC*%
%TO.N,/5V98*%
X146890000Y-43620000D03*
%TO.P,MJ2,3,ENC_CH2*%
%TO.N,/PA8_MJ2CH2*%
X148890000Y-43620000D03*
%TO.P,MJ2,4,ENC_CH1*%
%TO.N,/PA9_MJ2CH1*%
X150890000Y-43620000D03*
%TO.P,MJ2,5,ENC_GND*%
%TO.N,/GND23*%
X152890000Y-43620000D03*
%TO.P,MJ2,6,MV+*%
%TO.N,Net-(MJ2-MV+)*%
X154890000Y-43620000D03*
%TD*%
D10*
%TO.P,R3,1*%
%TO.N,/5V99*%
X138000000Y-114810000D03*
%TO.P,R3,2*%
%TO.N,/PB8_SCL*%
X138000000Y-107190000D03*
%TD*%
D12*
%TO.P,U1,1,VBAT*%
%TO.N,unconnected-(U1-VBAT-Pad1)*%
X158320000Y-76280000D03*
%TO.P,U1,2,PC13*%
%TO.N,unconnected-(U1-PC13-Pad2)*%
X155780000Y-76280000D03*
%TO.P,U1,3,PC14*%
%TO.N,/PC14_DR1BIN1*%
X153240000Y-76280000D03*
%TO.P,U1,4,PC15*%
%TO.N,/PC15_DR1BIN2*%
X150700000Y-76280000D03*
%TO.P,U1,7,NRST*%
%TO.N,unconnected-(U1-NRST-Pad7)*%
X148160000Y-76280000D03*
%TO.P,U1,10,PA0*%
%TO.N,/PA0_MJ3CH1*%
X145620000Y-76280000D03*
%TO.P,U1,11,PA1*%
%TO.N,/PA1_MJ3CH2*%
X143080000Y-76280000D03*
%TO.P,U1,12,PA2*%
%TO.N,/PA2_DR1PWMB*%
X140540000Y-76280000D03*
%TO.P,U1,13,PA3*%
%TO.N,/PA3_DR2PWMA*%
X138000000Y-76280000D03*
%TO.P,U1,14,PA4*%
%TO.N,/PA4_DR2AIN2*%
X135460000Y-76280000D03*
%TO.P,U1,15,PA5*%
%TO.N,/PA5_DR2PWMB*%
X132920000Y-76280000D03*
%TO.P,U1,16,PA6*%
%TO.N,/PA6_MJ4CH2*%
X130380000Y-76280000D03*
%TO.P,U1,17,PA7*%
%TO.N,/PA7_M41CH1*%
X127840000Y-76280000D03*
%TO.P,U1,18,PB0*%
%TO.N,/PB0_DR2AIN1*%
X125300000Y-76280000D03*
%TO.P,U1,19,PB1*%
%TO.N,/PB1_DRxSTBY*%
X122760000Y-76280000D03*
%TO.P,U1,20,PB2*%
%TO.N,/PB2_DR2BIN1*%
X120220000Y-76280000D03*
%TO.P,U1,21,PB10*%
%TO.N,/PB10_DR2BIN2*%
X117680000Y-76280000D03*
%TO.P,U1,23,GND*%
%TO.N,unconnected-(U1-GND-Pad23)*%
X112600000Y-76280000D03*
%TO.P,U1,24,3V3*%
%TO.N,/GND23*%
X115140000Y-76280000D03*
%TO.P,U1,25,PB12*%
%TO.N,unconnected-(U1-PB12-Pad25)*%
X110060000Y-91500000D03*
%TO.P,U1,26,PB13*%
%TO.N,unconnected-(U1-PB13-Pad26)*%
X112600000Y-91500000D03*
%TO.P,U1,27,PB14*%
%TO.N,unconnected-(U1-PB14-Pad27)*%
X115140000Y-91500000D03*
%TO.P,U1,28,PB15*%
%TO.N,/PB15_D1*%
X117680000Y-91500000D03*
%TO.P,U1,29,PA8*%
%TO.N,/PA8_MJ2CH2*%
X120220000Y-91500000D03*
%TO.P,U1,30,PA9*%
%TO.N,/PA9_MJ2CH1*%
X122760000Y-91500000D03*
%TO.P,U1,31,PA10*%
%TO.N,/PA10_D2*%
X125300000Y-91500000D03*
%TO.P,U1,32,PA11*%
%TO.N,unconnected-(U1-PA11-Pad32)*%
X127840000Y-91500000D03*
%TO.P,U1,33,PA12*%
%TO.N,unconnected-(U1-PA12-Pad33)*%
X130380000Y-91500000D03*
%TO.P,U1,38,PA15*%
%TO.N,/PA15_RS1*%
X132920000Y-91500000D03*
%TO.P,U1,39,PB3*%
%TO.N,/PB3_DR1PWMA*%
X135460000Y-91500000D03*
%TO.P,U1,40,PB4*%
%TO.N,/PB4_DR1AIN1*%
X138000000Y-91500000D03*
%TO.P,U1,41,PB5*%
%TO.N,/PB5_DR1AIN1*%
X140540000Y-91500000D03*
%TO.P,U1,42,PB6*%
%TO.N,/PB6_MJ1CH1*%
X143080000Y-91500000D03*
%TO.P,U1,43,PB7*%
%TO.N,/PB7_MJ1CH2*%
X145620000Y-91500000D03*
%TO.P,U1,45,PB8*%
%TO.N,/PB8_SCL*%
X148160000Y-91500000D03*
%TO.P,U1,46,PB9*%
%TO.N,/PB9_SDA*%
X150700000Y-91500000D03*
%TO.P,U1,47,GND*%
%TO.N,/GND47*%
X155780000Y-91500000D03*
%TO.P,U1,48,3V3*%
%TO.N,unconnected-(U1-3V3-Pad48)*%
X158320000Y-91500000D03*
%TO.P,U1,98,5V*%
%TO.N,/5V98*%
X110060000Y-76280000D03*
%TO.P,U1,99,5V*%
%TO.N,/5V99*%
X153240000Y-91500000D03*
%TD*%
D15*
%TO.P,J1,1,Pin_1*%
%TO.N,GND*%
X166000000Y-68500000D03*
D16*
%TO.P,J1,2,Pin_2*%
%TO.N,+12V*%
X166000000Y-63500000D03*
%TD*%
D17*
%TO.P,MJ4,1,MV-*%
%TO.N,Net-(MJ4-MV-)*%
X109050000Y-44000000D03*
D18*
%TO.P,MJ4,2,ENC_VCC*%
%TO.N,/5V98*%
X109050000Y-46000000D03*
%TO.P,MJ4,3,ENC_CH2*%
%TO.N,/PA6_MJ4CH2*%
X109050000Y-48000000D03*
%TO.P,MJ4,4,ENC_CH1*%
%TO.N,/PA7_M41CH1*%
X109050000Y-50000000D03*
%TO.P,MJ4,5,ENC_GND*%
%TO.N,/GND23*%
X109050000Y-52000000D03*
%TO.P,MJ4,6,MV+*%
%TO.N,Net-(MJ4-MV+)*%
X109050000Y-54000000D03*
%TD*%
D19*
%TO.P,D2,1,K*%
%TO.N,Net-(D1-K)*%
X115994869Y-136759430D03*
D20*
%TO.P,D2,2,A*%
%TO.N,/PA10_D2*%
X115994869Y-134219430D03*
%TD*%
D21*
%TO.P,MJ3,1,MV-*%
%TO.N,Net-(MJ3-MV-)*%
X128890000Y-44620000D03*
D14*
%TO.P,MJ3,2,ENC_VCC*%
%TO.N,/5V98*%
X126890000Y-44620000D03*
%TO.P,MJ3,3,ENC_CH2*%
%TO.N,/PA1_MJ3CH2*%
X124890000Y-44620000D03*
%TO.P,MJ3,4,ENC_CH1*%
%TO.N,/PA0_MJ3CH1*%
X122890000Y-44620000D03*
%TO.P,MJ3,5,ENC_GND*%
%TO.N,/GND23*%
X120890000Y-44620000D03*
%TO.P,MJ3,6,MV+*%
%TO.N,Net-(MJ3-MV+)*%
X118890000Y-44620000D03*
%TD*%
D19*
%TO.P,D1,1,K*%
%TO.N,Net-(D1-K)*%
X108999691Y-136759430D03*
D20*
%TO.P,D1,2,A*%
%TO.N,/PB15_D1*%
X108999691Y-134219430D03*
%TD*%
D17*
%TO.P,MJ1,1,MV-*%
%TO.N,Net-(MJ1-MV-)*%
X166500000Y-44000000D03*
D18*
%TO.P,MJ1,2,ENC_VCC*%
%TO.N,/5V98*%
X166500000Y-46000000D03*
%TO.P,MJ1,3,ENC_CH2*%
%TO.N,/PB7_MJ1CH2*%
X166500000Y-48000000D03*
%TO.P,MJ1,4,ENC_CH1*%
%TO.N,/PB6_MJ1CH1*%
X166500000Y-50000000D03*
%TO.P,MJ1,5,ENC_GND*%
%TO.N,/GND23*%
X166500000Y-52000000D03*
%TO.P,MJ1,6,MV+*%
%TO.N,Net-(MJ1-MV+)*%
X166500000Y-54000000D03*
%TD*%
D10*
%TO.P,R2,1*%
%TO.N,/5V99*%
X131975312Y-112598279D03*
%TO.P,R2,2*%
%TO.N,/PB9_SDA*%
X131975312Y-104978279D03*
%TD*%
D11*
%TO.P,S1,3,~{Alert}*%
%TO.N,unconnected-(S1-~{Alert}-Pad3)*%
X126250000Y-107270000D03*
%TO.P,S1,4,SDA*%
%TO.N,/PB9_SDA*%
X126250000Y-104730000D03*
%TO.P,S1,5,SCL*%
%TO.N,/PB8_SCL*%
X126250000Y-102190000D03*
%TO.P,S1,6,VS*%
%TO.N,/5V99*%
X126250000Y-97110000D03*
%TO.P,S1,7,GND*%
%TO.N,/GND47*%
X126250000Y-99650000D03*
%TO.P,S1,8,Vbus*%
%TO.N,/S1Vbus*%
X126250000Y-109810000D03*
%TO.P,S1,9,Vin-*%
X126250000Y-112350000D03*
%TO.P,S1,10,Vin+*%
%TO.N,unconnected-(S1-Vin+-Pad10)*%
X126250000Y-114890000D03*
%TD*%
%TO.P,S2,3,~{Alert}*%
%TO.N,unconnected-(S2-~{Alert}-Pad3)*%
X143750000Y-104730000D03*
%TO.P,S2,4,SDA*%
%TO.N,/PB9_SDA*%
X143750000Y-107270000D03*
%TO.P,S2,5,SCL*%
%TO.N,/PB8_SCL*%
X143750000Y-109810000D03*
%TO.P,S2,6,VS*%
%TO.N,/5V99*%
X143750000Y-114890000D03*
%TO.P,S2,7,GND*%
%TO.N,/GND47*%
X143750000Y-112350000D03*
%TO.P,S2,8,Vbus*%
%TO.N,/S2Vbus*%
X143750000Y-102190000D03*
%TO.P,S2,9,Vin-*%
X143750000Y-99650000D03*
%TO.P,S2,10,Vin+*%
%TO.N,unconnected-(S2-Vin+-Pad10)*%
X143750000Y-97110000D03*
%TD*%
D12*
%TO.P,DR1,1,AO1*%
%TO.N,Net-(MJ1-MV+)*%
X151510000Y-52380000D03*
%TO.P,DR1,3,PGND1*%
%TO.N,GND*%
X154050000Y-52380000D03*
%TO.P,DR1,5,AO2*%
%TO.N,Net-(MJ1-MV-)*%
X148970000Y-52380000D03*
%TO.P,DR1,7,BO2*%
%TO.N,Net-(MJ2-MV-)*%
X146430000Y-52380000D03*
%TO.P,DR1,11,BO1*%
%TO.N,Net-(MJ2-MV+)*%
X143890000Y-52380000D03*
%TO.P,DR1,15,PWMB*%
%TO.N,/PA2_DR1PWMB*%
X143890000Y-67620000D03*
%TO.P,DR1,16,BIN2*%
%TO.N,/PC15_DR1BIN2*%
X146430000Y-67620000D03*
%TO.P,DR1,17,BIN1*%
%TO.N,/PC14_DR1BIN1*%
X148970000Y-67620000D03*
%TO.P,DR1,18,GND*%
%TO.N,/GND23*%
X141350000Y-67620000D03*
X141350000Y-52380000D03*
%TO.P,DR1,19,STBY*%
%TO.N,/PB1_DRxSTBY*%
X151510000Y-67620000D03*
%TO.P,DR1,20,VCC*%
%TO.N,/5V98*%
X156590000Y-52380000D03*
%TO.P,DR1,21,AIN1*%
%TO.N,/PB4_DR1AIN1*%
X154050000Y-67620000D03*
%TO.P,DR1,22,AIN2*%
%TO.N,/PB5_DR1AIN1*%
X156590000Y-67620000D03*
%TO.P,DR1,23,PWMA*%
%TO.N,/PB3_DR1PWMA*%
X159130000Y-67620000D03*
%TO.P,DR1,24,VM1*%
%TO.N,+12V*%
X159130000Y-52380000D03*
%TD*%
D22*
%TO.N,Net-(MJ1-MV-)*%
X148970000Y-52380000D02*
X148970000Y-48530000D01*
X159500000Y-44000000D02*
X166500000Y-44000000D01*
X148970000Y-48530000D02*
X149500000Y-48000000D01*
X149500000Y-48000000D02*
X155500000Y-48000000D01*
X155500000Y-48000000D02*
X159500000Y-44000000D01*
D23*
%TO.N,/GND23*%
X120890000Y-44620000D02*
X120890000Y-41110000D01*
X120890000Y-41110000D02*
X121000000Y-41000000D01*
X169000000Y-50500000D02*
X169000000Y-44000000D01*
X141350000Y-67620000D02*
X139730000Y-66000000D01*
X167500000Y-52000000D02*
X169000000Y-50500000D01*
X115260000Y-52500000D02*
X115260000Y-44240000D01*
X166000000Y-41000000D02*
X153000000Y-41000000D01*
X169000000Y-44000000D02*
X166000000Y-41000000D01*
X115260000Y-44240000D02*
X118500000Y-41000000D01*
X106500000Y-54550000D02*
X109050000Y-52000000D01*
X115140000Y-76280000D02*
X115140000Y-76140000D01*
X141350000Y-41150000D02*
X141500000Y-41000000D01*
X115140000Y-76140000D02*
X106500000Y-67500000D01*
X166500000Y-52000000D02*
X167500000Y-52000000D01*
X115260000Y-76160000D02*
X115140000Y-76280000D01*
X110000000Y-52500000D02*
X115260000Y-52500000D01*
X152890000Y-43620000D02*
X152890000Y-41110000D01*
X153000000Y-41000000D02*
X151000000Y-41000000D01*
X117000000Y-66000000D02*
X115260000Y-67740000D01*
X121000000Y-41000000D02*
X141500000Y-41000000D01*
X141350000Y-52380000D02*
X141350000Y-41150000D01*
X118500000Y-41000000D02*
X121000000Y-41000000D01*
X109500000Y-52000000D02*
X110000000Y-52500000D01*
X106500000Y-67500000D02*
X106500000Y-54550000D01*
X109050000Y-52000000D02*
X109500000Y-52000000D01*
X152890000Y-41110000D02*
X153000000Y-41000000D01*
X141500000Y-41000000D02*
X151000000Y-41000000D01*
X139730000Y-66000000D02*
X117000000Y-66000000D01*
X115260000Y-67740000D02*
X115260000Y-76160000D01*
D22*
%TO.N,Net-(MJ2-MV+)*%
X154890000Y-45610000D02*
X154890000Y-43620000D01*
X147000000Y-46000000D02*
X154500000Y-46000000D01*
X143890000Y-49110000D02*
X147000000Y-46000000D01*
X143890000Y-52380000D02*
X143890000Y-49110000D01*
X154500000Y-46000000D02*
X154890000Y-45610000D01*
D24*
%TO.N,/PA2_DR1PWMB*%
X140540000Y-76280000D02*
X140540000Y-70970000D01*
X140540000Y-70970000D02*
X143890000Y-67620000D01*
D22*
%TO.N,Net-(MJ1-MV+)*%
X151510000Y-50490000D02*
X152000000Y-50000000D01*
X152000000Y-50000000D02*
X160000000Y-50000000D01*
X151510000Y-52380000D02*
X151510000Y-50490000D01*
X164000000Y-54000000D02*
X166500000Y-54000000D01*
X160000000Y-50000000D02*
X164000000Y-54000000D01*
%TO.N,GND*%
X166000000Y-68500000D02*
X164000000Y-68500000D01*
X127960000Y-52500000D02*
X131460000Y-56000000D01*
X154050000Y-53450000D02*
X154050000Y-52380000D01*
X164000000Y-68500000D02*
X151500000Y-56000000D01*
X151500000Y-56000000D02*
X154050000Y-53450000D01*
X131460000Y-56000000D02*
X151500000Y-56000000D01*
D24*
%TO.N,/PB3_DR1PWMA*%
X160000000Y-77500000D02*
X160000000Y-68490000D01*
X158500000Y-79000000D02*
X160000000Y-77500000D01*
X135460000Y-86040000D02*
X142500000Y-79000000D01*
X135460000Y-91500000D02*
X135460000Y-86040000D01*
X160000000Y-68490000D02*
X159130000Y-67620000D01*
X142500000Y-79000000D02*
X158500000Y-79000000D01*
D22*
%TO.N,Net-(MJ3-MV+)*%
X122500000Y-49580000D02*
X122500000Y-49500000D01*
X125420000Y-52500000D02*
X122500000Y-49580000D01*
X118890000Y-45890000D02*
X118890000Y-44620000D01*
X122500000Y-49500000D02*
X118890000Y-45890000D01*
D24*
%TO.N,/PA3_DR2PWMA*%
X138000000Y-76280000D02*
X138000000Y-72700000D01*
X138000000Y-72700000D02*
X133040000Y-67740000D01*
%TO.N,/PA5_DR2PWMB*%
X126640000Y-70000000D02*
X120060000Y-70000000D01*
X120060000Y-70000000D02*
X117800000Y-67740000D01*
X132920000Y-76280000D02*
X126640000Y-70000000D01*
D22*
%TO.N,Net-(MJ4-MV+)*%
X112500000Y-55000000D02*
X116500000Y-55000000D01*
X116500000Y-55000000D02*
X117800000Y-53700000D01*
X117800000Y-53700000D02*
X117800000Y-52500000D01*
X109050000Y-54000000D02*
X111500000Y-54000000D01*
X111500000Y-54000000D02*
X112500000Y-55000000D01*
D23*
%TO.N,/GND47*%
X122462868Y-130501715D02*
X120500000Y-128538847D01*
X155780000Y-91500000D02*
X155780000Y-100320000D01*
X131498285Y-130501715D02*
X122462868Y-130501715D01*
X155780000Y-100320000D02*
X143750000Y-112350000D01*
X120500000Y-105400000D02*
X126250000Y-99650000D01*
X122462868Y-130501715D02*
X120500000Y-132464583D01*
X120500000Y-132464583D02*
X120500000Y-138740010D01*
X140000000Y-116100000D02*
X140000000Y-122000000D01*
X120500000Y-128538847D02*
X120500000Y-105400000D01*
X140000000Y-122000000D02*
X131498285Y-130501715D01*
X120500000Y-138740010D02*
X117267540Y-141972470D01*
X143750000Y-112350000D02*
X140000000Y-116100000D01*
D24*
%TO.N,/PB9_SDA*%
X126498279Y-104978279D02*
X126250000Y-104730000D01*
X131975312Y-104978279D02*
X126498279Y-104978279D01*
X141458279Y-104978279D02*
X131975312Y-104978279D01*
X143750000Y-107270000D02*
X141458279Y-104978279D01*
%TO.N,/PB8_SCL*%
X148160000Y-105400000D02*
X143750000Y-109810000D01*
X148160000Y-91500000D02*
X148160000Y-105400000D01*
%TD*%
%TA.AperFunction,Conductor*%
%TO.N,/GND47*%
G36*
X172192539Y-35256696D02*
G01*
X172238294Y-35309500D01*
X172249500Y-35361011D01*
X172249500Y-144612011D01*
X172229815Y-144679050D01*
X172177011Y-144724805D01*
X172125500Y-144736011D01*
X97874500Y-144736011D01*
X97807461Y-144716326D01*
X97761706Y-144663522D01*
X97750500Y-144612011D01*
X97750500Y-141870118D01*
X108347040Y-141870118D01*
X108347040Y-142074821D01*
X108379062Y-142277004D01*
X108442321Y-142471693D01*
X108506231Y-142597123D01*
X108535125Y-142653829D01*
X108535255Y-142654083D01*
X108655568Y-142819683D01*
X108800326Y-142964441D01*
X108920766Y-143051944D01*
X108965930Y-143084757D01*
X109082147Y-143143973D01*
X109148316Y-143177688D01*
X109148318Y-143177688D01*
X109148321Y-143177690D01*
X109252677Y-143211597D01*
X109343005Y-143240947D01*
X109444097Y-143256958D01*
X109545188Y-143272970D01*
X109545189Y-143272970D01*
X109749891Y-143272970D01*
X109749892Y-143272970D01*
X109952074Y-143240947D01*
X110146759Y-143177690D01*
X110329150Y-143084757D01*
X110422130Y-143017202D01*
X110494753Y-142964441D01*
X110494755Y-142964438D01*
X110494759Y-142964436D01*
X110639506Y-142819689D01*
X110639508Y-142819685D01*
X110639511Y-142819683D01*
X110692272Y-142747060D01*
X110759827Y-142654080D01*
X110852760Y-142471689D01*
X110916017Y-142277004D01*
X110948040Y-142074822D01*
X110948040Y-141870152D01*
X115967540Y-141870152D01*
X115967540Y-142074787D01*
X115999549Y-142276887D01*
X116062784Y-142471501D01*
X116155681Y-142653820D01*
X116155687Y-142653829D01*
X116188063Y-142698391D01*
X116188064Y-142698392D01*
X116867540Y-142018916D01*
X116867540Y-142025131D01*
X116894799Y-142126864D01*
X116947460Y-142218076D01*
X117021934Y-142292550D01*
X117113146Y-142345211D01*
X117214879Y-142372470D01*
X117221093Y-142372470D01*
X116541616Y-143051944D01*
X116586190Y-143084329D01*
X116768508Y-143177225D01*
X116963122Y-143240460D01*
X117165223Y-143272470D01*
X117369857Y-143272470D01*
X117571957Y-143240460D01*
X117766571Y-143177225D01*
X117948889Y-143084329D01*
X117993461Y-143051944D01*
X117313987Y-142372470D01*
X117320201Y-142372470D01*
X117421934Y-142345211D01*
X117513146Y-142292550D01*
X117587620Y-142218076D01*
X117640281Y-142126864D01*
X117667540Y-142025131D01*
X117667540Y-142018917D01*
X118347014Y-142698391D01*
X118379399Y-142653819D01*
X118472295Y-142471501D01*
X118535530Y-142276887D01*
X118567540Y-142074787D01*
X118567540Y-141870152D01*
X118535530Y-141668052D01*
X118472295Y-141473438D01*
X118379399Y-141291120D01*
X118347014Y-141246547D01*
X118347014Y-141246546D01*
X117667540Y-141926021D01*
X117667540Y-141919809D01*
X117640281Y-141818076D01*
X117587620Y-141726864D01*
X117513146Y-141652390D01*
X117421934Y-141599729D01*
X117320201Y-141572470D01*
X117313986Y-141572470D01*
X117993462Y-140892994D01*
X117993461Y-140892993D01*
X117948899Y-140860617D01*
X117948890Y-140860611D01*
X117766571Y-140767714D01*
X117571957Y-140704479D01*
X117369857Y-140672470D01*
X117165223Y-140672470D01*
X116963122Y-140704479D01*
X116768508Y-140767714D01*
X116586184Y-140860613D01*
X116541617Y-140892993D01*
X116541617Y-140892994D01*
X117221094Y-141572470D01*
X117214879Y-141572470D01*
X117113146Y-141599729D01*
X117021934Y-141652390D01*
X116947460Y-141726864D01*
X116894799Y-141818076D01*
X116867540Y-141919809D01*
X116867540Y-141926023D01*
X116188064Y-141246547D01*
X116188063Y-141246547D01*
X116155683Y-141291114D01*
X116062784Y-141473438D01*
X115999549Y-141668052D01*
X115967540Y-141870152D01*
X110948040Y-141870152D01*
X110948040Y-141870118D01*
X110939797Y-141818076D01*
X110916017Y-141667935D01*
X110884998Y-141572470D01*
X110852760Y-141473251D01*
X110852758Y-141473248D01*
X110852758Y-141473246D01*
X110759959Y-141291120D01*
X110759827Y-141290860D01*
X110727632Y-141246547D01*
X110639511Y-141125256D01*
X110494753Y-140980498D01*
X110329153Y-140860185D01*
X110329152Y-140860184D01*
X110329150Y-140860183D01*
X110272193Y-140831161D01*
X110146763Y-140767251D01*
X109952074Y-140703992D01*
X109777535Y-140676348D01*
X109749892Y-140671970D01*
X109545188Y-140671970D01*
X109520869Y-140675821D01*
X109343005Y-140703992D01*
X109148316Y-140767251D01*
X108965926Y-140860185D01*
X108800326Y-140980498D01*
X108655568Y-141125256D01*
X108535255Y-141290856D01*
X108442321Y-141473246D01*
X108379062Y-141667935D01*
X108347040Y-141870118D01*
X97750500Y-141870118D01*
X97750500Y-134109208D01*
X107599191Y-134109208D01*
X107599191Y-134329651D01*
X107633676Y-134547382D01*
X107701794Y-134757033D01*
X107701795Y-134757036D01*
X107801878Y-134953455D01*
X107931443Y-135131788D01*
X107931447Y-135131793D01*
X107981619Y-135181965D01*
X108015104Y-135243288D01*
X108010120Y-135312980D01*
X107968248Y-135368913D01*
X107937272Y-135385828D01*
X107857360Y-135415633D01*
X107857355Y-135415636D01*
X107742146Y-135501882D01*
X107742143Y-135501885D01*
X107655897Y-135617094D01*
X107655893Y-135617101D01*
X107605599Y-135751947D01*
X107599192Y-135811546D01*
X107599192Y-135811553D01*
X107599191Y-135811565D01*
X107599191Y-137707300D01*
X107599192Y-137707306D01*
X107605599Y-137766913D01*
X107655893Y-137901758D01*
X107655897Y-137901765D01*
X107742143Y-138016974D01*
X107742146Y-138016977D01*
X107857355Y-138103223D01*
X107857362Y-138103227D01*
X107992208Y-138153521D01*
X107992207Y-138153521D01*
X107999135Y-138154265D01*
X108051818Y-138159930D01*
X109947563Y-138159929D01*
X110007174Y-138153521D01*
X110142022Y-138103226D01*
X110257237Y-138016976D01*
X110343487Y-137901761D01*
X110393782Y-137766913D01*
X110400191Y-137707303D01*
X110400190Y-135811558D01*
X110393782Y-135751947D01*
X110343487Y-135617099D01*
X110343486Y-135617098D01*
X110343484Y-135617094D01*
X110257238Y-135501885D01*
X110257235Y-135501882D01*
X110142026Y-135415636D01*
X110142019Y-135415632D01*
X110062110Y-135385828D01*
X110006176Y-135343957D01*
X109981759Y-135278492D01*
X109996611Y-135210219D01*
X110017760Y-135181967D01*
X110067933Y-135131795D01*
X110197506Y-134953452D01*
X110297586Y-134757036D01*
X110365706Y-134547381D01*
X110400191Y-134329652D01*
X110400191Y-134109208D01*
X114594369Y-134109208D01*
X114594369Y-134329651D01*
X114628854Y-134547382D01*
X114696972Y-134757033D01*
X114696973Y-134757036D01*
X114797056Y-134953455D01*
X114926621Y-135131788D01*
X114926625Y-135131793D01*
X114976797Y-135181965D01*
X115010282Y-135243288D01*
X115005298Y-135312980D01*
X114963426Y-135368913D01*
X114932450Y-135385828D01*
X114852538Y-135415633D01*
X114852533Y-135415636D01*
X114737324Y-135501882D01*
X114737321Y-135501885D01*
X114651075Y-135617094D01*
X114651071Y-135617101D01*
X114600777Y-135751947D01*
X114594370Y-135811546D01*
X114594370Y-135811553D01*
X114594369Y-135811565D01*
X114594369Y-137707300D01*
X114594370Y-137707306D01*
X114600777Y-137766913D01*
X114651071Y-137901758D01*
X114651075Y-137901765D01*
X114737321Y-138016974D01*
X114737324Y-138016977D01*
X114852533Y-138103223D01*
X114852540Y-138103227D01*
X114987386Y-138153521D01*
X114987385Y-138153521D01*
X114994313Y-138154265D01*
X115046996Y-138159930D01*
X116942741Y-138159929D01*
X117002352Y-138153521D01*
X117137200Y-138103226D01*
X117252415Y-138016976D01*
X117338665Y-137901761D01*
X117388960Y-137766913D01*
X117395369Y-137707303D01*
X117395368Y-135811558D01*
X117388960Y-135751947D01*
X117338665Y-135617099D01*
X117338664Y-135617098D01*
X117338662Y-135617094D01*
X117252416Y-135501885D01*
X117252413Y-135501882D01*
X117137204Y-135415636D01*
X117137197Y-135415632D01*
X117057288Y-135385828D01*
X117001354Y-135343957D01*
X116976937Y-135278492D01*
X116991789Y-135210219D01*
X117012938Y-135181967D01*
X117063111Y-135131795D01*
X117192684Y-134953452D01*
X117292764Y-134757036D01*
X117360884Y-134547381D01*
X117395369Y-134329652D01*
X117395369Y-134109208D01*
X117360884Y-133891479D01*
X117292764Y-133681824D01*
X117292764Y-133681823D01*
X117258106Y-133613805D01*
X117192684Y-133485408D01*
X117176129Y-133462622D01*
X117063116Y-133307071D01*
X117063112Y-133307066D01*
X116907232Y-133151186D01*
X116907227Y-133151182D01*
X116768718Y-133050550D01*
X116728894Y-133021617D01*
X116728893Y-133021616D01*
X116728891Y-133021615D01*
X116665965Y-132989552D01*
X116598358Y-132955104D01*
X120962368Y-132955104D01*
X120962368Y-133128326D01*
X120989466Y-133299416D01*
X121042995Y-133464160D01*
X121121636Y-133618503D01*
X121223454Y-133758643D01*
X121345940Y-133881129D01*
X121486080Y-133982947D01*
X121640423Y-134061588D01*
X121805167Y-134115117D01*
X121976257Y-134142215D01*
X121976258Y-134142215D01*
X122949478Y-134142215D01*
X122949479Y-134142215D01*
X123120569Y-134115117D01*
X123285313Y-134061588D01*
X123439656Y-133982947D01*
X123579796Y-133881129D01*
X123702282Y-133758643D01*
X123804100Y-133618503D01*
X123882741Y-133464160D01*
X123936270Y-133299416D01*
X123963368Y-133128326D01*
X123963368Y-132955104D01*
X123936270Y-132784014D01*
X123882741Y-132619270D01*
X123804100Y-132464927D01*
X123702282Y-132324787D01*
X123579796Y-132202301D01*
X123439656Y-132100483D01*
X123285313Y-132021842D01*
X123120569Y-131968313D01*
X123120567Y-131968312D01*
X123120566Y-131968312D01*
X122989139Y-131947496D01*
X122949479Y-131941215D01*
X121976257Y-131941215D01*
X121936596Y-131947496D01*
X121805170Y-131968312D01*
X121640420Y-132021843D01*
X121486079Y-132100483D01*
X121406124Y-132158574D01*
X121345940Y-132202301D01*
X121345938Y-132202303D01*
X121345937Y-132202303D01*
X121223456Y-132324784D01*
X121223456Y-132324785D01*
X121223454Y-132324787D01*
X121179727Y-132384971D01*
X121121636Y-132464926D01*
X121042996Y-132619267D01*
X120989465Y-132784017D01*
X120978474Y-132853415D01*
X120962368Y-132955104D01*
X116598358Y-132955104D01*
X116532475Y-132921534D01*
X116532472Y-132921533D01*
X116322821Y-132853415D01*
X116213955Y-132836172D01*
X116105091Y-132818930D01*
X115884647Y-132818930D01*
X115812070Y-132830425D01*
X115666916Y-132853415D01*
X115457265Y-132921533D01*
X115457262Y-132921534D01*
X115260843Y-133021617D01*
X115082510Y-133151182D01*
X115082505Y-133151186D01*
X114926625Y-133307066D01*
X114926621Y-133307071D01*
X114797056Y-133485404D01*
X114696973Y-133681823D01*
X114696972Y-133681826D01*
X114628854Y-133891477D01*
X114594369Y-134109208D01*
X110400191Y-134109208D01*
X110365706Y-133891479D01*
X110297586Y-133681824D01*
X110297586Y-133681823D01*
X110262928Y-133613805D01*
X110197506Y-133485408D01*
X110180951Y-133462622D01*
X110067938Y-133307071D01*
X110067934Y-133307066D01*
X109912054Y-133151186D01*
X109912049Y-133151182D01*
X109733716Y-133021617D01*
X109733715Y-133021616D01*
X109733713Y-133021615D01*
X109670787Y-132989552D01*
X109537297Y-132921534D01*
X109537294Y-132921533D01*
X109327643Y-132853415D01*
X109218777Y-132836172D01*
X109109913Y-132818930D01*
X108889469Y-132818930D01*
X108816892Y-132830425D01*
X108671738Y-132853415D01*
X108462087Y-132921533D01*
X108462084Y-132921534D01*
X108265665Y-133021617D01*
X108087332Y-133151182D01*
X108087327Y-133151186D01*
X107931447Y-133307066D01*
X107931443Y-133307071D01*
X107801878Y-133485404D01*
X107701795Y-133681823D01*
X107701794Y-133681826D01*
X107633676Y-133891477D01*
X107599191Y-134109208D01*
X97750500Y-134109208D01*
X97750500Y-130415143D01*
X120962868Y-130415143D01*
X120962868Y-130588286D01*
X120989953Y-130759299D01*
X121043459Y-130923972D01*
X121122063Y-131078239D01*
X121223835Y-131218317D01*
X121308274Y-131302756D01*
X122062868Y-130548162D01*
X122062868Y-130554376D01*
X122090127Y-130656109D01*
X122142788Y-130747321D01*
X122217262Y-130821795D01*
X122308474Y-130874456D01*
X122410207Y-130901715D01*
X122416420Y-130901715D01*
X121758655Y-131559477D01*
X121805287Y-131574629D01*
X121976297Y-131601715D01*
X122949439Y-131601715D01*
X123120450Y-131574629D01*
X123120453Y-131574628D01*
X123167079Y-131559478D01*
X123167079Y-131559477D01*
X122509316Y-130901715D01*
X122515529Y-130901715D01*
X122617262Y-130874456D01*
X122708474Y-130821795D01*
X122782948Y-130747321D01*
X122835609Y-130656109D01*
X122862868Y-130554376D01*
X122862868Y-130548163D01*
X123617460Y-131302756D01*
X123617461Y-131302756D01*
X123701901Y-131218316D01*
X123803672Y-131078239D01*
X123882276Y-130923972D01*
X123935782Y-130759299D01*
X123962868Y-130588286D01*
X123962868Y-130415143D01*
X123935782Y-130244130D01*
X123882276Y-130079457D01*
X123803672Y-129925190D01*
X123701900Y-129785112D01*
X123617461Y-129700673D01*
X123617460Y-129700673D01*
X122862868Y-130455265D01*
X122862868Y-130449054D01*
X122835609Y-130347321D01*
X122782948Y-130256109D01*
X122708474Y-130181635D01*
X122617262Y-130128974D01*
X122515529Y-130101715D01*
X122509317Y-130101715D01*
X123167079Y-129443951D01*
X123167079Y-129443950D01*
X123120454Y-129428801D01*
X122949439Y-129401715D01*
X121976297Y-129401715D01*
X121805282Y-129428801D01*
X121758656Y-129443950D01*
X121758656Y-129443951D01*
X122416420Y-130101715D01*
X122410207Y-130101715D01*
X122308474Y-130128974D01*
X122217262Y-130181635D01*
X122142788Y-130256109D01*
X122090127Y-130347321D01*
X122062868Y-130449054D01*
X122062868Y-130455267D01*
X121308274Y-129700673D01*
X121223834Y-129785113D01*
X121122066Y-129925186D01*
X121043459Y-130079457D01*
X120989953Y-130244130D01*
X120962868Y-130415143D01*
X97750500Y-130415143D01*
X97750500Y-127875104D01*
X120962368Y-127875104D01*
X120962368Y-128048326D01*
X120989466Y-128219416D01*
X121042995Y-128384160D01*
X121121636Y-128538503D01*
X121223454Y-128678643D01*
X121345940Y-128801129D01*
X121486080Y-128902947D01*
X121640423Y-128981588D01*
X121805167Y-129035117D01*
X121976257Y-129062215D01*
X121976258Y-129062215D01*
X122949478Y-129062215D01*
X122949479Y-129062215D01*
X123120569Y-129035117D01*
X123285313Y-128981588D01*
X123439656Y-128902947D01*
X123579796Y-128801129D01*
X123702282Y-128678643D01*
X123804100Y-128538503D01*
X123882741Y-128384160D01*
X123936270Y-128219416D01*
X123963368Y-128048326D01*
X123963368Y-127875104D01*
X123936270Y-127704014D01*
X123882741Y-127539270D01*
X123804100Y-127384927D01*
X123702282Y-127244787D01*
X123579796Y-127122301D01*
X123439656Y-127020483D01*
X123285313Y-126941842D01*
X123120569Y-126888313D01*
X123120567Y-126888312D01*
X123120566Y-126888312D01*
X122989139Y-126867496D01*
X122949479Y-126861215D01*
X121976257Y-126861215D01*
X121936596Y-126867496D01*
X121805170Y-126888312D01*
X121640420Y-126941843D01*
X121486079Y-127020483D01*
X121406124Y-127078574D01*
X121345940Y-127122301D01*
X121345938Y-127122303D01*
X121345937Y-127122303D01*
X121223456Y-127244784D01*
X121223456Y-127244785D01*
X121223454Y-127244787D01*
X121179727Y-127304971D01*
X121121636Y-127384926D01*
X121042996Y-127539267D01*
X120989465Y-127704017D01*
X120962368Y-127875104D01*
X97750500Y-127875104D01*
X97750500Y-114803389D01*
X124749500Y-114803389D01*
X124749500Y-114976611D01*
X124776598Y-115147701D01*
X124830127Y-115312445D01*
X124908768Y-115466788D01*
X125010586Y-115606928D01*
X125133072Y-115729414D01*
X125273212Y-115831232D01*
X125427555Y-115909873D01*
X125592299Y-115963402D01*
X125763389Y-115990500D01*
X125763390Y-115990500D01*
X126736610Y-115990500D01*
X126736611Y-115990500D01*
X126907701Y-115963402D01*
X127072445Y-115909873D01*
X127226788Y-115831232D01*
X127366928Y-115729414D01*
X127489414Y-115606928D01*
X127591232Y-115466788D01*
X127669873Y-115312445D01*
X127723402Y-115147701D01*
X127750500Y-114976611D01*
X127750500Y-114803389D01*
X127735336Y-114707648D01*
X136699500Y-114707648D01*
X136699500Y-114912351D01*
X136731522Y-115114534D01*
X136794781Y-115309223D01*
X136887715Y-115491613D01*
X137008028Y-115657213D01*
X137152786Y-115801971D01*
X137301301Y-115909871D01*
X137318390Y-115922287D01*
X137399083Y-115963402D01*
X137500776Y-116015218D01*
X137500778Y-116015218D01*
X137500781Y-116015220D01*
X137605137Y-116049127D01*
X137695465Y-116078477D01*
X137796557Y-116094488D01*
X137897648Y-116110500D01*
X137897649Y-116110500D01*
X138102351Y-116110500D01*
X138102352Y-116110500D01*
X138304534Y-116078477D01*
X138499219Y-116015220D01*
X138681610Y-115922287D01*
X138774590Y-115854732D01*
X138847213Y-115801971D01*
X138847215Y-115801968D01*
X138847219Y-115801966D01*
X138991966Y-115657219D01*
X138991968Y-115657215D01*
X138991971Y-115657213D01*
X139044732Y-115584590D01*
X139112287Y-115491610D01*
X139205220Y-115309219D01*
X139268477Y-115114534D01*
X139300500Y-114912352D01*
X139300500Y-114803389D01*
X142249500Y-114803389D01*
X142249500Y-114976611D01*
X142276598Y-115147701D01*
X142330127Y-115312445D01*
X142408768Y-115466788D01*
X142510586Y-115606928D01*
X142633072Y-115729414D01*
X142773212Y-115831232D01*
X142927555Y-115909873D01*
X143092299Y-115963402D01*
X143263389Y-115990500D01*
X143263390Y-115990500D01*
X144236610Y-115990500D01*
X144236611Y-115990500D01*
X144407701Y-115963402D01*
X144572445Y-115909873D01*
X144726788Y-115831232D01*
X144866928Y-115729414D01*
X144989414Y-115606928D01*
X145091232Y-115466788D01*
X145169873Y-115312445D01*
X145223402Y-115147701D01*
X145250500Y-114976611D01*
X145250500Y-114803389D01*
X145223402Y-114632299D01*
X145169873Y-114467555D01*
X145091232Y-114313212D01*
X144989414Y-114173072D01*
X144866928Y-114050586D01*
X144726788Y-113948768D01*
X144572445Y-113870127D01*
X144407701Y-113816598D01*
X144407699Y-113816597D01*
X144407698Y-113816597D01*
X144276271Y-113795781D01*
X144236611Y-113789500D01*
X143263389Y-113789500D01*
X143223728Y-113795781D01*
X143092302Y-113816597D01*
X142927552Y-113870128D01*
X142773211Y-113948768D01*
X142693256Y-114006859D01*
X142633072Y-114050586D01*
X142633070Y-114050588D01*
X142633069Y-114050588D01*
X142510588Y-114173069D01*
X142510588Y-114173070D01*
X142510586Y-114173072D01*
X142466859Y-114233256D01*
X142408768Y-114313211D01*
X142330128Y-114467552D01*
X142276597Y-114632302D01*
X142264664Y-114707648D01*
X142249500Y-114803389D01*
X139300500Y-114803389D01*
X139300500Y-114707648D01*
X139268477Y-114505466D01*
X139205220Y-114310781D01*
X139205218Y-114310778D01*
X139205218Y-114310776D01*
X139171503Y-114244607D01*
X139112287Y-114128390D01*
X139104556Y-114117749D01*
X138991971Y-113962786D01*
X138847213Y-113818028D01*
X138681613Y-113697715D01*
X138681612Y-113697714D01*
X138681610Y-113697713D01*
X138624653Y-113668691D01*
X138499223Y-113604781D01*
X138304534Y-113541522D01*
X138129995Y-113513878D01*
X138102352Y-113509500D01*
X137897648Y-113509500D01*
X137873329Y-113513351D01*
X137695465Y-113541522D01*
X137500776Y-113604781D01*
X137318386Y-113697715D01*
X137152786Y-113818028D01*
X137008028Y-113962786D01*
X136887715Y-114128386D01*
X136794781Y-114310776D01*
X136731522Y-114505465D01*
X136699500Y-114707648D01*
X127735336Y-114707648D01*
X127723402Y-114632299D01*
X127669873Y-114467555D01*
X127591232Y-114313212D01*
X127489414Y-114173072D01*
X127366928Y-114050586D01*
X127226788Y-113948768D01*
X127072445Y-113870127D01*
X126907701Y-113816598D01*
X126907699Y-113816597D01*
X126907698Y-113816597D01*
X126776271Y-113795781D01*
X126736611Y-113789500D01*
X125763389Y-113789500D01*
X125723728Y-113795781D01*
X125592302Y-113816597D01*
X125427552Y-113870128D01*
X125273211Y-113948768D01*
X125193256Y-114006859D01*
X125133072Y-114050586D01*
X125133070Y-114050588D01*
X125133069Y-114050588D01*
X125010588Y-114173069D01*
X125010588Y-114173070D01*
X125010586Y-114173072D01*
X124966859Y-114233256D01*
X124908768Y-114313211D01*
X124830128Y-114467552D01*
X124776597Y-114632302D01*
X124764664Y-114707648D01*
X124749500Y-114803389D01*
X97750500Y-114803389D01*
X97750500Y-112263389D01*
X124749500Y-112263389D01*
X124749500Y-112436610D01*
X124776597Y-112607697D01*
X124776597Y-112607699D01*
X124776598Y-112607701D01*
X124830127Y-112772445D01*
X124908768Y-112926788D01*
X125010586Y-113066928D01*
X125133072Y-113189414D01*
X125273212Y-113291232D01*
X125427555Y-113369873D01*
X125592299Y-113423402D01*
X125763389Y-113450500D01*
X125763390Y-113450500D01*
X126736610Y-113450500D01*
X126736611Y-113450500D01*
X126907701Y-113423402D01*
X127072445Y-113369873D01*
X127226788Y-113291232D01*
X127366928Y-113189414D01*
X127489414Y-113066928D01*
X127591232Y-112926788D01*
X127669873Y-112772445D01*
X127723402Y-112607701D01*
X127741105Y-112495927D01*
X130674812Y-112495927D01*
X130674812Y-112700630D01*
X130706834Y-112902813D01*
X130770093Y-113097502D01*
X130863027Y-113279892D01*
X130983340Y-113445492D01*
X131128098Y-113590250D01*
X131276011Y-113697713D01*
X131293702Y-113710566D01*
X131409919Y-113769782D01*
X131476088Y-113803497D01*
X131476090Y-113803497D01*
X131476093Y-113803499D01*
X131580449Y-113837406D01*
X131670777Y-113866756D01*
X131771869Y-113882767D01*
X131872960Y-113898779D01*
X131872961Y-113898779D01*
X132077663Y-113898779D01*
X132077664Y-113898779D01*
X132279846Y-113866756D01*
X132474531Y-113803499D01*
X132656922Y-113710566D01*
X132802524Y-113604781D01*
X132822525Y-113590250D01*
X132822527Y-113590247D01*
X132822531Y-113590245D01*
X132967278Y-113445498D01*
X132994695Y-113407762D01*
X133075677Y-113296300D01*
X133075678Y-113296299D01*
X133087595Y-113279895D01*
X133087597Y-113279892D01*
X133087599Y-113279889D01*
X133180532Y-113097498D01*
X133243789Y-112902813D01*
X133275812Y-112700631D01*
X133275812Y-112495927D01*
X133243789Y-112293745D01*
X133233938Y-112263428D01*
X142250000Y-112263428D01*
X142250000Y-112436571D01*
X142277085Y-112607584D01*
X142330591Y-112772257D01*
X142409195Y-112926524D01*
X142510967Y-113066602D01*
X142595406Y-113151041D01*
X143350000Y-112396447D01*
X143350000Y-112402661D01*
X143377259Y-112504394D01*
X143429920Y-112595606D01*
X143504394Y-112670080D01*
X143595606Y-112722741D01*
X143697339Y-112750000D01*
X143703552Y-112750000D01*
X143045787Y-113407762D01*
X143092419Y-113422914D01*
X143263429Y-113450000D01*
X144236571Y-113450000D01*
X144407582Y-113422914D01*
X144407585Y-113422913D01*
X144454211Y-113407763D01*
X144454211Y-113407762D01*
X143796448Y-112750000D01*
X143802661Y-112750000D01*
X143904394Y-112722741D01*
X143995606Y-112670080D01*
X144070080Y-112595606D01*
X144122741Y-112504394D01*
X144150000Y-112402661D01*
X144150000Y-112396449D01*
X144904592Y-113151041D01*
X144904593Y-113151041D01*
X144989033Y-113066601D01*
X145090804Y-112926524D01*
X145169408Y-112772257D01*
X145222914Y-112607584D01*
X145250000Y-112436571D01*
X145250000Y-112263428D01*
X145222914Y-112092415D01*
X145169408Y-111927742D01*
X145090804Y-111773475D01*
X144989032Y-111633397D01*
X144904593Y-111548958D01*
X144904592Y-111548958D01*
X144150000Y-112303550D01*
X144150000Y-112297339D01*
X144122741Y-112195606D01*
X144070080Y-112104394D01*
X143995606Y-112029920D01*
X143904394Y-111977259D01*
X143802661Y-111950000D01*
X143796449Y-111950000D01*
X144454211Y-111292236D01*
X144454211Y-111292235D01*
X144407586Y-111277086D01*
X144236571Y-111250000D01*
X143263429Y-111250000D01*
X143092414Y-111277086D01*
X143045788Y-111292235D01*
X143045788Y-111292236D01*
X143703552Y-111950000D01*
X143697339Y-111950000D01*
X143595606Y-111977259D01*
X143504394Y-112029920D01*
X143429920Y-112104394D01*
X143377259Y-112195606D01*
X143350000Y-112297339D01*
X143350000Y-112303552D01*
X142595406Y-111548958D01*
X142510966Y-111633398D01*
X142409198Y-111773471D01*
X142330591Y-111927742D01*
X142277085Y-112092415D01*
X142250000Y-112263428D01*
X133233938Y-112263428D01*
X133180532Y-112099060D01*
X133087599Y-111916669D01*
X133079868Y-111906028D01*
X132967283Y-111751065D01*
X132822525Y-111606307D01*
X132656926Y-111485994D01*
X132569205Y-111441298D01*
X132474535Y-111393060D01*
X132279846Y-111329801D01*
X132105307Y-111302157D01*
X132077664Y-111297779D01*
X131872960Y-111297779D01*
X131848641Y-111301630D01*
X131670777Y-111329801D01*
X131476088Y-111393060D01*
X131293698Y-111485994D01*
X131128098Y-111606307D01*
X130983340Y-111751065D01*
X130863027Y-111916665D01*
X130770093Y-112099055D01*
X130706834Y-112293744D01*
X130674812Y-112495927D01*
X127741105Y-112495927D01*
X127750500Y-112436611D01*
X127750500Y-112263389D01*
X127723402Y-112092299D01*
X127669873Y-111927555D01*
X127591232Y-111773212D01*
X127489414Y-111633072D01*
X127366928Y-111510586D01*
X127226788Y-111408768D01*
X127072445Y-111330127D01*
X126907701Y-111276598D01*
X126907699Y-111276597D01*
X126907698Y-111276597D01*
X126776271Y-111255781D01*
X126736611Y-111249500D01*
X125763389Y-111249500D01*
X125723728Y-111255781D01*
X125592302Y-111276597D01*
X125427552Y-111330128D01*
X125273211Y-111408768D01*
X125228438Y-111441298D01*
X125133072Y-111510586D01*
X125133070Y-111510588D01*
X125133069Y-111510588D01*
X125010588Y-111633069D01*
X125010588Y-111633070D01*
X125010586Y-111633072D01*
X124966859Y-111693256D01*
X124908768Y-111773211D01*
X124830128Y-111927552D01*
X124776597Y-112092302D01*
X124749500Y-112263389D01*
X97750500Y-112263389D01*
X97750500Y-109723389D01*
X124749500Y-109723389D01*
X124749500Y-109896611D01*
X124776598Y-110067701D01*
X124830127Y-110232445D01*
X124908768Y-110386788D01*
X125010586Y-110526928D01*
X125133072Y-110649414D01*
X125273212Y-110751232D01*
X125427555Y-110829873D01*
X125592299Y-110883402D01*
X125763389Y-110910500D01*
X125763390Y-110910500D01*
X126736610Y-110910500D01*
X126736611Y-110910500D01*
X126907701Y-110883402D01*
X127072445Y-110829873D01*
X127226788Y-110751232D01*
X127366928Y-110649414D01*
X127489414Y-110526928D01*
X127591232Y-110386788D01*
X127669873Y-110232445D01*
X127723402Y-110067701D01*
X127750500Y-109896611D01*
X127750500Y-109723389D01*
X127723402Y-109552299D01*
X127669873Y-109387555D01*
X127591232Y-109233212D01*
X127489414Y-109093072D01*
X127366928Y-108970586D01*
X127226788Y-108868768D01*
X127072445Y-108790127D01*
X126907701Y-108736598D01*
X126907699Y-108736597D01*
X126907698Y-108736597D01*
X126776271Y-108715781D01*
X126736611Y-108709500D01*
X125763389Y-108709500D01*
X125723728Y-108715781D01*
X125592302Y-108736597D01*
X125427552Y-108790128D01*
X125273211Y-108868768D01*
X125193256Y-108926859D01*
X125133072Y-108970586D01*
X125133070Y-108970588D01*
X125133069Y-108970588D01*
X125010588Y-109093069D01*
X125010588Y-109093070D01*
X125010586Y-109093072D01*
X124966859Y-109153256D01*
X124908768Y-109233211D01*
X124830128Y-109387552D01*
X124776597Y-109552302D01*
X124749500Y-109723389D01*
X97750500Y-109723389D01*
X97750500Y-107183389D01*
X124749500Y-107183389D01*
X124749500Y-107356611D01*
X124776598Y-107527701D01*
X124830127Y-107692445D01*
X124908768Y-107846788D01*
X125010586Y-107986928D01*
X125133072Y-108109414D01*
X125273212Y-108211232D01*
X125427555Y-108289873D01*
X125592299Y-108343402D01*
X125763389Y-108370500D01*
X125763390Y-108370500D01*
X126736610Y-108370500D01*
X126736611Y-108370500D01*
X126907701Y-108343402D01*
X127072445Y-108289873D01*
X127226788Y-108211232D01*
X127366928Y-108109414D01*
X127489414Y-107986928D01*
X127591232Y-107846788D01*
X127669873Y-107692445D01*
X127723402Y-107527701D01*
X127750500Y-107356611D01*
X127750500Y-107183389D01*
X127735336Y-107087648D01*
X136699500Y-107087648D01*
X136699500Y-107292351D01*
X136731522Y-107494534D01*
X136794781Y-107689223D01*
X136887715Y-107871613D01*
X137008028Y-108037213D01*
X137152786Y-108181971D01*
X137301301Y-108289871D01*
X137318390Y-108302287D01*
X137399083Y-108343402D01*
X137500776Y-108395218D01*
X137500778Y-108395218D01*
X137500781Y-108395220D01*
X137536784Y-108406918D01*
X137695465Y-108458477D01*
X137736056Y-108464906D01*
X137897648Y-108490500D01*
X137897649Y-108490500D01*
X138102351Y-108490500D01*
X138102352Y-108490500D01*
X138304534Y-108458477D01*
X138499219Y-108395220D01*
X138681610Y-108302287D01*
X138774590Y-108234732D01*
X138847213Y-108181971D01*
X138847215Y-108181968D01*
X138847219Y-108181966D01*
X138991966Y-108037219D01*
X138991968Y-108037215D01*
X138991971Y-108037213D01*
X139044732Y-107964590D01*
X139112287Y-107871610D01*
X139205220Y-107689219D01*
X139268477Y-107494534D01*
X139300500Y-107292352D01*
X139300500Y-107087648D01*
X139268477Y-106885466D01*
X139205220Y-106690781D01*
X139205218Y-106690778D01*
X139205218Y-106690776D01*
X139171503Y-106624607D01*
X139112287Y-106508390D01*
X139104556Y-106497749D01*
X138991971Y-106342786D01*
X138847213Y-106198028D01*
X138681613Y-106077715D01*
X138681612Y-106077714D01*
X138681610Y-106077713D01*
X138611875Y-106042181D01*
X138499223Y-105984781D01*
X138304534Y-105921522D01*
X138129995Y-105893878D01*
X138102352Y-105889500D01*
X137897648Y-105889500D01*
X137873329Y-105893351D01*
X137695465Y-105921522D01*
X137500776Y-105984781D01*
X137318386Y-106077715D01*
X137152786Y-106198028D01*
X137008028Y-106342786D01*
X136887715Y-106508386D01*
X136794781Y-106690776D01*
X136731522Y-106885465D01*
X136699500Y-107087648D01*
X127735336Y-107087648D01*
X127723402Y-107012299D01*
X127669873Y-106847555D01*
X127591232Y-106693212D01*
X127489414Y-106553072D01*
X127366928Y-106430586D01*
X127226788Y-106328768D01*
X127072445Y-106250127D01*
X126907701Y-106196598D01*
X126907699Y-106196597D01*
X126907698Y-106196597D01*
X126776271Y-106175781D01*
X126736611Y-106169500D01*
X125763389Y-106169500D01*
X125723728Y-106175781D01*
X125592302Y-106196597D01*
X125427552Y-106250128D01*
X125273211Y-106328768D01*
X125193256Y-106386859D01*
X125133072Y-106430586D01*
X125133070Y-106430588D01*
X125133069Y-106430588D01*
X125010588Y-106553069D01*
X125010588Y-106553070D01*
X125010586Y-106553072D01*
X124966859Y-106613256D01*
X124908768Y-106693211D01*
X124830128Y-106847552D01*
X124776597Y-107012302D01*
X124764664Y-107087648D01*
X124749500Y-107183389D01*
X97750500Y-107183389D01*
X97750500Y-104643389D01*
X124749500Y-104643389D01*
X124749500Y-104816611D01*
X124776598Y-104987701D01*
X124830127Y-105152445D01*
X124908768Y-105306788D01*
X125010586Y-105446928D01*
X125133072Y-105569414D01*
X125273212Y-105671232D01*
X125427555Y-105749873D01*
X125592299Y-105803402D01*
X125763389Y-105830500D01*
X125763390Y-105830500D01*
X126736610Y-105830500D01*
X126736611Y-105830500D01*
X126907701Y-105803402D01*
X127072445Y-105749873D01*
X127226788Y-105671232D01*
X127242400Y-105659889D01*
X127252625Y-105652461D01*
X127318431Y-105628981D01*
X127325510Y-105628779D01*
X130777241Y-105628779D01*
X130844280Y-105648464D01*
X130877557Y-105679892D01*
X130975478Y-105814669D01*
X130983346Y-105825498D01*
X131128098Y-105970250D01*
X131227105Y-106042181D01*
X131293702Y-106090566D01*
X131377339Y-106133181D01*
X131476088Y-106183497D01*
X131476090Y-106183497D01*
X131476093Y-106183499D01*
X131580449Y-106217406D01*
X131670777Y-106246756D01*
X131771869Y-106262767D01*
X131872960Y-106278779D01*
X131872961Y-106278779D01*
X132077663Y-106278779D01*
X132077664Y-106278779D01*
X132279846Y-106246756D01*
X132474531Y-106183499D01*
X132656922Y-106090566D01*
X132802524Y-105984781D01*
X132822525Y-105970250D01*
X132822527Y-105970247D01*
X132822531Y-105970245D01*
X132967278Y-105825498D01*
X133073065Y-105679892D01*
X133128394Y-105637228D01*
X133173383Y-105628779D01*
X141137471Y-105628779D01*
X141204510Y-105648464D01*
X141225152Y-105665098D01*
X142295397Y-106735343D01*
X142328882Y-106796666D01*
X142325647Y-106861342D01*
X142276597Y-107012301D01*
X142264664Y-107087648D01*
X142249500Y-107183389D01*
X142249500Y-107356611D01*
X142276598Y-107527701D01*
X142330127Y-107692445D01*
X142408768Y-107846788D01*
X142510586Y-107986928D01*
X142633072Y-108109414D01*
X142773212Y-108211232D01*
X142927555Y-108289873D01*
X143092299Y-108343402D01*
X143263389Y-108370500D01*
X143263390Y-108370500D01*
X143970192Y-108370500D01*
X143991437Y-108376738D01*
X144013526Y-108378318D01*
X144024309Y-108386390D01*
X144037231Y-108390185D01*
X144051730Y-108406918D01*
X144069459Y-108420190D01*
X144074166Y-108432810D01*
X144082986Y-108442989D01*
X144086137Y-108464906D01*
X144093876Y-108485654D01*
X144091013Y-108498814D01*
X144092930Y-108512147D01*
X144083730Y-108532290D01*
X144079024Y-108553927D01*
X144065755Y-108571652D01*
X144063905Y-108575703D01*
X144057873Y-108582181D01*
X143966873Y-108673181D01*
X143905550Y-108706666D01*
X143879192Y-108709500D01*
X143263389Y-108709500D01*
X143223728Y-108715781D01*
X143092302Y-108736597D01*
X142927552Y-108790128D01*
X142773211Y-108868768D01*
X142693256Y-108926859D01*
X142633072Y-108970586D01*
X142633070Y-108970588D01*
X142633069Y-108970588D01*
X142510588Y-109093069D01*
X142510588Y-109093070D01*
X142510586Y-109093072D01*
X142466859Y-109153256D01*
X142408768Y-109233211D01*
X142330128Y-109387552D01*
X142276597Y-109552302D01*
X142249500Y-109723389D01*
X142249500Y-109896611D01*
X142276598Y-110067701D01*
X142330127Y-110232445D01*
X142408768Y-110386788D01*
X142510586Y-110526928D01*
X142633072Y-110649414D01*
X142773212Y-110751232D01*
X142927555Y-110829873D01*
X143092299Y-110883402D01*
X143263389Y-110910500D01*
X143263390Y-110910500D01*
X144236610Y-110910500D01*
X144236611Y-110910500D01*
X144407701Y-110883402D01*
X144572445Y-110829873D01*
X144726788Y-110751232D01*
X144866928Y-110649414D01*
X144989414Y-110526928D01*
X145091232Y-110386788D01*
X145169873Y-110232445D01*
X145223402Y-110067701D01*
X145250500Y-109896611D01*
X145250500Y-109723389D01*
X145223402Y-109552299D01*
X145174351Y-109401339D01*
X145172357Y-109331500D01*
X145204600Y-109275344D01*
X148665277Y-105814669D01*
X148736465Y-105708127D01*
X148785501Y-105589744D01*
X148810500Y-105464069D01*
X148810500Y-92850857D01*
X148830185Y-92783818D01*
X148861618Y-92750537D01*
X148876928Y-92739414D01*
X148999414Y-92616928D01*
X149101232Y-92476788D01*
X149179873Y-92322445D01*
X149233402Y-92157701D01*
X149260500Y-91986611D01*
X149260500Y-91013389D01*
X149599500Y-91013389D01*
X149599500Y-91986610D01*
X149626579Y-92157585D01*
X149626598Y-92157701D01*
X149680127Y-92322445D01*
X149758768Y-92476788D01*
X149860586Y-92616928D01*
X149983072Y-92739414D01*
X150123212Y-92841232D01*
X150277555Y-92919873D01*
X150442299Y-92973402D01*
X150613389Y-93000500D01*
X150613390Y-93000500D01*
X150786610Y-93000500D01*
X150786611Y-93000500D01*
X150957701Y-92973402D01*
X151122445Y-92919873D01*
X151276788Y-92841232D01*
X151416928Y-92739414D01*
X151539414Y-92616928D01*
X151641232Y-92476788D01*
X151719873Y-92322445D01*
X151773402Y-92157701D01*
X151800500Y-91986611D01*
X151800500Y-91013389D01*
X152139500Y-91013389D01*
X152139500Y-91986610D01*
X152166579Y-92157585D01*
X152166598Y-92157701D01*
X152220127Y-92322445D01*
X152298768Y-92476788D01*
X152400586Y-92616928D01*
X152523072Y-92739414D01*
X152663212Y-92841232D01*
X152817555Y-92919873D01*
X152982299Y-92973402D01*
X153153389Y-93000500D01*
X153153390Y-93000500D01*
X153326610Y-93000500D01*
X153326611Y-93000500D01*
X153497701Y-92973402D01*
X153662445Y-92919873D01*
X153816788Y-92841232D01*
X153956928Y-92739414D01*
X154079414Y-92616928D01*
X154181232Y-92476788D01*
X154259873Y-92322445D01*
X154313402Y-92157701D01*
X154340500Y-91986611D01*
X154340500Y-91013428D01*
X154680000Y-91013428D01*
X154680000Y-91986571D01*
X154707086Y-92157585D01*
X154707086Y-92157588D01*
X154722235Y-92204211D01*
X154722236Y-92204211D01*
X155380000Y-91546447D01*
X155380000Y-91552661D01*
X155407259Y-91654394D01*
X155459920Y-91745606D01*
X155534394Y-91820080D01*
X155625606Y-91872741D01*
X155727339Y-91900000D01*
X155733552Y-91900000D01*
X154978958Y-92654592D01*
X154978958Y-92654593D01*
X155063397Y-92739032D01*
X155203475Y-92840804D01*
X155357742Y-92919408D01*
X155522415Y-92972914D01*
X155693429Y-93000000D01*
X155866571Y-93000000D01*
X156037584Y-92972914D01*
X156202257Y-92919408D01*
X156356524Y-92840804D01*
X156496601Y-92739033D01*
X156581041Y-92654592D01*
X155826448Y-91900000D01*
X155832661Y-91900000D01*
X155934394Y-91872741D01*
X156025606Y-91820080D01*
X156100080Y-91745606D01*
X156152741Y-91654394D01*
X156180000Y-91552661D01*
X156180000Y-91546448D01*
X156837762Y-92204211D01*
X156837763Y-92204211D01*
X156852913Y-92157585D01*
X156852914Y-92157582D01*
X156880000Y-91986571D01*
X156880000Y-91013428D01*
X156879994Y-91013389D01*
X157219500Y-91013389D01*
X157219500Y-91986610D01*
X157246579Y-92157585D01*
X157246598Y-92157701D01*
X157300127Y-92322445D01*
X157378768Y-92476788D01*
X157480586Y-92616928D01*
X157603072Y-92739414D01*
X157743212Y-92841232D01*
X157897555Y-92919873D01*
X158062299Y-92973402D01*
X158233389Y-93000500D01*
X158233390Y-93000500D01*
X158406610Y-93000500D01*
X158406611Y-93000500D01*
X158577701Y-92973402D01*
X158742445Y-92919873D01*
X158896788Y-92841232D01*
X159036928Y-92739414D01*
X159159414Y-92616928D01*
X159261232Y-92476788D01*
X159339873Y-92322445D01*
X159393402Y-92157701D01*
X159420500Y-91986611D01*
X159420500Y-91013389D01*
X159393402Y-90842299D01*
X159339873Y-90677555D01*
X159261232Y-90523212D01*
X159159414Y-90383072D01*
X159036928Y-90260586D01*
X158896788Y-90158768D01*
X158742445Y-90080127D01*
X158577701Y-90026598D01*
X158577699Y-90026597D01*
X158577698Y-90026597D01*
X158446271Y-90005781D01*
X158406611Y-89999500D01*
X158233389Y-89999500D01*
X158193728Y-90005781D01*
X158062302Y-90026597D01*
X157897552Y-90080128D01*
X157743211Y-90158768D01*
X157694543Y-90194128D01*
X157603072Y-90260586D01*
X157603070Y-90260588D01*
X157603069Y-90260588D01*
X157480588Y-90383069D01*
X157480588Y-90383070D01*
X157480586Y-90383072D01*
X157436859Y-90443256D01*
X157378768Y-90523211D01*
X157300128Y-90677552D01*
X157246597Y-90842302D01*
X157219500Y-91013389D01*
X156879994Y-91013389D01*
X156852914Y-90842420D01*
X156852914Y-90842417D01*
X156837762Y-90795788D01*
X156837762Y-90795787D01*
X156180000Y-91453550D01*
X156180000Y-91447339D01*
X156152741Y-91345606D01*
X156100080Y-91254394D01*
X156025606Y-91179920D01*
X155934394Y-91127259D01*
X155832661Y-91100000D01*
X155826449Y-91100000D01*
X156581041Y-90345406D01*
X156496602Y-90260967D01*
X156356524Y-90159195D01*
X156202257Y-90080591D01*
X156037584Y-90027085D01*
X155866571Y-90000000D01*
X155693429Y-90000000D01*
X155522415Y-90027085D01*
X155357742Y-90080591D01*
X155203471Y-90159198D01*
X155063398Y-90260966D01*
X154978958Y-90345406D01*
X155733552Y-91100000D01*
X155727339Y-91100000D01*
X155625606Y-91127259D01*
X155534394Y-91179920D01*
X155459920Y-91254394D01*
X155407259Y-91345606D01*
X155380000Y-91447339D01*
X155380000Y-91453552D01*
X154722236Y-90795788D01*
X154722235Y-90795788D01*
X154707086Y-90842414D01*
X154680000Y-91013428D01*
X154340500Y-91013428D01*
X154340500Y-91013389D01*
X154313402Y-90842299D01*
X154259873Y-90677555D01*
X154181232Y-90523212D01*
X154079414Y-90383072D01*
X153956928Y-90260586D01*
X153816788Y-90158768D01*
X153662445Y-90080127D01*
X153497701Y-90026598D01*
X153497699Y-90026597D01*
X153497698Y-90026597D01*
X153366271Y-90005781D01*
X153326611Y-89999500D01*
X153153389Y-89999500D01*
X153113728Y-90005781D01*
X152982302Y-90026597D01*
X152817552Y-90080128D01*
X152663211Y-90158768D01*
X152614543Y-90194128D01*
X152523072Y-90260586D01*
X152523070Y-90260588D01*
X152523069Y-90260588D01*
X152400588Y-90383069D01*
X152400588Y-90383070D01*
X152400586Y-90383072D01*
X152356859Y-90443256D01*
X152298768Y-90523211D01*
X152220128Y-90677552D01*
X152166597Y-90842302D01*
X152139500Y-91013389D01*
X151800500Y-91013389D01*
X151773402Y-90842299D01*
X151719873Y-90677555D01*
X151641232Y-90523212D01*
X151539414Y-90383072D01*
X151416928Y-90260586D01*
X151276788Y-90158768D01*
X151122445Y-90080127D01*
X150957701Y-90026598D01*
X150957699Y-90026597D01*
X150957698Y-90026597D01*
X150826271Y-90005781D01*
X150786611Y-89999500D01*
X150613389Y-89999500D01*
X150573728Y-90005781D01*
X150442302Y-90026597D01*
X150277552Y-90080128D01*
X150123211Y-90158768D01*
X150074543Y-90194128D01*
X149983072Y-90260586D01*
X149983070Y-90260588D01*
X149983069Y-90260588D01*
X149860588Y-90383069D01*
X149860588Y-90383070D01*
X149860586Y-90383072D01*
X149816859Y-90443256D01*
X149758768Y-90523211D01*
X149680128Y-90677552D01*
X149626597Y-90842302D01*
X149599500Y-91013389D01*
X149260500Y-91013389D01*
X149233402Y-90842299D01*
X149179873Y-90677555D01*
X149101232Y-90523212D01*
X148999414Y-90383072D01*
X148876928Y-90260586D01*
X148736788Y-90158768D01*
X148582445Y-90080127D01*
X148417701Y-90026598D01*
X148417699Y-90026597D01*
X148417698Y-90026597D01*
X148286271Y-90005781D01*
X148246611Y-89999500D01*
X148073389Y-89999500D01*
X148033728Y-90005781D01*
X147902302Y-90026597D01*
X147737552Y-90080128D01*
X147583211Y-90158768D01*
X147534543Y-90194128D01*
X147443072Y-90260586D01*
X147443070Y-90260588D01*
X147443069Y-90260588D01*
X147320588Y-90383069D01*
X147320588Y-90383070D01*
X147320586Y-90383072D01*
X147276859Y-90443256D01*
X147218768Y-90523211D01*
X147140128Y-90677552D01*
X147086597Y-90842302D01*
X147059500Y-91013389D01*
X147059500Y-91986610D01*
X147086579Y-92157585D01*
X147086598Y-92157701D01*
X147140127Y-92322445D01*
X147218768Y-92476788D01*
X147320586Y-92616928D01*
X147320588Y-92616930D01*
X147443070Y-92739412D01*
X147443076Y-92739417D01*
X147458382Y-92750537D01*
X147501050Y-92805866D01*
X147509500Y-92850857D01*
X147509500Y-105079191D01*
X147489815Y-105146230D01*
X147473181Y-105166872D01*
X145450772Y-107189280D01*
X145389449Y-107222765D01*
X145319757Y-107217781D01*
X145263824Y-107175909D01*
X145240618Y-107120997D01*
X145223402Y-107012302D01*
X145223402Y-107012301D01*
X145223402Y-107012299D01*
X145169873Y-106847555D01*
X145091232Y-106693212D01*
X144989414Y-106553072D01*
X144866928Y-106430586D01*
X144726788Y-106328768D01*
X144572445Y-106250127D01*
X144407701Y-106196598D01*
X144407699Y-106196597D01*
X144407698Y-106196597D01*
X144276271Y-106175781D01*
X144236611Y-106169500D01*
X144236610Y-106169500D01*
X143620808Y-106169500D01*
X143591367Y-106160855D01*
X143561381Y-106154332D01*
X143556365Y-106150577D01*
X143553769Y-106149815D01*
X143533127Y-106133181D01*
X143442127Y-106042181D01*
X143408642Y-105980858D01*
X143413626Y-105911166D01*
X143455498Y-105855233D01*
X143520962Y-105830816D01*
X143529808Y-105830500D01*
X144236610Y-105830500D01*
X144236611Y-105830500D01*
X144407701Y-105803402D01*
X144572445Y-105749873D01*
X144726788Y-105671232D01*
X144866928Y-105569414D01*
X144989414Y-105446928D01*
X145091232Y-105306788D01*
X145169873Y-105152445D01*
X145223402Y-104987701D01*
X145250500Y-104816611D01*
X145250500Y-104643389D01*
X145223402Y-104472299D01*
X145169873Y-104307555D01*
X145091232Y-104153212D01*
X144989414Y-104013072D01*
X144866928Y-103890586D01*
X144726788Y-103788768D01*
X144572445Y-103710127D01*
X144407701Y-103656598D01*
X144407699Y-103656597D01*
X144407698Y-103656597D01*
X144276271Y-103635781D01*
X144236611Y-103629500D01*
X143263389Y-103629500D01*
X143223728Y-103635781D01*
X143092302Y-103656597D01*
X142927552Y-103710128D01*
X142773211Y-103788768D01*
X142693256Y-103846859D01*
X142633072Y-103890586D01*
X142633070Y-103890588D01*
X142633069Y-103890588D01*
X142510588Y-104013069D01*
X142510588Y-104013070D01*
X142510586Y-104013072D01*
X142466859Y-104073256D01*
X142408768Y-104153211D01*
X142330128Y-104307552D01*
X142276597Y-104472301D01*
X142259381Y-104580999D01*
X142229451Y-104644133D01*
X142170140Y-104681064D01*
X142100277Y-104680066D01*
X142049227Y-104649281D01*
X141872953Y-104473006D01*
X141872952Y-104473005D01*
X141871900Y-104472302D01*
X141766406Y-104401814D01*
X141648023Y-104352778D01*
X141648017Y-104352776D01*
X141522350Y-104327779D01*
X141522348Y-104327779D01*
X133173383Y-104327779D01*
X133106344Y-104308094D01*
X133073066Y-104276665D01*
X132967278Y-104131060D01*
X132822531Y-103986313D01*
X132822525Y-103986307D01*
X132656925Y-103865994D01*
X132656924Y-103865993D01*
X132656922Y-103865992D01*
X132599965Y-103836970D01*
X132474535Y-103773060D01*
X132279846Y-103709801D01*
X132105307Y-103682157D01*
X132077664Y-103677779D01*
X131872960Y-103677779D01*
X131848641Y-103681630D01*
X131670777Y-103709801D01*
X131476088Y-103773060D01*
X131293698Y-103865994D01*
X131128098Y-103986307D01*
X130983346Y-104131059D01*
X130967251Y-104153213D01*
X130877558Y-104276665D01*
X130822230Y-104319330D01*
X130777241Y-104327779D01*
X127756165Y-104327779D01*
X127689126Y-104308094D01*
X127645680Y-104260073D01*
X127591233Y-104153213D01*
X127575137Y-104131059D01*
X127489414Y-104013072D01*
X127366928Y-103890586D01*
X127226788Y-103788768D01*
X127072445Y-103710127D01*
X126907701Y-103656598D01*
X126907699Y-103656597D01*
X126907698Y-103656597D01*
X126776271Y-103635781D01*
X126736611Y-103629500D01*
X125763389Y-103629500D01*
X125723728Y-103635781D01*
X125592302Y-103656597D01*
X125427552Y-103710128D01*
X125273211Y-103788768D01*
X125193256Y-103846859D01*
X125133072Y-103890586D01*
X125133070Y-103890588D01*
X125133069Y-103890588D01*
X125010588Y-104013069D01*
X125010588Y-104013070D01*
X125010586Y-104013072D01*
X124966859Y-104073256D01*
X124908768Y-104153211D01*
X124830128Y-104307552D01*
X124776597Y-104472302D01*
X124749500Y-104643389D01*
X97750500Y-104643389D01*
X97750500Y-102103389D01*
X124749500Y-102103389D01*
X124749500Y-102276611D01*
X124776598Y-102447701D01*
X124830127Y-102612445D01*
X124908768Y-102766788D01*
X125010586Y-102906928D01*
X125133072Y-103029414D01*
X125273212Y-103131232D01*
X125427555Y-103209873D01*
X125592299Y-103263402D01*
X125763389Y-103290500D01*
X125763390Y-103290500D01*
X126736610Y-103290500D01*
X126736611Y-103290500D01*
X126907701Y-103263402D01*
X127072445Y-103209873D01*
X127226788Y-103131232D01*
X127366928Y-103029414D01*
X127489414Y-102906928D01*
X127591232Y-102766788D01*
X127669873Y-102612445D01*
X127723402Y-102447701D01*
X127750500Y-102276611D01*
X127750500Y-102103389D01*
X142249500Y-102103389D01*
X142249500Y-102276611D01*
X142276598Y-102447701D01*
X142330127Y-102612445D01*
X142408768Y-102766788D01*
X142510586Y-102906928D01*
X142633072Y-103029414D01*
X142773212Y-103131232D01*
X142927555Y-103209873D01*
X143092299Y-103263402D01*
X143263389Y-103290500D01*
X143263390Y-103290500D01*
X144236610Y-103290500D01*
X144236611Y-103290500D01*
X144407701Y-103263402D01*
X144572445Y-103209873D01*
X144726788Y-103131232D01*
X144866928Y-103029414D01*
X144989414Y-102906928D01*
X145091232Y-102766788D01*
X145169873Y-102612445D01*
X145223402Y-102447701D01*
X145250500Y-102276611D01*
X145250500Y-102103389D01*
X145223402Y-101932299D01*
X145169873Y-101767555D01*
X145091232Y-101613212D01*
X144989414Y-101473072D01*
X144866928Y-101350586D01*
X144726788Y-101248768D01*
X144572445Y-101170127D01*
X144407701Y-101116598D01*
X144407699Y-101116597D01*
X144407698Y-101116597D01*
X144276271Y-101095781D01*
X144236611Y-101089500D01*
X143263389Y-101089500D01*
X143223728Y-101095781D01*
X143092302Y-101116597D01*
X142927552Y-101170128D01*
X142773211Y-101248768D01*
X142693256Y-101306859D01*
X142633072Y-101350586D01*
X142633070Y-101350588D01*
X142633069Y-101350588D01*
X142510588Y-101473069D01*
X142510588Y-101473070D01*
X142510586Y-101473072D01*
X142466859Y-101533256D01*
X142408768Y-101613211D01*
X142330128Y-101767552D01*
X142276597Y-101932302D01*
X142249500Y-102103389D01*
X127750500Y-102103389D01*
X127723402Y-101932299D01*
X127669873Y-101767555D01*
X127591232Y-101613212D01*
X127489414Y-101473072D01*
X127366928Y-101350586D01*
X127226788Y-101248768D01*
X127072445Y-101170127D01*
X126907701Y-101116598D01*
X126907699Y-101116597D01*
X126907698Y-101116597D01*
X126776271Y-101095781D01*
X126736611Y-101089500D01*
X125763389Y-101089500D01*
X125723728Y-101095781D01*
X125592302Y-101116597D01*
X125427552Y-101170128D01*
X125273211Y-101248768D01*
X125193256Y-101306859D01*
X125133072Y-101350586D01*
X125133070Y-101350588D01*
X125133069Y-101350588D01*
X125010588Y-101473069D01*
X125010588Y-101473070D01*
X125010586Y-101473072D01*
X124966859Y-101533256D01*
X124908768Y-101613211D01*
X124830128Y-101767552D01*
X124776597Y-101932302D01*
X124749500Y-102103389D01*
X97750500Y-102103389D01*
X97750500Y-99563428D01*
X124750000Y-99563428D01*
X124750000Y-99736571D01*
X124777085Y-99907584D01*
X124830591Y-100072257D01*
X124909195Y-100226524D01*
X125010967Y-100366602D01*
X125095406Y-100451041D01*
X125850000Y-99696447D01*
X125850000Y-99702661D01*
X125877259Y-99804394D01*
X125929920Y-99895606D01*
X126004394Y-99970080D01*
X126095606Y-100022741D01*
X126197339Y-100050000D01*
X126203552Y-100050000D01*
X125545787Y-100707762D01*
X125592419Y-100722914D01*
X125763429Y-100750000D01*
X126736571Y-100750000D01*
X126907582Y-100722914D01*
X126907585Y-100722913D01*
X126954211Y-100707763D01*
X126954211Y-100707762D01*
X126296448Y-100050000D01*
X126302661Y-100050000D01*
X126404394Y-100022741D01*
X126495606Y-99970080D01*
X126570080Y-99895606D01*
X126622741Y-99804394D01*
X126650000Y-99702661D01*
X126650000Y-99696449D01*
X127404592Y-100451041D01*
X127404593Y-100451041D01*
X127489033Y-100366601D01*
X127590804Y-100226524D01*
X127669408Y-100072257D01*
X127722914Y-99907584D01*
X127750000Y-99736571D01*
X127750000Y-99563428D01*
X127749994Y-99563389D01*
X142249500Y-99563389D01*
X142249500Y-99736611D01*
X142276598Y-99907701D01*
X142330127Y-100072445D01*
X142408768Y-100226788D01*
X142510586Y-100366928D01*
X142633072Y-100489414D01*
X142773212Y-100591232D01*
X142927555Y-100669873D01*
X143092299Y-100723402D01*
X143263389Y-100750500D01*
X143263390Y-100750500D01*
X144236610Y-100750500D01*
X144236611Y-100750500D01*
X144407701Y-100723402D01*
X144572445Y-100669873D01*
X144726788Y-100591232D01*
X144866928Y-100489414D01*
X144989414Y-100366928D01*
X145091232Y-100226788D01*
X145169873Y-100072445D01*
X145223402Y-99907701D01*
X145250500Y-99736611D01*
X145250500Y-99563389D01*
X145223402Y-99392299D01*
X145169873Y-99227555D01*
X145091232Y-99073212D01*
X144989414Y-98933072D01*
X144866928Y-98810586D01*
X144726788Y-98708768D01*
X144572445Y-98630127D01*
X144407701Y-98576598D01*
X144407699Y-98576597D01*
X144407698Y-98576597D01*
X144276271Y-98555781D01*
X144236611Y-98549500D01*
X143263389Y-98549500D01*
X143223728Y-98555781D01*
X143092302Y-98576597D01*
X142927552Y-98630128D01*
X142773211Y-98708768D01*
X142693256Y-98766859D01*
X142633072Y-98810586D01*
X142633070Y-98810588D01*
X142633069Y-98810588D01*
X142510588Y-98933069D01*
X142510588Y-98933070D01*
X142510586Y-98933072D01*
X142466859Y-98993256D01*
X142408768Y-99073211D01*
X142330128Y-99227552D01*
X142276597Y-99392302D01*
X142274682Y-99404394D01*
X142249500Y-99563389D01*
X127749994Y-99563389D01*
X127722914Y-99392415D01*
X127669408Y-99227742D01*
X127590804Y-99073475D01*
X127489032Y-98933397D01*
X127404593Y-98848958D01*
X127404592Y-98848958D01*
X126650000Y-99603550D01*
X126650000Y-99597339D01*
X126622741Y-99495606D01*
X126570080Y-99404394D01*
X126495606Y-99329920D01*
X126404394Y-99277259D01*
X126302661Y-99250000D01*
X126296449Y-99250000D01*
X126954211Y-98592236D01*
X126954211Y-98592235D01*
X126907586Y-98577086D01*
X126736571Y-98550000D01*
X125763429Y-98550000D01*
X125592414Y-98577086D01*
X125545788Y-98592235D01*
X125545788Y-98592236D01*
X126203552Y-99250000D01*
X126197339Y-99250000D01*
X126095606Y-99277259D01*
X126004394Y-99329920D01*
X125929920Y-99404394D01*
X125877259Y-99495606D01*
X125850000Y-99597339D01*
X125850000Y-99603552D01*
X125095406Y-98848958D01*
X125010966Y-98933398D01*
X124909198Y-99073471D01*
X124830591Y-99227742D01*
X124777085Y-99392415D01*
X124750000Y-99563428D01*
X97750500Y-99563428D01*
X97750500Y-97023389D01*
X124749500Y-97023389D01*
X124749500Y-97196611D01*
X124776598Y-97367701D01*
X124830127Y-97532445D01*
X124908768Y-97686788D01*
X125010586Y-97826928D01*
X125133072Y-97949414D01*
X125273212Y-98051232D01*
X125427555Y-98129873D01*
X125592299Y-98183402D01*
X125763389Y-98210500D01*
X125763390Y-98210500D01*
X126736610Y-98210500D01*
X126736611Y-98210500D01*
X126907701Y-98183402D01*
X127072445Y-98129873D01*
X127226788Y-98051232D01*
X127366928Y-97949414D01*
X127489414Y-97826928D01*
X127591232Y-97686788D01*
X127669873Y-97532445D01*
X127723402Y-97367701D01*
X127750500Y-97196611D01*
X127750500Y-97023389D01*
X142249500Y-97023389D01*
X142249500Y-97196611D01*
X142276598Y-97367701D01*
X142330127Y-97532445D01*
X142408768Y-97686788D01*
X142510586Y-97826928D01*
X142633072Y-97949414D01*
X142773212Y-98051232D01*
X142927555Y-98129873D01*
X143092299Y-98183402D01*
X143263389Y-98210500D01*
X143263390Y-98210500D01*
X144236610Y-98210500D01*
X144236611Y-98210500D01*
X144407701Y-98183402D01*
X144572445Y-98129873D01*
X144726788Y-98051232D01*
X144866928Y-97949414D01*
X144989414Y-97826928D01*
X145091232Y-97686788D01*
X145169873Y-97532445D01*
X145223402Y-97367701D01*
X145250500Y-97196611D01*
X145250500Y-97023389D01*
X145223402Y-96852299D01*
X145169873Y-96687555D01*
X145091232Y-96533212D01*
X144989414Y-96393072D01*
X144866928Y-96270586D01*
X144726788Y-96168768D01*
X144572445Y-96090127D01*
X144407701Y-96036598D01*
X144407699Y-96036597D01*
X144407698Y-96036597D01*
X144276271Y-96015781D01*
X144236611Y-96009500D01*
X143263389Y-96009500D01*
X143223728Y-96015781D01*
X143092302Y-96036597D01*
X142927552Y-96090128D01*
X142773211Y-96168768D01*
X142693256Y-96226859D01*
X142633072Y-96270586D01*
X142633070Y-96270588D01*
X142633069Y-96270588D01*
X142510588Y-96393069D01*
X142510588Y-96393070D01*
X142510586Y-96393072D01*
X142466859Y-96453256D01*
X142408768Y-96533211D01*
X142330128Y-96687552D01*
X142276597Y-96852302D01*
X142249500Y-97023389D01*
X127750500Y-97023389D01*
X127723402Y-96852299D01*
X127669873Y-96687555D01*
X127591232Y-96533212D01*
X127489414Y-96393072D01*
X127366928Y-96270586D01*
X127226788Y-96168768D01*
X127072445Y-96090127D01*
X126907701Y-96036598D01*
X126907699Y-96036597D01*
X126907698Y-96036597D01*
X126776271Y-96015781D01*
X126736611Y-96009500D01*
X125763389Y-96009500D01*
X125723728Y-96015781D01*
X125592302Y-96036597D01*
X125427552Y-96090128D01*
X125273211Y-96168768D01*
X125193256Y-96226859D01*
X125133072Y-96270586D01*
X125133070Y-96270588D01*
X125133069Y-96270588D01*
X125010588Y-96393069D01*
X125010588Y-96393070D01*
X125010586Y-96393072D01*
X124966859Y-96453256D01*
X124908768Y-96533211D01*
X124830128Y-96687552D01*
X124776597Y-96852302D01*
X124749500Y-97023389D01*
X97750500Y-97023389D01*
X97750500Y-91013389D01*
X108959500Y-91013389D01*
X108959500Y-91986610D01*
X108986579Y-92157585D01*
X108986598Y-92157701D01*
X109040127Y-92322445D01*
X109118768Y-92476788D01*
X109220586Y-92616928D01*
X109343072Y-92739414D01*
X109483212Y-92841232D01*
X109637555Y-92919873D01*
X109802299Y-92973402D01*
X109973389Y-93000500D01*
X109973390Y-93000500D01*
X110146610Y-93000500D01*
X110146611Y-93000500D01*
X110317701Y-92973402D01*
X110482445Y-92919873D01*
X110636788Y-92841232D01*
X110776928Y-92739414D01*
X110899414Y-92616928D01*
X111001232Y-92476788D01*
X111079873Y-92322445D01*
X111133402Y-92157701D01*
X111160500Y-91986611D01*
X111160500Y-91013389D01*
X111499500Y-91013389D01*
X111499500Y-91986610D01*
X111526579Y-92157585D01*
X111526598Y-92157701D01*
X111580127Y-92322445D01*
X111658768Y-92476788D01*
X111760586Y-92616928D01*
X111883072Y-92739414D01*
X112023212Y-92841232D01*
X112177555Y-92919873D01*
X112342299Y-92973402D01*
X112513389Y-93000500D01*
X112513390Y-93000500D01*
X112686610Y-93000500D01*
X112686611Y-93000500D01*
X112857701Y-92973402D01*
X113022445Y-92919873D01*
X113176788Y-92841232D01*
X113316928Y-92739414D01*
X113439414Y-92616928D01*
X113541232Y-92476788D01*
X113619873Y-92322445D01*
X113673402Y-92157701D01*
X113700500Y-91986611D01*
X113700500Y-91013389D01*
X114039500Y-91013389D01*
X114039500Y-91986610D01*
X114066579Y-92157585D01*
X114066598Y-92157701D01*
X114120127Y-92322445D01*
X114198768Y-92476788D01*
X114300586Y-92616928D01*
X114423072Y-92739414D01*
X114563212Y-92841232D01*
X114717555Y-92919873D01*
X114882299Y-92973402D01*
X115053389Y-93000500D01*
X115053390Y-93000500D01*
X115226610Y-93000500D01*
X115226611Y-93000500D01*
X115397701Y-92973402D01*
X115562445Y-92919873D01*
X115716788Y-92841232D01*
X115856928Y-92739414D01*
X115979414Y-92616928D01*
X116081232Y-92476788D01*
X116159873Y-92322445D01*
X116213402Y-92157701D01*
X116240500Y-91986611D01*
X116240500Y-91013389D01*
X116579500Y-91013389D01*
X116579500Y-91986610D01*
X116606579Y-92157585D01*
X116606598Y-92157701D01*
X116660127Y-92322445D01*
X116738768Y-92476788D01*
X116840586Y-92616928D01*
X116963072Y-92739414D01*
X117103212Y-92841232D01*
X117257555Y-92919873D01*
X117422299Y-92973402D01*
X117593389Y-93000500D01*
X117593390Y-93000500D01*
X117766610Y-93000500D01*
X117766611Y-93000500D01*
X117937701Y-92973402D01*
X118102445Y-92919873D01*
X118256788Y-92841232D01*
X118396928Y-92739414D01*
X118519414Y-92616928D01*
X118621232Y-92476788D01*
X118699873Y-92322445D01*
X118753402Y-92157701D01*
X118780500Y-91986611D01*
X118780500Y-91013389D01*
X119119500Y-91013389D01*
X119119500Y-91986610D01*
X119146579Y-92157585D01*
X119146598Y-92157701D01*
X119200127Y-92322445D01*
X119278768Y-92476788D01*
X119380586Y-92616928D01*
X119503072Y-92739414D01*
X119643212Y-92841232D01*
X119797555Y-92919873D01*
X119962299Y-92973402D01*
X120133389Y-93000500D01*
X120133390Y-93000500D01*
X120306610Y-93000500D01*
X120306611Y-93000500D01*
X120477701Y-92973402D01*
X120642445Y-92919873D01*
X120796788Y-92841232D01*
X120936928Y-92739414D01*
X121059414Y-92616928D01*
X121161232Y-92476788D01*
X121239873Y-92322445D01*
X121293402Y-92157701D01*
X121320500Y-91986611D01*
X121320500Y-91013389D01*
X121659500Y-91013389D01*
X121659500Y-91986610D01*
X121686579Y-92157585D01*
X121686598Y-92157701D01*
X121740127Y-92322445D01*
X121818768Y-92476788D01*
X121920586Y-92616928D01*
X122043072Y-92739414D01*
X122183212Y-92841232D01*
X122337555Y-92919873D01*
X122502299Y-92973402D01*
X122673389Y-93000500D01*
X122673390Y-93000500D01*
X122846610Y-93000500D01*
X122846611Y-93000500D01*
X123017701Y-92973402D01*
X123182445Y-92919873D01*
X123336788Y-92841232D01*
X123476928Y-92739414D01*
X123599414Y-92616928D01*
X123701232Y-92476788D01*
X123779873Y-92322445D01*
X123833402Y-92157701D01*
X123860500Y-91986611D01*
X123860500Y-91013389D01*
X124199500Y-91013389D01*
X124199500Y-91986610D01*
X124226579Y-92157585D01*
X124226598Y-92157701D01*
X124280127Y-92322445D01*
X124358768Y-92476788D01*
X124460586Y-92616928D01*
X124583072Y-92739414D01*
X124723212Y-92841232D01*
X124877555Y-92919873D01*
X125042299Y-92973402D01*
X125213389Y-93000500D01*
X125213390Y-93000500D01*
X125386610Y-93000500D01*
X125386611Y-93000500D01*
X125557701Y-92973402D01*
X125722445Y-92919873D01*
X125876788Y-92841232D01*
X126016928Y-92739414D01*
X126139414Y-92616928D01*
X126241232Y-92476788D01*
X126319873Y-92322445D01*
X126373402Y-92157701D01*
X126400500Y-91986611D01*
X126400500Y-91013389D01*
X126739500Y-91013389D01*
X126739500Y-91986610D01*
X126766579Y-92157585D01*
X126766598Y-92157701D01*
X126820127Y-92322445D01*
X126898768Y-92476788D01*
X127000586Y-92616928D01*
X127123072Y-92739414D01*
X127263212Y-92841232D01*
X127417555Y-92919873D01*
X127582299Y-92973402D01*
X127753389Y-93000500D01*
X127753390Y-93000500D01*
X127926610Y-93000500D01*
X127926611Y-93000500D01*
X128097701Y-92973402D01*
X128262445Y-92919873D01*
X128416788Y-92841232D01*
X128556928Y-92739414D01*
X128679414Y-92616928D01*
X128781232Y-92476788D01*
X128859873Y-92322445D01*
X128913402Y-92157701D01*
X128940500Y-91986611D01*
X128940500Y-91013389D01*
X129279500Y-91013389D01*
X129279500Y-91986610D01*
X129306579Y-92157585D01*
X129306598Y-92157701D01*
X129360127Y-92322445D01*
X129438768Y-92476788D01*
X129540586Y-92616928D01*
X129663072Y-92739414D01*
X129803212Y-92841232D01*
X129957555Y-92919873D01*
X130122299Y-92973402D01*
X130293389Y-93000500D01*
X130293390Y-93000500D01*
X130466610Y-93000500D01*
X130466611Y-93000500D01*
X130637701Y-92973402D01*
X130802445Y-92919873D01*
X130956788Y-92841232D01*
X131096928Y-92739414D01*
X131219414Y-92616928D01*
X131321232Y-92476788D01*
X131399873Y-92322445D01*
X131453402Y-92157701D01*
X131480500Y-91986611D01*
X131480500Y-91013389D01*
X131819500Y-91013389D01*
X131819500Y-91986610D01*
X131846579Y-92157585D01*
X131846598Y-92157701D01*
X131900127Y-92322445D01*
X131978768Y-92476788D01*
X132080586Y-92616928D01*
X132203072Y-92739414D01*
X132343212Y-92841232D01*
X132497555Y-92919873D01*
X132662299Y-92973402D01*
X132833389Y-93000500D01*
X132833390Y-93000500D01*
X133006610Y-93000500D01*
X133006611Y-93000500D01*
X133177701Y-92973402D01*
X133342445Y-92919873D01*
X133496788Y-92841232D01*
X133636928Y-92739414D01*
X133759414Y-92616928D01*
X133861232Y-92476788D01*
X133939873Y-92322445D01*
X133993402Y-92157701D01*
X134020500Y-91986611D01*
X134020500Y-91013389D01*
X134359500Y-91013389D01*
X134359500Y-91986610D01*
X134386579Y-92157585D01*
X134386598Y-92157701D01*
X134440127Y-92322445D01*
X134518768Y-92476788D01*
X134620586Y-92616928D01*
X134743072Y-92739414D01*
X134883212Y-92841232D01*
X135037555Y-92919873D01*
X135202299Y-92973402D01*
X135373389Y-93000500D01*
X135373390Y-93000500D01*
X135546610Y-93000500D01*
X135546611Y-93000500D01*
X135717701Y-92973402D01*
X135882445Y-92919873D01*
X136036788Y-92841232D01*
X136176928Y-92739414D01*
X136299414Y-92616928D01*
X136401232Y-92476788D01*
X136479873Y-92322445D01*
X136533402Y-92157701D01*
X136560500Y-91986611D01*
X136560500Y-91013389D01*
X136899500Y-91013389D01*
X136899500Y-91986610D01*
X136926579Y-92157585D01*
X136926598Y-92157701D01*
X136980127Y-92322445D01*
X137058768Y-92476788D01*
X137160586Y-92616928D01*
X137283072Y-92739414D01*
X137423212Y-92841232D01*
X137577555Y-92919873D01*
X137742299Y-92973402D01*
X137913389Y-93000500D01*
X137913390Y-93000500D01*
X138086610Y-93000500D01*
X138086611Y-93000500D01*
X138257701Y-92973402D01*
X138422445Y-92919873D01*
X138576788Y-92841232D01*
X138716928Y-92739414D01*
X138839414Y-92616928D01*
X138941232Y-92476788D01*
X139019873Y-92322445D01*
X139073402Y-92157701D01*
X139100500Y-91986611D01*
X139100500Y-91013389D01*
X139439500Y-91013389D01*
X139439500Y-91986610D01*
X139466579Y-92157585D01*
X139466598Y-92157701D01*
X139520127Y-92322445D01*
X139598768Y-92476788D01*
X139700586Y-92616928D01*
X139823072Y-92739414D01*
X139963212Y-92841232D01*
X140117555Y-92919873D01*
X140282299Y-92973402D01*
X140453389Y-93000500D01*
X140453390Y-93000500D01*
X140626610Y-93000500D01*
X140626611Y-93000500D01*
X140797701Y-92973402D01*
X140962445Y-92919873D01*
X141116788Y-92841232D01*
X141256928Y-92739414D01*
X141379414Y-92616928D01*
X141481232Y-92476788D01*
X141559873Y-92322445D01*
X141613402Y-92157701D01*
X141640500Y-91986611D01*
X141640500Y-91013389D01*
X141979500Y-91013389D01*
X141979500Y-91986610D01*
X142006579Y-92157585D01*
X142006598Y-92157701D01*
X142060127Y-92322445D01*
X142138768Y-92476788D01*
X142240586Y-92616928D01*
X142363072Y-92739414D01*
X142503212Y-92841232D01*
X142657555Y-92919873D01*
X142822299Y-92973402D01*
X142993389Y-93000500D01*
X142993390Y-93000500D01*
X143166610Y-93000500D01*
X143166611Y-93000500D01*
X143337701Y-92973402D01*
X143502445Y-92919873D01*
X143656788Y-92841232D01*
X143796928Y-92739414D01*
X143919414Y-92616928D01*
X144021232Y-92476788D01*
X144099873Y-92322445D01*
X144153402Y-92157701D01*
X144180500Y-91986611D01*
X144180500Y-91013389D01*
X144519500Y-91013389D01*
X144519500Y-91986610D01*
X144546579Y-92157585D01*
X144546598Y-92157701D01*
X144600127Y-92322445D01*
X144678768Y-92476788D01*
X144780586Y-92616928D01*
X144903072Y-92739414D01*
X145043212Y-92841232D01*
X145197555Y-92919873D01*
X145362299Y-92973402D01*
X145533389Y-93000500D01*
X145533390Y-93000500D01*
X145706610Y-93000500D01*
X145706611Y-93000500D01*
X145877701Y-92973402D01*
X146042445Y-92919873D01*
X146196788Y-92841232D01*
X146336928Y-92739414D01*
X146459414Y-92616928D01*
X146561232Y-92476788D01*
X146639873Y-92322445D01*
X146693402Y-92157701D01*
X146720500Y-91986611D01*
X146720500Y-91013389D01*
X146693402Y-90842299D01*
X146639873Y-90677555D01*
X146561232Y-90523212D01*
X146459414Y-90383072D01*
X146336928Y-90260586D01*
X146196788Y-90158768D01*
X146042445Y-90080127D01*
X145877701Y-90026598D01*
X145877699Y-90026597D01*
X145877698Y-90026597D01*
X145746271Y-90005781D01*
X145706611Y-89999500D01*
X145533389Y-89999500D01*
X145493728Y-90005781D01*
X145362302Y-90026597D01*
X145197552Y-90080128D01*
X145043211Y-90158768D01*
X144994543Y-90194128D01*
X144903072Y-90260586D01*
X144903070Y-90260588D01*
X144903069Y-90260588D01*
X144780588Y-90383069D01*
X144780588Y-90383070D01*
X144780586Y-90383072D01*
X144736859Y-90443256D01*
X144678768Y-90523211D01*
X144600128Y-90677552D01*
X144546597Y-90842302D01*
X144519500Y-91013389D01*
X144180500Y-91013389D01*
X144153402Y-90842299D01*
X144099873Y-90677555D01*
X144021232Y-90523212D01*
X143919414Y-90383072D01*
X143796928Y-90260586D01*
X143656788Y-90158768D01*
X143502445Y-90080127D01*
X143337701Y-90026598D01*
X143337699Y-90026597D01*
X143337698Y-90026597D01*
X143206271Y-90005781D01*
X143166611Y-89999500D01*
X142993389Y-89999500D01*
X142953728Y-90005781D01*
X142822302Y-90026597D01*
X142657552Y-90080128D01*
X142503211Y-90158768D01*
X142454543Y-90194128D01*
X142363072Y-90260586D01*
X142363070Y-90260588D01*
X142363069Y-90260588D01*
X142240588Y-90383069D01*
X142240588Y-90383070D01*
X142240586Y-90383072D01*
X142196859Y-90443256D01*
X142138768Y-90523211D01*
X142060128Y-90677552D01*
X142006597Y-90842302D01*
X141979500Y-91013389D01*
X141640500Y-91013389D01*
X141613402Y-90842299D01*
X141559873Y-90677555D01*
X141481232Y-90523212D01*
X141379414Y-90383072D01*
X141256928Y-90260586D01*
X141116788Y-90158768D01*
X140962445Y-90080127D01*
X140797701Y-90026598D01*
X140797699Y-90026597D01*
X140797698Y-90026597D01*
X140666271Y-90005781D01*
X140626611Y-89999500D01*
X140453389Y-89999500D01*
X140413728Y-90005781D01*
X140282302Y-90026597D01*
X140117552Y-90080128D01*
X139963211Y-90158768D01*
X139914543Y-90194128D01*
X139823072Y-90260586D01*
X139823070Y-90260588D01*
X139823069Y-90260588D01*
X139700588Y-90383069D01*
X139700588Y-90383070D01*
X139700586Y-90383072D01*
X139656859Y-90443256D01*
X139598768Y-90523211D01*
X139520128Y-90677552D01*
X139466597Y-90842302D01*
X139439500Y-91013389D01*
X139100500Y-91013389D01*
X139073402Y-90842299D01*
X139019873Y-90677555D01*
X138941232Y-90523212D01*
X138839414Y-90383072D01*
X138716928Y-90260586D01*
X138576788Y-90158768D01*
X138422445Y-90080127D01*
X138257701Y-90026598D01*
X138257699Y-90026597D01*
X138257698Y-90026597D01*
X138126271Y-90005781D01*
X138086611Y-89999500D01*
X137913389Y-89999500D01*
X137873728Y-90005781D01*
X137742302Y-90026597D01*
X137577552Y-90080128D01*
X137423211Y-90158768D01*
X137374543Y-90194128D01*
X137283072Y-90260586D01*
X137283070Y-90260588D01*
X137283069Y-90260588D01*
X137160588Y-90383069D01*
X137160588Y-90383070D01*
X137160586Y-90383072D01*
X137116859Y-90443256D01*
X137058768Y-90523211D01*
X136980128Y-90677552D01*
X136926597Y-90842302D01*
X136899500Y-91013389D01*
X136560500Y-91013389D01*
X136533402Y-90842299D01*
X136479873Y-90677555D01*
X136401232Y-90523212D01*
X136299414Y-90383072D01*
X136176928Y-90260586D01*
X136161612Y-90249458D01*
X136118948Y-90194128D01*
X136110500Y-90149142D01*
X136110500Y-86360808D01*
X136130185Y-86293769D01*
X136146819Y-86273127D01*
X142733127Y-79686819D01*
X142794450Y-79653334D01*
X142820808Y-79650500D01*
X158564071Y-79650500D01*
X158648615Y-79633682D01*
X158689744Y-79625501D01*
X158808127Y-79576465D01*
X158914669Y-79505277D01*
X160505276Y-77914670D01*
X160576465Y-77808127D01*
X160625501Y-77689744D01*
X160639129Y-77621232D01*
X160650500Y-77564069D01*
X160650500Y-68425931D01*
X160650500Y-68425928D01*
X160625502Y-68300261D01*
X160625501Y-68300260D01*
X160625501Y-68300256D01*
X160576465Y-68181873D01*
X160526177Y-68106611D01*
X160526177Y-68106610D01*
X160526175Y-68106609D01*
X160505277Y-68075331D01*
X160266818Y-67836872D01*
X160233334Y-67775550D01*
X160230500Y-67749192D01*
X160230500Y-67133389D01*
X160203402Y-66962299D01*
X160149873Y-66797555D01*
X160071232Y-66643212D01*
X159969414Y-66503072D01*
X159846928Y-66380586D01*
X159706788Y-66278768D01*
X159552445Y-66200127D01*
X159387701Y-66146598D01*
X159387699Y-66146597D01*
X159387698Y-66146597D01*
X159256271Y-66125781D01*
X159216611Y-66119500D01*
X159043389Y-66119500D01*
X159003728Y-66125781D01*
X158872302Y-66146597D01*
X158707552Y-66200128D01*
X158553211Y-66278768D01*
X158517869Y-66304446D01*
X158413072Y-66380586D01*
X158413070Y-66380588D01*
X158413069Y-66380588D01*
X158290588Y-66503069D01*
X158290588Y-66503070D01*
X158290586Y-66503072D01*
X158257283Y-66548909D01*
X158188768Y-66643211D01*
X158110128Y-66797552D01*
X158056597Y-66962302D01*
X158029500Y-67133389D01*
X158029500Y-68106608D01*
X158029499Y-68106608D01*
X158056597Y-68277697D01*
X158056598Y-68277701D01*
X158110127Y-68442445D01*
X158188768Y-68596788D01*
X158290586Y-68736928D01*
X158413072Y-68859414D01*
X158553212Y-68961232D01*
X158707555Y-69039873D01*
X158872299Y-69093402D01*
X159043389Y-69120500D01*
X159043390Y-69120500D01*
X159221483Y-69120500D01*
X159221483Y-69121771D01*
X159284125Y-69134917D01*
X159333892Y-69183958D01*
X159349500Y-69244183D01*
X159349500Y-75053796D01*
X159329815Y-75120835D01*
X159277011Y-75166590D01*
X159207853Y-75176534D01*
X159144297Y-75147509D01*
X159137819Y-75141477D01*
X159036930Y-75040588D01*
X159036928Y-75040586D01*
X158896788Y-74938768D01*
X158742445Y-74860127D01*
X158577701Y-74806598D01*
X158577699Y-74806597D01*
X158577698Y-74806597D01*
X158444064Y-74785432D01*
X158406611Y-74779500D01*
X158233389Y-74779500D01*
X158195936Y-74785432D01*
X158062302Y-74806597D01*
X157897552Y-74860128D01*
X157743211Y-74938768D01*
X157694543Y-74974128D01*
X157603072Y-75040586D01*
X157603070Y-75040588D01*
X157603069Y-75040588D01*
X157480588Y-75163069D01*
X157480588Y-75163070D01*
X157480586Y-75163072D01*
X157449500Y-75205858D01*
X157378768Y-75303211D01*
X157300128Y-75457552D01*
X157246597Y-75622302D01*
X157225700Y-75754245D01*
X157219500Y-75793389D01*
X157219500Y-76766611D01*
X157246598Y-76937701D01*
X157300127Y-77102445D01*
X157378768Y-77256788D01*
X157480586Y-77396928D01*
X157603072Y-77519414D01*
X157743212Y-77621232D01*
X157897555Y-77699873D01*
X158062299Y-77753402D01*
X158233389Y-77780500D01*
X158233390Y-77780500D01*
X158406610Y-77780500D01*
X158406611Y-77780500D01*
X158496568Y-77766252D01*
X158565861Y-77775207D01*
X158619313Y-77820203D01*
X158639953Y-77886954D01*
X158621228Y-77954268D01*
X158603647Y-77976406D01*
X158266873Y-78313181D01*
X158205550Y-78346666D01*
X158179192Y-78349500D01*
X142435929Y-78349500D01*
X142310261Y-78374497D01*
X142310255Y-78374499D01*
X142191870Y-78423535D01*
X142085331Y-78494722D01*
X142085324Y-78494728D01*
X134954726Y-85625326D01*
X134883534Y-85731874D01*
X134834499Y-85850255D01*
X134834497Y-85850261D01*
X134809500Y-85975928D01*
X134809500Y-90149142D01*
X134789815Y-90216181D01*
X134758387Y-90249459D01*
X134743072Y-90260585D01*
X134620588Y-90383069D01*
X134620588Y-90383070D01*
X134620586Y-90383072D01*
X134576859Y-90443256D01*
X134518768Y-90523211D01*
X134440128Y-90677552D01*
X134386597Y-90842302D01*
X134359500Y-91013389D01*
X134020500Y-91013389D01*
X133993402Y-90842299D01*
X133939873Y-90677555D01*
X133861232Y-90523212D01*
X133759414Y-90383072D01*
X133636928Y-90260586D01*
X133496788Y-90158768D01*
X133342445Y-90080127D01*
X133177701Y-90026598D01*
X133177699Y-90026597D01*
X133177698Y-90026597D01*
X133046271Y-90005781D01*
X133006611Y-89999500D01*
X132833389Y-89999500D01*
X132793728Y-90005781D01*
X132662302Y-90026597D01*
X132497552Y-90080128D01*
X132343211Y-90158768D01*
X132294543Y-90194128D01*
X132203072Y-90260586D01*
X132203070Y-90260588D01*
X132203069Y-90260588D01*
X132080588Y-90383069D01*
X132080588Y-90383070D01*
X132080586Y-90383072D01*
X132036859Y-90443256D01*
X131978768Y-90523211D01*
X131900128Y-90677552D01*
X131846597Y-90842302D01*
X131819500Y-91013389D01*
X131480500Y-91013389D01*
X131453402Y-90842299D01*
X131399873Y-90677555D01*
X131321232Y-90523212D01*
X131219414Y-90383072D01*
X131096928Y-90260586D01*
X130956788Y-90158768D01*
X130802445Y-90080127D01*
X130637701Y-90026598D01*
X130637699Y-90026597D01*
X130637698Y-90026597D01*
X130506271Y-90005781D01*
X130466611Y-89999500D01*
X130293389Y-89999500D01*
X130253728Y-90005781D01*
X130122302Y-90026597D01*
X129957552Y-90080128D01*
X129803211Y-90158768D01*
X129754543Y-90194128D01*
X129663072Y-90260586D01*
X129663070Y-90260588D01*
X129663069Y-90260588D01*
X129540588Y-90383069D01*
X129540588Y-90383070D01*
X129540586Y-90383072D01*
X129496859Y-90443256D01*
X129438768Y-90523211D01*
X129360128Y-90677552D01*
X129306597Y-90842302D01*
X129279500Y-91013389D01*
X128940500Y-91013389D01*
X128913402Y-90842299D01*
X128859873Y-90677555D01*
X128781232Y-90523212D01*
X128679414Y-90383072D01*
X128556928Y-90260586D01*
X128416788Y-90158768D01*
X128262445Y-90080127D01*
X128097701Y-90026598D01*
X128097699Y-90026597D01*
X128097698Y-90026597D01*
X127966271Y-90005781D01*
X127926611Y-89999500D01*
X127753389Y-89999500D01*
X127713728Y-90005781D01*
X127582302Y-90026597D01*
X127417552Y-90080128D01*
X127263211Y-90158768D01*
X127214543Y-90194128D01*
X127123072Y-90260586D01*
X127123070Y-90260588D01*
X127123069Y-90260588D01*
X127000588Y-90383069D01*
X127000588Y-90383070D01*
X127000586Y-90383072D01*
X126956859Y-90443256D01*
X126898768Y-90523211D01*
X126820128Y-90677552D01*
X126766597Y-90842302D01*
X126739500Y-91013389D01*
X126400500Y-91013389D01*
X126373402Y-90842299D01*
X126319873Y-90677555D01*
X126241232Y-90523212D01*
X126139414Y-90383072D01*
X126016928Y-90260586D01*
X125876788Y-90158768D01*
X125722445Y-90080127D01*
X125557701Y-90026598D01*
X125557699Y-90026597D01*
X125557698Y-90026597D01*
X125426271Y-90005781D01*
X125386611Y-89999500D01*
X125213389Y-89999500D01*
X125173728Y-90005781D01*
X125042302Y-90026597D01*
X124877552Y-90080128D01*
X124723211Y-90158768D01*
X124674543Y-90194128D01*
X124583072Y-90260586D01*
X124583070Y-90260588D01*
X124583069Y-90260588D01*
X124460588Y-90383069D01*
X124460588Y-90383070D01*
X124460586Y-90383072D01*
X124416859Y-90443256D01*
X124358768Y-90523211D01*
X124280128Y-90677552D01*
X124226597Y-90842302D01*
X124199500Y-91013389D01*
X123860500Y-91013389D01*
X123833402Y-90842299D01*
X123779873Y-90677555D01*
X123701232Y-90523212D01*
X123599414Y-90383072D01*
X123476928Y-90260586D01*
X123336788Y-90158768D01*
X123182445Y-90080127D01*
X123017701Y-90026598D01*
X123017699Y-90026597D01*
X123017698Y-90026597D01*
X122886271Y-90005781D01*
X122846611Y-89999500D01*
X122673389Y-89999500D01*
X122633728Y-90005781D01*
X122502302Y-90026597D01*
X122337552Y-90080128D01*
X122183211Y-90158768D01*
X122134543Y-90194128D01*
X122043072Y-90260586D01*
X122043070Y-90260588D01*
X122043069Y-90260588D01*
X121920588Y-90383069D01*
X121920588Y-90383070D01*
X121920586Y-90383072D01*
X121876859Y-90443256D01*
X121818768Y-90523211D01*
X121740128Y-90677552D01*
X121686597Y-90842302D01*
X121659500Y-91013389D01*
X121320500Y-91013389D01*
X121293402Y-90842299D01*
X121239873Y-90677555D01*
X121161232Y-90523212D01*
X121059414Y-90383072D01*
X120936928Y-90260586D01*
X120796788Y-90158768D01*
X120642445Y-90080127D01*
X120477701Y-90026598D01*
X120477699Y-90026597D01*
X120477698Y-90026597D01*
X120346271Y-90005781D01*
X120306611Y-89999500D01*
X120133389Y-89999500D01*
X120093728Y-90005781D01*
X119962302Y-90026597D01*
X119797552Y-90080128D01*
X119643211Y-90158768D01*
X119594543Y-90194128D01*
X119503072Y-90260586D01*
X119503070Y-90260588D01*
X119503069Y-90260588D01*
X119380588Y-90383069D01*
X119380588Y-90383070D01*
X119380586Y-90383072D01*
X119336859Y-90443256D01*
X119278768Y-90523211D01*
X119200128Y-90677552D01*
X119146597Y-90842302D01*
X119119500Y-91013389D01*
X118780500Y-91013389D01*
X118753402Y-90842299D01*
X118699873Y-90677555D01*
X118621232Y-90523212D01*
X118519414Y-90383072D01*
X118396928Y-90260586D01*
X118256788Y-90158768D01*
X118102445Y-90080127D01*
X117937701Y-90026598D01*
X117937699Y-90026597D01*
X117937698Y-90026597D01*
X117806271Y-90005781D01*
X117766611Y-89999500D01*
X117593389Y-89999500D01*
X117553728Y-90005781D01*
X117422302Y-90026597D01*
X117257552Y-90080128D01*
X117103211Y-90158768D01*
X117054543Y-90194128D01*
X116963072Y-90260586D01*
X116963070Y-90260588D01*
X116963069Y-90260588D01*
X116840588Y-90383069D01*
X116840588Y-90383070D01*
X116840586Y-90383072D01*
X116796859Y-90443256D01*
X116738768Y-90523211D01*
X116660128Y-90677552D01*
X116606597Y-90842302D01*
X116579500Y-91013389D01*
X116240500Y-91013389D01*
X116213402Y-90842299D01*
X116159873Y-90677555D01*
X116081232Y-90523212D01*
X115979414Y-90383072D01*
X115856928Y-90260586D01*
X115716788Y-90158768D01*
X115562445Y-90080127D01*
X115397701Y-90026598D01*
X115397699Y-90026597D01*
X115397698Y-90026597D01*
X115266271Y-90005781D01*
X115226611Y-89999500D01*
X115053389Y-89999500D01*
X115013728Y-90005781D01*
X114882302Y-90026597D01*
X114717552Y-90080128D01*
X114563211Y-90158768D01*
X114514543Y-90194128D01*
X114423072Y-90260586D01*
X114423070Y-90260588D01*
X114423069Y-90260588D01*
X114300588Y-90383069D01*
X114300588Y-90383070D01*
X114300586Y-90383072D01*
X114256859Y-90443256D01*
X114198768Y-90523211D01*
X114120128Y-90677552D01*
X114066597Y-90842302D01*
X114039500Y-91013389D01*
X113700500Y-91013389D01*
X113673402Y-90842299D01*
X113619873Y-90677555D01*
X113541232Y-90523212D01*
X113439414Y-90383072D01*
X113316928Y-90260586D01*
X113176788Y-90158768D01*
X113022445Y-90080127D01*
X112857701Y-90026598D01*
X112857699Y-90026597D01*
X112857698Y-90026597D01*
X112726271Y-90005781D01*
X112686611Y-89999500D01*
X112513389Y-89999500D01*
X112473728Y-90005781D01*
X112342302Y-90026597D01*
X112177552Y-90080128D01*
X112023211Y-90158768D01*
X111974543Y-90194128D01*
X111883072Y-90260586D01*
X111883070Y-90260588D01*
X111883069Y-90260588D01*
X111760588Y-90383069D01*
X111760588Y-90383070D01*
X111760586Y-90383072D01*
X111716859Y-90443256D01*
X111658768Y-90523211D01*
X111580128Y-90677552D01*
X111526597Y-90842302D01*
X111499500Y-91013389D01*
X111160500Y-91013389D01*
X111133402Y-90842299D01*
X111079873Y-90677555D01*
X111001232Y-90523212D01*
X110899414Y-90383072D01*
X110776928Y-90260586D01*
X110636788Y-90158768D01*
X110482445Y-90080127D01*
X110317701Y-90026598D01*
X110317699Y-90026597D01*
X110317698Y-90026597D01*
X110186271Y-90005781D01*
X110146611Y-89999500D01*
X109973389Y-89999500D01*
X109933728Y-90005781D01*
X109802302Y-90026597D01*
X109637552Y-90080128D01*
X109483211Y-90158768D01*
X109434543Y-90194128D01*
X109343072Y-90260586D01*
X109343070Y-90260588D01*
X109343069Y-90260588D01*
X109220588Y-90383069D01*
X109220588Y-90383070D01*
X109220586Y-90383072D01*
X109176859Y-90443256D01*
X109118768Y-90523211D01*
X109040128Y-90677552D01*
X108986597Y-90842302D01*
X108959500Y-91013389D01*
X97750500Y-91013389D01*
X97750500Y-75793389D01*
X108959500Y-75793389D01*
X108959500Y-76766611D01*
X108986598Y-76937701D01*
X109040127Y-77102445D01*
X109118768Y-77256788D01*
X109220586Y-77396928D01*
X109343072Y-77519414D01*
X109483212Y-77621232D01*
X109637555Y-77699873D01*
X109802299Y-77753402D01*
X109973389Y-77780500D01*
X109973390Y-77780500D01*
X110146610Y-77780500D01*
X110146611Y-77780500D01*
X110317701Y-77753402D01*
X110482445Y-77699873D01*
X110636788Y-77621232D01*
X110776928Y-77519414D01*
X110899414Y-77396928D01*
X111001232Y-77256788D01*
X111079873Y-77102445D01*
X111133402Y-76937701D01*
X111160500Y-76766611D01*
X111160500Y-75793389D01*
X111133402Y-75622299D01*
X111079873Y-75457555D01*
X111001232Y-75303212D01*
X110899414Y-75163072D01*
X110776928Y-75040586D01*
X110636788Y-74938768D01*
X110482445Y-74860127D01*
X110317701Y-74806598D01*
X110317699Y-74806597D01*
X110317698Y-74806597D01*
X110184064Y-74785432D01*
X110146611Y-74779500D01*
X109973389Y-74779500D01*
X109935936Y-74785432D01*
X109802302Y-74806597D01*
X109637552Y-74860128D01*
X109483211Y-74938768D01*
X109434543Y-74974128D01*
X109343072Y-75040586D01*
X109343070Y-75040588D01*
X109343069Y-75040588D01*
X109220588Y-75163069D01*
X109220588Y-75163070D01*
X109220586Y-75163072D01*
X109189500Y-75205858D01*
X109118768Y-75303211D01*
X109040128Y-75457552D01*
X108986597Y-75622302D01*
X108965700Y-75754245D01*
X108959500Y-75793389D01*
X97750500Y-75793389D01*
X97750500Y-67573920D01*
X105749499Y-67573920D01*
X105778340Y-67718907D01*
X105778343Y-67718917D01*
X105834914Y-67855492D01*
X105834915Y-67855494D01*
X105834916Y-67855495D01*
X105844067Y-67869191D01*
X105853070Y-67882664D01*
X105853071Y-67882667D01*
X105917046Y-67978414D01*
X105917052Y-67978421D01*
X112518054Y-74579422D01*
X112551539Y-74640745D01*
X112546555Y-74710437D01*
X112504683Y-74766370D01*
X112449771Y-74789576D01*
X112342302Y-74806597D01*
X112177552Y-74860128D01*
X112023211Y-74938768D01*
X111974543Y-74974128D01*
X111883072Y-75040586D01*
X111883070Y-75040588D01*
X111883069Y-75040588D01*
X111760588Y-75163069D01*
X111760588Y-75163070D01*
X111760586Y-75163072D01*
X111729500Y-75205858D01*
X111658768Y-75303211D01*
X111580128Y-75457552D01*
X111526597Y-75622302D01*
X111505700Y-75754245D01*
X111499500Y-75793389D01*
X111499500Y-76766611D01*
X111526598Y-76937701D01*
X111580127Y-77102445D01*
X111658768Y-77256788D01*
X111760586Y-77396928D01*
X111883072Y-77519414D01*
X112023212Y-77621232D01*
X112177555Y-77699873D01*
X112342299Y-77753402D01*
X112513389Y-77780500D01*
X112513390Y-77780500D01*
X112686610Y-77780500D01*
X112686611Y-77780500D01*
X112857701Y-77753402D01*
X113022445Y-77699873D01*
X113176788Y-77621232D01*
X113316928Y-77519414D01*
X113439414Y-77396928D01*
X113541232Y-77256788D01*
X113619873Y-77102445D01*
X113673402Y-76937701D01*
X113700500Y-76766611D01*
X113700500Y-76061229D01*
X113706738Y-76039983D01*
X113708318Y-76017895D01*
X113716390Y-76007111D01*
X113720185Y-75994190D01*
X113736918Y-75979690D01*
X113750190Y-75961962D01*
X113762810Y-75957254D01*
X113772989Y-75948435D01*
X113794906Y-75945283D01*
X113815654Y-75937545D01*
X113828814Y-75940407D01*
X113842147Y-75938491D01*
X113862290Y-75947690D01*
X113883927Y-75952397D01*
X113901652Y-75965665D01*
X113905703Y-75967516D01*
X113912181Y-75973548D01*
X114003181Y-76064548D01*
X114036666Y-76125871D01*
X114039500Y-76152229D01*
X114039500Y-76766611D01*
X114066598Y-76937701D01*
X114120127Y-77102445D01*
X114198768Y-77256788D01*
X114300586Y-77396928D01*
X114423072Y-77519414D01*
X114563212Y-77621232D01*
X114717555Y-77699873D01*
X114882299Y-77753402D01*
X115053389Y-77780500D01*
X115053390Y-77780500D01*
X115226610Y-77780500D01*
X115226611Y-77780500D01*
X115397701Y-77753402D01*
X115562445Y-77699873D01*
X115716788Y-77621232D01*
X115856928Y-77519414D01*
X115979414Y-77396928D01*
X116081232Y-77256788D01*
X116159873Y-77102445D01*
X116213402Y-76937701D01*
X116240500Y-76766611D01*
X116240500Y-75793389D01*
X116579500Y-75793389D01*
X116579500Y-76766611D01*
X116606598Y-76937701D01*
X116660127Y-77102445D01*
X116738768Y-77256788D01*
X116840586Y-77396928D01*
X116963072Y-77519414D01*
X117103212Y-77621232D01*
X117257555Y-77699873D01*
X117422299Y-77753402D01*
X117593389Y-77780500D01*
X117593390Y-77780500D01*
X117766610Y-77780500D01*
X117766611Y-77780500D01*
X117937701Y-77753402D01*
X118102445Y-77699873D01*
X118256788Y-77621232D01*
X118396928Y-77519414D01*
X118519414Y-77396928D01*
X118621232Y-77256788D01*
X118699873Y-77102445D01*
X118753402Y-76937701D01*
X118780500Y-76766611D01*
X118780500Y-75793389D01*
X119119500Y-75793389D01*
X119119500Y-76766611D01*
X119146598Y-76937701D01*
X119200127Y-77102445D01*
X119278768Y-77256788D01*
X119380586Y-77396928D01*
X119503072Y-77519414D01*
X119643212Y-77621232D01*
X119797555Y-77699873D01*
X119962299Y-77753402D01*
X120133389Y-77780500D01*
X120133390Y-77780500D01*
X120306610Y-77780500D01*
X120306611Y-77780500D01*
X120477701Y-77753402D01*
X120642445Y-77699873D01*
X120796788Y-77621232D01*
X120936928Y-77519414D01*
X121059414Y-77396928D01*
X121161232Y-77256788D01*
X121239873Y-77102445D01*
X121293402Y-76937701D01*
X121320500Y-76766611D01*
X121320500Y-75793389D01*
X121659500Y-75793389D01*
X121659500Y-76766611D01*
X121686598Y-76937701D01*
X121740127Y-77102445D01*
X121818768Y-77256788D01*
X121920586Y-77396928D01*
X122043072Y-77519414D01*
X122183212Y-77621232D01*
X122337555Y-77699873D01*
X122502299Y-77753402D01*
X122673389Y-77780500D01*
X122673390Y-77780500D01*
X122846610Y-77780500D01*
X122846611Y-77780500D01*
X123017701Y-77753402D01*
X123182445Y-77699873D01*
X123336788Y-77621232D01*
X123476928Y-77519414D01*
X123599414Y-77396928D01*
X123701232Y-77256788D01*
X123779873Y-77102445D01*
X123833402Y-76937701D01*
X123860500Y-76766611D01*
X123860500Y-75793389D01*
X124199500Y-75793389D01*
X124199500Y-76766611D01*
X124226598Y-76937701D01*
X124280127Y-77102445D01*
X124358768Y-77256788D01*
X124460586Y-77396928D01*
X124583072Y-77519414D01*
X124723212Y-77621232D01*
X124877555Y-77699873D01*
X125042299Y-77753402D01*
X125213389Y-77780500D01*
X125213390Y-77780500D01*
X125386610Y-77780500D01*
X125386611Y-77780500D01*
X125557701Y-77753402D01*
X125722445Y-77699873D01*
X125876788Y-77621232D01*
X126016928Y-77519414D01*
X126139414Y-77396928D01*
X126241232Y-77256788D01*
X126319873Y-77102445D01*
X126373402Y-76937701D01*
X126400500Y-76766611D01*
X126400500Y-75793389D01*
X126739500Y-75793389D01*
X126739500Y-76766611D01*
X126766598Y-76937701D01*
X126820127Y-77102445D01*
X126898768Y-77256788D01*
X127000586Y-77396928D01*
X127123072Y-77519414D01*
X127263212Y-77621232D01*
X127417555Y-77699873D01*
X127582299Y-77753402D01*
X127753389Y-77780500D01*
X127753390Y-77780500D01*
X127926610Y-77780500D01*
X127926611Y-77780500D01*
X128097701Y-77753402D01*
X128262445Y-77699873D01*
X128416788Y-77621232D01*
X128556928Y-77519414D01*
X128679414Y-77396928D01*
X128781232Y-77256788D01*
X128859873Y-77102445D01*
X128913402Y-76937701D01*
X128940500Y-76766611D01*
X128940500Y-75793389D01*
X128913402Y-75622299D01*
X128859873Y-75457555D01*
X128781232Y-75303212D01*
X128679414Y-75163072D01*
X128556928Y-75040586D01*
X128416788Y-74938768D01*
X128262445Y-74860127D01*
X128097701Y-74806598D01*
X128097699Y-74806597D01*
X128097698Y-74806597D01*
X127964064Y-74785432D01*
X127926611Y-74779500D01*
X127753389Y-74779500D01*
X127715936Y-74785432D01*
X127582302Y-74806597D01*
X127417552Y-74860128D01*
X127263211Y-74938768D01*
X127214543Y-74974128D01*
X127123072Y-75040586D01*
X127123070Y-75040588D01*
X127123069Y-75040588D01*
X127000588Y-75163069D01*
X127000588Y-75163070D01*
X127000586Y-75163072D01*
X126969500Y-75205858D01*
X126898768Y-75303211D01*
X126820128Y-75457552D01*
X126766597Y-75622302D01*
X126745700Y-75754245D01*
X126739500Y-75793389D01*
X126400500Y-75793389D01*
X126373402Y-75622299D01*
X126319873Y-75457555D01*
X126241232Y-75303212D01*
X126139414Y-75163072D01*
X126016928Y-75040586D01*
X125876788Y-74938768D01*
X125722445Y-74860127D01*
X125557701Y-74806598D01*
X125557699Y-74806597D01*
X125557698Y-74806597D01*
X125424064Y-74785432D01*
X125386611Y-74779500D01*
X125213389Y-74779500D01*
X125175936Y-74785432D01*
X125042302Y-74806597D01*
X124877552Y-74860128D01*
X124723211Y-74938768D01*
X124674543Y-74974128D01*
X124583072Y-75040586D01*
X124583070Y-75040588D01*
X124583069Y-75040588D01*
X124460588Y-75163069D01*
X124460588Y-75163070D01*
X124460586Y-75163072D01*
X124429500Y-75205858D01*
X124358768Y-75303211D01*
X124280128Y-75457552D01*
X124226597Y-75622302D01*
X124205700Y-75754245D01*
X124199500Y-75793389D01*
X123860500Y-75793389D01*
X123833402Y-75622299D01*
X123779873Y-75457555D01*
X123701232Y-75303212D01*
X123599414Y-75163072D01*
X123476928Y-75040586D01*
X123336788Y-74938768D01*
X123182445Y-74860127D01*
X123017701Y-74806598D01*
X123017699Y-74806597D01*
X123017698Y-74806597D01*
X122884064Y-74785432D01*
X122846611Y-74779500D01*
X122673389Y-74779500D01*
X122635936Y-74785432D01*
X122502302Y-74806597D01*
X122337552Y-74860128D01*
X122183211Y-74938768D01*
X122134543Y-74974128D01*
X122043072Y-75040586D01*
X122043070Y-75040588D01*
X122043069Y-75040588D01*
X121920588Y-75163069D01*
X121920588Y-75163070D01*
X121920586Y-75163072D01*
X121889500Y-75205858D01*
X121818768Y-75303211D01*
X121740128Y-75457552D01*
X121686597Y-75622302D01*
X121665700Y-75754245D01*
X121659500Y-75793389D01*
X121320500Y-75793389D01*
X121293402Y-75622299D01*
X121239873Y-75457555D01*
X121161232Y-75303212D01*
X121059414Y-75163072D01*
X120936928Y-75040586D01*
X120796788Y-74938768D01*
X120642445Y-74860127D01*
X120477701Y-74806598D01*
X120477699Y-74806597D01*
X120477698Y-74806597D01*
X120344064Y-74785432D01*
X120306611Y-74779500D01*
X120133389Y-74779500D01*
X120095936Y-74785432D01*
X119962302Y-74806597D01*
X119797552Y-74860128D01*
X119643211Y-74938768D01*
X119594543Y-74974128D01*
X119503072Y-75040586D01*
X119503070Y-75040588D01*
X119503069Y-75040588D01*
X119380588Y-75163069D01*
X119380588Y-75163070D01*
X119380586Y-75163072D01*
X119349500Y-75205858D01*
X119278768Y-75303211D01*
X119200128Y-75457552D01*
X119146597Y-75622302D01*
X119125700Y-75754245D01*
X119119500Y-75793389D01*
X118780500Y-75793389D01*
X118753402Y-75622299D01*
X118699873Y-75457555D01*
X118621232Y-75303212D01*
X118519414Y-75163072D01*
X118396928Y-75040586D01*
X118256788Y-74938768D01*
X118102445Y-74860127D01*
X117937701Y-74806598D01*
X117937699Y-74806597D01*
X117937698Y-74806597D01*
X117804064Y-74785432D01*
X117766611Y-74779500D01*
X117593389Y-74779500D01*
X117555936Y-74785432D01*
X117422302Y-74806597D01*
X117257552Y-74860128D01*
X117103211Y-74938768D01*
X117054543Y-74974128D01*
X116963072Y-75040586D01*
X116963070Y-75040588D01*
X116963069Y-75040588D01*
X116840588Y-75163069D01*
X116840588Y-75163070D01*
X116840586Y-75163072D01*
X116809500Y-75205858D01*
X116738768Y-75303211D01*
X116660128Y-75457552D01*
X116606597Y-75622302D01*
X116585700Y-75754245D01*
X116579500Y-75793389D01*
X116240500Y-75793389D01*
X116213402Y-75622299D01*
X116159873Y-75457555D01*
X116081232Y-75303212D01*
X116034181Y-75238452D01*
X116010702Y-75172648D01*
X116010500Y-75165568D01*
X116010500Y-68997204D01*
X116030185Y-68930165D01*
X116046819Y-68909523D01*
X116099414Y-68856928D01*
X116201232Y-68716788D01*
X116279873Y-68562445D01*
X116333402Y-68397701D01*
X116360500Y-68226611D01*
X116360500Y-67752229D01*
X116369144Y-67722788D01*
X116375668Y-67692802D01*
X116379422Y-67687786D01*
X116380185Y-67685190D01*
X116396819Y-67664548D01*
X116487819Y-67573548D01*
X116549142Y-67540063D01*
X116618834Y-67545047D01*
X116674767Y-67586919D01*
X116699184Y-67652383D01*
X116699500Y-67661229D01*
X116699500Y-68226611D01*
X116726598Y-68397701D01*
X116780127Y-68562445D01*
X116858768Y-68716788D01*
X116960586Y-68856928D01*
X117083072Y-68979414D01*
X117223212Y-69081232D01*
X117377555Y-69159873D01*
X117542299Y-69213402D01*
X117713389Y-69240500D01*
X117713390Y-69240500D01*
X117886610Y-69240500D01*
X117886611Y-69240500D01*
X118057701Y-69213402D01*
X118208660Y-69164351D01*
X118278497Y-69162357D01*
X118334656Y-69194602D01*
X119645325Y-70505272D01*
X119645331Y-70505277D01*
X119751874Y-70576466D01*
X119821221Y-70605189D01*
X119870256Y-70625501D01*
X119870259Y-70625501D01*
X119870260Y-70625502D01*
X119995928Y-70650500D01*
X119995931Y-70650500D01*
X120124069Y-70650500D01*
X126319192Y-70650500D01*
X126386231Y-70670185D01*
X126406873Y-70686819D01*
X128355985Y-72635931D01*
X130299282Y-74579227D01*
X130332767Y-74640550D01*
X130327783Y-74710242D01*
X130285911Y-74766175D01*
X130230999Y-74789381D01*
X130122302Y-74806597D01*
X129957552Y-74860128D01*
X129803211Y-74938768D01*
X129754543Y-74974128D01*
X129663072Y-75040586D01*
X129663070Y-75040588D01*
X129663069Y-75040588D01*
X129540588Y-75163069D01*
X129540588Y-75163070D01*
X129540586Y-75163072D01*
X129509500Y-75205858D01*
X129438768Y-75303211D01*
X129360128Y-75457552D01*
X129306597Y-75622302D01*
X129285700Y-75754245D01*
X129279500Y-75793389D01*
X129279500Y-76766611D01*
X129306598Y-76937701D01*
X129360127Y-77102445D01*
X129438768Y-77256788D01*
X129540586Y-77396928D01*
X129663072Y-77519414D01*
X129803212Y-77621232D01*
X129957555Y-77699873D01*
X130122299Y-77753402D01*
X130293389Y-77780500D01*
X130293390Y-77780500D01*
X130466610Y-77780500D01*
X130466611Y-77780500D01*
X130637701Y-77753402D01*
X130802445Y-77699873D01*
X130956788Y-77621232D01*
X131096928Y-77519414D01*
X131219414Y-77396928D01*
X131321232Y-77256788D01*
X131399873Y-77102445D01*
X131453402Y-76937701D01*
X131480500Y-76766611D01*
X131480500Y-76059807D01*
X131486738Y-76038561D01*
X131488318Y-76016473D01*
X131496390Y-76005689D01*
X131500185Y-75992768D01*
X131516918Y-75978268D01*
X131530190Y-75960540D01*
X131542810Y-75955832D01*
X131552989Y-75947013D01*
X131574906Y-75943861D01*
X131595654Y-75936123D01*
X131608814Y-75938985D01*
X131622147Y-75937069D01*
X131642290Y-75946268D01*
X131663927Y-75950975D01*
X131681652Y-75964243D01*
X131685703Y-75966094D01*
X131692181Y-75972126D01*
X131783181Y-76063126D01*
X131816666Y-76124449D01*
X131819500Y-76150807D01*
X131819500Y-76766611D01*
X131846598Y-76937701D01*
X131900127Y-77102445D01*
X131978768Y-77256788D01*
X132080586Y-77396928D01*
X132203072Y-77519414D01*
X132343212Y-77621232D01*
X132497555Y-77699873D01*
X132662299Y-77753402D01*
X132833389Y-77780500D01*
X132833390Y-77780500D01*
X133006610Y-77780500D01*
X133006611Y-77780500D01*
X133177701Y-77753402D01*
X133342445Y-77699873D01*
X133496788Y-77621232D01*
X133636928Y-77519414D01*
X133759414Y-77396928D01*
X133861232Y-77256788D01*
X133939873Y-77102445D01*
X133993402Y-76937701D01*
X134020500Y-76766611D01*
X134020500Y-75793389D01*
X134359500Y-75793389D01*
X134359500Y-76766611D01*
X134386598Y-76937701D01*
X134440127Y-77102445D01*
X134518768Y-77256788D01*
X134620586Y-77396928D01*
X134743072Y-77519414D01*
X134883212Y-77621232D01*
X135037555Y-77699873D01*
X135202299Y-77753402D01*
X135373389Y-77780500D01*
X135373390Y-77780500D01*
X135546610Y-77780500D01*
X135546611Y-77780500D01*
X135717701Y-77753402D01*
X135882445Y-77699873D01*
X136036788Y-77621232D01*
X136176928Y-77519414D01*
X136299414Y-77396928D01*
X136401232Y-77256788D01*
X136479873Y-77102445D01*
X136533402Y-76937701D01*
X136560500Y-76766611D01*
X136560500Y-75793389D01*
X136533402Y-75622299D01*
X136479873Y-75457555D01*
X136401232Y-75303212D01*
X136299414Y-75163072D01*
X136176928Y-75040586D01*
X136036788Y-74938768D01*
X135882445Y-74860127D01*
X135717701Y-74806598D01*
X135717699Y-74806597D01*
X135717698Y-74806597D01*
X135584064Y-74785432D01*
X135546611Y-74779500D01*
X135373389Y-74779500D01*
X135335936Y-74785432D01*
X135202302Y-74806597D01*
X135037552Y-74860128D01*
X134883211Y-74938768D01*
X134834543Y-74974128D01*
X134743072Y-75040586D01*
X134743070Y-75040588D01*
X134743069Y-75040588D01*
X134620588Y-75163069D01*
X134620588Y-75163070D01*
X134620586Y-75163072D01*
X134589500Y-75205858D01*
X134518768Y-75303211D01*
X134440128Y-75457552D01*
X134386597Y-75622302D01*
X134365700Y-75754245D01*
X134359500Y-75793389D01*
X134020500Y-75793389D01*
X133993402Y-75622299D01*
X133939873Y-75457555D01*
X133861232Y-75303212D01*
X133759414Y-75163072D01*
X133636928Y-75040586D01*
X133496788Y-74938768D01*
X133342445Y-74860127D01*
X133177701Y-74806598D01*
X133177699Y-74806597D01*
X133177698Y-74806597D01*
X133044064Y-74785432D01*
X133006611Y-74779500D01*
X132833389Y-74779500D01*
X132801192Y-74784599D01*
X132662301Y-74806597D01*
X132511341Y-74855647D01*
X132441500Y-74857642D01*
X132385342Y-74825397D01*
X127054674Y-69494727D01*
X127054673Y-69494726D01*
X127054669Y-69494723D01*
X126948127Y-69423535D01*
X126829744Y-69374499D01*
X126829738Y-69374497D01*
X126704071Y-69349500D01*
X126704069Y-69349500D01*
X125986780Y-69349500D01*
X125919741Y-69329815D01*
X125873986Y-69277011D01*
X125864042Y-69207853D01*
X125893067Y-69144297D01*
X125930485Y-69115015D01*
X125942839Y-69108719D01*
X125996788Y-69081232D01*
X126136928Y-68979414D01*
X126259414Y-68856928D01*
X126361232Y-68716788D01*
X126439873Y-68562445D01*
X126493402Y-68397701D01*
X126520500Y-68226611D01*
X126520500Y-67253389D01*
X126493402Y-67082299D01*
X126439873Y-66917555D01*
X126439872Y-66917553D01*
X126438367Y-66912921D01*
X126440710Y-66912159D01*
X126434164Y-66852823D01*
X126465265Y-66790257D01*
X126525255Y-66754438D01*
X126556255Y-66750500D01*
X126823745Y-66750500D01*
X126890784Y-66770185D01*
X126936539Y-66822989D01*
X126946483Y-66892147D01*
X126940825Y-66912658D01*
X126941633Y-66912921D01*
X126940127Y-66917553D01*
X126940127Y-66917555D01*
X126925589Y-66962299D01*
X126886597Y-67082302D01*
X126869677Y-67189132D01*
X126859500Y-67253389D01*
X126859500Y-68226611D01*
X126886598Y-68397701D01*
X126940127Y-68562445D01*
X127018768Y-68716788D01*
X127120586Y-68856928D01*
X127243072Y-68979414D01*
X127383212Y-69081232D01*
X127537555Y-69159873D01*
X127702299Y-69213402D01*
X127873389Y-69240500D01*
X127873390Y-69240500D01*
X128046610Y-69240500D01*
X128046611Y-69240500D01*
X128217701Y-69213402D01*
X128382445Y-69159873D01*
X128536788Y-69081232D01*
X128676928Y-68979414D01*
X128799414Y-68856928D01*
X128901232Y-68716788D01*
X128979873Y-68562445D01*
X129033402Y-68397701D01*
X129060500Y-68226611D01*
X129060500Y-67253389D01*
X129033402Y-67082299D01*
X128979873Y-66917555D01*
X128979872Y-66917553D01*
X128978367Y-66912921D01*
X128980710Y-66912159D01*
X128974164Y-66852823D01*
X129005265Y-66790257D01*
X129065255Y-66754438D01*
X129096255Y-66750500D01*
X129363745Y-66750500D01*
X129430784Y-66770185D01*
X129476539Y-66822989D01*
X129486483Y-66892147D01*
X129480825Y-66912658D01*
X129481633Y-66912921D01*
X129480127Y-66917553D01*
X129480127Y-66917555D01*
X129465589Y-66962299D01*
X129426597Y-67082302D01*
X129409677Y-67189132D01*
X129399500Y-67253389D01*
X129399500Y-68226611D01*
X129426598Y-68397701D01*
X129480127Y-68562445D01*
X129558768Y-68716788D01*
X129660586Y-68856928D01*
X129783072Y-68979414D01*
X129923212Y-69081232D01*
X130077555Y-69159873D01*
X130242299Y-69213402D01*
X130413389Y-69240500D01*
X130413390Y-69240500D01*
X130586610Y-69240500D01*
X130586611Y-69240500D01*
X130757701Y-69213402D01*
X130922445Y-69159873D01*
X131076788Y-69081232D01*
X131216928Y-68979414D01*
X131339414Y-68856928D01*
X131441232Y-68716788D01*
X131519873Y-68562445D01*
X131573402Y-68397701D01*
X131600500Y-68226611D01*
X131600500Y-67253389D01*
X131573402Y-67082299D01*
X131519873Y-66917555D01*
X131519872Y-66917553D01*
X131518367Y-66912921D01*
X131520710Y-66912159D01*
X131514164Y-66852823D01*
X131545265Y-66790257D01*
X131605255Y-66754438D01*
X131636255Y-66750500D01*
X131903745Y-66750500D01*
X131970784Y-66770185D01*
X132016539Y-66822989D01*
X132026483Y-66892147D01*
X132020825Y-66912658D01*
X132021633Y-66912921D01*
X132020127Y-66917553D01*
X132020127Y-66917555D01*
X132005589Y-66962299D01*
X131966597Y-67082302D01*
X131949677Y-67189132D01*
X131939500Y-67253389D01*
X131939500Y-68226611D01*
X131966598Y-68397701D01*
X132020127Y-68562445D01*
X132098768Y-68716788D01*
X132200586Y-68856928D01*
X132323072Y-68979414D01*
X132463212Y-69081232D01*
X132617555Y-69159873D01*
X132782299Y-69213402D01*
X132953389Y-69240500D01*
X132953390Y-69240500D01*
X133126610Y-69240500D01*
X133126611Y-69240500D01*
X133297701Y-69213402D01*
X133448660Y-69164351D01*
X133518497Y-69162357D01*
X133574656Y-69194602D01*
X137313181Y-72933127D01*
X137346666Y-72994450D01*
X137349500Y-73020808D01*
X137349500Y-74929142D01*
X137329815Y-74996181D01*
X137298387Y-75029459D01*
X137283072Y-75040585D01*
X137160588Y-75163069D01*
X137160588Y-75163070D01*
X137160586Y-75163072D01*
X137129500Y-75205858D01*
X137058768Y-75303211D01*
X136980128Y-75457552D01*
X136926597Y-75622302D01*
X136905700Y-75754245D01*
X136899500Y-75793389D01*
X136899500Y-76766611D01*
X136926598Y-76937701D01*
X136980127Y-77102445D01*
X137058768Y-77256788D01*
X137160586Y-77396928D01*
X137283072Y-77519414D01*
X137423212Y-77621232D01*
X137577555Y-77699873D01*
X137742299Y-77753402D01*
X137913389Y-77780500D01*
X137913390Y-77780500D01*
X138086610Y-77780500D01*
X138086611Y-77780500D01*
X138257701Y-77753402D01*
X138422445Y-77699873D01*
X138576788Y-77621232D01*
X138716928Y-77519414D01*
X138839414Y-77396928D01*
X138941232Y-77256788D01*
X139019873Y-77102445D01*
X139073402Y-76937701D01*
X139100500Y-76766611D01*
X139100500Y-75793389D01*
X139073402Y-75622299D01*
X139019873Y-75457555D01*
X138941232Y-75303212D01*
X138839414Y-75163072D01*
X138716928Y-75040586D01*
X138701612Y-75029458D01*
X138658948Y-74974128D01*
X138650500Y-74929142D01*
X138650500Y-72635928D01*
X138625502Y-72510261D01*
X138625501Y-72510260D01*
X138625501Y-72510256D01*
X138576465Y-72391873D01*
X138576464Y-72391870D01*
X138505277Y-72285331D01*
X138505271Y-72285324D01*
X134176819Y-67956872D01*
X134143334Y-67895549D01*
X134140500Y-67869191D01*
X134140500Y-67253389D01*
X134126028Y-67162017D01*
X134113402Y-67082299D01*
X134059873Y-66917555D01*
X134059872Y-66917553D01*
X134058367Y-66912921D01*
X134060710Y-66912159D01*
X134054164Y-66852823D01*
X134085265Y-66790257D01*
X134145255Y-66754438D01*
X134176255Y-66750500D01*
X139367770Y-66750500D01*
X139434809Y-66770185D01*
X139455451Y-66786819D01*
X140213181Y-67544549D01*
X140246666Y-67605872D01*
X140249500Y-67632230D01*
X140249500Y-68106608D01*
X140249499Y-68106608D01*
X140276597Y-68277697D01*
X140276598Y-68277701D01*
X140330127Y-68442445D01*
X140408768Y-68596788D01*
X140510586Y-68736928D01*
X140633072Y-68859414D01*
X140773212Y-68961232D01*
X140927555Y-69039873D01*
X141092299Y-69093402D01*
X141200997Y-69110618D01*
X141264131Y-69140547D01*
X141301063Y-69199858D01*
X141300065Y-69269721D01*
X141269280Y-69320772D01*
X140034722Y-70555331D01*
X140034718Y-70555336D01*
X139997176Y-70611525D01*
X139997175Y-70611527D01*
X139963538Y-70661867D01*
X139963533Y-70661875D01*
X139914499Y-70780255D01*
X139914497Y-70780261D01*
X139889500Y-70905928D01*
X139889500Y-74929142D01*
X139869815Y-74996181D01*
X139838387Y-75029459D01*
X139823072Y-75040585D01*
X139700588Y-75163069D01*
X139700588Y-75163070D01*
X139700586Y-75163072D01*
X139669500Y-75205858D01*
X139598768Y-75303211D01*
X139520128Y-75457552D01*
X139466597Y-75622302D01*
X139445700Y-75754245D01*
X139439500Y-75793389D01*
X139439500Y-76766611D01*
X139466598Y-76937701D01*
X139520127Y-77102445D01*
X139598768Y-77256788D01*
X139700586Y-77396928D01*
X139823072Y-77519414D01*
X139963212Y-77621232D01*
X140117555Y-77699873D01*
X140282299Y-77753402D01*
X140453389Y-77780500D01*
X140453390Y-77780500D01*
X140626610Y-77780500D01*
X140626611Y-77780500D01*
X140797701Y-77753402D01*
X140962445Y-77699873D01*
X141116788Y-77621232D01*
X141256928Y-77519414D01*
X141379414Y-77396928D01*
X141481232Y-77256788D01*
X141559873Y-77102445D01*
X141613402Y-76937701D01*
X141640500Y-76766611D01*
X141640500Y-75793389D01*
X141979500Y-75793389D01*
X141979500Y-76766611D01*
X142006598Y-76937701D01*
X142060127Y-77102445D01*
X142138768Y-77256788D01*
X142240586Y-77396928D01*
X142363072Y-77519414D01*
X142503212Y-77621232D01*
X142657555Y-77699873D01*
X142822299Y-77753402D01*
X142993389Y-77780500D01*
X142993390Y-77780500D01*
X143166610Y-77780500D01*
X143166611Y-77780500D01*
X143337701Y-77753402D01*
X143502445Y-77699873D01*
X143656788Y-77621232D01*
X143796928Y-77519414D01*
X143919414Y-77396928D01*
X144021232Y-77256788D01*
X144099873Y-77102445D01*
X144153402Y-76937701D01*
X144180500Y-76766611D01*
X144180500Y-75793389D01*
X144519500Y-75793389D01*
X144519500Y-76766611D01*
X144546598Y-76937701D01*
X144600127Y-77102445D01*
X144678768Y-77256788D01*
X144780586Y-77396928D01*
X144903072Y-77519414D01*
X145043212Y-77621232D01*
X145197555Y-77699873D01*
X145362299Y-77753402D01*
X145533389Y-77780500D01*
X145533390Y-77780500D01*
X145706610Y-77780500D01*
X145706611Y-77780500D01*
X145877701Y-77753402D01*
X146042445Y-77699873D01*
X146196788Y-77621232D01*
X146336928Y-77519414D01*
X146459414Y-77396928D01*
X146561232Y-77256788D01*
X146639873Y-77102445D01*
X146693402Y-76937701D01*
X146720500Y-76766611D01*
X146720500Y-75793389D01*
X147059500Y-75793389D01*
X147059500Y-76766611D01*
X147086598Y-76937701D01*
X147140127Y-77102445D01*
X147218768Y-77256788D01*
X147320586Y-77396928D01*
X147443072Y-77519414D01*
X147583212Y-77621232D01*
X147737555Y-77699873D01*
X147902299Y-77753402D01*
X148073389Y-77780500D01*
X148073390Y-77780500D01*
X148246610Y-77780500D01*
X148246611Y-77780500D01*
X148417701Y-77753402D01*
X148582445Y-77699873D01*
X148736788Y-77621232D01*
X148876928Y-77519414D01*
X148999414Y-77396928D01*
X149101232Y-77256788D01*
X149179873Y-77102445D01*
X149233402Y-76937701D01*
X149260500Y-76766611D01*
X149260500Y-75793389D01*
X149599500Y-75793389D01*
X149599500Y-76766611D01*
X149626598Y-76937701D01*
X149680127Y-77102445D01*
X149758768Y-77256788D01*
X149860586Y-77396928D01*
X149983072Y-77519414D01*
X150123212Y-77621232D01*
X150277555Y-77699873D01*
X150442299Y-77753402D01*
X150613389Y-77780500D01*
X150613390Y-77780500D01*
X150786610Y-77780500D01*
X150786611Y-77780500D01*
X150957701Y-77753402D01*
X151122445Y-77699873D01*
X151276788Y-77621232D01*
X151416928Y-77519414D01*
X151539414Y-77396928D01*
X151641232Y-77256788D01*
X151719873Y-77102445D01*
X151773402Y-76937701D01*
X151800500Y-76766611D01*
X151800500Y-75793389D01*
X152139500Y-75793389D01*
X152139500Y-76766611D01*
X152166598Y-76937701D01*
X152220127Y-77102445D01*
X152298768Y-77256788D01*
X152400586Y-77396928D01*
X152523072Y-77519414D01*
X152663212Y-77621232D01*
X152817555Y-77699873D01*
X152982299Y-77753402D01*
X153153389Y-77780500D01*
X153153390Y-77780500D01*
X153326610Y-77780500D01*
X153326611Y-77780500D01*
X153497701Y-77753402D01*
X153662445Y-77699873D01*
X153816788Y-77621232D01*
X153956928Y-77519414D01*
X154079414Y-77396928D01*
X154181232Y-77256788D01*
X154259873Y-77102445D01*
X154313402Y-76937701D01*
X154340500Y-76766611D01*
X154340500Y-75793389D01*
X154679500Y-75793389D01*
X154679500Y-76766611D01*
X154706598Y-76937701D01*
X154760127Y-77102445D01*
X154838768Y-77256788D01*
X154940586Y-77396928D01*
X155063072Y-77519414D01*
X155203212Y-77621232D01*
X155357555Y-77699873D01*
X155522299Y-77753402D01*
X155693389Y-77780500D01*
X155693390Y-77780500D01*
X155866610Y-77780500D01*
X155866611Y-77780500D01*
X156037701Y-77753402D01*
X156202445Y-77699873D01*
X156356788Y-77621232D01*
X156496928Y-77519414D01*
X156619414Y-77396928D01*
X156721232Y-77256788D01*
X156799873Y-77102445D01*
X156853402Y-76937701D01*
X156880500Y-76766611D01*
X156880500Y-75793389D01*
X156853402Y-75622299D01*
X156799873Y-75457555D01*
X156721232Y-75303212D01*
X156619414Y-75163072D01*
X156496928Y-75040586D01*
X156356788Y-74938768D01*
X156202445Y-74860127D01*
X156037701Y-74806598D01*
X156037699Y-74806597D01*
X156037698Y-74806597D01*
X155904064Y-74785432D01*
X155866611Y-74779500D01*
X155693389Y-74779500D01*
X155655936Y-74785432D01*
X155522302Y-74806597D01*
X155357552Y-74860128D01*
X155203211Y-74938768D01*
X155154543Y-74974128D01*
X155063072Y-75040586D01*
X155063070Y-75040588D01*
X155063069Y-75040588D01*
X154940588Y-75163069D01*
X154940588Y-75163070D01*
X154940586Y-75163072D01*
X154909500Y-75205858D01*
X154838768Y-75303211D01*
X154760128Y-75457552D01*
X154706597Y-75622302D01*
X154685700Y-75754245D01*
X154679500Y-75793389D01*
X154340500Y-75793389D01*
X154313402Y-75622299D01*
X154259873Y-75457555D01*
X154181232Y-75303212D01*
X154079414Y-75163072D01*
X153956928Y-75040586D01*
X153816788Y-74938768D01*
X153662445Y-74860127D01*
X153497701Y-74806598D01*
X153497699Y-74806597D01*
X153497698Y-74806597D01*
X153364064Y-74785432D01*
X153326611Y-74779500D01*
X153153389Y-74779500D01*
X153115936Y-74785432D01*
X152982302Y-74806597D01*
X152817552Y-74860128D01*
X152663211Y-74938768D01*
X152614543Y-74974128D01*
X152523072Y-75040586D01*
X152523070Y-75040588D01*
X152523069Y-75040588D01*
X152400588Y-75163069D01*
X152400588Y-75163070D01*
X152400586Y-75163072D01*
X152369500Y-75205858D01*
X152298768Y-75303211D01*
X152220128Y-75457552D01*
X152166597Y-75622302D01*
X152145700Y-75754245D01*
X152139500Y-75793389D01*
X151800500Y-75793389D01*
X151773402Y-75622299D01*
X151719873Y-75457555D01*
X151641232Y-75303212D01*
X151539414Y-75163072D01*
X151416928Y-75040586D01*
X151276788Y-74938768D01*
X151122445Y-74860127D01*
X150957701Y-74806598D01*
X150957699Y-74806597D01*
X150957698Y-74806597D01*
X150824064Y-74785432D01*
X150786611Y-74779500D01*
X150613389Y-74779500D01*
X150575936Y-74785432D01*
X150442302Y-74806597D01*
X150277552Y-74860128D01*
X150123211Y-74938768D01*
X150074543Y-74974128D01*
X149983072Y-75040586D01*
X149983070Y-75040588D01*
X149983069Y-75040588D01*
X149860588Y-75163069D01*
X149860588Y-75163070D01*
X149860586Y-75163072D01*
X149829500Y-75205858D01*
X149758768Y-75303211D01*
X149680128Y-75457552D01*
X149626597Y-75622302D01*
X149605700Y-75754245D01*
X149599500Y-75793389D01*
X149260500Y-75793389D01*
X149233402Y-75622299D01*
X149179873Y-75457555D01*
X149101232Y-75303212D01*
X148999414Y-75163072D01*
X148876928Y-75040586D01*
X148736788Y-74938768D01*
X148582445Y-74860127D01*
X148417701Y-74806598D01*
X148417699Y-74806597D01*
X148417698Y-74806597D01*
X148284064Y-74785432D01*
X148246611Y-74779500D01*
X148073389Y-74779500D01*
X148035936Y-74785432D01*
X147902302Y-74806597D01*
X147737552Y-74860128D01*
X147583211Y-74938768D01*
X147534543Y-74974128D01*
X147443072Y-75040586D01*
X147443070Y-75040588D01*
X147443069Y-75040588D01*
X147320588Y-75163069D01*
X147320588Y-75163070D01*
X147320586Y-75163072D01*
X147289500Y-75205858D01*
X147218768Y-75303211D01*
X147140128Y-75457552D01*
X147086597Y-75622302D01*
X147065700Y-75754245D01*
X147059500Y-75793389D01*
X146720500Y-75793389D01*
X146693402Y-75622299D01*
X146639873Y-75457555D01*
X146561232Y-75303212D01*
X146459414Y-75163072D01*
X146336928Y-75040586D01*
X146196788Y-74938768D01*
X146042445Y-74860127D01*
X145877701Y-74806598D01*
X145877699Y-74806597D01*
X145877698Y-74806597D01*
X145744064Y-74785432D01*
X145706611Y-74779500D01*
X145533389Y-74779500D01*
X145495936Y-74785432D01*
X145362302Y-74806597D01*
X145197552Y-74860128D01*
X145043211Y-74938768D01*
X144994543Y-74974128D01*
X144903072Y-75040586D01*
X144903070Y-75040588D01*
X144903069Y-75040588D01*
X144780588Y-75163069D01*
X144780588Y-75163070D01*
X144780586Y-75163072D01*
X144749500Y-75205858D01*
X144678768Y-75303211D01*
X144600128Y-75457552D01*
X144546597Y-75622302D01*
X144525700Y-75754245D01*
X144519500Y-75793389D01*
X144180500Y-75793389D01*
X144153402Y-75622299D01*
X144099873Y-75457555D01*
X144021232Y-75303212D01*
X143919414Y-75163072D01*
X143796928Y-75040586D01*
X143656788Y-74938768D01*
X143502445Y-74860127D01*
X143337701Y-74806598D01*
X143337699Y-74806597D01*
X143337698Y-74806597D01*
X143204064Y-74785432D01*
X143166611Y-74779500D01*
X142993389Y-74779500D01*
X142955936Y-74785432D01*
X142822302Y-74806597D01*
X142657552Y-74860128D01*
X142503211Y-74938768D01*
X142454543Y-74974128D01*
X142363072Y-75040586D01*
X142363070Y-75040588D01*
X142363069Y-75040588D01*
X142240588Y-75163069D01*
X142240588Y-75163070D01*
X142240586Y-75163072D01*
X142209500Y-75205858D01*
X142138768Y-75303211D01*
X142060128Y-75457552D01*
X142006597Y-75622302D01*
X141985700Y-75754245D01*
X141979500Y-75793389D01*
X141640500Y-75793389D01*
X141613402Y-75622299D01*
X141559873Y-75457555D01*
X141481232Y-75303212D01*
X141379414Y-75163072D01*
X141256928Y-75040586D01*
X141241612Y-75029458D01*
X141198948Y-74974128D01*
X141190500Y-74929142D01*
X141190500Y-71290807D01*
X141210185Y-71223768D01*
X141226814Y-71203131D01*
X143355344Y-69074600D01*
X143416665Y-69041117D01*
X143481339Y-69044351D01*
X143632299Y-69093402D01*
X143803389Y-69120500D01*
X143803390Y-69120500D01*
X143976610Y-69120500D01*
X143976611Y-69120500D01*
X144147701Y-69093402D01*
X144312445Y-69039873D01*
X144466788Y-68961232D01*
X144606928Y-68859414D01*
X144729414Y-68736928D01*
X144831232Y-68596788D01*
X144909873Y-68442445D01*
X144963402Y-68277701D01*
X144990500Y-68106611D01*
X144990500Y-68106608D01*
X145329499Y-68106608D01*
X145356597Y-68277697D01*
X145356598Y-68277701D01*
X145410127Y-68442445D01*
X145488768Y-68596788D01*
X145590586Y-68736928D01*
X145713072Y-68859414D01*
X145853212Y-68961232D01*
X146007555Y-69039873D01*
X146172299Y-69093402D01*
X146343389Y-69120500D01*
X146343390Y-69120500D01*
X146516610Y-69120500D01*
X146516611Y-69120500D01*
X146687701Y-69093402D01*
X146852445Y-69039873D01*
X147006788Y-68961232D01*
X147146928Y-68859414D01*
X147269414Y-68736928D01*
X147371232Y-68596788D01*
X147449873Y-68442445D01*
X147503402Y-68277701D01*
X147530500Y-68106611D01*
X147530500Y-68106608D01*
X147869499Y-68106608D01*
X147896597Y-68277697D01*
X147896598Y-68277701D01*
X147950127Y-68442445D01*
X148028768Y-68596788D01*
X148130586Y-68736928D01*
X148253072Y-68859414D01*
X148393212Y-68961232D01*
X148547555Y-69039873D01*
X148712299Y-69093402D01*
X148883389Y-69120500D01*
X148883390Y-69120500D01*
X149056610Y-69120500D01*
X149056611Y-69120500D01*
X149227701Y-69093402D01*
X149392445Y-69039873D01*
X149546788Y-68961232D01*
X149686928Y-68859414D01*
X149809414Y-68736928D01*
X149911232Y-68596788D01*
X149989873Y-68442445D01*
X150043402Y-68277701D01*
X150070500Y-68106611D01*
X150070500Y-68106608D01*
X150409499Y-68106608D01*
X150436597Y-68277697D01*
X150436598Y-68277701D01*
X150490127Y-68442445D01*
X150568768Y-68596788D01*
X150670586Y-68736928D01*
X150793072Y-68859414D01*
X150933212Y-68961232D01*
X151087555Y-69039873D01*
X151252299Y-69093402D01*
X151423389Y-69120500D01*
X151423390Y-69120500D01*
X151596610Y-69120500D01*
X151596611Y-69120500D01*
X151767701Y-69093402D01*
X151932445Y-69039873D01*
X152086788Y-68961232D01*
X152226928Y-68859414D01*
X152349414Y-68736928D01*
X152451232Y-68596788D01*
X152529873Y-68442445D01*
X152583402Y-68277701D01*
X152610500Y-68106611D01*
X152610500Y-68106608D01*
X152949499Y-68106608D01*
X152976597Y-68277697D01*
X152976598Y-68277701D01*
X153030127Y-68442445D01*
X153108768Y-68596788D01*
X153210586Y-68736928D01*
X153333072Y-68859414D01*
X153473212Y-68961232D01*
X153627555Y-69039873D01*
X153792299Y-69093402D01*
X153963389Y-69120500D01*
X153963390Y-69120500D01*
X154136610Y-69120500D01*
X154136611Y-69120500D01*
X154307701Y-69093402D01*
X154472445Y-69039873D01*
X154626788Y-68961232D01*
X154766928Y-68859414D01*
X154889414Y-68736928D01*
X154991232Y-68596788D01*
X155069873Y-68442445D01*
X155123402Y-68277701D01*
X155150500Y-68106611D01*
X155150500Y-68106608D01*
X155489499Y-68106608D01*
X155516597Y-68277697D01*
X155516598Y-68277701D01*
X155570127Y-68442445D01*
X155648768Y-68596788D01*
X155750586Y-68736928D01*
X155873072Y-68859414D01*
X156013212Y-68961232D01*
X156167555Y-69039873D01*
X156332299Y-69093402D01*
X156503389Y-69120500D01*
X156503390Y-69120500D01*
X156676610Y-69120500D01*
X156676611Y-69120500D01*
X156847701Y-69093402D01*
X157012445Y-69039873D01*
X157166788Y-68961232D01*
X157306928Y-68859414D01*
X157429414Y-68736928D01*
X157531232Y-68596788D01*
X157609873Y-68442445D01*
X157663402Y-68277701D01*
X157690500Y-68106611D01*
X157690500Y-67133389D01*
X157663402Y-66962299D01*
X157609873Y-66797555D01*
X157531232Y-66643212D01*
X157429414Y-66503072D01*
X157306928Y-66380586D01*
X157166788Y-66278768D01*
X157012445Y-66200127D01*
X156847701Y-66146598D01*
X156847699Y-66146597D01*
X156847698Y-66146597D01*
X156716271Y-66125781D01*
X156676611Y-66119500D01*
X156503389Y-66119500D01*
X156463728Y-66125781D01*
X156332302Y-66146597D01*
X156167552Y-66200128D01*
X156013211Y-66278768D01*
X155977869Y-66304446D01*
X155873072Y-66380586D01*
X155873070Y-66380588D01*
X155873069Y-66380588D01*
X155750588Y-66503069D01*
X155750588Y-66503070D01*
X155750586Y-66503072D01*
X155717283Y-66548909D01*
X155648768Y-66643211D01*
X155570128Y-66797552D01*
X155516597Y-66962302D01*
X155489500Y-67133389D01*
X155489500Y-68106608D01*
X155489499Y-68106608D01*
X155150500Y-68106608D01*
X155150500Y-67133389D01*
X155123402Y-66962299D01*
X155069873Y-66797555D01*
X154991232Y-66643212D01*
X154889414Y-66503072D01*
X154766928Y-66380586D01*
X154626788Y-66278768D01*
X154472445Y-66200127D01*
X154307701Y-66146598D01*
X154307699Y-66146597D01*
X154307698Y-66146597D01*
X154176271Y-66125781D01*
X154136611Y-66119500D01*
X153963389Y-66119500D01*
X153923728Y-66125781D01*
X153792302Y-66146597D01*
X153627552Y-66200128D01*
X153473211Y-66278768D01*
X153437869Y-66304446D01*
X153333072Y-66380586D01*
X153333070Y-66380588D01*
X153333069Y-66380588D01*
X153210588Y-66503069D01*
X153210588Y-66503070D01*
X153210586Y-66503072D01*
X153177283Y-66548909D01*
X153108768Y-66643211D01*
X153030128Y-66797552D01*
X152976597Y-66962302D01*
X152949500Y-67133389D01*
X152949500Y-68106608D01*
X152949499Y-68106608D01*
X152610500Y-68106608D01*
X152610500Y-67133389D01*
X152583402Y-66962299D01*
X152529873Y-66797555D01*
X152451232Y-66643212D01*
X152349414Y-66503072D01*
X152226928Y-66380586D01*
X152086788Y-66278768D01*
X151932445Y-66200127D01*
X151767701Y-66146598D01*
X151767699Y-66146597D01*
X151767698Y-66146597D01*
X151636271Y-66125781D01*
X151596611Y-66119500D01*
X151423389Y-66119500D01*
X151383728Y-66125781D01*
X151252302Y-66146597D01*
X151087552Y-66200128D01*
X150933211Y-66278768D01*
X150897869Y-66304446D01*
X150793072Y-66380586D01*
X150793070Y-66380588D01*
X150793069Y-66380588D01*
X150670588Y-66503069D01*
X150670588Y-66503070D01*
X150670586Y-66503072D01*
X150637283Y-66548909D01*
X150568768Y-66643211D01*
X150490128Y-66797552D01*
X150436597Y-66962302D01*
X150409500Y-67133389D01*
X150409500Y-68106608D01*
X150409499Y-68106608D01*
X150070500Y-68106608D01*
X150070500Y-67133389D01*
X150043402Y-66962299D01*
X149989873Y-66797555D01*
X149911232Y-66643212D01*
X149809414Y-66503072D01*
X149686928Y-66380586D01*
X149546788Y-66278768D01*
X149392445Y-66200127D01*
X149227701Y-66146598D01*
X149227699Y-66146597D01*
X149227698Y-66146597D01*
X149096271Y-66125781D01*
X149056611Y-66119500D01*
X148883389Y-66119500D01*
X148843728Y-66125781D01*
X148712302Y-66146597D01*
X148547552Y-66200128D01*
X148393211Y-66278768D01*
X148357869Y-66304446D01*
X148253072Y-66380586D01*
X148253070Y-66380588D01*
X148253069Y-66380588D01*
X148130588Y-66503069D01*
X148130588Y-66503070D01*
X148130586Y-66503072D01*
X148097283Y-66548909D01*
X148028768Y-66643211D01*
X147950128Y-66797552D01*
X147896597Y-66962302D01*
X147869500Y-67133389D01*
X147869500Y-68106608D01*
X147869499Y-68106608D01*
X147530500Y-68106608D01*
X147530500Y-67133389D01*
X147503402Y-66962299D01*
X147449873Y-66797555D01*
X147371232Y-66643212D01*
X147269414Y-66503072D01*
X147146928Y-66380586D01*
X147006788Y-66278768D01*
X146852445Y-66200127D01*
X146687701Y-66146598D01*
X146687699Y-66146597D01*
X146687698Y-66146597D01*
X146556271Y-66125781D01*
X146516611Y-66119500D01*
X146343389Y-66119500D01*
X146303728Y-66125781D01*
X146172302Y-66146597D01*
X146007552Y-66200128D01*
X145853211Y-66278768D01*
X145817869Y-66304446D01*
X145713072Y-66380586D01*
X145713070Y-66380588D01*
X145713069Y-66380588D01*
X145590588Y-66503069D01*
X145590588Y-66503070D01*
X145590586Y-66503072D01*
X145557283Y-66548909D01*
X145488768Y-66643211D01*
X145410128Y-66797552D01*
X145356597Y-66962302D01*
X145329500Y-67133389D01*
X145329500Y-68106608D01*
X145329499Y-68106608D01*
X144990500Y-68106608D01*
X144990500Y-67133389D01*
X144963402Y-66962299D01*
X144909873Y-66797555D01*
X144831232Y-66643212D01*
X144729414Y-66503072D01*
X144606928Y-66380586D01*
X144466788Y-66278768D01*
X144312445Y-66200127D01*
X144147701Y-66146598D01*
X144147699Y-66146597D01*
X144147698Y-66146597D01*
X144016271Y-66125781D01*
X143976611Y-66119500D01*
X143803389Y-66119500D01*
X143763728Y-66125781D01*
X143632302Y-66146597D01*
X143467552Y-66200128D01*
X143313211Y-66278768D01*
X143277869Y-66304446D01*
X143173072Y-66380586D01*
X143173070Y-66380588D01*
X143173069Y-66380588D01*
X143050588Y-66503069D01*
X143050588Y-66503070D01*
X143050586Y-66503072D01*
X143017283Y-66548909D01*
X142948768Y-66643211D01*
X142870128Y-66797552D01*
X142816597Y-66962302D01*
X142789500Y-67133389D01*
X142789500Y-67749191D01*
X142780855Y-67778631D01*
X142774332Y-67808618D01*
X142770577Y-67813633D01*
X142769815Y-67816230D01*
X142753181Y-67836872D01*
X142662181Y-67927872D01*
X142600858Y-67961357D01*
X142531166Y-67956373D01*
X142475233Y-67914501D01*
X142450816Y-67849037D01*
X142450500Y-67840191D01*
X142450500Y-67133389D01*
X142423402Y-66962299D01*
X142369873Y-66797555D01*
X142291232Y-66643212D01*
X142189414Y-66503072D01*
X142066928Y-66380586D01*
X141926788Y-66278768D01*
X141772445Y-66200127D01*
X141607701Y-66146598D01*
X141607699Y-66146597D01*
X141607698Y-66146597D01*
X141476271Y-66125781D01*
X141436611Y-66119500D01*
X141263389Y-66119500D01*
X141239996Y-66123204D01*
X141092299Y-66146597D01*
X141048079Y-66160965D01*
X140978238Y-66162959D01*
X140922082Y-66130714D01*
X140208421Y-65417052D01*
X140208414Y-65417046D01*
X140108818Y-65350499D01*
X140108817Y-65350499D01*
X140085495Y-65334916D01*
X140085493Y-65334915D01*
X140085488Y-65334912D01*
X139948917Y-65278343D01*
X139948907Y-65278340D01*
X139803920Y-65249500D01*
X139803918Y-65249500D01*
X116926082Y-65249500D01*
X116926076Y-65249500D01*
X116897242Y-65255234D01*
X116897243Y-65255235D01*
X116781093Y-65278339D01*
X116781083Y-65278342D01*
X116701081Y-65311479D01*
X116701082Y-65311480D01*
X116644505Y-65334915D01*
X116562372Y-65389795D01*
X116521585Y-65417047D01*
X116521581Y-65417050D01*
X115687916Y-66250714D01*
X115626593Y-66284199D01*
X115561917Y-66280964D01*
X115517704Y-66266598D01*
X115389383Y-66246274D01*
X115346611Y-66239500D01*
X115173389Y-66239500D01*
X115133728Y-66245781D01*
X115002302Y-66266597D01*
X114837552Y-66320128D01*
X114683211Y-66398768D01*
X114603256Y-66456859D01*
X114543072Y-66500586D01*
X114543070Y-66500588D01*
X114543069Y-66500588D01*
X114420588Y-66623069D01*
X114420588Y-66623070D01*
X114420586Y-66623072D01*
X114383259Y-66674448D01*
X114318768Y-66763211D01*
X114240128Y-66917552D01*
X114186597Y-67082302D01*
X114169677Y-67189132D01*
X114159500Y-67253389D01*
X114159500Y-68226611D01*
X114186598Y-68397701D01*
X114240127Y-68562445D01*
X114318768Y-68716788D01*
X114420586Y-68856928D01*
X114420588Y-68856930D01*
X114473181Y-68909523D01*
X114506666Y-68970846D01*
X114509500Y-68997204D01*
X114509500Y-74148770D01*
X114489815Y-74215809D01*
X114437011Y-74261564D01*
X114367853Y-74271508D01*
X114304297Y-74242483D01*
X114297819Y-74236451D01*
X107286819Y-67225451D01*
X107253334Y-67164128D01*
X107250500Y-67137770D01*
X107250500Y-54912229D01*
X107270185Y-54845190D01*
X107286819Y-54824548D01*
X107394439Y-54716928D01*
X107612098Y-54499268D01*
X107673419Y-54465785D01*
X107743110Y-54470769D01*
X107799044Y-54512640D01*
X107810261Y-54530655D01*
X107833766Y-54576785D01*
X107833768Y-54576788D01*
X107935586Y-54716928D01*
X108058072Y-54839414D01*
X108198212Y-54941232D01*
X108352555Y-55019873D01*
X108517299Y-55073402D01*
X108688389Y-55100500D01*
X108694254Y-55100500D01*
X108732572Y-55106569D01*
X108780590Y-55122171D01*
X108959449Y-55150500D01*
X108959454Y-55150500D01*
X110972085Y-55150500D01*
X111039124Y-55170185D01*
X111059766Y-55186819D01*
X111620751Y-55747804D01*
X111620764Y-55747818D01*
X111750500Y-55877554D01*
X111750505Y-55877558D01*
X111798349Y-55912318D01*
X111897006Y-55983996D01*
X111980144Y-56026357D01*
X112058356Y-56066209D01*
X112058358Y-56066209D01*
X112058361Y-56066211D01*
X112124436Y-56087680D01*
X112230590Y-56122172D01*
X112409449Y-56150501D01*
X112409454Y-56150501D01*
X112595658Y-56150501D01*
X112595682Y-56150500D01*
X116404319Y-56150500D01*
X116404343Y-56150501D01*
X116409454Y-56150501D01*
X116590545Y-56150501D01*
X116590546Y-56150501D01*
X116769409Y-56122171D01*
X116941639Y-56066211D01*
X117102994Y-55983996D01*
X117249501Y-55877553D01*
X117377553Y-55749501D01*
X117377554Y-55749499D01*
X117384614Y-55742439D01*
X117384620Y-55742432D01*
X118545878Y-54581174D01*
X118545891Y-54581162D01*
X118549497Y-54577555D01*
X118549501Y-54577553D01*
X118677553Y-54449501D01*
X118783996Y-54302994D01*
X118866211Y-54141639D01*
X118882812Y-54090546D01*
X118922172Y-53969409D01*
X118934490Y-53891638D01*
X118950501Y-53790551D01*
X118950501Y-53605052D01*
X118950500Y-53605037D01*
X118950500Y-52409448D01*
X118922171Y-52230590D01*
X118906569Y-52182572D01*
X118906200Y-52180242D01*
X118905523Y-52179189D01*
X118900500Y-52144254D01*
X118900500Y-52013389D01*
X119239500Y-52013389D01*
X119239500Y-52986611D01*
X119241621Y-53000000D01*
X119266597Y-53157697D01*
X119266597Y-53157699D01*
X119266598Y-53157701D01*
X119320127Y-53322445D01*
X119398768Y-53476788D01*
X119500586Y-53616928D01*
X119623072Y-53739414D01*
X119763212Y-53841232D01*
X119917555Y-53919873D01*
X120082299Y-53973402D01*
X120253389Y-54000500D01*
X120253390Y-54000500D01*
X120426610Y-54000500D01*
X120426611Y-54000500D01*
X120597701Y-53973402D01*
X120762445Y-53919873D01*
X120916788Y-53841232D01*
X121056928Y-53739414D01*
X121179414Y-53616928D01*
X121281232Y-53476788D01*
X121359873Y-53322445D01*
X121413402Y-53157701D01*
X121440500Y-52986611D01*
X121440500Y-52013389D01*
X121413402Y-51842299D01*
X121359873Y-51677555D01*
X121281232Y-51523212D01*
X121179414Y-51383072D01*
X121056928Y-51260586D01*
X120916788Y-51158768D01*
X120762445Y-51080127D01*
X120597701Y-51026598D01*
X120597699Y-51026597D01*
X120597698Y-51026597D01*
X120466271Y-51005781D01*
X120426611Y-50999500D01*
X120253389Y-50999500D01*
X120213728Y-51005781D01*
X120082302Y-51026597D01*
X119917552Y-51080128D01*
X119763211Y-51158768D01*
X119731767Y-51181614D01*
X119623072Y-51260586D01*
X119623070Y-51260588D01*
X119623069Y-51260588D01*
X119500588Y-51383069D01*
X119500588Y-51383070D01*
X119500586Y-51383072D01*
X119456859Y-51443256D01*
X119398768Y-51523211D01*
X119320128Y-51677552D01*
X119266597Y-51842302D01*
X119239500Y-52013389D01*
X118900500Y-52013389D01*
X118886680Y-51926135D01*
X118873402Y-51842299D01*
X118819873Y-51677555D01*
X118741232Y-51523212D01*
X118639414Y-51383072D01*
X118516928Y-51260586D01*
X118376788Y-51158768D01*
X118222445Y-51080127D01*
X118057701Y-51026598D01*
X118057699Y-51026597D01*
X118057698Y-51026597D01*
X117926271Y-51005781D01*
X117886611Y-50999500D01*
X117713389Y-50999500D01*
X117673728Y-51005781D01*
X117542302Y-51026597D01*
X117377552Y-51080128D01*
X117223211Y-51158768D01*
X117191767Y-51181614D01*
X117083072Y-51260586D01*
X117083070Y-51260588D01*
X117083069Y-51260588D01*
X116960588Y-51383069D01*
X116960588Y-51383070D01*
X116960586Y-51383072D01*
X116916859Y-51443256D01*
X116858768Y-51523211D01*
X116780128Y-51677552D01*
X116726597Y-51842302D01*
X116699500Y-52013389D01*
X116699500Y-52144254D01*
X116693431Y-52182572D01*
X116677828Y-52230590D01*
X116649500Y-52409448D01*
X116649500Y-53172085D01*
X116629815Y-53239124D01*
X116613185Y-53259761D01*
X116554742Y-53318205D01*
X116514835Y-53358112D01*
X116453511Y-53391596D01*
X116383820Y-53386612D01*
X116327887Y-53344740D01*
X116303470Y-53279275D01*
X116309221Y-53232119D01*
X116333402Y-53157701D01*
X116360500Y-52986611D01*
X116360500Y-52013389D01*
X116333402Y-51842299D01*
X116279873Y-51677555D01*
X116201232Y-51523212D01*
X116099414Y-51383072D01*
X116046819Y-51330477D01*
X116013334Y-51269154D01*
X116010500Y-51242796D01*
X116010500Y-44602230D01*
X116030185Y-44535191D01*
X116046819Y-44514549D01*
X118774549Y-41786819D01*
X118835872Y-41753334D01*
X118862230Y-41750500D01*
X120015500Y-41750500D01*
X120082539Y-41770185D01*
X120128294Y-41822989D01*
X120139500Y-41874500D01*
X120139500Y-43487796D01*
X120132365Y-43512091D01*
X120129224Y-43537222D01*
X120121772Y-43548166D01*
X120119815Y-43554835D01*
X120110692Y-43567259D01*
X120107120Y-43571537D01*
X120050586Y-43628072D01*
X119987875Y-43714385D01*
X119985192Y-43717600D01*
X119959482Y-43734799D01*
X119934987Y-43753689D01*
X119930697Y-43754057D01*
X119927120Y-43756451D01*
X119896194Y-43757020D01*
X119865374Y-43759667D01*
X119861566Y-43757657D01*
X119857262Y-43757737D01*
X119830942Y-43741499D01*
X119803579Y-43727061D01*
X119799030Y-43721811D01*
X119797798Y-43721051D01*
X119797088Y-43719569D01*
X119789683Y-43711023D01*
X119729418Y-43628078D01*
X119729414Y-43628072D01*
X119606928Y-43505586D01*
X119466788Y-43403768D01*
X119312445Y-43325127D01*
X119147701Y-43271598D01*
X119147699Y-43271597D01*
X119147698Y-43271597D01*
X119014487Y-43250499D01*
X118976611Y-43244500D01*
X118803389Y-43244500D01*
X118765513Y-43250499D01*
X118632302Y-43271597D01*
X118467552Y-43325128D01*
X118313211Y-43403768D01*
X118233256Y-43461859D01*
X118173072Y-43505586D01*
X118173070Y-43505588D01*
X118173069Y-43505588D01*
X118050588Y-43628069D01*
X118050588Y-43628070D01*
X118050586Y-43628072D01*
X118035752Y-43648489D01*
X117948768Y-43768211D01*
X117870128Y-43922552D01*
X117816597Y-44087302D01*
X117789500Y-44258389D01*
X117789500Y-44264254D01*
X117783431Y-44302572D01*
X117767828Y-44350590D01*
X117739500Y-44529448D01*
X117739500Y-45795038D01*
X117739499Y-45795053D01*
X117739499Y-45799454D01*
X117739499Y-45980546D01*
X117741868Y-45995500D01*
X117756238Y-46086229D01*
X117767829Y-46159410D01*
X117823787Y-46331636D01*
X117823788Y-46331639D01*
X117906006Y-46492997D01*
X118012440Y-46639493D01*
X118012444Y-46639497D01*
X118012447Y-46639501D01*
X118089874Y-46716928D01*
X118144829Y-46771883D01*
X118144840Y-46771893D01*
X121460626Y-50087679D01*
X121483429Y-50119064D01*
X121516004Y-50182995D01*
X121622440Y-50329493D01*
X121622444Y-50329497D01*
X121622447Y-50329501D01*
X121692400Y-50399454D01*
X121754829Y-50461883D01*
X121754840Y-50461893D01*
X122286562Y-50993615D01*
X122320047Y-51054938D01*
X122315063Y-51124630D01*
X122273191Y-51180563D01*
X122271767Y-51181614D01*
X122163070Y-51260587D01*
X122040588Y-51383069D01*
X122040588Y-51383070D01*
X122040586Y-51383072D01*
X121996859Y-51443256D01*
X121938768Y-51523211D01*
X121860128Y-51677552D01*
X121806597Y-51842302D01*
X121779500Y-52013389D01*
X121779500Y-52986611D01*
X121781621Y-53000000D01*
X121806597Y-53157697D01*
X121806597Y-53157699D01*
X121806598Y-53157701D01*
X121860127Y-53322445D01*
X121938768Y-53476788D01*
X122040586Y-53616928D01*
X122163072Y-53739414D01*
X122303212Y-53841232D01*
X122457555Y-53919873D01*
X122622299Y-53973402D01*
X122793389Y-54000500D01*
X122793390Y-54000500D01*
X122966610Y-54000500D01*
X122966611Y-54000500D01*
X123137701Y-53973402D01*
X123302445Y-53919873D01*
X123456788Y-53841232D01*
X123596928Y-53739414D01*
X123719414Y-53616928D01*
X123821232Y-53476788D01*
X123899873Y-53322445D01*
X123953402Y-53157701D01*
X123980500Y-52986611D01*
X123980500Y-52986608D01*
X123980883Y-52981748D01*
X123981991Y-52981835D01*
X123986738Y-52965668D01*
X123988318Y-52943580D01*
X123996390Y-52932796D01*
X124000185Y-52919875D01*
X124016918Y-52905375D01*
X124030190Y-52887647D01*
X124042810Y-52882939D01*
X124052989Y-52874120D01*
X124074906Y-52870968D01*
X124095654Y-52863230D01*
X124108814Y-52866092D01*
X124122147Y-52864176D01*
X124142290Y-52873375D01*
X124163927Y-52878082D01*
X124181652Y-52891350D01*
X124185703Y-52893201D01*
X124192181Y-52899233D01*
X124298526Y-53005578D01*
X124332011Y-53066901D01*
X124333318Y-53073860D01*
X124346597Y-53157698D01*
X124346598Y-53157701D01*
X124400127Y-53322445D01*
X124478768Y-53476788D01*
X124580586Y-53616928D01*
X124703072Y-53739414D01*
X124843212Y-53841232D01*
X124997555Y-53919873D01*
X125162299Y-53973402D01*
X125333389Y-54000500D01*
X125333390Y-54000500D01*
X125506610Y-54000500D01*
X125506611Y-54000500D01*
X125677701Y-53973402D01*
X125842445Y-53919873D01*
X125996788Y-53841232D01*
X126136928Y-53739414D01*
X126259414Y-53616928D01*
X126361232Y-53476788D01*
X126439873Y-53322445D01*
X126493402Y-53157701D01*
X126520500Y-52986611D01*
X126520500Y-52855747D01*
X126523050Y-52847061D01*
X126521762Y-52838103D01*
X126526569Y-52817429D01*
X126527949Y-52813181D01*
X126542172Y-52769409D01*
X126567527Y-52609320D01*
X126597456Y-52546188D01*
X126656767Y-52509256D01*
X126726630Y-52510254D01*
X126784863Y-52548863D01*
X126812473Y-52609322D01*
X126837828Y-52769409D01*
X126843374Y-52786475D01*
X126852051Y-52813181D01*
X126853431Y-52817426D01*
X126859500Y-52855745D01*
X126859500Y-52986611D01*
X126861621Y-53000000D01*
X126886597Y-53157697D01*
X126886597Y-53157699D01*
X126886598Y-53157701D01*
X126940127Y-53322445D01*
X127018768Y-53476788D01*
X127120586Y-53616928D01*
X127243072Y-53739414D01*
X127383212Y-53841232D01*
X127537555Y-53919873D01*
X127702299Y-53973402D01*
X127786135Y-53986680D01*
X127849270Y-54016609D01*
X127854419Y-54021472D01*
X130579321Y-56746374D01*
X130579335Y-56746389D01*
X130582446Y-56749500D01*
X130582447Y-56749501D01*
X130710499Y-56877553D01*
X130710502Y-56877555D01*
X130710506Y-56877559D01*
X130843364Y-56974084D01*
X130857006Y-56983996D01*
X130962484Y-57037740D01*
X131018360Y-57066211D01*
X131018363Y-57066212D01*
X131104476Y-57094191D01*
X131190591Y-57122171D01*
X131369453Y-57150501D01*
X131369454Y-57150501D01*
X131555657Y-57150501D01*
X131555681Y-57150500D01*
X150972085Y-57150500D01*
X151039124Y-57170185D01*
X151059766Y-57186819D01*
X163119315Y-69246367D01*
X163119342Y-69246396D01*
X163122446Y-69249500D01*
X163122447Y-69249501D01*
X163250499Y-69377553D01*
X163250502Y-69377555D01*
X163250506Y-69377559D01*
X163383364Y-69474084D01*
X163397006Y-69483996D01*
X163487861Y-69530289D01*
X163487860Y-69530289D01*
X163516739Y-69545003D01*
X163531794Y-69552674D01*
X163582590Y-69600648D01*
X163599500Y-69663159D01*
X163599500Y-69704739D01*
X163609987Y-69837982D01*
X163665426Y-70058002D01*
X163759258Y-70264579D01*
X163759263Y-70264589D01*
X163888473Y-70451090D01*
X164048909Y-70611526D01*
X164235410Y-70740736D01*
X164235420Y-70740741D01*
X164441997Y-70834573D01*
X164441998Y-70834573D01*
X164442000Y-70834574D01*
X164662017Y-70890013D01*
X164795264Y-70900500D01*
X164795270Y-70900500D01*
X167204730Y-70900500D01*
X167204736Y-70900500D01*
X167337983Y-70890013D01*
X167558000Y-70834574D01*
X167764582Y-70740740D01*
X167764584Y-70740738D01*
X167764589Y-70740736D01*
X167951090Y-70611526D01*
X167951092Y-70611525D01*
X168111526Y-70451090D01*
X168240736Y-70264589D01*
X168240741Y-70264579D01*
X168334573Y-70058002D01*
X168334574Y-70058000D01*
X168390013Y-69837983D01*
X168400500Y-69704736D01*
X168400500Y-67295264D01*
X168390013Y-67162017D01*
X168334574Y-66942000D01*
X168323469Y-66917552D01*
X168240741Y-66735420D01*
X168240736Y-66735410D01*
X168111526Y-66548909D01*
X167951090Y-66388473D01*
X167764589Y-66259263D01*
X167764579Y-66259258D01*
X167558002Y-66165426D01*
X167411322Y-66128466D01*
X167337983Y-66109987D01*
X167304671Y-66107365D01*
X167204739Y-66099500D01*
X167204736Y-66099500D01*
X166871739Y-66099500D01*
X166804700Y-66079815D01*
X166758945Y-66027011D01*
X166749001Y-65957853D01*
X166778026Y-65894297D01*
X166830784Y-65858459D01*
X166870692Y-65844494D01*
X166958408Y-65813801D01*
X167211445Y-65691945D01*
X167449248Y-65542523D01*
X167668825Y-65367416D01*
X167867416Y-65168825D01*
X168042523Y-64949248D01*
X168191945Y-64711445D01*
X168313801Y-64458408D01*
X168406560Y-64193318D01*
X168469055Y-63919509D01*
X168500500Y-63640425D01*
X168500500Y-63359575D01*
X168469055Y-63080491D01*
X168406560Y-62806682D01*
X168313801Y-62541592D01*
X168191945Y-62288555D01*
X168042523Y-62050752D01*
X167867416Y-61831175D01*
X167668825Y-61632584D01*
X167449248Y-61457477D01*
X167211445Y-61308055D01*
X167211442Y-61308053D01*
X166958411Y-61186200D01*
X166693329Y-61093443D01*
X166693317Y-61093439D01*
X166419512Y-61030945D01*
X166419494Y-61030942D01*
X166140431Y-60999500D01*
X166140425Y-60999500D01*
X165859575Y-60999500D01*
X165859568Y-60999500D01*
X165580505Y-61030942D01*
X165580487Y-61030945D01*
X165306682Y-61093439D01*
X165306670Y-61093443D01*
X165041588Y-61186200D01*
X164788557Y-61308053D01*
X164550753Y-61457476D01*
X164331175Y-61632583D01*
X164132583Y-61831175D01*
X163957476Y-62050753D01*
X163808053Y-62288557D01*
X163686200Y-62541588D01*
X163593443Y-62806670D01*
X163593439Y-62806682D01*
X163530945Y-63080487D01*
X163530942Y-63080505D01*
X163499500Y-63359568D01*
X163499500Y-63640431D01*
X163530942Y-63919494D01*
X163530945Y-63919512D01*
X163593439Y-64193317D01*
X163593443Y-64193329D01*
X163686200Y-64458411D01*
X163808053Y-64711442D01*
X163808055Y-64711445D01*
X163957477Y-64949248D01*
X164132584Y-65168825D01*
X164331175Y-65367416D01*
X164550752Y-65542523D01*
X164788555Y-65691945D01*
X165041592Y-65813801D01*
X165115784Y-65839762D01*
X165169216Y-65858459D01*
X165225992Y-65899181D01*
X165251739Y-65964133D01*
X165238283Y-66032695D01*
X165189895Y-66083098D01*
X165128261Y-66099500D01*
X164795260Y-66099500D01*
X164662017Y-66109987D01*
X164441997Y-66165426D01*
X164235420Y-66259258D01*
X164235410Y-66259263D01*
X164048909Y-66388473D01*
X163888473Y-66548909D01*
X163886083Y-66552360D01*
X163831723Y-66596256D01*
X163762261Y-66603794D01*
X163699751Y-66572581D01*
X163696475Y-66569423D01*
X158584528Y-61457476D01*
X153214730Y-56087677D01*
X153181247Y-56026357D01*
X153186231Y-55956665D01*
X153214730Y-55912320D01*
X154794518Y-54332532D01*
X154794537Y-54332516D01*
X154799498Y-54327554D01*
X154799501Y-54327553D01*
X154927553Y-54199501D01*
X155033996Y-54052994D01*
X155116211Y-53891639D01*
X155136777Y-53828342D01*
X155172172Y-53719409D01*
X155188403Y-53616929D01*
X155200501Y-53540551D01*
X155200501Y-53355052D01*
X155200500Y-53355037D01*
X155200500Y-52289448D01*
X155172171Y-52110590D01*
X155156569Y-52062572D01*
X155150500Y-52024254D01*
X155150500Y-51893389D01*
X155142409Y-51842303D01*
X155123402Y-51722299D01*
X155069873Y-51557555D01*
X154991232Y-51403212D01*
X154987070Y-51397484D01*
X154950672Y-51347385D01*
X154927192Y-51281579D01*
X154943017Y-51213525D01*
X154993123Y-51164830D01*
X155050990Y-51150500D01*
X155589010Y-51150500D01*
X155656049Y-51170185D01*
X155701804Y-51222989D01*
X155711748Y-51292147D01*
X155689328Y-51347385D01*
X155648770Y-51403208D01*
X155570128Y-51557552D01*
X155516597Y-51722302D01*
X155497592Y-51842299D01*
X155489500Y-51893389D01*
X155489500Y-52866611D01*
X155494667Y-52899233D01*
X155516022Y-53034068D01*
X155516598Y-53037701D01*
X155570127Y-53202445D01*
X155648768Y-53356788D01*
X155750586Y-53496928D01*
X155873072Y-53619414D01*
X156013212Y-53721232D01*
X156167555Y-53799873D01*
X156332299Y-53853402D01*
X156503389Y-53880500D01*
X156503390Y-53880500D01*
X156676610Y-53880500D01*
X156676611Y-53880500D01*
X156847701Y-53853402D01*
X157012445Y-53799873D01*
X157166788Y-53721232D01*
X157306928Y-53619414D01*
X157429414Y-53496928D01*
X157531232Y-53356788D01*
X157609873Y-53202445D01*
X157663402Y-53037701D01*
X157690500Y-52866611D01*
X157690500Y-51893389D01*
X157663402Y-51722299D01*
X157609873Y-51557555D01*
X157531232Y-51403212D01*
X157527070Y-51397484D01*
X157490672Y-51347385D01*
X157467192Y-51281579D01*
X157483017Y-51213525D01*
X157533123Y-51164830D01*
X157590990Y-51150500D01*
X158129010Y-51150500D01*
X158196049Y-51170185D01*
X158241804Y-51222989D01*
X158251748Y-51292147D01*
X158229328Y-51347385D01*
X158188770Y-51403208D01*
X158110128Y-51557552D01*
X158056597Y-51722302D01*
X158037592Y-51842299D01*
X158029500Y-51893389D01*
X158029500Y-52866611D01*
X158034667Y-52899233D01*
X158056022Y-53034068D01*
X158056598Y-53037701D01*
X158110127Y-53202445D01*
X158188768Y-53356788D01*
X158290586Y-53496928D01*
X158413072Y-53619414D01*
X158553212Y-53721232D01*
X158707555Y-53799873D01*
X158872299Y-53853402D01*
X159043389Y-53880500D01*
X159043390Y-53880500D01*
X159216610Y-53880500D01*
X159216611Y-53880500D01*
X159387701Y-53853402D01*
X159552445Y-53799873D01*
X159706788Y-53721232D01*
X159846928Y-53619414D01*
X159969414Y-53496928D01*
X160071232Y-53356788D01*
X160149873Y-53202445D01*
X160203402Y-53037701D01*
X160230500Y-52866611D01*
X160230500Y-52156915D01*
X160250185Y-52089876D01*
X160302989Y-52044121D01*
X160372147Y-52034177D01*
X160435703Y-52063202D01*
X160442181Y-52069234D01*
X163119321Y-54746374D01*
X163119335Y-54746389D01*
X163122446Y-54749500D01*
X163122447Y-54749501D01*
X163250499Y-54877553D01*
X163250502Y-54877555D01*
X163250506Y-54877559D01*
X163338146Y-54941232D01*
X163397006Y-54983996D01*
X163502484Y-55037740D01*
X163558360Y-55066211D01*
X163558363Y-55066212D01*
X163644476Y-55094191D01*
X163730591Y-55122171D01*
X163909453Y-55150501D01*
X163909454Y-55150501D01*
X164095657Y-55150501D01*
X164095681Y-55150500D01*
X166590551Y-55150500D01*
X166769409Y-55122171D01*
X166817428Y-55106569D01*
X166855746Y-55100500D01*
X166861610Y-55100500D01*
X166861611Y-55100500D01*
X167032701Y-55073402D01*
X167197445Y-55019873D01*
X167351788Y-54941232D01*
X167491928Y-54839414D01*
X167614414Y-54716928D01*
X167716232Y-54576788D01*
X167794873Y-54422445D01*
X167848402Y-54257701D01*
X167875500Y-54086611D01*
X167875500Y-53913389D01*
X167848402Y-53742299D01*
X167794873Y-53577555D01*
X167716232Y-53423212D01*
X167614414Y-53283072D01*
X167491928Y-53160586D01*
X167408975Y-53100317D01*
X167394505Y-53081551D01*
X167376778Y-53065828D01*
X167373563Y-53054393D01*
X167366311Y-53044988D01*
X167364283Y-53021380D01*
X167357870Y-52998566D01*
X167361348Y-52987207D01*
X167360332Y-52975374D01*
X167371390Y-52954415D01*
X167378329Y-52931759D01*
X167389532Y-52920032D01*
X167392938Y-52913579D01*
X167401749Y-52905354D01*
X167405259Y-52902382D01*
X167491928Y-52839414D01*
X167559606Y-52771734D01*
X167563532Y-52768412D01*
X167590956Y-52756268D01*
X167617285Y-52741892D01*
X167619310Y-52741470D01*
X167718913Y-52721658D01*
X167855495Y-52665084D01*
X167904729Y-52632186D01*
X167978416Y-52582952D01*
X169582951Y-50978416D01*
X169665084Y-50855495D01*
X169721658Y-50718913D01*
X169731096Y-50671462D01*
X169750500Y-50573920D01*
X169750500Y-43926079D01*
X169734789Y-43847099D01*
X169733161Y-43838913D01*
X169721659Y-43781088D01*
X169665940Y-43646573D01*
X169665384Y-43644953D01*
X169582954Y-43521588D01*
X169582953Y-43521587D01*
X169582951Y-43521584D01*
X169478416Y-43417049D01*
X168737030Y-42675663D01*
X166478421Y-40417052D01*
X166478414Y-40417046D01*
X166404729Y-40367812D01*
X166404729Y-40367813D01*
X166355491Y-40334913D01*
X166218917Y-40278343D01*
X166218907Y-40278340D01*
X166073920Y-40249500D01*
X166073918Y-40249500D01*
X153073918Y-40249500D01*
X151073918Y-40249500D01*
X141573918Y-40249500D01*
X121073918Y-40249500D01*
X118426082Y-40249500D01*
X118426080Y-40249500D01*
X118281092Y-40278340D01*
X118281086Y-40278342D01*
X118144508Y-40334914D01*
X118144496Y-40334921D01*
X118095269Y-40367813D01*
X118021588Y-40417044D01*
X118021580Y-40417050D01*
X114677050Y-43761580D01*
X114677044Y-43761588D01*
X114627812Y-43835268D01*
X114627813Y-43835269D01*
X114594921Y-43884496D01*
X114594914Y-43884508D01*
X114538342Y-44021086D01*
X114538340Y-44021092D01*
X114509500Y-44166079D01*
X114509500Y-51242796D01*
X114489815Y-51309835D01*
X114473181Y-51330477D01*
X114420588Y-51383069D01*
X114420588Y-51383070D01*
X114420586Y-51383072D01*
X114376859Y-51443256D01*
X114318768Y-51523211D01*
X114237966Y-51681795D01*
X114189991Y-51732591D01*
X114127481Y-51749500D01*
X110490833Y-51749500D01*
X110423794Y-51729815D01*
X110378039Y-51677011D01*
X110372902Y-51663819D01*
X110344871Y-51577550D01*
X110266231Y-51423211D01*
X110237068Y-51383072D01*
X110164414Y-51283072D01*
X110041928Y-51160586D01*
X109958975Y-51100317D01*
X109916311Y-51044988D01*
X109910332Y-50975374D01*
X109942938Y-50913579D01*
X109958976Y-50899682D01*
X110041928Y-50839414D01*
X110164414Y-50716928D01*
X110266232Y-50576788D01*
X110344873Y-50422445D01*
X110398402Y-50257701D01*
X110425500Y-50086611D01*
X110425500Y-49913389D01*
X110398402Y-49742299D01*
X110344873Y-49577555D01*
X110266232Y-49423212D01*
X110164414Y-49283072D01*
X110041928Y-49160586D01*
X109958975Y-49100317D01*
X109916311Y-49044988D01*
X109910332Y-48975374D01*
X109942938Y-48913579D01*
X109958976Y-48899682D01*
X110041928Y-48839414D01*
X110164414Y-48716928D01*
X110266232Y-48576788D01*
X110344873Y-48422445D01*
X110398402Y-48257701D01*
X110425500Y-48086611D01*
X110425500Y-47913389D01*
X110398402Y-47742299D01*
X110344873Y-47577555D01*
X110266232Y-47423212D01*
X110164414Y-47283072D01*
X110041928Y-47160586D01*
X109958975Y-47100317D01*
X109916311Y-47044988D01*
X109910332Y-46975374D01*
X109942938Y-46913579D01*
X109958976Y-46899682D01*
X110041928Y-46839414D01*
X110164414Y-46716928D01*
X110266232Y-46576788D01*
X110344873Y-46422445D01*
X110398402Y-46257701D01*
X110425500Y-46086611D01*
X110425500Y-45913389D01*
X110398402Y-45742299D01*
X110344873Y-45577555D01*
X110266232Y-45423212D01*
X110164414Y-45283072D01*
X110056872Y-45175530D01*
X110023387Y-45114207D01*
X110028371Y-45044515D01*
X110070243Y-44988582D01*
X110079457Y-44982310D01*
X110116660Y-44959363D01*
X110143656Y-44942712D01*
X110267712Y-44818656D01*
X110359814Y-44669334D01*
X110414999Y-44502797D01*
X110425500Y-44400009D01*
X110425499Y-43599992D01*
X110418293Y-43529454D01*
X110414999Y-43497203D01*
X110414998Y-43497200D01*
X110388439Y-43417050D01*
X110359814Y-43330666D01*
X110267712Y-43181344D01*
X110143656Y-43057288D01*
X109994334Y-42965186D01*
X109827797Y-42910001D01*
X109827795Y-42910000D01*
X109725010Y-42899500D01*
X108374998Y-42899500D01*
X108374981Y-42899501D01*
X108272203Y-42910000D01*
X108272200Y-42910001D01*
X108105668Y-42965185D01*
X108105663Y-42965187D01*
X107956342Y-43057289D01*
X107832289Y-43181342D01*
X107740187Y-43330663D01*
X107740186Y-43330666D01*
X107685001Y-43497203D01*
X107685001Y-43497204D01*
X107685000Y-43497204D01*
X107674500Y-43599983D01*
X107674500Y-44400001D01*
X107674501Y-44400019D01*
X107685000Y-44502796D01*
X107685001Y-44502799D01*
X107726115Y-44626872D01*
X107740186Y-44669334D01*
X107832288Y-44818656D01*
X107956344Y-44942712D01*
X107983340Y-44959363D01*
X108020543Y-44982310D01*
X108067268Y-45034258D01*
X108078489Y-45103221D01*
X108050646Y-45167303D01*
X108043128Y-45175530D01*
X107935585Y-45283073D01*
X107833768Y-45423211D01*
X107755128Y-45577552D01*
X107701597Y-45742302D01*
X107674500Y-45913389D01*
X107674500Y-46086611D01*
X107701598Y-46257701D01*
X107755127Y-46422445D01*
X107833768Y-46576788D01*
X107935586Y-46716928D01*
X108058072Y-46839414D01*
X108058078Y-46839418D01*
X108141023Y-46899683D01*
X108183689Y-46955013D01*
X108189667Y-47024626D01*
X108157061Y-47086421D01*
X108141023Y-47100317D01*
X108058078Y-47160581D01*
X108058069Y-47160588D01*
X107935588Y-47283069D01*
X107935588Y-47283070D01*
X107935586Y-47283072D01*
X107928993Y-47292147D01*
X107833768Y-47423211D01*
X107755128Y-47577552D01*
X107701597Y-47742302D01*
X107675124Y-47909449D01*
X107674500Y-47913389D01*
X107674500Y-48086611D01*
X107682677Y-48138239D01*
X107697597Y-48232444D01*
X107701598Y-48257701D01*
X107755127Y-48422445D01*
X107833768Y-48576788D01*
X107935586Y-48716928D01*
X108058072Y-48839414D01*
X108059692Y-48840591D01*
X108141023Y-48899683D01*
X108183689Y-48955013D01*
X108189667Y-49024626D01*
X108157061Y-49086421D01*
X108141023Y-49100317D01*
X108058078Y-49160581D01*
X108058069Y-49160588D01*
X107935588Y-49283069D01*
X107935588Y-49283070D01*
X107935586Y-49283072D01*
X107928993Y-49292147D01*
X107833768Y-49423211D01*
X107755128Y-49577552D01*
X107701597Y-49742302D01*
X107674500Y-49913389D01*
X107674500Y-50086610D01*
X107693220Y-50204808D01*
X107701598Y-50257701D01*
X107755127Y-50422445D01*
X107833768Y-50576788D01*
X107935586Y-50716928D01*
X108058072Y-50839414D01*
X108058078Y-50839418D01*
X108141023Y-50899683D01*
X108183689Y-50955013D01*
X108189667Y-51024626D01*
X108157061Y-51086421D01*
X108141023Y-51100317D01*
X108058078Y-51160581D01*
X108058069Y-51160588D01*
X107935588Y-51283069D01*
X107935588Y-51283070D01*
X107935586Y-51283072D01*
X107901144Y-51330477D01*
X107833768Y-51423211D01*
X107755128Y-51577552D01*
X107701597Y-51742302D01*
X107674500Y-51913389D01*
X107674500Y-52086611D01*
X107674499Y-52086611D01*
X107695724Y-52220620D01*
X107686769Y-52289913D01*
X107660932Y-52327698D01*
X105917047Y-54071584D01*
X105917043Y-54071589D01*
X105870241Y-54141637D01*
X105870240Y-54141639D01*
X105852578Y-54168072D01*
X105834916Y-54194504D01*
X105834912Y-54194511D01*
X105778343Y-54331082D01*
X105778340Y-54331092D01*
X105749500Y-54476079D01*
X105749500Y-54476082D01*
X105749500Y-67573918D01*
X105749500Y-67573920D01*
X105749499Y-67573920D01*
X97750500Y-67573920D01*
X97750500Y-35361011D01*
X97770185Y-35293972D01*
X97822989Y-35248217D01*
X97874500Y-35237011D01*
X172125500Y-35237011D01*
X172192539Y-35256696D01*
G37*
%TD.AperFunction*%
%TD*%
M02*
